<?xml version="1.0" encoding="utf-8" ?><svg version="1.1" xmlns = 'http://www.w3.org/2000/svg'><defs><font id='web' horiz-adv-x="1000">
<font-face font-family="web" descent="-467" cap-height="1446" units-per-em="2048" bbox="-264,-479,2527,1949" x-height="1024" ascent="1581" />
<missing-glyph horiz-adv-x="1024" d="M 1024 1446 L 1024 0 L 0 0 L 0 1446 L 1024 1446 Z M 59 55 L 963 55 L 963 1391 L 59 1391 L 59 55 Z" /><glyph horiz-adv-x="469" d="" unicode=" " />
<glyph horiz-adv-x="512" d="M 514 1446 L 477 1257 L 307 475 L 258 475 L 389 1257 L 426 1446 L 514 1446 Z M 276 219 L 233 0 L 145 0 L 188 219 L 276 219 Z" unicode="!" />
<glyph horiz-adv-x="666" d="M 449 1446 L 393 1280 L 287 954 L 236 954 L 317 1280 L 360 1446 L 449 1446 Z M 741 1446 L 686 1280 L 580 954 L 528 954 L 610 1280 L 653 1446 L 741 1446 Z" unicode="&#x22;" />
<glyph horiz-adv-x="1669" d="M 322 1114 L 657 1114 L 776 1532 L 836 1532 L 717 1114 L 1249 1114 L 1368 1532 L 1425 1532 L 1307 1114 L 1622 1114 L 1610 1057 L 1290 1057 L 1114 428 L 1438 428 L 1427 371 L 1098 371 L 971 -86 L 909 -86 L 1038 371 L 508 371 L 379 -86 L 317 -86 L 446 371 L 129 371 L 139 428 L 463 428 L 641 1057 L 309 1057 L 322 1114 Z M 524 428 L 1055 428 L 1233 1057 L 700 1057 L 524 428 Z" unicode="#" />
<glyph horiz-adv-x="1237" d="M 1096 1217 C 1039 1249 979 1276 916 1298 C 853 1320 789 1331 723 1331 C 681 1331 639 1326 599 1316 C 559 1306 523 1290 491 1269 C 459 1248 433 1221 414 1188 C 394 1155 385 1115 385 1069 C 385 1029 392 996 407 969 C 421 941 442 917 468 896 C 494 875 525 856 561 840 C 597 824 636 807 680 791 C 732 769 780 747 824 725 C 868 703 905 678 936 651 C 967 623 991 592 1008 557 C 1025 521 1034 480 1034 432 C 1034 372 1021 321 996 278 C 971 234 937 198 895 170 C 853 141 803 120 747 106 C 690 92 630 86 567 86 L 512 -211 L 453 -211 L 510 88 C 478 90 446 94 413 100 C 379 106 346 114 314 124 C 281 134 249 147 218 162 C 187 177 159 195 133 215 L 166 274 C 194 252 225 232 259 216 C 293 200 328 186 364 176 C 400 166 436 158 472 153 C 508 147 543 145 575 145 C 614 145 656 149 701 157 C 746 165 788 180 826 201 C 864 221 895 249 920 284 C 945 319 958 363 958 416 C 958 460 949 497 932 529 C 914 561 891 588 862 612 C 833 636 799 657 761 675 C 723 693 683 711 641 729 C 597 746 556 764 516 782 C 476 800 441 822 411 847 C 381 872 356 902 338 936 C 320 970 311 1013 311 1063 C 311 1116 321 1163 343 1204 C 365 1244 394 1278 432 1306 C 470 1334 514 1355 564 1369 C 614 1383 667 1391 723 1391 C 729 1391 734 1391 739 1391 C 743 1391 751 1390 762 1389 L 807 1620 L 866 1620 L 819 1382 C 871 1374 922 1361 972 1343 C 1022 1325 1074 1303 1126 1278 L 1096 1217 Z" unicode="$" />
<glyph horiz-adv-x="1849" d="M 598 1458 C 646 1458 688 1450 725 1436 C 762 1422 793 1401 818 1375 C 842 1348 861 1315 874 1277 C 886 1239 893 1195 893 1147 C 893 1113 890 1076 885 1038 C 880 1000 872 962 860 924 C 848 886 833 850 813 816 C 793 782 769 751 740 725 C 711 699 677 678 637 662 C 597 646 550 639 498 639 C 400 639 326 666 277 720 C 227 774 203 851 203 950 C 203 984 205 1020 210 1058 C 215 1096 223 1134 235 1172 C 247 1210 262 1246 282 1280 C 302 1314 326 1345 355 1371 C 384 1397 419 1418 459 1434 C 499 1450 545 1458 598 1458 Z M 1554 1446 L 451 0 L 387 0 L 1491 1446 L 1554 1446 Z M 596 1407 C 550 1407 511 1399 477 1385 C 443 1370 413 1350 388 1326 C 363 1302 343 1274 327 1242 C 311 1210 298 1178 288 1144 C 278 1110 272 1076 268 1042 C 264 1008 262 976 262 948 C 262 868 281 805 320 759 C 358 713 418 690 500 690 C 545 690 585 697 619 712 C 653 726 683 746 708 770 C 732 794 753 822 769 854 C 785 886 798 919 808 953 C 818 987 824 1020 828 1054 C 832 1088 834 1119 834 1149 C 834 1188 829 1224 819 1256 C 809 1288 795 1315 775 1337 C 755 1359 730 1377 700 1389 C 670 1401 636 1407 596 1407 Z M 1440 807 C 1536 807 1610 779 1660 724 C 1710 669 1735 593 1735 496 C 1735 462 1732 425 1727 387 C 1722 349 1714 311 1702 273 C 1690 235 1675 199 1655 165 C 1635 131 1611 100 1582 74 C 1552 48 1518 27 1478 11 C 1438 -4 1391 -12 1339 -12 C 1241 -12 1168 15 1118 69 C 1068 123 1044 199 1044 299 C 1044 333 1046 369 1051 407 C 1056 445 1064 483 1076 521 C 1088 559 1103 595 1123 629 C 1143 663 1167 694 1197 720 C 1226 746 1261 767 1301 783 C 1341 799 1387 807 1440 807 Z M 1438 756 C 1392 756 1352 748 1318 734 C 1284 719 1254 699 1230 675 C 1205 651 1184 623 1168 591 C 1152 559 1139 527 1130 493 C 1120 459 1114 425 1110 391 C 1106 357 1104 325 1104 297 C 1104 217 1123 154 1162 108 C 1200 62 1260 39 1341 39 C 1387 39 1427 46 1461 61 C 1495 75 1525 95 1550 119 C 1574 143 1595 171 1611 203 C 1627 235 1639 268 1649 302 C 1659 336 1665 369 1669 403 C 1673 437 1675 468 1675 498 C 1675 537 1670 572 1660 604 C 1650 636 1636 663 1617 686 C 1597 708 1573 726 1543 738 C 1513 750 1478 756 1438 756 Z" unicode="%" />
<glyph horiz-adv-x="1341" d="M 1067 1200 C 1067 1158 1060 1121 1047 1088 C 1034 1055 1016 1026 994 1000 C 971 974 945 950 915 930 C 885 910 853 891 820 875 C 786 859 752 844 717 831 C 681 818 647 806 614 795 C 664 712 717 627 773 541 C 828 455 885 367 944 279 C 972 306 1001 336 1032 370 C 1062 404 1093 439 1124 475 C 1155 511 1186 549 1216 587 C 1246 625 1275 663 1303 700 L 1368 682 C 1338 643 1307 603 1275 563 C 1243 522 1210 482 1177 443 C 1143 403 1110 366 1076 330 C 1042 294 1009 261 977 231 C 1001 198 1023 171 1045 150 C 1067 128 1088 110 1109 96 C 1129 82 1149 70 1169 62 C 1189 53 1209 45 1229 37 L 1208 -18 C 1184 -12 1160 -4 1138 5 C 1115 15 1092 28 1069 44 C 1046 60 1023 79 999 102 C 975 125 951 153 926 186 C 846 113 768 60 690 27 C 612 -6 530 -23 446 -23 C 392 -23 341 -16 293 -2 C 245 11 204 32 168 61 C 132 89 103 126 82 171 C 61 216 51 270 51 334 C 51 403 63 463 89 515 C 115 567 149 612 192 651 C 235 689 285 722 342 749 C 398 776 458 800 520 821 C 491 869 467 919 448 970 C 429 1020 420 1072 420 1126 C 420 1172 428 1215 444 1257 C 460 1298 484 1334 514 1366 C 544 1397 580 1422 623 1440 C 666 1458 714 1468 768 1468 C 808 1468 847 1462 883 1451 C 919 1439 950 1422 978 1400 C 1005 1378 1027 1350 1043 1317 C 1059 1283 1067 1244 1067 1200 Z M 457 35 C 531 35 604 50 676 82 C 748 113 821 162 895 229 C 867 271 838 314 808 360 C 778 406 749 452 719 499 C 689 545 660 592 632 639 C 603 685 575 730 549 774 C 494 758 441 738 390 714 C 339 690 294 661 255 627 C 216 593 185 552 162 506 C 138 459 127 404 127 342 C 127 292 134 247 150 209 C 166 171 188 139 217 113 C 245 87 280 67 321 54 C 361 41 407 35 457 35 Z M 485 1135 C 485 1089 494 1041 512 991 C 530 941 554 891 586 842 C 609 849 635 857 665 867 C 695 877 725 888 756 902 C 786 915 816 930 845 948 C 874 966 900 986 923 1010 C 945 1034 964 1060 978 1090 C 992 1120 999 1154 999 1192 C 999 1226 993 1256 982 1284 C 971 1311 956 1334 936 1354 C 916 1373 892 1388 864 1399 C 836 1409 806 1415 772 1415 C 732 1415 695 1408 661 1394 C 626 1380 596 1360 570 1336 C 544 1311 523 1281 508 1247 C 492 1213 485 1175 485 1135 Z" unicode="&#x26;" />
<glyph horiz-adv-x="371" d="M 449 1446 L 393 1280 L 287 954 L 236 954 L 317 1280 L 360 1446 L 449 1446 Z" unicode="'" />
<glyph horiz-adv-x="623" d="M 393 -326 C 357 -291 322 -247 290 -193 C 257 -139 228 -78 203 -12 C 178 54 158 126 143 203 C 128 279 121 358 121 440 C 121 546 135 653 165 759 C 195 865 237 966 291 1062 C 345 1158 411 1247 487 1329 C 563 1410 647 1479 741 1536 L 801 1536 L 797 1520 C 704 1462 620 1392 545 1310 C 470 1228 406 1139 354 1043 C 301 947 260 846 232 742 C 204 638 190 534 190 432 C 190 352 197 274 211 199 C 225 124 243 54 267 -10 C 291 -74 318 -132 348 -183 C 378 -234 410 -275 442 -307 L 440 -326 L 393 -326 Z" unicode="(" />
<glyph horiz-adv-x="627" d="M -135 -326 L -131 -309 C -69 -270 -10 -226 43 -176 C 97 -126 147 -73 192 -15 C 237 42 277 103 313 167 C 348 231 378 297 402 365 C 426 433 445 501 458 571 C 470 641 477 710 477 778 C 477 858 469 935 455 1011 C 441 1086 422 1156 398 1221 C 374 1285 347 1343 317 1394 C 286 1445 255 1486 223 1518 L 227 1536 L 274 1536 C 310 1501 344 1457 377 1403 C 409 1349 438 1289 463 1223 C 488 1156 508 1084 523 1007 C 537 930 545 851 545 770 C 545 663 530 557 500 451 C 470 345 428 244 374 148 C 320 52 254 -36 178 -118 C 102 -200 17 -269 -76 -326 L -135 -326 Z" unicode=")" />
<glyph horiz-adv-x="811" d="M 494 1128 L 500 1135 L 526 1370 L 535 1417 L 606 1403 L 594 1356 L 526 1130 L 532 1122 L 764 1174 L 809 1178 L 817 1108 L 772 1102 L 532 1098 L 528 1087 L 649 883 L 672 840 L 606 811 L 588 852 L 506 1077 L 498 1079 L 338 901 L 303 868 L 254 922 L 289 952 L 479 1098 L 479 1108 L 262 1202 L 223 1225 L 258 1286 L 297 1266 L 494 1128 Z" unicode="*" />
<glyph horiz-adv-x="1167" d="M 618 1141 L 618 602 L 1153 602 L 1153 541 L 618 541 L 618 0 L 549 0 L 549 541 L 14 541 L 14 602 L 549 602 L 549 1141 L 618 1141 Z" unicode="+" />
<glyph horiz-adv-x="313" d="M 236 219 L -100 -274 L -160 -274 L 143 219 L 236 219 Z" unicode="," />
<glyph horiz-adv-x="629" d="M 578 606 L 563 541 L 123 541 L 137 606 L 578 606 Z" unicode="-" />
<glyph horiz-adv-x="313" d="M 156 219 L 113 0 L 25 0 L 68 219 L 156 219 Z" unicode="." />
<glyph horiz-adv-x="967" d="M 1077 1446 L 4 -236 L -63 -236 L 1006 1446 L 1077 1446 Z" unicode="/" />
<glyph horiz-adv-x="1241" d="M 748 1468 C 825 1468 891 1454 946 1427 C 1000 1399 1045 1362 1080 1314 C 1114 1266 1140 1209 1156 1143 C 1172 1077 1180 1006 1180 930 C 1180 894 1178 853 1174 807 C 1170 761 1163 712 1154 661 C 1145 610 1133 558 1117 505 C 1101 451 1082 399 1059 349 C 1035 299 1008 251 976 207 C 944 163 907 124 865 91 C 823 58 775 32 722 13 C 669 -6 610 -16 545 -16 C 469 -16 403 -2 349 24 C 295 51 250 88 216 136 C 181 184 155 240 139 306 C 123 372 115 444 115 522 C 115 557 116 598 120 644 C 124 690 130 739 140 790 C 149 841 161 893 177 947 C 193 1000 212 1052 235 1102 C 258 1152 286 1199 318 1243 C 350 1287 386 1326 428 1360 C 470 1393 517 1419 570 1439 C 623 1458 682 1468 748 1468 Z M 1108 932 C 1108 992 1102 1051 1091 1108 C 1079 1165 1060 1216 1032 1261 C 1004 1305 966 1341 919 1368 C 872 1395 813 1409 741 1409 C 683 1409 631 1400 585 1382 C 539 1364 497 1340 460 1310 C 423 1279 391 1243 363 1202 C 335 1160 310 1116 290 1070 C 270 1023 253 975 239 925 C 225 875 214 825 206 777 C 198 729 192 683 189 639 C 185 595 184 555 184 520 C 184 457 189 397 201 340 C 212 282 232 232 260 188 C 288 144 325 108 372 82 C 419 56 478 43 549 43 C 610 43 665 52 714 72 C 762 92 805 118 843 152 C 881 186 913 225 941 269 C 969 313 992 360 1012 409 C 1032 458 1048 508 1060 559 C 1072 609 1082 658 1089 705 C 1096 751 1101 794 1104 834 C 1106 873 1108 906 1108 932 Z" unicode="0" />
<glyph horiz-adv-x="774" d="M 295 0 L 553 1325 L 567 1376 L 561 1376 L 156 1221 L 170 1288 L 598 1446 L 655 1446 L 625 1321 L 367 0 L 295 0 Z" unicode="1" />
<glyph horiz-adv-x="1212" d="M 815 690 C 845 715 876 742 908 771 C 940 800 968 832 994 866 C 1019 900 1040 938 1056 978 C 1072 1018 1081 1062 1081 1110 C 1081 1154 1072 1195 1056 1232 C 1039 1269 1016 1301 986 1327 C 956 1353 921 1373 881 1387 C 841 1401 797 1409 750 1409 C 704 1409 662 1403 622 1391 C 582 1379 545 1362 511 1341 C 477 1319 445 1294 416 1264 C 387 1234 361 1202 338 1167 L 283 1194 C 305 1230 332 1264 364 1298 C 395 1331 430 1360 470 1385 C 509 1410 553 1430 601 1445 C 649 1460 701 1468 758 1468 C 812 1468 862 1460 910 1445 C 958 1430 1000 1408 1036 1378 C 1072 1348 1100 1312 1121 1268 C 1142 1224 1153 1174 1153 1118 C 1153 1066 1145 1020 1131 978 C 1117 936 1097 896 1072 859 C 1046 822 1016 787 981 753 C 945 719 906 684 864 649 L 158 61 L 993 61 L 981 0 L 53 0 L 66 63 L 815 690 Z" unicode="2" />
<glyph horiz-adv-x="1161" d="M 227 1276 C 256 1300 287 1323 320 1346 C 352 1369 387 1390 424 1408 C 461 1426 501 1440 544 1451 C 586 1462 632 1468 682 1468 C 731 1468 779 1461 826 1449 C 873 1437 915 1418 951 1392 C 987 1366 1017 1333 1039 1293 C 1061 1253 1073 1205 1073 1151 C 1073 1101 1063 1055 1043 1015 C 1023 974 997 939 964 909 C 930 879 891 854 847 835 C 803 815 756 801 707 793 L 705 782 C 747 774 785 762 820 746 C 855 730 885 708 911 682 C 937 656 957 624 971 586 C 985 548 993 505 993 457 C 993 395 983 340 964 292 C 944 243 917 200 883 162 C 849 124 808 92 760 65 C 712 38 660 16 604 -1 C 548 -18 488 -31 425 -39 C 361 -47 297 -51 231 -51 C 215 -51 198 -50 180 -50 C 162 -49 143 -48 124 -47 C 104 -45 85 -43 66 -41 C 46 -38 28 -35 12 -31 L 12 31 C 49 24 85 19 121 15 C 156 11 189 10 219 10 C 274 10 330 13 386 19 C 442 25 497 34 549 48 C 601 62 649 80 695 103 C 740 125 779 153 813 186 C 847 218 873 256 893 300 C 912 344 922 394 922 451 C 922 501 913 545 895 583 C 877 620 853 651 823 676 C 793 700 758 718 718 730 C 678 742 637 748 594 748 C 574 748 548 746 515 744 C 482 742 437 739 381 735 L 381 795 L 545 803 C 573 804 603 807 637 813 C 671 819 704 827 738 838 C 772 849 804 863 836 881 C 867 898 895 919 919 944 C 943 968 962 997 977 1029 C 991 1061 999 1099 999 1141 C 999 1185 990 1223 974 1257 C 957 1290 934 1318 905 1341 C 876 1363 842 1380 803 1392 C 763 1403 721 1409 676 1409 C 636 1409 599 1404 564 1396 C 528 1387 494 1375 461 1360 C 428 1345 396 1327 365 1307 C 333 1286 302 1264 270 1241 L 227 1276 L 227 1276 Z" unicode="3" />
<glyph horiz-adv-x="1280" d="M 1038 1446 L 838 412 L 1174 412 L 1161 352 L 827 352 L 758 0 L 686 0 L 756 352 L 51 352 L 66 426 L 969 1446 L 1038 1446 Z M 133 412 L 766 412 L 932 1255 L 954 1335 L 948 1335 L 133 412 Z" unicode="4" />
<glyph horiz-adv-x="1227" d="M 70 31 C 104 24 138 19 173 16 C 208 13 247 12 291 12 C 392 12 485 23 570 45 C 655 67 728 100 790 146 C 851 192 899 250 933 320 C 967 390 985 474 985 571 C 985 681 958 763 906 816 C 854 868 776 895 672 895 C 640 895 609 892 578 887 C 546 881 514 872 480 860 C 446 848 411 831 373 811 C 335 790 295 765 252 735 L 207 760 L 389 1446 L 1186 1446 L 1174 1384 L 436 1384 L 283 805 C 357 857 428 895 496 919 C 564 943 631 956 698 956 C 750 956 798 948 842 934 C 886 920 924 897 956 867 C 988 836 1013 797 1031 749 C 1049 701 1059 643 1059 575 C 1059 479 1042 393 1008 316 C 974 238 925 172 860 118 C 794 64 714 22 618 -7 C 522 -36 411 -51 287 -51 C 269 -51 251 -50 232 -50 C 212 -49 193 -48 174 -47 C 154 -45 135 -43 117 -41 C 99 -38 82 -35 68 -31 L 70 31 Z" unicode="5" />
<glyph horiz-adv-x="1171" d="M 952 1499 C 972 1499 996 1498 1024 1497 C 1051 1495 1076 1492 1100 1487 L 1100 1421 C 1077 1424 1052 1427 1025 1430 C 998 1432 970 1434 940 1434 C 853 1434 777 1422 712 1399 C 646 1375 588 1343 537 1303 C 486 1262 442 1216 404 1164 C 366 1112 333 1058 306 1000 C 279 942 257 883 240 822 C 222 760 209 700 199 641 C 218 681 244 718 276 752 C 308 786 344 816 385 842 C 426 868 471 888 519 902 C 567 916 618 924 670 924 C 726 924 779 915 830 898 C 881 880 926 854 965 819 C 1003 784 1034 740 1057 688 C 1080 636 1092 575 1092 506 C 1092 442 1081 378 1060 316 C 1038 254 1006 198 963 149 C 919 99 865 59 799 29 C 733 0 655 -16 565 -16 C 497 -16 436 -6 380 13 C 324 32 276 61 236 101 C 196 141 164 191 142 252 C 120 313 109 385 109 469 C 109 509 111 553 117 603 C 123 652 132 703 144 757 C 156 810 173 864 193 919 C 213 974 237 1027 266 1079 C 294 1131 328 1180 366 1227 C 404 1273 447 1315 496 1352 C 560 1401 629 1438 703 1462 C 777 1486 860 1499 952 1499 Z M 655 862 C 597 862 540 851 484 831 C 427 810 376 781 331 744 C 286 707 250 663 222 611 C 194 559 180 502 180 440 C 180 378 189 322 207 274 C 225 225 251 184 285 150 C 319 116 360 90 408 72 C 456 54 511 45 571 45 C 644 45 708 57 764 82 C 820 107 866 141 904 183 C 942 225 970 273 989 328 C 1008 383 1018 440 1018 500 C 1018 560 1008 612 990 657 C 971 702 945 740 913 770 C 880 800 841 823 797 839 C 753 854 705 862 655 862 Z" unicode="6" />
<glyph horiz-adv-x="1055" d="M 1151 1446 L 1141 1389 C 1119 1370 1087 1341 1043 1303 C 999 1265 949 1217 892 1159 C 835 1101 774 1033 709 955 C 644 877 579 790 515 694 C 451 597 389 491 331 375 C 273 259 222 134 180 0 L 102 0 C 140 123 187 239 241 349 C 295 459 353 561 414 656 C 475 750 537 837 601 916 C 664 995 724 1065 782 1127 C 839 1188 891 1240 938 1284 C 985 1327 1023 1360 1051 1384 L 156 1384 L 168 1446 L 1151 1446 Z" unicode="7" />
<glyph horiz-adv-x="1270" d="M 530 778 C 504 786 477 797 449 812 C 421 827 395 847 371 871 C 347 895 327 925 311 959 C 295 993 287 1034 287 1081 C 287 1140 299 1193 325 1241 C 351 1288 385 1328 429 1361 C 472 1394 522 1419 579 1437 C 636 1455 696 1464 760 1464 C 812 1464 865 1457 918 1443 C 970 1429 1018 1408 1060 1380 C 1102 1351 1136 1314 1162 1270 C 1188 1226 1202 1173 1202 1112 C 1202 1058 1192 1010 1172 968 C 1152 926 1126 890 1092 860 C 1058 830 1019 806 975 788 C 931 770 884 758 836 754 L 834 745 C 872 735 908 721 942 703 C 976 685 1005 663 1030 636 C 1055 609 1075 577 1090 540 C 1104 502 1112 459 1112 410 C 1112 344 1098 284 1072 232 C 1045 179 1008 134 961 98 C 914 61 859 33 796 13 C 732 -6 664 -16 590 -16 C 530 -16 471 -9 413 5 C 355 19 303 41 258 71 C 212 101 176 141 148 190 C 120 238 106 297 106 367 C 106 424 116 476 136 524 C 156 572 184 613 221 648 C 258 683 303 711 355 732 C 407 753 464 766 528 770 L 530 778 Z M 762 1405 C 712 1405 662 1398 614 1384 C 566 1370 522 1350 484 1323 C 446 1296 415 1262 391 1221 C 367 1180 356 1133 356 1079 C 356 1025 367 980 391 943 C 414 906 444 876 480 853 C 516 829 557 812 602 802 C 646 791 690 786 733 786 C 780 786 827 792 875 805 C 922 817 964 837 1002 863 C 1040 889 1070 921 1094 961 C 1118 1001 1130 1048 1130 1102 C 1130 1154 1119 1199 1098 1237 C 1076 1275 1048 1307 1014 1332 C 979 1356 940 1375 896 1387 C 852 1399 807 1405 762 1405 Z M 182 397 C 176 336 184 283 205 239 C 226 194 256 157 295 128 C 333 99 378 78 430 64 C 482 50 536 43 592 43 C 654 43 713 51 767 67 C 821 83 869 107 909 139 C 949 170 981 208 1005 254 C 1028 300 1040 352 1040 412 C 1040 472 1027 522 1003 563 C 979 604 947 637 908 662 C 868 687 824 705 775 716 C 725 727 675 733 625 733 C 562 733 505 725 453 711 C 401 697 355 675 317 647 C 278 619 247 584 224 542 C 200 500 186 451 182 397 Z" unicode="8" />
<glyph horiz-adv-x="1169" d="M 268 -47 C 247 -47 223 -46 196 -45 C 169 -43 144 -40 121 -35 L 121 31 C 143 27 168 24 194 22 C 220 19 249 18 281 18 C 366 18 441 30 507 54 C 573 78 632 110 684 150 C 734 190 779 235 817 287 C 855 339 887 393 914 451 C 941 509 963 568 981 630 C 998 691 1012 751 1022 811 C 1002 771 976 733 944 699 C 912 665 875 635 834 609 C 793 583 749 563 701 549 C 653 535 603 528 551 528 C 495 528 441 536 390 554 C 339 571 294 597 256 632 C 217 667 186 711 163 763 C 140 815 129 876 129 946 C 129 1010 139 1073 160 1135 C 181 1197 213 1253 257 1303 C 300 1352 355 1392 421 1422 C 487 1452 565 1468 655 1468 C 722 1468 784 1458 840 1439 C 896 1419 944 1390 984 1350 C 1024 1310 1056 1260 1078 1199 C 1100 1138 1112 1066 1112 983 C 1112 943 1109 898 1103 849 C 1097 799 1088 748 1076 695 C 1064 641 1048 587 1028 532 C 1008 477 983 424 955 372 C 926 320 893 271 855 225 C 817 178 773 136 725 100 C 662 50 593 13 518 -10 C 443 -34 360 -47 268 -47 Z M 565 590 C 622 590 679 600 736 621 C 792 641 843 670 888 707 C 933 744 970 788 998 840 C 1026 892 1040 949 1040 1012 C 1040 1074 1031 1129 1013 1178 C 995 1227 969 1269 935 1303 C 901 1337 860 1364 812 1382 C 764 1400 709 1409 649 1409 C 575 1409 511 1396 455 1371 C 399 1345 353 1311 316 1269 C 278 1227 250 1178 231 1123 C 212 1068 203 1011 203 952 C 203 892 212 839 231 794 C 250 749 276 711 309 681 C 341 651 380 628 424 613 C 468 597 515 590 565 590 Z" unicode="9" />
<glyph horiz-adv-x="436" d="M 215 219 L 172 0 L 86 0 L 127 219 L 215 219 Z M 377 1053 L 334 834 L 248 834 L 289 1053 L 377 1053 Z" unicode=":" />
<glyph horiz-adv-x="471" d="M 340 219 L 8 -274 L -53 -274 L 248 219 L 340 219 Z M 412 1053 L 371 834 L 283 834 L 326 1053 L 412 1053 Z" unicode=";" />
<glyph horiz-adv-x="1167" d="M 1110 1090 L 1110 1016 L 285 637 L 139 575 L 139 563 L 285 506 L 1110 129 L 1110 55 L 57 545 L 57 596 L 1110 1090 Z" unicode="&#x3C;" />
<glyph horiz-adv-x="1167" d="M 1110 829 L 1110 766 L 57 766 L 57 829 L 1110 829 Z M 1110 373 L 1110 311 L 57 311 L 57 373 L 1110 373 Z" unicode="=" />
<glyph horiz-adv-x="1167" d="M 1110 596 L 1110 545 L 57 55 L 57 129 L 883 506 L 1028 563 L 1028 575 L 883 637 L 57 1016 L 57 1090 L 1110 596 Z" unicode="&#x3E;" />
<glyph horiz-adv-x="872" d="M 225 1315 C 245 1335 268 1355 295 1373 C 321 1391 350 1406 382 1420 C 414 1433 447 1443 482 1451 C 517 1458 553 1462 590 1462 C 634 1462 676 1455 716 1443 C 756 1430 790 1412 820 1388 C 849 1364 872 1334 889 1299 C 906 1264 915 1224 915 1180 C 915 1134 907 1092 891 1056 C 875 1020 853 986 826 955 C 798 923 767 894 731 866 C 695 838 656 809 616 780 C 594 764 572 747 548 731 C 524 714 501 694 479 671 C 457 648 438 621 421 589 C 404 557 392 519 385 475 L 319 475 C 326 519 336 556 350 588 C 363 620 380 648 401 674 C 421 700 446 724 474 747 C 502 769 535 794 573 821 C 607 845 641 869 675 893 C 708 917 738 943 764 971 C 790 998 810 1028 826 1061 C 842 1093 850 1130 850 1171 C 850 1209 842 1242 828 1271 C 814 1300 794 1324 770 1344 C 745 1363 716 1378 684 1388 C 651 1398 616 1403 580 1403 C 522 1403 464 1391 408 1369 C 352 1346 303 1315 262 1276 L 225 1315 Z M 350 219 L 307 0 L 219 0 L 262 219 L 350 219 Z" unicode="?" />
<glyph horiz-adv-x="2109" d="M 1569 1010 L 1292 338 C 1284 319 1278 303 1276 290 C 1273 276 1272 261 1272 244 C 1272 210 1284 182 1308 159 C 1332 136 1367 125 1413 125 C 1448 125 1486 132 1526 147 C 1566 161 1607 182 1647 210 C 1687 238 1725 271 1762 311 C 1799 351 1832 396 1860 446 C 1888 496 1911 550 1928 610 C 1945 670 1954 733 1954 801 C 1954 889 1938 970 1906 1045 C 1874 1120 1829 1185 1770 1240 C 1710 1294 1638 1337 1554 1368 C 1469 1399 1374 1415 1268 1415 C 1178 1415 1090 1404 1004 1382 C 917 1360 834 1329 756 1289 C 678 1248 605 1198 539 1140 C 473 1081 415 1015 367 941 C 319 867 281 785 254 697 C 226 609 213 515 213 416 C 213 331 223 253 244 183 C 265 113 294 49 330 -6 C 366 -62 409 -111 459 -153 C 509 -195 562 -230 620 -258 C 677 -286 737 -307 800 -321 C 863 -335 926 -342 989 -342 C 1041 -342 1095 -337 1152 -329 C 1209 -320 1264 -309 1318 -296 C 1371 -282 1421 -267 1467 -250 C 1513 -233 1551 -217 1581 -201 L 1599 -246 C 1567 -263 1528 -280 1481 -298 C 1433 -316 1382 -332 1326 -346 C 1270 -360 1212 -372 1152 -381 C 1092 -390 1035 -395 979 -395 C 912 -395 845 -387 779 -372 C 712 -357 648 -335 587 -305 C 525 -275 468 -238 415 -194 C 362 -149 316 -97 277 -37 C 238 22 207 89 185 164 C 163 238 152 320 152 410 C 152 515 166 614 195 708 C 224 802 264 888 316 966 C 368 1044 429 1115 500 1177 C 571 1239 648 1291 732 1334 C 815 1377 903 1410 995 1433 C 1087 1456 1181 1468 1276 1468 C 1390 1468 1492 1451 1583 1418 C 1674 1384 1752 1338 1816 1279 C 1880 1220 1929 1150 1963 1069 C 1997 988 2015 900 2015 805 C 2015 731 2005 661 1987 597 C 1968 532 1943 472 1911 418 C 1879 364 1843 315 1802 273 C 1760 230 1717 194 1672 165 C 1627 135 1581 113 1535 97 C 1489 81 1445 74 1405 74 C 1373 74 1345 77 1320 85 C 1294 93 1273 105 1257 121 C 1240 137 1228 157 1221 182 C 1213 206 1212 236 1217 270 C 1159 203 1099 154 1037 123 C 975 91 914 76 854 76 C 819 76 786 82 754 94 C 722 106 695 124 671 149 C 647 174 627 206 613 244 C 599 282 592 328 592 381 C 592 443 601 503 619 560 C 637 616 662 669 693 718 C 723 767 759 811 799 851 C 839 891 881 924 925 952 C 969 980 1013 1001 1058 1017 C 1103 1032 1146 1040 1186 1040 C 1222 1040 1254 1033 1283 1021 C 1311 1009 1336 992 1356 971 C 1376 950 1391 926 1403 899 C 1414 872 1421 844 1423 815 L 1505 1010 L 1569 1010 Z M 872 133 C 928 133 985 149 1045 181 C 1104 213 1164 264 1225 332 L 1393 739 C 1391 770 1385 800 1375 830 C 1365 859 1352 885 1334 908 C 1316 930 1294 948 1268 962 C 1242 976 1212 983 1178 983 C 1144 983 1107 976 1069 962 C 1030 948 992 929 954 904 C 916 879 879 849 844 813 C 808 777 777 738 750 694 C 723 650 702 603 686 552 C 670 500 662 447 662 391 C 662 346 667 307 679 275 C 690 243 705 216 724 195 C 743 174 765 158 791 148 C 816 138 843 133 872 133 Z" unicode="@" />
<glyph horiz-adv-x="1235" d="M 59 0 L -16 0 L 764 1446 L 854 1446 L 1069 0 L 997 0 L 940 381 L 262 381 L 59 0 Z M 295 440 L 932 440 L 807 1307 L 801 1372 L 793 1372 L 760 1307 L 295 440 Z" unicode="A" />
<glyph horiz-adv-x="1335" d="M 854 1446 C 910 1446 964 1439 1016 1425 C 1068 1411 1113 1391 1153 1363 C 1192 1335 1223 1301 1247 1259 C 1270 1217 1282 1168 1282 1112 C 1282 1068 1274 1027 1259 989 C 1243 950 1221 915 1192 885 C 1163 854 1128 828 1086 808 C 1044 787 997 774 944 768 L 944 760 C 980 750 1016 736 1050 719 C 1084 702 1113 680 1139 652 C 1164 624 1184 591 1200 553 C 1215 514 1223 468 1223 416 C 1223 348 1210 289 1186 237 C 1161 185 1126 142 1082 107 C 1037 71 984 45 923 27 C 861 9 794 0 721 0 L 115 0 L 395 1446 L 854 1446 Z M 328 735 L 199 59 L 725 59 C 781 59 834 66 885 81 C 935 96 980 118 1019 148 C 1058 178 1089 215 1112 259 C 1135 303 1147 355 1147 414 C 1147 461 1138 504 1121 544 C 1104 583 1079 617 1046 645 C 1012 673 970 695 920 711 C 870 727 811 735 745 735 L 328 735 Z M 340 795 L 809 795 C 870 795 925 802 974 817 C 1022 832 1063 853 1097 880 C 1131 907 1157 939 1175 976 C 1193 1013 1202 1054 1202 1098 C 1202 1145 1192 1187 1174 1223 C 1155 1259 1129 1289 1097 1313 C 1064 1337 1025 1355 981 1367 C 937 1379 889 1386 838 1386 L 455 1386 L 340 795 Z" unicode="B" />
<glyph horiz-adv-x="1346" d="M 1155 63 C 1109 36 1055 16 995 2 C 935 -11 867 -18 791 -18 C 690 -18 600 -4 522 23 C 444 51 378 91 324 143 C 270 195 230 259 202 335 C 174 410 160 496 160 592 C 160 664 167 735 182 807 C 196 879 218 947 248 1012 C 277 1076 313 1136 356 1192 C 399 1248 449 1296 506 1337 C 562 1378 626 1410 696 1433 C 766 1456 842 1468 926 1468 C 967 1468 1009 1464 1052 1458 C 1094 1452 1136 1442 1176 1430 C 1216 1418 1254 1402 1290 1384 C 1326 1366 1359 1345 1389 1321 L 1360 1257 C 1329 1282 1296 1304 1260 1323 C 1224 1342 1188 1358 1150 1371 C 1112 1383 1074 1393 1035 1399 C 996 1405 958 1409 920 1409 C 844 1409 774 1398 711 1376 C 647 1354 590 1323 540 1285 C 489 1246 445 1200 407 1148 C 369 1096 337 1039 312 979 C 286 919 267 856 255 791 C 242 725 236 660 236 596 C 236 508 248 429 274 361 C 299 292 336 234 384 186 C 432 138 490 102 560 78 C 630 53 709 41 797 41 C 869 41 934 49 994 65 C 1054 81 1107 103 1155 131 L 1155 63 Z" unicode="C" />
<glyph horiz-adv-x="1473" d="M 795 1446 C 888 1446 973 1433 1051 1407 C 1128 1381 1194 1343 1250 1292 C 1305 1240 1348 1175 1379 1097 C 1409 1019 1425 927 1425 823 C 1425 757 1418 691 1405 625 C 1392 559 1372 495 1345 435 C 1318 374 1284 317 1242 264 C 1200 211 1151 165 1094 126 C 1036 86 971 55 897 33 C 823 11 741 0 651 0 L 115 0 L 393 1446 L 795 1446 Z M 455 1386 L 199 59 L 653 59 C 731 59 802 69 867 89 C 932 109 990 136 1042 172 C 1094 207 1139 249 1177 297 C 1215 345 1247 397 1273 454 C 1299 510 1318 570 1331 632 C 1343 694 1350 757 1350 821 C 1350 912 1337 993 1311 1063 C 1285 1133 1249 1192 1201 1240 C 1153 1288 1094 1324 1026 1349 C 957 1373 880 1386 795 1386 L 455 1386 Z" unicode="D" />
<glyph horiz-adv-x="1309" d="M 338 784 L 1118 784 L 1106 725 L 326 725 L 199 59 L 1090 59 L 1077 0 L 115 0 L 395 1446 L 1337 1446 L 1325 1386 L 455 1386 L 338 784 Z" unicode="E" />
<glyph horiz-adv-x="1178" d="M 338 784 L 1071 784 L 1059 725 L 326 725 L 186 0 L 115 0 L 395 1446 L 1288 1446 L 1276 1386 L 455 1386 L 338 784 Z" unicode="F" />
<glyph horiz-adv-x="1448" d="M 1401 1278 C 1332 1322 1258 1354 1179 1376 C 1100 1398 1020 1409 940 1409 C 862 1409 791 1398 726 1377 C 661 1355 602 1326 550 1288 C 498 1250 452 1206 412 1156 C 372 1105 339 1050 313 991 C 286 932 266 870 253 806 C 239 742 233 678 233 614 C 233 522 246 441 274 370 C 302 298 341 238 393 189 C 444 140 506 103 580 77 C 653 51 735 39 827 39 C 855 39 883 40 913 42 C 943 44 972 47 1000 51 C 1028 55 1056 61 1082 68 C 1108 74 1131 82 1153 92 L 1257 637 L 823 637 L 836 694 L 1335 694 L 1210 51 C 1186 39 1159 28 1128 20 C 1096 11 1063 4 1028 -2 C 992 -8 956 -12 919 -15 C 882 -18 847 -20 813 -20 C 709 -20 617 -5 537 24 C 456 54 388 96 332 151 C 276 206 233 273 204 351 C 174 429 160 516 160 612 C 160 686 168 758 184 830 C 200 901 224 968 255 1032 C 286 1095 324 1153 370 1207 C 415 1260 467 1306 526 1345 C 584 1383 649 1413 720 1435 C 791 1457 868 1468 950 1468 C 990 1468 1033 1465 1077 1460 C 1121 1454 1164 1446 1206 1436 C 1248 1425 1288 1412 1327 1396 C 1365 1380 1400 1361 1430 1341 L 1401 1278 Z" unicode="G" />
<glyph horiz-adv-x="1448" d="M 334 762 L 1227 762 L 1360 1446 L 1432 1446 L 1151 0 L 1079 0 L 1217 705 L 324 705 L 186 0 L 115 0 L 395 1446 L 467 1446 L 334 762 Z" unicode="H" />
<glyph horiz-adv-x="483" d="M 467 1446 L 186 0 L 115 0 L 395 1446 L 467 1446 Z" unicode="I" />
<glyph horiz-adv-x="944" d="M 6 176 C 24 156 46 137 70 121 C 94 104 121 89 149 77 C 177 65 206 55 238 49 C 269 42 301 39 334 39 C 430 39 504 67 557 124 C 610 180 647 262 668 369 L 877 1446 L 948 1446 L 735 354 C 711 233 667 140 601 76 C 535 12 445 -20 330 -20 C 264 -20 201 -8 141 16 C 81 40 28 73 -20 117 L 6 176 Z" unicode="J" />
<glyph horiz-adv-x="1323" d="M 291 543 L 1317 1446 L 1413 1446 L 760 874 L 1212 0 L 1130 0 L 707 829 L 274 451 L 186 0 L 115 0 L 395 1446 L 467 1446 L 291 543 Z" unicode="K" />
<glyph horiz-adv-x="1063" d="M 467 1446 L 199 59 L 967 59 L 954 0 L 115 0 L 395 1446 L 467 1446 Z" unicode="L" />
<glyph horiz-adv-x="1741" d="M 514 1446 L 791 96 L 799 96 L 1602 1446 L 1726 1446 L 1446 0 L 1374 0 L 1618 1264 L 1645 1380 L 1638 1380 L 817 0 L 741 0 L 457 1380 L 451 1380 L 184 0 L 115 0 L 395 1446 L 514 1446 Z" unicode="M" />
<glyph horiz-adv-x="1473" d="M 395 1446 L 492 1446 L 1071 184 L 1118 68 L 1126 68 L 1145 195 L 1389 1446 L 1456 1446 L 1176 0 L 1083 0 L 500 1262 L 453 1376 L 446 1376 L 426 1249 L 184 0 L 115 0 L 395 1446 Z" unicode="N" />
<glyph horiz-adv-x="1532" d="M 899 1468 C 991 1468 1073 1453 1146 1424 C 1218 1395 1280 1354 1330 1300 C 1380 1246 1419 1182 1445 1107 C 1471 1031 1485 948 1485 856 C 1485 787 1478 718 1465 648 C 1451 578 1431 510 1404 445 C 1377 380 1343 319 1302 263 C 1260 207 1212 158 1156 116 C 1100 74 1037 40 967 16 C 896 -7 818 -20 733 -20 C 641 -20 559 -5 487 23 C 415 52 354 93 304 147 C 254 200 215 264 189 340 C 163 415 150 499 150 592 C 150 660 156 730 170 800 C 183 870 203 937 230 1002 C 257 1067 291 1128 332 1184 C 373 1240 421 1290 477 1332 C 532 1374 595 1407 665 1431 C 735 1455 813 1468 899 1468 Z M 1411 846 C 1411 926 1400 1000 1378 1068 C 1356 1136 1324 1196 1281 1247 C 1238 1297 1184 1337 1120 1366 C 1055 1394 979 1409 893 1409 C 817 1409 748 1398 686 1376 C 624 1354 568 1323 518 1285 C 468 1246 425 1201 388 1149 C 351 1097 320 1041 296 981 C 272 921 253 858 241 793 C 229 728 223 664 223 600 C 223 520 233 445 255 377 C 276 309 308 250 351 200 C 394 150 448 110 513 82 C 577 53 653 39 741 39 C 816 39 885 50 948 72 C 1010 94 1066 124 1116 163 C 1165 201 1208 247 1245 299 C 1282 351 1313 406 1338 466 C 1362 526 1381 588 1393 653 C 1405 717 1411 782 1411 846 Z" unicode="O" />
<glyph horiz-adv-x="1268" d="M 301 598 L 186 0 L 115 0 L 393 1446 L 831 1446 C 908 1446 977 1438 1039 1423 C 1100 1407 1152 1382 1194 1346 C 1230 1316 1258 1278 1278 1234 C 1298 1190 1309 1137 1309 1075 C 1309 1002 1297 935 1273 875 C 1249 814 1215 762 1169 719 C 1147 699 1123 681 1097 666 C 1071 651 1043 638 1012 628 C 981 618 947 610 910 605 C 872 600 831 598 786 598 L 301 598 Z M 313 657 L 817 657 C 885 657 945 667 997 688 C 1049 708 1093 737 1129 774 C 1165 810 1192 854 1210 904 C 1228 954 1237 1009 1237 1069 C 1237 1120 1228 1165 1210 1205 C 1192 1244 1166 1277 1132 1304 C 1098 1331 1057 1351 1009 1365 C 960 1379 905 1386 844 1386 L 455 1386 L 313 657 Z" unicode="P" />
<glyph horiz-adv-x="1532" d="M 899 1468 C 991 1468 1073 1453 1146 1424 C 1218 1395 1280 1354 1330 1300 C 1380 1246 1419 1182 1445 1107 C 1471 1031 1485 948 1485 856 C 1485 782 1477 707 1461 631 C 1445 555 1422 482 1390 413 C 1358 344 1317 280 1269 222 C 1221 164 1164 115 1100 76 L 1219 -109 L 1157 -125 L 1044 47 C 998 25 950 9 899 -2 C 848 -14 793 -20 733 -20 C 641 -20 559 -5 487 23 C 415 52 354 93 304 147 C 254 200 215 264 189 340 C 163 415 150 499 150 592 C 150 660 156 730 170 800 C 183 870 203 937 230 1002 C 257 1067 291 1128 332 1184 C 373 1240 421 1290 477 1332 C 532 1374 595 1407 665 1431 C 735 1455 813 1468 899 1468 Z M 1411 846 C 1411 926 1400 1000 1378 1068 C 1356 1136 1324 1196 1281 1247 C 1238 1297 1184 1337 1120 1366 C 1055 1394 979 1409 893 1409 C 817 1409 748 1398 686 1376 C 624 1354 568 1323 518 1285 C 468 1246 425 1201 388 1149 C 351 1097 320 1041 296 981 C 272 921 253 858 241 793 C 229 728 223 664 223 600 C 223 520 233 445 255 377 C 276 309 308 250 351 200 C 394 150 448 110 513 82 C 577 53 653 39 741 39 C 793 39 841 44 886 54 C 930 64 972 79 1012 98 L 745 514 L 797 549 L 1067 127 C 1125 163 1175 207 1218 261 C 1261 315 1297 373 1325 437 C 1353 500 1375 567 1389 637 C 1403 707 1411 776 1411 846 Z" unicode="Q" />
<glyph horiz-adv-x="1354" d="M 1325 1083 C 1325 1019 1314 961 1293 907 C 1272 853 1243 805 1205 765 C 1167 724 1121 691 1067 666 C 1013 641 953 626 887 621 L 1165 0 L 1090 0 L 813 618 L 307 618 L 186 0 L 115 0 L 395 1446 L 838 1446 C 914 1446 985 1438 1049 1423 C 1113 1407 1166 1381 1210 1343 C 1245 1313 1273 1276 1294 1234 C 1314 1191 1325 1141 1325 1083 Z M 319 680 L 838 680 C 901 680 958 689 1010 708 C 1061 726 1105 753 1141 787 C 1177 821 1204 863 1224 911 C 1243 959 1253 1013 1253 1073 C 1253 1121 1244 1164 1228 1202 C 1212 1240 1188 1273 1156 1301 C 1124 1328 1084 1349 1036 1364 C 988 1378 932 1386 870 1386 L 457 1386 L 319 680 Z" unicode="R" />
<glyph horiz-adv-x="1174" d="M 1114 1274 C 1056 1319 992 1353 924 1375 C 855 1397 785 1409 713 1409 C 666 1409 620 1403 575 1393 C 530 1383 490 1366 455 1343 C 420 1319 392 1289 370 1251 C 348 1213 338 1167 338 1112 C 338 1061 347 1018 365 984 C 383 950 407 920 437 896 C 467 872 501 851 539 833 C 577 815 617 798 657 780 C 711 756 761 732 809 708 C 857 683 898 655 933 623 C 968 591 996 554 1016 512 C 1036 470 1047 420 1047 362 C 1047 300 1035 244 1012 196 C 988 147 955 106 912 72 C 868 38 816 13 755 -4 C 693 -22 625 -31 549 -31 C 512 -31 473 -28 432 -24 C 391 -19 350 -11 308 0 C 266 12 224 28 183 48 C 141 68 102 93 66 123 L 92 180 C 124 151 159 127 199 108 C 238 88 278 73 319 61 C 360 49 400 41 440 36 C 480 31 517 29 551 29 C 603 29 655 34 706 46 C 756 58 801 76 841 102 C 880 128 912 161 936 202 C 960 242 973 292 973 350 C 973 402 963 447 944 485 C 924 523 898 556 866 585 C 834 614 797 639 755 661 C 713 682 669 702 625 721 C 579 739 535 759 492 780 C 448 800 410 825 376 853 C 342 881 315 916 295 956 C 274 996 264 1044 264 1102 C 264 1162 275 1216 298 1262 C 321 1308 353 1346 393 1376 C 433 1406 480 1429 534 1445 C 588 1460 647 1468 711 1468 C 779 1468 850 1457 922 1437 C 994 1417 1067 1381 1141 1331 L 1114 1274 Z" unicode="S" />
<glyph horiz-adv-x="1143" d="M 786 1386 L 516 0 L 444 0 L 713 1386 L 225 1386 L 238 1446 L 1284 1446 L 1272 1386 L 786 1386 Z" unicode="T" />
<glyph horiz-adv-x="1407" d="M 440 1446 L 295 688 C 285 638 278 596 272 563 C 266 530 261 503 257 481 C 253 459 251 440 250 426 C 248 411 248 397 248 383 C 248 319 259 266 281 222 C 303 178 333 142 372 115 C 411 88 457 69 509 57 C 561 45 618 39 680 39 C 766 39 836 49 892 70 C 947 91 992 120 1026 157 C 1060 194 1085 238 1103 289 C 1121 340 1135 395 1147 455 L 1337 1446 L 1409 1446 L 1217 440 C 1209 399 1199 359 1187 321 C 1175 282 1161 246 1143 212 C 1125 178 1102 146 1076 118 C 1050 90 1018 65 981 45 C 943 24 900 8 850 -3 C 800 -14 742 -20 676 -20 C 611 -20 549 -13 489 0 C 429 12 375 34 329 65 C 283 95 246 136 218 188 C 190 239 176 303 176 379 C 176 397 176 415 178 433 C 180 451 183 472 187 496 C 191 520 196 547 202 577 C 208 607 215 644 223 686 L 369 1446 L 440 1446 Z" unicode="U" />
<glyph horiz-adv-x="1184" d="M 315 1446 L 504 143 L 510 76 L 518 76 L 549 143 L 1243 1446 L 1325 1446 L 545 0 L 457 0 L 240 1446 L 315 1446 Z" unicode="V" />
<glyph horiz-adv-x="1872" d="M 352 1446 L 412 139 L 412 68 L 424 68 L 455 139 L 1063 1446 L 1167 1446 L 1272 139 L 1274 68 L 1286 68 L 1315 139 L 1894 1446 L 1974 1446 L 1323 0 L 1217 0 L 1112 1305 L 1110 1378 L 1098 1378 L 1069 1305 L 461 0 L 356 0 L 281 1446 L 352 1446 Z" unicode="W" />
<glyph horiz-adv-x="1184" d="M 655 807 L 1210 1446 L 1296 1446 L 686 752 L 1028 0 L 940 0 L 635 702 L 61 0 L -27 0 L 604 758 L 264 1446 L 346 1446 L 655 807 Z" unicode="X" />
<glyph horiz-adv-x="1112" d="M 295 1446 L 582 604 L 1196 1446 L 1282 1446 L 604 537 L 502 0 L 430 0 L 532 537 L 213 1446 L 295 1446 Z" unicode="Y" />
<glyph horiz-adv-x="1284" d="M 1335 1446 L 1325 1393 L 106 59 L 1077 59 L 1065 0 L 0 0 L 10 53 L 1229 1386 L 342 1386 L 352 1446 L 1335 1446 Z" unicode="Z" />
<glyph horiz-adv-x="643" d="M 727 1536 L 717 1483 L 416 1483 L 74 -272 L 377 -272 L 365 -326 L 0 -326 L 360 1536 L 727 1536 Z" unicode="[" />
<glyph horiz-adv-x="662" d="M 182 1446 L 604 -236 L 545 -236 L 123 1446 L 182 1446 Z" unicode="\" />
<glyph horiz-adv-x="645" d="M 698 1536 L 336 -326 L -29 -326 L -18 -272 L 283 -272 L 625 1483 L 322 1483 L 332 1536 L 698 1536 Z" unicode="]" />
<glyph horiz-adv-x="1167" d="M 606 1446 L 1112 496 L 1030 496 L 659 1223 L 588 1366 L 575 1366 L 504 1223 L 133 496 L 51 496 L 555 1446 L 606 1446 Z" unicode="^" />
<glyph horiz-adv-x="1167" d="M 1022 -360 L 1014 -414 L -172 -414 L -164 -360 L 1022 -360 Z" unicode="_" />
<glyph horiz-adv-x="840" d="M 399 1530 L 645 1255 L 641 1231 L 612 1231 L 328 1499 L 328 1530 L 399 1530 Z" unicode="`" />
<glyph horiz-adv-x="1143" d="M 1081 1053 L 872 0 L 809 0 L 895 440 C 865 380 832 322 796 267 C 760 212 720 164 677 122 C 633 80 586 46 536 21 C 485 -3 430 -16 371 -16 C 321 -16 278 -7 242 10 C 206 27 176 51 152 82 C 128 113 110 150 98 193 C 86 236 80 283 80 334 C 80 384 85 437 97 493 C 109 549 126 604 149 658 C 171 712 199 764 233 814 C 266 864 304 907 348 945 C 391 983 439 1013 493 1035 C 547 1057 605 1069 668 1069 C 744 1069 807 1051 855 1015 C 903 979 943 926 975 854 L 1022 1053 L 1081 1053 Z M 381 43 C 424 43 467 52 509 72 C 551 91 591 117 629 150 C 667 182 703 220 737 264 C 771 307 801 353 828 402 C 855 450 878 500 897 551 C 916 601 930 650 940 698 L 956 791 C 940 825 922 856 904 884 C 886 911 865 934 842 953 C 818 972 792 987 763 997 C 734 1007 701 1012 664 1012 C 610 1012 559 1001 513 981 C 466 960 424 932 386 898 C 348 863 314 823 285 777 C 255 731 231 684 211 634 C 191 584 175 534 165 484 C 155 434 150 386 150 342 C 150 296 155 255 165 219 C 175 182 191 151 211 125 C 231 99 255 78 284 64 C 312 50 345 43 381 43 Z" unicode="a" />
<glyph horiz-adv-x="1141" d="M 96 0 L 389 1507 L 457 1507 L 307 735 C 331 783 359 828 393 869 C 426 910 462 945 502 975 C 541 1004 583 1027 627 1044 C 671 1060 716 1069 762 1069 C 821 1069 871 1059 913 1039 C 955 1019 989 991 1015 956 C 1041 921 1060 880 1072 833 C 1084 786 1090 736 1090 682 C 1090 633 1085 582 1076 528 C 1067 474 1053 422 1034 370 C 1015 318 991 269 963 223 C 934 176 900 135 860 100 C 820 64 775 36 725 15 C 674 -5 617 -16 555 -16 C 511 -16 472 -10 436 2 C 400 14 368 30 340 52 C 311 73 285 98 263 128 C 241 157 221 189 205 225 L 156 0 L 96 0 Z M 741 1010 C 688 1010 636 996 584 968 C 532 940 484 902 440 854 C 396 806 358 751 326 687 C 294 623 271 556 258 485 L 221 289 C 237 253 256 220 277 190 C 298 160 322 134 349 112 C 376 90 406 72 439 60 C 472 47 509 41 551 41 C 605 41 655 50 700 70 C 744 89 784 115 819 148 C 853 181 883 219 908 263 C 933 306 954 351 970 399 C 986 447 998 495 1006 544 C 1014 592 1018 639 1018 684 C 1018 728 1012 770 1002 810 C 992 849 975 883 953 913 C 931 943 902 966 867 984 C 832 1001 790 1010 741 1010 Z" unicode="b" />
<glyph horiz-adv-x="969" d="M 811 49 C 771 26 730 9 686 0 C 642 -10 594 -16 543 -16 C 475 -16 413 -7 359 11 C 305 29 259 56 221 92 C 183 128 153 174 133 229 C 112 283 102 348 102 422 C 102 468 106 516 115 566 C 123 616 137 664 155 712 C 173 760 197 805 226 849 C 254 892 289 930 329 962 C 369 994 416 1020 468 1040 C 520 1059 579 1069 645 1069 C 703 1069 761 1060 818 1043 C 874 1026 927 999 977 961 L 948 903 C 910 936 863 962 809 981 C 754 1000 697 1010 639 1010 C 586 1010 538 1002 494 986 C 450 970 411 948 377 920 C 342 892 312 860 286 823 C 260 785 239 745 222 703 C 205 660 192 615 184 569 C 176 523 172 477 172 432 C 172 372 179 319 194 271 C 208 223 231 182 261 148 C 291 114 330 88 377 70 C 424 52 480 43 545 43 C 601 43 651 50 695 64 C 738 78 777 96 811 117 L 811 49 Z" unicode="c" />
<glyph horiz-adv-x="1155" d="M 1180 1507 L 887 0 L 821 0 L 883 328 C 857 276 828 229 795 187 C 761 145 725 109 686 79 C 646 49 605 25 561 9 C 517 -7 472 -16 426 -16 C 366 -16 316 -6 274 14 C 232 34 199 61 173 96 C 147 131 128 172 116 219 C 104 266 98 317 98 371 C 98 419 102 470 111 524 C 120 578 134 630 152 682 C 170 734 194 783 223 830 C 251 876 285 917 324 953 C 363 988 408 1016 458 1037 C 508 1058 563 1069 625 1069 C 709 1069 780 1048 838 1006 C 896 964 943 905 979 829 L 1110 1507 L 1180 1507 Z M 444 43 C 496 43 547 57 599 85 C 651 113 699 152 743 200 C 787 248 826 303 859 367 C 891 430 914 497 928 567 L 967 764 C 949 799 930 832 909 862 C 888 892 864 919 837 941 C 810 963 780 980 747 993 C 714 1005 677 1012 637 1012 C 581 1012 531 1002 487 983 C 442 963 402 937 368 904 C 333 871 303 833 278 790 C 252 746 231 701 215 653 C 199 605 187 557 179 508 C 171 459 168 413 168 369 C 168 324 173 282 183 242 C 193 202 210 168 232 139 C 254 109 283 86 318 69 C 352 51 394 43 444 43 Z" unicode="d" />
<glyph horiz-adv-x="1100" d="M 180 530 C 176 498 174 465 174 432 C 174 370 182 314 200 266 C 218 218 244 177 278 143 C 312 109 353 84 403 67 C 453 49 509 41 573 41 C 604 41 633 43 660 47 C 687 51 713 58 738 66 C 762 74 787 83 811 95 C 835 106 859 119 885 133 L 901 76 C 849 44 797 20 745 5 C 693 -10 635 -18 573 -18 C 505 -18 443 -9 386 8 C 328 26 279 53 237 89 C 195 125 162 171 138 227 C 114 282 102 347 102 422 C 102 470 107 520 117 571 C 127 622 143 672 163 720 C 183 768 209 813 240 855 C 270 897 306 934 347 966 C 388 998 434 1023 485 1041 C 535 1059 591 1069 653 1069 C 707 1069 758 1060 806 1044 C 853 1028 894 1004 929 972 C 963 940 990 900 1010 852 C 1030 804 1040 748 1040 686 C 1040 660 1038 635 1035 611 C 1032 586 1027 559 1020 530 L 180 530 Z M 651 1012 C 587 1012 530 1000 479 977 C 428 953 383 922 345 883 C 307 844 274 799 248 747 C 222 695 202 642 190 586 L 961 586 C 964 598 966 611 968 625 C 970 639 971 661 971 690 C 971 738 963 782 948 822 C 933 862 912 896 884 924 C 856 952 822 973 783 989 C 743 1004 699 1012 651 1012 Z" unicode="e" />
<glyph horiz-adv-x="516" d="M 365 999 L 172 0 L 104 0 L 297 999 L 125 999 L 135 1053 L 307 1053 L 348 1266 C 364 1353 394 1418 438 1462 C 482 1506 538 1528 606 1528 C 623 1528 641 1526 661 1523 C 681 1519 697 1514 711 1507 L 692 1454 C 680 1458 666 1461 650 1465 C 634 1468 619 1470 606 1470 C 505 1470 442 1400 416 1262 L 377 1053 L 623 1053 L 612 999 L 365 999 Z" unicode="f" />
<glyph horiz-adv-x="1155" d="M 881 317 C 857 268 828 223 795 183 C 761 142 725 107 685 77 C 645 47 604 24 560 8 C 516 -7 471 -16 426 -16 C 366 -16 316 -6 274 14 C 232 34 199 61 173 96 C 147 131 128 172 116 219 C 104 266 98 317 98 371 C 98 419 102 470 111 524 C 120 578 134 630 153 682 C 171 734 195 783 224 830 C 252 876 286 917 326 953 C 365 988 410 1016 461 1037 C 511 1058 568 1069 631 1069 C 673 1069 712 1063 748 1052 C 783 1040 815 1024 844 1003 C 873 982 899 957 922 927 C 945 897 965 863 983 827 L 1032 1053 L 1092 1053 L 879 -59 C 867 -120 849 -176 826 -226 C 802 -276 773 -318 737 -354 C 701 -390 658 -417 609 -437 C 560 -457 504 -467 442 -467 C 378 -467 313 -458 249 -442 C 185 -426 123 -401 63 -369 L 92 -313 C 116 -327 142 -340 170 -352 C 198 -364 228 -374 259 -382 C 290 -390 322 -397 354 -401 C 386 -405 417 -408 449 -408 C 547 -408 627 -377 687 -316 C 747 -255 788 -165 811 -47 L 881 317 Z M 967 764 C 949 799 930 832 909 862 C 888 892 864 919 837 941 C 810 963 780 980 747 993 C 714 1005 677 1012 637 1012 C 581 1012 531 1002 487 983 C 442 963 402 937 368 904 C 333 871 303 833 278 790 C 252 746 231 701 215 653 C 199 605 187 557 179 508 C 171 459 168 413 168 369 C 168 324 173 282 184 242 C 194 202 211 168 233 139 C 255 109 284 86 319 69 C 354 51 396 43 446 43 C 498 43 549 57 601 85 C 653 113 701 150 745 198 C 789 246 827 301 859 365 C 891 428 914 495 928 567 L 967 764 Z" unicode="g" />
<glyph horiz-adv-x="1124" d="M 827 0 L 932 549 C 938 583 944 621 952 663 C 959 705 963 747 963 791 C 963 823 958 852 950 879 C 941 906 928 929 911 949 C 893 968 872 983 846 994 C 820 1004 789 1010 754 1010 C 694 1010 638 996 584 969 C 530 941 481 903 437 853 C 393 803 354 743 322 674 C 290 604 266 528 250 444 L 164 0 L 96 0 L 389 1507 L 457 1507 L 305 731 C 331 781 360 827 392 869 C 424 911 460 946 499 976 C 537 1005 579 1028 624 1044 C 669 1060 717 1069 768 1069 C 812 1069 850 1062 883 1049 C 915 1035 943 1017 965 993 C 987 969 1003 941 1014 909 C 1024 876 1030 840 1030 801 C 1030 757 1026 713 1020 669 C 1013 624 1005 580 997 537 L 895 0 L 827 0 Z" unicode="h" />
<glyph horiz-adv-x="436" d="M 463 1507 L 426 1321 L 346 1321 L 383 1507 L 463 1507 Z M 369 1053 L 164 0 L 96 0 L 301 1053 L 369 1053 Z" unicode="i" />
<glyph horiz-adv-x="434" d="M 463 1507 L 426 1321 L 346 1321 L 383 1507 L 463 1507 Z M 299 1053 L 367 1053 L 131 -170 C 113 -266 82 -338 37 -385 C -7 -431 -64 -455 -133 -455 C -147 -455 -161 -454 -175 -452 C -189 -450 -201 -446 -213 -442 L -201 -387 C -191 -390 -180 -392 -168 -394 C -155 -396 -144 -397 -135 -397 C -83 -397 -40 -378 -8 -342 C 23 -306 47 -247 63 -166 L 299 1053 Z" unicode="j" />
<glyph horiz-adv-x="1012" d="M 250 446 L 985 1053 L 1081 1053 L 571 639 L 903 0 L 825 0 L 520 598 L 236 367 L 164 0 L 96 0 L 389 1507 L 457 1507 L 250 446 Z" unicode="k" />
<glyph horiz-adv-x="436" d="M 457 1507 L 164 0 L 96 0 L 389 1507 L 457 1507 Z" unicode="l" />
<glyph horiz-adv-x="1729" d="M 760 0 L 883 633 C 886 657 889 685 891 715 C 893 745 895 775 895 805 C 895 835 891 862 884 888 C 876 913 865 935 850 953 C 835 971 816 985 793 995 C 770 1005 743 1010 713 1010 C 658 1010 606 995 557 966 C 508 936 464 896 424 846 C 384 795 349 736 320 668 C 291 600 269 527 254 449 L 164 0 L 96 0 L 299 1053 L 362 1053 L 301 721 C 317 761 340 802 368 844 C 396 886 429 923 466 956 C 502 989 543 1016 587 1037 C 631 1058 677 1069 727 1069 C 765 1069 798 1063 825 1051 C 851 1039 873 1024 891 1005 C 908 985 921 963 931 938 C 941 912 948 886 952 860 C 956 833 958 806 958 780 C 958 753 957 729 956 707 C 974 754 998 799 1028 843 C 1058 887 1093 925 1132 959 C 1170 992 1212 1019 1256 1039 C 1300 1059 1345 1069 1391 1069 C 1429 1069 1463 1062 1493 1050 C 1522 1038 1546 1020 1566 998 C 1586 976 1601 949 1611 918 C 1621 886 1626 852 1626 815 C 1626 769 1622 723 1616 676 C 1609 628 1601 582 1593 537 L 1491 0 L 1421 0 L 1526 549 C 1533 586 1540 626 1546 670 C 1552 714 1556 759 1556 805 C 1556 835 1552 862 1545 888 C 1537 913 1526 935 1511 953 C 1496 971 1477 985 1455 995 C 1432 1005 1406 1010 1376 1010 C 1325 1010 1276 996 1228 968 C 1180 940 1135 902 1095 855 C 1054 808 1019 754 989 692 C 959 630 938 564 924 496 L 827 0 L 760 0 Z" unicode="m" />
<glyph horiz-adv-x="1124" d="M 297 1053 L 360 1053 L 297 721 C 323 773 352 820 385 863 C 418 906 454 943 494 973 C 534 1003 576 1027 622 1044 C 668 1060 716 1069 768 1069 C 812 1069 850 1062 883 1049 C 915 1035 943 1017 965 993 C 987 969 1003 941 1014 909 C 1024 876 1030 840 1030 801 C 1030 757 1026 713 1020 669 C 1013 624 1005 580 997 537 L 895 0 L 827 0 L 932 549 C 938 583 944 621 952 663 C 959 705 963 747 963 791 C 963 823 958 852 950 879 C 941 906 928 929 911 949 C 893 968 872 983 846 994 C 820 1004 789 1010 754 1010 C 694 1010 638 996 584 969 C 530 941 481 903 437 853 C 393 803 354 743 322 674 C 290 604 266 528 250 444 L 164 0 L 96 0 L 297 1053 Z" unicode="n" />
<glyph horiz-adv-x="1126" d="M 641 1069 C 707 1069 766 1058 817 1036 C 867 1014 910 983 944 944 C 978 905 1004 858 1022 804 C 1040 749 1049 689 1049 625 C 1049 577 1044 529 1034 479 C 1024 429 1010 380 991 333 C 972 285 948 240 919 198 C 889 156 855 119 815 87 C 775 55 731 30 681 12 C 631 -6 576 -16 516 -16 C 449 -16 390 -5 339 17 C 288 39 245 69 211 109 C 176 148 150 195 132 249 C 114 303 106 363 106 428 C 106 475 110 524 120 574 C 130 624 144 672 164 720 C 183 767 207 812 237 854 C 266 896 300 933 340 965 C 380 997 425 1022 475 1041 C 525 1059 580 1069 641 1069 Z M 979 618 C 979 670 972 720 959 768 C 945 815 924 857 896 893 C 868 929 832 957 788 978 C 744 999 693 1010 633 1010 C 582 1010 535 1001 493 985 C 451 969 413 946 379 918 C 345 890 315 857 290 819 C 264 781 243 741 226 699 C 209 656 196 612 188 567 C 180 521 176 477 176 434 C 176 380 182 330 196 283 C 210 235 231 194 259 158 C 287 122 323 94 367 74 C 410 53 462 43 522 43 C 572 43 619 51 661 67 C 703 83 742 106 776 134 C 810 162 839 195 865 233 C 890 270 911 310 928 353 C 945 395 958 439 966 485 C 974 530 979 574 979 618 Z" unicode="o" />
<glyph horiz-adv-x="1143" d="M 8 -451 L 297 1053 L 362 1053 L 299 725 C 323 775 352 822 386 864 C 420 906 457 943 497 973 C 537 1003 579 1027 624 1044 C 669 1060 715 1069 762 1069 C 820 1069 870 1058 912 1038 C 953 1018 987 990 1013 955 C 1039 920 1057 879 1069 832 C 1081 784 1087 734 1087 680 C 1087 631 1082 580 1073 527 C 1064 474 1050 422 1032 370 C 1014 318 990 269 962 223 C 933 176 899 135 859 100 C 819 64 774 36 724 15 C 674 -5 617 -16 555 -16 C 512 -16 473 -10 438 0 C 402 11 370 27 342 48 C 313 68 287 93 265 123 C 243 153 223 186 207 223 L 76 -451 L 8 -451 Z M 741 1010 C 687 1010 635 995 583 967 C 531 939 483 901 439 853 C 395 805 357 749 325 685 C 293 621 270 555 258 485 L 219 289 C 235 253 254 219 276 189 C 297 159 321 133 348 111 C 375 89 405 71 439 59 C 472 47 509 41 551 41 C 605 41 655 50 700 70 C 744 90 784 116 819 149 C 853 182 883 220 908 264 C 933 307 954 352 970 400 C 986 447 998 495 1006 543 C 1014 591 1018 636 1018 680 C 1018 726 1012 769 1002 809 C 991 849 974 884 952 914 C 930 944 901 967 866 984 C 831 1001 789 1010 741 1010 Z" unicode="p" />
<glyph horiz-adv-x="1149" d="M 1092 1053 L 799 -451 L 729 -451 L 881 317 C 857 268 828 223 795 183 C 761 142 725 107 685 77 C 645 47 604 24 560 8 C 516 -7 471 -16 426 -16 C 366 -16 316 -6 274 14 C 232 34 199 61 173 96 C 147 131 128 172 116 219 C 104 266 98 317 98 371 C 98 419 102 470 111 524 C 120 578 134 630 153 682 C 171 734 195 783 224 830 C 252 876 286 917 326 953 C 365 988 410 1016 461 1037 C 511 1058 568 1069 631 1069 C 673 1069 712 1063 748 1052 C 783 1040 815 1024 844 1003 C 873 982 899 957 922 927 C 945 897 965 863 983 827 L 1032 1053 L 1092 1053 Z M 967 764 C 949 799 930 832 909 862 C 888 892 864 919 837 941 C 810 963 780 980 747 993 C 714 1005 677 1012 637 1012 C 581 1012 531 1002 487 983 C 442 963 402 937 368 904 C 333 871 303 833 278 790 C 252 746 231 701 215 653 C 199 605 187 557 179 508 C 171 459 168 413 168 369 C 168 324 173 282 184 242 C 194 202 211 168 233 139 C 255 109 284 86 319 69 C 354 51 396 43 446 43 C 498 43 549 57 601 85 C 653 113 701 150 745 198 C 789 246 827 301 859 365 C 891 428 914 495 928 567 L 967 764 Z" unicode="q" />
<glyph horiz-adv-x="631" d="M 631 1065 C 665 1065 699 1059 733 1047 L 711 979 C 697 985 682 989 666 992 C 649 995 633 997 618 997 C 576 997 537 985 501 963 C 464 940 430 907 400 865 C 370 823 343 771 319 710 C 295 649 276 580 262 504 L 166 0 L 96 0 L 299 1053 L 362 1053 L 303 764 C 340 860 385 935 438 987 C 491 1039 555 1065 631 1065 Z" unicode="r" />
<glyph horiz-adv-x="879" d="M 43 152 C 93 110 149 79 211 57 C 273 35 334 25 395 25 C 435 25 473 29 509 39 C 545 48 576 62 603 82 C 630 102 652 126 668 156 C 684 185 692 220 692 260 C 692 295 685 325 672 350 C 658 375 640 397 616 417 C 592 436 562 454 528 471 C 494 488 456 506 414 526 C 384 540 355 556 327 572 C 299 588 275 606 254 628 C 232 649 215 674 203 703 C 190 731 184 765 184 805 C 184 849 192 888 209 921 C 225 954 248 982 277 1004 C 305 1026 339 1042 378 1053 C 416 1063 458 1069 502 1069 C 528 1069 556 1066 586 1062 C 616 1058 645 1051 675 1041 C 704 1031 733 1019 762 1004 C 790 989 818 971 844 950 L 817 893 C 775 930 728 959 674 981 C 620 1003 564 1014 504 1014 C 473 1014 443 1010 413 1003 C 383 996 356 985 332 970 C 308 954 288 934 274 908 C 259 882 252 851 252 815 C 252 784 257 757 268 733 C 279 709 294 688 314 669 C 334 650 357 633 385 617 C 413 601 443 585 477 569 C 511 553 544 537 578 521 C 612 505 642 485 669 463 C 696 441 718 414 735 383 C 751 352 760 314 760 268 C 760 220 750 178 732 141 C 713 103 687 72 655 47 C 622 21 583 2 539 -11 C 495 -24 447 -31 395 -31 C 365 -31 333 -28 301 -24 C 268 -19 235 -11 203 -1 C 170 8 138 22 107 38 C 75 54 46 73 18 96 L 43 152 Z" unicode="s" />
<glyph horiz-adv-x="571" d="M 375 999 L 242 303 C 235 270 230 243 227 223 C 224 203 223 185 223 170 C 223 148 226 129 232 113 C 238 97 249 83 265 71 C 280 59 301 51 328 45 C 354 39 388 37 430 39 L 420 -10 C 412 -12 405 -13 397 -14 C 389 -15 380 -16 369 -16 C 298 -16 244 -2 208 25 C 172 53 154 99 154 164 C 154 179 155 197 158 217 C 161 237 166 265 172 301 L 307 999 L 137 999 L 147 1053 L 317 1053 L 379 1333 L 440 1333 L 385 1053 L 625 1053 L 612 999 L 375 999 Z" unicode="t" />
<glyph horiz-adv-x="1124" d="M 883 416 C 857 362 827 309 792 257 C 757 205 718 158 676 118 C 634 78 588 45 539 21 C 490 -3 439 -16 385 -16 C 343 -16 306 -9 275 3 C 243 16 217 34 197 58 C 176 82 160 110 150 143 C 140 176 135 212 135 252 C 135 295 138 339 145 384 C 152 428 160 472 168 516 L 270 1053 L 338 1053 L 233 504 C 227 468 220 430 213 389 C 206 347 203 305 203 262 C 203 230 207 200 215 173 C 223 146 235 123 251 104 C 267 84 287 69 312 59 C 336 48 365 43 399 43 C 440 43 480 51 520 68 C 560 85 597 109 633 139 C 669 169 702 204 733 245 C 764 286 792 331 818 379 C 844 427 866 477 885 531 C 903 584 918 638 930 692 L 1001 1053 L 1069 1053 L 866 0 L 801 0 L 883 416 Z" unicode="u" />
<glyph horiz-adv-x="872" d="M 201 1053 L 352 131 L 356 76 L 362 76 L 389 131 L 893 1053 L 969 1053 L 389 0 L 307 0 L 129 1053 L 201 1053 Z" unicode="v" />
<glyph horiz-adv-x="1401" d="M 225 1053 L 301 152 L 301 90 L 311 90 L 338 152 L 766 1053 L 850 1053 L 930 152 L 932 90 L 942 90 L 967 152 L 1405 1053 L 1479 1053 L 965 0 L 883 0 L 801 913 L 799 973 L 791 973 L 764 913 L 330 0 L 248 0 L 154 1053 L 225 1053 Z" unicode="w" />
<glyph horiz-adv-x="864" d="M 459 594 L 848 1053 L 928 1053 L 487 545 L 737 0 L 655 0 L 438 498 L 31 0 L -53 0 L 410 549 L 162 1053 L 242 1053 L 459 594 Z" unicode="x" />
<glyph horiz-adv-x="905" d="M 193 1053 L 360 133 L 369 63 L 375 63 L 401 117 L 926 1053 L 1008 1053 L 322 -145 C 294 -192 268 -235 243 -273 C 217 -311 191 -343 164 -370 C 137 -397 108 -418 78 -433 C 47 -447 13 -455 -25 -455 C -32 -455 -39 -454 -46 -454 C -53 -454 -61 -453 -70 -451 L -59 -395 C -51 -396 -46 -397 -43 -397 C -39 -397 -36 -397 -33 -397 C 1 -397 31 -390 58 -377 C 84 -363 109 -345 131 -323 C 153 -300 174 -273 194 -243 C 213 -213 232 -181 252 -147 L 322 -23 L 121 1053 L 193 1053 Z" unicode="y" />
<glyph horiz-adv-x="905" d="M 936 1053 L 930 1008 L 80 53 L 760 53 L 750 0 L -12 0 L -4 47 L 842 999 L 229 999 L 238 1053 L 936 1053 Z" unicode="z" />
<glyph horiz-adv-x="752" d="M 432 -326 C 396 -326 362 -319 332 -307 C 301 -294 274 -276 251 -254 C 228 -231 210 -204 197 -173 C 184 -142 178 -108 178 -72 C 178 -47 181 -21 188 6 C 194 33 206 67 223 109 L 303 309 C 310 329 317 349 323 369 C 329 388 332 407 332 426 C 332 444 329 463 324 482 C 319 500 312 517 302 533 C 292 548 280 561 265 571 C 250 581 233 586 213 588 L 102 588 L 115 649 L 236 649 C 261 649 285 654 309 665 C 333 676 354 691 372 710 C 390 729 404 751 415 777 C 426 802 432 829 432 858 L 432 1227 C 432 1268 439 1307 453 1345 C 467 1382 487 1415 513 1443 C 539 1471 571 1494 609 1511 C 646 1527 688 1536 735 1536 L 858 1536 L 848 1483 L 739 1483 C 705 1483 674 1476 645 1463 C 615 1450 590 1432 568 1408 C 546 1384 529 1356 517 1324 C 504 1292 498 1257 498 1219 L 498 850 C 498 820 492 792 480 766 C 468 740 451 716 431 696 C 411 675 388 658 362 644 C 336 630 309 621 281 616 L 281 610 C 301 600 318 588 333 574 C 347 560 359 544 368 528 C 377 511 384 493 388 475 C 392 457 395 439 395 422 C 395 412 394 401 392 391 C 390 380 388 369 386 359 C 383 348 380 338 377 328 C 374 318 371 310 369 303 L 287 100 C 275 73 265 46 257 18 C 248 -10 244 -38 244 -66 C 244 -94 248 -120 258 -145 C 267 -170 280 -192 297 -211 C 314 -229 335 -244 359 -255 C 383 -266 410 -272 440 -272 L 510 -272 L 500 -326 L 432 -326 Z" unicode="{" />
<glyph horiz-adv-x="784" d="M 428 1720 L 428 -348 L 356 -348 L 356 1720 L 428 1720 Z" unicode="|" />
<glyph horiz-adv-x="758" d="M 307 1536 L 377 1536 C 413 1536 446 1529 477 1517 C 507 1504 534 1486 557 1464 C 580 1442 598 1415 611 1384 C 624 1352 631 1318 631 1282 C 631 1257 627 1231 619 1204 C 611 1177 600 1143 584 1102 L 514 926 C 506 905 500 885 494 867 C 488 848 485 829 485 811 C 485 792 487 773 492 755 C 496 736 503 719 513 704 C 522 688 534 675 549 665 C 563 655 580 649 600 649 L 713 649 L 700 588 L 580 588 C 554 588 528 582 504 571 C 480 560 458 545 439 526 C 419 507 404 485 392 460 C 380 434 375 407 375 379 L 375 -16 C 375 -57 368 -96 354 -134 C 340 -172 319 -205 293 -233 C 267 -261 235 -284 198 -301 C 160 -317 118 -326 72 -326 L -51 -326 L -39 -272 L 68 -272 C 102 -272 133 -265 163 -252 C 192 -239 217 -221 239 -198 C 261 -174 278 -146 290 -114 C 302 -82 309 -46 309 -8 L 309 387 C 309 417 315 445 328 471 C 341 497 358 520 379 540 C 400 560 424 578 451 592 C 477 606 504 615 532 621 L 535 627 C 513 637 495 649 481 663 C 467 677 455 692 446 709 C 436 725 430 743 426 761 C 422 779 420 797 420 815 C 420 834 423 855 430 877 C 437 899 443 917 449 932 L 520 1110 C 531 1136 541 1164 550 1192 C 558 1220 563 1248 563 1276 C 563 1304 558 1330 549 1356 C 539 1381 526 1403 509 1422 C 492 1440 471 1455 447 1466 C 423 1477 396 1483 367 1483 L 297 1483 L 307 1536 Z" unicode="}" />
<glyph horiz-adv-x="1167" d="M 88 530 C 110 558 134 583 160 605 C 186 627 212 645 239 661 C 265 676 292 688 319 696 C 345 704 371 709 397 709 C 426 709 452 703 474 693 C 496 683 517 670 536 655 C 554 639 572 622 589 604 C 606 586 624 569 642 554 C 660 538 680 525 702 515 C 724 505 749 500 778 500 C 819 500 860 512 900 538 C 940 564 978 599 1016 643 L 1065 606 C 1019 552 971 511 921 481 C 870 451 820 436 770 436 C 738 436 710 441 686 451 C 662 461 641 474 622 490 C 603 505 585 521 569 539 C 552 557 535 573 518 589 C 500 604 481 617 461 627 C 440 637 416 643 389 643 C 369 643 349 639 327 633 C 305 626 284 616 262 604 C 240 591 218 575 197 557 C 175 539 155 518 137 496 L 88 530 Z" unicode="~" />
<glyph horiz-adv-x="1024" d="" unicode="" />
<glyph horiz-adv-x="512" d="M 109 0 L 145 188 L 317 971 L 367 971 L 233 188 L 197 0 L 109 0 Z M 346 1227 L 389 1446 L 475 1446 L 432 1227 L 346 1227 Z" unicode="" />
<glyph horiz-adv-x="1167" d="M 866 49 C 826 26 785 9 741 0 C 697 -10 649 -16 598 -16 C 570 -16 543 -14 519 -12 C 494 -9 470 -5 446 0 L 328 -332 L 266 -328 L 393 18 C 319 47 261 95 220 162 C 178 229 158 316 158 422 C 158 468 162 516 171 566 C 179 616 193 664 211 712 C 229 760 253 805 282 849 C 310 892 345 930 385 962 C 425 994 471 1020 523 1040 C 575 1059 634 1069 700 1069 C 712 1069 725 1068 737 1068 C 749 1067 760 1066 772 1065 L 879 1366 L 940 1362 L 829 1055 C 865 1046 900 1034 934 1019 C 968 1003 1001 984 1032 961 L 1004 903 C 966 936 919 962 864 981 C 809 1000 752 1010 694 1010 C 641 1010 593 1002 549 986 C 505 970 466 948 432 920 C 397 892 367 860 341 823 C 315 785 294 745 277 703 C 260 660 247 615 239 569 C 231 523 227 477 227 432 C 227 372 234 319 249 271 C 263 223 286 182 316 148 C 346 114 385 88 432 70 C 479 52 535 43 600 43 C 656 43 706 50 750 64 C 793 78 832 96 866 117 L 866 49 Z" unicode="" />
<glyph horiz-adv-x="1237" d="M 887 717 L 475 717 C 486 673 496 630 505 588 C 513 545 518 503 518 461 C 518 417 512 371 501 325 C 489 279 472 235 449 195 C 469 173 491 154 517 136 C 543 118 570 102 599 89 C 628 76 659 66 691 59 C 723 52 755 49 788 49 C 840 49 888 56 930 71 C 972 86 1008 105 1038 129 L 1024 53 C 998 34 965 18 923 5 C 881 -7 834 -14 782 -14 C 713 -14 647 0 584 25 C 520 51 464 89 414 139 C 380 95 338 60 289 33 C 240 5 183 -8 117 -8 C 96 -8 73 -5 49 -1 C 24 2 0 11 -23 25 L -12 84 C 6 71 27 62 51 58 C 74 53 97 51 121 51 C 173 51 220 62 261 86 C 301 109 336 140 364 178 C 392 216 413 259 427 308 C 441 356 449 406 449 457 C 449 500 444 543 436 586 C 427 629 417 673 406 717 L 111 717 L 121 772 L 389 772 C 377 817 367 862 358 908 C 348 954 344 1000 344 1047 C 344 1114 355 1174 379 1226 C 402 1278 434 1322 476 1358 C 518 1394 567 1421 623 1440 C 679 1458 741 1468 807 1468 C 840 1468 875 1465 912 1460 C 949 1455 986 1447 1023 1436 C 1059 1424 1095 1409 1130 1391 C 1165 1373 1197 1350 1227 1323 L 1190 1270 C 1166 1290 1139 1309 1109 1327 C 1079 1344 1047 1359 1014 1371 C 980 1383 946 1392 911 1399 C 875 1405 840 1409 805 1409 C 755 1409 706 1402 659 1388 C 612 1374 571 1353 535 1324 C 499 1294 470 1257 448 1211 C 426 1165 416 1109 416 1044 C 416 1000 420 955 430 909 C 439 863 449 818 461 772 L 897 772 L 887 717 Z" unicode="" />
<glyph horiz-adv-x="1167" d="M 1038 461 C 1024 391 1002 331 971 283 C 940 235 904 196 862 166 L 975 -115 L 909 -115 C 901 -100 894 -82 886 -61 C 878 -39 869 -17 861 6 C 853 29 844 52 836 75 C 828 97 820 117 813 135 C 775 116 737 102 697 94 C 657 86 616 82 575 82 C 518 82 465 89 415 105 C 365 120 321 143 283 174 L 59 -115 L -14 -115 L 242 211 C 208 249 185 294 172 348 C 158 401 158 464 172 537 L 233 870 C 245 938 268 998 301 1048 C 334 1098 374 1139 422 1171 L 307 1446 L 371 1446 L 473 1200 C 538 1232 612 1249 696 1249 C 750 1249 801 1242 849 1228 C 897 1214 939 1192 977 1163 L 1208 1446 L 1282 1446 L 1020 1128 C 1056 1090 1081 1043 1097 988 C 1112 933 1113 869 1100 795 L 1038 461 Z M 1030 791 C 1033 807 1035 822 1037 838 C 1039 854 1040 869 1040 885 C 1040 936 1031 981 1013 1019 C 995 1057 970 1088 939 1114 C 908 1139 871 1158 829 1171 C 787 1183 742 1190 694 1190 C 642 1190 594 1182 551 1167 C 507 1151 469 1129 435 1100 C 401 1071 372 1036 349 994 C 326 952 309 905 299 852 L 242 541 C 238 523 236 507 234 492 C 232 476 231 462 231 449 C 231 397 240 351 258 313 C 276 275 300 243 332 217 C 364 191 401 172 443 160 C 485 147 531 141 580 141 C 625 141 669 147 712 160 C 754 172 793 192 828 220 C 863 247 893 282 919 325 C 944 367 962 419 973 479 L 1030 791 Z" unicode="" />
<glyph horiz-adv-x="1237" d="M 178 926 L 500 926 L 342 1446 L 422 1446 L 657 633 L 1204 1446 L 1286 1446 L 928 926 L 1241 926 L 1231 872 L 891 872 L 696 590 L 1176 590 L 1165 535 L 676 535 L 571 0 L 500 0 L 604 535 L 102 535 L 113 590 L 602 590 L 516 872 L 168 872 L 178 926 Z" unicode="" />
<glyph horiz-adv-x="784" d="M 428 1567 L 428 840 L 356 840 L 356 1567 L 428 1567 Z M 428 530 L 428 -195 L 356 -195 L 356 530 L 428 530 Z" unicode="" />
<glyph horiz-adv-x="1362" d="M 215 -186 C 240 -198 267 -210 297 -221 C 326 -232 356 -242 388 -250 C 419 -258 451 -264 483 -269 C 515 -273 546 -276 578 -276 C 612 -276 647 -272 683 -266 C 719 -260 751 -248 781 -231 C 811 -214 835 -191 854 -161 C 873 -131 883 -93 883 -47 C 883 -18 878 7 868 29 C 858 51 844 70 826 87 C 808 103 787 118 763 131 C 739 143 713 155 685 166 C 657 176 627 186 596 196 C 565 206 534 216 504 227 C 459 243 415 261 371 283 C 327 304 288 329 254 359 C 219 389 191 423 169 462 C 147 501 137 546 137 598 C 137 652 148 700 171 743 C 194 786 225 823 263 854 C 301 884 344 909 394 927 C 444 945 495 957 549 963 C 517 985 489 1014 467 1050 C 445 1085 434 1127 434 1176 C 434 1227 444 1271 464 1308 C 484 1345 511 1375 546 1399 C 580 1423 621 1440 667 1451 C 713 1462 763 1468 815 1468 C 877 1468 941 1460 1007 1445 C 1073 1430 1136 1407 1196 1376 L 1169 1321 C 1143 1333 1116 1345 1088 1356 C 1059 1367 1029 1377 998 1385 C 966 1393 934 1399 902 1404 C 869 1408 837 1411 805 1411 C 771 1411 737 1407 701 1401 C 665 1395 632 1383 602 1366 C 572 1349 548 1326 529 1296 C 509 1266 500 1228 500 1182 C 500 1138 511 1103 533 1075 C 555 1047 584 1024 620 1005 C 656 985 696 969 742 955 C 787 941 833 925 879 909 C 923 893 968 874 1012 853 C 1056 831 1095 806 1130 776 C 1165 746 1193 712 1215 673 C 1236 634 1247 589 1247 539 C 1247 483 1235 434 1212 391 C 1189 347 1158 310 1120 279 C 1082 248 1038 223 989 205 C 939 186 888 174 836 170 C 868 148 895 120 917 84 C 939 48 950 6 950 -41 C 950 -92 940 -136 920 -173 C 900 -209 872 -239 838 -263 C 803 -287 762 -304 716 -315 C 670 -326 621 -332 569 -332 C 508 -332 445 -324 379 -309 C 313 -294 250 -272 190 -242 L 215 -186 Z M 645 918 L 608 918 C 563 918 517 911 470 899 C 422 886 379 867 340 841 C 301 815 269 782 244 742 C 219 702 207 656 207 602 C 207 558 216 520 234 487 C 252 454 278 425 310 400 C 342 374 379 352 422 333 C 464 313 510 295 559 279 L 737 217 L 776 217 C 820 217 867 223 915 236 C 963 249 1006 269 1045 295 C 1084 321 1116 354 1142 394 C 1167 434 1180 481 1180 535 C 1180 577 1170 615 1152 647 C 1133 679 1108 708 1076 733 C 1044 758 1006 780 963 800 C 920 820 874 838 825 856 L 645 918 Z" unicode="" />
<glyph horiz-adv-x="840" d="M 428 1446 L 393 1272 L 317 1272 L 352 1446 L 428 1446 Z M 856 1446 L 821 1272 L 748 1272 L 782 1446 L 856 1446 Z" unicode="" />
<glyph horiz-adv-x="1905" d="M 989 -143 C 912 -143 838 -133 767 -113 C 695 -93 629 -66 567 -30 C 505 5 448 48 397 98 C 346 148 302 204 266 265 C 230 326 202 392 182 463 C 162 533 152 607 152 684 C 152 760 162 833 182 903 C 202 973 230 1039 266 1100 C 302 1161 346 1217 397 1267 C 448 1317 505 1359 567 1395 C 629 1431 695 1458 767 1478 C 838 1497 912 1507 989 1507 C 1065 1507 1139 1497 1211 1478 C 1282 1458 1349 1431 1411 1395 C 1473 1359 1529 1317 1580 1267 C 1631 1217 1675 1161 1712 1100 C 1748 1039 1777 973 1797 903 C 1817 833 1827 760 1827 684 C 1827 607 1817 533 1797 463 C 1777 392 1748 326 1712 265 C 1675 204 1631 148 1580 98 C 1529 48 1473 5 1411 -30 C 1349 -66 1282 -93 1211 -113 C 1139 -133 1065 -143 989 -143 Z M 1278 1010 C 1238 1026 1197 1038 1155 1048 C 1112 1058 1069 1063 1026 1063 C 966 1063 913 1053 865 1034 C 817 1014 776 988 742 954 C 708 920 682 881 664 835 C 646 789 637 739 637 686 C 637 632 647 583 668 539 C 688 495 716 458 752 428 C 788 398 829 374 877 358 C 925 342 976 334 1030 334 C 1086 334 1133 338 1173 346 C 1212 354 1248 363 1280 375 L 1305 322 C 1287 315 1269 309 1250 303 C 1230 297 1210 293 1188 289 C 1166 285 1142 281 1116 279 C 1090 277 1061 276 1030 276 C 966 276 907 285 851 304 C 795 323 747 350 705 386 C 663 422 629 465 605 515 C 581 565 569 622 569 686 C 569 747 579 804 601 857 C 623 910 653 956 693 995 C 732 1034 780 1065 836 1087 C 892 1109 954 1120 1024 1120 C 1072 1120 1120 1114 1168 1104 C 1216 1094 1260 1080 1300 1063 L 1278 1010 Z M 989 -90 C 1059 -90 1128 -80 1194 -62 C 1260 -44 1321 -18 1379 15 C 1437 49 1489 89 1537 136 C 1584 183 1624 235 1658 293 C 1692 350 1718 412 1737 478 C 1755 544 1765 612 1765 684 C 1765 754 1755 823 1737 889 C 1718 955 1692 1016 1658 1073 C 1624 1130 1584 1182 1537 1229 C 1489 1276 1437 1316 1379 1350 C 1321 1384 1260 1410 1194 1428 C 1128 1446 1059 1456 989 1456 C 918 1456 850 1446 784 1428 C 718 1410 656 1384 598 1350 C 540 1316 488 1276 441 1229 C 393 1182 353 1130 319 1073 C 285 1016 259 955 241 889 C 222 823 213 754 213 684 C 213 612 222 544 241 478 C 259 412 285 350 319 293 C 353 235 393 183 441 136 C 488 89 540 49 598 15 C 656 -18 717 -44 783 -62 C 849 -80 917 -90 989 -90 Z" unicode="" />
<glyph horiz-adv-x="901" d="M 969 1458 L 805 645 L 745 645 L 809 973 C 785 927 760 884 732 843 C 704 802 673 766 640 735 C 606 704 570 679 531 661 C 491 642 449 633 403 633 C 365 633 331 639 303 652 C 275 665 251 683 232 707 C 213 731 199 759 190 791 C 180 823 176 859 176 899 C 176 937 180 978 190 1022 C 199 1066 213 1109 231 1151 C 249 1193 272 1233 299 1272 C 325 1310 356 1344 391 1374 C 425 1403 464 1426 506 1444 C 548 1461 593 1470 643 1470 C 701 1470 749 1457 786 1431 C 822 1405 853 1365 879 1311 L 915 1458 L 969 1458 Z M 414 686 C 447 686 480 693 512 708 C 544 722 576 742 606 767 C 636 791 664 820 690 853 C 716 886 740 921 761 959 C 782 996 800 1034 815 1073 C 830 1111 841 1149 848 1186 L 860 1255 C 848 1281 834 1304 820 1324 C 806 1344 790 1361 772 1375 C 754 1389 735 1399 713 1406 C 691 1413 667 1417 639 1417 C 597 1417 559 1409 523 1393 C 487 1377 455 1355 426 1329 C 396 1303 370 1272 347 1237 C 324 1202 305 1166 289 1128 C 273 1090 262 1052 254 1014 C 246 976 242 940 242 907 C 242 839 257 785 287 745 C 317 705 360 686 414 686 Z" unicode="" />
<glyph horiz-adv-x="948" d="M 500 887 L 137 571 L 371 268 L 303 268 L 80 555 L 88 602 L 422 887 L 500 887 Z M 893 887 L 530 571 L 764 268 L 696 268 L 473 555 L 481 602 L 815 887 L 893 887 Z" unicode="" />
<glyph horiz-adv-x="1167" d="M 1067 877 L 1067 264 L 999 264 L 999 815 L 57 815 L 57 877 L 1067 877 Z" unicode="" />
<glyph horiz-adv-x="629" d="M 578 606 L 563 541 L 123 541 L 137 606 L 578 606 Z" unicode="" />
<glyph horiz-adv-x="1106" d="M 655 530 C 587 530 524 542 466 566 C 408 590 357 624 315 666 C 272 708 238 758 214 816 C 190 873 178 935 178 1001 C 178 1064 190 1124 214 1181 C 238 1237 272 1287 315 1329 C 357 1371 408 1405 466 1430 C 524 1455 587 1468 655 1468 C 723 1468 786 1455 845 1430 C 903 1405 954 1371 998 1329 C 1042 1287 1076 1237 1101 1181 C 1126 1124 1139 1064 1139 1001 C 1139 935 1126 873 1101 816 C 1076 758 1042 708 998 666 C 954 624 903 590 845 566 C 786 542 723 530 655 530 Z M 471 776 L 471 1249 L 725 1249 C 746 1249 766 1245 785 1239 C 804 1232 821 1223 835 1212 C 849 1200 860 1186 868 1170 C 876 1154 881 1136 881 1118 C 881 1085 870 1056 848 1032 C 826 1008 797 993 760 987 L 885 776 L 831 776 L 711 983 L 516 983 L 516 776 L 471 776 Z M 516 1210 L 516 1024 L 727 1024 C 761 1024 787 1033 807 1052 C 826 1070 836 1092 836 1118 C 836 1144 825 1166 803 1184 C 781 1201 755 1210 725 1210 L 516 1210 Z M 655 567 C 716 567 774 578 828 601 C 882 623 929 654 969 693 C 1009 732 1040 778 1063 831 C 1086 884 1098 941 1098 1001 C 1098 1059 1086 1115 1063 1167 C 1040 1219 1009 1264 969 1304 C 929 1343 882 1374 828 1397 C 774 1420 716 1432 655 1432 C 593 1432 536 1420 483 1397 C 430 1374 384 1343 345 1304 C 305 1264 274 1219 252 1167 C 230 1115 219 1059 219 1001 C 219 941 230 884 252 831 C 274 778 305 732 345 693 C 384 654 430 623 483 601 C 536 578 593 567 655 567 Z" unicode="" />
<glyph horiz-adv-x="840" d="M 850 1343 L 838 1286 L 326 1286 L 338 1343 L 850 1343 Z" unicode="" />
<glyph horiz-adv-x="778" d="M 541 1473 C 626 1473 691 1448 737 1398 C 782 1348 805 1277 805 1186 C 805 1158 802 1129 798 1099 C 794 1069 786 1038 776 1008 C 766 978 752 949 735 921 C 718 893 697 869 671 848 C 645 826 615 809 580 797 C 545 784 505 778 459 778 C 374 778 309 802 264 852 C 219 902 197 972 197 1063 C 197 1089 199 1118 203 1149 C 207 1180 214 1211 224 1241 C 234 1271 248 1301 265 1329 C 281 1357 302 1381 328 1403 C 354 1424 384 1441 419 1454 C 454 1466 495 1473 541 1473 Z M 539 1423 C 500 1423 466 1417 438 1406 C 409 1394 384 1379 363 1360 C 342 1341 325 1319 311 1294 C 297 1269 286 1243 278 1217 C 270 1190 264 1163 261 1137 C 257 1110 256 1085 256 1063 C 256 1027 260 994 269 965 C 277 936 290 911 308 891 C 325 871 346 855 372 844 C 397 832 427 827 461 827 C 499 827 532 832 561 844 C 590 855 615 870 636 889 C 657 908 675 930 689 955 C 703 979 714 1005 722 1032 C 730 1058 736 1085 740 1112 C 743 1138 745 1163 745 1186 C 745 1258 727 1316 693 1359 C 659 1401 607 1423 539 1423 Z" unicode="" />
<glyph horiz-adv-x="1167" d="M 549 756 L 549 1180 L 618 1180 L 618 756 L 1110 756 L 1110 692 L 618 692 L 618 266 L 549 266 L 549 692 L 57 692 L 57 756 L 549 756 Z M 1110 61 L 1110 0 L 57 0 L 57 61 L 1110 61 Z" unicode="" />
<glyph horiz-adv-x="768" d="M 592 1010 C 608 1024 626 1039 644 1055 C 662 1071 678 1088 693 1108 C 708 1127 720 1148 730 1170 C 740 1192 745 1217 745 1243 C 745 1267 740 1290 731 1310 C 721 1330 708 1347 692 1361 C 675 1375 655 1387 632 1395 C 608 1403 583 1407 555 1407 C 507 1407 463 1395 424 1373 C 385 1350 350 1317 319 1274 L 272 1294 C 286 1315 303 1335 322 1355 C 341 1375 363 1392 387 1407 C 411 1422 438 1434 468 1443 C 497 1451 529 1456 565 1456 C 597 1456 628 1451 657 1442 C 686 1433 712 1420 734 1403 C 756 1386 773 1365 786 1340 C 798 1314 805 1285 805 1253 C 805 1223 800 1196 792 1171 C 784 1146 772 1123 757 1101 C 741 1079 723 1058 701 1038 C 679 1018 655 997 629 977 L 217 649 L 707 649 L 696 598 L 131 598 L 141 651 L 592 1010 Z" unicode="" />
<glyph horiz-adv-x="754" d="M 264 1341 C 280 1355 298 1368 317 1382 C 336 1396 357 1408 380 1419 C 402 1430 427 1439 453 1446 C 479 1452 508 1456 539 1456 C 569 1456 598 1452 626 1445 C 654 1437 680 1426 702 1411 C 724 1395 742 1376 756 1353 C 769 1329 776 1302 776 1270 C 776 1242 770 1216 760 1193 C 749 1169 734 1149 716 1131 C 697 1113 675 1099 650 1087 C 624 1075 597 1066 569 1061 L 567 1055 C 615 1045 654 1025 684 995 C 714 965 729 922 729 868 C 729 814 716 769 690 731 C 664 693 629 661 587 637 C 544 613 495 595 440 584 C 385 572 329 567 272 567 C 252 567 230 568 205 570 C 180 572 158 576 139 582 L 139 631 C 161 627 184 625 206 623 C 228 621 248 621 268 621 C 315 621 363 625 411 633 C 459 641 502 654 541 673 C 579 691 611 716 635 747 C 659 778 672 817 672 864 C 672 891 666 915 656 935 C 646 955 632 972 615 986 C 598 999 578 1009 556 1016 C 534 1022 511 1026 487 1026 C 477 1026 462 1025 442 1023 C 422 1021 394 1019 358 1016 L 358 1065 L 459 1071 C 481 1071 508 1075 538 1083 C 568 1090 596 1101 622 1116 C 648 1131 671 1150 689 1174 C 707 1198 717 1227 717 1262 C 717 1285 712 1306 703 1324 C 693 1342 680 1357 664 1369 C 647 1381 627 1391 605 1397 C 582 1403 558 1407 532 1407 C 488 1407 447 1398 411 1381 C 375 1363 338 1341 301 1313 L 264 1341 L 264 1341 Z" unicode="" />
<glyph horiz-adv-x="840" d="M 803 1530 L 803 1499 L 518 1231 L 483 1231 L 487 1255 L 731 1530 L 803 1530 Z" unicode="" />
<glyph horiz-adv-x="1202" d="M 301 1053 L 369 1053 L 262 485 C 254 449 248 411 242 373 C 236 335 233 297 233 260 C 233 228 237 199 245 173 C 253 147 265 124 281 105 C 297 85 318 70 343 59 C 368 48 398 43 432 43 C 473 43 513 51 553 69 C 592 86 629 110 665 140 C 701 170 734 206 765 247 C 796 288 824 332 850 380 C 876 428 898 478 917 530 C 935 582 950 634 961 686 L 1032 1053 L 1100 1053 L 897 0 L 831 0 L 913 416 C 887 360 857 306 822 254 C 786 202 747 156 705 116 C 662 76 616 44 568 20 C 520 -4 470 -16 418 -16 C 391 -16 365 -12 341 -5 C 316 2 294 13 275 28 C 255 43 239 62 226 86 C 212 110 203 138 199 170 L 190 166 L 166 10 L 78 -451 L 8 -451 L 301 1053 Z" unicode="" />
<glyph horiz-adv-x="1268" d="M 883 -451 L 811 -451 L 1167 1386 L 850 1386 L 496 -451 L 424 -451 L 631 629 L 561 629 C 511 629 466 639 427 659 C 388 679 355 706 328 740 C 301 774 281 813 267 857 C 253 901 246 948 246 997 C 246 1053 255 1109 275 1163 C 294 1217 322 1265 358 1307 C 394 1349 437 1382 489 1408 C 540 1433 598 1446 662 1446 L 1249 1446 L 883 -451 Z" unicode="" />
<glyph horiz-adv-x="371" d="M 236 702 L 236 440 L 135 440 L 135 702 L 236 702 Z" unicode="" />
<glyph horiz-adv-x="840" d="M 315 2 L 305 -57 C 303 -65 304 -73 307 -79 C 309 -85 313 -90 317 -94 L 369 -145 C 373 -151 379 -158 386 -167 C 392 -175 399 -185 405 -196 C 411 -207 416 -219 420 -232 C 424 -245 426 -259 426 -274 C 426 -298 420 -321 410 -343 C 399 -365 384 -384 364 -400 C 344 -416 320 -428 292 -437 C 264 -446 232 -451 197 -451 C 163 -451 133 -447 107 -440 C 81 -433 58 -423 39 -410 L 57 -358 C 75 -371 97 -381 122 -387 C 147 -393 173 -397 199 -397 C 222 -397 244 -394 264 -388 C 284 -382 301 -374 315 -364 C 329 -353 341 -340 349 -326 C 357 -312 362 -296 362 -279 C 362 -255 356 -236 344 -221 C 332 -205 321 -192 311 -182 L 262 -131 C 254 -125 249 -116 246 -106 C 242 -96 242 -86 244 -76 L 260 2 L 315 2 Z" unicode="" />
<glyph horiz-adv-x="477" d="M 430 1446 L 479 1446 L 457 1370 L 307 598 L 248 598 L 397 1364 L 406 1391 L 401 1391 L 233 1323 L 244 1378 L 430 1446 Z" unicode="" />
<glyph horiz-adv-x="913" d="M 614 1470 C 666 1470 713 1461 753 1444 C 793 1427 827 1403 854 1373 C 881 1343 901 1307 915 1265 C 929 1223 936 1178 936 1128 C 936 1091 932 1053 924 1015 C 916 976 905 938 890 902 C 875 865 856 830 833 798 C 809 765 782 736 751 712 C 720 688 685 668 646 654 C 606 640 563 633 516 633 C 463 633 416 641 376 658 C 336 675 302 699 275 729 C 248 759 228 795 214 837 C 200 879 193 925 193 975 C 193 1011 196 1049 204 1088 C 211 1126 222 1164 238 1201 C 253 1237 272 1272 295 1305 C 318 1337 345 1366 377 1390 C 408 1414 443 1434 483 1448 C 522 1462 566 1470 614 1470 Z M 872 1122 C 872 1161 867 1198 857 1234 C 847 1270 831 1301 810 1328 C 788 1355 761 1377 728 1393 C 694 1409 654 1417 608 1417 C 548 1417 497 1403 453 1376 C 409 1349 373 1314 344 1272 C 315 1230 293 1183 279 1131 C 265 1079 258 1029 258 981 C 258 941 263 903 273 867 C 283 831 298 800 320 773 C 341 746 368 725 402 709 C 435 693 475 686 522 686 C 580 686 632 699 676 727 C 720 754 756 789 785 831 C 814 873 836 920 850 972 C 864 1023 872 1073 872 1122 Z" unicode="" />
<glyph horiz-adv-x="950" d="M 496 268 L 858 584 L 625 887 L 692 887 L 915 600 L 905 553 L 571 268 L 496 268 Z M 102 268 L 465 584 L 231 887 L 299 887 L 522 600 L 512 553 L 178 268 L 102 268 Z" unicode="" />
<glyph horiz-adv-x="1470" d="M 430 1446 L 479 1446 L 457 1370 L 307 598 L 248 598 L 397 1364 L 406 1391 L 401 1391 L 233 1323 L 244 1378 L 430 1446 Z M 1198 1446 L 272 0 L 213 0 L 1139 1446 L 1198 1446 Z M 1337 849 L 1216 251 L 1409 251 L 1399 204 L 1208 204 L 1167 1 L 1108 1 L 1149 204 L 729 204 L 741 265 L 1278 849 L 1337 849 Z M 790 251 L 1157 251 L 1249 701 L 1268 765 L 1263 765 L 790 251 Z" unicode="" />
<glyph horiz-adv-x="1575" d="M 430 1446 L 479 1446 L 457 1370 L 307 598 L 248 598 L 397 1364 L 406 1391 L 401 1391 L 233 1323 L 244 1378 L 430 1446 Z M 1198 1446 L 272 0 L 213 0 L 1139 1446 L 1198 1446 Z M 1286 413 C 1302 427 1320 442 1338 458 C 1356 474 1372 491 1387 511 C 1402 530 1414 551 1424 573 C 1434 595 1439 620 1439 646 C 1439 670 1434 693 1425 713 C 1415 733 1402 750 1386 764 C 1369 778 1349 790 1326 798 C 1302 806 1277 810 1249 810 C 1201 810 1157 798 1118 776 C 1079 753 1044 720 1013 677 L 966 697 C 980 718 997 738 1016 758 C 1035 778 1057 795 1081 810 C 1105 825 1132 837 1162 846 C 1191 854 1223 859 1259 859 C 1291 859 1322 854 1351 845 C 1380 836 1406 823 1428 806 C 1450 789 1467 768 1480 743 C 1492 717 1499 688 1499 656 C 1499 626 1494 599 1486 574 C 1478 549 1466 526 1451 504 C 1435 482 1417 461 1395 441 C 1373 421 1349 400 1323 380 L 911 52 L 1401 52 L 1390 1 L 825 1 L 835 54 L 1286 413 Z" unicode="" />
<glyph horiz-adv-x="1747" d="M 264 1341 C 280 1355 298 1368 317 1382 C 336 1396 357 1408 380 1419 C 402 1430 427 1439 453 1446 C 479 1452 508 1456 539 1456 C 569 1456 598 1452 626 1445 C 654 1437 680 1426 702 1411 C 724 1395 742 1376 756 1353 C 769 1329 776 1302 776 1270 C 776 1242 770 1216 760 1193 C 749 1169 734 1149 716 1131 C 697 1113 675 1099 650 1087 C 624 1075 597 1066 569 1061 L 567 1055 C 615 1045 654 1025 684 995 C 714 965 729 922 729 868 C 729 814 716 769 690 731 C 664 693 629 661 587 637 C 544 613 495 595 440 584 C 385 572 329 567 272 567 C 252 567 230 568 205 570 C 180 572 158 576 139 582 L 139 631 C 161 627 184 625 206 623 C 228 621 248 621 268 621 C 315 621 363 625 411 633 C 459 641 502 654 541 673 C 579 691 611 716 635 747 C 659 778 672 817 672 864 C 672 891 666 915 656 935 C 646 955 632 972 615 986 C 598 999 578 1009 556 1016 C 534 1022 511 1026 487 1026 C 477 1026 462 1025 442 1023 C 422 1021 394 1019 358 1016 L 358 1065 L 459 1071 C 481 1071 508 1075 538 1083 C 568 1090 596 1101 622 1116 C 648 1131 671 1150 689 1174 C 707 1198 717 1227 717 1262 C 717 1285 712 1306 703 1324 C 693 1342 680 1357 664 1369 C 647 1381 627 1391 605 1397 C 582 1403 558 1407 532 1407 C 488 1407 447 1398 411 1381 C 375 1363 338 1341 301 1313 L 264 1341 L 264 1341 Z M 1475 1446 L 549 0 L 490 0 L 1416 1446 L 1475 1446 Z M 1613 849 L 1492 251 L 1685 251 L 1675 204 L 1484 204 L 1443 1 L 1384 1 L 1425 204 L 1005 204 L 1017 265 L 1554 849 L 1613 849 Z M 1066 251 L 1433 251 L 1525 701 L 1544 765 L 1539 765 L 1066 251 Z" unicode="" />
<glyph horiz-adv-x="872" d="M 797 131 C 776 109 752 90 725 72 C 698 54 669 39 637 26 C 605 12 572 2 537 -5 C 501 -12 466 -16 430 -16 C 384 -16 342 -9 303 2 C 263 14 229 33 199 57 C 169 81 146 110 129 145 C 112 180 104 220 104 266 C 104 312 112 353 128 389 C 144 425 165 459 193 491 C 220 522 252 552 288 580 C 324 608 363 636 403 666 C 425 682 448 698 472 715 C 496 731 519 751 541 774 C 563 797 582 824 599 856 C 615 887 627 925 635 971 L 702 971 C 694 927 684 889 670 857 C 656 825 639 797 619 771 C 599 745 574 721 546 699 C 518 676 485 651 449 625 C 413 601 379 576 346 552 C 312 528 283 502 257 474 C 231 446 211 416 195 384 C 179 351 172 314 172 274 C 172 236 179 202 193 174 C 207 145 226 121 250 102 C 274 82 303 68 336 58 C 368 48 403 43 440 43 C 468 43 497 46 526 52 C 555 58 583 66 611 77 C 639 88 665 101 690 117 C 715 133 738 150 760 170 L 797 131 Z M 670 1227 L 713 1446 L 801 1446 L 758 1227 L 670 1227 Z" unicode="" />
<glyph horiz-adv-x="1235" d="M 610 1903 L 952 1628 L 946 1604 L 915 1604 L 541 1872 L 541 1903 L 610 1903 Z M 59 0 L -16 0 L 764 1446 L 854 1446 L 1069 0 L 997 0 L 940 381 L 262 381 L 59 0 Z M 295 440 L 932 440 L 807 1307 L 801 1372 L 793 1372 L 760 1307 L 295 440 Z" unicode="" />
<glyph horiz-adv-x="1235" d="M 1167 1903 L 1167 1872 L 786 1604 L 750 1604 L 756 1630 L 1098 1903 L 1167 1903 Z M 59 0 L -16 0 L 764 1446 L 854 1446 L 1069 0 L 997 0 L 940 381 L 262 381 L 59 0 Z M 295 440 L 932 440 L 807 1307 L 801 1372 L 793 1372 L 760 1307 L 295 440 Z" unicode="" />
<glyph horiz-adv-x="1235" d="M 59 0 L -16 0 L 764 1446 L 854 1446 L 1069 0 L 997 0 L 940 381 L 262 381 L 59 0 Z M 295 440 L 932 440 L 807 1307 L 801 1372 L 793 1372 L 760 1307 L 295 440 Z M 927 1903 L 1101 1626 L 1097 1604 L 1065 1604 L 895 1846 L 888 1846 L 622 1604 L 583 1604 L 587 1626 L 870 1903 L 927 1903 Z" unicode="" />
<glyph horiz-adv-x="1235" d="M 59 0 L -16 0 L 764 1446 L 854 1446 L 1069 0 L 997 0 L 940 381 L 262 381 L 59 0 Z M 295 440 L 932 440 L 807 1307 L 801 1372 L 793 1372 L 760 1307 L 295 440 Z M 610 1726 C 636 1751 659 1768 678 1777 C 697 1785 716 1790 735 1790 C 756 1790 775 1785 792 1777 C 809 1769 828 1754 850 1734 L 919 1671 C 931 1660 943 1651 955 1645 C 966 1639 978 1636 991 1636 C 1004 1636 1018 1639 1033 1647 C 1047 1655 1066 1670 1089 1693 L 1147 1749 L 1188 1722 L 1110 1644 C 1084 1618 1062 1601 1042 1593 C 1022 1585 1003 1581 985 1581 C 964 1581 945 1585 928 1593 C 910 1601 891 1615 870 1636 L 803 1699 C 790 1709 777 1718 765 1724 C 753 1730 741 1734 729 1734 C 716 1734 702 1730 687 1722 C 672 1714 654 1699 633 1677 L 573 1622 L 532 1648 L 610 1726 Z" unicode="" />
<glyph horiz-adv-x="1235" d="M 59 0 L -16 0 L 764 1446 L 854 1446 L 1069 0 L 997 0 L 940 381 L 262 381 L 59 0 Z M 295 440 L 932 440 L 807 1307 L 801 1372 L 793 1372 L 760 1307 L 295 440 Z M 702 1819 L 667 1645 L 591 1645 L 626 1819 L 702 1819 Z M 1130 1819 L 1095 1645 L 1022 1645 L 1056 1819 L 1130 1819 Z" unicode="" />
<glyph horiz-adv-x="1235" d="M 59 0 L -16 0 L 764 1446 L 854 1446 L 1069 0 L 997 0 L 940 381 L 262 381 L 59 0 Z M 295 440 L 932 440 L 807 1307 L 801 1372 L 793 1372 L 760 1307 L 295 440 Z M 649 1741 C 649 1769 654 1796 666 1821 C 677 1846 692 1868 712 1887 C 731 1906 754 1921 781 1932 C 807 1943 836 1949 866 1949 C 896 1949 924 1943 950 1932 C 976 1921 999 1906 1019 1887 C 1038 1868 1053 1846 1064 1821 C 1075 1796 1081 1769 1081 1741 C 1081 1712 1075 1685 1064 1660 C 1053 1635 1038 1613 1019 1595 C 999 1577 976 1562 950 1552 C 924 1541 896 1536 866 1536 C 836 1536 807 1541 781 1552 C 754 1562 731 1577 712 1595 C 692 1613 677 1635 666 1660 C 654 1685 649 1712 649 1741 Z M 696 1741 C 696 1718 700 1697 709 1677 C 718 1657 730 1639 746 1625 C 761 1610 779 1598 800 1590 C 820 1581 842 1577 866 1577 C 889 1577 911 1581 932 1590 C 952 1598 970 1610 986 1625 C 1001 1639 1013 1657 1022 1677 C 1031 1697 1036 1718 1036 1741 C 1036 1763 1031 1785 1022 1806 C 1013 1826 1001 1844 986 1859 C 970 1874 952 1886 932 1895 C 911 1904 889 1909 866 1909 C 842 1909 820 1904 800 1895 C 779 1886 761 1874 746 1859 C 730 1844 718 1826 709 1806 C 700 1785 696 1763 696 1741 Z" unicode="" />
<glyph horiz-adv-x="1976" d="M -41 0 L -123 0 L 1020 1446 L 2005 1446 L 1993 1386 L 1122 1386 L 1006 784 L 1786 784 L 1774 725 L 993 725 L 866 59 L 1757 59 L 1745 0 L 782 0 L 856 381 L 258 381 L -41 0 Z M 305 440 L 866 440 L 1053 1389 L 1040 1389 L 985 1307 L 305 440 Z" unicode="" />
<glyph horiz-adv-x="1346" d="M 1155 63 C 1109 36 1055 16 995 2 C 935 -11 867 -18 791 -18 C 767 -18 745 -17 724 -16 C 702 -15 682 -13 662 -10 L 653 -57 C 651 -66 651 -73 654 -79 C 657 -85 661 -90 666 -94 L 717 -145 C 722 -151 728 -158 735 -167 C 741 -175 747 -185 753 -196 C 759 -207 764 -219 768 -232 C 772 -245 774 -259 774 -274 C 774 -298 768 -321 758 -343 C 747 -365 732 -384 712 -400 C 692 -416 668 -428 640 -437 C 612 -446 580 -451 545 -451 C 511 -451 481 -447 455 -440 C 429 -433 406 -423 387 -410 L 406 -358 C 424 -371 445 -381 471 -387 C 496 -393 521 -397 547 -397 C 570 -397 592 -394 612 -388 C 632 -382 649 -374 664 -364 C 678 -353 690 -340 698 -326 C 706 -312 711 -296 711 -279 C 711 -256 705 -237 693 -221 C 681 -205 669 -192 659 -182 L 610 -131 C 602 -123 597 -115 594 -106 C 590 -97 590 -87 592 -76 L 608 0 C 462 30 351 95 275 197 C 198 298 160 430 160 592 C 160 664 167 735 182 807 C 196 879 218 947 248 1012 C 277 1076 313 1136 356 1192 C 399 1248 449 1296 506 1337 C 562 1378 626 1410 696 1433 C 766 1456 842 1468 926 1468 C 967 1468 1009 1464 1052 1458 C 1094 1452 1136 1442 1176 1430 C 1216 1418 1254 1402 1290 1384 C 1326 1366 1359 1345 1389 1321 L 1360 1257 C 1329 1282 1296 1304 1260 1323 C 1224 1342 1188 1358 1150 1371 C 1112 1383 1074 1393 1035 1399 C 996 1405 958 1409 920 1409 C 844 1409 774 1398 711 1376 C 647 1354 590 1323 540 1285 C 489 1246 445 1200 407 1148 C 369 1096 337 1039 312 979 C 286 919 267 856 255 791 C 242 725 236 660 236 596 C 236 508 248 429 274 361 C 299 292 336 234 384 186 C 432 138 490 102 560 78 C 630 53 709 41 797 41 C 869 41 934 49 994 65 C 1054 81 1107 103 1155 131 L 1155 63 Z" unicode="" />
<glyph horiz-adv-x="1309" d="M 655 1903 L 997 1628 L 991 1604 L 963 1604 L 586 1872 L 586 1903 L 655 1903 Z M 338 784 L 1118 784 L 1106 725 L 326 725 L 199 59 L 1090 59 L 1077 0 L 115 0 L 395 1446 L 1337 1446 L 1325 1386 L 455 1386 L 338 784 Z" unicode="" />
<glyph horiz-adv-x="1309" d="M 1214 1903 L 1214 1872 L 831 1604 L 797 1604 L 801 1630 L 1145 1903 L 1214 1903 Z M 338 784 L 1118 784 L 1106 725 L 326 725 L 199 59 L 1090 59 L 1077 0 L 115 0 L 395 1446 L 1337 1446 L 1325 1386 L 455 1386 L 338 784 Z" unicode="" />
<glyph horiz-adv-x="1309" d="M 338 784 L 1118 784 L 1106 725 L 326 725 L 199 59 L 1090 59 L 1077 0 L 115 0 L 395 1446 L 1337 1446 L 1325 1386 L 455 1386 L 338 784 Z M 966 1903 L 1140 1626 L 1136 1604 L 1104 1604 L 934 1846 L 927 1846 L 661 1604 L 622 1604 L 626 1626 L 909 1903 L 966 1903 Z" unicode="" />
<glyph horiz-adv-x="1309" d="M 338 784 L 1118 784 L 1106 725 L 326 725 L 199 59 L 1090 59 L 1077 0 L 115 0 L 395 1446 L 1337 1446 L 1325 1386 L 455 1386 L 338 784 Z M 741 1819 L 706 1645 L 630 1645 L 665 1819 L 741 1819 Z M 1169 1819 L 1134 1645 L 1061 1645 L 1095 1819 L 1169 1819 Z" unicode="" />
<glyph horiz-adv-x="483" d="M 236 1903 L 575 1628 L 569 1604 L 541 1604 L 166 1872 L 166 1903 L 236 1903 Z M 467 1446 L 186 0 L 115 0 L 395 1446 L 467 1446 Z" unicode="" />
<glyph horiz-adv-x="483" d="M 772 1903 L 772 1872 L 389 1604 L 354 1604 L 358 1630 L 702 1903 L 772 1903 Z M 467 1446 L 186 0 L 115 0 L 395 1446 L 467 1446 Z" unicode="" />
<glyph horiz-adv-x="483" d="M 467 1446 L 186 0 L 115 0 L 395 1446 L 467 1446 Z M 552 1903 L 726 1626 L 722 1604 L 690 1604 L 520 1846 L 513 1846 L 247 1604 L 208 1604 L 212 1626 L 495 1903 L 552 1903 Z" unicode="" />
<glyph horiz-adv-x="483" d="M 467 1446 L 186 0 L 115 0 L 395 1446 L 467 1446 Z M 327 1819 L 292 1645 L 216 1645 L 251 1819 L 327 1819 Z M 755 1819 L 720 1645 L 647 1645 L 681 1819 L 755 1819 Z" unicode="" />
<glyph horiz-adv-x="1507" d="M 115 786 L 301 786 L 428 1446 L 829 1446 C 922 1446 1007 1433 1085 1407 C 1162 1381 1228 1343 1284 1292 C 1340 1240 1383 1175 1414 1097 C 1444 1019 1460 927 1460 823 C 1460 757 1453 691 1440 625 C 1427 559 1407 495 1380 435 C 1352 374 1318 317 1276 264 C 1234 211 1185 165 1127 126 C 1069 86 1004 55 930 33 C 856 11 774 0 684 0 L 150 0 L 289 729 L 104 729 L 115 786 Z M 489 1386 L 373 786 L 823 786 L 813 729 L 360 729 L 231 59 L 688 59 C 766 59 837 69 902 89 C 966 109 1024 136 1076 172 C 1127 207 1172 249 1211 297 C 1249 345 1281 397 1307 454 C 1333 510 1352 570 1365 632 C 1377 694 1384 757 1384 821 C 1384 912 1371 993 1345 1063 C 1319 1133 1282 1192 1234 1240 C 1186 1288 1127 1324 1059 1349 C 990 1373 913 1386 829 1386 L 489 1386 Z" unicode="" />
<glyph horiz-adv-x="1473" d="M 395 1446 L 492 1446 L 1071 184 L 1118 68 L 1126 68 L 1145 195 L 1389 1446 L 1456 1446 L 1176 0 L 1083 0 L 500 1262 L 453 1376 L 446 1376 L 426 1249 L 184 0 L 115 0 L 395 1446 Z M 717 1726 C 743 1751 766 1768 785 1777 C 804 1785 823 1790 842 1790 C 863 1790 882 1785 899 1777 C 916 1769 935 1754 957 1734 L 1026 1671 C 1038 1660 1050 1651 1062 1645 C 1073 1639 1085 1636 1098 1636 C 1111 1636 1125 1639 1140 1647 C 1154 1655 1173 1670 1196 1693 L 1254 1749 L 1295 1722 L 1217 1644 C 1191 1618 1169 1601 1149 1593 C 1129 1585 1110 1581 1092 1581 C 1071 1581 1052 1585 1035 1593 C 1017 1601 998 1615 977 1636 L 910 1699 C 897 1709 884 1718 872 1724 C 860 1730 848 1734 836 1734 C 823 1734 809 1730 794 1722 C 779 1714 761 1699 740 1677 L 680 1622 L 639 1648 L 717 1726 Z" unicode="" />
<glyph horiz-adv-x="1532" d="M 762 1903 L 1102 1628 L 1096 1604 L 1067 1604 L 692 1872 L 692 1903 L 762 1903 Z M 899 1468 C 991 1468 1073 1453 1146 1424 C 1218 1395 1280 1354 1330 1300 C 1380 1246 1419 1182 1445 1107 C 1471 1031 1485 948 1485 856 C 1485 787 1478 718 1465 648 C 1451 578 1431 510 1404 445 C 1377 380 1343 319 1302 263 C 1260 207 1212 158 1156 116 C 1100 74 1037 40 967 16 C 896 -7 818 -20 733 -20 C 641 -20 559 -5 487 23 C 415 52 354 93 304 147 C 254 200 215 264 189 340 C 163 415 150 499 150 592 C 150 660 156 730 170 800 C 183 870 203 937 230 1002 C 257 1067 291 1128 332 1184 C 373 1240 421 1290 477 1332 C 532 1374 595 1407 665 1431 C 735 1455 813 1468 899 1468 Z M 1411 846 C 1411 926 1400 1000 1378 1068 C 1356 1136 1324 1196 1281 1247 C 1238 1297 1184 1337 1120 1366 C 1055 1394 979 1409 893 1409 C 817 1409 748 1398 686 1376 C 624 1354 568 1323 518 1285 C 468 1246 425 1201 388 1149 C 351 1097 320 1041 296 981 C 272 921 253 858 241 793 C 229 728 223 664 223 600 C 223 520 233 445 255 377 C 276 309 308 250 351 200 C 394 150 448 110 513 82 C 577 53 653 39 741 39 C 816 39 885 50 948 72 C 1010 94 1066 124 1116 163 C 1165 201 1208 247 1245 299 C 1282 351 1313 406 1338 466 C 1362 526 1381 588 1393 653 C 1405 717 1411 782 1411 846 Z" unicode="" />
<glyph horiz-adv-x="1532" d="M 1313 1903 L 1313 1872 L 932 1604 L 895 1604 L 901 1630 L 1243 1903 L 1313 1903 Z M 899 1468 C 991 1468 1073 1453 1146 1424 C 1218 1395 1280 1354 1330 1300 C 1380 1246 1419 1182 1445 1107 C 1471 1031 1485 948 1485 856 C 1485 787 1478 718 1465 648 C 1451 578 1431 510 1404 445 C 1377 380 1343 319 1302 263 C 1260 207 1212 158 1156 116 C 1100 74 1037 40 967 16 C 896 -7 818 -20 733 -20 C 641 -20 559 -5 487 23 C 415 52 354 93 304 147 C 254 200 215 264 189 340 C 163 415 150 499 150 592 C 150 660 156 730 170 800 C 183 870 203 937 230 1002 C 257 1067 291 1128 332 1184 C 373 1240 421 1290 477 1332 C 532 1374 595 1407 665 1431 C 735 1455 813 1468 899 1468 Z M 1411 846 C 1411 926 1400 1000 1378 1068 C 1356 1136 1324 1196 1281 1247 C 1238 1297 1184 1337 1120 1366 C 1055 1394 979 1409 893 1409 C 817 1409 748 1398 686 1376 C 624 1354 568 1323 518 1285 C 468 1246 425 1201 388 1149 C 351 1097 320 1041 296 981 C 272 921 253 858 241 793 C 229 728 223 664 223 600 C 223 520 233 445 255 377 C 276 309 308 250 351 200 C 394 150 448 110 513 82 C 577 53 653 39 741 39 C 816 39 885 50 948 72 C 1010 94 1066 124 1116 163 C 1165 201 1208 247 1245 299 C 1282 351 1313 406 1338 466 C 1362 526 1381 588 1393 653 C 1405 717 1411 782 1411 846 Z" unicode="" />
<glyph horiz-adv-x="1532" d="M 899 1468 C 991 1468 1073 1453 1146 1424 C 1218 1395 1280 1354 1330 1300 C 1380 1246 1419 1182 1445 1107 C 1471 1031 1485 948 1485 856 C 1485 787 1478 718 1465 648 C 1451 578 1431 510 1404 445 C 1377 380 1343 319 1302 263 C 1260 207 1212 158 1156 116 C 1100 74 1037 40 967 16 C 896 -7 818 -20 733 -20 C 641 -20 559 -5 487 23 C 415 52 354 93 304 147 C 254 200 215 264 189 340 C 163 415 150 499 150 592 C 150 660 156 730 170 800 C 183 870 203 937 230 1002 C 257 1067 291 1128 332 1184 C 373 1240 421 1290 477 1332 C 532 1374 595 1407 665 1431 C 735 1455 813 1468 899 1468 Z M 1411 846 C 1411 926 1400 1000 1378 1068 C 1356 1136 1324 1196 1281 1247 C 1238 1297 1184 1337 1120 1366 C 1055 1394 979 1409 893 1409 C 817 1409 748 1398 686 1376 C 624 1354 568 1323 518 1285 C 468 1246 425 1201 388 1149 C 351 1097 320 1041 296 981 C 272 921 253 858 241 793 C 229 728 223 664 223 600 C 223 520 233 445 255 377 C 276 309 308 250 351 200 C 394 150 448 110 513 82 C 577 53 653 39 741 39 C 816 39 885 50 948 72 C 1010 94 1066 124 1116 163 C 1165 201 1208 247 1245 299 C 1282 351 1313 406 1338 466 C 1362 526 1381 588 1393 653 C 1405 717 1411 782 1411 846 Z M 1067 1903 L 1241 1626 L 1237 1604 L 1205 1604 L 1035 1846 L 1028 1846 L 762 1604 L 723 1604 L 727 1626 L 1010 1903 L 1067 1903 Z" unicode="" />
<glyph horiz-adv-x="1532" d="M 899 1468 C 991 1468 1073 1453 1146 1424 C 1218 1395 1280 1354 1330 1300 C 1380 1246 1419 1182 1445 1107 C 1471 1031 1485 948 1485 856 C 1485 787 1478 718 1465 648 C 1451 578 1431 510 1404 445 C 1377 380 1343 319 1302 263 C 1260 207 1212 158 1156 116 C 1100 74 1037 40 967 16 C 896 -7 818 -20 733 -20 C 641 -20 559 -5 487 23 C 415 52 354 93 304 147 C 254 200 215 264 189 340 C 163 415 150 499 150 592 C 150 660 156 730 170 800 C 183 870 203 937 230 1002 C 257 1067 291 1128 332 1184 C 373 1240 421 1290 477 1332 C 532 1374 595 1407 665 1431 C 735 1455 813 1468 899 1468 Z M 1411 846 C 1411 926 1400 1000 1378 1068 C 1356 1136 1324 1196 1281 1247 C 1238 1297 1184 1337 1120 1366 C 1055 1394 979 1409 893 1409 C 817 1409 748 1398 686 1376 C 624 1354 568 1323 518 1285 C 468 1246 425 1201 388 1149 C 351 1097 320 1041 296 981 C 272 921 253 858 241 793 C 229 728 223 664 223 600 C 223 520 233 445 255 377 C 276 309 308 250 351 200 C 394 150 448 110 513 82 C 577 53 653 39 741 39 C 816 39 885 50 948 72 C 1010 94 1066 124 1116 163 C 1165 201 1208 247 1245 299 C 1282 351 1313 406 1338 466 C 1362 526 1381 588 1393 653 C 1405 717 1411 782 1411 846 Z M 760 1726 C 786 1751 809 1768 828 1777 C 847 1785 866 1790 885 1790 C 906 1790 925 1785 942 1777 C 959 1769 978 1754 1000 1734 L 1069 1671 C 1081 1660 1093 1651 1105 1645 C 1116 1639 1128 1636 1141 1636 C 1154 1636 1168 1639 1183 1647 C 1197 1655 1216 1670 1239 1693 L 1297 1749 L 1338 1722 L 1260 1644 C 1234 1618 1212 1601 1192 1593 C 1172 1585 1153 1581 1135 1581 C 1114 1581 1095 1585 1078 1593 C 1060 1601 1041 1615 1020 1636 L 953 1699 C 940 1709 927 1718 915 1724 C 903 1730 891 1734 879 1734 C 866 1734 852 1730 837 1722 C 822 1714 804 1699 783 1677 L 723 1622 L 682 1648 L 760 1726 Z" unicode="" />
<glyph horiz-adv-x="1532" d="M 899 1468 C 991 1468 1073 1453 1146 1424 C 1218 1395 1280 1354 1330 1300 C 1380 1246 1419 1182 1445 1107 C 1471 1031 1485 948 1485 856 C 1485 787 1478 718 1465 648 C 1451 578 1431 510 1404 445 C 1377 380 1343 319 1302 263 C 1260 207 1212 158 1156 116 C 1100 74 1037 40 967 16 C 896 -7 818 -20 733 -20 C 641 -20 559 -5 487 23 C 415 52 354 93 304 147 C 254 200 215 264 189 340 C 163 415 150 499 150 592 C 150 660 156 730 170 800 C 183 870 203 937 230 1002 C 257 1067 291 1128 332 1184 C 373 1240 421 1290 477 1332 C 532 1374 595 1407 665 1431 C 735 1455 813 1468 899 1468 Z M 1411 846 C 1411 926 1400 1000 1378 1068 C 1356 1136 1324 1196 1281 1247 C 1238 1297 1184 1337 1120 1366 C 1055 1394 979 1409 893 1409 C 817 1409 748 1398 686 1376 C 624 1354 568 1323 518 1285 C 468 1246 425 1201 388 1149 C 351 1097 320 1041 296 981 C 272 921 253 858 241 793 C 229 728 223 664 223 600 C 223 520 233 445 255 377 C 276 309 308 250 351 200 C 394 150 448 110 513 82 C 577 53 653 39 741 39 C 816 39 885 50 948 72 C 1010 94 1066 124 1116 163 C 1165 201 1208 247 1245 299 C 1282 351 1313 406 1338 466 C 1362 526 1381 588 1393 653 C 1405 717 1411 782 1411 846 Z M 842 1819 L 807 1645 L 731 1645 L 766 1819 L 842 1819 Z M 1270 1819 L 1235 1645 L 1162 1645 L 1196 1819 L 1270 1819 Z" unicode="" />
<glyph horiz-adv-x="1167" d="M 584 616 L 1044 1077 L 1090 1032 L 629 571 L 1092 109 L 1044 63 L 582 526 L 123 66 L 78 111 L 539 569 L 78 1030 L 123 1077 L 584 616 Z" unicode="" />
<glyph horiz-adv-x="1532" d="M 899 1468 C 969 1468 1034 1459 1092 1442 C 1150 1424 1203 1400 1251 1368 L 1399 1581 L 1458 1581 L 1290 1337 C 1352 1283 1400 1216 1434 1134 C 1468 1052 1485 960 1485 856 C 1485 787 1478 718 1465 648 C 1451 578 1431 510 1404 445 C 1377 380 1343 319 1302 263 C 1260 207 1212 158 1156 116 C 1100 74 1037 40 967 16 C 896 -7 818 -20 733 -20 C 607 -20 499 7 410 61 L 272 -137 L 213 -137 L 367 88 C 296 142 242 211 205 297 C 168 382 150 480 150 592 C 150 660 156 730 170 800 C 183 870 203 937 230 1002 C 257 1067 291 1128 332 1184 C 373 1240 421 1290 477 1332 C 532 1374 595 1407 665 1431 C 735 1455 813 1468 899 1468 Z M 893 1409 C 817 1409 748 1398 686 1376 C 624 1354 568 1323 518 1285 C 468 1246 425 1201 388 1149 C 351 1097 320 1041 296 981 C 272 921 253 858 241 793 C 229 728 223 664 223 600 C 223 503 238 415 269 337 C 299 258 346 193 408 143 L 1212 1313 C 1170 1343 1123 1367 1071 1384 C 1018 1400 959 1409 893 1409 Z M 1411 846 C 1411 935 1397 1017 1370 1091 C 1343 1165 1303 1228 1249 1280 L 449 115 C 487 90 531 71 579 58 C 627 45 681 39 741 39 C 816 39 885 50 948 72 C 1010 94 1066 124 1116 163 C 1165 201 1208 247 1245 299 C 1282 351 1313 406 1338 466 C 1362 526 1381 588 1393 653 C 1405 717 1411 782 1411 846 Z" unicode="" />
<glyph horiz-adv-x="1407" d="M 682 1903 L 1022 1628 L 1016 1604 L 987 1604 L 612 1872 L 612 1903 L 682 1903 Z M 440 1446 L 295 688 C 285 638 278 596 272 563 C 266 530 261 503 257 481 C 253 459 251 440 250 426 C 248 411 248 397 248 383 C 248 319 259 266 281 222 C 303 178 333 142 372 115 C 411 88 457 69 509 57 C 561 45 618 39 680 39 C 766 39 836 49 892 70 C 947 91 992 120 1026 157 C 1060 194 1085 238 1103 289 C 1121 340 1135 395 1147 455 L 1337 1446 L 1409 1446 L 1217 440 C 1209 399 1199 359 1187 321 C 1175 282 1161 246 1143 212 C 1125 178 1102 146 1076 118 C 1050 90 1018 65 981 45 C 943 24 900 8 850 -3 C 800 -14 742 -20 676 -20 C 611 -20 549 -13 489 0 C 429 12 375 34 329 65 C 283 95 246 136 218 188 C 190 239 176 303 176 379 C 176 397 176 415 178 433 C 180 451 183 472 187 496 C 191 520 196 547 202 577 C 208 607 215 644 223 686 L 369 1446 L 440 1446 Z" unicode="" />
<glyph horiz-adv-x="1407" d="M 1249 1903 L 1249 1872 L 866 1604 L 831 1604 L 836 1630 L 1180 1903 L 1249 1903 Z M 440 1446 L 295 688 C 285 638 278 596 272 563 C 266 530 261 503 257 481 C 253 459 251 440 250 426 C 248 411 248 397 248 383 C 248 319 259 266 281 222 C 303 178 333 142 372 115 C 411 88 457 69 509 57 C 561 45 618 39 680 39 C 766 39 836 49 892 70 C 947 91 992 120 1026 157 C 1060 194 1085 238 1103 289 C 1121 340 1135 395 1147 455 L 1337 1446 L 1409 1446 L 1217 440 C 1209 399 1199 359 1187 321 C 1175 282 1161 246 1143 212 C 1125 178 1102 146 1076 118 C 1050 90 1018 65 981 45 C 943 24 900 8 850 -3 C 800 -14 742 -20 676 -20 C 611 -20 549 -13 489 0 C 429 12 375 34 329 65 C 283 95 246 136 218 188 C 190 239 176 303 176 379 C 176 397 176 415 178 433 C 180 451 183 472 187 496 C 191 520 196 547 202 577 C 208 607 215 644 223 686 L 369 1446 L 440 1446 Z" unicode="" />
<glyph horiz-adv-x="1407" d="M 440 1446 L 295 688 C 285 638 278 596 272 563 C 266 530 261 503 257 481 C 253 459 251 440 250 426 C 248 411 248 397 248 383 C 248 319 259 266 281 222 C 303 178 333 142 372 115 C 411 88 457 69 509 57 C 561 45 618 39 680 39 C 766 39 836 49 892 70 C 947 91 992 120 1026 157 C 1060 194 1085 238 1103 289 C 1121 340 1135 395 1147 455 L 1337 1446 L 1409 1446 L 1217 440 C 1209 399 1199 359 1187 321 C 1175 282 1161 246 1143 212 C 1125 178 1102 146 1076 118 C 1050 90 1018 65 981 45 C 943 24 900 8 850 -3 C 800 -14 742 -20 676 -20 C 611 -20 549 -13 489 0 C 429 12 375 34 329 65 C 283 95 246 136 218 188 C 190 239 176 303 176 379 C 176 397 176 415 178 433 C 180 451 183 472 187 496 C 191 520 196 547 202 577 C 208 607 215 644 223 686 L 369 1446 L 440 1446 Z M 1007 1903 L 1181 1626 L 1177 1604 L 1145 1604 L 975 1846 L 968 1846 L 702 1604 L 663 1604 L 667 1626 L 950 1903 L 1007 1903 Z" unicode="" />
<glyph horiz-adv-x="1407" d="M 440 1446 L 295 688 C 285 638 278 596 272 563 C 266 530 261 503 257 481 C 253 459 251 440 250 426 C 248 411 248 397 248 383 C 248 319 259 266 281 222 C 303 178 333 142 372 115 C 411 88 457 69 509 57 C 561 45 618 39 680 39 C 766 39 836 49 892 70 C 947 91 992 120 1026 157 C 1060 194 1085 238 1103 289 C 1121 340 1135 395 1147 455 L 1337 1446 L 1409 1446 L 1217 440 C 1209 399 1199 359 1187 321 C 1175 282 1161 246 1143 212 C 1125 178 1102 146 1076 118 C 1050 90 1018 65 981 45 C 943 24 900 8 850 -3 C 800 -14 742 -20 676 -20 C 611 -20 549 -13 489 0 C 429 12 375 34 329 65 C 283 95 246 136 218 188 C 190 239 176 303 176 379 C 176 397 176 415 178 433 C 180 451 183 472 187 496 C 191 520 196 547 202 577 C 208 607 215 644 223 686 L 369 1446 L 440 1446 Z M 782 1819 L 747 1645 L 671 1645 L 706 1819 L 782 1819 Z M 1210 1819 L 1175 1645 L 1102 1645 L 1136 1819 L 1210 1819 Z" unicode="" />
<glyph horiz-adv-x="1112" d="M 1102 1903 L 1102 1872 L 721 1604 L 684 1604 L 690 1630 L 1032 1903 L 1102 1903 Z M 295 1446 L 582 604 L 1196 1446 L 1282 1446 L 604 537 L 502 0 L 430 0 L 532 537 L 213 1446 L 295 1446 Z" unicode="" />
<glyph horiz-adv-x="1319" d="M 467 1446 L 410 1151 L 821 1151 C 899 1151 969 1143 1031 1128 C 1092 1112 1144 1087 1186 1051 C 1222 1021 1250 983 1270 939 C 1290 895 1300 842 1300 780 C 1300 707 1287 640 1263 580 C 1239 519 1205 467 1161 424 C 1119 384 1068 353 1008 333 C 948 313 879 303 799 303 L 244 303 L 186 0 L 115 0 L 395 1446 L 467 1446 Z M 397 1092 L 256 362 L 807 362 C 875 362 936 372 988 393 C 1040 413 1084 442 1120 479 C 1156 515 1183 559 1201 609 C 1219 659 1229 714 1229 774 C 1229 825 1220 870 1202 910 C 1184 949 1158 982 1124 1009 C 1090 1036 1049 1057 1001 1071 C 952 1085 897 1092 836 1092 L 397 1092 Z" unicode="" />
<glyph horiz-adv-x="1069" d="M 303 1139 C 315 1205 334 1263 358 1311 C 382 1359 411 1399 445 1431 C 479 1462 517 1485 560 1501 C 602 1516 649 1524 700 1524 C 746 1524 791 1517 834 1504 C 876 1491 914 1472 946 1446 C 978 1420 1004 1387 1024 1348 C 1043 1308 1053 1262 1053 1210 C 1053 1171 1047 1135 1037 1102 C 1026 1068 1011 1037 993 1008 C 974 979 952 952 926 926 C 900 900 872 876 842 852 C 821 835 805 823 794 815 C 783 807 778 800 778 793 C 778 789 779 785 781 780 C 783 775 787 768 793 758 C 799 748 808 736 820 720 C 832 704 847 683 866 659 C 884 635 902 611 919 589 C 935 567 950 544 963 520 C 976 496 986 470 994 442 C 1002 414 1006 382 1006 346 C 1006 293 997 244 980 200 C 962 155 938 116 906 84 C 874 52 835 27 789 9 C 743 -9 691 -18 633 -18 C 599 -18 565 -15 531 -10 C 497 -4 464 2 432 10 L 442 70 C 463 64 490 57 523 49 C 556 41 593 37 633 37 C 678 37 719 44 757 58 C 794 72 826 92 852 119 C 878 145 899 177 914 215 C 928 252 936 294 936 342 C 936 374 932 402 926 427 C 919 452 910 475 899 496 C 887 517 874 538 859 558 C 843 578 827 599 811 621 C 777 663 753 696 737 722 C 721 748 713 770 713 788 C 713 796 714 803 718 811 C 721 818 726 825 733 833 C 740 841 749 849 759 858 C 769 866 782 877 797 889 C 823 910 847 932 869 954 C 891 976 911 999 928 1024 C 944 1048 957 1075 967 1104 C 976 1132 981 1164 981 1200 C 981 1244 973 1282 959 1315 C 945 1348 925 1376 899 1398 C 873 1420 843 1436 809 1447 C 775 1458 738 1464 698 1464 C 606 1464 533 1435 481 1377 C 429 1319 392 1234 371 1120 L 156 0 L 86 0 L 303 1139 Z" unicode="" />
<glyph horiz-adv-x="1143" d="M 1081 1053 L 872 0 L 809 0 L 895 440 C 865 380 832 322 796 267 C 760 212 720 164 677 122 C 633 80 586 46 536 21 C 485 -3 430 -16 371 -16 C 321 -16 278 -7 242 10 C 206 27 176 51 152 82 C 128 113 110 150 98 193 C 86 236 80 283 80 334 C 80 384 85 437 97 493 C 109 549 126 604 149 658 C 171 712 199 764 233 814 C 266 864 304 907 348 945 C 391 983 439 1013 493 1035 C 547 1057 605 1069 668 1069 C 744 1069 807 1051 855 1015 C 903 979 943 926 975 854 L 1022 1053 L 1081 1053 Z M 381 43 C 424 43 467 52 509 72 C 551 91 591 117 629 150 C 667 182 703 220 737 264 C 771 307 801 353 828 402 C 855 450 878 500 897 551 C 916 601 930 650 940 698 L 956 791 C 940 825 922 856 904 884 C 886 911 865 934 842 953 C 818 972 792 987 763 997 C 734 1007 701 1012 664 1012 C 610 1012 559 1001 513 981 C 466 960 424 932 386 898 C 348 863 314 823 285 777 C 255 731 231 684 211 634 C 191 584 175 534 165 484 C 155 434 150 386 150 342 C 150 296 155 255 165 219 C 175 182 191 151 211 125 C 231 99 255 78 284 64 C 312 50 345 43 381 43 Z M 544 1530 L 790 1255 L 786 1231 L 757 1231 L 473 1499 L 473 1530 L 544 1530 Z" unicode="" />
<glyph horiz-adv-x="1143" d="M 1081 1053 L 872 0 L 809 0 L 895 440 C 865 380 832 322 796 267 C 760 212 720 164 677 122 C 633 80 586 46 536 21 C 485 -3 430 -16 371 -16 C 321 -16 278 -7 242 10 C 206 27 176 51 152 82 C 128 113 110 150 98 193 C 86 236 80 283 80 334 C 80 384 85 437 97 493 C 109 549 126 604 149 658 C 171 712 199 764 233 814 C 266 864 304 907 348 945 C 391 983 439 1013 493 1035 C 547 1057 605 1069 668 1069 C 744 1069 807 1051 855 1015 C 903 979 943 926 975 854 L 1022 1053 L 1081 1053 Z M 381 43 C 424 43 467 52 509 72 C 551 91 591 117 629 150 C 667 182 703 220 737 264 C 771 307 801 353 828 402 C 855 450 878 500 897 551 C 916 601 930 650 940 698 L 956 791 C 940 825 922 856 904 884 C 886 911 865 934 842 953 C 818 972 792 987 763 997 C 734 1007 701 1012 664 1012 C 610 1012 559 1001 513 981 C 466 960 424 932 386 898 C 348 863 314 823 285 777 C 255 731 231 684 211 634 C 191 584 175 534 165 484 C 155 434 150 386 150 342 C 150 296 155 255 165 219 C 175 182 191 151 211 125 C 231 99 255 78 284 64 C 312 50 345 43 381 43 Z M 948 1530 L 948 1499 L 663 1231 L 628 1231 L 632 1255 L 876 1530 L 948 1530 Z" unicode="" />
<glyph horiz-adv-x="1143" d="M 1081 1053 L 872 0 L 809 0 L 895 440 C 865 380 832 322 796 267 C 760 212 720 164 677 122 C 633 80 586 46 536 21 C 485 -3 430 -16 371 -16 C 321 -16 278 -7 242 10 C 206 27 176 51 152 82 C 128 113 110 150 98 193 C 86 236 80 283 80 334 C 80 384 85 437 97 493 C 109 549 126 604 149 658 C 171 712 199 764 233 814 C 266 864 304 907 348 945 C 391 983 439 1013 493 1035 C 547 1057 605 1069 668 1069 C 744 1069 807 1051 855 1015 C 903 979 943 926 975 854 L 1022 1053 L 1081 1053 Z M 381 43 C 424 43 467 52 509 72 C 551 91 591 117 629 150 C 667 182 703 220 737 264 C 771 307 801 353 828 402 C 855 450 878 500 897 551 C 916 601 930 650 940 698 L 956 791 C 940 825 922 856 904 884 C 886 911 865 934 842 953 C 818 972 792 987 763 997 C 734 1007 701 1012 664 1012 C 610 1012 559 1001 513 981 C 466 960 424 932 386 898 C 348 863 314 823 285 777 C 255 731 231 684 211 634 C 191 584 175 534 165 484 C 155 434 150 386 150 342 C 150 296 155 255 165 219 C 175 182 191 151 211 125 C 231 99 255 78 284 64 C 312 50 345 43 381 43 Z M 798 1530 L 972 1253 L 968 1231 L 936 1231 L 766 1473 L 759 1473 L 493 1231 L 454 1231 L 458 1253 L 741 1530 L 798 1530 Z" unicode="" />
<glyph horiz-adv-x="1143" d="M 1081 1053 L 872 0 L 809 0 L 895 440 C 865 380 832 322 796 267 C 760 212 720 164 677 122 C 633 80 586 46 536 21 C 485 -3 430 -16 371 -16 C 321 -16 278 -7 242 10 C 206 27 176 51 152 82 C 128 113 110 150 98 193 C 86 236 80 283 80 334 C 80 384 85 437 97 493 C 109 549 126 604 149 658 C 171 712 199 764 233 814 C 266 864 304 907 348 945 C 391 983 439 1013 493 1035 C 547 1057 605 1069 668 1069 C 744 1069 807 1051 855 1015 C 903 979 943 926 975 854 L 1022 1053 L 1081 1053 Z M 381 43 C 424 43 467 52 509 72 C 551 91 591 117 629 150 C 667 182 703 220 737 264 C 771 307 801 353 828 402 C 855 450 878 500 897 551 C 916 601 930 650 940 698 L 956 791 C 940 825 922 856 904 884 C 886 911 865 934 842 953 C 818 972 792 987 763 997 C 734 1007 701 1012 664 1012 C 610 1012 559 1001 513 981 C 466 960 424 932 386 898 C 348 863 314 823 285 777 C 255 731 231 684 211 634 C 191 584 175 534 165 484 C 155 434 150 386 150 342 C 150 296 155 255 165 219 C 175 182 191 151 211 125 C 231 99 255 78 284 64 C 312 50 345 43 381 43 Z M 491 1370 C 517 1395 540 1412 559 1421 C 578 1429 597 1434 616 1434 C 637 1434 656 1429 673 1421 C 690 1413 709 1398 731 1378 L 800 1315 C 812 1304 824 1295 836 1289 C 847 1283 859 1280 872 1280 C 885 1280 899 1283 914 1291 C 928 1299 947 1314 970 1337 L 1028 1393 L 1069 1366 L 991 1288 C 965 1262 943 1245 923 1237 C 903 1229 884 1225 866 1225 C 845 1225 826 1229 809 1237 C 791 1245 772 1259 751 1280 L 684 1343 C 671 1353 658 1362 646 1368 C 634 1374 622 1378 610 1378 C 597 1378 583 1374 568 1366 C 553 1358 535 1343 514 1321 L 454 1266 L 413 1292 L 491 1370 Z" unicode="" />
<glyph horiz-adv-x="1143" d="M 1081 1053 L 872 0 L 809 0 L 895 440 C 865 380 832 322 796 267 C 760 212 720 164 677 122 C 633 80 586 46 536 21 C 485 -3 430 -16 371 -16 C 321 -16 278 -7 242 10 C 206 27 176 51 152 82 C 128 113 110 150 98 193 C 86 236 80 283 80 334 C 80 384 85 437 97 493 C 109 549 126 604 149 658 C 171 712 199 764 233 814 C 266 864 304 907 348 945 C 391 983 439 1013 493 1035 C 547 1057 605 1069 668 1069 C 744 1069 807 1051 855 1015 C 903 979 943 926 975 854 L 1022 1053 L 1081 1053 Z M 381 43 C 424 43 467 52 509 72 C 551 91 591 117 629 150 C 667 182 703 220 737 264 C 771 307 801 353 828 402 C 855 450 878 500 897 551 C 916 601 930 650 940 698 L 956 791 C 940 825 922 856 904 884 C 886 911 865 934 842 953 C 818 972 792 987 763 997 C 734 1007 701 1012 664 1012 C 610 1012 559 1001 513 981 C 466 960 424 932 386 898 C 348 863 314 823 285 777 C 255 731 231 684 211 634 C 191 584 175 534 165 484 C 155 434 150 386 150 342 C 150 296 155 255 165 219 C 175 182 191 151 211 125 C 231 99 255 78 284 64 C 312 50 345 43 381 43 Z M 573 1446 L 538 1272 L 462 1272 L 497 1446 L 573 1446 Z M 1001 1446 L 966 1272 L 893 1272 L 927 1446 L 1001 1446 Z" unicode="" />
<glyph horiz-adv-x="1143" d="M 1081 1053 L 872 0 L 809 0 L 895 440 C 865 380 832 322 796 267 C 760 212 720 164 677 122 C 633 80 586 46 536 21 C 485 -3 430 -16 371 -16 C 321 -16 278 -7 242 10 C 206 27 176 51 152 82 C 128 113 110 150 98 193 C 86 236 80 283 80 334 C 80 384 85 437 97 493 C 109 549 126 604 149 658 C 171 712 199 764 233 814 C 266 864 304 907 348 945 C 391 983 439 1013 493 1035 C 547 1057 605 1069 668 1069 C 744 1069 807 1051 855 1015 C 903 979 943 926 975 854 L 1022 1053 L 1081 1053 Z M 381 43 C 424 43 467 52 509 72 C 551 91 591 117 629 150 C 667 182 703 220 737 264 C 771 307 801 353 828 402 C 855 450 878 500 897 551 C 916 601 930 650 940 698 L 956 791 C 940 825 922 856 904 884 C 886 911 865 934 842 953 C 818 972 792 987 763 997 C 734 1007 701 1012 664 1012 C 610 1012 559 1001 513 981 C 466 960 424 932 386 898 C 348 863 314 823 285 777 C 255 731 231 684 211 634 C 191 584 175 534 165 484 C 155 434 150 386 150 342 C 150 296 155 255 165 219 C 175 182 191 151 211 125 C 231 99 255 78 284 64 C 312 50 345 43 381 43 Z M 520 1434 C 520 1462 525 1489 537 1514 C 548 1539 563 1561 583 1580 C 602 1599 625 1614 652 1625 C 678 1636 707 1642 737 1642 C 767 1642 795 1636 821 1625 C 847 1614 870 1599 890 1580 C 909 1561 924 1539 935 1514 C 946 1489 952 1462 952 1434 C 952 1405 946 1378 935 1353 C 924 1328 909 1306 890 1288 C 870 1270 847 1255 821 1245 C 795 1234 767 1229 737 1229 C 707 1229 678 1234 652 1245 C 625 1255 602 1270 583 1288 C 563 1306 548 1328 537 1353 C 525 1378 520 1405 520 1434 Z M 567 1434 C 567 1411 571 1390 580 1370 C 589 1350 601 1332 617 1318 C 632 1303 650 1291 671 1283 C 691 1274 713 1270 737 1270 C 760 1270 782 1274 803 1283 C 823 1291 841 1303 857 1318 C 872 1332 884 1350 893 1370 C 902 1390 907 1411 907 1434 C 907 1456 902 1478 893 1499 C 884 1519 872 1537 857 1552 C 841 1567 823 1579 803 1588 C 782 1597 760 1602 737 1602 C 713 1602 691 1597 671 1588 C 650 1579 632 1567 617 1552 C 601 1537 589 1519 580 1499 C 571 1478 567 1456 567 1434 Z" unicode="" />
<glyph horiz-adv-x="1892" d="M 668 1069 C 704 1069 738 1064 772 1055 C 805 1045 836 1031 865 1011 C 893 991 920 964 944 932 C 968 900 988 861 1006 815 C 1028 851 1054 885 1084 916 C 1114 947 1147 974 1184 997 C 1220 1019 1260 1037 1304 1050 C 1348 1062 1395 1069 1446 1069 C 1500 1069 1551 1060 1599 1044 C 1646 1028 1687 1004 1722 972 C 1756 940 1783 900 1803 852 C 1823 804 1833 748 1833 686 C 1833 660 1831 635 1828 611 C 1824 586 1819 559 1812 530 L 973 530 C 969 498 967 465 967 432 C 967 370 975 314 993 266 C 1011 218 1037 177 1071 143 C 1105 109 1146 84 1196 67 C 1246 49 1302 41 1366 41 C 1397 41 1426 43 1453 47 C 1480 51 1506 58 1531 66 C 1555 74 1579 83 1603 95 C 1627 106 1651 119 1677 133 L 1694 76 C 1641 44 1589 20 1537 5 C 1485 -10 1429 -18 1368 -18 C 1300 -18 1238 -9 1180 9 C 1122 27 1072 54 1030 91 C 988 127 955 174 931 230 C 907 286 895 352 895 428 C 864 368 830 311 793 257 C 755 203 715 156 672 116 C 628 75 581 43 531 19 C 481 -4 427 -16 371 -16 C 321 -16 278 -7 242 10 C 206 27 176 51 152 82 C 128 113 110 150 98 193 C 86 236 80 283 80 334 C 80 384 85 437 97 493 C 109 549 126 604 149 658 C 171 712 199 764 233 814 C 266 864 304 907 348 945 C 391 983 439 1013 493 1035 C 547 1057 605 1069 668 1069 Z M 381 43 C 421 43 461 50 499 66 C 537 82 574 103 609 131 C 644 158 677 190 708 227 C 738 264 767 304 793 346 C 819 388 843 431 865 477 C 886 523 904 568 920 614 L 967 754 C 939 839 901 903 851 947 C 801 990 738 1012 664 1012 C 610 1012 559 1001 513 981 C 466 960 424 932 386 898 C 348 863 314 823 285 777 C 255 731 231 684 211 634 C 191 584 175 534 165 484 C 155 434 150 386 150 342 C 150 296 155 255 165 219 C 175 182 191 151 211 125 C 231 99 255 78 284 64 C 312 50 345 43 381 43 Z M 1444 1012 C 1380 1012 1323 1000 1272 977 C 1221 953 1176 922 1138 883 C 1099 844 1067 799 1041 747 C 1015 695 995 642 983 586 L 1755 586 C 1757 598 1759 611 1761 625 C 1763 639 1765 661 1765 690 C 1765 738 1757 782 1742 822 C 1726 862 1705 896 1677 924 C 1649 952 1615 973 1576 989 C 1536 1004 1492 1012 1444 1012 Z" unicode="" />
<glyph horiz-adv-x="969" d="M 811 49 C 771 26 730 9 686 0 C 642 -10 594 -16 543 -16 C 534 -16 526 -16 519 -16 C 511 -16 504 -15 496 -14 L 489 -57 C 487 -66 488 -73 491 -79 C 494 -85 498 -90 502 -94 L 553 -145 C 558 -151 564 -158 571 -167 C 577 -175 583 -185 589 -196 C 595 -207 600 -219 604 -232 C 608 -245 610 -259 610 -274 C 610 -298 604 -321 594 -343 C 583 -365 568 -384 548 -400 C 528 -416 504 -428 476 -437 C 448 -446 416 -451 381 -451 C 347 -451 317 -447 291 -440 C 265 -433 242 -423 223 -410 L 242 -358 C 260 -371 282 -381 307 -387 C 332 -393 357 -397 383 -397 C 406 -397 428 -394 448 -388 C 468 -382 485 -374 500 -364 C 514 -353 526 -340 534 -326 C 542 -312 547 -296 547 -279 C 547 -267 545 -257 542 -247 C 538 -237 534 -229 529 -221 C 523 -213 518 -205 512 -199 C 506 -193 500 -187 496 -182 L 446 -131 C 440 -123 434 -115 430 -107 C 425 -98 424 -88 428 -76 L 442 -8 C 389 0 342 14 300 36 C 258 58 222 86 193 122 C 163 158 141 201 125 251 C 109 301 102 358 102 422 C 102 468 106 516 115 566 C 123 616 137 664 155 712 C 173 760 197 805 226 849 C 254 892 289 930 329 962 C 369 994 416 1020 468 1040 C 520 1059 579 1069 645 1069 C 703 1069 761 1060 818 1043 C 874 1026 927 999 977 961 L 948 903 C 910 936 863 962 809 981 C 754 1000 697 1010 639 1010 C 586 1010 538 1002 494 986 C 450 970 411 948 377 920 C 342 892 312 860 286 823 C 260 785 239 745 222 703 C 205 660 192 615 184 569 C 176 523 172 477 172 432 C 172 372 179 319 194 271 C 208 223 231 182 261 148 C 291 114 330 88 377 70 C 424 52 480 43 545 43 C 601 43 651 50 695 64 C 738 78 777 96 811 117 L 811 49 Z" unicode="" />
<glyph horiz-adv-x="1100" d="M 180 530 C 176 498 174 465 174 432 C 174 370 182 314 200 266 C 218 218 244 177 278 143 C 312 109 353 84 403 67 C 453 49 509 41 573 41 C 604 41 633 43 660 47 C 687 51 713 58 738 66 C 762 74 787 83 811 95 C 835 106 859 119 885 133 L 901 76 C 849 44 797 20 745 5 C 693 -10 635 -18 573 -18 C 505 -18 443 -9 386 8 C 328 26 279 53 237 89 C 195 125 162 171 138 227 C 114 282 102 347 102 422 C 102 470 107 520 117 571 C 127 622 143 672 163 720 C 183 768 209 813 240 855 C 270 897 306 934 347 966 C 388 998 434 1023 485 1041 C 535 1059 591 1069 653 1069 C 707 1069 758 1060 806 1044 C 853 1028 894 1004 929 972 C 963 940 990 900 1010 852 C 1030 804 1040 748 1040 686 C 1040 660 1038 635 1035 611 C 1032 586 1027 559 1020 530 L 180 530 Z M 651 1012 C 587 1012 530 1000 479 977 C 428 953 383 922 345 883 C 307 844 274 799 248 747 C 222 695 202 642 190 586 L 961 586 C 964 598 966 611 968 625 C 970 639 971 661 971 690 C 971 738 963 782 948 822 C 933 862 912 896 884 924 C 856 952 822 973 783 989 C 743 1004 699 1012 651 1012 Z M 551 1530 L 797 1255 L 793 1231 L 764 1231 L 480 1499 L 480 1530 L 551 1530 Z" unicode="" />
<glyph horiz-adv-x="1100" d="M 180 530 C 176 498 174 465 174 432 C 174 370 182 314 200 266 C 218 218 244 177 278 143 C 312 109 353 84 403 67 C 453 49 509 41 573 41 C 604 41 633 43 660 47 C 687 51 713 58 738 66 C 762 74 787 83 811 95 C 835 106 859 119 885 133 L 901 76 C 849 44 797 20 745 5 C 693 -10 635 -18 573 -18 C 505 -18 443 -9 386 8 C 328 26 279 53 237 89 C 195 125 162 171 138 227 C 114 282 102 347 102 422 C 102 470 107 520 117 571 C 127 622 143 672 163 720 C 183 768 209 813 240 855 C 270 897 306 934 347 966 C 388 998 434 1023 485 1041 C 535 1059 591 1069 653 1069 C 707 1069 758 1060 806 1044 C 853 1028 894 1004 929 972 C 963 940 990 900 1010 852 C 1030 804 1040 748 1040 686 C 1040 660 1038 635 1035 611 C 1032 586 1027 559 1020 530 L 180 530 Z M 651 1012 C 587 1012 530 1000 479 977 C 428 953 383 922 345 883 C 307 844 274 799 248 747 C 222 695 202 642 190 586 L 961 586 C 964 598 966 611 968 625 C 970 639 971 661 971 690 C 971 738 963 782 948 822 C 933 862 912 896 884 924 C 856 952 822 973 783 989 C 743 1004 699 1012 651 1012 Z M 955 1530 L 955 1499 L 670 1231 L 635 1231 L 639 1255 L 883 1530 L 955 1530 Z" unicode="" />
<glyph horiz-adv-x="1100" d="M 180 530 C 176 498 174 465 174 432 C 174 370 182 314 200 266 C 218 218 244 177 278 143 C 312 109 353 84 403 67 C 453 49 509 41 573 41 C 604 41 633 43 660 47 C 687 51 713 58 738 66 C 762 74 787 83 811 95 C 835 106 859 119 885 133 L 901 76 C 849 44 797 20 745 5 C 693 -10 635 -18 573 -18 C 505 -18 443 -9 386 8 C 328 26 279 53 237 89 C 195 125 162 171 138 227 C 114 282 102 347 102 422 C 102 470 107 520 117 571 C 127 622 143 672 163 720 C 183 768 209 813 240 855 C 270 897 306 934 347 966 C 388 998 434 1023 485 1041 C 535 1059 591 1069 653 1069 C 707 1069 758 1060 806 1044 C 853 1028 894 1004 929 972 C 963 940 990 900 1010 852 C 1030 804 1040 748 1040 686 C 1040 660 1038 635 1035 611 C 1032 586 1027 559 1020 530 L 180 530 Z M 651 1012 C 587 1012 530 1000 479 977 C 428 953 383 922 345 883 C 307 844 274 799 248 747 C 222 695 202 642 190 586 L 961 586 C 964 598 966 611 968 625 C 970 639 971 661 971 690 C 971 738 963 782 948 822 C 933 862 912 896 884 924 C 856 952 822 973 783 989 C 743 1004 699 1012 651 1012 Z M 805 1530 L 979 1253 L 975 1231 L 943 1231 L 773 1473 L 766 1473 L 500 1231 L 461 1231 L 465 1253 L 748 1530 L 805 1530 Z" unicode="" />
<glyph horiz-adv-x="1100" d="M 180 530 C 176 498 174 465 174 432 C 174 370 182 314 200 266 C 218 218 244 177 278 143 C 312 109 353 84 403 67 C 453 49 509 41 573 41 C 604 41 633 43 660 47 C 687 51 713 58 738 66 C 762 74 787 83 811 95 C 835 106 859 119 885 133 L 901 76 C 849 44 797 20 745 5 C 693 -10 635 -18 573 -18 C 505 -18 443 -9 386 8 C 328 26 279 53 237 89 C 195 125 162 171 138 227 C 114 282 102 347 102 422 C 102 470 107 520 117 571 C 127 622 143 672 163 720 C 183 768 209 813 240 855 C 270 897 306 934 347 966 C 388 998 434 1023 485 1041 C 535 1059 591 1069 653 1069 C 707 1069 758 1060 806 1044 C 853 1028 894 1004 929 972 C 963 940 990 900 1010 852 C 1030 804 1040 748 1040 686 C 1040 660 1038 635 1035 611 C 1032 586 1027 559 1020 530 L 180 530 Z M 651 1012 C 587 1012 530 1000 479 977 C 428 953 383 922 345 883 C 307 844 274 799 248 747 C 222 695 202 642 190 586 L 961 586 C 964 598 966 611 968 625 C 970 639 971 661 971 690 C 971 738 963 782 948 822 C 933 862 912 896 884 924 C 856 952 822 973 783 989 C 743 1004 699 1012 651 1012 Z M 580 1446 L 545 1272 L 469 1272 L 504 1446 L 580 1446 Z M 1008 1446 L 973 1272 L 900 1272 L 934 1446 L 1008 1446 Z" unicode="" />
<glyph horiz-adv-x="436" d="M 367 1053 L 164 0 L 96 0 L 299 1053 L 367 1053 Z M 207 1530 L 453 1255 L 449 1231 L 420 1231 L 136 1499 L 136 1530 L 207 1530 Z" unicode="" />
<glyph horiz-adv-x="436" d="M 367 1053 L 164 0 L 96 0 L 299 1053 L 367 1053 Z M 610 1530 L 610 1499 L 325 1231 L 290 1231 L 294 1255 L 538 1530 L 610 1530 Z" unicode="" />
<glyph horiz-adv-x="436" d="M 367 1053 L 164 0 L 96 0 L 299 1053 L 367 1053 Z M 460 1530 L 634 1253 L 630 1231 L 598 1231 L 428 1473 L 421 1473 L 155 1231 L 116 1231 L 120 1253 L 403 1530 L 460 1530 Z" unicode="" />
<glyph horiz-adv-x="436" d="M 367 1053 L 164 0 L 96 0 L 299 1053 L 367 1053 Z M 236 1446 L 201 1272 L 125 1272 L 160 1446 L 236 1446 Z M 664 1446 L 629 1272 L 556 1272 L 590 1446 L 664 1446 Z" unicode="" />
<glyph horiz-adv-x="1128" d="M 659 1386 C 639 1408 619 1429 599 1449 C 579 1469 558 1490 537 1511 L 602 1536 C 623 1515 644 1494 665 1473 C 685 1451 706 1429 727 1407 L 975 1479 L 967 1427 L 760 1368 C 802 1316 841 1263 877 1207 C 913 1151 944 1094 970 1034 C 996 974 1016 912 1031 848 C 1045 784 1053 719 1053 651 C 1053 600 1048 548 1038 496 C 1028 444 1014 393 995 343 C 975 293 951 247 921 203 C 891 159 857 121 817 89 C 777 57 732 31 682 12 C 632 -6 576 -16 516 -16 C 450 -16 392 -5 342 16 C 291 38 248 68 213 108 C 178 147 151 194 133 250 C 115 305 106 366 106 434 C 106 482 111 532 121 582 C 131 632 145 681 165 728 C 185 775 209 819 239 861 C 269 902 303 938 342 969 C 381 1000 425 1024 473 1042 C 521 1060 575 1069 633 1069 C 709 1069 775 1052 829 1020 C 883 987 925 934 956 862 C 933 955 899 1041 853 1121 C 807 1201 754 1276 694 1348 L 401 1264 L 410 1315 L 659 1386 Z M 981 616 C 981 670 974 720 960 768 C 946 816 925 857 897 893 C 868 929 832 957 789 978 C 745 999 694 1010 635 1010 C 583 1010 536 1001 494 985 C 452 969 414 947 380 919 C 346 891 316 858 290 821 C 264 783 243 743 226 701 C 209 658 196 614 188 569 C 180 523 176 479 176 436 C 176 383 182 333 196 285 C 209 237 230 196 258 160 C 286 124 321 95 365 74 C 408 53 460 43 520 43 C 571 43 618 51 661 67 C 703 83 742 106 776 134 C 810 162 839 194 865 232 C 891 270 912 310 929 352 C 946 394 959 438 968 483 C 976 528 981 572 981 616 Z" unicode="" />
<glyph horiz-adv-x="1124" d="M 297 1053 L 360 1053 L 297 721 C 323 773 352 820 385 863 C 418 906 454 943 494 973 C 534 1003 576 1027 622 1044 C 668 1060 716 1069 768 1069 C 812 1069 850 1062 883 1049 C 915 1035 943 1017 965 993 C 987 969 1003 941 1014 909 C 1024 876 1030 840 1030 801 C 1030 757 1026 713 1020 669 C 1013 624 1005 580 997 537 L 895 0 L 827 0 L 932 549 C 938 583 944 621 952 663 C 959 705 963 747 963 791 C 963 823 958 852 950 879 C 941 906 928 929 911 949 C 893 968 872 983 846 994 C 820 1004 789 1010 754 1010 C 694 1010 638 996 584 969 C 530 941 481 903 437 853 C 393 803 354 743 322 674 C 290 604 266 528 250 444 L 164 0 L 96 0 L 297 1053 Z M 508 1370 C 534 1395 557 1412 576 1421 C 595 1429 614 1434 633 1434 C 654 1434 673 1429 690 1421 C 707 1413 726 1398 748 1378 L 817 1315 C 829 1304 841 1295 853 1289 C 864 1283 876 1280 889 1280 C 902 1280 916 1283 931 1291 C 945 1299 964 1314 987 1337 L 1045 1393 L 1086 1366 L 1008 1288 C 982 1262 960 1245 940 1237 C 920 1229 901 1225 883 1225 C 862 1225 843 1229 826 1237 C 808 1245 789 1259 768 1280 L 701 1343 C 688 1353 675 1362 663 1368 C 651 1374 639 1378 627 1378 C 614 1378 600 1374 585 1366 C 570 1358 552 1343 531 1321 L 471 1266 L 430 1292 L 508 1370 Z" unicode="" />
<glyph horiz-adv-x="1126" d="M 641 1069 C 707 1069 766 1058 817 1036 C 867 1014 910 983 944 944 C 978 905 1004 858 1022 804 C 1040 749 1049 689 1049 625 C 1049 577 1044 529 1034 479 C 1024 429 1010 380 991 333 C 972 285 948 240 919 198 C 889 156 855 119 815 87 C 775 55 731 30 681 12 C 631 -6 576 -16 516 -16 C 449 -16 390 -5 339 17 C 288 39 245 69 211 109 C 176 148 150 195 132 249 C 114 303 106 363 106 428 C 106 475 110 524 120 574 C 130 624 144 672 164 720 C 183 767 207 812 237 854 C 266 896 300 933 340 965 C 380 997 425 1022 475 1041 C 525 1059 580 1069 641 1069 Z M 979 618 C 979 670 972 720 959 768 C 945 815 924 857 896 893 C 868 929 832 957 788 978 C 744 999 693 1010 633 1010 C 582 1010 535 1001 493 985 C 451 969 413 946 379 918 C 345 890 315 857 290 819 C 264 781 243 741 226 699 C 209 656 196 612 188 567 C 180 521 176 477 176 434 C 176 380 182 330 196 283 C 210 235 231 194 259 158 C 287 122 323 94 367 74 C 410 53 462 43 522 43 C 572 43 619 51 661 67 C 703 83 742 106 776 134 C 810 162 839 195 865 233 C 890 270 911 310 928 353 C 945 395 958 439 966 485 C 974 530 979 574 979 618 Z M 559 1530 L 805 1255 L 801 1231 L 772 1231 L 488 1499 L 488 1530 L 559 1530 Z" unicode="" />
<glyph horiz-adv-x="1126" d="M 641 1069 C 707 1069 766 1058 817 1036 C 867 1014 910 983 944 944 C 978 905 1004 858 1022 804 C 1040 749 1049 689 1049 625 C 1049 577 1044 529 1034 479 C 1024 429 1010 380 991 333 C 972 285 948 240 919 198 C 889 156 855 119 815 87 C 775 55 731 30 681 12 C 631 -6 576 -16 516 -16 C 449 -16 390 -5 339 17 C 288 39 245 69 211 109 C 176 148 150 195 132 249 C 114 303 106 363 106 428 C 106 475 110 524 120 574 C 130 624 144 672 164 720 C 183 767 207 812 237 854 C 266 896 300 933 340 965 C 380 997 425 1022 475 1041 C 525 1059 580 1069 641 1069 Z M 979 618 C 979 670 972 720 959 768 C 945 815 924 857 896 893 C 868 929 832 957 788 978 C 744 999 693 1010 633 1010 C 582 1010 535 1001 493 985 C 451 969 413 946 379 918 C 345 890 315 857 290 819 C 264 781 243 741 226 699 C 209 656 196 612 188 567 C 180 521 176 477 176 434 C 176 380 182 330 196 283 C 210 235 231 194 259 158 C 287 122 323 94 367 74 C 410 53 462 43 522 43 C 572 43 619 51 661 67 C 703 83 742 106 776 134 C 810 162 839 195 865 233 C 890 270 911 310 928 353 C 945 395 958 439 966 485 C 974 530 979 574 979 618 Z M 963 1530 L 963 1499 L 678 1231 L 643 1231 L 647 1255 L 891 1530 L 963 1530 Z" unicode="" />
<glyph horiz-adv-x="1126" d="M 641 1069 C 707 1069 766 1058 817 1036 C 867 1014 910 983 944 944 C 978 905 1004 858 1022 804 C 1040 749 1049 689 1049 625 C 1049 577 1044 529 1034 479 C 1024 429 1010 380 991 333 C 972 285 948 240 919 198 C 889 156 855 119 815 87 C 775 55 731 30 681 12 C 631 -6 576 -16 516 -16 C 449 -16 390 -5 339 17 C 288 39 245 69 211 109 C 176 148 150 195 132 249 C 114 303 106 363 106 428 C 106 475 110 524 120 574 C 130 624 144 672 164 720 C 183 767 207 812 237 854 C 266 896 300 933 340 965 C 380 997 425 1022 475 1041 C 525 1059 580 1069 641 1069 Z M 979 618 C 979 670 972 720 959 768 C 945 815 924 857 896 893 C 868 929 832 957 788 978 C 744 999 693 1010 633 1010 C 582 1010 535 1001 493 985 C 451 969 413 946 379 918 C 345 890 315 857 290 819 C 264 781 243 741 226 699 C 209 656 196 612 188 567 C 180 521 176 477 176 434 C 176 380 182 330 196 283 C 210 235 231 194 259 158 C 287 122 323 94 367 74 C 410 53 462 43 522 43 C 572 43 619 51 661 67 C 703 83 742 106 776 134 C 810 162 839 195 865 233 C 890 270 911 310 928 353 C 945 395 958 439 966 485 C 974 530 979 574 979 618 Z M 813 1530 L 987 1253 L 983 1231 L 951 1231 L 781 1473 L 774 1473 L 508 1231 L 469 1231 L 473 1253 L 756 1530 L 813 1530 Z" unicode="" />
<glyph horiz-adv-x="1126" d="M 641 1069 C 707 1069 766 1058 817 1036 C 867 1014 910 983 944 944 C 978 905 1004 858 1022 804 C 1040 749 1049 689 1049 625 C 1049 577 1044 529 1034 479 C 1024 429 1010 380 991 333 C 972 285 948 240 919 198 C 889 156 855 119 815 87 C 775 55 731 30 681 12 C 631 -6 576 -16 516 -16 C 449 -16 390 -5 339 17 C 288 39 245 69 211 109 C 176 148 150 195 132 249 C 114 303 106 363 106 428 C 106 475 110 524 120 574 C 130 624 144 672 164 720 C 183 767 207 812 237 854 C 266 896 300 933 340 965 C 380 997 425 1022 475 1041 C 525 1059 580 1069 641 1069 Z M 979 618 C 979 670 972 720 959 768 C 945 815 924 857 896 893 C 868 929 832 957 788 978 C 744 999 693 1010 633 1010 C 582 1010 535 1001 493 985 C 451 969 413 946 379 918 C 345 890 315 857 290 819 C 264 781 243 741 226 699 C 209 656 196 612 188 567 C 180 521 176 477 176 434 C 176 380 182 330 196 283 C 210 235 231 194 259 158 C 287 122 323 94 367 74 C 410 53 462 43 522 43 C 572 43 619 51 661 67 C 703 83 742 106 776 134 C 810 162 839 195 865 233 C 890 270 911 310 928 353 C 945 395 958 439 966 485 C 974 530 979 574 979 618 Z M 506 1370 C 532 1395 555 1412 574 1421 C 593 1429 612 1434 631 1434 C 652 1434 671 1429 688 1421 C 705 1413 724 1398 746 1378 L 815 1315 C 827 1304 839 1295 851 1289 C 862 1283 874 1280 887 1280 C 900 1280 914 1283 929 1291 C 943 1299 962 1314 985 1337 L 1043 1393 L 1084 1366 L 1006 1288 C 980 1262 958 1245 938 1237 C 918 1229 899 1225 881 1225 C 860 1225 841 1229 824 1237 C 806 1245 787 1259 766 1280 L 699 1343 C 686 1353 673 1362 661 1368 C 649 1374 637 1378 625 1378 C 612 1378 598 1374 583 1366 C 568 1358 550 1343 529 1321 L 469 1266 L 428 1292 L 506 1370 Z" unicode="" />
<glyph horiz-adv-x="1126" d="M 641 1069 C 707 1069 766 1058 817 1036 C 867 1014 910 983 944 944 C 978 905 1004 858 1022 804 C 1040 749 1049 689 1049 625 C 1049 577 1044 529 1034 479 C 1024 429 1010 380 991 333 C 972 285 948 240 919 198 C 889 156 855 119 815 87 C 775 55 731 30 681 12 C 631 -6 576 -16 516 -16 C 449 -16 390 -5 339 17 C 288 39 245 69 211 109 C 176 148 150 195 132 249 C 114 303 106 363 106 428 C 106 475 110 524 120 574 C 130 624 144 672 164 720 C 183 767 207 812 237 854 C 266 896 300 933 340 965 C 380 997 425 1022 475 1041 C 525 1059 580 1069 641 1069 Z M 979 618 C 979 670 972 720 959 768 C 945 815 924 857 896 893 C 868 929 832 957 788 978 C 744 999 693 1010 633 1010 C 582 1010 535 1001 493 985 C 451 969 413 946 379 918 C 345 890 315 857 290 819 C 264 781 243 741 226 699 C 209 656 196 612 188 567 C 180 521 176 477 176 434 C 176 380 182 330 196 283 C 210 235 231 194 259 158 C 287 122 323 94 367 74 C 410 53 462 43 522 43 C 572 43 619 51 661 67 C 703 83 742 106 776 134 C 810 162 839 195 865 233 C 890 270 911 310 928 353 C 945 395 958 439 966 485 C 974 530 979 574 979 618 Z M 588 1446 L 553 1272 L 477 1272 L 512 1446 L 588 1446 Z M 1016 1446 L 981 1272 L 908 1272 L 942 1446 L 1016 1446 Z" unicode="" />
<glyph horiz-adv-x="1167" d="M 1061 602 L 1061 541 L 106 541 L 106 602 L 1061 602 Z M 629 213 L 629 0 L 541 0 L 541 213 L 629 213 Z M 629 1141 L 629 926 L 541 926 L 541 1141 L 629 1141 Z" unicode="" />
<glyph horiz-adv-x="1126" d="M 1057 1171 L 918 971 C 961 931 994 882 1016 823 C 1038 763 1049 697 1049 625 C 1049 577 1044 529 1034 479 C 1024 429 1010 380 991 333 C 972 285 948 240 919 198 C 889 156 855 119 815 87 C 775 55 731 30 681 12 C 631 -6 576 -16 516 -16 C 421 -16 342 5 279 49 L 150 -137 L 90 -137 L 240 78 C 196 118 162 167 140 227 C 117 287 106 354 106 428 C 106 475 110 524 120 574 C 130 624 144 672 164 720 C 183 767 207 812 237 854 C 266 896 300 933 340 965 C 380 997 425 1022 475 1041 C 525 1059 580 1069 641 1069 C 689 1069 732 1063 772 1051 C 812 1039 847 1022 879 1001 L 997 1171 L 1057 1171 Z M 633 1010 C 582 1010 535 1001 493 985 C 451 969 413 946 379 918 C 345 890 315 857 290 819 C 264 781 243 741 226 699 C 209 656 196 612 188 567 C 180 521 176 477 176 434 C 176 374 184 318 201 266 C 218 214 245 171 281 135 L 842 946 C 814 965 783 980 749 992 C 715 1004 676 1010 633 1010 Z M 979 618 C 979 676 970 730 954 781 C 938 832 913 876 879 913 L 317 102 C 343 84 372 69 406 59 C 440 48 478 43 522 43 C 572 43 619 51 661 67 C 703 83 742 106 776 134 C 810 162 839 195 865 233 C 890 270 911 310 928 353 C 945 395 958 439 966 485 C 974 530 979 574 979 618 Z" unicode="" />
<glyph horiz-adv-x="1124" d="M 883 416 C 857 362 827 309 792 257 C 757 205 718 158 676 118 C 634 78 588 45 539 21 C 490 -3 439 -16 385 -16 C 343 -16 306 -9 275 3 C 243 16 217 34 197 58 C 176 82 160 110 150 143 C 140 176 135 212 135 252 C 135 295 138 339 145 384 C 152 428 160 472 168 516 L 270 1053 L 338 1053 L 233 504 C 227 468 220 430 213 389 C 206 347 203 305 203 262 C 203 230 207 200 215 173 C 223 146 235 123 251 104 C 267 84 287 69 312 59 C 336 48 365 43 399 43 C 440 43 480 51 520 68 C 560 85 597 109 633 139 C 669 169 702 204 733 245 C 764 286 792 331 818 379 C 844 427 866 477 885 531 C 903 584 918 638 930 692 L 1001 1053 L 1069 1053 L 866 0 L 801 0 L 883 416 Z M 534 1530 L 780 1255 L 776 1231 L 747 1231 L 463 1499 L 463 1530 L 534 1530 Z" unicode="" />
<glyph horiz-adv-x="1124" d="M 883 416 C 857 362 827 309 792 257 C 757 205 718 158 676 118 C 634 78 588 45 539 21 C 490 -3 439 -16 385 -16 C 343 -16 306 -9 275 3 C 243 16 217 34 197 58 C 176 82 160 110 150 143 C 140 176 135 212 135 252 C 135 295 138 339 145 384 C 152 428 160 472 168 516 L 270 1053 L 338 1053 L 233 504 C 227 468 220 430 213 389 C 206 347 203 305 203 262 C 203 230 207 200 215 173 C 223 146 235 123 251 104 C 267 84 287 69 312 59 C 336 48 365 43 399 43 C 440 43 480 51 520 68 C 560 85 597 109 633 139 C 669 169 702 204 733 245 C 764 286 792 331 818 379 C 844 427 866 477 885 531 C 903 584 918 638 930 692 L 1001 1053 L 1069 1053 L 866 0 L 801 0 L 883 416 Z M 938 1530 L 938 1499 L 653 1231 L 618 1231 L 622 1255 L 866 1530 L 938 1530 Z" unicode="" />
<glyph horiz-adv-x="1124" d="M 883 416 C 857 362 827 309 792 257 C 757 205 718 158 676 118 C 634 78 588 45 539 21 C 490 -3 439 -16 385 -16 C 343 -16 306 -9 275 3 C 243 16 217 34 197 58 C 176 82 160 110 150 143 C 140 176 135 212 135 252 C 135 295 138 339 145 384 C 152 428 160 472 168 516 L 270 1053 L 338 1053 L 233 504 C 227 468 220 430 213 389 C 206 347 203 305 203 262 C 203 230 207 200 215 173 C 223 146 235 123 251 104 C 267 84 287 69 312 59 C 336 48 365 43 399 43 C 440 43 480 51 520 68 C 560 85 597 109 633 139 C 669 169 702 204 733 245 C 764 286 792 331 818 379 C 844 427 866 477 885 531 C 903 584 918 638 930 692 L 1001 1053 L 1069 1053 L 866 0 L 801 0 L 883 416 Z M 788 1530 L 962 1253 L 958 1231 L 926 1231 L 756 1473 L 749 1473 L 483 1231 L 444 1231 L 448 1253 L 731 1530 L 788 1530 Z" unicode="" />
<glyph horiz-adv-x="1124" d="M 883 416 C 857 362 827 309 792 257 C 757 205 718 158 676 118 C 634 78 588 45 539 21 C 490 -3 439 -16 385 -16 C 343 -16 306 -9 275 3 C 243 16 217 34 197 58 C 176 82 160 110 150 143 C 140 176 135 212 135 252 C 135 295 138 339 145 384 C 152 428 160 472 168 516 L 270 1053 L 338 1053 L 233 504 C 227 468 220 430 213 389 C 206 347 203 305 203 262 C 203 230 207 200 215 173 C 223 146 235 123 251 104 C 267 84 287 69 312 59 C 336 48 365 43 399 43 C 440 43 480 51 520 68 C 560 85 597 109 633 139 C 669 169 702 204 733 245 C 764 286 792 331 818 379 C 844 427 866 477 885 531 C 903 584 918 638 930 692 L 1001 1053 L 1069 1053 L 866 0 L 801 0 L 883 416 Z M 563 1446 L 528 1272 L 452 1272 L 487 1446 L 563 1446 Z M 991 1446 L 956 1272 L 883 1272 L 917 1446 L 991 1446 Z" unicode="" />
<glyph horiz-adv-x="905" d="M 193 1053 L 360 133 L 369 63 L 375 63 L 401 117 L 926 1053 L 1008 1053 L 322 -145 C 294 -192 268 -235 243 -273 C 217 -311 191 -343 164 -370 C 137 -397 108 -418 78 -433 C 47 -447 13 -455 -25 -455 C -32 -455 -39 -454 -46 -454 C -53 -454 -61 -453 -70 -451 L -59 -395 C -51 -396 -46 -397 -43 -397 C -39 -397 -36 -397 -33 -397 C 1 -397 31 -390 58 -377 C 84 -363 109 -345 131 -323 C 153 -300 174 -273 194 -243 C 213 -213 232 -181 252 -147 L 322 -23 L 121 1053 L 193 1053 Z M 803 1530 L 803 1499 L 518 1231 L 483 1231 L 487 1255 L 731 1530 L 803 1530 Z" unicode="" />
<glyph horiz-adv-x="1139" d="M 4 -451 L 383 1507 L 453 1507 L 301 735 C 325 784 354 829 387 870 C 420 911 456 946 496 976 C 535 1005 577 1028 621 1044 C 665 1060 711 1069 758 1069 C 816 1069 866 1058 908 1038 C 949 1018 983 990 1009 955 C 1035 920 1053 879 1065 832 C 1077 784 1083 734 1083 680 C 1083 631 1078 580 1070 527 C 1061 474 1047 422 1029 370 C 1010 318 986 269 958 223 C 930 176 896 135 856 100 C 816 64 771 36 721 15 C 670 -5 613 -16 551 -16 C 508 -16 469 -10 434 0 C 399 11 367 27 339 48 C 310 68 284 93 262 123 C 240 153 220 186 203 223 L 74 -451 L 4 -451 Z M 737 1010 C 683 1010 631 995 579 967 C 527 939 479 901 435 853 C 391 805 353 749 321 685 C 289 621 266 555 254 485 L 215 289 C 231 253 250 219 272 189 C 293 159 317 133 344 111 C 371 89 401 71 435 59 C 468 47 505 41 547 41 C 601 41 651 50 696 70 C 740 90 780 116 815 149 C 849 182 879 220 904 264 C 929 307 950 352 966 400 C 982 447 994 495 1002 543 C 1010 591 1014 636 1014 680 C 1014 726 1008 769 998 809 C 988 849 971 884 949 914 C 927 944 898 967 863 984 C 828 1001 786 1010 737 1010 Z" unicode="" />
<glyph horiz-adv-x="905" d="M 193 1053 L 360 133 L 369 63 L 375 63 L 401 117 L 926 1053 L 1008 1053 L 322 -145 C 294 -192 268 -235 243 -273 C 217 -311 191 -343 164 -370 C 137 -397 108 -418 78 -433 C 47 -447 13 -455 -25 -455 C -32 -455 -39 -454 -46 -454 C -53 -454 -61 -453 -70 -451 L -59 -395 C -51 -396 -46 -397 -43 -397 C -39 -397 -36 -397 -33 -397 C 1 -397 31 -390 58 -377 C 84 -363 109 -345 131 -323 C 153 -300 174 -273 194 -243 C 213 -213 232 -181 252 -147 L 322 -23 L 121 1053 L 193 1053 Z M 428 1446 L 393 1272 L 317 1272 L 352 1446 L 428 1446 Z M 856 1446 L 821 1272 L 748 1272 L 782 1446 L 856 1446 Z" unicode="" />
<glyph horiz-adv-x="436" d="M 367 1053 L 164 0 L 96 0 L 299 1053 L 367 1053 Z" unicode="" />
<glyph horiz-adv-x="1108" d="M 76 555 L 295 696 L 440 1446 L 512 1446 L 377 752 L 848 1059 L 836 987 L 362 680 L 244 59 L 1012 59 L 999 0 L 160 0 L 281 625 L 63 483 L 76 555 Z" unicode="" />
<glyph horiz-adv-x="504" d="M 94 631 L 272 748 L 420 1507 L 487 1507 L 348 797 L 526 913 L 512 838 L 334 719 L 195 0 L 127 0 L 256 668 L 82 553 L 94 631 Z" unicode="" />
<glyph horiz-adv-x="2460" d="M 1489 784 L 2267 784 L 2257 725 L 1477 725 L 1350 59 L 2238 59 L 2228 0 L 1266 0 L 1333 358 C 1307 302 1275 250 1237 204 C 1198 158 1153 118 1103 85 C 1052 51 996 25 934 7 C 872 -10 805 -20 733 -20 C 641 -20 559 -5 487 23 C 415 52 354 93 304 147 C 254 200 215 264 189 340 C 163 415 150 499 150 592 C 150 660 156 730 170 800 C 183 870 203 937 230 1002 C 257 1067 291 1128 332 1184 C 373 1240 421 1290 477 1332 C 532 1374 595 1407 665 1431 C 735 1455 813 1468 899 1468 C 979 1468 1051 1456 1116 1432 C 1181 1408 1237 1374 1285 1330 C 1332 1286 1370 1232 1398 1168 C 1426 1104 1444 1033 1450 954 L 1546 1446 L 2488 1446 L 2476 1386 L 1606 1386 L 1489 784 Z M 1411 846 C 1411 926 1400 1000 1378 1068 C 1356 1136 1324 1196 1281 1247 C 1238 1297 1184 1337 1120 1366 C 1055 1394 979 1409 893 1409 C 817 1409 748 1398 686 1376 C 624 1354 568 1323 518 1285 C 468 1246 425 1201 388 1149 C 351 1097 320 1041 296 981 C 272 921 253 858 241 793 C 229 728 223 664 223 600 C 223 520 233 445 255 377 C 276 309 308 250 351 200 C 394 150 448 110 513 82 C 577 53 653 39 741 39 C 816 39 885 50 948 72 C 1010 94 1066 124 1116 163 C 1165 201 1208 247 1245 299 C 1282 351 1313 406 1338 466 C 1362 526 1381 588 1393 653 C 1405 717 1411 782 1411 846 Z" unicode="" />
<glyph horiz-adv-x="1964" d="M 1042 530 C 1038 498 1036 465 1036 432 C 1036 370 1045 314 1063 266 C 1081 218 1107 177 1141 143 C 1175 109 1218 84 1268 67 C 1318 49 1374 41 1438 41 C 1468 41 1497 43 1524 47 C 1551 51 1577 58 1602 66 C 1627 74 1651 83 1675 95 C 1699 106 1723 119 1749 133 L 1765 76 C 1713 44 1661 20 1609 5 C 1557 -10 1500 -18 1438 -18 C 1378 -18 1323 -11 1271 2 C 1219 16 1173 37 1133 65 C 1093 93 1059 129 1033 173 C 1007 217 989 268 981 328 C 962 281 938 237 910 195 C 882 153 848 117 810 86 C 771 54 727 29 678 11 C 629 -6 575 -16 516 -16 C 449 -16 390 -5 339 17 C 288 39 245 69 211 109 C 176 148 150 195 132 249 C 114 303 106 363 106 428 C 106 475 110 524 120 574 C 130 624 144 672 164 720 C 183 767 207 812 237 854 C 266 896 300 933 340 965 C 380 997 425 1022 475 1041 C 525 1059 580 1069 641 1069 C 698 1069 749 1060 795 1043 C 841 1026 880 1002 913 972 C 946 941 973 904 993 861 C 1013 817 1027 769 1034 717 C 1052 764 1077 809 1107 852 C 1137 894 1172 932 1212 964 C 1252 996 1298 1021 1349 1040 C 1400 1059 1456 1069 1518 1069 C 1572 1069 1622 1060 1669 1044 C 1716 1028 1757 1004 1792 972 C 1826 940 1853 900 1873 852 C 1893 804 1903 748 1903 686 C 1903 660 1901 635 1898 611 C 1894 586 1889 559 1882 530 L 1042 530 Z M 979 618 C 979 670 972 720 959 768 C 945 815 924 857 896 893 C 868 929 832 957 788 978 C 744 999 693 1010 633 1010 C 582 1010 535 1001 493 985 C 451 969 413 946 379 918 C 345 890 315 857 290 819 C 264 781 243 741 226 699 C 209 656 196 612 188 567 C 180 521 176 477 176 434 C 176 380 182 330 196 283 C 210 235 231 194 259 158 C 287 122 323 94 367 74 C 410 53 462 43 522 43 C 572 43 619 51 661 67 C 703 83 742 106 776 134 C 810 162 839 195 865 233 C 890 270 911 310 928 353 C 945 395 958 439 966 485 C 974 530 979 574 979 618 Z M 1513 1012 C 1451 1012 1394 1000 1343 977 C 1292 953 1247 922 1209 883 C 1170 844 1137 799 1111 747 C 1085 695 1065 642 1053 586 L 1825 586 C 1828 598 1830 611 1832 625 C 1834 639 1835 661 1835 690 C 1835 738 1827 782 1812 822 C 1796 862 1775 896 1747 924 C 1719 952 1685 973 1645 989 C 1605 1004 1561 1012 1513 1012 Z" unicode="" />
<glyph horiz-adv-x="1174" d="M 1114 1274 C 1056 1319 992 1353 924 1375 C 855 1397 785 1409 713 1409 C 666 1409 620 1403 575 1393 C 530 1383 490 1366 455 1343 C 420 1319 392 1289 370 1251 C 348 1213 338 1167 338 1112 C 338 1061 347 1018 365 984 C 383 950 407 920 437 896 C 467 872 501 851 539 833 C 577 815 617 798 657 780 C 711 756 761 732 809 708 C 857 683 898 655 933 623 C 968 591 996 554 1016 512 C 1036 470 1047 420 1047 362 C 1047 300 1035 244 1012 196 C 988 147 955 106 912 72 C 868 38 816 13 755 -4 C 693 -22 625 -31 549 -31 C 512 -31 473 -28 432 -24 C 391 -19 350 -11 308 0 C 266 12 224 28 183 48 C 141 68 102 93 66 123 L 92 180 C 124 151 159 127 199 108 C 238 88 278 73 319 61 C 360 49 400 41 440 36 C 480 31 517 29 551 29 C 603 29 655 34 706 46 C 756 58 801 76 841 102 C 880 128 912 161 936 202 C 960 242 973 292 973 350 C 973 402 963 447 944 485 C 924 523 898 556 866 585 C 834 614 797 639 755 661 C 713 682 669 702 625 721 C 579 739 535 759 492 780 C 448 800 410 825 376 853 C 342 881 315 916 295 956 C 274 996 264 1044 264 1102 C 264 1162 275 1216 298 1262 C 321 1308 353 1346 393 1376 C 433 1406 480 1429 534 1445 C 588 1460 647 1468 711 1468 C 779 1468 850 1457 922 1437 C 994 1417 1067 1381 1141 1331 L 1114 1274 Z M 742 1604 L 565 1880 L 569 1903 L 602 1903 L 774 1661 L 778 1661 L 1045 1903 L 1086 1903 L 1079 1880 L 799 1604 L 742 1604 Z" unicode="" />
<glyph horiz-adv-x="879" d="M 43 152 C 93 110 149 79 211 57 C 273 35 334 25 395 25 C 435 25 473 29 509 39 C 545 48 576 62 603 82 C 630 102 652 126 668 156 C 684 185 692 220 692 260 C 692 295 685 325 672 350 C 658 375 640 397 616 417 C 592 436 562 454 528 471 C 494 488 456 506 414 526 C 384 540 355 556 327 572 C 299 588 275 606 254 628 C 232 649 215 674 203 703 C 190 731 184 765 184 805 C 184 849 192 888 209 921 C 225 954 248 982 277 1004 C 305 1026 339 1042 378 1053 C 416 1063 458 1069 502 1069 C 528 1069 556 1066 586 1062 C 616 1058 645 1051 675 1041 C 704 1031 733 1019 762 1004 C 790 989 818 971 844 950 L 817 893 C 775 930 728 959 674 981 C 620 1003 564 1014 504 1014 C 473 1014 443 1010 413 1003 C 383 996 356 985 332 970 C 308 954 288 934 274 908 C 259 882 252 851 252 815 C 252 784 257 757 268 733 C 279 709 294 688 314 669 C 334 650 357 633 385 617 C 413 601 443 585 477 569 C 511 553 544 537 578 521 C 612 505 642 485 669 463 C 696 441 718 414 735 383 C 751 352 760 314 760 268 C 760 220 750 178 732 141 C 713 103 687 72 655 47 C 622 21 583 2 539 -11 C 495 -24 447 -31 395 -31 C 365 -31 333 -28 301 -24 C 268 -19 235 -11 203 -1 C 170 8 138 22 107 38 C 75 54 46 73 18 96 L 43 152 Z M 562 1231 L 385 1507 L 389 1530 L 422 1530 L 594 1288 L 598 1288 L 865 1530 L 906 1530 L 899 1507 L 619 1231 L 562 1231 Z" unicode="" />
<glyph horiz-adv-x="1112" d="M 295 1446 L 582 604 L 1196 1446 L 1282 1446 L 604 537 L 502 0 L 430 0 L 532 537 L 213 1446 L 295 1446 Z M 639 1819 L 604 1645 L 528 1645 L 563 1819 L 639 1819 Z M 1067 1819 L 1032 1645 L 959 1645 L 993 1819 L 1067 1819 Z" unicode="" />
<glyph horiz-adv-x="1284" d="M 1335 1446 L 1325 1393 L 106 59 L 1077 59 L 1065 0 L 0 0 L 10 53 L 1229 1386 L 342 1386 L 352 1446 L 1335 1446 Z M 775 1604 L 598 1880 L 602 1903 L 635 1903 L 807 1661 L 811 1661 L 1078 1903 L 1119 1903 L 1112 1880 L 832 1604 L 775 1604 Z" unicode="" />
<glyph horiz-adv-x="905" d="M 936 1053 L 930 1008 L 80 53 L 760 53 L 750 0 L -12 0 L -4 47 L 842 999 L 229 999 L 238 1053 L 936 1053 Z M 592 1231 L 415 1507 L 419 1530 L 452 1530 L 624 1288 L 628 1288 L 895 1530 L 936 1530 L 929 1507 L 649 1231 L 592 1231 Z" unicode="" />
<glyph horiz-adv-x="1237" d="M 725 713 L 479 -168 C 448 -277 405 -356 351 -405 C 296 -454 227 -479 143 -479 C 127 -479 114 -478 104 -477 C 94 -475 85 -474 78 -473 L 90 -416 C 104 -420 124 -422 150 -422 C 218 -422 272 -401 312 -359 C 352 -317 384 -254 408 -170 L 655 713 L 360 713 L 371 768 L 670 768 L 776 1143 C 792 1199 810 1246 832 1286 C 853 1326 877 1358 904 1383 C 931 1407 961 1425 995 1437 C 1029 1448 1066 1454 1108 1454 C 1126 1454 1143 1453 1157 1451 C 1171 1449 1182 1446 1190 1442 L 1165 1389 C 1155 1392 1144 1394 1134 1395 C 1124 1396 1114 1397 1104 1397 C 1040 1397 988 1377 946 1338 C 904 1299 871 1235 846 1147 L 739 768 L 1085 768 L 1075 713 L 725 713 Z" unicode="" />
<glyph horiz-adv-x="504" d="M 215 954 L 532 1446 L 598 1446 L 303 954 L 215 954 Z" unicode="" />
<glyph horiz-adv-x="840" d="M 653 1530 L 827 1253 L 823 1231 L 791 1231 L 621 1473 L 614 1473 L 348 1231 L 309 1231 L 313 1253 L 596 1530 L 653 1530 Z" unicode="" />
<glyph horiz-adv-x="840" d="M 535 1231 L 358 1507 L 362 1530 L 395 1530 L 567 1288 L 571 1288 L 838 1530 L 879 1530 L 872 1507 L 592 1231 L 535 1231 Z" unicode="" />
<glyph horiz-adv-x="840" d="M 850 1343 L 838 1286 L 326 1286 L 338 1343 L 850 1343 Z" unicode="" />
<glyph horiz-adv-x="840" d="M 403 1530 C 399 1513 396 1497 395 1482 C 393 1467 393 1453 393 1440 C 393 1385 407 1342 435 1312 C 463 1281 508 1266 569 1266 C 608 1266 643 1272 674 1285 C 705 1297 732 1315 755 1338 C 777 1361 795 1389 809 1422 C 823 1454 832 1490 838 1530 L 889 1530 C 883 1481 871 1437 853 1398 C 835 1359 813 1326 785 1299 C 757 1271 724 1250 686 1236 C 648 1221 607 1214 563 1214 C 491 1214 435 1232 397 1270 C 359 1308 340 1361 340 1430 C 340 1459 344 1492 352 1530 L 403 1530 Z" unicode="" />
<glyph horiz-adv-x="840" d="M 645 1446 L 610 1260 L 532 1260 L 567 1446 L 645 1446 Z" unicode="" />
<glyph horiz-adv-x="840" d="M 375 1434 C 375 1462 380 1489 392 1514 C 403 1539 418 1561 438 1580 C 457 1599 480 1614 507 1625 C 533 1636 562 1642 592 1642 C 622 1642 650 1636 676 1625 C 702 1614 725 1599 745 1580 C 764 1561 779 1539 790 1514 C 801 1489 807 1462 807 1434 C 807 1405 801 1378 790 1353 C 779 1328 764 1306 745 1288 C 725 1270 702 1255 676 1245 C 650 1234 622 1229 592 1229 C 562 1229 533 1234 507 1245 C 480 1255 457 1270 438 1288 C 418 1306 403 1328 392 1353 C 380 1378 375 1405 375 1434 Z M 422 1434 C 422 1411 426 1390 435 1370 C 444 1350 456 1332 472 1318 C 487 1303 505 1291 526 1283 C 546 1274 568 1270 592 1270 C 615 1270 637 1274 658 1283 C 678 1291 696 1303 712 1318 C 727 1332 739 1350 748 1370 C 757 1390 762 1411 762 1434 C 762 1456 757 1478 748 1499 C 739 1519 727 1537 712 1552 C 696 1567 678 1579 658 1588 C 637 1597 615 1602 592 1602 C 568 1602 546 1597 526 1588 C 505 1579 487 1567 472 1552 C 456 1537 444 1519 435 1499 C 426 1478 422 1456 422 1434 Z" unicode="" />
<glyph horiz-adv-x="840" d="M 567 2 L 567 -2 L 420 -104 C 392 -122 368 -138 348 -153 C 328 -167 311 -182 298 -196 C 285 -210 275 -225 269 -240 C 263 -254 260 -271 260 -289 C 260 -327 271 -354 294 -371 C 317 -388 349 -397 389 -397 C 410 -397 432 -394 454 -390 C 476 -386 497 -381 516 -375 L 516 -426 C 498 -433 477 -439 452 -444 C 427 -448 402 -451 377 -451 C 322 -451 279 -437 247 -411 C 215 -384 199 -347 199 -299 C 199 -275 202 -254 210 -234 C 217 -214 228 -194 244 -176 C 260 -157 280 -138 305 -120 C 329 -102 359 -82 393 -61 L 494 2 L 567 2 Z" unicode="" />
<glyph horiz-adv-x="840" d="M 346 1370 C 372 1395 395 1412 414 1421 C 433 1429 452 1434 471 1434 C 492 1434 511 1429 528 1421 C 545 1413 564 1398 586 1378 L 655 1315 C 667 1304 679 1295 691 1289 C 702 1283 714 1280 727 1280 C 740 1280 754 1283 769 1291 C 783 1299 802 1314 825 1337 L 883 1393 L 924 1366 L 846 1288 C 820 1262 798 1245 778 1237 C 758 1229 739 1225 721 1225 C 700 1225 681 1229 664 1237 C 646 1245 627 1259 606 1280 L 539 1343 C 526 1353 513 1362 501 1368 C 489 1374 477 1378 465 1378 C 452 1378 438 1374 423 1366 C 408 1358 390 1343 369 1321 L 309 1266 L 268 1292 L 346 1370 Z" unicode="" />
<glyph horiz-adv-x="840" d="M 412 1231 L 381 1231 L 383 1255 L 569 1530 L 633 1530 L 629 1499 L 412 1231 Z M 719 1231 L 686 1231 L 690 1255 L 883 1530 L 944 1530 L 942 1499 L 719 1231 Z" unicode="" />
<glyph horiz-adv-x="1311" d="M 897 1446 L 1133 59 L 1120 0 L 8 0 L 20 57 L 795 1446 L 897 1446 Z M 793 1300 L 100 61 L 1061 61 L 854 1300 L 842 1382 L 836 1382 L 793 1300 Z" unicode="" />
<glyph horiz-adv-x="1575" d="M 88 61 L 444 61 L 444 68 C 400 107 361 147 325 188 C 289 228 258 272 232 318 C 206 364 185 415 171 469 C 157 523 150 584 150 651 C 150 715 157 780 171 846 C 185 911 206 974 234 1035 C 262 1095 296 1152 338 1205 C 380 1257 428 1303 483 1342 C 537 1381 598 1412 666 1434 C 734 1456 808 1468 889 1468 C 977 1468 1056 1454 1128 1426 C 1200 1398 1261 1357 1312 1303 C 1363 1249 1403 1182 1431 1102 C 1459 1022 1473 931 1473 829 C 1473 739 1462 656 1440 582 C 1418 508 1387 440 1345 378 C 1303 316 1252 260 1192 209 C 1132 158 1063 111 985 68 L 985 61 L 1346 61 L 1333 0 L 829 0 L 840 47 C 924 80 1001 121 1070 171 C 1139 220 1198 277 1247 343 C 1296 408 1334 481 1361 562 C 1387 643 1401 732 1401 829 C 1401 917 1389 997 1366 1069 C 1343 1141 1310 1202 1266 1252 C 1222 1302 1169 1341 1106 1368 C 1042 1395 970 1409 889 1409 C 817 1409 751 1398 691 1378 C 630 1357 575 1329 526 1293 C 476 1257 433 1214 395 1166 C 357 1117 326 1064 300 1008 C 274 951 255 892 242 830 C 229 768 223 707 223 645 C 223 572 231 506 249 448 C 266 389 290 336 320 288 C 350 240 385 196 427 157 C 468 118 513 82 561 49 L 551 0 L 76 0 L 88 61 Z" unicode="" />
<glyph horiz-adv-x="1202" d="M 301 1053 L 369 1053 L 262 485 C 254 449 248 411 242 373 C 236 335 233 297 233 260 C 233 228 237 199 245 173 C 253 147 265 124 281 105 C 297 85 318 70 343 59 C 368 48 398 43 432 43 C 473 43 513 51 553 69 C 592 86 629 110 665 140 C 701 170 734 206 765 247 C 796 288 824 332 850 380 C 876 428 898 478 917 530 C 935 582 950 634 961 686 L 1032 1053 L 1100 1053 L 897 0 L 831 0 L 913 416 C 887 360 857 306 822 254 C 786 202 747 156 705 116 C 662 76 616 44 568 20 C 520 -4 470 -16 418 -16 C 391 -16 365 -12 341 -5 C 316 2 294 13 275 28 C 255 43 239 62 226 86 C 212 110 203 138 199 170 L 190 166 L 166 10 L 78 -451 L 8 -451 L 301 1053 Z" unicode="" />
<glyph horiz-adv-x="1214" d="M 950 985 L 457 985 L 266 0 L 197 0 L 389 985 L 231 985 L 244 1053 L 1180 1053 L 1167 985 L 1020 985 L 881 274 C 867 203 862 145 865 101 C 867 57 872 23 879 0 L 803 0 C 801 10 798 22 796 38 C 794 54 792 72 792 93 C 792 114 793 138 795 165 C 797 191 801 221 807 254 L 950 985 Z" unicode="" />
<glyph horiz-adv-x="78" d="" unicode="" />
<glyph horiz-adv-x="629" d="M 578 606 L 563 541 L 123 541 L 137 606 L 578 606 Z" unicode="" />
<glyph horiz-adv-x="629" d="M 578 606 L 563 541 L 123 541 L 137 606 L 578 606 Z" unicode="" />
<glyph horiz-adv-x="1167" d="M 1124 598 L 1114 545 L 111 545 L 121 598 L 1124 598 Z" unicode="" />
<glyph horiz-adv-x="2048" d="M 2005 598 L 1995 545 L 111 545 L 121 598 L 2005 598 Z" unicode="" />
<glyph horiz-adv-x="504" d="M 215 954 L 532 1446 L 598 1446 L 303 954 L 215 954 Z" unicode="" />
<glyph horiz-adv-x="502" d="M 578 1446 L 260 954 L 197 954 L 489 1446 L 578 1446 Z" unicode="" />
<glyph horiz-adv-x="508" d="M 344 219 L 25 -272 L -39 -272 L 254 219 L 344 219 Z" unicode="" />
<glyph horiz-adv-x="819" d="M 530 954 L 850 1446 L 915 1446 L 621 954 L 530 954 Z M 215 954 L 532 1446 L 598 1446 L 303 954 L 215 954 Z" unicode="" />
<glyph horiz-adv-x="817" d="M 578 1446 L 260 954 L 197 954 L 489 1446 L 578 1446 Z M 895 1446 L 575 954 L 512 954 L 805 1446 L 895 1446 Z" unicode="" />
<glyph horiz-adv-x="821" d="M 344 219 L 25 -272 L -39 -272 L 254 219 L 344 219 Z M 659 219 L 342 -272 L 276 -272 L 571 219 L 659 219 Z" unicode="" />
<glyph horiz-adv-x="895" d="M 592 1124 L 598 1120 L 819 1137 L 866 1137 L 854 1069 L 807 1069 L 592 1087 L 584 1081 L 463 362 L 455 315 L 385 315 L 393 362 L 551 1081 L 549 1087 L 322 1069 L 274 1069 L 287 1137 L 334 1137 L 555 1120 L 561 1124 L 590 1368 L 598 1415 L 668 1415 L 659 1368 L 592 1124 Z" unicode="" />
<glyph horiz-adv-x="895" d="M 592 1124 L 598 1118 L 819 1137 L 866 1137 L 854 1069 L 807 1069 L 592 1090 L 582 1077 L 569 901 L 557 831 L 500 649 L 506 643 L 727 662 L 774 662 L 762 594 L 715 594 L 500 614 L 489 602 L 463 362 L 455 315 L 385 315 L 393 362 L 461 604 L 457 614 L 229 594 L 182 594 L 195 662 L 242 662 L 461 643 L 471 649 L 485 831 L 498 899 L 553 1079 L 549 1090 L 322 1069 L 274 1069 L 287 1137 L 334 1137 L 553 1118 L 563 1124 L 590 1368 L 598 1415 L 668 1415 L 659 1368 L 592 1124 Z" unicode="" />
<glyph horiz-adv-x="700" d="M 352 776 C 382 776 410 771 435 762 C 459 752 480 739 498 722 C 516 704 529 683 539 659 C 548 635 553 608 553 578 C 553 548 548 520 539 496 C 529 471 516 450 498 433 C 480 415 459 402 435 393 C 410 383 382 379 352 379 C 322 379 294 383 270 393 C 245 402 224 415 207 433 C 190 450 177 471 168 496 C 158 520 154 548 154 578 C 154 608 158 635 168 659 C 177 683 190 704 207 722 C 224 739 245 752 270 762 C 294 771 322 776 352 776 Z" unicode="" />
<glyph horiz-adv-x="2048" d="M 438 219 L 395 0 L 307 0 L 350 219 L 438 219 Z M 1024 219 L 981 0 L 895 0 L 938 219 L 1024 219 Z M 1612 219 L 1569 0 L 1483 0 L 1526 219 L 1612 219 Z" unicode="" />
<glyph horiz-adv-x="2642" d="M 598 1458 C 646 1458 688 1450 725 1436 C 762 1422 793 1401 818 1375 C 842 1348 861 1315 874 1277 C 886 1239 893 1195 893 1147 C 893 1113 890 1076 885 1038 C 880 1000 872 962 860 924 C 848 886 833 850 813 816 C 793 782 769 751 740 725 C 711 699 677 678 637 662 C 597 646 550 639 498 639 C 400 639 326 666 277 720 C 227 774 203 851 203 950 C 203 984 205 1020 210 1058 C 215 1096 223 1134 235 1172 C 247 1210 262 1246 282 1280 C 302 1314 326 1345 355 1371 C 384 1397 419 1418 459 1434 C 499 1450 545 1458 598 1458 Z M 1554 1446 L 451 0 L 387 0 L 1491 1446 L 1554 1446 Z M 596 1407 C 550 1407 511 1399 477 1385 C 443 1370 413 1350 388 1326 C 363 1302 343 1274 327 1242 C 311 1210 298 1178 288 1144 C 278 1110 272 1076 268 1042 C 264 1008 262 976 262 948 C 262 868 281 805 320 759 C 358 713 418 690 500 690 C 545 690 585 697 619 712 C 653 726 683 746 708 770 C 732 794 753 822 769 854 C 785 886 798 919 808 953 C 818 987 824 1020 828 1054 C 832 1088 834 1119 834 1149 C 834 1188 829 1224 819 1256 C 809 1288 795 1315 775 1337 C 755 1359 730 1377 700 1389 C 670 1401 636 1407 596 1407 Z M 1440 807 C 1536 807 1610 779 1660 724 C 1710 669 1735 593 1735 496 C 1735 462 1732 425 1727 387 C 1722 349 1714 311 1702 273 C 1690 235 1675 199 1655 165 C 1635 131 1611 100 1582 74 C 1552 48 1518 27 1478 11 C 1438 -4 1391 -12 1339 -12 C 1241 -12 1168 15 1118 69 C 1068 123 1044 199 1044 299 C 1044 333 1046 369 1051 407 C 1056 445 1064 483 1076 521 C 1088 559 1103 595 1123 629 C 1143 663 1167 694 1197 720 C 1226 746 1261 767 1301 783 C 1341 799 1387 807 1440 807 Z M 1438 756 C 1392 756 1352 748 1318 734 C 1284 719 1254 699 1230 675 C 1205 651 1184 623 1168 591 C 1152 559 1139 527 1130 493 C 1120 459 1114 425 1110 391 C 1106 357 1104 325 1104 297 C 1104 217 1123 154 1162 108 C 1200 62 1260 39 1341 39 C 1387 39 1427 46 1461 61 C 1495 75 1525 95 1550 119 C 1574 143 1595 171 1611 203 C 1627 235 1639 268 1649 302 C 1659 336 1665 369 1669 403 C 1673 437 1675 468 1675 498 C 1675 537 1670 572 1660 604 C 1650 636 1636 663 1617 686 C 1597 708 1573 726 1543 738 C 1513 750 1478 756 1438 756 Z M 2232 807 C 2280 807 2322 799 2359 785 C 2396 771 2427 750 2452 724 C 2476 697 2495 664 2508 626 C 2520 588 2527 544 2527 496 C 2527 462 2524 425 2519 387 C 2514 349 2506 311 2494 273 C 2482 235 2467 199 2447 165 C 2427 131 2403 100 2374 74 C 2345 48 2311 27 2271 11 C 2231 -4 2184 -12 2132 -12 C 2033 -12 1959 15 1910 69 C 1861 123 1837 200 1837 299 C 1837 333 1839 369 1844 407 C 1849 445 1857 483 1869 521 C 1881 559 1896 595 1916 629 C 1936 663 1960 694 1989 720 C 2018 746 2053 767 2093 783 C 2133 799 2179 807 2232 807 Z M 2230 756 C 2184 756 2144 748 2110 734 C 2076 719 2046 699 2022 675 C 1997 651 1976 623 1960 591 C 1944 559 1931 527 1921 493 C 1911 459 1905 425 1901 391 C 1897 357 1896 325 1896 297 C 1896 217 1915 154 1954 108 C 1992 62 2052 39 2134 39 C 2179 39 2219 46 2253 61 C 2287 75 2316 95 2341 119 C 2366 143 2387 171 2403 203 C 2419 235 2431 268 2441 302 C 2451 336 2458 369 2462 403 C 2466 437 2468 468 2468 498 C 2468 537 2463 572 2453 604 C 2443 636 2429 663 2409 686 C 2389 708 2365 726 2335 738 C 2305 750 2270 756 2230 756 Z" unicode="" />
<glyph horiz-adv-x="555" d="M 500 887 L 137 571 L 371 268 L 303 268 L 80 555 L 88 602 L 422 887 L 500 887 Z" unicode="" />
<glyph horiz-adv-x="557" d="M 102 268 L 465 584 L 231 887 L 299 887 L 522 600 L 512 553 L 178 268 L 102 268 Z" unicode="" />
<glyph horiz-adv-x="330" d="M 721 1446 L -205 0 L -264 0 L 662 1446 L 721 1446 Z" unicode="" />
<glyph horiz-adv-x="799" d="M 567 1456 C 613 1456 652 1448 685 1432 C 717 1416 744 1395 765 1367 C 785 1339 800 1307 810 1269 C 820 1231 825 1189 825 1145 C 825 1117 822 1085 818 1047 C 814 1009 806 969 796 928 C 785 886 770 845 752 805 C 734 764 710 728 682 696 C 653 664 619 638 579 618 C 539 598 493 588 440 588 C 394 588 354 595 322 611 C 289 627 262 648 242 676 C 221 704 206 737 196 775 C 186 813 182 854 182 899 C 182 926 184 959 188 997 C 192 1035 200 1075 211 1117 C 222 1158 237 1199 256 1239 C 274 1279 298 1316 326 1348 C 354 1380 388 1406 428 1426 C 468 1446 514 1456 567 1456 Z M 768 1149 C 768 1181 764 1213 758 1244 C 752 1275 741 1303 725 1327 C 709 1351 689 1370 663 1385 C 637 1399 604 1407 565 1407 C 521 1407 483 1398 450 1381 C 416 1363 388 1341 364 1313 C 340 1285 320 1253 304 1217 C 288 1181 275 1144 266 1106 C 256 1068 250 1031 246 995 C 242 959 240 927 240 899 C 240 863 243 830 249 798 C 255 766 266 739 282 715 C 298 691 319 672 345 658 C 371 644 404 637 444 637 C 492 637 533 647 568 667 C 602 687 632 714 656 746 C 680 778 699 814 714 854 C 728 893 740 931 748 969 C 756 1007 761 1042 764 1074 C 766 1106 768 1131 768 1149 Z" unicode="" />
<glyph horiz-adv-x="752" d="M 731 1446 L 610 848 L 803 848 L 793 801 L 602 801 L 561 598 L 502 598 L 543 801 L 123 801 L 135 862 L 672 1446 L 731 1446 Z M 184 848 L 551 848 L 643 1298 L 662 1362 L 657 1362 L 184 848 Z" unicode="" />
<glyph horiz-adv-x="748" d="M 150 631 C 170 627 191 623 214 621 C 237 619 261 618 287 618 C 343 618 396 624 444 637 C 492 649 534 668 570 694 C 606 719 634 751 654 790 C 674 829 684 875 684 928 C 684 990 668 1035 638 1064 C 607 1093 562 1108 502 1108 C 484 1108 467 1106 449 1104 C 431 1101 412 1096 393 1090 C 374 1084 354 1075 333 1065 C 311 1054 288 1040 264 1024 L 229 1040 L 340 1446 L 821 1446 L 811 1395 L 381 1395 L 293 1079 C 334 1106 374 1126 412 1138 C 450 1150 487 1157 524 1157 C 555 1157 584 1152 611 1144 C 637 1136 660 1123 680 1105 C 700 1087 715 1064 726 1036 C 737 1008 743 974 743 934 C 743 878 732 827 711 782 C 690 736 660 698 620 666 C 580 634 532 609 474 592 C 416 575 351 567 279 567 C 259 567 237 567 212 569 C 187 571 165 574 147 580 L 150 631 Z" unicode="" />
<glyph horiz-adv-x="766" d="M 670 1475 C 684 1475 699 1474 717 1472 C 735 1470 751 1468 766 1466 L 766 1413 C 751 1415 735 1416 717 1418 C 699 1420 681 1421 662 1421 C 612 1421 569 1414 533 1402 C 497 1389 463 1371 432 1348 C 404 1326 380 1302 359 1275 C 337 1247 319 1218 303 1188 C 287 1157 274 1125 264 1092 C 254 1059 246 1027 240 995 C 252 1015 267 1035 285 1053 C 303 1071 324 1086 348 1099 C 371 1112 396 1122 422 1130 C 448 1137 476 1141 504 1141 C 538 1141 571 1135 602 1125 C 633 1114 660 1098 683 1078 C 706 1057 724 1031 738 1001 C 751 971 758 936 758 897 C 758 858 751 820 738 783 C 724 746 704 713 677 684 C 650 655 617 632 577 614 C 537 596 490 588 436 588 C 394 588 357 593 324 605 C 290 617 262 634 238 658 C 214 682 196 711 183 747 C 170 783 164 824 164 872 C 164 908 168 949 176 996 C 184 1042 197 1090 216 1138 C 234 1186 259 1232 289 1276 C 319 1320 355 1359 399 1391 C 473 1447 564 1475 670 1475 Z M 489 1090 C 457 1090 426 1084 395 1073 C 363 1062 335 1046 309 1026 C 283 1006 263 981 247 953 C 231 924 223 892 223 856 C 223 822 228 792 238 765 C 248 738 262 715 281 696 C 299 677 322 662 350 652 C 377 642 408 637 442 637 C 483 637 520 644 552 658 C 584 672 610 691 632 715 C 654 738 670 765 681 796 C 692 826 698 858 698 891 C 698 923 692 951 682 976 C 672 1000 657 1021 639 1038 C 620 1055 598 1068 572 1077 C 546 1085 519 1090 489 1090 Z" unicode="" />
<glyph horiz-adv-x="713" d="M 858 1446 L 848 1399 C 835 1388 816 1372 790 1350 C 764 1328 735 1300 702 1267 C 669 1233 634 1194 596 1150 C 558 1106 520 1056 483 1000 C 445 944 409 882 375 815 C 341 748 311 676 285 598 L 219 598 C 241 666 267 732 299 795 C 330 857 363 916 399 970 C 435 1024 471 1075 509 1121 C 546 1167 582 1208 616 1244 C 650 1280 680 1310 708 1336 C 736 1361 758 1381 776 1395 L 256 1395 L 266 1446 L 858 1446 Z" unicode="" />
<glyph horiz-adv-x="797" d="M 408 1055 C 393 1059 378 1065 362 1074 C 346 1082 331 1094 318 1108 C 304 1122 293 1140 285 1160 C 276 1180 272 1203 272 1229 C 272 1263 279 1294 295 1322 C 311 1350 332 1374 358 1394 C 384 1414 414 1429 448 1440 C 482 1450 519 1456 557 1456 C 589 1456 622 1451 654 1443 C 686 1435 714 1422 739 1405 C 764 1387 784 1365 800 1339 C 815 1313 823 1282 823 1247 C 823 1217 817 1189 806 1165 C 794 1141 779 1120 760 1102 C 740 1084 718 1069 692 1059 C 666 1048 640 1041 612 1038 L 610 1032 C 632 1026 652 1019 672 1009 C 691 999 708 986 723 970 C 737 954 749 935 757 913 C 765 891 770 867 770 840 C 770 800 762 765 746 734 C 730 703 708 677 680 655 C 652 633 618 617 580 605 C 541 593 499 588 455 588 C 417 588 381 592 346 600 C 310 608 279 622 252 640 C 224 658 202 681 186 709 C 170 737 162 771 162 811 C 162 844 168 875 180 903 C 192 931 208 955 230 976 C 252 996 278 1013 308 1026 C 338 1039 371 1047 408 1051 L 408 1055 Z M 559 1407 C 531 1407 503 1403 475 1395 C 447 1387 423 1375 401 1360 C 379 1345 361 1326 348 1304 C 334 1281 328 1255 328 1227 C 328 1197 334 1172 347 1152 C 360 1131 377 1114 397 1101 C 417 1087 440 1078 466 1072 C 491 1066 516 1063 541 1063 C 568 1063 595 1066 622 1074 C 649 1081 673 1092 695 1107 C 716 1122 733 1141 746 1163 C 759 1185 766 1211 766 1241 C 766 1269 760 1293 748 1314 C 736 1334 721 1351 702 1365 C 682 1379 660 1389 635 1396 C 610 1403 585 1407 559 1407 Z M 225 829 C 223 795 227 767 239 743 C 251 719 267 699 289 683 C 310 667 335 656 364 648 C 392 640 423 637 455 637 C 491 637 525 641 557 651 C 588 660 615 673 638 691 C 660 709 678 730 691 756 C 704 781 711 810 711 842 C 711 875 704 903 691 926 C 677 948 660 967 638 981 C 616 995 591 1005 563 1011 C 535 1017 506 1020 477 1020 C 402 1020 342 1003 298 970 C 253 936 229 889 225 829 Z" unicode="" />
<glyph horiz-adv-x="764" d="M 305 573 C 289 573 273 573 256 574 C 239 575 223 577 209 580 L 209 633 C 223 631 239 630 256 628 C 273 626 292 625 313 625 C 361 625 404 631 441 644 C 477 656 511 674 543 698 C 570 719 594 743 615 771 C 636 798 654 827 670 858 C 686 889 699 921 709 954 C 719 987 728 1020 735 1053 C 723 1031 707 1012 689 994 C 671 976 650 960 627 947 C 603 934 578 924 551 917 C 524 910 497 907 469 907 C 434 907 401 912 371 922 C 340 932 313 948 291 969 C 268 989 250 1015 237 1045 C 223 1075 217 1111 217 1151 C 217 1189 223 1226 237 1263 C 250 1299 270 1332 296 1361 C 322 1390 356 1413 396 1431 C 436 1449 483 1458 537 1458 C 577 1458 614 1452 648 1440 C 682 1428 711 1411 735 1387 C 759 1363 777 1334 791 1298 C 804 1262 811 1221 811 1174 C 811 1138 806 1096 798 1050 C 790 1003 776 956 758 908 C 740 860 716 813 686 769 C 656 725 619 687 575 655 C 537 626 495 605 451 592 C 406 579 357 573 305 573 Z M 485 956 C 515 956 546 962 578 973 C 610 984 638 1000 664 1020 C 690 1040 711 1064 727 1093 C 743 1121 752 1154 752 1190 C 752 1258 732 1311 693 1350 C 653 1389 599 1409 530 1409 C 488 1409 452 1401 420 1387 C 388 1373 362 1354 341 1331 C 319 1307 303 1280 292 1250 C 281 1219 276 1187 276 1155 C 276 1123 281 1094 292 1070 C 302 1045 317 1024 335 1007 C 353 990 375 977 401 969 C 427 960 455 956 485 956 Z" unicode="" />
<glyph horiz-adv-x="412" d="M 322 395 C 298 417 275 445 254 479 C 232 513 214 550 198 592 C 182 634 169 678 160 725 C 151 772 147 820 147 870 C 147 936 156 1001 175 1067 C 194 1132 221 1194 256 1253 C 290 1312 332 1367 381 1417 C 429 1467 483 1510 543 1546 L 592 1546 L 592 1536 C 532 1500 479 1456 431 1406 C 383 1355 342 1300 309 1241 C 275 1182 250 1120 232 1056 C 214 991 205 927 205 864 C 205 815 209 768 218 722 C 226 676 238 633 252 593 C 266 553 283 518 302 487 C 321 455 341 430 362 410 L 360 395 L 322 395 Z" unicode="" />
<glyph horiz-adv-x="412" d="M 10 395 L 12 410 C 70 444 124 487 172 537 C 220 587 260 642 294 701 C 327 760 353 822 371 887 C 389 951 399 1015 399 1079 C 399 1127 394 1175 386 1221 C 377 1267 365 1311 351 1351 C 336 1391 319 1426 300 1458 C 280 1490 260 1516 240 1536 L 240 1546 L 281 1546 C 305 1523 327 1495 348 1461 C 369 1427 388 1390 404 1349 C 420 1307 432 1263 441 1216 C 450 1169 455 1121 455 1073 C 455 1007 445 942 427 877 C 408 811 381 749 347 690 C 312 631 270 576 222 526 C 173 475 119 431 59 395 L 10 395 Z" unicode="" />
<glyph horiz-adv-x="911" d="M 344 1458 L 403 1458 L 350 1212 C 370 1250 392 1286 418 1318 C 444 1350 472 1377 503 1399 C 533 1421 566 1439 601 1451 C 636 1463 673 1470 713 1470 C 747 1470 778 1464 804 1454 C 830 1444 851 1429 869 1411 C 887 1393 900 1371 909 1346 C 917 1320 922 1292 922 1262 C 922 1228 919 1194 913 1160 C 907 1126 901 1093 895 1061 L 813 645 L 752 645 L 836 1071 C 840 1096 844 1125 850 1157 C 855 1189 858 1221 858 1253 C 858 1301 845 1341 819 1371 C 793 1401 752 1417 698 1417 C 652 1417 608 1406 567 1385 C 525 1364 488 1334 454 1296 C 420 1258 391 1212 366 1158 C 341 1104 322 1045 309 981 L 242 645 L 180 645 L 344 1458 Z" unicode="" />
<glyph horiz-adv-x="799" d="M 407 603 C 453 603 492 595 525 579 C 557 563 584 542 605 514 C 625 486 640 454 650 416 C 660 378 665 336 665 292 C 665 264 662 232 658 194 C 654 156 646 116 636 75 C 625 33 610 -7 592 -48 C 574 -88 550 -125 522 -157 C 493 -189 459 -215 419 -235 C 379 -255 333 -265 280 -265 C 234 -265 194 -257 162 -241 C 129 -225 102 -204 82 -176 C 61 -148 46 -116 36 -78 C 26 -40 22 1 22 46 C 22 73 24 106 28 144 C 32 182 40 222 51 264 C 62 305 77 346 96 386 C 114 426 138 463 166 495 C 194 527 228 553 268 573 C 308 593 354 603 407 603 Z M 608 296 C 608 328 604 360 598 391 C 592 422 581 450 565 474 C 549 498 529 517 503 532 C 477 546 444 554 405 554 C 361 554 323 545 290 528 C 256 510 228 488 204 460 C 180 432 160 400 144 364 C 128 328 115 291 106 253 C 96 215 90 178 86 142 C 82 106 80 74 80 46 C 80 10 83 -22 89 -54 C 95 -86 106 -114 122 -138 C 138 -162 159 -181 185 -195 C 211 -209 244 -216 284 -216 C 332 -216 373 -205 408 -185 C 442 -165 472 -138 496 -106 C 520 -74 539 -38 554 1 C 568 40 580 78 588 116 C 596 154 601 189 604 221 C 606 253 608 278 608 296 Z" unicode="" />
<glyph horiz-adv-x="477" d="M 269 593 L 318 593 L 296 517 L 146 -255 L 87 -255 L 236 511 L 245 538 L 240 538 L 72 470 L 83 525 L 269 593 Z" unicode="" />
<glyph horiz-adv-x="768" d="M 432 157 C 448 171 466 186 484 202 C 502 218 518 235 533 255 C 548 274 560 295 570 317 C 580 339 585 364 585 390 C 585 414 580 437 571 457 C 561 477 548 494 532 508 C 515 522 495 534 472 542 C 448 550 423 554 395 554 C 347 554 303 542 264 520 C 225 497 190 464 159 421 L 112 441 C 126 462 143 482 162 502 C 181 522 203 539 227 554 C 251 569 278 581 308 590 C 337 598 369 603 405 603 C 437 603 468 598 497 589 C 526 580 552 567 574 550 C 596 533 613 512 626 487 C 638 461 645 432 645 400 C 645 370 640 343 632 318 C 624 293 612 270 597 248 C 581 226 563 205 541 185 C 519 165 495 144 469 124 L 57 -204 L 547 -204 L 536 -255 L -29 -255 L -19 -202 L 432 157 Z" unicode="" />
<glyph horiz-adv-x="754" d="M 104 488 C 120 502 138 515 157 529 C 176 543 197 555 220 566 C 242 577 267 586 293 593 C 319 599 348 603 379 603 C 409 603 438 599 466 592 C 494 584 520 573 542 558 C 564 542 582 523 596 500 C 609 476 616 449 616 417 C 616 389 610 363 600 340 C 589 316 574 296 556 278 C 537 260 515 246 490 234 C 464 222 437 213 409 208 L 407 202 C 455 192 494 172 524 142 C 554 112 569 69 569 15 C 569 -38 556 -84 530 -122 C 504 -160 469 -191 427 -215 C 384 -239 335 -257 280 -269 C 225 -280 169 -286 112 -286 C 92 -286 70 -284 45 -282 C 20 -280 -1 -276 -21 -271 L -21 -222 C 1 -225 24 -227 46 -229 C 68 -231 88 -232 108 -232 C 155 -232 203 -228 251 -220 C 299 -212 342 -198 381 -180 C 419 -161 451 -136 475 -105 C 499 -74 512 -35 512 11 C 512 38 506 62 496 82 C 486 102 472 119 455 133 C 438 146 418 156 396 163 C 374 169 351 173 327 173 C 317 173 302 172 282 170 C 262 168 234 166 198 163 L 198 212 L 299 218 C 321 218 348 222 378 230 C 408 237 436 248 462 263 C 488 278 511 297 529 321 C 547 345 557 374 557 409 C 557 432 552 453 543 471 C 533 489 520 504 504 516 C 487 528 467 538 445 544 C 422 550 398 554 372 554 C 328 554 287 545 251 528 C 215 510 178 488 141 460 L 104 488 L 104 488 Z" unicode="" />
<glyph horiz-adv-x="752" d="M 570 593 L 449 -5 L 642 -5 L 632 -52 L 441 -52 L 400 -255 L 341 -255 L 382 -52 L -38 -52 L -26 9 L 511 593 L 570 593 Z M 23 -5 L 390 -5 L 482 445 L 501 509 L 496 509 L 23 -5 Z" unicode="" />
<glyph horiz-adv-x="748" d="M -11 -222 C 9 -226 30 -229 53 -231 C 76 -233 100 -235 126 -235 C 182 -235 235 -228 283 -216 C 331 -203 373 -184 409 -159 C 445 -133 473 -101 493 -62 C 513 -23 523 22 523 75 C 523 137 507 182 477 211 C 446 240 401 255 341 255 C 323 255 306 253 288 251 C 270 248 251 243 232 237 C 213 231 193 222 172 212 C 150 201 127 187 103 171 L 68 187 L 179 593 L 660 593 L 650 542 L 220 542 L 132 226 C 173 253 213 273 251 285 C 289 297 326 304 363 304 C 394 304 423 299 450 291 C 476 283 499 270 519 252 C 539 234 554 211 565 183 C 576 155 582 121 582 81 C 582 25 571 -25 550 -71 C 529 -116 499 -155 459 -187 C 419 -219 371 -243 313 -260 C 255 -277 190 -286 118 -286 C 98 -286 76 -285 51 -283 C 26 -281 4 -278 -14 -273 L -11 -222 Z" unicode="" />
<glyph horiz-adv-x="766" d="M 509 622 C 523 622 538 621 556 619 C 574 617 590 615 605 613 L 605 560 C 590 562 574 563 556 565 C 538 567 520 568 501 568 C 451 568 408 561 372 549 C 336 536 302 518 271 495 C 243 473 219 449 198 422 C 176 394 158 365 142 335 C 126 304 113 272 103 239 C 93 206 85 174 79 142 C 91 162 106 182 124 200 C 142 218 163 233 187 246 C 210 259 235 269 261 277 C 287 284 315 288 343 288 C 377 288 410 282 441 272 C 472 261 499 245 522 225 C 545 204 563 178 577 148 C 590 118 597 83 597 44 C 597 5 590 -32 577 -69 C 563 -106 543 -139 516 -168 C 489 -197 456 -220 416 -238 C 376 -256 329 -265 275 -265 C 233 -265 196 -259 163 -247 C 129 -235 101 -218 77 -194 C 53 -170 35 -141 22 -105 C 9 -69 3 -28 3 19 C 3 55 7 96 15 143 C 23 189 36 237 55 285 C 73 333 98 379 128 423 C 158 467 194 506 238 538 C 312 594 403 622 509 622 Z M 328 237 C 296 237 265 231 234 220 C 202 209 174 193 148 173 C 122 153 102 128 86 100 C 70 71 62 39 62 3 C 62 -30 67 -60 77 -87 C 87 -114 101 -137 120 -156 C 138 -175 161 -190 189 -200 C 216 -210 247 -216 281 -216 C 322 -216 359 -208 391 -194 C 423 -180 449 -161 471 -138 C 493 -114 509 -87 520 -57 C 531 -26 537 5 537 38 C 537 70 531 98 521 123 C 511 147 496 168 478 185 C 459 202 437 215 411 224 C 385 232 358 237 328 237 Z" unicode="" />
<glyph horiz-adv-x="713" d="M 697 593 L 687 546 C 674 535 655 519 629 497 C 603 475 574 447 541 414 C 508 380 473 341 435 297 C 397 253 359 203 322 147 C 284 91 248 29 214 -37 C 180 -104 150 -177 124 -255 L 58 -255 C 80 -186 106 -120 138 -58 C 169 4 202 63 238 117 C 274 171 310 222 348 268 C 385 314 421 355 455 391 C 489 427 519 457 547 483 C 575 508 597 528 615 542 L 95 542 L 105 593 L 697 593 Z" unicode="" />
<glyph horiz-adv-x="797" d="M 248 202 C 233 206 218 212 202 221 C 186 229 171 241 158 255 C 144 269 133 287 125 307 C 116 327 112 350 112 376 C 112 410 119 441 135 469 C 151 497 172 521 198 541 C 224 561 254 576 288 587 C 322 597 359 603 397 603 C 429 603 462 598 494 590 C 526 582 554 569 579 552 C 604 534 624 512 640 486 C 655 460 663 429 663 394 C 663 364 657 336 646 312 C 634 288 619 267 600 249 C 580 231 558 216 532 206 C 506 195 480 188 452 185 L 450 179 C 472 173 492 166 512 156 C 531 146 548 133 563 117 C 577 101 589 82 597 60 C 605 38 610 14 610 -13 C 610 -52 602 -87 586 -118 C 570 -149 548 -175 520 -197 C 492 -219 458 -235 420 -247 C 381 -259 339 -265 295 -265 C 257 -265 221 -260 186 -252 C 150 -244 119 -231 92 -213 C 64 -195 42 -171 26 -143 C 10 -115 2 -81 2 -42 C 2 -8 8 22 20 50 C 32 78 48 102 70 123 C 92 143 118 160 148 173 C 178 186 211 194 248 198 L 248 202 Z M 399 554 C 371 554 343 550 315 542 C 287 534 263 522 241 507 C 219 492 201 473 188 451 C 174 428 168 402 168 374 C 168 344 174 319 187 299 C 200 278 217 261 237 248 C 257 234 280 225 306 219 C 331 213 356 210 381 210 C 408 210 435 213 462 221 C 489 228 513 239 535 254 C 556 269 573 288 586 310 C 599 332 606 358 606 388 C 606 416 600 440 588 461 C 576 481 561 498 542 512 C 522 526 500 536 475 543 C 450 550 425 554 399 554 Z M 65 -24 C 63 -57 67 -86 79 -110 C 91 -134 107 -153 129 -169 C 150 -185 175 -196 204 -204 C 232 -212 263 -216 295 -216 C 331 -216 365 -211 397 -202 C 428 -192 455 -179 478 -161 C 500 -143 518 -122 531 -97 C 544 -71 551 -43 551 -11 C 551 22 544 50 531 73 C 517 95 500 114 478 128 C 456 142 431 152 403 158 C 375 164 346 167 317 167 C 242 167 182 150 138 117 C 93 83 69 36 65 -24 Z" unicode="" />
<glyph horiz-adv-x="764" d="M 144 -280 C 128 -280 112 -279 95 -278 C 78 -277 62 -275 48 -273 L 48 -220 C 62 -221 78 -223 95 -225 C 112 -227 131 -228 152 -228 C 200 -228 243 -221 280 -209 C 316 -196 350 -178 382 -155 C 409 -133 433 -109 454 -82 C 475 -54 493 -25 509 5 C 525 36 538 68 548 101 C 558 134 567 167 574 200 C 562 178 546 159 528 141 C 510 123 489 107 466 94 C 442 81 417 71 390 64 C 363 57 336 54 308 54 C 273 54 240 59 210 69 C 179 79 152 95 130 116 C 107 136 89 162 76 192 C 62 222 56 258 56 298 C 56 336 62 373 76 410 C 89 446 109 479 135 508 C 161 537 195 560 235 578 C 275 596 322 605 376 605 C 416 605 453 599 487 587 C 521 575 550 558 574 534 C 598 510 616 481 630 445 C 643 409 650 368 650 321 C 650 285 645 243 637 197 C 629 150 615 103 597 55 C 579 7 555 -39 525 -83 C 495 -127 458 -166 414 -198 C 376 -226 334 -247 290 -260 C 245 -273 196 -280 144 -280 Z M 324 103 C 354 103 385 109 417 120 C 449 131 477 147 503 167 C 529 187 550 211 566 240 C 582 268 591 301 591 337 C 591 405 571 458 532 497 C 492 536 438 556 369 556 C 327 556 291 548 259 534 C 227 520 201 501 180 478 C 158 454 142 427 131 397 C 120 366 115 334 115 302 C 115 270 120 241 131 217 C 141 192 156 171 174 154 C 192 137 214 124 240 116 C 266 107 294 103 324 103 Z" unicode="" />
<glyph horiz-adv-x="1237" d="M 154 926 L 340 926 C 354 972 370 1017 390 1062 C 409 1106 431 1149 457 1189 C 483 1229 511 1267 543 1301 C 575 1335 610 1365 649 1390 C 688 1415 731 1435 778 1449 C 824 1463 875 1470 930 1470 C 990 1470 1051 1461 1113 1444 C 1174 1426 1232 1401 1286 1368 L 1257 1315 C 1235 1328 1212 1340 1186 1352 C 1160 1364 1133 1374 1105 1383 C 1077 1391 1048 1398 1019 1403 C 989 1408 960 1411 932 1411 C 860 1411 797 1397 741 1370 C 685 1343 636 1307 594 1262 C 552 1217 516 1165 486 1107 C 456 1049 432 988 414 926 L 956 926 L 946 872 L 397 872 C 383 822 373 773 366 725 C 358 677 354 632 352 590 L 889 590 L 879 535 L 350 535 C 350 461 357 394 371 333 C 385 272 408 220 440 176 C 472 132 514 97 566 73 C 618 49 682 37 758 37 C 779 37 802 38 826 40 C 850 42 873 44 897 48 C 921 52 943 56 965 61 C 987 66 1006 72 1024 78 L 1024 16 C 1006 10 987 5 965 0 C 943 -4 919 -8 895 -12 C 871 -15 846 -18 821 -20 C 795 -22 771 -23 748 -23 C 664 -23 592 -10 532 16 C 472 42 424 79 386 127 C 348 175 320 234 302 303 C 284 372 276 449 276 535 L 76 535 L 86 590 L 279 590 C 282 633 287 678 294 726 C 301 773 311 822 324 872 L 143 872 L 154 926 Z" unicode="" />
<glyph horiz-adv-x="1149" d="M 311 391 C 282 374 253 358 225 344 C 197 329 169 314 141 299 L 154 371 L 326 463 L 449 1106 C 461 1172 479 1229 501 1275 C 523 1321 549 1359 578 1387 C 606 1415 637 1436 671 1449 C 705 1461 740 1468 776 1468 C 816 1468 852 1461 883 1448 C 913 1434 939 1416 959 1392 C 979 1368 995 1339 1005 1305 C 1015 1271 1020 1233 1020 1192 C 1020 1106 1002 1027 968 955 C 934 883 887 817 829 756 C 771 695 703 638 627 585 C 551 532 471 482 387 434 L 371 346 C 366 321 361 296 357 270 C 352 244 350 223 350 209 C 350 178 355 152 365 131 C 375 109 389 92 407 79 C 425 65 446 56 472 50 C 497 44 525 41 555 41 C 581 41 606 43 629 47 C 651 51 672 57 692 63 C 711 69 729 77 745 85 C 761 93 777 101 793 109 L 780 51 C 748 30 710 14 668 2 C 625 -10 581 -16 535 -16 C 501 -16 469 -12 439 -5 C 409 2 382 14 358 31 C 334 47 316 69 302 97 C 288 125 281 159 281 201 C 281 220 283 242 288 268 C 292 293 297 320 303 348 L 311 391 Z M 401 508 C 472 549 541 593 607 641 C 673 688 732 739 783 795 C 834 851 875 911 906 976 C 936 1041 952 1112 952 1190 C 952 1218 949 1246 943 1272 C 937 1298 928 1322 915 1342 C 901 1362 883 1379 860 1391 C 837 1403 808 1409 774 1409 C 746 1409 720 1404 694 1394 C 668 1384 643 1367 621 1344 C 599 1320 579 1289 561 1251 C 543 1212 529 1164 518 1106 L 401 508 Z" unicode="" />
<glyph horiz-adv-x="1327" d="M 692 1446 L 684 1407 L 492 1407 L 387 860 L 338 860 L 442 1407 L 254 1407 L 262 1446 L 692 1446 Z M 872 1446 L 1001 1024 L 1008 1024 L 1303 1446 L 1378 1446 L 1264 860 L 1219 860 L 1319 1372 L 1325 1405 L 1321 1405 L 1305 1372 L 1022 971 L 969 971 L 846 1372 L 840 1405 L 838 1405 L 831 1372 L 731 860 L 686 860 L 801 1446 L 872 1446 Z" unicode="" />
<glyph horiz-adv-x="1575" d="M 88 61 L 444 61 L 444 68 C 400 107 361 147 325 188 C 289 228 258 272 232 318 C 206 364 185 415 171 469 C 157 523 150 584 150 651 C 150 715 157 780 171 846 C 185 911 206 974 234 1035 C 262 1095 296 1152 338 1205 C 380 1257 428 1303 483 1342 C 537 1381 598 1412 666 1434 C 734 1456 808 1468 889 1468 C 977 1468 1056 1454 1128 1426 C 1200 1398 1261 1357 1312 1303 C 1363 1249 1403 1182 1431 1102 C 1459 1022 1473 931 1473 829 C 1473 739 1462 656 1440 582 C 1418 508 1387 440 1345 378 C 1303 316 1252 260 1192 209 C 1132 158 1063 111 985 68 L 985 61 L 1346 61 L 1333 0 L 829 0 L 840 47 C 924 80 1001 121 1070 171 C 1139 220 1198 277 1247 343 C 1296 408 1334 481 1361 562 C 1387 643 1401 732 1401 829 C 1401 917 1389 997 1366 1069 C 1343 1141 1310 1202 1266 1252 C 1222 1302 1169 1341 1106 1368 C 1042 1395 970 1409 889 1409 C 817 1409 751 1398 691 1378 C 630 1357 575 1329 526 1293 C 476 1257 433 1214 395 1166 C 357 1117 326 1064 300 1008 C 274 951 255 892 242 830 C 229 768 223 707 223 645 C 223 572 231 506 249 448 C 266 389 290 336 320 288 C 350 240 385 196 427 157 C 468 118 513 82 561 49 L 551 0 L 76 0 L 88 61 Z" unicode="" />
<glyph horiz-adv-x="1624" d="M 369 618 C 369 614 370 611 373 609 C 376 607 379 606 383 606 L 1286 606 C 1289 606 1293 606 1297 608 C 1301 609 1303 612 1303 618 L 1303 946 C 1303 952 1302 958 1300 965 C 1298 972 1295 979 1290 985 C 1268 1015 1240 1041 1207 1065 C 1174 1089 1138 1109 1098 1125 C 1058 1141 1015 1154 971 1163 C 927 1171 882 1176 838 1176 C 802 1176 762 1171 717 1162 C 672 1152 628 1139 585 1122 C 541 1105 502 1085 466 1062 C 430 1038 403 1013 385 985 C 381 979 377 972 374 965 C 370 958 369 952 369 946 L 369 618 Z M 369 262 C 369 252 369 242 371 233 C 372 223 377 215 385 207 C 415 175 449 148 486 125 C 522 101 560 82 600 66 C 640 50 680 39 720 31 C 760 23 800 20 838 20 C 880 20 924 24 969 34 C 1013 43 1057 56 1099 74 C 1141 92 1180 113 1218 139 C 1256 165 1289 194 1319 227 L 1382 227 C 1348 185 1309 148 1267 118 C 1225 87 1180 62 1133 42 C 1086 22 1038 8 988 -1 C 938 -11 888 -16 838 -16 C 781 -16 725 -9 669 4 C 613 18 560 37 510 63 C 459 88 412 119 369 155 C 326 191 289 232 257 278 C 225 323 201 372 183 426 C 165 480 156 537 156 598 C 156 660 165 719 183 774 C 201 828 226 878 258 924 C 290 969 327 1009 371 1045 C 414 1081 461 1111 512 1136 C 562 1160 615 1179 671 1192 C 726 1205 782 1212 838 1212 C 898 1212 957 1205 1015 1191 C 1072 1177 1126 1158 1176 1132 C 1226 1106 1272 1075 1314 1037 C 1356 999 1392 957 1422 909 C 1452 861 1476 809 1493 752 C 1509 695 1518 634 1518 569 L 383 569 C 379 569 376 567 373 564 C 370 560 369 557 369 553 L 369 262 Z" unicode="" />
<glyph horiz-adv-x="1561" d="M 430 1446 L 479 1446 L 457 1370 L 307 598 L 248 598 L 397 1364 L 406 1391 L 401 1391 L 233 1323 L 244 1378 L 430 1446 Z M 1198 1446 L 272 0 L 213 0 L 1139 1446 L 1198 1446 Z M 959 744 C 975 758 993 771 1012 785 C 1031 799 1052 811 1075 822 C 1097 833 1122 842 1148 849 C 1174 855 1203 859 1234 859 C 1264 859 1293 855 1321 848 C 1349 840 1375 829 1397 814 C 1419 798 1437 779 1451 756 C 1464 732 1471 705 1471 673 C 1471 645 1465 619 1455 596 C 1444 572 1429 552 1411 534 C 1392 516 1370 502 1345 490 C 1319 478 1292 469 1264 464 L 1262 458 C 1310 448 1349 428 1379 398 C 1409 368 1424 325 1424 271 C 1424 217 1411 172 1385 134 C 1359 96 1324 64 1282 40 C 1239 16 1190 -1 1135 -13 C 1080 -24 1024 -30 967 -30 C 947 -30 925 -28 900 -26 C 875 -24 853 -20 834 -15 L 834 34 C 856 30 879 28 901 26 C 923 24 943 24 963 24 C 1010 24 1058 28 1106 36 C 1154 44 1197 57 1236 76 C 1274 94 1306 119 1330 150 C 1354 181 1367 220 1367 267 C 1367 294 1361 318 1351 338 C 1341 358 1327 375 1310 389 C 1293 402 1273 412 1251 419 C 1229 425 1206 429 1182 429 C 1172 429 1157 428 1137 426 C 1117 424 1089 422 1053 419 L 1053 468 L 1154 474 C 1176 474 1203 478 1233 486 C 1263 493 1291 504 1317 519 C 1343 534 1366 553 1384 577 C 1402 601 1412 630 1412 665 C 1412 688 1407 709 1398 727 C 1388 745 1375 760 1359 772 C 1342 784 1322 794 1300 800 C 1277 806 1253 810 1227 810 C 1183 810 1142 801 1106 784 C 1070 766 1033 744 996 716 L 959 744 L 959 744 Z" unicode="" />
<glyph horiz-adv-x="1851" d="M 592 1010 C 608 1024 626 1039 644 1055 C 662 1071 678 1088 693 1108 C 708 1127 720 1148 730 1170 C 740 1192 745 1217 745 1243 C 745 1267 740 1290 731 1310 C 721 1330 708 1347 692 1361 C 675 1375 655 1387 632 1395 C 608 1403 583 1407 555 1407 C 507 1407 463 1395 424 1373 C 385 1350 350 1317 319 1274 L 272 1294 C 286 1315 303 1335 322 1355 C 341 1375 363 1392 387 1407 C 411 1422 438 1434 468 1443 C 497 1451 529 1456 565 1456 C 597 1456 628 1451 657 1442 C 686 1433 712 1420 734 1403 C 756 1386 773 1365 786 1340 C 798 1314 805 1285 805 1253 C 805 1223 800 1196 792 1171 C 784 1146 772 1123 757 1101 C 741 1079 723 1058 701 1038 C 679 1018 655 997 629 977 L 217 649 L 707 649 L 696 598 L 131 598 L 141 651 L 592 1010 Z M 1489 1446 L 563 0 L 504 0 L 1430 1446 L 1489 1446 Z M 1250 744 C 1266 758 1284 771 1303 785 C 1322 799 1343 811 1366 822 C 1388 833 1413 842 1439 849 C 1465 855 1494 859 1525 859 C 1555 859 1584 855 1612 848 C 1640 840 1666 829 1688 814 C 1710 798 1728 779 1742 756 C 1755 732 1762 705 1762 673 C 1762 645 1756 619 1746 596 C 1735 572 1720 552 1702 534 C 1683 516 1661 502 1636 490 C 1610 478 1583 469 1555 464 L 1553 458 C 1601 448 1640 428 1670 398 C 1700 368 1715 325 1715 271 C 1715 217 1702 172 1676 134 C 1650 96 1615 64 1573 40 C 1530 16 1481 -1 1426 -13 C 1371 -24 1315 -30 1258 -30 C 1238 -30 1216 -28 1191 -26 C 1166 -24 1144 -20 1125 -15 L 1125 34 C 1147 30 1170 28 1192 26 C 1214 24 1234 24 1254 24 C 1301 24 1349 28 1397 36 C 1445 44 1488 57 1527 76 C 1565 94 1597 119 1621 150 C 1645 181 1658 220 1658 267 C 1658 294 1652 318 1642 338 C 1632 358 1618 375 1601 389 C 1584 402 1564 412 1542 419 C 1520 425 1497 429 1473 429 C 1463 429 1448 428 1428 426 C 1408 424 1380 422 1344 419 L 1344 468 L 1445 474 C 1467 474 1494 478 1524 486 C 1554 493 1582 504 1608 519 C 1634 534 1657 553 1675 577 C 1693 601 1703 630 1703 665 C 1703 688 1698 709 1689 727 C 1679 745 1666 760 1650 772 C 1633 784 1613 794 1591 800 C 1568 806 1544 810 1518 810 C 1474 810 1433 801 1397 784 C 1361 766 1324 744 1287 716 L 1250 744 L 1250 744 Z" unicode="" />
<glyph horiz-adv-x="1604" d="M 430 1446 L 479 1446 L 457 1370 L 307 598 L 248 598 L 397 1364 L 406 1391 L 401 1391 L 233 1323 L 244 1378 L 430 1446 Z M 1198 1446 L 272 0 L 213 0 L 1139 1446 L 1198 1446 Z M 1102 458 C 1087 462 1072 468 1056 477 C 1040 485 1025 497 1012 511 C 998 525 987 543 979 563 C 970 583 966 606 966 632 C 966 666 973 697 989 725 C 1005 753 1026 777 1052 797 C 1078 817 1108 832 1142 843 C 1176 853 1213 859 1251 859 C 1283 859 1316 854 1348 846 C 1380 838 1408 825 1433 808 C 1458 790 1478 768 1494 742 C 1509 716 1517 685 1517 650 C 1517 620 1511 592 1500 568 C 1488 544 1473 523 1454 505 C 1434 487 1412 472 1386 462 C 1360 451 1334 444 1306 441 L 1304 435 C 1326 429 1346 422 1366 412 C 1385 402 1402 389 1417 373 C 1431 357 1443 338 1451 316 C 1459 294 1464 270 1464 243 C 1464 203 1456 168 1440 137 C 1424 106 1402 80 1374 58 C 1346 36 1312 20 1274 8 C 1235 -3 1193 -9 1149 -9 C 1111 -9 1075 -4 1040 3 C 1004 11 973 25 946 43 C 918 61 896 84 880 112 C 864 140 856 174 856 214 C 856 247 862 278 874 306 C 886 334 902 358 924 379 C 946 399 972 416 1002 429 C 1032 442 1065 450 1102 454 L 1102 458 Z M 1253 810 C 1225 810 1197 806 1169 798 C 1141 790 1117 778 1095 763 C 1073 748 1055 729 1042 707 C 1028 684 1022 658 1022 630 C 1022 600 1028 575 1041 555 C 1054 534 1071 517 1091 504 C 1111 490 1134 481 1160 475 C 1185 469 1210 466 1235 466 C 1262 466 1289 469 1316 477 C 1343 484 1367 495 1389 510 C 1410 525 1427 544 1440 566 C 1453 588 1460 614 1460 644 C 1460 672 1454 696 1442 717 C 1430 737 1415 754 1396 768 C 1376 782 1354 792 1329 799 C 1304 806 1279 810 1253 810 Z M 919 232 C 917 198 921 170 933 146 C 945 122 961 102 983 86 C 1004 70 1029 59 1058 51 C 1086 43 1117 40 1149 40 C 1185 40 1219 44 1251 54 C 1282 63 1309 76 1332 94 C 1354 112 1372 133 1385 159 C 1398 184 1405 213 1405 245 C 1405 278 1398 306 1385 329 C 1371 351 1354 370 1332 384 C 1310 398 1285 408 1257 414 C 1229 420 1200 423 1171 423 C 1096 423 1036 406 992 373 C 947 339 923 292 919 232 Z" unicode="" />
<glyph horiz-adv-x="1880" d="M 264 1341 C 280 1355 298 1368 317 1382 C 336 1396 357 1408 380 1419 C 402 1430 427 1439 453 1446 C 479 1452 508 1456 539 1456 C 569 1456 598 1452 626 1445 C 654 1437 680 1426 702 1411 C 724 1395 742 1376 756 1353 C 769 1329 776 1302 776 1270 C 776 1242 770 1216 760 1193 C 749 1169 734 1149 716 1131 C 697 1113 675 1099 650 1087 C 624 1075 597 1066 569 1061 L 567 1055 C 615 1045 654 1025 684 995 C 714 965 729 922 729 868 C 729 814 716 769 690 731 C 664 693 629 661 587 637 C 544 613 495 595 440 584 C 385 572 329 567 272 567 C 252 567 230 568 205 570 C 180 572 158 576 139 582 L 139 631 C 161 627 184 625 206 623 C 228 621 248 621 268 621 C 315 621 363 625 411 633 C 459 641 502 654 541 673 C 579 691 611 716 635 747 C 659 778 672 817 672 864 C 672 891 666 915 656 935 C 646 955 632 972 615 986 C 598 999 578 1009 556 1016 C 534 1022 511 1026 487 1026 C 477 1026 462 1025 442 1023 C 422 1021 394 1019 358 1016 L 358 1065 L 459 1071 C 481 1071 508 1075 538 1083 C 568 1090 596 1101 622 1116 C 648 1131 671 1150 689 1174 C 707 1198 717 1227 717 1262 C 717 1285 712 1306 703 1324 C 693 1342 680 1357 664 1369 C 647 1381 627 1391 605 1397 C 582 1403 558 1407 532 1407 C 488 1407 447 1398 411 1381 C 375 1363 338 1341 301 1313 L 264 1341 L 264 1341 Z M 1475 1446 L 549 0 L 490 0 L 1416 1446 L 1475 1446 Z M 1379 458 C 1364 462 1349 468 1333 477 C 1317 485 1302 497 1289 511 C 1275 525 1264 543 1256 563 C 1247 583 1243 606 1243 632 C 1243 666 1250 697 1266 725 C 1282 753 1303 777 1329 797 C 1355 817 1385 832 1419 843 C 1453 853 1490 859 1528 859 C 1560 859 1593 854 1625 846 C 1657 838 1685 825 1710 808 C 1735 790 1755 768 1771 742 C 1786 716 1794 685 1794 650 C 1794 620 1788 592 1777 568 C 1765 544 1750 523 1731 505 C 1711 487 1689 472 1663 462 C 1637 451 1611 444 1583 441 L 1581 435 C 1603 429 1623 422 1643 412 C 1662 402 1679 389 1694 373 C 1708 357 1720 338 1728 316 C 1736 294 1741 270 1741 243 C 1741 203 1733 168 1717 137 C 1701 106 1679 80 1651 58 C 1623 36 1589 20 1551 8 C 1512 -3 1470 -9 1426 -9 C 1388 -9 1352 -4 1317 3 C 1281 11 1250 25 1223 43 C 1195 61 1173 84 1157 112 C 1141 140 1133 174 1133 214 C 1133 247 1139 278 1151 306 C 1163 334 1179 358 1201 379 C 1223 399 1249 416 1279 429 C 1309 442 1342 450 1379 454 L 1379 458 Z M 1530 810 C 1502 810 1474 806 1446 798 C 1418 790 1394 778 1372 763 C 1350 748 1332 729 1319 707 C 1305 684 1299 658 1299 630 C 1299 600 1305 575 1318 555 C 1331 534 1348 517 1368 504 C 1388 490 1411 481 1437 475 C 1462 469 1487 466 1512 466 C 1539 466 1566 469 1593 477 C 1620 484 1644 495 1666 510 C 1687 525 1704 544 1717 566 C 1730 588 1737 614 1737 644 C 1737 672 1731 696 1719 717 C 1707 737 1692 754 1673 768 C 1653 782 1631 792 1606 799 C 1581 806 1556 810 1530 810 Z M 1196 232 C 1194 198 1198 170 1210 146 C 1222 122 1238 102 1260 86 C 1281 70 1306 59 1335 51 C 1363 43 1394 40 1426 40 C 1462 40 1496 44 1528 54 C 1559 63 1586 76 1609 94 C 1631 112 1649 133 1662 159 C 1675 184 1682 213 1682 245 C 1682 278 1675 306 1662 329 C 1648 351 1631 370 1609 384 C 1587 398 1562 408 1534 414 C 1506 420 1477 423 1448 423 C 1373 423 1313 406 1269 373 C 1224 339 1200 292 1196 232 Z" unicode="" />
<glyph horiz-adv-x="1874" d="M 150 631 C 170 627 191 623 214 621 C 237 619 261 618 287 618 C 343 618 396 624 444 637 C 492 649 534 668 570 694 C 606 719 634 751 654 790 C 674 829 684 875 684 928 C 684 990 668 1035 638 1064 C 607 1093 562 1108 502 1108 C 484 1108 467 1106 449 1104 C 431 1101 412 1096 393 1090 C 374 1084 354 1075 333 1065 C 311 1054 288 1040 264 1024 L 229 1040 L 340 1446 L 821 1446 L 811 1395 L 381 1395 L 293 1079 C 334 1106 374 1126 412 1138 C 450 1150 487 1157 524 1157 C 555 1157 584 1152 611 1144 C 637 1136 660 1123 680 1105 C 700 1087 715 1064 726 1036 C 737 1008 743 974 743 934 C 743 878 732 827 711 782 C 690 736 660 698 620 666 C 580 634 532 609 474 592 C 416 575 351 567 279 567 C 259 567 237 567 212 569 C 187 571 165 574 147 580 L 150 631 Z M 1469 1446 L 543 0 L 484 0 L 1410 1446 L 1469 1446 Z M 1373 458 C 1358 462 1343 468 1327 477 C 1311 485 1296 497 1283 511 C 1269 525 1258 543 1250 563 C 1241 583 1237 606 1237 632 C 1237 666 1244 697 1260 725 C 1276 753 1297 777 1323 797 C 1349 817 1379 832 1413 843 C 1447 853 1484 859 1522 859 C 1554 859 1587 854 1619 846 C 1651 838 1679 825 1704 808 C 1729 790 1749 768 1765 742 C 1780 716 1788 685 1788 650 C 1788 620 1782 592 1771 568 C 1759 544 1744 523 1725 505 C 1705 487 1683 472 1657 462 C 1631 451 1605 444 1577 441 L 1575 435 C 1597 429 1617 422 1637 412 C 1656 402 1673 389 1688 373 C 1702 357 1714 338 1722 316 C 1730 294 1735 270 1735 243 C 1735 203 1727 168 1711 137 C 1695 106 1673 80 1645 58 C 1617 36 1583 20 1545 8 C 1506 -3 1464 -9 1420 -9 C 1382 -9 1346 -4 1311 3 C 1275 11 1244 25 1217 43 C 1189 61 1167 84 1151 112 C 1135 140 1127 174 1127 214 C 1127 247 1133 278 1145 306 C 1157 334 1173 358 1195 379 C 1217 399 1243 416 1273 429 C 1303 442 1336 450 1373 454 L 1373 458 Z M 1524 810 C 1496 810 1468 806 1440 798 C 1412 790 1388 778 1366 763 C 1344 748 1326 729 1313 707 C 1299 684 1293 658 1293 630 C 1293 600 1299 575 1312 555 C 1325 534 1342 517 1362 504 C 1382 490 1405 481 1431 475 C 1456 469 1481 466 1506 466 C 1533 466 1560 469 1587 477 C 1614 484 1638 495 1660 510 C 1681 525 1698 544 1711 566 C 1724 588 1731 614 1731 644 C 1731 672 1725 696 1713 717 C 1701 737 1686 754 1667 768 C 1647 782 1625 792 1600 799 C 1575 806 1550 810 1524 810 Z M 1190 232 C 1188 198 1192 170 1204 146 C 1216 122 1232 102 1254 86 C 1275 70 1300 59 1329 51 C 1357 43 1388 40 1420 40 C 1456 40 1490 44 1522 54 C 1553 63 1580 76 1603 94 C 1625 112 1643 133 1656 159 C 1669 184 1676 213 1676 245 C 1676 278 1669 306 1656 329 C 1642 351 1625 370 1603 384 C 1581 398 1556 408 1528 414 C 1500 420 1471 423 1442 423 C 1367 423 1307 406 1263 373 C 1218 339 1194 292 1190 232 Z" unicode="" />
<glyph horiz-adv-x="1751" d="M 858 1446 L 848 1399 C 835 1388 816 1372 790 1350 C 764 1328 735 1300 702 1267 C 669 1233 634 1194 596 1150 C 558 1106 520 1056 483 1000 C 445 944 409 882 375 815 C 341 748 311 676 285 598 L 219 598 C 241 666 267 732 299 795 C 330 857 363 916 399 970 C 435 1024 471 1075 509 1121 C 546 1167 582 1208 616 1244 C 650 1280 680 1310 708 1336 C 736 1361 758 1381 776 1395 L 256 1395 L 266 1446 L 858 1446 Z M 1346 1446 L 420 0 L 361 0 L 1287 1446 L 1346 1446 Z M 1250 458 C 1235 462 1220 468 1204 477 C 1188 485 1173 497 1160 511 C 1146 525 1135 543 1127 563 C 1118 583 1114 606 1114 632 C 1114 666 1121 697 1137 725 C 1153 753 1174 777 1200 797 C 1226 817 1256 832 1290 843 C 1324 853 1361 859 1399 859 C 1431 859 1464 854 1496 846 C 1528 838 1556 825 1581 808 C 1606 790 1626 768 1642 742 C 1657 716 1665 685 1665 650 C 1665 620 1659 592 1648 568 C 1636 544 1621 523 1602 505 C 1582 487 1560 472 1534 462 C 1508 451 1482 444 1454 441 L 1452 435 C 1474 429 1494 422 1514 412 C 1533 402 1550 389 1565 373 C 1579 357 1591 338 1599 316 C 1607 294 1612 270 1612 243 C 1612 203 1604 168 1588 137 C 1572 106 1550 80 1522 58 C 1494 36 1460 20 1422 8 C 1383 -3 1341 -9 1297 -9 C 1259 -9 1223 -4 1188 3 C 1152 11 1121 25 1094 43 C 1066 61 1044 84 1028 112 C 1012 140 1004 174 1004 214 C 1004 247 1010 278 1022 306 C 1034 334 1050 358 1072 379 C 1094 399 1120 416 1150 429 C 1180 442 1213 450 1250 454 L 1250 458 Z M 1401 810 C 1373 810 1345 806 1317 798 C 1289 790 1265 778 1243 763 C 1221 748 1203 729 1190 707 C 1176 684 1170 658 1170 630 C 1170 600 1176 575 1189 555 C 1202 534 1219 517 1239 504 C 1259 490 1282 481 1308 475 C 1333 469 1358 466 1383 466 C 1410 466 1437 469 1464 477 C 1491 484 1515 495 1537 510 C 1558 525 1575 544 1588 566 C 1601 588 1608 614 1608 644 C 1608 672 1602 696 1590 717 C 1578 737 1563 754 1544 768 C 1524 782 1502 792 1477 799 C 1452 806 1427 810 1401 810 Z M 1067 232 C 1065 198 1069 170 1081 146 C 1093 122 1109 102 1131 86 C 1152 70 1177 59 1206 51 C 1234 43 1265 40 1297 40 C 1333 40 1367 44 1399 54 C 1430 63 1457 76 1480 94 C 1502 112 1520 133 1533 159 C 1546 184 1553 213 1553 245 C 1553 278 1546 306 1533 329 C 1519 351 1502 370 1480 384 C 1458 398 1433 408 1405 414 C 1377 420 1348 423 1319 423 C 1244 423 1184 406 1140 373 C 1095 339 1071 292 1067 232 Z" unicode="" />
<glyph horiz-adv-x="1167" d="M 594 1386 C 684 1376 759 1354 820 1322 C 880 1289 929 1246 966 1194 C 1003 1142 1029 1080 1045 1009 C 1061 937 1069 858 1069 772 C 1069 710 1065 648 1058 585 C 1050 522 1038 461 1022 403 C 1005 345 983 290 957 239 C 930 188 897 144 858 106 C 818 68 772 38 720 16 C 668 -5 608 -16 541 -16 C 487 -16 436 -8 388 7 C 340 22 298 45 262 77 C 226 109 197 149 176 197 C 155 245 145 301 145 367 C 145 431 155 493 176 554 C 197 614 228 668 268 715 C 308 762 358 800 417 829 C 475 857 542 872 618 872 C 664 872 707 865 748 853 C 788 840 825 821 857 796 C 889 771 917 740 939 702 C 961 664 977 621 987 571 C 987 581 988 594 990 611 C 992 628 993 647 994 667 C 995 687 996 707 997 729 C 998 751 999 771 999 791 C 998 859 991 924 979 985 C 967 1045 945 1099 914 1146 C 882 1193 840 1232 786 1263 C 732 1293 664 1313 582 1323 L 594 1386 Z M 545 43 C 594 43 638 50 678 64 C 718 78 753 96 783 120 C 813 143 840 170 862 201 C 884 231 901 263 915 297 C 929 330 939 363 946 397 C 952 431 956 462 956 492 C 956 540 947 583 930 623 C 912 662 889 695 859 723 C 829 751 793 772 752 788 C 711 803 667 811 621 811 C 565 811 512 800 463 779 C 414 757 371 728 335 690 C 298 652 269 606 248 553 C 227 499 217 441 217 377 C 217 322 225 274 241 232 C 257 190 280 156 310 128 C 339 100 374 78 414 64 C 454 50 497 43 545 43 Z" unicode="" />
<glyph horiz-adv-x="1311" d="M 897 1446 L 1133 59 L 1120 0 L 8 0 L 20 57 L 795 1446 L 897 1446 Z M 793 1300 L 100 61 L 1061 61 L 854 1300 L 842 1382 L 836 1382 L 793 1300 Z" unicode="" />
<glyph horiz-adv-x="1597" d="M 1694 1446 L 1681 1382 L 1497 1382 L 1182 -236 L 1110 -236 L 1423 1382 L 528 1382 L 213 -236 L 141 -236 L 457 1382 L 272 1382 L 285 1446 L 1694 1446 Z" unicode="" />
<glyph horiz-adv-x="1518" d="M 1548 1446 L 1534 1380 L 492 1380 L 422 1382 L 420 1376 L 475 1329 L 1133 633 L 1118 571 L 203 -125 L 125 -166 L 121 -172 L 201 -170 L 1235 -170 L 1221 -236 L 41 -236 L 61 -147 L 1014 580 L 1053 604 L 1055 616 L 1026 641 L 350 1358 L 369 1446 L 1548 1446 Z" unicode="" />
<glyph horiz-adv-x="1167" d="M 1159 602 L 1159 541 L 8 541 L 8 602 L 1159 602 Z" unicode="" />
<glyph horiz-adv-x="330" d="M 721 1446 L -205 0 L -264 0 L 662 1446 L 721 1446 Z" unicode="" />
<glyph horiz-adv-x="371" d="M 236 702 L 236 440 L 135 440 L 135 702 L 236 702 Z" unicode="" />
<glyph horiz-adv-x="1522" d="M 516 1053 L 686 111 L 1683 1878 L 1767 1878 L 694 0 L 631 0 L 449 989 L 162 989 L 172 1053 L 516 1053 Z" unicode="" />
<glyph horiz-adv-x="2040" d="M 545 961 C 565 961 587 958 609 954 C 631 949 655 941 679 929 C 703 917 728 900 755 880 C 782 860 811 834 842 803 L 1020 616 L 1198 803 C 1228 834 1257 860 1284 880 C 1311 900 1337 917 1361 929 C 1385 941 1408 949 1430 954 C 1452 958 1473 961 1495 961 L 1548 961 C 1597 961 1643 951 1685 932 C 1727 913 1763 888 1794 856 C 1824 824 1848 787 1866 746 C 1883 704 1892 662 1892 618 L 1892 528 C 1892 484 1883 441 1866 400 C 1848 359 1824 323 1794 291 C 1763 259 1727 233 1685 214 C 1643 195 1597 186 1548 186 L 1495 186 C 1475 186 1455 188 1433 193 C 1411 197 1388 206 1364 218 C 1339 230 1313 246 1285 266 C 1257 286 1228 312 1198 344 L 1020 528 L 842 342 C 811 311 782 286 756 266 C 729 246 704 230 680 218 C 656 206 632 197 610 193 C 588 188 566 186 545 186 L 492 186 C 442 186 397 195 355 214 C 313 233 276 259 245 291 C 214 323 190 359 173 400 C 155 441 147 484 147 528 L 147 618 C 147 662 155 704 173 746 C 190 787 214 824 245 856 C 276 888 313 913 355 932 C 397 951 442 961 492 961 L 545 961 Z M 1065 573 L 1239 389 C 1266 361 1292 338 1316 320 C 1340 302 1362 287 1384 277 C 1405 267 1425 260 1445 256 C 1464 252 1483 250 1501 250 L 1546 250 C 1586 250 1623 257 1657 273 C 1691 289 1720 309 1745 335 C 1770 361 1790 390 1804 423 C 1818 456 1825 490 1825 526 L 1825 621 C 1825 656 1818 690 1804 723 C 1790 756 1770 785 1745 811 C 1720 837 1691 857 1657 873 C 1623 889 1586 897 1546 897 L 1501 897 C 1483 897 1465 895 1446 891 C 1426 887 1406 880 1385 870 C 1363 860 1340 846 1316 828 C 1292 810 1266 788 1239 760 L 1065 573 Z M 215 526 C 215 490 222 456 236 423 C 250 390 269 361 294 335 C 319 309 349 289 383 273 C 417 257 454 250 494 250 L 539 250 C 556 250 574 251 593 255 C 612 259 632 266 654 276 C 675 286 698 301 722 319 C 746 337 773 360 801 389 L 975 573 L 801 760 C 773 788 747 810 723 828 C 699 846 676 860 655 870 C 633 880 613 887 594 891 C 574 895 556 897 539 897 L 494 897 C 454 897 417 889 383 873 C 349 857 319 837 294 811 C 269 785 250 756 236 723 C 222 690 215 656 215 621 L 215 526 Z" unicode="" />
<glyph horiz-adv-x="713" d="M 866 1597 L 854 1538 L 786 1538 C 757 1538 730 1532 706 1520 C 681 1508 659 1492 639 1472 C 619 1452 602 1428 588 1400 C 574 1372 563 1341 557 1309 L 283 -100 C 275 -139 263 -176 247 -211 C 231 -245 210 -276 185 -303 C 160 -329 131 -350 98 -366 C 64 -381 27 -389 -14 -389 L -96 -389 L -84 -330 L -14 -330 C 14 -330 41 -324 66 -312 C 90 -300 112 -283 132 -263 C 151 -242 168 -218 182 -190 C 196 -162 206 -132 213 -100 L 485 1309 C 493 1347 505 1384 521 1419 C 537 1454 558 1485 583 1511 C 608 1537 637 1558 671 1574 C 705 1589 742 1597 784 1597 L 866 1597 Z" unicode="" />
</font>
</defs>
</svg>
