<?xml version="1.0" encoding="utf-8" ?><svg version="1.1" xmlns = 'http://www.w3.org/2000/svg'><defs><font id='web' horiz-adv-x="1000">
<font-face font-family="web" descent="-467" cap-height="1446" units-per-em="2048" bbox="-293,-469,2726,2009" x-height="1024" ascent="1581" />
<missing-glyph horiz-adv-x="1024" d="M 1024 1446 L 1024 0 L 0 0 L 0 1446 L 1024 1446 Z M 229 219 L 793 219 L 793 1227 L 229 1227 L 229 219 Z" /><glyph horiz-adv-x="469" d="" unicode=" " />
<glyph horiz-adv-x="678" d="M 723 1446 L 668 1163 L 481 506 L 279 506 L 340 1163 L 395 1446 L 723 1446 Z M 510 330 L 444 0 L 117 0 L 180 330 L 510 330 Z" unicode="!" />
<glyph horiz-adv-x="928" d="M 629 1446 L 547 1210 L 391 836 L 197 836 L 279 1225 L 342 1446 L 629 1446 Z M 1034 1446 L 952 1210 L 797 836 L 602 836 L 684 1225 L 748 1446 L 1034 1446 Z" unicode="&#x22;" />
<glyph horiz-adv-x="1665" d="M 328 1198 L 633 1198 L 709 1479 L 901 1479 L 825 1198 L 1174 1198 L 1249 1479 L 1444 1479 L 1368 1198 L 1624 1198 L 1575 942 L 1300 942 L 1194 541 L 1470 541 L 1421 285 L 1124 285 L 1040 -33 L 840 -33 L 926 285 L 582 285 L 498 -33 L 299 -33 L 385 285 L 121 285 L 170 541 L 455 541 L 563 942 L 279 942 L 328 1198 Z M 651 541 L 995 541 L 1104 942 L 758 942 L 651 541 Z" unicode="#" />
<glyph horiz-adv-x="1276" d="M 1141 1008 C 1113 1024 1083 1039 1051 1053 C 1019 1067 986 1080 953 1091 C 920 1101 887 1110 853 1116 C 819 1122 786 1126 754 1126 C 728 1126 703 1123 680 1119 C 656 1115 636 1108 618 1098 C 600 1088 585 1075 575 1059 C 564 1043 559 1023 559 1001 C 559 979 564 960 575 945 C 585 930 601 917 621 905 C 641 893 665 881 693 871 C 721 860 752 848 786 836 C 838 816 885 796 929 774 C 973 752 1011 726 1043 697 C 1075 668 1100 635 1118 597 C 1136 559 1145 514 1145 463 C 1145 403 1132 350 1108 303 C 1084 256 1050 216 1008 183 C 966 149 916 122 860 102 C 804 82 744 69 680 63 L 629 -203 L 391 -203 L 442 70 C 384 78 326 91 266 110 C 206 129 148 155 92 188 L 180 430 C 210 409 243 390 279 373 C 314 356 350 341 388 329 C 425 317 463 307 501 301 C 539 294 576 291 612 291 C 638 291 664 293 690 297 C 716 301 740 308 762 318 C 784 328 801 342 815 360 C 829 377 836 399 836 426 C 836 451 829 472 815 490 C 801 508 783 523 760 537 C 737 551 711 563 681 574 C 651 584 619 596 586 608 C 548 620 509 636 470 654 C 431 672 396 694 364 722 C 332 750 306 783 286 823 C 266 863 256 911 256 969 C 256 1027 267 1080 289 1126 C 311 1172 341 1211 380 1243 C 419 1275 465 1301 519 1320 C 572 1339 630 1351 692 1356 L 733 1565 L 969 1565 L 928 1341 C 978 1331 1027 1317 1076 1301 C 1125 1285 1175 1266 1225 1245 L 1141 1008 Z" unicode="$" />
<glyph horiz-adv-x="1985" d="M 604 1477 C 654 1477 700 1469 741 1453 C 781 1437 816 1415 844 1386 C 872 1356 894 1320 909 1277 C 924 1233 932 1184 932 1130 C 932 1095 929 1058 923 1020 C 917 982 908 944 895 906 C 882 868 865 832 844 798 C 822 764 796 733 764 707 C 732 681 695 660 653 644 C 611 628 562 621 508 621 C 457 621 411 628 371 644 C 331 659 297 681 269 710 C 241 739 219 775 204 818 C 189 860 182 909 182 965 C 182 999 184 1035 190 1074 C 196 1112 205 1150 218 1188 C 231 1226 248 1262 270 1297 C 291 1332 317 1363 349 1389 C 380 1415 417 1437 459 1453 C 501 1469 549 1477 604 1477 Z M 1708 1446 L 606 0 L 375 0 L 1477 1446 L 1708 1446 Z M 592 1296 C 561 1296 534 1290 512 1279 C 490 1267 471 1253 455 1235 C 439 1217 426 1196 416 1173 C 406 1149 399 1126 393 1102 C 387 1078 384 1054 382 1032 C 380 1009 379 989 379 973 C 379 949 381 927 386 907 C 390 886 398 868 409 852 C 419 836 434 824 452 815 C 470 805 492 801 520 801 C 550 801 577 806 600 817 C 622 828 641 843 657 861 C 673 879 686 900 696 923 C 706 946 713 969 719 993 C 724 1017 728 1040 730 1062 C 732 1084 733 1104 733 1122 C 733 1144 730 1166 726 1187 C 721 1208 713 1227 703 1243 C 692 1259 677 1271 659 1281 C 641 1291 618 1296 592 1296 Z M 1573 825 C 1623 825 1669 817 1710 801 C 1750 785 1785 763 1813 734 C 1841 704 1863 668 1878 625 C 1893 582 1901 533 1901 479 C 1901 444 1898 407 1892 369 C 1886 330 1877 292 1864 254 C 1850 216 1833 180 1811 146 C 1789 112 1763 81 1732 55 C 1700 29 1664 8 1622 -7 C 1580 -23 1531 -31 1477 -31 C 1425 -31 1379 -23 1339 -8 C 1298 7 1264 29 1236 59 C 1208 88 1186 124 1171 167 C 1156 209 1149 258 1149 313 C 1149 347 1151 383 1157 422 C 1163 460 1172 499 1186 537 C 1199 575 1216 611 1238 646 C 1259 680 1285 711 1317 738 C 1348 764 1385 785 1427 801 C 1469 817 1518 825 1573 825 Z M 1561 645 C 1530 645 1503 639 1481 628 C 1458 616 1439 602 1423 584 C 1407 566 1394 545 1384 522 C 1374 498 1366 475 1360 451 C 1354 427 1351 403 1349 381 C 1347 358 1346 338 1346 322 C 1346 298 1348 276 1352 256 C 1356 235 1364 217 1375 201 C 1386 185 1401 173 1419 164 C 1437 154 1459 150 1487 150 C 1517 150 1544 155 1567 166 C 1590 177 1609 192 1625 210 C 1641 228 1654 249 1664 272 C 1674 295 1681 318 1687 342 C 1693 366 1697 389 1699 411 C 1701 433 1702 453 1702 471 C 1702 493 1699 515 1695 536 C 1690 557 1682 576 1672 592 C 1661 608 1646 620 1628 630 C 1610 640 1587 645 1561 645 Z" unicode="%" />
<glyph horiz-adv-x="1491" d="M 1206 1147 C 1206 1093 1195 1046 1175 1006 C 1154 965 1127 929 1093 898 C 1059 866 1020 839 977 816 C 934 792 890 772 846 754 L 1034 500 C 1058 522 1084 547 1110 575 C 1136 602 1161 628 1184 653 C 1206 677 1226 699 1243 719 C 1259 738 1270 752 1276 760 L 1497 641 C 1477 619 1455 596 1430 570 C 1405 544 1379 518 1352 490 C 1324 462 1296 433 1267 404 C 1238 375 1210 347 1182 319 C 1216 290 1254 269 1295 256 C 1335 242 1377 231 1419 223 L 1337 -27 C 1271 -19 1208 -3 1148 22 C 1088 48 1030 87 975 139 C 941 113 906 90 871 70 C 835 49 799 31 761 17 C 723 2 684 -9 644 -17 C 603 -25 560 -29 516 -29 C 458 -29 401 -22 345 -8 C 288 6 237 28 192 60 C 146 92 109 133 81 183 C 53 233 39 295 39 367 C 39 425 48 478 68 528 C 88 577 115 621 151 661 C 186 701 229 735 279 765 C 329 794 384 818 444 838 C 430 857 417 877 405 897 C 393 917 382 938 373 960 C 364 982 357 1005 352 1029 C 346 1053 344 1078 344 1106 C 344 1160 355 1211 377 1257 C 399 1303 430 1342 469 1375 C 508 1408 554 1434 608 1453 C 662 1471 720 1481 784 1481 C 834 1481 885 1474 935 1461 C 985 1448 1031 1428 1071 1401 C 1111 1374 1143 1339 1168 1297 C 1193 1255 1206 1205 1206 1147 Z M 559 219 C 608 219 654 229 698 250 C 741 270 783 296 823 326 L 573 666 C 545 654 519 641 493 625 C 467 609 443 591 423 570 C 403 548 386 524 374 498 C 362 471 356 441 356 408 C 356 380 360 354 370 331 C 379 307 392 287 410 271 C 428 254 449 241 474 232 C 499 223 527 219 559 219 Z M 621 1118 C 621 1098 623 1080 629 1062 C 635 1044 642 1027 652 1010 C 662 993 673 977 685 961 C 697 945 709 929 721 915 C 747 925 774 938 800 952 C 826 966 849 982 870 1000 C 890 1018 907 1038 920 1061 C 933 1083 940 1109 940 1137 C 940 1158 936 1177 929 1195 C 921 1213 911 1228 898 1240 C 884 1252 869 1262 851 1269 C 833 1276 813 1280 793 1280 C 771 1280 750 1276 730 1269 C 709 1261 691 1251 675 1237 C 659 1223 646 1206 636 1186 C 626 1166 621 1143 621 1118 Z" unicode="&#x26;" />
<glyph horiz-adv-x="518" d="M 629 1446 L 547 1210 L 391 836 L 197 836 L 279 1225 L 342 1446 L 629 1446 Z" unicode="'" />
<glyph horiz-adv-x="786" d="M 375 -346 C 339 -310 305 -266 273 -214 C 241 -162 214 -103 190 -38 C 166 27 147 98 133 175 C 119 251 113 332 113 416 C 113 530 126 643 154 753 C 182 863 222 967 275 1066 C 328 1164 393 1256 470 1341 C 547 1425 635 1499 733 1563 L 987 1563 L 977 1511 C 914 1474 856 1431 803 1381 C 749 1331 701 1276 657 1216 C 613 1156 575 1093 541 1026 C 507 959 479 890 456 819 C 433 748 416 676 404 603 C 392 530 387 458 387 387 C 387 317 392 249 402 181 C 412 113 427 49 447 -11 C 467 -71 490 -125 518 -175 C 546 -224 577 -265 612 -297 L 602 -346 L 375 -346 Z" unicode="(" />
<glyph horiz-adv-x="788" d="M -139 -346 L -129 -297 C -66 -260 -8 -217 45 -167 C 98 -117 146 -62 190 -2 C 234 57 272 120 306 187 C 340 254 368 323 391 394 C 414 465 431 537 443 610 C 455 683 461 755 461 827 C 461 897 455 966 445 1034 C 435 1102 420 1167 400 1227 C 380 1287 357 1341 329 1390 C 301 1438 270 1479 236 1511 L 246 1563 L 471 1563 C 507 1527 541 1482 573 1430 C 605 1377 632 1318 656 1253 C 680 1187 698 1116 712 1040 C 726 963 733 883 733 799 C 733 685 719 573 691 463 C 663 353 623 248 571 149 C 518 50 453 -41 377 -125 C 300 -209 213 -283 115 -346 L -139 -346 Z" unicode=")" />
<glyph horiz-adv-x="885" d="M 487 1174 L 508 1190 L 492 1325 L 518 1458 L 731 1419 L 700 1284 L 637 1163 L 651 1143 L 774 1202 L 913 1217 L 940 1008 L 803 989 L 662 1012 L 651 989 L 743 889 L 809 766 L 612 674 L 555 799 L 537 940 L 512 946 L 440 821 L 342 727 L 195 885 L 297 977 L 426 1038 L 424 1065 L 283 1092 L 166 1159 L 270 1343 L 385 1278 L 487 1174 Z" unicode="*" />
<glyph horiz-adv-x="1249" d="M 766 1223 L 766 741 L 1241 741 L 1241 479 L 766 479 L 766 0 L 487 0 L 487 479 L 8 479 L 8 741 L 487 741 L 487 1223 L 766 1223 Z" unicode="+" />
<glyph horiz-adv-x="508" d="M 461 330 L 102 -293 L -98 -293 L 131 330 L 461 330 Z" unicode="," />
<glyph horiz-adv-x="707" d="M 674 748 L 621 479 L 88 479 L 139 748 L 674 748 Z" unicode="-" />
<glyph horiz-adv-x="508" d="M 393 330 L 330 0 L 2 0 L 66 330 L 393 330 Z" unicode="." />
<glyph horiz-adv-x="1122" d="M 1255 1446 L 145 -236 L -100 -236 L 1004 1446 L 1255 1446 Z" unicode="/" />
<glyph horiz-adv-x="1307" d="M 801 1475 C 881 1475 950 1460 1009 1432 C 1067 1404 1116 1365 1154 1315 C 1192 1265 1221 1205 1240 1136 C 1258 1067 1268 992 1268 911 C 1268 873 1265 831 1261 785 C 1257 738 1249 689 1239 638 C 1229 587 1215 535 1198 483 C 1180 431 1159 380 1134 331 C 1108 281 1078 235 1044 192 C 1010 148 970 111 925 79 C 880 47 830 21 774 3 C 718 -15 655 -25 586 -25 C 505 -25 435 -11 377 17 C 318 45 269 84 231 134 C 193 184 164 243 146 312 C 128 381 119 457 119 539 C 119 576 121 618 125 665 C 129 711 137 760 147 811 C 157 862 171 914 189 966 C 206 1018 227 1069 253 1119 C 278 1168 308 1214 342 1258 C 376 1301 416 1339 461 1371 C 506 1403 557 1428 613 1447 C 669 1465 731 1475 801 1475 Z M 965 920 C 965 954 962 988 956 1022 C 950 1056 941 1087 927 1114 C 913 1141 893 1163 869 1180 C 845 1197 814 1206 778 1206 C 732 1206 692 1194 657 1171 C 622 1147 591 1117 565 1079 C 539 1041 517 998 499 950 C 481 902 466 853 455 803 C 444 753 436 704 431 657 C 426 609 424 568 424 532 C 424 495 426 459 432 425 C 437 390 447 359 461 333 C 475 306 493 284 517 268 C 541 252 571 244 608 244 C 646 244 681 252 712 268 C 743 284 771 305 795 332 C 819 358 839 389 857 424 C 875 459 890 496 903 534 C 915 572 926 611 934 650 C 942 689 948 726 953 761 C 957 795 960 826 962 854 C 964 882 965 904 965 920 Z" unicode="0" />
<glyph horiz-adv-x="956" d="M 279 0 L 496 1116 L 514 1182 L 506 1182 L 162 1047 L 213 1307 L 616 1446 L 885 1446 L 840 1292 L 588 0 L 279 0 Z" unicode="1" />
<glyph horiz-adv-x="1343" d="M 627 651 C 673 683 717 715 760 747 C 803 779 841 812 875 845 C 908 878 935 912 955 946 C 975 980 985 1015 985 1051 C 985 1072 981 1093 974 1113 C 966 1133 955 1150 940 1166 C 925 1181 906 1193 883 1203 C 860 1212 833 1217 803 1217 C 752 1217 702 1201 654 1171 C 606 1141 556 1091 506 1022 L 274 1135 C 299 1177 329 1218 364 1259 C 398 1299 439 1336 486 1368 C 532 1400 586 1425 646 1445 C 706 1465 775 1475 852 1475 C 914 1475 974 1467 1030 1453 C 1086 1438 1135 1415 1178 1384 C 1220 1352 1254 1312 1279 1264 C 1304 1215 1317 1157 1317 1090 C 1317 1039 1310 992 1296 949 C 1282 906 1262 865 1235 826 C 1208 787 1174 749 1134 713 C 1094 676 1047 638 993 600 L 520 254 L 1165 254 L 1114 0 L 49 0 L 98 258 L 627 651 Z" unicode="2" />
<glyph horiz-adv-x="1214" d="M 172 1260 C 194 1286 222 1311 256 1337 C 290 1363 329 1386 373 1406 C 417 1426 465 1443 518 1456 C 571 1468 628 1475 688 1475 C 746 1475 804 1468 862 1454 C 919 1440 970 1418 1015 1389 C 1059 1360 1095 1323 1123 1279 C 1151 1234 1165 1181 1165 1120 C 1165 1080 1159 1042 1147 1007 C 1135 971 1117 939 1094 910 C 1071 880 1043 854 1010 832 C 977 810 939 792 897 778 L 895 764 C 924 755 951 743 976 728 C 1001 712 1023 693 1041 669 C 1059 645 1074 618 1084 586 C 1094 554 1100 517 1100 475 C 1100 411 1088 354 1066 304 C 1043 254 1012 209 973 170 C 934 131 889 98 837 70 C 785 42 729 20 671 2 C 612 -15 552 -28 490 -36 C 428 -44 367 -49 309 -49 C 267 -49 223 -47 178 -43 C 133 -39 93 -35 57 -29 L 57 238 C 75 234 95 230 118 227 C 141 223 165 220 189 218 C 213 216 237 214 261 213 C 285 211 306 211 326 211 C 358 211 391 212 427 216 C 462 220 497 226 531 234 C 565 242 598 253 629 267 C 659 281 686 297 710 317 C 733 337 751 360 765 387 C 779 413 786 444 786 479 C 786 506 781 529 772 548 C 762 567 750 583 734 595 C 718 607 700 615 680 621 C 659 626 637 629 614 629 C 593 629 563 627 524 624 C 485 620 435 615 375 608 L 375 848 L 567 862 C 595 863 625 868 658 877 C 690 886 721 899 749 917 C 777 935 800 957 819 984 C 838 1010 848 1042 848 1079 C 848 1103 843 1125 834 1143 C 824 1161 811 1177 794 1189 C 777 1201 757 1210 733 1216 C 709 1222 683 1225 655 1225 C 605 1225 556 1214 508 1194 C 459 1173 406 1142 348 1100 L 172 1260 L 172 1260 Z" unicode="3" />
<glyph horiz-adv-x="1335" d="M 1219 1446 L 1038 520 L 1255 520 L 1208 283 L 991 283 L 938 0 L 629 0 L 682 283 L 41 283 L 90 537 L 881 1446 L 1219 1446 Z M 348 520 L 729 520 L 805 899 L 854 1083 L 844 1085 L 348 520 Z" unicode="4" />
<glyph horiz-adv-x="1255" d="M 86 238 C 129 229 174 222 220 218 C 266 213 312 211 356 211 C 417 211 478 217 538 229 C 598 241 652 260 700 286 C 748 312 786 347 816 389 C 845 431 860 482 860 543 C 860 579 854 610 843 635 C 831 660 815 680 795 695 C 775 710 751 721 723 727 C 695 733 665 737 633 737 C 603 737 575 734 549 729 C 523 723 498 716 474 706 C 450 696 426 685 402 671 C 378 657 353 641 328 623 L 164 709 L 362 1446 L 1243 1446 L 1192 1192 L 549 1192 L 467 887 C 513 917 559 939 606 951 C 652 963 700 969 748 969 C 800 969 851 961 901 947 C 950 933 994 910 1032 878 C 1070 846 1101 804 1124 752 C 1147 700 1159 636 1159 561 C 1159 461 1138 374 1097 298 C 1056 222 999 158 925 107 C 851 55 763 16 661 -9 C 559 -35 446 -49 324 -49 C 310 -49 294 -48 274 -48 C 254 -47 234 -46 212 -44 C 190 -42 169 -40 147 -38 C 125 -35 104 -32 86 -29 L 86 238 Z" unicode="5" />
<glyph horiz-adv-x="1262" d="M 940 1483 C 996 1483 1046 1479 1088 1473 C 1130 1466 1164 1460 1190 1454 L 1190 1196 C 1158 1203 1121 1210 1077 1217 C 1033 1223 988 1227 940 1227 C 917 1227 894 1225 870 1223 C 846 1221 822 1217 798 1212 C 774 1206 750 1199 726 1189 C 702 1179 680 1167 659 1153 C 613 1121 572 1077 538 1022 C 503 966 476 900 457 823 C 480 848 505 869 533 885 C 561 901 589 914 618 924 C 647 934 676 940 705 944 C 734 948 762 950 788 950 C 846 950 902 941 954 924 C 1006 906 1051 880 1089 846 C 1127 811 1158 767 1180 715 C 1202 662 1214 600 1214 530 C 1214 456 1201 386 1175 318 C 1149 250 1111 191 1061 140 C 1010 88 947 47 872 17 C 796 -13 709 -29 610 -29 C 536 -29 469 -19 407 1 C 345 21 291 52 246 96 C 200 139 165 195 140 263 C 114 331 102 414 102 512 C 102 555 104 601 110 651 C 116 701 125 751 138 803 C 150 855 167 906 187 958 C 207 1010 232 1060 261 1108 C 289 1156 322 1201 360 1243 C 398 1285 441 1323 489 1356 C 549 1397 616 1428 690 1450 C 764 1472 847 1483 940 1483 Z M 666 719 C 626 719 589 713 557 701 C 524 689 496 673 472 651 C 448 629 430 602 418 570 C 405 538 399 503 399 463 C 399 427 404 394 414 364 C 424 334 440 309 460 288 C 480 267 504 251 533 240 C 562 228 595 223 633 223 C 675 223 713 230 747 245 C 780 259 808 279 831 305 C 854 330 872 359 884 392 C 896 425 903 460 903 498 C 903 534 897 565 886 593 C 874 620 858 643 838 662 C 817 680 792 694 763 704 C 734 714 702 719 666 719 Z" unicode="6" />
<glyph horiz-adv-x="1143" d="M 1247 1446 L 1206 1235 C 1161 1195 1116 1153 1070 1108 C 1024 1062 979 1013 934 959 C 888 905 843 845 799 781 C 755 716 712 644 670 566 C 628 488 587 402 548 308 C 508 214 471 112 436 0 L 98 0 C 138 134 186 257 242 370 C 297 483 357 588 421 685 C 485 782 551 872 621 956 C 690 1039 759 1118 827 1192 L 176 1192 L 225 1446 L 1247 1446 Z" unicode="7" />
<glyph horiz-adv-x="1327" d="M 403 809 C 359 829 324 862 296 906 C 268 950 254 1004 254 1069 C 254 1133 267 1191 295 1241 C 323 1291 360 1334 408 1369 C 455 1403 511 1430 575 1448 C 639 1466 707 1475 780 1475 C 820 1475 860 1472 902 1466 C 943 1460 983 1450 1022 1438 C 1061 1425 1098 1409 1132 1389 C 1166 1369 1196 1346 1222 1319 C 1248 1291 1268 1260 1283 1225 C 1297 1189 1305 1150 1305 1106 C 1305 1066 1298 1027 1286 989 C 1274 951 1256 917 1233 886 C 1209 854 1181 827 1148 804 C 1115 781 1078 764 1038 754 L 1034 739 C 1058 728 1080 714 1102 697 C 1124 679 1143 658 1159 634 C 1175 609 1187 580 1197 548 C 1207 515 1212 478 1212 436 C 1212 364 1198 299 1170 242 C 1142 184 1103 136 1053 97 C 1003 57 943 27 873 6 C 803 -14 727 -25 643 -25 C 599 -25 555 -22 511 -16 C 466 -10 423 0 382 13 C 341 26 303 43 267 64 C 231 85 199 110 173 140 C 147 170 126 204 111 244 C 95 284 88 329 88 379 C 88 425 95 471 109 516 C 123 561 144 602 171 640 C 197 677 230 709 269 736 C 307 763 351 783 401 795 L 403 809 Z M 788 1247 C 754 1247 723 1242 695 1234 C 666 1225 641 1212 620 1195 C 598 1178 581 1157 569 1132 C 557 1107 551 1079 551 1047 C 551 1013 557 985 569 962 C 581 939 598 920 618 906 C 638 891 660 880 686 874 C 712 867 738 864 766 864 C 800 864 831 869 860 879 C 888 889 913 904 934 922 C 954 940 970 962 982 988 C 993 1013 999 1041 999 1071 C 999 1099 993 1125 983 1147 C 973 1169 958 1187 940 1202 C 921 1216 899 1227 873 1235 C 847 1243 818 1247 788 1247 Z M 401 420 C 400 384 406 353 418 327 C 430 301 446 279 468 262 C 490 245 515 233 544 225 C 573 217 605 213 639 213 C 683 213 722 219 756 231 C 790 243 818 260 841 281 C 864 302 881 327 893 356 C 905 384 911 415 911 449 C 911 483 905 512 893 538 C 881 563 864 584 842 600 C 820 616 795 629 766 637 C 736 645 704 649 670 649 C 626 649 588 643 555 633 C 521 622 493 607 471 587 C 448 567 431 542 419 514 C 407 486 401 454 401 420 Z" unicode="8" />
<glyph horiz-adv-x="1262" d="M 403 -39 C 347 -39 298 -35 256 -29 C 213 -23 179 -16 154 -10 L 154 248 C 184 240 222 233 266 227 C 310 220 355 217 403 217 C 449 217 497 222 546 232 C 594 242 640 263 684 293 C 730 325 770 368 805 423 C 840 477 867 543 887 621 C 863 596 838 576 810 560 C 782 544 753 531 724 521 C 695 511 666 505 637 501 C 608 497 581 496 555 496 C 495 496 440 504 388 522 C 336 539 291 565 253 599 C 215 633 184 677 162 729 C 140 781 129 843 129 913 C 129 987 141 1057 167 1125 C 193 1193 231 1252 282 1304 C 332 1356 395 1397 471 1428 C 546 1459 633 1475 733 1475 C 806 1475 874 1465 936 1445 C 998 1425 1051 1393 1097 1349 C 1142 1305 1177 1249 1203 1181 C 1228 1112 1241 1029 1241 932 C 1241 888 1238 842 1232 793 C 1226 743 1217 693 1205 642 C 1193 590 1177 539 1157 487 C 1137 435 1112 385 1084 337 C 1055 289 1022 243 984 201 C 946 159 902 121 854 88 C 794 46 727 15 654 -6 C 580 -28 497 -39 403 -39 Z M 680 727 C 720 727 757 732 790 744 C 822 756 850 773 873 795 C 896 817 914 843 926 875 C 938 906 944 941 944 981 C 944 1017 938 1049 928 1079 C 918 1109 903 1134 883 1156 C 863 1177 839 1193 810 1205 C 781 1217 748 1223 711 1223 C 668 1223 630 1215 597 1201 C 563 1186 535 1166 512 1141 C 489 1115 472 1086 460 1052 C 448 1018 442 983 442 946 C 442 874 463 819 506 782 C 549 745 607 727 680 727 Z" unicode="9" />
<glyph horiz-adv-x="637" d="M 457 330 L 393 0 L 66 0 L 129 330 L 457 330 Z M 602 1077 L 537 748 L 209 748 L 274 1077 L 602 1077 Z" unicode=":" />
<glyph horiz-adv-x="637" d="M 506 330 L 147 -293 L -53 -293 L 176 330 L 506 330 Z M 604 1077 L 541 748 L 213 748 L 276 1077 L 604 1077 Z" unicode=";" />
<glyph horiz-adv-x="1249" d="M 1188 1219 L 1188 920 L 598 668 L 467 625 L 467 598 L 598 559 L 1188 305 L 1188 6 L 61 524 L 61 700 L 1188 1219 Z" unicode="&#x3C;" />
<glyph horiz-adv-x="1249" d="M 1188 1008 L 1188 745 L 61 745 L 61 1008 L 1188 1008 Z M 1188 479 L 1188 215 L 61 215 L 61 479 L 1188 479 Z" unicode="=" />
<glyph horiz-adv-x="1249" d="M 1188 700 L 1188 524 L 61 6 L 61 305 L 651 559 L 784 598 L 784 625 L 651 668 L 61 920 L 61 1219 L 1188 700 Z" unicode="&#x3E;" />
<glyph horiz-adv-x="920" d="M 215 1360 C 235 1374 260 1389 290 1404 C 320 1418 352 1431 388 1443 C 423 1455 460 1464 499 1472 C 538 1479 578 1483 618 1483 C 669 1483 718 1476 765 1464 C 812 1452 854 1432 890 1406 C 926 1379 954 1345 976 1304 C 997 1263 1008 1214 1008 1157 C 1008 1105 999 1059 982 1019 C 965 979 942 943 914 909 C 886 875 853 843 815 813 C 777 783 738 751 698 719 C 674 699 652 681 634 665 C 616 649 600 632 586 616 C 572 600 561 583 552 565 C 543 547 536 528 530 506 L 262 506 C 268 544 277 579 288 611 C 298 643 314 674 336 704 C 358 734 387 766 423 798 C 459 830 505 867 563 909 C 580 921 598 935 617 950 C 636 964 654 980 670 997 C 686 1014 699 1032 709 1052 C 719 1071 725 1092 725 1116 C 725 1153 711 1181 683 1201 C 655 1221 617 1231 571 1231 C 536 1231 497 1225 454 1213 C 410 1201 363 1182 311 1157 L 215 1360 Z M 537 330 L 473 0 L 145 0 L 209 330 L 537 330 Z" unicode="?" />
<glyph horiz-adv-x="2103" d="M 1642 1004 L 1413 469 C 1403 444 1394 422 1386 404 C 1378 385 1374 367 1374 350 C 1374 299 1402 274 1460 274 C 1487 274 1515 279 1543 291 C 1571 302 1599 318 1627 340 C 1654 361 1680 387 1704 417 C 1728 447 1750 480 1768 517 C 1786 554 1800 594 1811 638 C 1821 682 1827 728 1827 776 C 1827 850 1813 918 1787 980 C 1760 1042 1722 1096 1672 1141 C 1622 1186 1562 1221 1491 1246 C 1419 1271 1339 1284 1249 1284 C 1171 1284 1095 1274 1020 1256 C 945 1237 874 1210 807 1175 C 739 1139 677 1096 620 1046 C 562 996 513 939 471 876 C 429 812 397 743 373 668 C 349 592 338 512 338 428 C 338 320 356 226 394 146 C 431 66 481 0 544 -52 C 606 -104 679 -144 762 -170 C 844 -196 931 -209 1022 -209 C 1074 -209 1125 -205 1177 -197 C 1229 -189 1278 -179 1326 -167 C 1374 -155 1418 -141 1460 -126 C 1501 -111 1537 -96 1569 -82 L 1614 -244 C 1581 -261 1541 -278 1495 -296 C 1449 -314 1398 -330 1343 -344 C 1288 -358 1230 -370 1170 -379 C 1109 -388 1048 -393 987 -393 C 914 -393 842 -385 771 -371 C 699 -356 631 -334 567 -305 C 502 -275 442 -238 387 -194 C 332 -150 284 -98 244 -38 C 204 21 172 88 149 164 C 126 239 115 322 115 414 C 115 518 130 617 160 710 C 190 802 231 888 284 966 C 337 1044 400 1114 473 1176 C 546 1238 625 1291 711 1334 C 796 1377 886 1410 981 1433 C 1076 1456 1172 1468 1270 1468 C 1388 1468 1495 1451 1589 1417 C 1683 1383 1764 1337 1830 1277 C 1896 1217 1946 1147 1981 1065 C 2016 983 2034 893 2034 797 C 2034 725 2025 658 2007 595 C 1989 531 1964 473 1933 420 C 1901 366 1865 319 1823 277 C 1781 235 1737 199 1689 170 C 1641 141 1592 119 1542 103 C 1491 87 1441 80 1393 80 C 1363 80 1334 83 1306 89 C 1278 95 1252 105 1230 119 C 1207 133 1188 152 1174 176 C 1159 200 1151 229 1151 264 C 1099 204 1045 158 990 128 C 934 97 879 82 825 82 C 791 82 759 88 729 100 C 698 112 671 130 647 156 C 623 182 604 214 590 254 C 576 294 569 341 569 397 C 569 457 577 514 594 569 C 610 623 633 674 661 721 C 689 768 721 811 758 849 C 794 887 833 920 873 947 C 913 974 953 995 993 1010 C 1033 1024 1072 1032 1108 1032 C 1164 1032 1211 1014 1249 979 C 1286 944 1313 896 1331 836 L 1403 1004 L 1642 1004 Z M 930 307 C 960 307 995 317 1035 337 C 1075 357 1115 388 1157 430 L 1251 647 C 1247 669 1242 690 1234 710 C 1226 729 1215 746 1203 760 C 1191 774 1177 785 1161 793 C 1145 801 1128 805 1110 805 C 1084 805 1054 796 1022 778 C 989 760 958 736 929 704 C 900 672 876 635 856 591 C 836 547 827 498 827 446 C 827 396 836 360 855 339 C 873 317 898 307 930 307 Z" unicode="@" />
<glyph horiz-adv-x="1436" d="M 279 0 L -57 0 L 735 1446 L 1090 1446 L 1313 0 L 969 0 L 936 287 L 422 287 L 279 0 Z M 551 543 L 907 543 L 860 971 L 850 1110 L 831 1110 L 766 971 L 551 543 Z" unicode="A" />
<glyph horiz-adv-x="1425" d="M 928 1446 C 991 1446 1051 1439 1107 1425 C 1163 1411 1213 1390 1255 1362 C 1297 1334 1331 1298 1356 1254 C 1380 1210 1393 1158 1393 1098 C 1393 1054 1385 1013 1370 974 C 1355 934 1334 899 1307 868 C 1280 836 1247 810 1209 788 C 1171 766 1129 751 1083 743 L 1081 729 C 1114 720 1145 708 1175 693 C 1204 677 1230 657 1252 633 C 1274 608 1291 578 1304 544 C 1316 509 1323 468 1323 422 C 1323 349 1309 286 1283 233 C 1256 180 1219 136 1173 102 C 1126 67 1071 41 1007 25 C 943 8 873 0 799 0 L 76 0 L 356 1446 L 928 1446 Z M 510 623 L 438 246 L 776 246 C 807 246 836 250 862 258 C 888 266 911 279 930 295 C 949 311 964 332 975 356 C 985 380 991 407 991 438 C 991 494 971 538 933 572 C 894 606 838 623 766 623 L 510 623 Z M 553 852 L 825 852 C 855 852 884 855 912 863 C 940 871 964 882 986 898 C 1008 914 1025 934 1038 958 C 1050 982 1057 1010 1057 1044 C 1057 1094 1040 1132 1007 1159 C 973 1186 924 1200 858 1200 L 621 1200 L 553 852 Z" unicode="B" />
<glyph horiz-adv-x="1343" d="M 1161 41 C 1117 18 1066 1 1010 -10 C 954 -21 887 -27 811 -27 C 715 -27 626 -14 544 10 C 462 34 391 72 331 123 C 271 174 224 238 190 316 C 156 394 139 486 139 592 C 139 666 146 740 162 813 C 178 885 201 954 232 1020 C 263 1085 301 1145 347 1201 C 393 1257 446 1305 506 1345 C 566 1385 632 1417 706 1440 C 780 1463 860 1475 948 1475 C 987 1475 1027 1472 1069 1467 C 1111 1461 1152 1453 1193 1441 C 1234 1429 1274 1413 1313 1395 C 1351 1376 1387 1353 1421 1327 L 1307 1075 C 1281 1093 1252 1111 1222 1127 C 1191 1143 1159 1156 1127 1168 C 1094 1179 1061 1188 1027 1194 C 993 1200 959 1204 926 1204 C 846 1204 778 1187 720 1155 C 662 1122 615 1079 577 1025 C 539 971 510 909 492 840 C 474 770 465 699 465 627 C 465 505 496 410 560 343 C 623 275 720 242 852 242 C 914 242 970 248 1020 260 C 1070 272 1117 287 1161 305 L 1161 41 Z" unicode="C" />
<glyph horiz-adv-x="1524" d="M 805 1446 C 910 1446 1005 1432 1090 1404 C 1174 1376 1246 1334 1306 1280 C 1365 1225 1411 1158 1443 1078 C 1475 998 1491 905 1491 801 C 1491 731 1483 663 1468 597 C 1452 530 1429 467 1399 408 C 1368 348 1329 294 1283 244 C 1237 194 1183 151 1121 115 C 1059 79 990 50 912 30 C 834 10 748 0 655 0 L 76 0 L 354 1446 L 805 1446 Z M 618 1194 L 436 252 L 657 252 C 737 252 809 266 873 296 C 936 325 989 364 1033 414 C 1077 464 1110 521 1133 587 C 1155 652 1167 721 1167 793 C 1167 846 1160 897 1146 945 C 1132 993 1109 1036 1078 1073 C 1047 1110 1006 1139 956 1161 C 906 1183 844 1194 772 1194 L 618 1194 Z" unicode="D" />
<glyph horiz-adv-x="1309" d="M 555 872 L 1161 872 L 1112 616 L 506 616 L 434 252 L 1155 252 L 1108 0 L 76 0 L 356 1446 L 1368 1446 L 1319 1194 L 618 1194 L 555 872 Z" unicode="E" />
<glyph horiz-adv-x="1188" d="M 555 866 L 1108 866 L 1061 610 L 506 610 L 387 0 L 76 0 L 356 1446 L 1317 1446 L 1268 1194 L 618 1194 L 555 866 Z" unicode="F" />
<glyph horiz-adv-x="1526" d="M 1384 1087 C 1354 1103 1323 1119 1289 1133 C 1255 1147 1220 1160 1184 1171 C 1148 1181 1111 1189 1073 1195 C 1035 1201 999 1204 963 1204 C 879 1204 806 1189 744 1159 C 681 1129 628 1088 586 1037 C 544 986 512 927 491 860 C 469 792 459 721 459 647 C 459 571 469 506 490 453 C 511 399 541 356 579 322 C 617 288 662 264 715 248 C 767 232 825 225 889 225 C 919 225 948 226 975 229 C 1002 231 1031 236 1061 244 L 1120 553 L 791 553 L 838 803 L 1440 803 L 1290 33 C 1267 23 1240 14 1208 7 C 1176 0 1141 -6 1105 -11 C 1068 -16 1030 -20 992 -23 C 953 -25 916 -27 881 -27 C 777 -27 680 -15 590 9 C 500 33 421 71 354 123 C 287 175 234 242 196 324 C 158 406 139 506 139 623 C 139 699 147 773 165 845 C 182 917 207 984 240 1047 C 273 1110 314 1168 363 1220 C 412 1272 468 1317 531 1355 C 594 1393 664 1422 742 1443 C 819 1464 903 1475 993 1475 C 1033 1475 1076 1472 1121 1468 C 1166 1463 1211 1455 1256 1444 C 1300 1433 1344 1419 1386 1402 C 1428 1384 1467 1363 1503 1337 L 1384 1087 Z" unicode="G" />
<glyph horiz-adv-x="1536" d="M 553 858 L 1137 858 L 1251 1446 L 1563 1446 L 1282 0 L 971 0 L 1087 602 L 504 602 L 387 0 L 76 0 L 356 1446 L 668 1446 L 553 858 Z" unicode="H" />
<glyph horiz-adv-x="643" d="M 670 1446 L 389 0 L 76 0 L 356 1446 L 670 1446 Z" unicode="I" />
<glyph horiz-adv-x="1040" d="M 90 356 C 106 342 125 328 147 315 C 168 302 190 290 214 280 C 237 270 261 261 286 255 C 310 249 335 246 360 246 C 394 246 424 252 449 265 C 473 277 494 296 511 321 C 528 346 542 377 554 414 C 566 450 576 493 586 541 L 758 1446 L 1071 1446 L 868 397 C 854 329 835 268 809 216 C 783 163 750 119 710 83 C 670 47 622 19 567 1 C 512 -17 449 -27 377 -27 C 230 -27 100 21 -12 117 L 90 356 Z" unicode="J" />
<glyph horiz-adv-x="1481" d="M 549 842 L 1192 1446 L 1604 1446 L 930 860 L 1372 0 L 1004 0 L 698 657 L 477 465 L 387 0 L 76 0 L 356 1446 L 668 1446 L 549 842 Z" unicode="K" />
<glyph horiz-adv-x="1106" d="M 668 1446 L 434 252 L 1024 252 L 975 0 L 76 0 L 356 1446 L 668 1446 Z" unicode="L" />
<glyph horiz-adv-x="1917" d="M 793 1446 L 952 477 L 961 477 L 1489 1446 L 1944 1446 L 1663 0 L 1356 0 L 1499 735 L 1567 1036 L 1552 1036 L 985 0 L 752 0 L 584 1036 L 571 1036 L 522 735 L 379 0 L 76 0 L 356 1446 L 793 1446 Z" unicode="M" />
<glyph horiz-adv-x="1538" d="M 356 1446 L 719 1446 L 987 696 L 1063 428 L 1085 428 L 1133 784 L 1260 1446 L 1565 1446 L 1284 0 L 930 0 L 653 750 L 578 1018 L 555 1018 L 510 662 L 381 0 L 76 0 L 356 1446 Z" unicode="N" />
<glyph horiz-adv-x="1606" d="M 934 1475 C 1026 1475 1112 1461 1190 1435 C 1268 1408 1336 1368 1393 1314 C 1450 1260 1495 1194 1527 1114 C 1559 1034 1575 942 1575 836 C 1575 765 1567 695 1552 625 C 1537 555 1515 488 1485 424 C 1455 360 1418 300 1374 245 C 1329 190 1277 142 1218 102 C 1158 62 1091 30 1017 7 C 943 -15 861 -27 772 -27 C 680 -27 595 -13 517 13 C 439 39 371 79 315 133 C 258 186 214 252 182 332 C 150 412 135 504 135 610 C 135 680 142 751 157 821 C 172 891 195 959 225 1023 C 255 1087 292 1146 336 1201 C 380 1256 432 1304 492 1345 C 551 1385 617 1417 691 1440 C 765 1463 846 1475 934 1475 Z M 1251 817 C 1251 876 1243 930 1229 978 C 1215 1026 1194 1066 1166 1100 C 1138 1134 1103 1160 1061 1178 C 1019 1196 970 1206 915 1206 C 861 1206 813 1197 769 1181 C 725 1165 687 1142 653 1114 C 619 1086 589 1053 564 1015 C 539 977 519 937 503 895 C 487 852 475 808 467 762 C 459 716 455 672 455 629 C 455 569 462 516 476 468 C 490 420 512 380 540 347 C 568 313 604 287 646 269 C 688 251 737 242 793 242 C 846 242 894 250 938 266 C 981 282 1019 305 1053 333 C 1087 361 1116 394 1141 432 C 1166 469 1187 509 1203 552 C 1219 594 1231 638 1239 684 C 1247 729 1251 773 1251 817 Z" unicode="O" />
<glyph horiz-adv-x="1333" d="M 489 526 L 389 0 L 76 0 L 356 1446 L 866 1446 C 945 1446 1016 1438 1079 1423 C 1142 1407 1197 1382 1245 1346 C 1287 1312 1320 1271 1344 1222 C 1368 1172 1380 1113 1380 1044 C 1380 965 1367 893 1342 828 C 1317 763 1281 708 1233 662 C 1185 617 1128 583 1061 560 C 993 537 913 526 819 526 L 489 526 Z M 539 780 L 825 780 C 863 780 898 786 928 798 C 958 810 984 826 1005 847 C 1026 867 1042 892 1053 920 C 1063 948 1069 978 1069 1010 C 1069 1036 1064 1061 1055 1084 C 1046 1106 1033 1126 1016 1142 C 998 1158 977 1171 953 1180 C 928 1189 900 1194 868 1194 L 618 1194 L 539 780 Z" unicode="P" />
<glyph horiz-adv-x="1606" d="M 934 1475 C 1026 1475 1112 1461 1190 1435 C 1268 1408 1336 1368 1393 1314 C 1450 1260 1495 1194 1527 1114 C 1559 1034 1575 942 1575 836 C 1575 770 1568 705 1556 641 C 1543 576 1524 514 1499 454 C 1473 394 1442 337 1404 284 C 1366 231 1322 184 1272 143 L 1393 -53 L 1120 -137 L 1028 10 C 988 -1 948 -10 906 -17 C 864 -23 819 -27 772 -27 C 680 -27 595 -13 517 13 C 439 39 371 79 315 133 C 258 186 214 252 182 332 C 150 412 135 504 135 610 C 135 680 142 751 157 821 C 172 891 195 959 225 1023 C 255 1087 292 1146 336 1201 C 380 1256 432 1304 492 1345 C 551 1385 617 1417 691 1440 C 765 1463 846 1475 934 1475 Z M 1251 817 C 1251 876 1243 930 1229 978 C 1215 1026 1194 1066 1166 1100 C 1138 1134 1103 1160 1061 1178 C 1019 1196 970 1206 915 1206 C 861 1206 813 1197 769 1181 C 725 1165 687 1142 653 1114 C 619 1086 589 1053 564 1015 C 539 977 519 937 503 895 C 487 852 475 808 467 762 C 459 716 455 672 455 629 C 455 569 462 516 476 468 C 490 420 512 380 540 347 C 568 313 604 287 646 269 C 688 251 737 242 793 242 C 808 242 823 242 838 243 C 853 244 868 246 883 250 L 715 524 L 954 659 L 1116 395 C 1138 423 1158 455 1175 489 C 1192 523 1206 558 1218 594 C 1229 630 1237 668 1243 706 C 1248 744 1251 781 1251 817 Z" unicode="Q" />
<glyph horiz-adv-x="1395" d="M 1403 1059 C 1403 1005 1393 953 1375 905 C 1356 856 1330 812 1297 773 C 1263 734 1223 701 1176 674 C 1129 646 1078 626 1022 614 L 1288 0 L 938 0 L 723 561 L 498 561 L 391 0 L 76 0 L 356 1446 L 877 1446 C 953 1446 1023 1438 1089 1424 C 1154 1409 1211 1384 1260 1350 C 1304 1318 1338 1277 1364 1229 C 1390 1180 1403 1123 1403 1059 Z M 545 809 L 834 809 C 874 809 909 814 939 825 C 969 836 995 851 1016 871 C 1036 891 1052 914 1063 941 C 1073 967 1079 996 1079 1028 C 1079 1053 1075 1076 1067 1098 C 1059 1119 1046 1137 1029 1152 C 1011 1167 989 1179 961 1187 C 933 1195 900 1200 862 1200 L 621 1200 L 545 809 Z" unicode="R" />
<glyph horiz-adv-x="1243" d="M 1141 1102 C 1118 1116 1092 1131 1064 1146 C 1035 1160 1004 1173 972 1185 C 939 1197 905 1206 870 1214 C 834 1221 799 1225 764 1225 C 734 1225 706 1222 680 1216 C 654 1210 631 1200 611 1187 C 591 1174 575 1157 563 1137 C 551 1116 545 1091 545 1063 C 545 1033 551 1007 565 986 C 578 964 596 946 618 930 C 640 914 666 899 695 887 C 723 874 753 861 784 848 C 842 822 894 796 940 769 C 986 741 1024 711 1056 677 C 1087 643 1111 604 1128 562 C 1144 519 1153 470 1153 416 C 1153 343 1138 278 1110 222 C 1082 166 1042 118 992 80 C 941 42 881 13 811 -7 C 741 -27 664 -37 582 -37 C 538 -37 493 -34 447 -28 C 400 -22 353 -14 307 -2 C 261 10 215 25 170 43 C 124 61 81 83 41 109 L 156 356 C 184 334 216 315 251 298 C 286 280 323 265 361 253 C 399 240 437 230 476 223 C 514 216 552 213 588 213 C 622 213 653 216 683 223 C 712 229 737 240 759 254 C 781 268 798 285 810 307 C 822 329 829 355 829 385 C 829 417 822 444 808 468 C 794 491 775 511 751 529 C 727 547 700 563 670 577 C 639 591 607 606 575 621 C 529 641 486 661 444 683 C 402 705 365 731 333 762 C 301 792 275 829 256 873 C 236 917 227 970 227 1034 C 227 1106 239 1169 265 1224 C 290 1279 326 1325 372 1362 C 418 1399 473 1427 537 1446 C 601 1465 673 1475 752 1475 C 916 1475 1083 1432 1253 1346 L 1141 1102 Z" unicode="S" />
<glyph horiz-adv-x="1161" d="M 877 1194 L 647 0 L 334 0 L 563 1194 L 174 1194 L 223 1446 L 1319 1446 L 1270 1194 L 877 1194 Z" unicode="T" />
<glyph horiz-adv-x="1511" d="M 649 1446 L 514 737 C 501 673 491 619 483 576 C 475 533 471 499 471 475 C 471 435 477 400 491 371 C 505 341 524 317 549 298 C 573 279 603 265 638 256 C 672 246 711 242 754 242 C 810 242 856 249 892 263 C 928 277 957 298 980 325 C 1002 352 1020 385 1033 424 C 1045 463 1057 507 1067 557 L 1241 1446 L 1542 1446 L 1364 518 C 1355 472 1344 426 1331 382 C 1318 337 1301 294 1280 254 C 1259 213 1233 176 1203 142 C 1173 108 1136 78 1092 53 C 1048 27 997 8 939 -6 C 881 -20 813 -27 737 -27 C 661 -27 589 -18 519 -2 C 449 13 387 40 333 77 C 279 113 235 161 203 221 C 170 280 154 352 154 438 C 154 454 154 472 156 490 C 158 508 161 530 165 554 C 169 578 174 607 180 639 C 186 671 193 708 201 752 L 336 1446 L 649 1446 Z" unicode="U" />
<glyph horiz-adv-x="1311" d="M 532 1446 L 625 586 L 635 406 L 653 406 L 727 586 L 1155 1446 L 1497 1446 L 711 0 L 414 0 L 203 1446 L 532 1446 Z" unicode="V" />
<glyph horiz-adv-x="2060" d="M 563 1446 L 590 608 L 588 422 L 608 422 L 680 608 L 1044 1446 L 1380 1446 L 1419 608 L 1423 422 L 1444 422 L 1516 608 L 1864 1446 L 2200 1446 L 1538 0 L 1198 0 L 1151 860 L 1149 1047 L 1130 1047 L 1059 860 L 684 0 L 344 0 L 244 1446 L 563 1446 Z" unicode="W" />
<glyph horiz-adv-x="1409" d="M 801 975 L 1190 1446 L 1556 1446 L 942 733 L 1288 0 L 915 0 L 717 522 L 313 0 L -55 0 L 575 758 L 236 1446 L 598 1446 L 801 975 Z" unicode="X" />
<glyph horiz-adv-x="1348" d="M 559 1446 L 739 795 L 1174 1446 L 1536 1446 L 840 500 L 741 0 L 430 0 L 526 500 L 201 1446 L 559 1446 Z" unicode="Y" />
<glyph horiz-adv-x="1298" d="M 1364 1446 L 1323 1243 L 453 252 L 1143 252 L 1094 0 L -8 0 L 29 203 L 913 1194 L 299 1194 L 346 1446 L 1364 1446 Z" unicode="Z" />
<glyph horiz-adv-x="782" d="M 858 1563 L 823 1391 L 596 1391 L 293 -176 L 520 -176 L 485 -346 L 4 -346 L 377 1563 L 858 1563 Z" unicode="[" />
<glyph horiz-adv-x="788" d="M 328 1446 L 778 -236 L 567 -236 L 113 1446 L 328 1446 Z" unicode="\" />
<glyph horiz-adv-x="782" d="M 834 1563 L 461 -346 L -20 -346 L 12 -176 L 242 -176 L 545 1391 L 315 1391 L 350 1563 L 834 1563 Z" unicode="]" />
<glyph horiz-adv-x="1249" d="M 711 1446 L 1268 426 L 965 426 L 707 948 L 637 1100 L 610 1100 L 545 948 L 285 426 L -16 426 L 537 1446 L 711 1446 Z" unicode="^" />
<glyph horiz-adv-x="1249" d="M 1130 -248 L 1092 -451 L -176 -451 L -139 -248 L 1130 -248 Z" unicode="_" />
<glyph horiz-adv-x="895" d="M 481 1530 L 739 1272 L 727 1204 L 575 1204 L 264 1436 L 264 1530 L 481 1530 Z" unicode="`" />
<glyph horiz-adv-x="1235" d="M 1221 1077 L 1098 467 C 1090 426 1082 387 1075 351 C 1068 314 1062 277 1057 240 C 1051 203 1047 165 1043 126 C 1039 86 1036 44 1034 0 L 770 0 C 772 39 775 80 781 123 C 786 166 791 208 797 250 C 768 202 739 161 709 126 C 679 91 647 62 614 39 C 581 16 546 0 509 -12 C 471 -23 431 -29 389 -29 C 329 -29 279 -19 237 -1 C 195 16 160 42 133 74 C 106 106 86 145 74 190 C 61 234 55 283 55 336 C 55 386 60 441 72 499 C 83 557 100 614 123 671 C 145 728 173 783 207 835 C 240 887 279 934 323 974 C 367 1014 417 1046 472 1070 C 526 1094 586 1106 651 1106 C 679 1106 707 1103 733 1097 C 759 1091 783 1082 806 1069 C 829 1056 850 1039 870 1018 C 890 996 908 970 924 938 L 971 1077 L 1221 1077 Z M 494 215 C 532 215 570 228 608 256 C 646 283 680 319 712 364 C 743 408 770 459 794 515 C 818 571 835 628 846 686 L 858 750 C 840 786 817 814 789 835 C 760 855 729 866 696 866 C 664 866 633 858 604 843 C 575 827 548 807 523 782 C 498 756 476 727 456 694 C 436 661 418 627 404 591 C 390 555 379 519 371 483 C 363 447 360 413 360 383 C 360 359 362 336 367 316 C 372 295 380 277 391 262 C 402 247 416 235 433 227 C 449 219 470 215 494 215 Z" unicode="a" />
<glyph horiz-adv-x="1231" d="M 53 0 L 346 1507 L 639 1507 L 530 946 C 550 968 572 989 595 1009 C 618 1028 643 1045 669 1059 C 695 1073 724 1085 754 1093 C 784 1101 818 1106 854 1106 C 916 1106 970 1095 1014 1073 C 1058 1051 1093 1021 1120 983 C 1147 945 1167 900 1179 849 C 1191 798 1198 744 1198 686 C 1198 637 1193 585 1184 531 C 1174 477 1160 423 1141 370 C 1122 317 1098 266 1069 218 C 1039 170 1004 127 964 91 C 924 54 878 25 826 3 C 774 -18 717 -29 653 -29 C 581 -29 520 -14 471 15 C 421 44 381 85 350 139 L 305 0 L 53 0 Z M 731 862 C 691 862 656 852 624 832 C 592 812 563 783 538 747 C 513 711 492 667 474 615 C 456 563 442 506 432 444 L 412 328 C 420 313 431 299 444 285 C 456 271 471 258 487 247 C 503 236 520 227 539 221 C 557 214 577 211 598 211 C 631 211 661 217 689 231 C 716 244 741 262 763 285 C 785 307 804 333 820 363 C 836 393 850 424 861 456 C 871 488 879 521 885 554 C 890 587 893 619 893 649 C 893 674 890 699 885 725 C 880 750 871 773 859 793 C 847 813 830 830 810 843 C 789 855 763 862 731 862 Z" unicode="b" />
<glyph horiz-adv-x="1022" d="M 864 25 C 822 7 779 -5 735 -15 C 691 -24 643 -29 590 -29 C 516 -29 447 -20 385 -2 C 323 16 269 44 223 83 C 177 121 142 171 116 231 C 90 291 78 364 78 449 C 78 502 83 555 94 608 C 105 661 122 712 144 761 C 166 809 193 855 226 897 C 259 939 298 975 343 1006 C 387 1037 437 1061 493 1079 C 549 1097 610 1106 678 1106 C 746 1106 814 1095 881 1075 C 947 1055 1010 1023 1069 979 L 932 768 C 898 794 860 817 818 835 C 776 853 731 862 684 862 C 647 862 614 856 585 844 C 555 832 529 815 507 795 C 485 775 466 751 450 725 C 434 698 422 670 412 640 C 402 610 394 580 390 550 C 385 519 383 490 383 463 C 383 383 402 321 440 277 C 478 233 539 211 623 211 C 665 211 706 216 748 227 C 789 238 828 252 864 268 L 864 25 Z" unicode="c" />
<glyph horiz-adv-x="1241" d="M 1305 1507 L 1102 467 C 1094 426 1087 388 1081 352 C 1075 316 1069 281 1065 245 C 1061 209 1057 171 1055 131 C 1053 91 1051 48 1051 0 L 780 0 C 780 30 780 60 781 89 C 782 117 784 150 788 186 C 740 120 686 67 625 29 C 564 -9 496 -29 420 -29 C 356 -29 303 -18 259 4 C 215 26 180 56 153 94 C 126 132 106 176 94 227 C 82 278 76 333 76 391 C 76 439 80 491 89 545 C 98 599 112 653 131 706 C 150 759 174 810 203 858 C 231 906 265 949 305 986 C 345 1022 390 1051 441 1073 C 492 1095 549 1106 612 1106 C 674 1106 731 1095 781 1075 C 831 1054 872 1019 905 969 L 1010 1507 L 1305 1507 Z M 543 215 C 580 215 615 225 647 245 C 679 265 707 294 733 331 C 758 368 780 412 799 464 C 817 515 832 572 842 635 L 862 750 C 853 764 842 779 830 793 C 817 807 803 819 787 830 C 771 840 753 849 735 856 C 717 862 698 866 678 866 C 644 866 614 859 586 846 C 558 832 534 814 512 792 C 490 769 470 743 454 713 C 438 683 424 652 413 620 C 402 588 394 555 389 522 C 383 488 381 457 381 428 C 381 402 383 377 388 352 C 393 327 402 304 415 284 C 427 263 444 246 465 234 C 485 221 511 215 543 215 Z" unicode="d" />
<glyph horiz-adv-x="1163" d="M 369 467 C 369 423 373 385 383 351 C 392 317 407 289 429 265 C 451 241 479 223 514 211 C 548 199 591 193 641 193 C 673 193 702 194 730 198 C 757 201 783 206 809 212 C 835 218 860 225 884 234 C 908 242 932 252 958 264 L 973 51 C 923 25 868 5 810 -9 C 751 -23 686 -31 616 -31 C 544 -31 476 -22 411 -6 C 345 10 288 37 238 74 C 188 111 148 159 118 218 C 88 277 74 349 74 434 C 74 486 80 538 92 592 C 104 646 121 697 145 747 C 168 797 197 843 231 887 C 265 931 305 969 350 1001 C 394 1033 444 1059 498 1078 C 552 1096 612 1106 676 1106 C 738 1106 796 1096 850 1077 C 904 1058 950 1030 989 994 C 1028 958 1059 913 1081 860 C 1103 807 1114 746 1114 678 C 1114 646 1111 613 1106 577 C 1100 541 1091 504 1079 467 L 369 467 Z M 668 895 C 630 895 596 887 566 873 C 536 859 510 840 488 817 C 465 793 446 766 431 736 C 415 705 403 673 393 641 L 838 641 C 842 661 844 682 844 702 C 844 728 840 752 834 776 C 828 799 818 819 804 837 C 790 855 771 869 749 879 C 727 889 700 895 668 895 Z" unicode="e" />
<glyph horiz-adv-x="688" d="M 549 856 L 385 0 L 90 0 L 256 856 L 84 856 L 129 1077 L 297 1077 L 336 1272 C 352 1357 388 1423 443 1469 C 497 1515 570 1538 662 1538 C 681 1538 701 1537 723 1535 C 744 1533 765 1530 785 1526 C 805 1522 823 1517 841 1512 C 858 1506 872 1501 883 1495 L 823 1288 C 807 1294 788 1300 768 1306 C 748 1312 728 1315 709 1315 C 679 1315 656 1307 641 1291 C 626 1275 615 1249 608 1214 L 582 1077 L 801 1077 L 758 856 L 549 856 Z" unicode="f" />
<glyph horiz-adv-x="1237" d="M 743 131 C 723 108 702 87 680 69 C 658 50 634 34 609 20 C 583 6 556 -3 526 -11 C 496 -19 464 -23 428 -23 C 364 -23 310 -12 266 9 C 222 30 186 59 158 97 C 130 134 109 178 97 228 C 84 278 78 333 78 391 C 78 439 82 491 91 545 C 100 599 114 653 133 706 C 151 759 175 810 205 858 C 234 906 269 949 309 986 C 349 1022 395 1051 447 1073 C 499 1095 557 1106 621 1106 C 759 1106 860 1050 926 938 L 971 1077 L 1221 1077 L 1008 -16 C 995 -76 976 -134 952 -189 C 928 -243 894 -291 852 -333 C 810 -375 757 -408 693 -432 C 629 -456 551 -469 459 -469 C 382 -469 310 -460 243 -444 C 176 -427 113 -403 55 -371 L 164 -164 C 204 -188 247 -207 295 -221 C 343 -235 394 -242 449 -242 C 475 -242 502 -239 530 -233 C 558 -227 584 -216 608 -199 C 632 -182 653 -158 673 -128 C 692 -98 707 -58 717 -8 L 743 131 Z M 862 750 C 854 764 843 779 831 793 C 818 807 804 819 788 830 C 772 840 754 849 736 856 C 717 862 698 866 678 866 C 644 866 614 859 587 846 C 559 832 535 814 513 792 C 491 769 471 743 455 713 C 439 683 425 652 415 620 C 404 588 396 555 391 522 C 385 488 383 457 383 428 C 383 402 385 377 390 352 C 395 327 404 304 416 284 C 428 263 445 246 466 234 C 486 221 513 215 545 215 C 583 215 619 225 651 245 C 683 265 711 293 736 330 C 761 366 782 410 800 462 C 818 514 832 571 842 635 L 862 750 Z" unicode="g" />
<glyph horiz-adv-x="1225" d="M 725 0 L 823 512 C 825 522 827 536 831 554 C 835 572 838 591 842 612 C 846 633 849 654 852 676 C 854 698 856 717 856 735 C 856 753 854 770 850 786 C 846 802 839 815 831 827 C 822 838 810 847 796 854 C 781 860 763 864 743 864 C 705 864 670 853 638 833 C 606 812 576 784 550 748 C 524 712 501 669 482 621 C 462 573 447 521 436 465 L 346 0 L 53 0 L 346 1507 L 639 1507 L 528 940 C 575 990 627 1030 684 1060 C 740 1090 805 1106 877 1106 C 926 1106 969 1098 1005 1084 C 1041 1070 1070 1050 1093 1024 C 1116 998 1133 968 1144 932 C 1155 896 1161 856 1161 813 C 1161 777 1157 739 1151 701 C 1144 663 1137 623 1130 582 L 1020 0 L 725 0 Z" unicode="h" />
<glyph horiz-adv-x="575" d="M 647 1507 L 600 1264 L 289 1264 L 336 1507 L 647 1507 Z M 555 1077 L 346 0 L 53 0 L 262 1077 L 555 1077 Z" unicode="i" />
<glyph horiz-adv-x="569" d="M 643 1507 L 596 1264 L 285 1264 L 334 1507 L 643 1507 Z M 256 1077 L 553 1077 L 313 -166 C 294 -262 257 -335 201 -385 C 145 -434 67 -459 -33 -459 C -58 -459 -85 -457 -115 -453 C -144 -449 -171 -440 -197 -428 L -145 -221 C -133 -224 -121 -226 -110 -227 C -99 -228 -89 -229 -80 -229 C -63 -229 -49 -227 -37 -223 C -25 -219 -15 -213 -7 -204 C 1 -195 7 -183 13 -167 C 19 -151 24 -132 29 -109 L 256 1077 Z" unicode="j" />
<glyph horiz-adv-x="1171" d="M 481 702 L 907 1077 L 1284 1077 L 770 657 L 1098 0 L 768 0 L 553 481 L 418 371 L 346 0 L 53 0 L 346 1507 L 639 1507 L 481 702 Z" unicode="k" />
<glyph horiz-adv-x="575" d="M 639 1507 L 346 0 L 53 0 L 346 1507 L 639 1507 Z" unicode="l" />
<glyph horiz-adv-x="1835" d="M 696 0 L 795 512 C 797 528 800 545 804 564 C 807 582 810 601 813 621 C 816 640 819 659 821 679 C 823 698 825 716 825 733 C 825 751 823 769 819 785 C 815 801 809 815 801 827 C 792 838 781 847 767 854 C 753 860 735 864 715 864 C 679 864 647 853 617 833 C 587 812 561 784 538 748 C 514 712 494 669 477 621 C 460 573 446 521 436 465 L 346 0 L 53 0 L 170 610 C 178 650 185 688 191 724 C 197 760 203 796 208 832 C 213 868 217 906 221 946 C 225 985 228 1029 231 1077 L 496 1077 C 494 1048 493 1018 491 988 C 489 957 486 925 483 891 C 507 922 532 951 558 977 C 584 1003 612 1026 642 1045 C 672 1064 704 1079 738 1090 C 772 1100 808 1106 848 1106 C 929 1106 992 1086 1037 1048 C 1082 1009 1110 957 1122 891 C 1146 923 1171 952 1198 978 C 1225 1004 1254 1027 1284 1046 C 1314 1065 1347 1080 1381 1090 C 1415 1100 1451 1106 1491 1106 C 1539 1106 1581 1098 1617 1084 C 1652 1070 1681 1050 1704 1024 C 1727 998 1744 968 1755 932 C 1766 896 1772 856 1772 813 C 1772 777 1768 739 1762 701 C 1756 663 1749 623 1741 582 L 1630 0 L 1337 0 L 1436 512 C 1438 528 1441 545 1445 564 C 1449 582 1452 601 1455 621 C 1458 640 1461 659 1463 679 C 1465 698 1466 716 1466 733 C 1466 771 1458 802 1442 827 C 1426 851 1398 864 1358 864 C 1334 864 1311 859 1290 849 C 1268 839 1248 826 1230 810 C 1212 793 1195 773 1180 751 C 1165 729 1152 705 1140 681 C 1128 656 1117 630 1109 604 C 1101 578 1094 552 1090 528 L 989 0 L 696 0 Z" unicode="m" />
<glyph horiz-adv-x="1225" d="M 170 610 C 178 650 185 688 191 724 C 197 760 203 796 208 832 C 213 868 217 906 221 946 C 225 985 228 1029 231 1077 L 496 1077 C 494 1047 493 1017 491 988 C 489 958 486 926 483 891 C 509 923 536 952 565 979 C 594 1005 625 1028 657 1047 C 689 1065 724 1080 760 1090 C 796 1100 835 1106 877 1106 C 926 1106 969 1098 1005 1084 C 1041 1070 1070 1050 1093 1024 C 1116 998 1133 968 1144 932 C 1155 896 1161 856 1161 813 C 1161 777 1157 739 1151 701 C 1144 663 1137 623 1130 582 L 1020 0 L 725 0 L 823 512 C 831 552 839 590 846 628 C 852 666 856 700 856 731 C 856 770 847 802 831 827 C 814 851 785 864 743 864 C 705 864 670 853 638 833 C 606 812 576 784 550 748 C 524 712 501 669 482 621 C 462 573 447 521 436 465 L 346 0 L 53 0 L 170 610 Z" unicode="n" />
<glyph horiz-adv-x="1182" d="M 666 1106 C 740 1106 807 1094 867 1071 C 926 1047 976 1014 1017 971 C 1058 928 1090 877 1112 817 C 1134 757 1145 690 1145 616 C 1145 564 1139 511 1128 459 C 1117 407 1101 357 1079 309 C 1057 261 1029 217 997 176 C 964 134 926 98 883 68 C 839 38 791 14 737 -3 C 683 -20 623 -29 559 -29 C 484 -29 417 -17 358 6 C 298 29 248 62 207 105 C 166 148 135 200 113 261 C 91 321 80 389 80 463 C 80 514 85 566 96 618 C 107 670 123 719 145 767 C 167 814 194 858 227 900 C 259 941 297 977 341 1008 C 384 1038 433 1062 487 1080 C 541 1097 600 1106 666 1106 Z M 844 614 C 844 651 840 685 833 716 C 825 746 814 773 798 795 C 782 817 763 834 739 846 C 715 858 686 864 653 864 C 617 864 586 857 559 845 C 532 832 508 815 488 794 C 468 772 451 748 437 720 C 423 692 411 664 403 634 C 394 604 388 575 384 545 C 380 515 379 487 379 461 C 379 423 382 389 390 359 C 397 328 408 302 424 280 C 439 258 459 241 483 229 C 507 217 535 211 569 211 C 604 211 635 217 663 230 C 690 242 714 259 734 281 C 754 302 772 326 786 354 C 800 382 811 410 820 440 C 828 470 834 500 838 530 C 842 560 844 588 844 614 Z" unicode="o" />
<glyph horiz-adv-x="1229" d="M -37 -451 L 172 610 C 180 650 187 688 193 724 C 199 760 205 796 210 832 C 215 868 219 906 223 946 C 227 985 230 1029 233 1077 L 496 1077 C 495 1061 494 1047 494 1033 C 493 1019 492 1006 491 993 C 490 979 489 965 488 951 C 486 937 485 921 485 905 C 507 933 532 959 559 983 C 585 1007 614 1029 645 1047 C 676 1065 709 1079 744 1090 C 778 1100 815 1106 854 1106 C 916 1106 968 1095 1012 1073 C 1055 1051 1090 1021 1118 983 C 1145 945 1165 900 1177 849 C 1189 797 1196 742 1196 684 C 1196 635 1191 584 1182 530 C 1173 476 1159 422 1140 370 C 1121 317 1097 266 1068 218 C 1039 170 1004 127 964 91 C 924 54 878 25 826 3 C 774 -18 715 -29 651 -29 C 588 -29 533 -18 485 4 C 437 26 397 61 367 109 L 256 -451 L -37 -451 Z M 729 862 C 689 862 652 851 620 831 C 588 811 559 782 535 746 C 510 709 489 665 471 614 C 453 562 440 506 430 444 L 410 328 C 418 312 429 298 442 284 C 454 270 469 257 485 247 C 501 236 518 227 537 221 C 555 214 575 211 596 211 C 629 211 659 217 687 231 C 714 245 739 263 761 286 C 783 308 802 335 818 365 C 834 395 848 426 859 458 C 869 490 877 522 883 554 C 888 586 891 617 891 645 C 891 671 888 698 883 724 C 878 750 869 773 857 793 C 844 813 827 830 807 843 C 786 855 760 862 729 862 Z" unicode="p" />
<glyph horiz-adv-x="1243" d="M 1221 1077 L 924 -451 L 629 -451 L 743 131 C 723 108 701 87 678 68 C 655 48 631 31 605 17 C 579 3 550 -8 520 -16 C 490 -24 457 -29 422 -29 C 358 -29 305 -18 261 4 C 217 26 182 56 155 94 C 128 132 108 176 96 227 C 84 278 78 333 78 391 C 78 439 82 491 91 545 C 100 599 114 653 133 706 C 151 759 175 810 205 858 C 234 906 269 949 309 986 C 349 1022 395 1051 447 1073 C 499 1095 557 1106 621 1106 C 759 1106 860 1050 926 938 L 971 1077 L 1221 1077 Z M 862 750 C 854 764 843 779 831 793 C 818 807 804 819 788 830 C 772 840 754 849 736 856 C 717 862 698 866 678 866 C 644 866 614 859 587 846 C 559 832 535 814 513 792 C 491 769 471 743 455 713 C 439 683 425 652 415 620 C 404 588 396 555 391 522 C 385 488 383 457 383 428 C 383 402 385 377 390 352 C 395 327 404 304 416 284 C 428 263 445 246 466 234 C 486 221 513 215 545 215 C 583 215 619 225 651 245 C 683 265 711 293 736 330 C 761 366 782 410 800 462 C 818 514 832 571 842 635 L 862 750 Z" unicode="q" />
<glyph horiz-adv-x="788" d="M 780 1102 C 799 1102 819 1099 840 1093 C 861 1087 879 1078 895 1065 L 811 788 C 792 795 770 801 746 805 C 721 809 699 811 680 811 C 627 811 581 789 541 746 C 501 702 472 637 455 551 L 348 0 L 55 0 L 170 610 C 178 650 185 688 191 724 C 197 760 203 796 208 832 C 213 868 217 906 221 946 C 225 985 228 1029 231 1077 L 496 1077 C 494 1047 493 1018 491 990 C 489 962 486 930 483 895 C 504 927 527 955 552 981 C 576 1006 601 1028 627 1046 C 652 1064 678 1077 704 1087 C 730 1097 755 1102 780 1102 Z" unicode="r" />
<glyph horiz-adv-x="1004" d="M 104 297 C 128 281 153 266 180 252 C 207 238 235 225 265 215 C 294 205 324 197 355 191 C 386 185 417 182 449 182 C 469 182 489 183 509 187 C 529 191 546 197 562 205 C 577 213 589 225 599 239 C 609 253 614 270 614 291 C 614 311 608 329 598 343 C 588 357 573 371 555 383 C 536 395 514 406 488 418 C 462 429 433 441 401 455 C 369 468 338 483 307 501 C 276 518 248 539 224 564 C 199 588 179 618 164 652 C 148 686 141 726 141 774 C 141 830 152 879 174 922 C 196 964 226 1000 264 1029 C 302 1057 346 1079 398 1094 C 450 1108 505 1116 565 1116 C 636 1116 708 1106 782 1087 C 856 1068 927 1042 995 1008 L 893 791 C 871 807 848 821 823 834 C 798 846 772 857 746 866 C 719 875 692 882 664 887 C 636 892 608 895 582 895 C 564 895 547 893 531 889 C 514 885 499 880 486 873 C 473 865 462 856 454 844 C 446 832 442 817 442 801 C 442 779 447 761 458 747 C 468 732 483 719 501 707 C 519 695 541 684 565 674 C 589 664 614 653 641 641 C 676 625 710 609 744 591 C 777 573 806 551 832 526 C 858 500 878 471 894 437 C 910 403 918 362 918 315 C 918 258 906 207 882 163 C 858 119 826 81 784 51 C 742 21 693 -1 637 -17 C 581 -33 520 -41 455 -41 C 421 -41 385 -38 347 -34 C 309 -29 270 -22 231 -13 C 191 -3 152 8 113 23 C 74 38 38 56 4 78 L 104 297 Z" unicode="s" />
<glyph horiz-adv-x="764" d="M 553 856 L 477 453 C 469 417 463 386 459 361 C 455 335 453 313 453 295 C 453 277 456 262 463 251 C 470 239 482 230 498 224 C 514 217 536 212 563 210 C 590 208 624 207 664 207 L 621 -8 C 600 -13 577 -17 553 -19 C 528 -21 503 -23 479 -23 C 439 -23 400 -19 360 -13 C 320 -7 285 5 253 23 C 221 41 195 66 175 98 C 155 130 145 171 145 223 C 145 234 145 245 146 256 C 147 266 149 278 151 292 C 153 306 155 322 159 340 C 162 358 166 380 172 406 L 258 856 L 90 856 L 133 1077 L 301 1077 L 387 1364 L 651 1364 L 596 1077 L 831 1077 L 788 856 L 553 856 Z" unicode="t" />
<glyph horiz-adv-x="1229" d="M 776 186 C 750 154 722 126 694 100 C 665 74 634 51 602 32 C 570 13 535 -1 499 -11 C 463 -21 424 -27 383 -27 C 333 -27 290 -19 254 -5 C 218 8 189 28 166 54 C 143 80 126 111 116 147 C 105 183 100 222 100 266 C 100 301 103 338 109 377 C 115 415 121 456 129 498 L 240 1077 L 535 1077 L 436 565 C 434 555 431 541 427 523 C 423 505 420 486 416 465 C 412 444 409 423 407 401 C 404 379 403 359 403 342 C 403 323 405 306 409 290 C 413 274 419 261 428 249 C 436 237 448 228 462 222 C 476 216 494 213 516 213 C 553 213 588 223 621 244 C 653 264 683 293 709 329 C 735 365 757 407 777 455 C 796 503 811 556 823 612 L 913 1077 L 1206 1077 L 1090 467 C 1082 426 1074 388 1068 352 C 1062 316 1056 281 1051 245 C 1045 209 1041 171 1037 131 C 1033 91 1030 48 1028 0 L 764 0 C 766 56 770 118 776 186 Z" unicode="u" />
<glyph horiz-adv-x="1059" d="M 430 1077 L 500 483 L 506 381 L 516 381 L 563 483 L 866 1077 L 1174 1077 L 567 0 L 311 0 L 125 1077 L 430 1077 Z" unicode="v" />
<glyph horiz-adv-x="1610" d="M 432 1077 L 459 514 L 457 406 L 467 406 L 516 514 L 801 1077 L 1049 1077 L 1114 514 L 1120 406 L 1130 406 L 1171 514 L 1409 1077 L 1716 1077 L 1200 0 L 934 0 L 864 606 L 862 715 L 852 715 L 805 606 L 504 0 L 238 0 L 137 1077 L 432 1077 Z" unicode="w" />
<glyph horiz-adv-x="1135" d="M 618 748 L 877 1077 L 1208 1077 L 760 557 L 1024 0 L 688 0 L 553 358 L 272 0 L -72 0 L 412 555 L 160 1077 L 494 1077 L 618 748 Z" unicode="x" />
<glyph horiz-adv-x="1090" d="M 422 1077 L 496 451 L 504 319 L 514 319 L 563 428 L 893 1077 L 1208 1077 L 547 -109 C 516 -164 485 -213 454 -257 C 423 -300 390 -337 354 -367 C 318 -397 278 -419 236 -435 C 194 -451 146 -459 92 -459 C 71 -459 49 -457 27 -454 C 4 -451 -17 -445 -39 -436 L -10 -219 C 23 -219 53 -217 79 -214 C 105 -211 128 -205 149 -197 C 170 -189 189 -177 206 -161 C 223 -145 239 -125 254 -100 L 295 -29 L 123 1077 L 422 1077 Z" unicode="y" />
<glyph horiz-adv-x="963" d="M 1016 1077 L 985 920 L 391 221 L 868 221 L 825 0 L -31 0 L 0 158 L 592 856 L 188 856 L 229 1077 L 1016 1077 Z" unicode="z" />
<glyph horiz-adv-x="870" d="M 473 -346 C 432 -346 392 -341 353 -333 C 313 -325 278 -311 247 -293 C 216 -275 191 -251 172 -222 C 152 -192 143 -157 143 -115 C 143 -101 145 -80 149 -50 C 153 -20 163 20 180 72 L 244 260 C 255 294 266 324 276 351 C 286 377 291 402 291 426 C 291 438 289 449 286 460 C 282 471 277 481 270 489 C 263 497 254 504 244 510 C 233 515 221 518 207 518 L 80 518 L 117 721 L 256 721 C 271 721 286 723 300 728 C 314 732 326 739 337 748 C 347 757 356 769 363 783 C 369 797 373 813 375 831 L 399 1235 C 402 1281 411 1325 425 1365 C 439 1405 459 1440 486 1469 C 512 1498 546 1521 586 1538 C 626 1554 673 1563 729 1563 L 965 1563 L 930 1391 L 815 1391 C 795 1391 777 1387 760 1381 C 743 1375 728 1365 715 1352 C 701 1339 690 1323 682 1303 C 674 1283 669 1259 668 1233 L 641 813 C 639 798 634 784 626 771 C 617 758 604 744 587 729 C 569 714 547 697 520 678 C 493 658 461 635 424 608 L 422 598 C 445 569 464 544 480 523 C 496 501 508 483 518 467 C 528 451 535 437 539 426 C 543 414 545 405 545 397 C 545 389 543 380 541 369 C 538 357 534 345 530 331 C 526 317 521 303 516 289 C 511 274 506 260 502 246 L 440 47 C 432 24 426 3 420 -14 C 414 -32 412 -51 412 -70 C 412 -102 422 -127 443 -147 C 463 -166 491 -176 526 -176 L 621 -176 L 588 -346 L 473 -346 Z" unicode="{" />
<glyph horiz-adv-x="909" d="M 606 1720 L 606 -348 L 303 -348 L 303 1720 L 606 1720 Z" unicode="|" />
<glyph horiz-adv-x="870" d="M 336 1563 L 453 1561 C 494 1560 534 1556 574 1548 C 613 1540 648 1526 679 1508 C 710 1490 735 1466 754 1436 C 772 1406 782 1369 782 1325 C 782 1295 778 1265 770 1236 C 762 1207 753 1177 743 1145 L 688 975 C 682 957 677 941 671 927 C 665 913 660 899 656 886 C 651 873 647 861 645 849 C 642 837 641 825 641 813 C 641 801 642 789 645 778 C 648 767 653 757 659 749 C 665 741 674 734 684 729 C 694 723 707 721 721 721 L 848 721 L 811 518 L 672 518 C 656 518 642 515 628 511 C 614 506 601 499 591 490 C 580 480 571 469 564 455 C 557 441 553 426 553 408 L 524 -20 C 520 -70 511 -115 497 -155 C 482 -195 461 -230 434 -258 C 407 -286 374 -308 334 -323 C 294 -338 248 -346 195 -346 L -39 -346 L -4 -176 L 109 -176 C 151 -176 185 -162 211 -136 C 237 -109 252 -70 256 -18 L 287 426 C 287 440 292 454 301 467 C 309 479 322 493 340 508 C 358 523 380 540 407 559 C 434 578 466 601 504 629 L 508 639 C 484 667 464 692 448 714 C 432 735 420 754 411 770 C 402 786 396 799 392 811 C 388 822 387 832 387 840 C 387 848 388 857 391 869 C 393 880 397 892 401 906 C 405 919 410 933 415 948 C 420 962 425 977 430 991 L 483 1169 C 489 1188 496 1208 502 1228 C 508 1248 512 1268 512 1288 C 512 1318 501 1342 481 1362 C 461 1381 433 1391 397 1391 L 303 1391 L 336 1563 Z" unicode="}" />
<glyph horiz-adv-x="1249" d="M 45 594 C 72 632 101 667 132 697 C 162 727 194 752 226 773 C 258 794 291 810 324 821 C 357 832 390 838 422 838 C 452 838 481 833 507 823 C 533 813 558 801 581 787 C 603 773 625 757 646 740 C 667 723 688 707 709 693 C 729 679 750 667 772 657 C 793 647 816 643 840 643 C 872 643 904 653 934 673 C 964 693 993 722 1020 760 L 1206 618 C 1180 584 1152 552 1122 523 C 1092 494 1060 469 1028 448 C 996 427 963 411 929 399 C 895 387 861 381 827 381 C 796 381 768 385 742 395 C 716 404 692 416 669 430 C 646 444 624 459 604 475 C 583 491 562 506 542 520 C 521 534 500 545 478 555 C 456 564 434 569 410 569 C 378 569 346 559 316 541 C 286 522 257 495 229 461 L 45 594 Z" unicode="~" />
<glyph horiz-adv-x="1024" d="" unicode="" />
<glyph horiz-adv-x="678" d="M 92 0 L 145 281 L 332 940 L 535 940 L 471 281 L 418 0 L 92 0 Z M 303 1116 L 369 1446 L 696 1446 L 631 1116 L 303 1116 Z" unicode="" />
<glyph horiz-adv-x="1249" d="M 922 121 C 901 112 880 104 860 97 C 839 90 817 84 795 80 C 773 75 749 71 724 69 C 699 67 672 66 643 66 C 624 66 606 66 588 66 C 570 66 552 68 535 72 L 416 -250 L 182 -250 L 330 141 C 269 178 221 229 187 295 C 152 360 135 443 135 543 C 135 595 140 648 151 701 C 161 753 177 804 199 852 C 221 900 248 945 281 987 C 313 1029 351 1065 395 1097 C 438 1128 487 1153 542 1171 C 596 1189 657 1198 723 1200 L 821 1464 L 1053 1464 L 942 1167 C 1008 1147 1069 1115 1126 1073 L 989 860 C 956 886 918 909 876 928 C 834 946 789 956 741 956 C 704 956 671 950 642 938 C 612 926 586 909 564 889 C 542 869 523 845 507 819 C 491 792 479 764 469 734 C 459 704 451 674 447 644 C 442 613 440 584 440 557 C 440 477 459 415 497 371 C 535 327 596 305 680 305 C 722 305 763 310 805 321 C 847 332 886 346 922 362 L 922 121 Z" unicode="" />
<glyph horiz-adv-x="1276" d="M 965 649 L 651 649 C 655 630 658 612 660 594 C 662 576 664 558 664 539 C 664 499 659 459 649 421 C 639 382 625 345 608 309 C 641 287 678 271 718 261 C 758 251 802 246 848 246 C 898 246 946 251 993 261 C 1039 271 1086 287 1133 311 L 1079 35 C 1046 18 1006 4 958 -7 C 910 -19 860 -25 807 -25 C 735 -25 669 -14 610 7 C 550 29 494 60 440 102 C 396 68 347 41 293 22 C 239 3 181 -6 119 -6 C 94 -6 67 -3 37 0 C 7 4 -19 12 -45 23 L 2 270 C 19 264 39 260 61 257 C 83 253 105 252 127 252 C 166 252 201 258 231 270 C 261 282 287 300 307 323 C 327 345 343 372 353 404 C 363 436 369 471 369 510 C 369 532 367 555 363 579 C 359 602 355 625 350 649 L 74 649 L 111 829 L 307 829 C 299 861 293 893 288 926 C 283 958 281 992 281 1026 C 281 1102 295 1168 323 1224 C 351 1280 389 1327 438 1364 C 486 1401 543 1429 608 1447 C 672 1465 741 1475 815 1475 C 857 1475 899 1472 943 1466 C 987 1460 1030 1450 1073 1437 C 1115 1424 1157 1407 1197 1387 C 1237 1366 1274 1341 1309 1311 L 1130 1118 C 1106 1132 1080 1145 1054 1158 C 1028 1170 1001 1181 974 1191 C 946 1201 919 1208 891 1214 C 863 1220 835 1223 807 1223 C 777 1223 748 1219 722 1212 C 695 1204 672 1193 653 1178 C 633 1162 618 1142 607 1118 C 595 1093 590 1064 590 1030 C 590 990 592 953 596 921 C 600 889 604 858 610 829 L 999 829 L 965 649 Z" unicode="" />
<glyph horiz-adv-x="1249" d="M 1122 549 C 1108 480 1086 418 1054 364 C 1022 309 984 263 938 225 L 1012 -45 L 791 -45 L 748 135 C 708 127 668 123 627 123 C 585 123 545 126 507 134 C 469 142 435 153 403 168 L 264 -45 L 27 -45 L 258 287 C 228 329 208 378 198 435 C 188 491 190 556 205 629 L 248 854 C 260 920 281 980 311 1035 C 341 1089 380 1136 428 1176 L 354 1446 L 578 1446 L 618 1266 C 637 1270 657 1273 677 1276 C 697 1278 717 1280 739 1280 C 823 1280 898 1264 965 1233 L 1106 1446 L 1339 1446 L 1108 1114 C 1138 1072 1158 1022 1168 965 C 1178 908 1176 844 1163 772 L 1122 549 Z M 907 770 C 910 787 913 804 916 820 C 918 836 920 852 920 866 C 920 926 904 971 872 1003 C 840 1035 791 1051 723 1051 C 687 1051 656 1045 630 1034 C 604 1022 583 1006 565 985 C 547 963 533 937 522 907 C 510 877 501 843 494 805 L 461 633 C 453 595 449 563 449 537 C 449 476 465 430 497 398 C 529 366 578 350 645 350 C 680 350 710 355 736 366 C 761 377 783 393 801 414 C 819 435 833 461 845 491 C 857 521 866 556 874 596 L 907 770 Z" unicode="" />
<glyph horiz-adv-x="1276" d="M 139 967 L 367 967 L 229 1446 L 565 1446 L 700 854 L 1067 1446 L 1411 1446 L 1085 967 L 1309 967 L 1276 801 L 973 801 L 872 653 L 1247 653 L 1214 487 L 788 487 L 694 0 L 381 0 L 475 487 L 47 487 L 80 653 L 455 653 L 414 801 L 106 801 L 139 967 Z" unicode="" />
<glyph horiz-adv-x="909" d="M 606 1567 L 606 840 L 303 840 L 303 1567 L 606 1567 Z M 606 530 L 606 -195 L 303 -195 L 303 530 L 606 530 Z" unicode="" />
<glyph horiz-adv-x="1475" d="M 258 -94 C 282 -108 309 -121 337 -134 C 365 -146 394 -157 424 -167 C 454 -177 486 -184 518 -190 C 550 -196 583 -199 616 -199 C 636 -199 657 -197 679 -194 C 701 -190 722 -184 740 -175 C 758 -165 774 -152 786 -136 C 798 -120 805 -98 805 -72 C 805 -46 797 -24 781 -6 C 765 12 744 28 716 43 C 688 57 654 71 616 84 C 578 97 536 112 492 129 C 444 145 397 165 351 188 C 305 210 263 237 226 269 C 189 300 159 337 136 380 C 113 422 102 472 102 530 C 102 580 110 625 126 665 C 142 705 164 742 192 774 C 220 806 254 833 292 857 C 330 880 372 899 418 915 C 401 940 387 968 377 999 C 367 1029 362 1062 362 1098 C 362 1162 375 1217 401 1265 C 427 1312 462 1351 506 1382 C 550 1413 602 1436 661 1452 C 720 1467 782 1475 848 1475 C 922 1475 995 1465 1068 1447 C 1141 1429 1213 1403 1284 1370 L 1208 1155 C 1158 1183 1102 1208 1041 1229 C 979 1249 916 1260 850 1260 C 830 1260 808 1258 786 1255 C 764 1251 743 1245 724 1236 C 705 1226 689 1213 677 1197 C 665 1181 659 1159 659 1133 C 659 1107 666 1084 682 1066 C 698 1048 720 1031 748 1017 C 776 1003 809 989 847 977 C 885 964 927 950 973 934 C 1004 922 1035 910 1067 896 C 1098 882 1128 867 1157 850 C 1186 832 1213 813 1239 792 C 1264 771 1286 748 1304 722 C 1322 696 1337 667 1348 635 C 1358 603 1364 568 1364 530 C 1364 480 1356 434 1340 394 C 1324 353 1301 317 1273 285 C 1244 253 1210 225 1172 201 C 1133 177 1091 158 1047 143 C 1064 118 1078 91 1088 61 C 1098 31 1104 -1 1104 -37 C 1104 -100 1091 -155 1065 -202 C 1039 -249 1003 -288 959 -319 C 915 -350 863 -373 804 -389 C 744 -404 682 -412 616 -412 C 543 -412 470 -403 397 -385 C 324 -367 252 -342 182 -309 L 258 -94 Z M 623 772 C 595 766 568 758 542 748 C 516 738 493 724 473 708 C 453 692 437 672 425 650 C 413 628 408 602 408 573 C 408 544 414 519 428 499 C 442 479 462 460 489 443 C 515 425 549 408 589 392 C 629 375 675 356 727 336 L 844 289 C 871 294 898 302 924 313 C 950 323 973 337 993 353 C 1013 369 1029 388 1041 411 C 1053 433 1059 459 1059 489 C 1059 517 1052 541 1038 562 C 1024 582 1004 601 978 619 C 951 637 918 654 878 671 C 838 687 791 706 739 727 L 623 772 Z" unicode="" />
<glyph horiz-adv-x="895" d="M 543 1470 L 496 1231 L 246 1231 L 293 1470 L 543 1470 Z M 971 1470 L 924 1231 L 674 1231 L 721 1470 L 971 1470 Z" unicode="" />
<glyph horiz-adv-x="1991" d="M 1040 -219 C 957 -219 877 -208 801 -187 C 724 -166 652 -136 586 -98 C 519 -60 458 -14 403 39 C 347 93 300 153 261 219 C 221 285 191 356 169 432 C 147 508 137 587 137 670 C 137 752 147 830 169 906 C 191 981 221 1051 261 1117 C 300 1182 347 1241 403 1295 C 458 1348 519 1394 586 1432 C 652 1470 724 1500 801 1521 C 877 1541 957 1552 1040 1552 C 1122 1552 1201 1541 1278 1521 C 1354 1500 1426 1470 1493 1432 C 1559 1394 1620 1348 1675 1295 C 1729 1241 1776 1182 1815 1117 C 1854 1051 1884 981 1906 906 C 1928 830 1939 752 1939 670 C 1939 587 1928 508 1906 432 C 1884 356 1854 285 1815 219 C 1776 153 1729 93 1675 39 C 1620 -14 1559 -60 1493 -98 C 1426 -136 1354 -166 1278 -187 C 1201 -208 1122 -219 1040 -219 Z M 1325 864 C 1283 887 1242 904 1202 914 C 1162 924 1124 930 1090 930 C 1052 930 1017 923 986 910 C 955 896 929 878 907 854 C 885 830 868 803 856 771 C 844 739 838 706 838 670 C 838 634 844 601 858 572 C 872 543 890 519 914 499 C 938 479 965 463 996 452 C 1027 441 1060 436 1096 436 C 1144 436 1187 440 1225 450 C 1263 460 1300 471 1337 485 L 1427 313 C 1403 301 1379 289 1355 279 C 1331 268 1304 259 1276 251 C 1248 243 1217 237 1183 233 C 1149 229 1111 227 1069 227 C 1000 227 935 237 875 258 C 815 279 762 309 717 348 C 672 386 636 433 610 488 C 584 542 571 603 571 670 C 571 735 582 796 606 853 C 629 910 662 960 705 1002 C 747 1044 799 1078 860 1102 C 920 1126 988 1139 1063 1139 C 1094 1139 1125 1136 1157 1131 C 1189 1126 1220 1119 1250 1111 C 1280 1103 1310 1093 1338 1081 C 1366 1069 1393 1056 1419 1042 L 1325 864 Z M 1040 -39 C 1105 -39 1168 -30 1229 -14 C 1289 2 1346 26 1398 57 C 1450 87 1498 124 1541 167 C 1584 209 1621 257 1651 310 C 1681 362 1705 419 1722 480 C 1738 540 1747 604 1747 670 C 1747 734 1738 795 1722 855 C 1705 915 1681 971 1651 1023 C 1621 1075 1584 1123 1541 1167 C 1498 1210 1450 1247 1398 1278 C 1346 1309 1289 1333 1229 1350 C 1168 1367 1105 1376 1040 1376 C 944 1376 853 1357 767 1319 C 681 1281 606 1230 541 1166 C 476 1102 425 1027 387 942 C 349 856 330 766 330 670 C 330 570 349 478 387 392 C 425 306 476 231 541 167 C 606 103 681 52 767 16 C 853 -20 944 -39 1040 -39 Z" unicode="" />
<glyph horiz-adv-x="965" d="M 1071 1477 L 975 1012 C 967 980 961 949 956 920 C 950 891 946 862 942 833 C 938 804 934 774 932 744 C 929 713 926 680 924 645 L 709 645 C 710 675 712 704 714 734 C 716 764 719 794 723 825 C 679 754 632 702 582 670 C 532 637 475 621 410 621 C 363 621 323 628 290 642 C 256 656 229 675 207 700 C 185 725 170 755 160 789 C 150 823 145 860 145 901 C 145 940 149 982 158 1028 C 167 1073 181 1118 199 1162 C 217 1206 239 1249 266 1290 C 292 1330 323 1366 358 1398 C 393 1429 432 1454 476 1473 C 519 1491 566 1501 618 1501 C 662 1501 702 1491 738 1473 C 774 1455 804 1422 829 1374 L 866 1477 L 1071 1477 Z M 494 821 C 523 821 552 831 581 851 C 609 871 636 897 661 930 C 685 962 707 999 725 1041 C 743 1083 757 1125 766 1169 L 776 1221 C 762 1247 744 1268 722 1283 C 700 1297 677 1305 655 1305 C 630 1305 606 1299 584 1287 C 562 1275 541 1260 522 1241 C 502 1221 485 1199 469 1174 C 453 1149 440 1123 429 1097 C 418 1070 410 1043 404 1016 C 398 989 395 964 395 942 C 395 906 402 877 418 855 C 433 832 458 821 494 821 Z" unicode="" />
<glyph horiz-adv-x="1225" d="M 709 924 L 330 567 L 551 231 L 293 231 L 84 510 L 111 647 L 430 924 L 709 924 Z M 1225 924 L 846 567 L 1067 231 L 809 231 L 598 510 L 625 647 L 944 924 L 1225 924 Z" unicode="" />
<glyph horiz-adv-x="1249" d="M 1188 1008 L 1188 215 L 911 215 L 911 745 L 61 745 L 61 1008 L 1188 1008 Z" unicode="" />
<glyph horiz-adv-x="707" d="M 674 748 L 621 479 L 88 479 L 139 748 L 674 748 Z" unicode="" />
<glyph horiz-adv-x="1161" d="M 680 500 C 608 500 542 512 481 538 C 419 563 366 597 321 641 C 275 685 240 736 214 796 C 188 855 176 919 176 987 C 176 1053 188 1116 214 1176 C 240 1236 275 1288 321 1333 C 366 1378 419 1414 481 1440 C 542 1466 608 1479 680 1479 C 751 1479 817 1466 879 1440 C 941 1414 994 1378 1040 1333 C 1086 1288 1122 1236 1148 1176 C 1174 1116 1188 1053 1188 987 C 1188 919 1174 855 1148 796 C 1122 736 1086 685 1040 641 C 994 597 941 563 879 538 C 817 512 751 500 680 500 Z M 471 760 L 471 1249 L 754 1249 C 780 1249 804 1245 826 1237 C 848 1229 868 1218 884 1204 C 900 1190 912 1173 922 1153 C 931 1133 936 1112 936 1090 C 936 1062 927 1035 911 1010 C 895 984 870 965 836 952 L 948 760 L 809 760 L 713 934 L 592 934 L 592 760 L 471 760 Z M 592 1153 L 592 1030 L 748 1030 C 767 1030 783 1036 795 1050 C 807 1063 813 1077 813 1092 C 813 1108 807 1122 795 1134 C 783 1146 768 1153 750 1153 L 592 1153 Z M 680 592 C 738 592 792 602 842 623 C 892 643 935 672 972 708 C 1009 744 1038 786 1060 834 C 1081 882 1092 934 1092 989 C 1092 1043 1081 1094 1060 1142 C 1038 1190 1009 1233 972 1269 C 935 1305 892 1334 842 1356 C 792 1378 738 1389 680 1389 C 622 1389 569 1378 519 1357 C 469 1335 426 1306 390 1270 C 353 1234 324 1191 303 1143 C 282 1094 272 1043 272 989 C 272 933 282 881 303 833 C 324 785 353 743 390 707 C 426 671 469 643 519 623 C 569 602 622 592 680 592 Z" unicode="" />
<glyph horiz-adv-x="895" d="M 899 1430 L 864 1245 L 319 1245 L 356 1430 L 899 1430 Z" unicode="" />
<glyph horiz-adv-x="803" d="M 565 1483 C 609 1483 649 1476 685 1462 C 721 1448 751 1428 777 1402 C 802 1376 821 1343 835 1304 C 849 1265 856 1221 856 1171 C 856 1141 853 1109 848 1076 C 843 1042 835 1009 823 976 C 811 943 795 911 776 881 C 757 851 733 824 705 801 C 677 777 644 759 606 745 C 568 731 525 725 477 725 C 431 725 391 731 355 745 C 319 759 289 779 264 805 C 238 831 219 864 206 902 C 192 940 186 984 186 1034 C 186 1063 188 1095 193 1129 C 198 1163 207 1196 219 1229 C 231 1262 246 1294 265 1325 C 284 1355 308 1382 336 1406 C 364 1429 397 1448 435 1462 C 473 1476 516 1483 565 1483 Z M 553 1317 C 527 1317 505 1312 487 1303 C 468 1293 452 1281 439 1266 C 425 1251 414 1234 406 1215 C 397 1196 390 1177 386 1157 C 381 1137 378 1117 376 1098 C 374 1078 373 1061 373 1047 C 373 1026 374 1006 378 988 C 382 969 388 952 397 938 C 405 924 417 912 432 904 C 446 895 465 891 487 891 C 525 891 555 900 579 920 C 603 939 621 963 635 991 C 649 1019 658 1048 663 1079 C 667 1109 670 1136 670 1159 C 670 1179 668 1199 664 1218 C 660 1237 654 1254 645 1269 C 636 1283 624 1295 609 1304 C 594 1312 575 1317 553 1317 Z" unicode="" />
<glyph horiz-adv-x="1249" d="M 487 1006 L 487 1356 L 766 1356 L 766 1006 L 1188 1006 L 1188 741 L 766 741 L 766 387 L 487 387 L 487 741 L 61 741 L 61 1006 L 487 1006 Z M 1188 262 L 1188 0 L 61 0 L 61 262 L 1188 262 Z" unicode="" />
<glyph horiz-adv-x="887" d="M 479 954 C 509 975 538 996 566 1016 C 594 1036 620 1057 642 1077 C 664 1097 681 1116 695 1136 C 708 1156 715 1176 715 1198 C 715 1208 712 1219 708 1230 C 704 1240 697 1250 689 1259 C 680 1267 669 1274 656 1280 C 642 1285 626 1288 608 1288 C 580 1288 551 1279 523 1263 C 495 1246 464 1215 430 1171 L 266 1251 C 282 1277 302 1302 324 1328 C 346 1354 373 1377 404 1397 C 434 1417 469 1434 509 1447 C 549 1459 594 1466 645 1466 C 685 1466 723 1461 759 1452 C 795 1443 827 1429 855 1409 C 883 1389 905 1364 921 1333 C 937 1302 946 1265 946 1221 C 946 1191 942 1163 934 1137 C 926 1111 913 1087 896 1063 C 878 1039 856 1015 830 992 C 803 968 771 944 735 920 L 453 729 L 848 729 L 813 549 L 121 549 L 158 725 L 479 954 Z" unicode="" />
<glyph horiz-adv-x="831" d="M 219 1333 C 232 1349 249 1365 271 1381 C 293 1397 318 1411 347 1424 C 376 1437 408 1448 443 1456 C 478 1464 515 1468 555 1468 C 593 1468 631 1463 668 1455 C 705 1446 738 1432 767 1414 C 796 1395 819 1371 837 1343 C 855 1315 864 1281 864 1243 C 864 1195 850 1153 823 1117 C 796 1080 756 1052 702 1034 L 700 1024 C 736 1012 765 993 789 965 C 813 937 825 898 825 848 C 825 808 817 773 803 742 C 788 710 768 682 743 658 C 717 634 688 613 654 596 C 620 579 585 565 547 554 C 509 543 471 535 431 530 C 391 524 353 522 317 522 C 289 522 260 523 231 525 C 202 527 176 531 154 537 L 154 719 C 166 716 179 714 194 712 C 209 710 225 708 241 706 C 257 704 273 703 289 703 C 305 702 319 702 332 702 C 359 702 389 704 421 709 C 453 714 482 722 509 734 C 536 745 559 760 577 780 C 595 799 604 823 604 852 C 604 866 601 879 596 889 C 590 899 583 908 575 914 C 566 920 556 925 544 928 C 532 930 520 932 508 932 C 494 932 475 931 450 929 C 425 927 393 923 354 918 L 354 1083 L 479 1092 C 495 1092 513 1095 532 1101 C 551 1107 569 1115 585 1125 C 601 1135 615 1148 626 1163 C 637 1178 643 1196 643 1217 C 643 1243 632 1263 612 1276 C 591 1289 564 1296 530 1296 C 501 1296 472 1290 442 1278 C 412 1266 380 1248 344 1223 L 219 1333 L 219 1333 Z" unicode="" />
<glyph horiz-adv-x="895" d="M 913 1530 L 913 1436 L 600 1204 L 434 1204 L 446 1272 L 694 1530 L 913 1530 Z" unicode="" />
<glyph horiz-adv-x="1278" d="M 262 1077 L 555 1077 L 455 543 C 453 532 450 518 447 501 C 443 483 440 465 437 446 C 434 427 431 408 429 390 C 427 371 426 355 426 342 C 425 324 426 308 430 292 C 434 276 440 263 449 251 C 457 239 469 230 484 223 C 499 216 518 213 541 213 C 577 213 611 223 643 244 C 675 265 705 294 731 330 C 757 366 780 407 800 455 C 819 502 834 552 844 604 L 936 1077 L 1229 1077 L 1106 444 C 1091 365 1079 290 1070 219 C 1061 148 1056 75 1055 0 L 786 0 C 787 32 788 62 790 91 C 792 120 795 152 799 186 C 744 119 688 68 631 34 C 574 0 510 -18 438 -18 C 405 -18 378 -11 357 0 C 335 12 318 28 305 47 L 295 39 L 301 -139 L 240 -451 L -35 -451 L 262 1077 Z" unicode="" />
<glyph horiz-adv-x="1606" d="M 1202 -451 L 942 -451 L 1268 1237 L 1034 1237 L 711 -451 L 451 -451 L 635 512 L 575 512 C 519 512 470 521 428 541 C 386 561 350 588 322 624 C 294 659 272 701 258 750 C 243 799 236 853 236 913 C 236 951 239 990 245 1031 C 251 1071 262 1111 277 1151 C 292 1191 312 1228 337 1264 C 361 1300 392 1331 428 1358 C 464 1384 506 1406 554 1422 C 602 1438 658 1446 721 1446 L 1567 1446 L 1202 -451 Z" unicode="" />
<glyph horiz-adv-x="594" d="M 485 745 L 485 381 L 109 381 L 109 745 L 485 745 Z" unicode="" />
<glyph horiz-adv-x="895" d="M 416 8 L 489 -96 C 500 -112 510 -131 520 -152 C 530 -172 535 -198 535 -229 C 535 -264 527 -295 512 -323 C 497 -350 476 -373 450 -392 C 423 -411 391 -426 355 -436 C 318 -446 278 -451 236 -451 C 187 -451 148 -447 118 -440 C 88 -432 61 -422 37 -408 L 86 -268 C 109 -278 132 -286 155 -292 C 177 -298 199 -301 221 -301 C 231 -301 241 -300 252 -298 C 263 -296 273 -293 283 -288 C 292 -283 300 -276 306 -267 C 312 -258 315 -247 315 -233 C 315 -221 311 -210 304 -201 C 297 -192 290 -183 283 -174 L 238 -117 C 233 -111 229 -105 227 -98 C 225 -91 225 -83 227 -74 L 244 8 L 416 8 Z" unicode="" />
<glyph horiz-adv-x="555" d="M 426 1446 L 616 1446 L 588 1350 L 432 549 L 211 549 L 344 1225 L 354 1264 L 350 1264 L 199 1200 L 233 1382 L 426 1446 Z" unicode="" />
<glyph horiz-adv-x="956" d="M 635 1499 C 693 1499 746 1490 793 1472 C 840 1454 880 1428 913 1395 C 945 1362 970 1322 988 1275 C 1005 1228 1014 1176 1014 1118 C 1014 1058 1004 998 984 939 C 964 879 935 826 897 780 C 858 733 810 695 752 666 C 694 637 627 623 551 623 C 491 623 438 632 391 650 C 344 668 304 693 272 727 C 239 760 214 800 197 847 C 180 894 172 946 172 1004 C 172 1064 181 1123 201 1182 C 220 1241 249 1294 287 1341 C 325 1388 374 1426 432 1455 C 490 1484 557 1499 635 1499 Z M 768 1118 C 768 1174 756 1218 734 1252 C 711 1286 675 1303 625 1303 C 583 1303 549 1292 523 1272 C 496 1251 475 1225 459 1195 C 443 1164 431 1131 425 1096 C 419 1061 416 1029 416 1001 C 416 944 427 899 450 866 C 472 833 509 817 559 817 C 586 817 610 821 631 831 C 652 841 670 854 686 870 C 701 886 714 904 725 925 C 735 945 744 967 750 989 C 756 1011 761 1034 764 1056 C 766 1078 768 1098 768 1118 Z" unicode="" />
<glyph horiz-adv-x="1225" d="M 561 231 L 940 588 L 719 924 L 975 924 L 1186 645 L 1159 508 L 840 231 L 561 231 Z M 45 231 L 424 588 L 203 924 L 461 924 L 670 645 L 643 508 L 324 231 L 45 231 Z" unicode="" />
<glyph horiz-adv-x="1778" d="M 426 1446 L 616 1446 L 588 1350 L 432 549 L 211 549 L 344 1225 L 354 1264 L 350 1264 L 199 1200 L 233 1382 L 426 1446 Z M 1435 1446 L 484 0 L 263 0 L 1213 1446 L 1435 1446 Z M 1679 898 L 1564 337 L 1691 337 L 1661 169 L 1532 169 L 1499 1 L 1284 1 L 1316 169 L 911 169 L 946 347 L 1441 898 L 1679 898 Z M 1126 337 L 1347 337 L 1390 523 L 1423 650 L 1417 650 L 1126 337 Z" unicode="" />
<glyph horiz-adv-x="1894" d="M 426 1446 L 616 1446 L 588 1350 L 432 549 L 211 549 L 344 1225 L 354 1264 L 350 1264 L 199 1200 L 233 1382 L 426 1446 Z M 1434 1446 L 483 0 L 262 0 L 1212 1446 L 1434 1446 Z M 1368 406 C 1398 427 1427 448 1455 468 C 1483 488 1509 509 1531 529 C 1553 549 1570 568 1584 588 C 1597 608 1604 628 1604 650 C 1604 660 1601 671 1597 682 C 1593 692 1586 702 1578 711 C 1569 719 1558 726 1545 732 C 1531 737 1515 740 1497 740 C 1469 740 1440 731 1412 715 C 1384 698 1353 667 1319 623 L 1155 703 C 1171 729 1191 754 1213 780 C 1235 806 1262 829 1293 849 C 1323 869 1358 886 1398 899 C 1438 911 1483 918 1534 918 C 1574 918 1612 913 1648 904 C 1684 895 1716 881 1744 861 C 1772 841 1794 816 1810 785 C 1826 754 1835 717 1835 673 C 1835 643 1831 615 1823 589 C 1815 563 1802 539 1785 515 C 1767 491 1745 467 1719 444 C 1692 420 1660 396 1624 372 L 1342 181 L 1737 181 L 1702 1 L 1010 1 L 1047 177 L 1368 406 Z" unicode="" />
<glyph horiz-adv-x="2030" d="M 219 1333 C 232 1349 249 1365 271 1381 C 293 1397 318 1411 347 1424 C 376 1437 408 1448 443 1456 C 478 1464 515 1468 555 1468 C 593 1468 631 1463 668 1455 C 705 1446 738 1432 767 1414 C 796 1395 819 1371 837 1343 C 855 1315 864 1281 864 1243 C 864 1195 850 1153 823 1117 C 796 1080 756 1052 702 1034 L 700 1024 C 736 1012 765 993 789 965 C 813 937 825 898 825 848 C 825 808 817 773 803 742 C 788 710 768 682 743 658 C 717 634 688 613 654 596 C 620 579 585 565 547 554 C 509 543 471 535 431 530 C 391 524 353 522 317 522 C 289 522 260 523 231 525 C 202 527 176 531 154 537 L 154 719 C 166 716 179 714 194 712 C 209 710 225 708 241 706 C 257 704 273 703 289 703 C 305 702 319 702 332 702 C 359 702 389 704 421 709 C 453 714 482 722 509 734 C 536 745 559 760 577 780 C 595 799 604 823 604 852 C 604 866 601 879 596 889 C 590 899 583 908 575 914 C 566 920 556 925 544 928 C 532 930 520 932 508 932 C 494 932 475 931 450 929 C 425 927 393 923 354 918 L 354 1083 L 479 1092 C 495 1092 513 1095 532 1101 C 551 1107 569 1115 585 1125 C 601 1135 615 1148 626 1163 C 637 1178 643 1196 643 1217 C 643 1243 632 1263 612 1276 C 591 1289 564 1296 530 1296 C 501 1296 472 1290 442 1278 C 412 1266 380 1248 344 1223 L 219 1333 L 219 1333 Z M 1686 1446 L 735 0 L 514 0 L 1464 1446 L 1686 1446 Z M 1931 898 L 1816 337 L 1943 337 L 1913 169 L 1784 169 L 1751 1 L 1536 1 L 1568 169 L 1163 169 L 1198 347 L 1693 898 L 1931 898 Z M 1378 337 L 1599 337 L 1642 523 L 1675 650 L 1669 650 L 1378 337 Z" unicode="" />
<glyph horiz-adv-x="920" d="M 850 86 C 830 71 805 56 775 42 C 745 27 713 14 678 2 C 642 -9 605 -18 565 -26 C 525 -33 486 -37 446 -37 C 395 -37 346 -30 300 -18 C 253 -6 212 13 176 39 C 140 65 111 99 89 141 C 67 182 57 231 57 289 C 57 341 65 386 82 426 C 99 466 122 502 151 536 C 179 570 212 602 250 632 C 287 662 326 694 367 727 C 391 746 413 764 431 780 C 449 796 465 813 479 829 C 492 845 503 862 512 880 C 521 898 529 918 535 940 L 805 940 C 797 900 788 865 778 834 C 767 802 751 771 729 741 C 707 710 679 678 643 646 C 607 614 561 577 504 537 C 486 523 467 509 448 495 C 428 481 411 465 395 448 C 379 431 365 413 355 393 C 345 373 340 352 340 330 C 340 292 354 264 382 244 C 410 224 448 215 494 215 C 528 215 567 221 611 233 C 654 245 702 263 754 289 L 850 86 Z M 528 1116 L 592 1446 L 920 1446 L 856 1116 L 528 1116 Z" unicode="" />
<glyph horiz-adv-x="1436" d="M 279 0 L -57 0 L 735 1446 L 1090 1446 L 1313 0 L 969 0 L 936 287 L 422 287 L 279 0 Z M 551 543 L 907 543 L 860 971 L 850 1110 L 831 1110 L 766 971 L 551 543 Z M 829 1899 L 1087 1641 L 1075 1573 L 923 1573 L 612 1805 L 612 1899 L 829 1899 Z" unicode="" />
<glyph horiz-adv-x="1436" d="M 279 0 L -57 0 L 735 1446 L 1090 1446 L 1313 0 L 969 0 L 936 287 L 422 287 L 279 0 Z M 551 543 L 907 543 L 860 971 L 850 1110 L 831 1110 L 766 971 L 551 543 Z M 1238 1899 L 1238 1805 L 925 1573 L 759 1573 L 771 1641 L 1019 1899 L 1238 1899 Z" unicode="" />
<glyph horiz-adv-x="1436" d="M 279 0 L -57 0 L 735 1446 L 1090 1446 L 1313 0 L 969 0 L 936 287 L 422 287 L 279 0 Z M 551 543 L 907 543 L 860 971 L 850 1110 L 831 1110 L 766 971 L 551 543 Z M 1067 1901 L 1241 1639 L 1229 1575 L 1141 1575 L 969 1731 L 956 1731 L 723 1575 L 608 1575 L 621 1639 L 897 1901 L 1067 1901 Z" unicode="" />
<glyph horiz-adv-x="1436" d="M 279 0 L -57 0 L 735 1446 L 1090 1446 L 1313 0 L 969 0 L 936 287 L 422 287 L 279 0 Z M 551 543 L 907 543 L 860 971 L 850 1110 L 831 1110 L 766 971 L 551 543 Z M 657 1785 C 689 1818 719 1842 748 1856 C 776 1870 808 1878 842 1878 C 871 1878 897 1872 920 1861 C 942 1850 967 1833 995 1810 L 1040 1775 C 1051 1765 1061 1758 1070 1753 C 1078 1748 1087 1746 1096 1746 C 1104 1746 1111 1748 1119 1753 C 1127 1757 1136 1765 1147 1775 L 1208 1837 L 1335 1740 L 1255 1654 C 1224 1621 1194 1597 1165 1582 C 1136 1567 1105 1560 1071 1560 C 1042 1560 1016 1566 994 1578 C 972 1590 947 1606 920 1628 L 874 1663 C 862 1671 852 1677 844 1683 C 835 1688 826 1691 817 1691 C 809 1691 801 1689 793 1685 C 785 1681 776 1674 766 1663 L 704 1603 L 578 1697 L 657 1785 Z" unicode="" />
<glyph horiz-adv-x="1436" d="M 279 0 L -57 0 L 735 1446 L 1090 1446 L 1313 0 L 969 0 L 936 287 L 422 287 L 279 0 Z M 551 543 L 907 543 L 860 971 L 850 1110 L 831 1110 L 766 971 L 551 543 Z M 885 1828 L 838 1589 L 588 1589 L 635 1828 L 885 1828 Z M 1313 1828 L 1266 1589 L 1016 1589 L 1063 1828 L 1313 1828 Z" unicode="" />
<glyph horiz-adv-x="1436" d="M 279 0 L -57 0 L 735 1446 L 1090 1446 L 1313 0 L 969 0 L 936 287 L 422 287 L 279 0 Z M 551 543 L 907 543 L 860 971 L 850 1110 L 831 1110 L 766 971 L 551 543 Z M 696 1772 C 696 1804 702 1835 715 1864 C 727 1892 745 1917 767 1939 C 789 1961 816 1978 848 1990 C 879 2002 914 2009 952 2009 C 990 2009 1024 2002 1056 1990 C 1087 1978 1114 1961 1137 1939 C 1159 1917 1177 1892 1189 1864 C 1201 1835 1208 1804 1208 1772 C 1208 1739 1201 1708 1189 1679 C 1177 1650 1159 1625 1137 1604 C 1114 1582 1087 1565 1056 1553 C 1024 1540 990 1534 952 1534 C 914 1534 879 1540 848 1553 C 816 1565 789 1582 767 1604 C 745 1625 727 1650 715 1679 C 702 1708 696 1739 696 1772 Z M 836 1772 C 836 1756 839 1740 845 1726 C 851 1712 860 1699 870 1689 C 880 1679 893 1670 907 1664 C 921 1658 936 1655 952 1655 C 968 1655 984 1658 998 1664 C 1012 1670 1024 1679 1035 1689 C 1045 1699 1054 1712 1060 1726 C 1066 1740 1069 1756 1069 1772 C 1069 1788 1066 1803 1060 1818 C 1054 1832 1045 1845 1035 1856 C 1024 1866 1012 1875 998 1881 C 984 1887 968 1891 952 1891 C 936 1891 921 1887 907 1881 C 893 1875 880 1866 870 1856 C 860 1845 851 1832 845 1818 C 839 1803 836 1788 836 1772 Z" unicode="" />
<glyph horiz-adv-x="2091" d="M 205 0 L -150 0 L 969 1446 L 2150 1446 L 2103 1202 L 1395 1202 L 1329 872 L 1944 872 L 1894 616 L 1280 616 L 1206 242 L 1937 242 L 1890 0 L 858 0 L 920 311 L 438 311 L 205 0 Z M 629 563 L 969 563 L 1087 1171 L 1067 1171 L 973 1020 L 629 563 Z" unicode="" />
<glyph horiz-adv-x="1343" d="M 1161 41 C 1117 18 1066 1 1010 -10 C 954 -21 887 -27 811 -27 C 801 -27 793 -27 785 -27 C 777 -27 767 -26 756 -25 L 807 -96 C 818 -112 828 -131 838 -152 C 847 -172 852 -198 852 -229 C 852 -264 844 -295 829 -323 C 814 -350 793 -373 767 -392 C 740 -411 708 -426 672 -436 C 635 -446 595 -451 553 -451 C 505 -451 466 -447 436 -440 C 406 -432 378 -422 354 -408 L 403 -268 C 427 -278 450 -286 473 -292 C 495 -298 517 -301 539 -301 C 549 -301 559 -300 570 -298 C 581 -296 591 -293 601 -288 C 610 -283 618 -276 624 -267 C 630 -258 633 -247 633 -233 C 633 -221 629 -210 622 -201 C 614 -192 607 -183 600 -174 L 555 -117 C 551 -111 547 -105 545 -98 C 543 -91 543 -83 545 -74 L 559 4 C 495 22 438 47 387 80 C 335 113 291 154 254 203 C 217 251 189 308 169 373 C 149 437 139 510 139 592 C 139 666 146 740 162 813 C 178 885 201 954 232 1020 C 263 1085 301 1145 347 1201 C 393 1257 446 1305 506 1345 C 566 1385 632 1417 706 1440 C 780 1463 860 1475 948 1475 C 987 1475 1027 1472 1069 1467 C 1111 1461 1152 1453 1193 1441 C 1234 1429 1274 1413 1313 1395 C 1351 1376 1387 1353 1421 1327 L 1307 1075 C 1281 1093 1252 1111 1222 1127 C 1191 1143 1159 1156 1127 1168 C 1094 1179 1061 1188 1027 1194 C 993 1200 959 1204 926 1204 C 846 1204 778 1187 720 1155 C 662 1122 615 1079 577 1025 C 539 971 510 909 492 840 C 474 770 465 699 465 627 C 465 505 496 410 560 343 C 623 275 720 242 852 242 C 914 242 970 248 1020 260 C 1070 272 1117 287 1161 305 L 1161 41 Z" unicode="" />
<glyph horiz-adv-x="1309" d="M 555 872 L 1161 872 L 1112 616 L 506 616 L 434 252 L 1155 252 L 1108 0 L 76 0 L 356 1446 L 1368 1446 L 1319 1194 L 618 1194 L 555 872 Z M 774 1899 L 1032 1641 L 1020 1573 L 868 1573 L 557 1805 L 557 1899 L 774 1899 Z" unicode="" />
<glyph horiz-adv-x="1309" d="M 555 872 L 1161 872 L 1112 616 L 506 616 L 434 252 L 1155 252 L 1108 0 L 76 0 L 356 1446 L 1368 1446 L 1319 1194 L 618 1194 L 555 872 Z M 1207 1899 L 1207 1805 L 894 1573 L 728 1573 L 740 1641 L 988 1899 L 1207 1899 Z" unicode="" />
<glyph horiz-adv-x="1309" d="M 555 872 L 1161 872 L 1112 616 L 506 616 L 434 252 L 1155 252 L 1108 0 L 76 0 L 356 1446 L 1368 1446 L 1319 1194 L 618 1194 L 555 872 Z M 1018 1901 L 1192 1639 L 1180 1575 L 1092 1575 L 920 1731 L 907 1731 L 674 1575 L 559 1575 L 572 1639 L 848 1901 L 1018 1901 Z" unicode="" />
<glyph horiz-adv-x="1309" d="M 555 872 L 1161 872 L 1112 616 L 506 616 L 434 252 L 1155 252 L 1108 0 L 76 0 L 356 1446 L 1368 1446 L 1319 1194 L 618 1194 L 555 872 Z M 836 1828 L 789 1589 L 539 1589 L 586 1828 L 836 1828 Z M 1264 1828 L 1217 1589 L 967 1589 L 1014 1828 L 1264 1828 Z" unicode="" />
<glyph horiz-adv-x="643" d="M 670 1446 L 389 0 L 76 0 L 356 1446 L 670 1446 Z M 445 1899 L 703 1641 L 691 1573 L 539 1573 L 228 1805 L 228 1899 L 445 1899 Z" unicode="" />
<glyph horiz-adv-x="643" d="M 670 1446 L 389 0 L 76 0 L 356 1446 L 670 1446 Z M 857 1899 L 857 1805 L 544 1573 L 378 1573 L 390 1641 L 638 1899 L 857 1899 Z" unicode="" />
<glyph horiz-adv-x="643" d="M 670 1446 L 389 0 L 76 0 L 356 1446 L 670 1446 Z M 683 1899 L 857 1637 L 845 1573 L 757 1573 L 585 1729 L 572 1729 L 339 1573 L 224 1573 L 237 1637 L 513 1899 L 683 1899 Z" unicode="" />
<glyph horiz-adv-x="643" d="M 670 1446 L 389 0 L 76 0 L 356 1446 L 670 1446 Z M 499 1828 L 452 1589 L 202 1589 L 249 1828 L 499 1828 Z M 927 1828 L 880 1589 L 630 1589 L 677 1828 L 927 1828 Z" unicode="" />
<glyph horiz-adv-x="1567" d="M 133 868 L 287 868 L 397 1446 L 850 1446 C 954 1446 1049 1432 1134 1404 C 1218 1376 1290 1334 1350 1280 C 1410 1225 1456 1158 1488 1078 C 1520 998 1536 905 1536 801 C 1536 731 1528 663 1513 597 C 1497 530 1474 467 1444 408 C 1413 348 1374 294 1328 244 C 1282 194 1228 151 1166 115 C 1104 79 1034 50 956 30 C 878 10 792 0 698 0 L 121 0 L 240 627 L 86 627 L 133 868 Z M 664 1194 L 600 868 L 911 868 L 864 627 L 553 627 L 481 252 L 700 252 C 781 252 853 266 917 296 C 981 325 1034 364 1078 414 C 1122 464 1155 521 1178 587 C 1200 652 1212 721 1212 793 C 1212 846 1205 897 1191 945 C 1177 993 1154 1036 1123 1073 C 1092 1110 1051 1139 1001 1161 C 951 1183 889 1194 817 1194 L 664 1194 Z" unicode="" />
<glyph horiz-adv-x="1538" d="M 356 1446 L 719 1446 L 987 696 L 1063 428 L 1085 428 L 1133 784 L 1260 1446 L 1565 1446 L 1284 0 L 930 0 L 653 750 L 578 1018 L 555 1018 L 510 662 L 381 0 L 76 0 L 356 1446 Z M 680 1785 C 712 1818 742 1842 771 1856 C 799 1870 831 1878 865 1878 C 894 1878 920 1872 943 1861 C 965 1850 990 1833 1018 1810 L 1063 1775 C 1074 1765 1084 1758 1093 1753 C 1101 1748 1110 1746 1119 1746 C 1127 1746 1134 1748 1142 1753 C 1150 1757 1159 1765 1170 1775 L 1231 1837 L 1358 1740 L 1278 1654 C 1247 1621 1217 1597 1188 1582 C 1159 1567 1128 1560 1094 1560 C 1065 1560 1039 1566 1017 1578 C 995 1590 970 1606 943 1628 L 897 1663 C 885 1671 875 1677 867 1683 C 858 1688 849 1691 840 1691 C 832 1691 824 1689 816 1685 C 808 1681 799 1674 789 1663 L 727 1603 L 601 1697 L 680 1785 Z" unicode="" />
<glyph horiz-adv-x="1606" d="M 934 1475 C 1026 1475 1112 1461 1190 1435 C 1268 1408 1336 1368 1393 1314 C 1450 1260 1495 1194 1527 1114 C 1559 1034 1575 942 1575 836 C 1575 765 1567 695 1552 625 C 1537 555 1515 488 1485 424 C 1455 360 1418 300 1374 245 C 1329 190 1277 142 1218 102 C 1158 62 1091 30 1017 7 C 943 -15 861 -27 772 -27 C 680 -27 595 -13 517 13 C 439 39 371 79 315 133 C 258 186 214 252 182 332 C 150 412 135 504 135 610 C 135 680 142 751 157 821 C 172 891 195 959 225 1023 C 255 1087 292 1146 336 1201 C 380 1256 432 1304 492 1345 C 551 1385 617 1417 691 1440 C 765 1463 846 1475 934 1475 Z M 1251 817 C 1251 876 1243 930 1229 978 C 1215 1026 1194 1066 1166 1100 C 1138 1134 1103 1160 1061 1178 C 1019 1196 970 1206 915 1206 C 861 1206 813 1197 769 1181 C 725 1165 687 1142 653 1114 C 619 1086 589 1053 564 1015 C 539 977 519 937 503 895 C 487 852 475 808 467 762 C 459 716 455 672 455 629 C 455 569 462 516 476 468 C 490 420 512 380 540 347 C 568 313 604 287 646 269 C 688 251 737 242 793 242 C 846 242 894 250 938 266 C 981 282 1019 305 1053 333 C 1087 361 1116 394 1141 432 C 1166 469 1187 509 1203 552 C 1219 594 1231 638 1239 684 C 1247 729 1251 773 1251 817 Z M 919 1899 L 1177 1641 L 1165 1573 L 1013 1573 L 702 1805 L 702 1899 L 919 1899 Z" unicode="" />
<glyph horiz-adv-x="1606" d="M 934 1475 C 1026 1475 1112 1461 1190 1435 C 1268 1408 1336 1368 1393 1314 C 1450 1260 1495 1194 1527 1114 C 1559 1034 1575 942 1575 836 C 1575 765 1567 695 1552 625 C 1537 555 1515 488 1485 424 C 1455 360 1418 300 1374 245 C 1329 190 1277 142 1218 102 C 1158 62 1091 30 1017 7 C 943 -15 861 -27 772 -27 C 680 -27 595 -13 517 13 C 439 39 371 79 315 133 C 258 186 214 252 182 332 C 150 412 135 504 135 610 C 135 680 142 751 157 821 C 172 891 195 959 225 1023 C 255 1087 292 1146 336 1201 C 380 1256 432 1304 492 1345 C 551 1385 617 1417 691 1440 C 765 1463 846 1475 934 1475 Z M 1251 817 C 1251 876 1243 930 1229 978 C 1215 1026 1194 1066 1166 1100 C 1138 1134 1103 1160 1061 1178 C 1019 1196 970 1206 915 1206 C 861 1206 813 1197 769 1181 C 725 1165 687 1142 653 1114 C 619 1086 589 1053 564 1015 C 539 977 519 937 503 895 C 487 852 475 808 467 762 C 459 716 455 672 455 629 C 455 569 462 516 476 468 C 490 420 512 380 540 347 C 568 313 604 287 646 269 C 688 251 737 242 793 242 C 846 242 894 250 938 266 C 981 282 1019 305 1053 333 C 1087 361 1116 394 1141 432 C 1166 469 1187 509 1203 552 C 1219 594 1231 638 1239 684 C 1247 729 1251 773 1251 817 Z M 1348 1899 L 1348 1805 L 1035 1573 L 869 1573 L 881 1641 L 1129 1899 L 1348 1899 Z" unicode="" />
<glyph horiz-adv-x="1606" d="M 934 1475 C 1026 1475 1112 1461 1190 1435 C 1268 1408 1336 1368 1393 1314 C 1450 1260 1495 1194 1527 1114 C 1559 1034 1575 942 1575 836 C 1575 765 1567 695 1552 625 C 1537 555 1515 488 1485 424 C 1455 360 1418 300 1374 245 C 1329 190 1277 142 1218 102 C 1158 62 1091 30 1017 7 C 943 -15 861 -27 772 -27 C 680 -27 595 -13 517 13 C 439 39 371 79 315 133 C 258 186 214 252 182 332 C 150 412 135 504 135 610 C 135 680 142 751 157 821 C 172 891 195 959 225 1023 C 255 1087 292 1146 336 1201 C 380 1256 432 1304 492 1345 C 551 1385 617 1417 691 1440 C 765 1463 846 1475 934 1475 Z M 1251 817 C 1251 876 1243 930 1229 978 C 1215 1026 1194 1066 1166 1100 C 1138 1134 1103 1160 1061 1178 C 1019 1196 970 1206 915 1206 C 861 1206 813 1197 769 1181 C 725 1165 687 1142 653 1114 C 619 1086 589 1053 564 1015 C 539 977 519 937 503 895 C 487 852 475 808 467 762 C 459 716 455 672 455 629 C 455 569 462 516 476 468 C 490 420 512 380 540 347 C 568 313 604 287 646 269 C 688 251 737 242 793 242 C 846 242 894 250 938 266 C 981 282 1019 305 1053 333 C 1087 361 1116 394 1141 432 C 1166 469 1187 509 1203 552 C 1219 594 1231 638 1239 684 C 1247 729 1251 773 1251 817 Z M 1161 1901 L 1335 1639 L 1323 1575 L 1235 1575 L 1063 1731 L 1050 1731 L 817 1575 L 702 1575 L 715 1639 L 991 1901 L 1161 1901 Z" unicode="" />
<glyph horiz-adv-x="1606" d="M 934 1475 C 1026 1475 1112 1461 1190 1435 C 1268 1408 1336 1368 1393 1314 C 1450 1260 1495 1194 1527 1114 C 1559 1034 1575 942 1575 836 C 1575 765 1567 695 1552 625 C 1537 555 1515 488 1485 424 C 1455 360 1418 300 1374 245 C 1329 190 1277 142 1218 102 C 1158 62 1091 30 1017 7 C 943 -15 861 -27 772 -27 C 680 -27 595 -13 517 13 C 439 39 371 79 315 133 C 258 186 214 252 182 332 C 150 412 135 504 135 610 C 135 680 142 751 157 821 C 172 891 195 959 225 1023 C 255 1087 292 1146 336 1201 C 380 1256 432 1304 492 1345 C 551 1385 617 1417 691 1440 C 765 1463 846 1475 934 1475 Z M 1251 817 C 1251 876 1243 930 1229 978 C 1215 1026 1194 1066 1166 1100 C 1138 1134 1103 1160 1061 1178 C 1019 1196 970 1206 915 1206 C 861 1206 813 1197 769 1181 C 725 1165 687 1142 653 1114 C 619 1086 589 1053 564 1015 C 539 977 519 937 503 895 C 487 852 475 808 467 762 C 459 716 455 672 455 629 C 455 569 462 516 476 468 C 490 420 512 380 540 347 C 568 313 604 287 646 269 C 688 251 737 242 793 242 C 846 242 894 250 938 266 C 981 282 1019 305 1053 333 C 1087 361 1116 394 1141 432 C 1166 469 1187 509 1203 552 C 1219 594 1231 638 1239 684 C 1247 729 1251 773 1251 817 Z M 751 1785 C 783 1818 813 1842 842 1856 C 870 1870 902 1878 936 1878 C 965 1878 991 1872 1014 1861 C 1036 1850 1061 1833 1089 1810 L 1134 1775 C 1145 1765 1155 1758 1164 1753 C 1172 1748 1181 1746 1190 1746 C 1198 1746 1205 1748 1213 1753 C 1221 1757 1230 1765 1241 1775 L 1302 1837 L 1429 1740 L 1349 1654 C 1318 1621 1288 1597 1259 1582 C 1230 1567 1199 1560 1165 1560 C 1136 1560 1110 1566 1088 1578 C 1066 1590 1041 1606 1014 1628 L 968 1663 C 956 1671 946 1677 938 1683 C 929 1688 920 1691 911 1691 C 903 1691 895 1689 887 1685 C 879 1681 870 1674 860 1663 L 798 1603 L 672 1697 L 751 1785 Z" unicode="" />
<glyph horiz-adv-x="1606" d="M 934 1475 C 1026 1475 1112 1461 1190 1435 C 1268 1408 1336 1368 1393 1314 C 1450 1260 1495 1194 1527 1114 C 1559 1034 1575 942 1575 836 C 1575 765 1567 695 1552 625 C 1537 555 1515 488 1485 424 C 1455 360 1418 300 1374 245 C 1329 190 1277 142 1218 102 C 1158 62 1091 30 1017 7 C 943 -15 861 -27 772 -27 C 680 -27 595 -13 517 13 C 439 39 371 79 315 133 C 258 186 214 252 182 332 C 150 412 135 504 135 610 C 135 680 142 751 157 821 C 172 891 195 959 225 1023 C 255 1087 292 1146 336 1201 C 380 1256 432 1304 492 1345 C 551 1385 617 1417 691 1440 C 765 1463 846 1475 934 1475 Z M 1251 817 C 1251 876 1243 930 1229 978 C 1215 1026 1194 1066 1166 1100 C 1138 1134 1103 1160 1061 1178 C 1019 1196 970 1206 915 1206 C 861 1206 813 1197 769 1181 C 725 1165 687 1142 653 1114 C 619 1086 589 1053 564 1015 C 539 977 519 937 503 895 C 487 852 475 808 467 762 C 459 716 455 672 455 629 C 455 569 462 516 476 468 C 490 420 512 380 540 347 C 568 313 604 287 646 269 C 688 251 737 242 793 242 C 846 242 894 250 938 266 C 981 282 1019 305 1053 333 C 1087 361 1116 394 1141 432 C 1166 469 1187 509 1203 552 C 1219 594 1231 638 1239 684 C 1247 729 1251 773 1251 817 Z M 979 1828 L 932 1589 L 682 1589 L 729 1828 L 979 1828 Z M 1407 1828 L 1360 1589 L 1110 1589 L 1157 1828 L 1407 1828 Z" unicode="" />
<glyph horiz-adv-x="1249" d="M 629 801 L 1026 1200 L 1214 1012 L 813 614 L 1217 211 L 1024 18 L 625 420 L 227 20 L 37 209 L 436 610 L 35 1010 L 227 1202 L 629 801 Z" unicode="" />
<glyph horiz-adv-x="1606" d="M 934 1475 C 994 1475 1052 1469 1106 1457 C 1160 1445 1212 1427 1260 1405 L 1393 1581 L 1618 1581 L 1405 1303 C 1458 1249 1500 1183 1530 1106 C 1560 1028 1575 938 1575 836 C 1575 765 1567 695 1552 625 C 1537 555 1515 488 1485 424 C 1455 360 1418 300 1374 245 C 1329 190 1277 142 1218 102 C 1158 62 1091 30 1017 7 C 943 -15 861 -27 772 -27 C 713 -27 657 -21 605 -11 C 553 0 504 15 459 37 L 330 -137 L 104 -137 L 311 137 C 255 191 212 257 181 335 C 150 413 135 504 135 610 C 135 680 142 751 157 821 C 172 891 195 959 225 1023 C 255 1087 292 1146 336 1201 C 380 1256 432 1304 492 1345 C 551 1385 617 1417 691 1440 C 765 1463 846 1475 934 1475 Z M 915 1206 C 861 1206 813 1197 769 1181 C 725 1165 687 1142 653 1114 C 619 1086 589 1053 564 1015 C 539 977 519 937 503 895 C 487 852 475 808 467 762 C 459 716 455 672 455 629 C 455 528 474 446 514 383 L 1083 1167 C 1059 1180 1034 1190 1006 1196 C 978 1202 948 1206 915 1206 Z M 1251 817 C 1251 863 1246 905 1238 944 C 1229 982 1216 1017 1200 1049 L 635 272 C 679 252 732 242 793 242 C 846 242 894 250 938 266 C 981 282 1019 305 1053 333 C 1087 361 1116 394 1141 432 C 1166 469 1187 509 1203 552 C 1219 594 1231 638 1239 684 C 1247 729 1251 773 1251 817 Z" unicode="" />
<glyph horiz-adv-x="1511" d="M 649 1446 L 514 737 C 501 673 491 619 483 576 C 475 533 471 499 471 475 C 471 435 477 400 491 371 C 505 341 524 317 549 298 C 573 279 603 265 638 256 C 672 246 711 242 754 242 C 810 242 856 249 892 263 C 928 277 957 298 980 325 C 1002 352 1020 385 1033 424 C 1045 463 1057 507 1067 557 L 1241 1446 L 1542 1446 L 1364 518 C 1355 472 1344 426 1331 382 C 1318 337 1301 294 1280 254 C 1259 213 1233 176 1203 142 C 1173 108 1136 78 1092 53 C 1048 27 997 8 939 -6 C 881 -20 813 -27 737 -27 C 661 -27 589 -18 519 -2 C 449 13 387 40 333 77 C 279 113 235 161 203 221 C 170 280 154 352 154 438 C 154 454 154 472 156 490 C 158 508 161 530 165 554 C 169 578 174 607 180 639 C 186 671 193 708 201 752 L 336 1446 L 649 1446 Z M 864 1899 L 1122 1641 L 1110 1573 L 958 1573 L 647 1805 L 647 1899 L 864 1899 Z" unicode="" />
<glyph horiz-adv-x="1511" d="M 649 1446 L 514 737 C 501 673 491 619 483 576 C 475 533 471 499 471 475 C 471 435 477 400 491 371 C 505 341 524 317 549 298 C 573 279 603 265 638 256 C 672 246 711 242 754 242 C 810 242 856 249 892 263 C 928 277 957 298 980 325 C 1002 352 1020 385 1033 424 C 1045 463 1057 507 1067 557 L 1241 1446 L 1542 1446 L 1364 518 C 1355 472 1344 426 1331 382 C 1318 337 1301 294 1280 254 C 1259 213 1233 176 1203 142 C 1173 108 1136 78 1092 53 C 1048 27 997 8 939 -6 C 881 -20 813 -27 737 -27 C 661 -27 589 -18 519 -2 C 449 13 387 40 333 77 C 279 113 235 161 203 221 C 170 280 154 352 154 438 C 154 454 154 472 156 490 C 158 508 161 530 165 554 C 169 578 174 607 180 639 C 186 671 193 708 201 752 L 336 1446 L 649 1446 Z M 1267 1899 L 1267 1805 L 954 1573 L 788 1573 L 800 1641 L 1048 1899 L 1267 1899 Z" unicode="" />
<glyph horiz-adv-x="1511" d="M 649 1446 L 514 737 C 501 673 491 619 483 576 C 475 533 471 499 471 475 C 471 435 477 400 491 371 C 505 341 524 317 549 298 C 573 279 603 265 638 256 C 672 246 711 242 754 242 C 810 242 856 249 892 263 C 928 277 957 298 980 325 C 1002 352 1020 385 1033 424 C 1045 463 1057 507 1067 557 L 1241 1446 L 1542 1446 L 1364 518 C 1355 472 1344 426 1331 382 C 1318 337 1301 294 1280 254 C 1259 213 1233 176 1203 142 C 1173 108 1136 78 1092 53 C 1048 27 997 8 939 -6 C 881 -20 813 -27 737 -27 C 661 -27 589 -18 519 -2 C 449 13 387 40 333 77 C 279 113 235 161 203 221 C 170 280 154 352 154 438 C 154 454 154 472 156 490 C 158 508 161 530 165 554 C 169 578 174 607 180 639 C 186 671 193 708 201 752 L 336 1446 L 649 1446 Z M 1108 1901 L 1282 1639 L 1270 1575 L 1182 1575 L 1010 1731 L 997 1731 L 764 1575 L 649 1575 L 662 1639 L 938 1901 L 1108 1901 Z" unicode="" />
<glyph horiz-adv-x="1511" d="M 649 1446 L 514 737 C 501 673 491 619 483 576 C 475 533 471 499 471 475 C 471 435 477 400 491 371 C 505 341 524 317 549 298 C 573 279 603 265 638 256 C 672 246 711 242 754 242 C 810 242 856 249 892 263 C 928 277 957 298 980 325 C 1002 352 1020 385 1033 424 C 1045 463 1057 507 1067 557 L 1241 1446 L 1542 1446 L 1364 518 C 1355 472 1344 426 1331 382 C 1318 337 1301 294 1280 254 C 1259 213 1233 176 1203 142 C 1173 108 1136 78 1092 53 C 1048 27 997 8 939 -6 C 881 -20 813 -27 737 -27 C 661 -27 589 -18 519 -2 C 449 13 387 40 333 77 C 279 113 235 161 203 221 C 170 280 154 352 154 438 C 154 454 154 472 156 490 C 158 508 161 530 165 554 C 169 578 174 607 180 639 C 186 671 193 708 201 752 L 336 1446 L 649 1446 Z M 926 1828 L 879 1589 L 629 1589 L 676 1828 L 926 1828 Z M 1354 1828 L 1307 1589 L 1057 1589 L 1104 1828 L 1354 1828 Z" unicode="" />
<glyph horiz-adv-x="1348" d="M 559 1446 L 739 795 L 1174 1446 L 1536 1446 L 840 500 L 741 0 L 430 0 L 526 500 L 201 1446 L 559 1446 Z M 1218 1899 L 1218 1805 L 905 1573 L 739 1573 L 751 1641 L 999 1899 L 1218 1899 Z" unicode="" />
<glyph horiz-adv-x="1395" d="M 668 1446 L 621 1200 L 877 1200 C 955 1200 1026 1192 1090 1178 C 1154 1163 1209 1137 1255 1100 C 1297 1068 1330 1027 1355 978 C 1380 928 1393 869 1393 801 C 1393 720 1380 647 1354 582 C 1328 517 1291 462 1243 416 C 1197 372 1140 338 1072 316 C 1004 294 923 283 829 283 L 442 283 L 387 0 L 76 0 L 356 1446 L 668 1446 Z M 571 948 L 492 537 L 838 537 C 876 537 911 542 941 554 C 971 566 996 582 1016 602 C 1036 622 1052 646 1063 674 C 1073 702 1079 732 1079 764 C 1079 790 1074 815 1065 838 C 1056 860 1043 880 1026 896 C 1009 912 988 925 964 934 C 940 943 912 948 881 948 L 571 948 Z" unicode="" />
<glyph horiz-adv-x="1194" d="M 266 1130 C 279 1198 301 1257 331 1309 C 361 1361 398 1404 442 1439 C 485 1473 534 1499 588 1517 C 642 1535 700 1544 762 1544 C 820 1544 875 1536 929 1520 C 982 1504 1029 1481 1070 1451 C 1110 1420 1143 1382 1167 1337 C 1191 1292 1204 1240 1204 1182 C 1204 1146 1199 1112 1190 1080 C 1181 1048 1169 1019 1153 992 C 1137 965 1118 940 1097 917 C 1076 893 1054 872 1030 854 C 1014 841 1001 830 991 821 C 980 811 975 803 975 795 C 975 785 981 766 995 737 C 1008 707 1025 671 1047 627 C 1061 596 1073 568 1085 544 C 1097 520 1107 497 1115 475 C 1123 453 1130 432 1134 411 C 1138 389 1141 366 1141 342 C 1141 288 1130 238 1110 194 C 1089 150 1060 112 1023 80 C 986 48 942 24 891 6 C 839 -11 783 -20 721 -20 C 706 -20 690 -19 672 -18 C 654 -17 636 -15 618 -13 C 600 -11 582 -8 565 -4 C 548 0 533 4 520 10 L 563 227 C 583 221 604 218 626 216 C 647 214 664 213 678 213 C 722 213 758 223 786 245 C 814 267 829 300 829 344 C 829 356 827 368 825 381 C 822 393 817 409 810 428 C 803 446 794 469 782 495 C 770 521 755 554 737 594 C 729 611 721 627 713 642 C 705 657 698 672 692 686 C 686 700 681 713 677 727 C 673 741 672 756 672 772 C 672 790 674 805 680 819 C 685 832 692 844 702 856 C 712 868 723 879 737 891 C 751 903 766 916 784 932 C 800 946 816 960 831 975 C 846 990 859 1006 870 1023 C 880 1040 889 1058 895 1078 C 901 1098 905 1120 905 1145 C 905 1199 890 1238 861 1264 C 831 1290 793 1303 745 1303 C 713 1303 687 1297 665 1287 C 643 1276 625 1262 611 1244 C 596 1226 584 1204 575 1180 C 566 1156 559 1130 555 1104 L 344 0 L 49 0 L 266 1130 Z" unicode="" />
<glyph horiz-adv-x="1235" d="M 1221 1077 L 1098 467 C 1090 426 1082 387 1075 351 C 1068 314 1062 277 1057 240 C 1051 203 1047 165 1043 126 C 1039 86 1036 44 1034 0 L 770 0 C 772 39 775 80 781 123 C 786 166 791 208 797 250 C 768 202 739 161 709 126 C 679 91 647 62 614 39 C 581 16 546 0 509 -12 C 471 -23 431 -29 389 -29 C 329 -29 279 -19 237 -1 C 195 16 160 42 133 74 C 106 106 86 145 74 190 C 61 234 55 283 55 336 C 55 386 60 441 72 499 C 83 557 100 614 123 671 C 145 728 173 783 207 835 C 240 887 279 934 323 974 C 367 1014 417 1046 472 1070 C 526 1094 586 1106 651 1106 C 679 1106 707 1103 733 1097 C 759 1091 783 1082 806 1069 C 829 1056 850 1039 870 1018 C 890 996 908 970 924 938 L 971 1077 L 1221 1077 Z M 494 215 C 532 215 570 228 608 256 C 646 283 680 319 712 364 C 743 408 770 459 794 515 C 818 571 835 628 846 686 L 858 750 C 840 786 817 814 789 835 C 760 855 729 866 696 866 C 664 866 633 858 604 843 C 575 827 548 807 523 782 C 498 756 476 727 456 694 C 436 661 418 627 404 591 C 390 555 379 519 371 483 C 363 447 360 413 360 383 C 360 359 362 336 367 316 C 372 295 380 277 391 262 C 402 247 416 235 433 227 C 449 219 470 215 494 215 Z M 667 1530 L 925 1272 L 913 1204 L 761 1204 L 450 1436 L 450 1530 L 667 1530 Z" unicode="" />
<glyph horiz-adv-x="1235" d="M 1221 1077 L 1098 467 C 1090 426 1082 387 1075 351 C 1068 314 1062 277 1057 240 C 1051 203 1047 165 1043 126 C 1039 86 1036 44 1034 0 L 770 0 C 772 39 775 80 781 123 C 786 166 791 208 797 250 C 768 202 739 161 709 126 C 679 91 647 62 614 39 C 581 16 546 0 509 -12 C 471 -23 431 -29 389 -29 C 329 -29 279 -19 237 -1 C 195 16 160 42 133 74 C 106 106 86 145 74 190 C 61 234 55 283 55 336 C 55 386 60 441 72 499 C 83 557 100 614 123 671 C 145 728 173 783 207 835 C 240 887 279 934 323 974 C 367 1014 417 1046 472 1070 C 526 1094 586 1106 651 1106 C 679 1106 707 1103 733 1097 C 759 1091 783 1082 806 1069 C 829 1056 850 1039 870 1018 C 890 996 908 970 924 938 L 971 1077 L 1221 1077 Z M 494 215 C 532 215 570 228 608 256 C 646 283 680 319 712 364 C 743 408 770 459 794 515 C 818 571 835 628 846 686 L 858 750 C 840 786 817 814 789 835 C 760 855 729 866 696 866 C 664 866 633 858 604 843 C 575 827 548 807 523 782 C 498 756 476 727 456 694 C 436 661 418 627 404 591 C 390 555 379 519 371 483 C 363 447 360 413 360 383 C 360 359 362 336 367 316 C 372 295 380 277 391 262 C 402 247 416 235 433 227 C 449 219 470 215 494 215 Z M 1099 1530 L 1099 1436 L 786 1204 L 620 1204 L 632 1272 L 880 1530 L 1099 1530 Z" unicode="" />
<glyph horiz-adv-x="1235" d="M 1221 1077 L 1098 467 C 1090 426 1082 387 1075 351 C 1068 314 1062 277 1057 240 C 1051 203 1047 165 1043 126 C 1039 86 1036 44 1034 0 L 770 0 C 772 39 775 80 781 123 C 786 166 791 208 797 250 C 768 202 739 161 709 126 C 679 91 647 62 614 39 C 581 16 546 0 509 -12 C 471 -23 431 -29 389 -29 C 329 -29 279 -19 237 -1 C 195 16 160 42 133 74 C 106 106 86 145 74 190 C 61 234 55 283 55 336 C 55 386 60 441 72 499 C 83 557 100 614 123 671 C 145 728 173 783 207 835 C 240 887 279 934 323 974 C 367 1014 417 1046 472 1070 C 526 1094 586 1106 651 1106 C 679 1106 707 1103 733 1097 C 759 1091 783 1082 806 1069 C 829 1056 850 1039 870 1018 C 890 996 908 970 924 938 L 971 1077 L 1221 1077 Z M 494 215 C 532 215 570 228 608 256 C 646 283 680 319 712 364 C 743 408 770 459 794 515 C 818 571 835 628 846 686 L 858 750 C 840 786 817 814 789 835 C 760 855 729 866 696 866 C 664 866 633 858 604 843 C 575 827 548 807 523 782 C 498 756 476 727 456 694 C 436 661 418 627 404 591 C 390 555 379 519 371 483 C 363 447 360 413 360 383 C 360 359 362 336 367 316 C 372 295 380 277 391 262 C 402 247 416 235 433 227 C 449 219 470 215 494 215 Z M 911 1530 L 1085 1268 L 1073 1204 L 985 1204 L 813 1360 L 800 1360 L 567 1204 L 452 1204 L 465 1268 L 741 1530 L 911 1530 Z" unicode="" />
<glyph horiz-adv-x="1235" d="M 1221 1077 L 1098 467 C 1090 426 1082 387 1075 351 C 1068 314 1062 277 1057 240 C 1051 203 1047 165 1043 126 C 1039 86 1036 44 1034 0 L 770 0 C 772 39 775 80 781 123 C 786 166 791 208 797 250 C 768 202 739 161 709 126 C 679 91 647 62 614 39 C 581 16 546 0 509 -12 C 471 -23 431 -29 389 -29 C 329 -29 279 -19 237 -1 C 195 16 160 42 133 74 C 106 106 86 145 74 190 C 61 234 55 283 55 336 C 55 386 60 441 72 499 C 83 557 100 614 123 671 C 145 728 173 783 207 835 C 240 887 279 934 323 974 C 367 1014 417 1046 472 1070 C 526 1094 586 1106 651 1106 C 679 1106 707 1103 733 1097 C 759 1091 783 1082 806 1069 C 829 1056 850 1039 870 1018 C 890 996 908 970 924 938 L 971 1077 L 1221 1077 Z M 494 215 C 532 215 570 228 608 256 C 646 283 680 319 712 364 C 743 408 770 459 794 515 C 818 571 835 628 846 686 L 858 750 C 840 786 817 814 789 835 C 760 855 729 866 696 866 C 664 866 633 858 604 843 C 575 827 548 807 523 782 C 498 756 476 727 456 694 C 436 661 418 627 404 591 C 390 555 379 519 371 483 C 363 447 360 413 360 383 C 360 359 362 336 367 316 C 372 295 380 277 391 262 C 402 247 416 235 433 227 C 449 219 470 215 494 215 Z M 501 1425 C 533 1458 563 1482 592 1496 C 620 1510 652 1518 686 1518 C 715 1518 741 1512 764 1501 C 786 1490 811 1473 839 1450 L 884 1415 C 895 1405 905 1398 914 1393 C 922 1388 931 1386 940 1386 C 948 1386 955 1388 963 1393 C 971 1397 980 1405 991 1415 L 1052 1477 L 1179 1380 L 1099 1294 C 1068 1261 1038 1237 1009 1222 C 980 1207 949 1200 915 1200 C 886 1200 860 1206 838 1218 C 816 1230 791 1246 764 1268 L 718 1303 C 706 1311 696 1317 688 1323 C 679 1328 670 1331 661 1331 C 653 1331 645 1329 637 1325 C 629 1321 620 1314 610 1303 L 548 1243 L 422 1337 L 501 1425 Z" unicode="" />
<glyph horiz-adv-x="1235" d="M 1221 1077 L 1098 467 C 1090 426 1082 387 1075 351 C 1068 314 1062 277 1057 240 C 1051 203 1047 165 1043 126 C 1039 86 1036 44 1034 0 L 770 0 C 772 39 775 80 781 123 C 786 166 791 208 797 250 C 768 202 739 161 709 126 C 679 91 647 62 614 39 C 581 16 546 0 509 -12 C 471 -23 431 -29 389 -29 C 329 -29 279 -19 237 -1 C 195 16 160 42 133 74 C 106 106 86 145 74 190 C 61 234 55 283 55 336 C 55 386 60 441 72 499 C 83 557 100 614 123 671 C 145 728 173 783 207 835 C 240 887 279 934 323 974 C 367 1014 417 1046 472 1070 C 526 1094 586 1106 651 1106 C 679 1106 707 1103 733 1097 C 759 1091 783 1082 806 1069 C 829 1056 850 1039 870 1018 C 890 996 908 970 924 938 L 971 1077 L 1221 1077 Z M 494 215 C 532 215 570 228 608 256 C 646 283 680 319 712 364 C 743 408 770 459 794 515 C 818 571 835 628 846 686 L 858 750 C 840 786 817 814 789 835 C 760 855 729 866 696 866 C 664 866 633 858 604 843 C 575 827 548 807 523 782 C 498 756 476 727 456 694 C 436 661 418 627 404 591 C 390 555 379 519 371 483 C 363 447 360 413 360 383 C 360 359 362 336 367 316 C 372 295 380 277 391 262 C 402 247 416 235 433 227 C 449 219 470 215 494 215 Z M 729 1470 L 682 1231 L 432 1231 L 479 1470 L 729 1470 Z M 1157 1470 L 1110 1231 L 860 1231 L 907 1470 L 1157 1470 Z" unicode="" />
<glyph horiz-adv-x="1235" d="M 1221 1077 L 1098 467 C 1090 426 1082 387 1075 351 C 1068 314 1062 277 1057 240 C 1051 203 1047 165 1043 126 C 1039 86 1036 44 1034 0 L 770 0 C 772 39 775 80 781 123 C 786 166 791 208 797 250 C 768 202 739 161 709 126 C 679 91 647 62 614 39 C 581 16 546 0 509 -12 C 471 -23 431 -29 389 -29 C 329 -29 279 -19 237 -1 C 195 16 160 42 133 74 C 106 106 86 145 74 190 C 61 234 55 283 55 336 C 55 386 60 441 72 499 C 83 557 100 614 123 671 C 145 728 173 783 207 835 C 240 887 279 934 323 974 C 367 1014 417 1046 472 1070 C 526 1094 586 1106 651 1106 C 679 1106 707 1103 733 1097 C 759 1091 783 1082 806 1069 C 829 1056 850 1039 870 1018 C 890 996 908 970 924 938 L 971 1077 L 1221 1077 Z M 494 215 C 532 215 570 228 608 256 C 646 283 680 319 712 364 C 743 408 770 459 794 515 C 818 571 835 628 846 686 L 858 750 C 840 786 817 814 789 835 C 760 855 729 866 696 866 C 664 866 633 858 604 843 C 575 827 548 807 523 782 C 498 756 476 727 456 694 C 436 661 418 627 404 591 C 390 555 379 519 371 483 C 363 447 360 413 360 383 C 360 359 362 336 367 316 C 372 295 380 277 391 262 C 402 247 416 235 433 227 C 449 219 470 215 494 215 Z M 540 1442 C 540 1474 546 1505 559 1534 C 571 1562 589 1587 611 1609 C 633 1631 660 1648 692 1660 C 723 1672 758 1679 796 1679 C 834 1679 868 1672 900 1660 C 931 1648 958 1631 981 1609 C 1003 1587 1021 1562 1033 1534 C 1045 1505 1052 1474 1052 1442 C 1052 1409 1045 1378 1033 1349 C 1021 1320 1003 1295 981 1274 C 958 1252 931 1235 900 1223 C 868 1210 834 1204 796 1204 C 758 1204 723 1210 692 1223 C 660 1235 633 1252 611 1274 C 589 1295 571 1320 559 1349 C 546 1378 540 1409 540 1442 Z M 680 1442 C 680 1426 683 1410 689 1396 C 695 1382 704 1369 714 1359 C 724 1349 737 1340 751 1334 C 765 1328 780 1325 796 1325 C 812 1325 828 1328 842 1334 C 856 1340 868 1349 879 1359 C 889 1369 898 1382 904 1396 C 910 1410 913 1426 913 1442 C 913 1458 910 1473 904 1488 C 898 1502 889 1515 879 1526 C 868 1536 856 1545 842 1551 C 828 1557 812 1561 796 1561 C 780 1561 765 1557 751 1551 C 737 1545 724 1536 714 1526 C 704 1515 695 1502 689 1488 C 683 1473 680 1458 680 1442 Z" unicode="" />
<glyph horiz-adv-x="1894" d="M 664 1106 C 686 1106 712 1104 741 1100 C 769 1096 799 1087 829 1074 C 859 1061 889 1042 918 1018 C 946 994 972 962 995 922 C 1045 977 1105 1021 1174 1055 C 1243 1089 1321 1106 1409 1106 C 1471 1106 1529 1096 1583 1077 C 1636 1058 1682 1030 1721 994 C 1760 958 1790 913 1812 860 C 1834 807 1845 746 1845 678 C 1845 646 1842 613 1837 577 C 1831 541 1823 504 1812 467 L 1100 467 C 1100 423 1104 384 1114 350 C 1124 316 1140 287 1162 264 C 1184 240 1213 223 1249 211 C 1285 199 1329 193 1382 193 C 1440 193 1494 199 1544 212 C 1594 225 1643 242 1692 264 L 1706 51 C 1656 25 1601 5 1543 -9 C 1484 -23 1420 -31 1350 -31 C 1291 -31 1235 -25 1181 -15 C 1127 -4 1078 12 1033 36 C 988 59 949 89 915 125 C 881 161 856 206 838 258 C 774 159 704 86 626 40 C 548 -5 467 -29 385 -29 C 327 -29 277 -19 236 -1 C 194 16 160 42 133 74 C 106 106 86 145 74 190 C 61 235 55 284 55 338 C 55 388 60 442 72 500 C 83 557 100 614 122 671 C 144 728 172 783 206 835 C 240 887 279 934 324 974 C 369 1014 420 1046 477 1070 C 533 1094 596 1106 664 1106 Z M 492 215 C 518 215 544 221 570 234 C 596 246 620 264 644 286 C 668 308 690 334 711 364 C 732 394 751 427 769 462 C 787 496 802 533 815 571 C 828 609 838 648 846 686 L 858 750 C 841 784 819 811 791 833 C 763 855 730 866 692 866 C 660 866 630 858 602 843 C 574 827 547 807 523 781 C 498 755 476 726 456 693 C 436 660 418 626 404 590 C 390 554 379 518 371 482 C 363 446 360 413 360 383 C 360 359 362 336 368 316 C 373 295 381 277 392 262 C 402 247 416 235 433 227 C 449 219 469 215 492 215 Z M 1401 895 C 1363 895 1329 887 1299 873 C 1269 859 1242 840 1220 817 C 1197 793 1178 766 1162 736 C 1146 705 1134 673 1124 641 L 1571 641 C 1572 651 1573 661 1574 671 C 1574 680 1575 690 1575 702 C 1575 727 1572 751 1566 775 C 1560 798 1550 818 1536 836 C 1522 854 1504 868 1482 879 C 1460 889 1433 895 1401 895 Z" unicode="" />
<glyph horiz-adv-x="1022" d="M 864 25 C 822 7 779 -5 735 -15 C 691 -24 643 -29 590 -29 L 637 -96 C 648 -112 658 -131 668 -152 C 677 -172 682 -198 682 -229 C 682 -264 674 -295 659 -323 C 644 -350 623 -373 597 -392 C 570 -411 538 -426 502 -436 C 465 -446 425 -451 383 -451 C 335 -451 296 -447 266 -440 C 236 -432 208 -422 184 -408 L 233 -268 C 257 -278 280 -286 303 -292 C 325 -298 347 -301 369 -301 C 379 -301 389 -300 400 -298 C 411 -296 421 -293 431 -288 C 440 -283 448 -276 454 -267 C 460 -258 463 -247 463 -233 C 463 -221 459 -210 452 -201 C 444 -192 437 -183 430 -174 L 385 -117 C 381 -111 377 -105 375 -98 C 373 -91 373 -83 375 -74 L 389 -2 C 341 11 299 30 261 55 C 223 79 190 110 163 147 C 135 184 114 228 100 278 C 85 328 78 385 78 449 C 78 502 83 555 94 608 C 105 661 122 712 144 761 C 166 809 193 855 226 897 C 259 939 298 975 343 1006 C 387 1037 437 1061 493 1079 C 549 1097 610 1106 678 1106 C 746 1106 814 1095 881 1075 C 947 1055 1010 1023 1069 979 L 932 768 C 898 794 860 817 818 835 C 776 853 731 862 684 862 C 647 862 614 856 585 844 C 555 832 529 815 507 795 C 485 775 466 751 450 725 C 434 698 422 670 412 640 C 402 610 394 580 390 550 C 385 519 383 490 383 463 C 383 383 402 321 440 277 C 478 233 539 211 623 211 C 665 211 706 216 748 227 C 789 238 828 252 864 268 L 864 25 Z" unicode="" />
<glyph horiz-adv-x="1163" d="M 369 467 C 369 423 373 385 383 351 C 392 317 407 289 429 265 C 451 241 479 223 514 211 C 548 199 591 193 641 193 C 673 193 702 194 730 198 C 757 201 783 206 809 212 C 835 218 860 225 884 234 C 908 242 932 252 958 264 L 973 51 C 923 25 868 5 810 -9 C 751 -23 686 -31 616 -31 C 544 -31 476 -22 411 -6 C 345 10 288 37 238 74 C 188 111 148 159 118 218 C 88 277 74 349 74 434 C 74 486 80 538 92 592 C 104 646 121 697 145 747 C 168 797 197 843 231 887 C 265 931 305 969 350 1001 C 394 1033 444 1059 498 1078 C 552 1096 612 1106 676 1106 C 738 1106 796 1096 850 1077 C 904 1058 950 1030 989 994 C 1028 958 1059 913 1081 860 C 1103 807 1114 746 1114 678 C 1114 646 1111 613 1106 577 C 1100 541 1091 504 1079 467 L 369 467 Z M 668 895 C 630 895 596 887 566 873 C 536 859 510 840 488 817 C 465 793 446 766 431 736 C 415 705 403 673 393 641 L 838 641 C 842 661 844 682 844 702 C 844 728 840 752 834 776 C 828 799 818 819 804 837 C 790 855 771 869 749 879 C 727 889 700 895 668 895 Z M 633 1530 L 891 1272 L 879 1204 L 727 1204 L 416 1436 L 416 1530 L 633 1530 Z" unicode="" />
<glyph horiz-adv-x="1163" d="M 369 467 C 369 423 373 385 383 351 C 392 317 407 289 429 265 C 451 241 479 223 514 211 C 548 199 591 193 641 193 C 673 193 702 194 730 198 C 757 201 783 206 809 212 C 835 218 860 225 884 234 C 908 242 932 252 958 264 L 973 51 C 923 25 868 5 810 -9 C 751 -23 686 -31 616 -31 C 544 -31 476 -22 411 -6 C 345 10 288 37 238 74 C 188 111 148 159 118 218 C 88 277 74 349 74 434 C 74 486 80 538 92 592 C 104 646 121 697 145 747 C 168 797 197 843 231 887 C 265 931 305 969 350 1001 C 394 1033 444 1059 498 1078 C 552 1096 612 1106 676 1106 C 738 1106 796 1096 850 1077 C 904 1058 950 1030 989 994 C 1028 958 1059 913 1081 860 C 1103 807 1114 746 1114 678 C 1114 646 1111 613 1106 577 C 1100 541 1091 504 1079 467 L 369 467 Z M 668 895 C 630 895 596 887 566 873 C 536 859 510 840 488 817 C 465 793 446 766 431 736 C 415 705 403 673 393 641 L 838 641 C 842 661 844 682 844 702 C 844 728 840 752 834 776 C 828 799 818 819 804 837 C 790 855 771 869 749 879 C 727 889 700 895 668 895 Z M 1065 1530 L 1065 1436 L 752 1204 L 586 1204 L 598 1272 L 846 1530 L 1065 1530 Z" unicode="" />
<glyph horiz-adv-x="1163" d="M 369 467 C 369 423 373 385 383 351 C 392 317 407 289 429 265 C 451 241 479 223 514 211 C 548 199 591 193 641 193 C 673 193 702 194 730 198 C 757 201 783 206 809 212 C 835 218 860 225 884 234 C 908 242 932 252 958 264 L 973 51 C 923 25 868 5 810 -9 C 751 -23 686 -31 616 -31 C 544 -31 476 -22 411 -6 C 345 10 288 37 238 74 C 188 111 148 159 118 218 C 88 277 74 349 74 434 C 74 486 80 538 92 592 C 104 646 121 697 145 747 C 168 797 197 843 231 887 C 265 931 305 969 350 1001 C 394 1033 444 1059 498 1078 C 552 1096 612 1106 676 1106 C 738 1106 796 1096 850 1077 C 904 1058 950 1030 989 994 C 1028 958 1059 913 1081 860 C 1103 807 1114 746 1114 678 C 1114 646 1111 613 1106 577 C 1100 541 1091 504 1079 467 L 369 467 Z M 668 895 C 630 895 596 887 566 873 C 536 859 510 840 488 817 C 465 793 446 766 431 736 C 415 705 403 673 393 641 L 838 641 C 842 661 844 682 844 702 C 844 728 840 752 834 776 C 828 799 818 819 804 837 C 790 855 771 869 749 879 C 727 889 700 895 668 895 Z M 877 1530 L 1051 1268 L 1039 1204 L 951 1204 L 779 1360 L 766 1360 L 533 1204 L 418 1204 L 431 1268 L 707 1530 L 877 1530 Z" unicode="" />
<glyph horiz-adv-x="1163" d="M 369 467 C 369 423 373 385 383 351 C 392 317 407 289 429 265 C 451 241 479 223 514 211 C 548 199 591 193 641 193 C 673 193 702 194 730 198 C 757 201 783 206 809 212 C 835 218 860 225 884 234 C 908 242 932 252 958 264 L 973 51 C 923 25 868 5 810 -9 C 751 -23 686 -31 616 -31 C 544 -31 476 -22 411 -6 C 345 10 288 37 238 74 C 188 111 148 159 118 218 C 88 277 74 349 74 434 C 74 486 80 538 92 592 C 104 646 121 697 145 747 C 168 797 197 843 231 887 C 265 931 305 969 350 1001 C 394 1033 444 1059 498 1078 C 552 1096 612 1106 676 1106 C 738 1106 796 1096 850 1077 C 904 1058 950 1030 989 994 C 1028 958 1059 913 1081 860 C 1103 807 1114 746 1114 678 C 1114 646 1111 613 1106 577 C 1100 541 1091 504 1079 467 L 369 467 Z M 668 895 C 630 895 596 887 566 873 C 536 859 510 840 488 817 C 465 793 446 766 431 736 C 415 705 403 673 393 641 L 838 641 C 842 661 844 682 844 702 C 844 728 840 752 834 776 C 828 799 818 819 804 837 C 790 855 771 869 749 879 C 727 889 700 895 668 895 Z M 695 1470 L 648 1231 L 398 1231 L 445 1470 L 695 1470 Z M 1123 1470 L 1076 1231 L 826 1231 L 873 1470 L 1123 1470 Z" unicode="" />
<glyph horiz-adv-x="575" d="M 555 1077 L 346 0 L 53 0 L 260 1077 L 555 1077 Z M 335 1530 L 593 1272 L 581 1204 L 429 1204 L 118 1436 L 118 1530 L 335 1530 Z" unicode="" />
<glyph horiz-adv-x="575" d="M 555 1077 L 346 0 L 53 0 L 260 1077 L 555 1077 Z M 765 1530 L 765 1436 L 452 1204 L 286 1204 L 298 1272 L 546 1530 L 765 1530 Z" unicode="" />
<glyph horiz-adv-x="575" d="M 555 1077 L 346 0 L 53 0 L 260 1077 L 555 1077 Z M 577 1530 L 751 1268 L 739 1204 L 651 1204 L 479 1360 L 466 1360 L 233 1204 L 118 1204 L 131 1268 L 407 1530 L 577 1530 Z" unicode="" />
<glyph horiz-adv-x="575" d="M 555 1077 L 346 0 L 53 0 L 260 1077 L 555 1077 Z M 394 1470 L 347 1231 L 97 1231 L 144 1470 L 394 1470 Z M 822 1470 L 775 1231 L 525 1231 L 572 1470 L 822 1470 Z" unicode="" />
<glyph horiz-adv-x="1184" d="M 539 1356 C 515 1379 491 1402 466 1424 C 441 1446 417 1468 395 1489 L 674 1532 C 692 1515 712 1497 733 1479 C 754 1460 775 1440 797 1419 L 1071 1489 L 1042 1337 L 901 1300 C 934 1259 966 1215 996 1168 C 1026 1120 1052 1070 1075 1016 C 1098 962 1116 906 1130 846 C 1144 786 1151 724 1151 659 C 1151 605 1145 551 1135 496 C 1125 441 1109 388 1088 338 C 1067 287 1040 239 1008 195 C 976 150 937 111 893 78 C 849 44 798 18 742 0 C 686 -19 623 -29 555 -29 C 481 -29 414 -17 356 5 C 297 27 247 60 206 103 C 165 145 134 197 112 258 C 90 319 80 388 80 465 C 80 513 84 562 94 611 C 104 660 118 707 138 753 C 157 799 181 841 211 881 C 241 921 276 955 317 984 C 357 1013 403 1036 454 1053 C 505 1070 562 1079 625 1079 C 671 1079 713 1071 750 1057 C 740 1085 726 1115 708 1145 C 689 1175 668 1206 645 1237 L 332 1157 L 360 1311 L 539 1356 Z M 846 612 C 846 690 830 752 798 797 C 766 841 717 864 653 864 C 617 864 586 857 559 845 C 532 833 508 816 488 795 C 468 774 451 750 437 723 C 423 695 411 667 403 637 C 394 607 388 577 384 547 C 380 517 379 489 379 463 C 379 425 382 391 390 360 C 397 329 408 303 424 281 C 439 259 458 241 482 229 C 506 217 534 211 567 211 C 602 211 633 217 661 230 C 689 242 713 259 734 281 C 754 302 772 326 786 354 C 800 381 812 410 821 440 C 829 470 836 499 840 529 C 844 559 846 586 846 612 Z" unicode="" />
<glyph horiz-adv-x="1225" d="M 170 610 C 178 650 185 688 191 724 C 197 760 203 796 208 832 C 213 868 217 906 221 946 C 225 985 228 1029 231 1077 L 496 1077 C 494 1047 493 1017 491 988 C 489 958 486 926 483 891 C 509 923 536 952 565 979 C 594 1005 625 1028 657 1047 C 689 1065 724 1080 760 1090 C 796 1100 835 1106 877 1106 C 926 1106 969 1098 1005 1084 C 1041 1070 1070 1050 1093 1024 C 1116 998 1133 968 1144 932 C 1155 896 1161 856 1161 813 C 1161 777 1157 739 1151 701 C 1144 663 1137 623 1130 582 L 1020 0 L 725 0 L 823 512 C 831 552 839 590 846 628 C 852 666 856 700 856 731 C 856 770 847 802 831 827 C 814 851 785 864 743 864 C 705 864 670 853 638 833 C 606 812 576 784 550 748 C 524 712 501 669 482 621 C 462 573 447 521 436 465 L 346 0 L 53 0 L 170 610 Z M 481 1425 C 513 1458 543 1482 572 1496 C 600 1510 632 1518 666 1518 C 695 1518 721 1512 744 1501 C 766 1490 791 1473 819 1450 L 864 1415 C 875 1405 885 1398 894 1393 C 902 1388 911 1386 920 1386 C 928 1386 935 1388 943 1393 C 951 1397 960 1405 971 1415 L 1032 1477 L 1159 1380 L 1079 1294 C 1048 1261 1018 1237 989 1222 C 960 1207 929 1200 895 1200 C 866 1200 840 1206 818 1218 C 796 1230 771 1246 744 1268 L 698 1303 C 686 1311 676 1317 668 1323 C 659 1328 650 1331 641 1331 C 633 1331 625 1329 617 1325 C 609 1321 600 1314 590 1303 L 528 1243 L 402 1337 L 481 1425 Z" unicode="" />
<glyph horiz-adv-x="1182" d="M 666 1106 C 740 1106 807 1094 867 1071 C 926 1047 976 1014 1017 971 C 1058 928 1090 877 1112 817 C 1134 757 1145 690 1145 616 C 1145 564 1139 511 1128 459 C 1117 407 1101 357 1079 309 C 1057 261 1029 217 997 176 C 964 134 926 98 883 68 C 839 38 791 14 737 -3 C 683 -20 623 -29 559 -29 C 484 -29 417 -17 358 6 C 298 29 248 62 207 105 C 166 148 135 200 113 261 C 91 321 80 389 80 463 C 80 514 85 566 96 618 C 107 670 123 719 145 767 C 167 814 194 858 227 900 C 259 941 297 977 341 1008 C 384 1038 433 1062 487 1080 C 541 1097 600 1106 666 1106 Z M 844 614 C 844 651 840 685 833 716 C 825 746 814 773 798 795 C 782 817 763 834 739 846 C 715 858 686 864 653 864 C 617 864 586 857 559 845 C 532 832 508 815 488 794 C 468 772 451 748 437 720 C 423 692 411 664 403 634 C 394 604 388 575 384 545 C 380 515 379 487 379 461 C 379 423 382 389 390 359 C 397 328 408 302 424 280 C 439 258 459 241 483 229 C 507 217 535 211 569 211 C 604 211 635 217 663 230 C 690 242 714 259 734 281 C 754 302 772 326 786 354 C 800 382 811 410 820 440 C 828 470 834 500 838 530 C 842 560 844 588 844 614 Z M 649 1530 L 907 1272 L 895 1204 L 743 1204 L 432 1436 L 432 1530 L 649 1530 Z" unicode="" />
<glyph horiz-adv-x="1182" d="M 666 1106 C 740 1106 807 1094 867 1071 C 926 1047 976 1014 1017 971 C 1058 928 1090 877 1112 817 C 1134 757 1145 690 1145 616 C 1145 564 1139 511 1128 459 C 1117 407 1101 357 1079 309 C 1057 261 1029 217 997 176 C 964 134 926 98 883 68 C 839 38 791 14 737 -3 C 683 -20 623 -29 559 -29 C 484 -29 417 -17 358 6 C 298 29 248 62 207 105 C 166 148 135 200 113 261 C 91 321 80 389 80 463 C 80 514 85 566 96 618 C 107 670 123 719 145 767 C 167 814 194 858 227 900 C 259 941 297 977 341 1008 C 384 1038 433 1062 487 1080 C 541 1097 600 1106 666 1106 Z M 844 614 C 844 651 840 685 833 716 C 825 746 814 773 798 795 C 782 817 763 834 739 846 C 715 858 686 864 653 864 C 617 864 586 857 559 845 C 532 832 508 815 488 794 C 468 772 451 748 437 720 C 423 692 411 664 403 634 C 394 604 388 575 384 545 C 380 515 379 487 379 461 C 379 423 382 389 390 359 C 397 328 408 302 424 280 C 439 258 459 241 483 229 C 507 217 535 211 569 211 C 604 211 635 217 663 230 C 690 242 714 259 734 281 C 754 302 772 326 786 354 C 800 382 811 410 820 440 C 828 470 834 500 838 530 C 842 560 844 588 844 614 Z M 1081 1530 L 1081 1436 L 768 1204 L 602 1204 L 614 1272 L 862 1530 L 1081 1530 Z" unicode="" />
<glyph horiz-adv-x="1182" d="M 666 1106 C 740 1106 807 1094 867 1071 C 926 1047 976 1014 1017 971 C 1058 928 1090 877 1112 817 C 1134 757 1145 690 1145 616 C 1145 564 1139 511 1128 459 C 1117 407 1101 357 1079 309 C 1057 261 1029 217 997 176 C 964 134 926 98 883 68 C 839 38 791 14 737 -3 C 683 -20 623 -29 559 -29 C 484 -29 417 -17 358 6 C 298 29 248 62 207 105 C 166 148 135 200 113 261 C 91 321 80 389 80 463 C 80 514 85 566 96 618 C 107 670 123 719 145 767 C 167 814 194 858 227 900 C 259 941 297 977 341 1008 C 384 1038 433 1062 487 1080 C 541 1097 600 1106 666 1106 Z M 844 614 C 844 651 840 685 833 716 C 825 746 814 773 798 795 C 782 817 763 834 739 846 C 715 858 686 864 653 864 C 617 864 586 857 559 845 C 532 832 508 815 488 794 C 468 772 451 748 437 720 C 423 692 411 664 403 634 C 394 604 388 575 384 545 C 380 515 379 487 379 461 C 379 423 382 389 390 359 C 397 328 408 302 424 280 C 439 258 459 241 483 229 C 507 217 535 211 569 211 C 604 211 635 217 663 230 C 690 242 714 259 734 281 C 754 302 772 326 786 354 C 800 382 811 410 820 440 C 828 470 834 500 838 530 C 842 560 844 588 844 614 Z M 893 1530 L 1067 1268 L 1055 1204 L 967 1204 L 795 1360 L 782 1360 L 549 1204 L 434 1204 L 447 1268 L 723 1530 L 893 1530 Z" unicode="" />
<glyph horiz-adv-x="1182" d="M 666 1106 C 740 1106 807 1094 867 1071 C 926 1047 976 1014 1017 971 C 1058 928 1090 877 1112 817 C 1134 757 1145 690 1145 616 C 1145 564 1139 511 1128 459 C 1117 407 1101 357 1079 309 C 1057 261 1029 217 997 176 C 964 134 926 98 883 68 C 839 38 791 14 737 -3 C 683 -20 623 -29 559 -29 C 484 -29 417 -17 358 6 C 298 29 248 62 207 105 C 166 148 135 200 113 261 C 91 321 80 389 80 463 C 80 514 85 566 96 618 C 107 670 123 719 145 767 C 167 814 194 858 227 900 C 259 941 297 977 341 1008 C 384 1038 433 1062 487 1080 C 541 1097 600 1106 666 1106 Z M 844 614 C 844 651 840 685 833 716 C 825 746 814 773 798 795 C 782 817 763 834 739 846 C 715 858 686 864 653 864 C 617 864 586 857 559 845 C 532 832 508 815 488 794 C 468 772 451 748 437 720 C 423 692 411 664 403 634 C 394 604 388 575 384 545 C 380 515 379 487 379 461 C 379 423 382 389 390 359 C 397 328 408 302 424 280 C 439 258 459 241 483 229 C 507 217 535 211 569 211 C 604 211 635 217 663 230 C 690 242 714 259 734 281 C 754 302 772 326 786 354 C 800 382 811 410 820 440 C 828 470 834 500 838 530 C 842 560 844 588 844 614 Z M 483 1425 C 515 1458 545 1482 574 1496 C 602 1510 634 1518 668 1518 C 697 1518 723 1512 746 1501 C 768 1490 793 1473 821 1450 L 866 1415 C 877 1405 887 1398 896 1393 C 904 1388 913 1386 922 1386 C 930 1386 937 1388 945 1393 C 953 1397 962 1405 973 1415 L 1034 1477 L 1161 1380 L 1081 1294 C 1050 1261 1020 1237 991 1222 C 962 1207 931 1200 897 1200 C 868 1200 842 1206 820 1218 C 798 1230 773 1246 746 1268 L 700 1303 C 688 1311 678 1317 670 1323 C 661 1328 652 1331 643 1331 C 635 1331 627 1329 619 1325 C 611 1321 602 1314 592 1303 L 530 1243 L 404 1337 L 483 1425 Z" unicode="" />
<glyph horiz-adv-x="1182" d="M 666 1106 C 740 1106 807 1094 867 1071 C 926 1047 976 1014 1017 971 C 1058 928 1090 877 1112 817 C 1134 757 1145 690 1145 616 C 1145 564 1139 511 1128 459 C 1117 407 1101 357 1079 309 C 1057 261 1029 217 997 176 C 964 134 926 98 883 68 C 839 38 791 14 737 -3 C 683 -20 623 -29 559 -29 C 484 -29 417 -17 358 6 C 298 29 248 62 207 105 C 166 148 135 200 113 261 C 91 321 80 389 80 463 C 80 514 85 566 96 618 C 107 670 123 719 145 767 C 167 814 194 858 227 900 C 259 941 297 977 341 1008 C 384 1038 433 1062 487 1080 C 541 1097 600 1106 666 1106 Z M 844 614 C 844 651 840 685 833 716 C 825 746 814 773 798 795 C 782 817 763 834 739 846 C 715 858 686 864 653 864 C 617 864 586 857 559 845 C 532 832 508 815 488 794 C 468 772 451 748 437 720 C 423 692 411 664 403 634 C 394 604 388 575 384 545 C 380 515 379 487 379 461 C 379 423 382 389 390 359 C 397 328 408 302 424 280 C 439 258 459 241 483 229 C 507 217 535 211 569 211 C 604 211 635 217 663 230 C 690 242 714 259 734 281 C 754 302 772 326 786 354 C 800 382 811 410 820 440 C 828 470 834 500 838 530 C 842 560 844 588 844 614 Z M 711 1470 L 664 1231 L 414 1231 L 461 1470 L 711 1470 Z M 1139 1470 L 1092 1231 L 842 1231 L 889 1470 L 1139 1470 Z" unicode="" />
<glyph horiz-adv-x="1249" d="M 1206 743 L 1206 479 L 43 479 L 43 743 L 1206 743 Z M 788 293 L 788 0 L 461 0 L 461 293 L 788 293 Z M 788 1223 L 788 930 L 461 930 L 461 1223 L 788 1223 Z" unicode="" />
<glyph horiz-adv-x="1182" d="M 1190 1171 L 1030 958 C 1067 914 1095 864 1115 807 C 1135 750 1145 686 1145 616 C 1145 564 1139 511 1128 459 C 1117 407 1101 357 1079 309 C 1057 261 1029 217 997 176 C 964 134 926 98 883 68 C 839 38 791 14 737 -3 C 683 -20 623 -29 559 -29 C 513 -29 471 -24 433 -16 C 394 -7 358 4 326 20 L 233 -100 L 33 -100 L 197 117 C 159 159 130 209 110 267 C 90 325 80 390 80 463 C 80 514 85 566 96 618 C 107 670 123 719 145 767 C 167 814 194 858 227 900 C 259 941 297 977 341 1008 C 384 1038 433 1062 487 1080 C 541 1097 600 1106 666 1106 C 711 1106 753 1101 793 1092 C 832 1083 868 1071 901 1055 L 989 1171 L 1190 1171 Z M 653 864 C 617 864 586 857 559 845 C 532 832 508 815 488 794 C 468 772 451 748 437 720 C 423 692 411 664 403 634 C 394 604 388 575 384 545 C 380 515 379 487 379 461 C 379 442 379 424 381 408 C 382 392 385 376 389 362 L 748 842 C 722 856 690 864 653 864 Z M 844 614 C 844 630 843 647 841 663 C 839 679 837 694 834 709 L 477 231 C 501 217 531 211 569 211 C 604 211 635 217 663 230 C 690 242 714 259 734 281 C 754 302 772 326 786 354 C 800 382 811 410 820 440 C 828 470 834 500 838 530 C 842 560 844 588 844 614 Z" unicode="" />
<glyph horiz-adv-x="1229" d="M 776 186 C 750 154 722 126 694 100 C 665 74 634 51 602 32 C 570 13 535 -1 499 -11 C 463 -21 424 -27 383 -27 C 333 -27 290 -19 254 -5 C 218 8 189 28 166 54 C 143 80 126 111 116 147 C 105 183 100 222 100 266 C 100 301 103 338 109 377 C 115 415 121 456 129 498 L 240 1077 L 535 1077 L 436 565 C 434 555 431 541 427 523 C 423 505 420 486 416 465 C 412 444 409 423 407 401 C 404 379 403 359 403 342 C 403 323 405 306 409 290 C 413 274 419 261 428 249 C 436 237 448 228 462 222 C 476 216 494 213 516 213 C 553 213 588 223 621 244 C 653 264 683 293 709 329 C 735 365 757 407 777 455 C 796 503 811 556 823 612 L 913 1077 L 1206 1077 L 1090 467 C 1082 426 1074 388 1068 352 C 1062 316 1056 281 1051 245 C 1045 209 1041 171 1037 131 C 1033 91 1030 48 1028 0 L 764 0 C 766 56 770 118 776 186 Z M 649 1530 L 907 1272 L 895 1204 L 743 1204 L 432 1436 L 432 1530 L 649 1530 Z" unicode="" />
<glyph horiz-adv-x="1229" d="M 776 186 C 750 154 722 126 694 100 C 665 74 634 51 602 32 C 570 13 535 -1 499 -11 C 463 -21 424 -27 383 -27 C 333 -27 290 -19 254 -5 C 218 8 189 28 166 54 C 143 80 126 111 116 147 C 105 183 100 222 100 266 C 100 301 103 338 109 377 C 115 415 121 456 129 498 L 240 1077 L 535 1077 L 436 565 C 434 555 431 541 427 523 C 423 505 420 486 416 465 C 412 444 409 423 407 401 C 404 379 403 359 403 342 C 403 323 405 306 409 290 C 413 274 419 261 428 249 C 436 237 448 228 462 222 C 476 216 494 213 516 213 C 553 213 588 223 621 244 C 653 264 683 293 709 329 C 735 365 757 407 777 455 C 796 503 811 556 823 612 L 913 1077 L 1206 1077 L 1090 467 C 1082 426 1074 388 1068 352 C 1062 316 1056 281 1051 245 C 1045 209 1041 171 1037 131 C 1033 91 1030 48 1028 0 L 764 0 C 766 56 770 118 776 186 Z M 1081 1530 L 1081 1436 L 768 1204 L 602 1204 L 614 1272 L 862 1530 L 1081 1530 Z" unicode="" />
<glyph horiz-adv-x="1229" d="M 776 186 C 750 154 722 126 694 100 C 665 74 634 51 602 32 C 570 13 535 -1 499 -11 C 463 -21 424 -27 383 -27 C 333 -27 290 -19 254 -5 C 218 8 189 28 166 54 C 143 80 126 111 116 147 C 105 183 100 222 100 266 C 100 301 103 338 109 377 C 115 415 121 456 129 498 L 240 1077 L 535 1077 L 436 565 C 434 555 431 541 427 523 C 423 505 420 486 416 465 C 412 444 409 423 407 401 C 404 379 403 359 403 342 C 403 323 405 306 409 290 C 413 274 419 261 428 249 C 436 237 448 228 462 222 C 476 216 494 213 516 213 C 553 213 588 223 621 244 C 653 264 683 293 709 329 C 735 365 757 407 777 455 C 796 503 811 556 823 612 L 913 1077 L 1206 1077 L 1090 467 C 1082 426 1074 388 1068 352 C 1062 316 1056 281 1051 245 C 1045 209 1041 171 1037 131 C 1033 91 1030 48 1028 0 L 764 0 C 766 56 770 118 776 186 Z M 893 1530 L 1067 1268 L 1055 1204 L 967 1204 L 795 1360 L 782 1360 L 549 1204 L 434 1204 L 447 1268 L 723 1530 L 893 1530 Z" unicode="" />
<glyph horiz-adv-x="1229" d="M 776 186 C 750 154 722 126 694 100 C 665 74 634 51 602 32 C 570 13 535 -1 499 -11 C 463 -21 424 -27 383 -27 C 333 -27 290 -19 254 -5 C 218 8 189 28 166 54 C 143 80 126 111 116 147 C 105 183 100 222 100 266 C 100 301 103 338 109 377 C 115 415 121 456 129 498 L 240 1077 L 535 1077 L 436 565 C 434 555 431 541 427 523 C 423 505 420 486 416 465 C 412 444 409 423 407 401 C 404 379 403 359 403 342 C 403 323 405 306 409 290 C 413 274 419 261 428 249 C 436 237 448 228 462 222 C 476 216 494 213 516 213 C 553 213 588 223 621 244 C 653 264 683 293 709 329 C 735 365 757 407 777 455 C 796 503 811 556 823 612 L 913 1077 L 1206 1077 L 1090 467 C 1082 426 1074 388 1068 352 C 1062 316 1056 281 1051 245 C 1045 209 1041 171 1037 131 C 1033 91 1030 48 1028 0 L 764 0 C 766 56 770 118 776 186 Z M 711 1470 L 664 1231 L 414 1231 L 461 1470 L 711 1470 Z M 1139 1470 L 1092 1231 L 842 1231 L 889 1470 L 1139 1470 Z" unicode="" />
<glyph horiz-adv-x="1090" d="M 422 1077 L 496 451 L 504 319 L 514 319 L 563 428 L 893 1077 L 1208 1077 L 547 -109 C 516 -164 485 -213 454 -257 C 423 -300 390 -337 354 -367 C 318 -397 278 -419 236 -435 C 194 -451 146 -459 92 -459 C 71 -459 49 -457 27 -454 C 4 -451 -17 -445 -39 -436 L -10 -219 C 23 -219 53 -217 79 -214 C 105 -211 128 -205 149 -197 C 170 -189 189 -177 206 -161 C 223 -145 239 -125 254 -100 L 295 -29 L 123 1077 L 422 1077 Z M 1011 1530 L 1011 1436 L 698 1204 L 532 1204 L 544 1272 L 792 1530 L 1011 1530 Z" unicode="" />
<glyph horiz-adv-x="1225" d="M -41 -451 L 340 1507 L 633 1507 L 524 950 C 546 972 569 993 593 1012 C 617 1031 642 1048 669 1062 C 696 1076 724 1086 754 1094 C 784 1102 816 1106 850 1106 C 912 1106 965 1095 1009 1073 C 1052 1051 1087 1021 1114 983 C 1141 945 1161 900 1173 849 C 1185 797 1192 742 1192 684 C 1192 635 1187 584 1178 530 C 1169 476 1155 422 1136 370 C 1117 317 1093 266 1064 218 C 1035 170 1000 127 960 91 C 920 54 874 25 822 3 C 770 -18 711 -29 647 -29 C 584 -29 529 -18 481 4 C 433 26 394 61 362 109 L 252 -451 L -41 -451 Z M 725 862 C 685 862 649 851 617 831 C 585 811 556 782 531 746 C 506 709 485 665 467 614 C 449 562 436 506 426 444 L 406 328 C 414 312 425 298 438 284 C 451 270 466 257 482 247 C 498 236 515 227 533 221 C 551 214 571 211 592 211 C 625 211 655 217 683 231 C 710 245 735 263 757 286 C 779 308 798 335 814 365 C 830 395 844 426 855 458 C 865 490 873 522 879 554 C 884 586 887 617 887 645 C 887 671 884 698 879 724 C 874 750 865 773 853 793 C 841 813 824 830 804 843 C 783 855 757 862 725 862 Z" unicode="" />
<glyph horiz-adv-x="1090" d="M 422 1077 L 496 451 L 504 319 L 514 319 L 563 428 L 893 1077 L 1208 1077 L 547 -109 C 516 -164 485 -213 454 -257 C 423 -300 390 -337 354 -367 C 318 -397 278 -419 236 -435 C 194 -451 146 -459 92 -459 C 71 -459 49 -457 27 -454 C 4 -451 -17 -445 -39 -436 L -10 -219 C 23 -219 53 -217 79 -214 C 105 -211 128 -205 149 -197 C 170 -189 189 -177 206 -161 C 223 -145 239 -125 254 -100 L 295 -29 L 123 1077 L 422 1077 Z M 641 1470 L 594 1231 L 344 1231 L 391 1470 L 641 1470 Z M 1069 1470 L 1022 1231 L 772 1231 L 819 1470 L 1069 1470 Z" unicode="" />
<glyph horiz-adv-x="575" d="M 555 1077 L 346 0 L 53 0 L 260 1077 L 555 1077 Z" unicode="" />
<glyph horiz-adv-x="1151" d="M 86 633 L 266 752 L 401 1446 L 711 1446 L 621 983 L 936 1190 L 877 868 L 557 659 L 479 252 L 1069 252 L 1020 0 L 121 0 L 203 426 L 29 311 L 86 633 Z" unicode="" />
<glyph horiz-adv-x="672" d="M 113 686 L 264 784 L 406 1507 L 700 1507 L 602 1004 L 754 1102 L 698 813 L 545 713 L 408 0 L 113 0 L 207 492 L 59 395 L 113 686 Z" unicode="" />
<glyph horiz-adv-x="2341" d="M 1577 872 L 2191 872 L 2144 616 L 1526 616 L 1454 244 L 2185 244 L 2138 0 L 1108 0 L 1133 137 C 1079 81 1018 40 950 13 C 882 -13 803 -27 715 -27 C 631 -27 554 -14 483 11 C 412 37 351 75 299 127 C 247 179 207 244 178 322 C 149 400 135 491 135 596 C 135 671 142 745 158 818 C 174 890 197 959 227 1024 C 257 1089 294 1149 339 1204 C 383 1259 435 1307 493 1347 C 551 1387 615 1418 686 1441 C 757 1463 834 1475 918 1475 C 1014 1475 1097 1457 1168 1423 C 1239 1388 1300 1333 1352 1257 L 1389 1446 L 2398 1446 L 2351 1200 L 1640 1200 L 1577 872 Z M 1251 817 C 1251 875 1244 929 1230 977 C 1216 1025 1195 1066 1167 1100 C 1139 1134 1104 1160 1062 1178 C 1020 1196 971 1206 915 1206 C 861 1206 813 1197 769 1181 C 725 1165 687 1142 653 1114 C 619 1086 589 1053 564 1015 C 539 977 519 936 503 893 C 487 850 475 806 467 760 C 459 714 455 669 455 625 C 455 567 461 514 475 467 C 488 420 508 380 536 346 C 563 312 597 287 639 269 C 681 251 730 242 786 242 C 840 242 890 250 935 266 C 979 282 1019 305 1053 333 C 1087 361 1117 394 1142 432 C 1167 469 1188 509 1204 552 C 1220 594 1231 638 1239 684 C 1247 729 1251 773 1251 817 Z" unicode="" />
<glyph horiz-adv-x="1919" d="M 1126 467 C 1126 423 1130 385 1140 351 C 1150 317 1165 289 1187 265 C 1208 241 1236 223 1271 211 C 1306 199 1349 193 1399 193 C 1431 193 1460 194 1488 198 C 1515 201 1541 206 1567 212 C 1593 218 1618 225 1642 234 C 1666 242 1690 252 1716 264 L 1731 51 C 1681 25 1626 5 1567 -9 C 1508 -23 1444 -31 1374 -31 C 1330 -31 1288 -27 1248 -21 C 1207 -15 1168 -5 1132 7 C 1095 20 1061 36 1030 56 C 998 76 970 99 946 127 C 898 79 843 41 779 13 C 715 -14 641 -29 559 -29 C 484 -29 417 -17 358 6 C 298 29 248 62 207 105 C 166 148 135 200 113 261 C 91 321 80 389 80 463 C 80 514 85 566 96 618 C 107 670 123 719 145 767 C 167 814 194 858 227 900 C 259 941 297 977 341 1008 C 384 1038 433 1062 487 1080 C 541 1097 600 1106 666 1106 C 749 1106 822 1091 884 1061 C 946 1031 998 989 1038 936 C 1088 987 1145 1028 1211 1059 C 1277 1090 1351 1106 1434 1106 C 1496 1106 1554 1096 1608 1077 C 1661 1058 1707 1030 1746 994 C 1785 958 1815 913 1837 860 C 1859 807 1870 746 1870 678 C 1870 646 1867 613 1863 577 C 1858 541 1849 504 1837 467 L 1126 467 Z M 844 614 C 844 651 840 685 833 716 C 825 746 814 773 798 795 C 782 817 763 834 739 846 C 715 858 686 864 653 864 C 617 864 586 857 559 845 C 532 832 508 815 488 794 C 468 772 451 748 437 720 C 423 692 411 664 403 634 C 394 604 388 575 384 545 C 380 515 379 487 379 461 C 379 423 382 389 390 359 C 397 328 408 302 424 280 C 439 258 459 241 483 229 C 507 217 535 211 569 211 C 604 211 635 217 663 230 C 690 242 714 259 734 281 C 754 302 772 326 786 354 C 800 382 811 410 820 440 C 828 470 834 500 838 530 C 842 560 844 588 844 614 Z M 1425 895 C 1387 895 1353 887 1324 873 C 1294 859 1268 840 1246 817 C 1223 793 1204 766 1189 736 C 1173 705 1161 673 1151 641 L 1595 641 C 1597 651 1598 662 1600 672 C 1601 682 1602 692 1602 702 C 1602 728 1598 752 1592 776 C 1586 799 1576 819 1562 837 C 1548 855 1529 869 1507 879 C 1484 889 1457 895 1425 895 Z" unicode="" />
<glyph horiz-adv-x="1243" d="M 1141 1102 C 1118 1116 1092 1131 1064 1146 C 1035 1160 1004 1173 972 1185 C 939 1197 905 1206 870 1214 C 834 1221 799 1225 764 1225 C 734 1225 706 1222 680 1216 C 654 1210 631 1200 611 1187 C 591 1174 575 1157 563 1137 C 551 1116 545 1091 545 1063 C 545 1033 551 1007 565 986 C 578 964 596 946 618 930 C 640 914 666 899 695 887 C 723 874 753 861 784 848 C 842 822 894 796 940 769 C 986 741 1024 711 1056 677 C 1087 643 1111 604 1128 562 C 1144 519 1153 470 1153 416 C 1153 343 1138 278 1110 222 C 1082 166 1042 118 992 80 C 941 42 881 13 811 -7 C 741 -27 664 -37 582 -37 C 538 -37 493 -34 447 -28 C 400 -22 353 -14 307 -2 C 261 10 215 25 170 43 C 124 61 81 83 41 109 L 156 356 C 184 334 216 315 251 298 C 286 280 323 265 361 253 C 399 240 437 230 476 223 C 514 216 552 213 588 213 C 622 213 653 216 683 223 C 712 229 737 240 759 254 C 781 268 798 285 810 307 C 822 329 829 355 829 385 C 829 417 822 444 808 468 C 794 491 775 511 751 529 C 727 547 700 563 670 577 C 639 591 607 606 575 621 C 529 641 486 661 444 683 C 402 705 365 731 333 762 C 301 792 275 829 256 873 C 236 917 227 970 227 1034 C 227 1106 239 1169 265 1224 C 290 1279 326 1325 372 1362 C 418 1399 473 1427 537 1446 C 601 1465 673 1475 752 1475 C 916 1475 1083 1432 1253 1346 L 1141 1102 Z M 709 1575 L 535 1835 L 547 1901 L 635 1901 L 807 1743 L 819 1743 L 1053 1901 L 1167 1901 L 1155 1835 L 879 1575 L 709 1575 Z" unicode="" />
<glyph horiz-adv-x="1004" d="M 104 297 C 128 281 153 266 180 252 C 207 238 235 225 265 215 C 294 205 324 197 355 191 C 386 185 417 182 449 182 C 469 182 489 183 509 187 C 529 191 546 197 562 205 C 577 213 589 225 599 239 C 609 253 614 270 614 291 C 614 311 608 329 598 343 C 588 357 573 371 555 383 C 536 395 514 406 488 418 C 462 429 433 441 401 455 C 369 468 338 483 307 501 C 276 518 248 539 224 564 C 199 588 179 618 164 652 C 148 686 141 726 141 774 C 141 830 152 879 174 922 C 196 964 226 1000 264 1029 C 302 1057 346 1079 398 1094 C 450 1108 505 1116 565 1116 C 636 1116 708 1106 782 1087 C 856 1068 927 1042 995 1008 L 893 791 C 871 807 848 821 823 834 C 798 846 772 857 746 866 C 719 875 692 882 664 887 C 636 892 608 895 582 895 C 564 895 547 893 531 889 C 514 885 499 880 486 873 C 473 865 462 856 454 844 C 446 832 442 817 442 801 C 442 779 447 761 458 747 C 468 732 483 719 501 707 C 519 695 541 684 565 674 C 589 664 614 653 641 641 C 676 625 710 609 744 591 C 777 573 806 551 832 526 C 858 500 878 471 894 437 C 910 403 918 362 918 315 C 918 258 906 207 882 163 C 858 119 826 81 784 51 C 742 21 693 -1 637 -17 C 581 -33 520 -41 455 -41 C 421 -41 385 -38 347 -34 C 309 -29 270 -22 231 -13 C 191 -3 152 8 113 23 C 74 38 38 56 4 78 L 104 297 Z M 563 1204 L 389 1464 L 401 1530 L 489 1530 L 661 1372 L 673 1372 L 907 1530 L 1021 1530 L 1009 1464 L 733 1204 L 563 1204 Z" unicode="" />
<glyph horiz-adv-x="1348" d="M 559 1446 L 739 795 L 1174 1446 L 1536 1446 L 840 500 L 741 0 L 430 0 L 526 500 L 201 1446 L 559 1446 Z M 848 1828 L 801 1589 L 551 1589 L 598 1828 L 848 1828 Z M 1276 1828 L 1229 1589 L 979 1589 L 1026 1828 L 1276 1828 Z" unicode="" />
<glyph horiz-adv-x="1317" d="M 1364 1446 L 1323 1243 L 453 252 L 1143 252 L 1094 0 L -8 0 L 29 203 L 913 1194 L 299 1194 L 346 1446 L 1364 1446 Z M 748 1575 L 574 1835 L 586 1901 L 674 1901 L 846 1743 L 858 1743 L 1092 1901 L 1206 1901 L 1194 1835 L 918 1575 L 748 1575 Z" unicode="" />
<glyph horiz-adv-x="963" d="M 1016 1077 L 985 920 L 391 221 L 868 221 L 825 0 L -31 0 L 0 158 L 592 856 L 188 856 L 229 1077 L 1016 1077 Z M 553 1204 L 379 1464 L 391 1530 L 479 1530 L 651 1372 L 663 1372 L 897 1530 L 1011 1530 L 999 1464 L 723 1204 L 553 1204 Z" unicode="" />
<glyph horiz-adv-x="1276" d="M 807 588 L 608 -145 C 592 -200 573 -248 549 -288 C 525 -328 495 -360 461 -386 C 427 -412 386 -431 340 -443 C 294 -455 241 -461 182 -461 C 154 -461 127 -458 101 -454 C 75 -450 54 -444 39 -438 L 82 -229 C 86 -230 92 -231 100 -232 C 108 -233 116 -234 126 -236 C 136 -237 145 -238 155 -239 C 164 -239 172 -240 180 -240 C 200 -240 218 -238 233 -234 C 248 -230 261 -222 272 -212 C 282 -201 292 -186 300 -168 C 308 -150 316 -126 324 -98 L 512 588 L 283 588 L 326 809 L 571 809 L 662 1135 C 677 1191 696 1239 719 1279 C 742 1319 770 1351 804 1377 C 837 1402 876 1420 921 1432 C 965 1444 1017 1450 1075 1450 C 1097 1450 1118 1449 1139 1448 C 1160 1446 1179 1444 1196 1442 C 1213 1439 1228 1436 1240 1433 C 1252 1430 1260 1427 1264 1423 L 1188 1217 C 1183 1217 1176 1218 1168 1220 C 1160 1221 1151 1222 1142 1223 C 1132 1224 1123 1225 1114 1226 C 1104 1226 1096 1227 1090 1227 C 1070 1227 1053 1225 1039 1222 C 1025 1218 1012 1212 1001 1202 C 989 1192 979 1177 970 1159 C 960 1141 952 1117 944 1087 L 868 809 L 1130 809 L 1087 588 L 807 588 Z" unicode="" />
<glyph horiz-adv-x="643" d="M 178 836 L 522 1446 L 727 1446 L 502 836 L 178 836 Z" unicode="" />
<glyph horiz-adv-x="895" d="M 725 1530 L 899 1268 L 887 1204 L 799 1204 L 627 1360 L 614 1360 L 381 1204 L 266 1204 L 279 1268 L 555 1530 L 725 1530 Z" unicode="" />
<glyph horiz-adv-x="895" d="M 500 1204 L 326 1464 L 338 1530 L 426 1530 L 598 1372 L 610 1372 L 844 1530 L 958 1530 L 946 1464 L 670 1204 L 500 1204 Z" unicode="" />
<glyph horiz-adv-x="895" d="M 899 1430 L 864 1245 L 319 1245 L 356 1430 L 899 1430 Z" unicode="" />
<glyph horiz-adv-x="895" d="M 483 1530 C 479 1515 476 1502 473 1490 C 470 1478 469 1466 469 1454 C 469 1418 479 1392 500 1375 C 520 1358 554 1350 602 1350 C 634 1350 660 1354 682 1362 C 704 1370 722 1381 736 1397 C 750 1413 762 1432 770 1454 C 778 1476 785 1502 791 1530 L 940 1530 C 922 1422 885 1341 828 1286 C 770 1231 687 1204 578 1204 C 488 1204 422 1221 379 1256 C 336 1291 315 1343 315 1411 C 315 1431 317 1451 321 1470 C 325 1489 330 1509 336 1530 L 483 1530 Z" unicode="" />
<glyph horiz-adv-x="895" d="M 791 1470 L 743 1227 L 432 1227 L 479 1470 L 791 1470 Z" unicode="" />
<glyph horiz-adv-x="895" d="M 354 1442 C 354 1474 360 1505 373 1534 C 385 1562 403 1587 425 1609 C 447 1631 474 1648 506 1660 C 537 1672 572 1679 610 1679 C 648 1679 682 1672 714 1660 C 745 1648 772 1631 795 1609 C 817 1587 835 1562 847 1534 C 859 1505 866 1474 866 1442 C 866 1409 859 1378 847 1349 C 835 1320 817 1295 795 1274 C 772 1252 745 1235 714 1223 C 682 1210 648 1204 610 1204 C 572 1204 537 1210 506 1223 C 474 1235 447 1252 425 1274 C 403 1295 385 1320 373 1349 C 360 1378 354 1409 354 1442 Z M 494 1442 C 494 1426 497 1410 503 1396 C 509 1382 518 1369 528 1359 C 538 1349 551 1340 565 1334 C 579 1328 594 1325 610 1325 C 626 1325 642 1328 656 1334 C 670 1340 682 1349 693 1359 C 703 1369 712 1382 718 1396 C 724 1410 727 1426 727 1442 C 727 1458 724 1473 718 1488 C 712 1502 703 1515 693 1526 C 682 1536 670 1545 656 1551 C 642 1557 626 1561 610 1561 C 594 1561 579 1557 565 1551 C 551 1545 538 1536 528 1526 C 518 1515 509 1502 503 1488 C 497 1473 494 1458 494 1442 Z" unicode="" />
<glyph horiz-adv-x="895" d="M 616 8 L 614 0 L 406 -172 C 389 -185 375 -198 365 -210 C 355 -222 350 -236 350 -252 C 350 -262 352 -270 356 -276 C 360 -282 365 -287 372 -291 C 378 -295 386 -297 394 -299 C 402 -300 411 -301 420 -301 C 438 -301 460 -298 486 -292 C 511 -286 535 -279 559 -270 L 553 -412 C 530 -425 502 -435 470 -441 C 438 -447 403 -451 367 -451 C 290 -451 231 -436 190 -408 C 149 -379 129 -338 129 -285 C 129 -247 139 -210 161 -174 C 182 -138 218 -102 270 -68 L 381 8 L 616 8 Z" unicode="" />
<glyph horiz-adv-x="895" d="M 315 1425 C 347 1458 377 1482 406 1496 C 434 1510 466 1518 500 1518 C 529 1518 555 1512 578 1501 C 600 1490 625 1473 653 1450 L 698 1415 C 709 1405 719 1398 728 1393 C 736 1388 745 1386 754 1386 C 762 1386 769 1388 777 1393 C 785 1397 794 1405 805 1415 L 866 1477 L 993 1380 L 913 1294 C 882 1261 852 1237 823 1222 C 794 1207 763 1200 729 1200 C 700 1200 674 1206 652 1218 C 630 1230 605 1246 578 1268 L 532 1303 C 520 1311 510 1317 502 1323 C 493 1328 484 1331 475 1331 C 467 1331 459 1329 451 1325 C 443 1321 434 1314 424 1303 L 362 1243 L 236 1337 L 315 1425 Z" unicode="" />
<glyph horiz-adv-x="895" d="M 473 1204 L 326 1204 L 338 1272 L 498 1530 L 692 1530 L 676 1458 L 473 1204 Z M 829 1204 L 682 1204 L 696 1272 L 854 1530 L 1049 1530 L 1034 1458 L 829 1204 Z" unicode="" />
<glyph horiz-adv-x="1604" d="M 1155 1446 L 1440 199 L 1401 0 L 23 0 L 59 195 L 829 1446 L 1155 1446 Z M 842 950 L 418 250 L 1118 250 L 973 950 L 948 1120 L 932 1120 L 842 950 Z" unicode="" />
<glyph horiz-adv-x="1583" d="M 55 256 L 225 256 L 326 248 L 328 258 C 299 283 272 311 248 342 C 223 373 201 407 183 444 C 165 481 150 522 140 566 C 130 610 125 659 125 711 C 125 776 133 840 149 903 C 165 966 189 1026 220 1083 C 251 1139 289 1192 334 1240 C 379 1288 430 1329 487 1364 C 544 1398 607 1425 675 1445 C 743 1465 815 1475 893 1475 C 952 1475 1009 1469 1065 1457 C 1121 1445 1173 1427 1222 1403 C 1271 1379 1316 1349 1357 1314 C 1397 1278 1432 1237 1462 1190 C 1491 1143 1514 1091 1530 1033 C 1546 975 1554 911 1554 842 C 1554 779 1547 720 1534 666 C 1520 611 1500 560 1472 512 C 1444 464 1409 419 1366 377 C 1323 335 1272 295 1214 258 L 1210 248 L 1303 256 L 1470 256 L 1421 0 L 756 0 L 797 209 C 843 213 885 225 925 245 C 964 264 1000 288 1032 318 C 1064 348 1092 382 1116 420 C 1140 458 1161 499 1178 542 C 1194 585 1207 629 1216 675 C 1224 721 1229 766 1229 811 C 1229 861 1223 909 1211 957 C 1199 1004 1180 1046 1154 1083 C 1127 1120 1092 1150 1049 1172 C 1005 1194 952 1206 889 1206 C 835 1206 787 1197 743 1181 C 699 1165 660 1142 626 1114 C 592 1086 562 1053 537 1015 C 512 977 491 937 475 894 C 458 851 446 807 438 761 C 430 715 426 671 426 627 C 426 575 431 526 442 480 C 452 434 468 392 490 356 C 511 319 537 288 569 262 C 601 236 638 219 680 209 L 641 0 L 8 0 L 55 256 Z" unicode="" />
<glyph horiz-adv-x="1278" d="M 262 1077 L 555 1077 L 455 543 C 453 532 450 518 447 501 C 443 483 440 465 437 446 C 434 427 431 408 429 390 C 427 371 426 355 426 342 C 425 324 426 308 430 292 C 434 276 440 263 449 251 C 457 239 469 230 484 223 C 499 216 518 213 541 213 C 577 213 611 223 643 244 C 675 265 705 294 731 330 C 757 366 780 407 800 455 C 819 502 834 552 844 604 L 936 1077 L 1229 1077 L 1106 444 C 1091 365 1079 290 1070 219 C 1061 148 1056 75 1055 0 L 786 0 C 787 32 788 62 790 91 C 792 120 795 152 799 186 C 744 119 688 68 631 34 C 574 0 510 -18 438 -18 C 405 -18 378 -11 357 0 C 335 12 318 28 305 47 L 295 39 L 301 -139 L 240 -451 L -35 -451 L 262 1077 Z" unicode="" />
<glyph horiz-adv-x="1341" d="M 862 821 L 606 821 L 446 0 L 158 0 L 317 821 L 172 821 L 223 1077 L 1350 1077 L 1300 821 L 1151 821 L 1047 274 C 1033 203 1028 145 1032 101 C 1036 56 1042 22 1051 0 L 756 0 C 752 10 749 22 746 38 C 743 54 741 72 740 93 C 739 114 740 138 742 165 C 744 191 748 221 754 254 L 862 821 Z" unicode="" />
<glyph horiz-adv-x="78" d="" unicode="" />
<glyph horiz-adv-x="707" d="M 674 748 L 621 479 L 88 479 L 139 748 L 674 748 Z" unicode="" />
<glyph horiz-adv-x="707" d="M 674 748 L 621 479 L 88 479 L 139 748 L 674 748 Z" unicode="" />
<glyph horiz-adv-x="1249" d="M 1214 739 L 1167 483 L 82 483 L 131 739 L 1214 739 Z" unicode="" />
<glyph horiz-adv-x="2048" d="M 2015 739 L 1966 483 L 82 483 L 131 739 L 2015 739 Z" unicode="" />
<glyph horiz-adv-x="643" d="M 178 836 L 522 1446 L 727 1446 L 502 836 L 178 836 Z" unicode="" />
<glyph horiz-adv-x="643" d="M 729 1446 L 383 836 L 180 836 L 403 1446 L 729 1446 Z" unicode="" />
<glyph horiz-adv-x="645" d="M 510 303 L 164 -307 L -39 -307 L 184 303 L 510 303 Z" unicode="" />
<glyph horiz-adv-x="1114" d="M 647 836 L 991 1446 L 1196 1446 L 973 836 L 647 836 Z M 178 836 L 522 1446 L 727 1446 L 502 836 L 178 836 Z" unicode="" />
<glyph horiz-adv-x="1114" d="M 727 1446 L 383 836 L 178 836 L 401 1446 L 727 1446 Z M 1198 1446 L 852 836 L 647 836 L 872 1446 L 1198 1446 Z" unicode="" />
<glyph horiz-adv-x="1116" d="M 508 303 L 164 -307 L -41 -307 L 182 303 L 508 303 Z M 979 303 L 633 -307 L 428 -307 L 653 303 L 979 303 Z" unicode="" />
<glyph horiz-adv-x="938" d="M 668 1151 L 680 1135 L 815 1174 L 975 1174 L 934 958 L 776 958 L 653 997 L 633 979 L 559 383 L 528 221 L 315 221 L 346 383 L 504 981 L 489 997 L 352 958 L 195 958 L 236 1174 L 393 1174 L 516 1135 L 535 1151 L 522 1288 L 553 1446 L 766 1446 L 735 1288 L 668 1151 Z" unicode="" />
<glyph horiz-adv-x="940" d="M 668 1151 L 680 1135 L 817 1174 L 975 1174 L 934 958 L 776 958 L 653 997 L 633 979 L 662 899 L 637 776 L 580 692 L 592 676 L 727 715 L 887 715 L 846 500 L 686 500 L 565 539 L 545 520 L 561 387 L 530 221 L 317 221 L 348 387 L 416 522 L 401 539 L 264 500 L 109 500 L 150 715 L 305 715 L 428 676 L 446 692 L 424 776 L 449 899 L 504 981 L 489 997 L 354 958 L 197 958 L 238 1174 L 395 1174 L 516 1135 L 535 1151 L 522 1288 L 553 1446 L 766 1446 L 735 1288 L 668 1151 Z" unicode="" />
<glyph horiz-adv-x="993" d="M 500 942 C 555 942 605 933 650 916 C 694 898 732 874 764 842 C 796 810 820 772 838 728 C 855 683 864 633 864 578 C 864 522 855 472 838 427 C 820 382 796 344 764 312 C 732 280 694 256 650 239 C 605 221 555 213 500 213 C 444 213 393 221 348 239 C 303 256 265 280 233 312 C 201 344 177 382 160 427 C 143 472 135 522 135 578 C 135 633 143 683 160 728 C 177 772 201 810 233 842 C 265 874 303 898 348 916 C 393 933 444 942 500 942 Z" unicode="" />
<glyph horiz-adv-x="2048" d="M 528 330 L 465 0 L 137 0 L 201 330 L 528 330 Z M 1165 330 L 1102 0 L 774 0 L 838 330 L 1165 330 Z M 1802 330 L 1739 0 L 1411 0 L 1475 330 L 1802 330 Z" unicode="" />
<glyph horiz-adv-x="2810" d="M 604 1477 C 654 1477 700 1469 741 1453 C 781 1437 816 1415 844 1386 C 872 1356 894 1320 909 1277 C 924 1233 932 1184 932 1130 C 932 1095 929 1058 923 1020 C 917 982 908 944 895 906 C 882 868 865 832 844 798 C 822 764 796 733 764 707 C 732 681 695 660 653 644 C 611 628 562 621 508 621 C 457 621 411 628 371 644 C 331 659 297 681 269 710 C 241 739 219 775 204 818 C 189 860 182 909 182 965 C 182 999 184 1035 190 1074 C 196 1112 205 1150 218 1188 C 231 1226 248 1262 270 1297 C 291 1332 317 1363 349 1389 C 380 1415 417 1437 459 1453 C 501 1469 549 1477 604 1477 Z M 1708 1446 L 606 0 L 375 0 L 1477 1446 L 1708 1446 Z M 592 1296 C 561 1296 534 1290 512 1279 C 490 1267 471 1253 455 1235 C 439 1217 426 1196 416 1173 C 406 1149 399 1126 393 1102 C 387 1078 384 1054 382 1032 C 380 1009 379 989 379 973 C 379 949 381 927 386 907 C 390 886 398 868 409 852 C 419 836 434 824 452 815 C 470 805 492 801 520 801 C 550 801 577 806 600 817 C 622 828 641 843 657 861 C 673 879 686 900 696 923 C 706 946 713 969 719 993 C 724 1017 728 1040 730 1062 C 732 1084 733 1104 733 1122 C 733 1144 730 1166 726 1187 C 721 1208 713 1227 703 1243 C 692 1259 677 1271 659 1281 C 641 1291 618 1296 592 1296 Z M 1573 825 C 1623 825 1669 817 1710 801 C 1750 785 1785 763 1813 734 C 1841 704 1863 668 1878 625 C 1893 582 1901 533 1901 479 C 1901 444 1898 407 1892 369 C 1886 330 1877 292 1864 254 C 1850 216 1833 180 1811 146 C 1789 112 1763 81 1732 55 C 1700 29 1664 8 1622 -7 C 1580 -23 1531 -31 1477 -31 C 1425 -31 1379 -23 1339 -8 C 1298 7 1264 29 1236 59 C 1208 88 1186 124 1171 167 C 1156 209 1149 258 1149 313 C 1149 347 1151 383 1157 422 C 1163 460 1172 499 1186 537 C 1199 575 1216 611 1238 646 C 1259 680 1285 711 1317 738 C 1348 764 1385 785 1427 801 C 1469 817 1518 825 1573 825 Z M 1561 645 C 1530 645 1503 639 1481 628 C 1458 616 1439 602 1423 584 C 1407 566 1394 545 1384 522 C 1374 498 1366 475 1360 451 C 1354 427 1351 403 1349 381 C 1347 358 1346 338 1346 322 C 1346 298 1348 276 1352 256 C 1356 235 1364 217 1375 201 C 1386 185 1401 173 1419 164 C 1437 154 1459 150 1487 150 C 1517 150 1544 155 1567 166 C 1590 177 1609 192 1625 210 C 1641 228 1654 249 1664 272 C 1674 295 1681 318 1687 342 C 1693 366 1697 389 1699 411 C 1701 433 1702 453 1702 471 C 1702 493 1699 515 1695 536 C 1690 557 1682 576 1672 592 C 1661 608 1646 620 1628 630 C 1610 640 1587 645 1561 645 Z M 2398 825 C 2448 825 2494 817 2535 801 C 2575 785 2610 763 2638 734 C 2666 704 2688 668 2703 625 C 2718 582 2726 533 2726 479 C 2726 444 2723 407 2717 369 C 2711 330 2702 292 2689 254 C 2675 216 2658 180 2637 146 C 2615 112 2589 81 2558 55 C 2526 29 2489 8 2447 -7 C 2405 -23 2356 -31 2302 -31 C 2250 -31 2204 -23 2164 -8 C 2123 7 2089 29 2061 59 C 2033 88 2011 124 1996 167 C 1981 209 1974 258 1974 313 C 1974 347 1976 383 1982 422 C 1988 460 1997 499 2011 537 C 2024 575 2041 611 2063 646 C 2085 680 2111 711 2143 738 C 2174 764 2211 785 2253 801 C 2295 817 2343 825 2398 825 Z M 2386 645 C 2355 645 2328 639 2306 628 C 2284 616 2265 602 2249 584 C 2233 566 2220 545 2210 522 C 2200 498 2193 475 2187 451 C 2181 427 2178 403 2176 381 C 2174 358 2173 338 2173 322 C 2173 298 2175 276 2180 256 C 2184 235 2192 217 2203 201 C 2213 185 2227 173 2245 164 C 2263 154 2285 150 2312 150 C 2342 150 2369 155 2392 166 C 2414 177 2434 192 2450 210 C 2466 228 2479 249 2489 272 C 2499 295 2506 318 2512 342 C 2518 366 2522 389 2524 411 C 2526 433 2527 453 2527 471 C 2527 493 2524 515 2520 536 C 2515 557 2507 576 2497 592 C 2486 608 2471 620 2453 630 C 2435 640 2412 645 2386 645 Z" unicode="" />
<glyph horiz-adv-x="709" d="M 709 924 L 330 567 L 551 231 L 293 231 L 84 510 L 111 647 L 430 924 L 709 924 Z" unicode="" />
<glyph horiz-adv-x="709" d="M 45 231 L 424 588 L 203 924 L 461 924 L 670 645 L 643 508 L 324 231 L 45 231 Z" unicode="" />
<glyph horiz-adv-x="453" d="M 879 1446 L -72 0 L -293 0 L 657 1446 L 879 1446 Z" unicode="" />
<glyph horiz-adv-x="870" d="M 621 1466 C 672 1466 717 1457 755 1440 C 793 1422 824 1398 849 1367 C 873 1336 892 1299 904 1256 C 916 1213 922 1166 922 1116 C 922 1085 919 1049 914 1008 C 908 967 899 925 886 882 C 873 838 856 796 834 754 C 812 712 785 674 752 641 C 719 607 680 580 635 560 C 590 540 538 530 479 530 C 427 530 383 538 345 556 C 307 574 276 598 252 629 C 228 660 210 697 198 740 C 186 783 180 830 180 881 C 180 912 182 948 188 989 C 193 1029 202 1071 215 1115 C 228 1158 245 1201 267 1243 C 289 1285 316 1322 349 1355 C 381 1388 420 1415 465 1435 C 509 1455 561 1466 621 1466 Z M 709 1124 C 709 1142 707 1161 704 1180 C 700 1198 695 1215 687 1230 C 679 1245 668 1257 655 1267 C 641 1277 624 1282 604 1282 C 577 1282 553 1275 533 1261 C 513 1247 495 1228 479 1206 C 463 1183 450 1157 439 1128 C 428 1099 419 1070 412 1040 C 405 1010 400 980 397 952 C 394 924 393 899 393 877 C 393 856 394 836 397 817 C 400 797 405 780 413 765 C 421 750 431 738 445 729 C 458 719 475 715 496 715 C 526 715 553 723 576 740 C 598 757 618 779 634 805 C 650 831 662 861 672 893 C 682 925 689 957 695 987 C 700 1017 704 1045 706 1070 C 708 1094 709 1112 709 1124 Z" unicode="" />
<glyph horiz-adv-x="874" d="M 895 1446 L 780 885 L 907 885 L 877 717 L 748 717 L 715 549 L 500 549 L 532 717 L 127 717 L 162 895 L 657 1446 L 895 1446 Z M 342 885 L 563 885 L 606 1071 L 639 1198 L 633 1198 L 342 885 Z" unicode="" />
<glyph horiz-adv-x="825" d="M 160 717 C 188 713 218 709 249 705 C 279 701 309 700 338 700 C 373 700 409 703 445 709 C 481 715 513 725 542 739 C 571 753 595 772 613 796 C 631 819 641 848 641 883 C 641 903 637 921 630 935 C 623 949 613 960 601 968 C 589 976 574 982 558 986 C 542 989 524 991 506 991 C 468 991 435 985 407 974 C 379 962 351 946 322 926 L 207 985 L 334 1446 L 903 1446 L 866 1268 L 467 1268 L 420 1108 C 446 1123 473 1134 501 1141 C 528 1147 556 1151 586 1151 C 620 1151 652 1146 684 1137 C 716 1128 744 1114 768 1094 C 792 1074 812 1047 827 1015 C 842 982 850 942 850 895 C 850 833 836 778 810 732 C 783 685 746 646 698 615 C 650 584 594 561 528 545 C 462 529 391 522 313 522 C 305 522 294 522 282 523 C 269 523 256 524 242 525 C 228 526 213 527 199 529 C 185 531 172 533 160 535 L 160 717 Z" unicode="" />
<glyph horiz-adv-x="846" d="M 705 1473 C 741 1473 774 1470 803 1466 C 831 1462 854 1458 870 1454 L 870 1276 C 849 1281 824 1286 795 1291 C 766 1295 735 1298 702 1298 C 676 1298 649 1295 619 1289 C 589 1283 561 1272 535 1255 C 509 1239 486 1216 466 1187 C 446 1158 429 1123 416 1081 C 431 1094 447 1105 465 1113 C 482 1121 499 1128 517 1133 C 534 1137 551 1140 567 1142 C 583 1144 598 1145 612 1145 C 650 1145 686 1139 720 1128 C 754 1117 783 1101 808 1079 C 832 1057 852 1029 866 997 C 880 964 887 926 887 883 C 887 836 878 791 862 749 C 845 706 820 668 787 636 C 754 604 713 578 665 559 C 616 539 560 530 496 530 C 448 530 405 536 365 549 C 325 561 290 581 261 609 C 231 637 208 672 192 715 C 176 758 168 810 168 870 C 168 912 172 958 181 1008 C 190 1057 205 1106 225 1154 C 245 1202 270 1247 302 1289 C 334 1331 372 1367 418 1397 C 456 1421 498 1440 545 1453 C 591 1466 645 1473 705 1473 Z M 528 987 C 505 987 482 983 460 977 C 438 970 418 959 401 944 C 393 932 387 917 382 900 C 377 883 375 864 375 844 C 375 802 386 768 410 743 C 433 717 466 705 510 705 C 534 705 556 709 576 717 C 596 725 613 737 627 751 C 641 765 651 781 659 800 C 666 818 670 838 670 860 C 670 900 657 931 632 953 C 606 975 572 987 528 987 Z" unicode="" />
<glyph horiz-adv-x="778" d="M 928 1446 L 899 1300 C 853 1262 809 1220 766 1175 C 722 1129 681 1077 641 1018 C 601 959 562 891 526 815 C 489 739 454 650 422 549 L 186 549 C 210 627 238 699 272 765 C 305 831 341 894 380 952 C 419 1010 460 1065 503 1117 C 546 1169 590 1219 635 1268 L 240 1268 L 274 1446 L 928 1446 Z" unicode="" />
<glyph horiz-adv-x="895" d="M 354 1053 C 327 1066 306 1087 291 1115 C 275 1143 268 1175 268 1212 C 268 1252 276 1287 294 1319 C 312 1350 336 1376 366 1398 C 396 1419 432 1435 473 1447 C 514 1458 558 1464 606 1464 C 644 1464 684 1460 724 1452 C 764 1444 801 1431 834 1413 C 867 1395 894 1371 915 1342 C 935 1313 946 1278 946 1237 C 946 1213 942 1190 935 1167 C 927 1143 917 1122 903 1102 C 889 1082 873 1064 853 1049 C 833 1033 811 1022 786 1016 L 782 1004 C 796 997 810 988 823 978 C 836 968 847 955 857 940 C 867 925 874 908 880 888 C 886 868 889 846 889 821 C 889 775 880 735 862 699 C 844 663 818 633 786 608 C 754 582 715 563 670 550 C 624 536 574 530 520 530 C 478 530 435 534 393 543 C 350 551 312 566 278 586 C 244 606 216 632 194 664 C 172 696 162 735 162 782 C 162 810 166 839 175 867 C 183 895 196 920 212 944 C 228 967 249 987 273 1005 C 297 1022 324 1034 354 1042 L 354 1053 Z M 612 1309 C 572 1309 539 1299 513 1279 C 487 1259 475 1232 475 1196 C 475 1178 478 1162 485 1150 C 492 1137 501 1127 513 1119 C 524 1111 537 1105 552 1101 C 566 1097 582 1096 598 1096 C 640 1096 673 1107 697 1129 C 721 1151 733 1179 733 1212 C 733 1243 722 1267 700 1284 C 678 1300 649 1309 612 1309 Z M 381 809 C 382 769 395 741 420 723 C 445 705 478 696 518 696 C 545 696 569 699 589 707 C 609 714 625 724 639 736 C 652 748 662 762 668 778 C 674 794 678 811 678 829 C 678 867 665 895 640 914 C 614 932 581 942 539 942 C 486 942 446 929 420 905 C 394 880 381 848 381 809 Z" unicode="" />
<glyph horiz-adv-x="844" d="M 367 526 C 329 526 295 528 267 532 C 239 536 217 541 201 545 L 201 723 C 221 717 246 712 275 708 C 304 704 335 702 369 702 C 401 702 430 705 458 711 C 485 717 511 727 535 743 C 563 760 586 783 606 812 C 625 840 641 876 655 918 C 639 904 622 892 605 884 C 587 876 570 869 553 865 C 536 860 520 857 504 856 C 488 854 475 854 463 854 C 421 854 384 859 350 870 C 316 881 286 897 262 919 C 237 941 218 968 204 1000 C 190 1032 184 1070 184 1114 C 184 1161 192 1206 209 1249 C 225 1291 250 1329 283 1361 C 316 1393 357 1418 406 1437 C 454 1456 511 1466 575 1466 C 622 1466 665 1459 705 1447 C 745 1434 779 1414 808 1387 C 837 1359 860 1324 876 1281 C 892 1237 901 1185 901 1124 C 901 1081 896 1036 888 988 C 879 940 865 892 845 845 C 825 798 800 754 769 712 C 737 670 699 634 653 604 C 615 578 572 559 526 546 C 479 532 426 526 367 526 Z M 543 1012 C 564 1012 586 1015 608 1021 C 630 1027 650 1038 668 1053 C 676 1066 682 1081 687 1099 C 691 1117 694 1135 694 1155 C 694 1198 682 1232 658 1257 C 634 1281 601 1294 559 1294 C 534 1294 512 1289 493 1281 C 473 1273 457 1262 443 1248 C 429 1234 419 1217 412 1198 C 404 1179 401 1159 401 1139 C 401 1099 413 1067 439 1045 C 464 1023 499 1012 543 1012 Z" unicode="" />
<glyph horiz-adv-x="543" d="M 309 328 C 285 350 263 378 243 411 C 222 444 204 481 189 523 C 173 565 161 610 152 658 C 143 706 139 757 139 811 C 139 883 148 954 166 1022 C 184 1090 210 1155 245 1216 C 279 1277 322 1334 372 1386 C 422 1438 480 1485 545 1526 L 721 1526 L 715 1493 C 653 1458 599 1415 552 1363 C 504 1311 464 1254 432 1192 C 399 1130 374 1064 357 996 C 340 927 332 859 332 791 C 332 747 335 704 341 662 C 347 619 357 579 369 541 C 381 503 396 469 414 438 C 432 407 452 382 475 362 L 469 328 L 309 328 Z" unicode="" />
<glyph horiz-adv-x="547" d="M 0 328 L 8 362 C 68 396 122 440 170 492 C 218 544 258 602 291 664 C 323 726 348 791 365 860 C 382 928 391 997 391 1065 C 391 1107 387 1150 381 1193 C 375 1235 365 1275 353 1313 C 341 1351 326 1385 308 1416 C 290 1447 270 1473 248 1493 L 252 1526 L 412 1526 C 435 1503 457 1475 478 1442 C 498 1409 516 1372 532 1330 C 547 1288 559 1243 568 1195 C 577 1147 582 1096 582 1044 C 582 971 573 900 555 832 C 537 764 510 699 476 638 C 442 576 400 519 350 467 C 300 414 242 368 178 328 L 0 328 Z" unicode="" />
<glyph horiz-adv-x="975" d="M 233 1116 C 239 1147 244 1176 250 1204 C 255 1232 260 1260 264 1288 C 268 1316 271 1345 275 1375 C 278 1405 281 1439 283 1477 L 498 1477 C 498 1457 497 1437 496 1416 C 494 1394 492 1370 489 1343 C 531 1391 576 1429 626 1457 C 675 1485 732 1499 797 1499 C 835 1499 868 1493 896 1483 C 924 1472 947 1457 965 1437 C 983 1417 997 1393 1006 1365 C 1015 1337 1020 1306 1020 1272 C 1020 1244 1017 1215 1012 1187 C 1007 1158 1001 1128 995 1096 L 907 645 L 670 645 L 745 1040 C 751 1071 757 1101 762 1129 C 767 1157 770 1183 770 1206 C 770 1235 764 1258 752 1276 C 740 1294 718 1303 686 1303 C 658 1303 631 1295 607 1279 C 582 1263 560 1242 540 1215 C 520 1188 502 1156 487 1120 C 471 1083 459 1043 451 1001 L 379 645 L 143 645 L 233 1116 Z" unicode="" />
<glyph horiz-adv-x="870" d="M 467 631 C 518 631 563 622 601 605 C 639 587 670 563 695 532 C 719 501 738 464 750 421 C 762 378 768 331 768 281 C 768 250 765 214 760 173 C 754 132 745 90 732 47 C 719 3 702 -39 680 -81 C 658 -123 631 -160 598 -194 C 565 -227 526 -254 481 -274 C 436 -294 384 -305 325 -305 C 273 -305 229 -296 191 -278 C 153 -260 122 -236 98 -205 C 74 -174 56 -137 44 -94 C 32 -51 26 -4 26 46 C 26 77 28 113 34 154 C 39 194 48 236 61 280 C 74 323 91 366 113 408 C 135 450 162 487 195 520 C 227 553 266 580 311 600 C 355 620 407 631 467 631 Z M 555 289 C 555 307 553 326 550 345 C 546 363 541 380 533 395 C 525 410 514 422 501 432 C 487 442 470 447 450 447 C 423 447 399 440 379 426 C 359 412 341 393 325 371 C 309 348 296 322 285 293 C 274 264 265 235 258 205 C 251 175 246 145 243 117 C 240 89 239 64 239 42 C 239 21 240 1 243 -18 C 246 -37 251 -54 259 -69 C 267 -84 277 -96 291 -106 C 304 -115 321 -120 342 -120 C 372 -120 399 -111 422 -94 C 444 -77 464 -55 480 -29 C 496 -3 508 26 518 58 C 528 90 535 122 541 152 C 546 182 550 210 552 235 C 554 259 555 277 555 289 Z" unicode="" />
<glyph horiz-adv-x="555" d="M 271 611 L 461 611 L 433 515 L 277 -286 L 56 -286 L 189 390 L 199 429 L 195 429 L 44 365 L 78 547 L 271 611 Z" unicode="" />
<glyph horiz-adv-x="887" d="M 324 119 C 354 140 383 161 411 181 C 439 201 465 222 487 242 C 509 262 526 281 540 301 C 553 321 560 341 560 363 C 560 373 557 384 553 395 C 549 405 542 415 534 424 C 525 432 514 439 501 445 C 487 450 471 453 453 453 C 425 453 396 444 368 428 C 340 411 309 380 275 336 L 111 416 C 127 442 147 467 169 493 C 191 519 218 542 249 562 C 279 582 314 599 354 612 C 394 624 439 631 490 631 C 530 631 568 626 604 617 C 640 608 672 594 700 574 C 728 554 750 529 766 498 C 782 467 791 430 791 386 C 791 356 787 328 779 302 C 771 276 758 252 741 228 C 723 204 701 180 675 157 C 648 133 616 109 580 85 L 298 -106 L 693 -106 L 658 -286 L -34 -286 L 3 -110 L 324 119 Z" unicode="" />
<glyph horiz-adv-x="831" d="M 65 499 C 78 515 95 531 117 547 C 139 563 164 577 193 590 C 222 603 254 614 289 622 C 324 630 361 634 401 634 C 439 634 477 629 514 621 C 551 612 584 598 613 580 C 642 561 665 537 683 509 C 701 481 710 447 710 409 C 710 361 696 319 669 283 C 642 246 602 218 548 200 L 546 190 C 582 178 611 159 635 131 C 659 103 671 64 671 14 C 671 -25 663 -60 649 -92 C 634 -123 614 -151 589 -175 C 563 -199 534 -220 500 -237 C 466 -254 431 -268 393 -279 C 355 -290 317 -298 277 -304 C 237 -309 199 -312 163 -312 C 135 -312 106 -310 77 -308 C 48 -306 22 -302 0 -297 L 0 -115 C 12 -117 25 -120 40 -122 C 55 -124 71 -125 87 -127 C 103 -129 119 -130 135 -131 C 151 -131 165 -132 178 -132 C 205 -132 235 -129 267 -124 C 299 -119 328 -111 355 -100 C 382 -88 405 -73 423 -54 C 441 -34 450 -10 450 18 C 450 32 447 45 442 55 C 436 65 429 74 421 80 C 412 86 402 91 390 94 C 378 96 366 98 354 98 C 340 98 321 97 296 95 C 271 93 239 89 200 84 L 200 249 L 325 258 C 341 258 359 261 378 267 C 397 273 415 281 431 291 C 447 301 461 314 472 329 C 483 344 489 362 489 383 C 489 409 478 429 458 442 C 437 455 410 462 376 462 C 347 462 318 456 288 444 C 258 432 226 414 190 389 L 65 499 L 65 499 Z" unicode="" />
<glyph horiz-adv-x="874" d="M 741 611 L 626 50 L 753 50 L 723 -118 L 594 -118 L 561 -286 L 346 -286 L 378 -118 L -27 -118 L 8 60 L 503 611 L 741 611 Z M 188 50 L 409 50 L 452 236 L 485 363 L 479 363 L 188 50 Z" unicode="" />
<glyph horiz-adv-x="825" d="M 6 -118 C 34 -122 64 -125 95 -129 C 125 -133 155 -135 184 -135 C 219 -135 255 -132 291 -126 C 327 -120 359 -109 388 -95 C 417 -81 441 -62 459 -39 C 477 -15 487 13 487 48 C 487 68 483 86 476 100 C 469 114 459 125 447 133 C 435 141 420 147 404 151 C 388 154 370 156 352 156 C 314 156 281 150 253 139 C 225 127 197 111 168 91 L 53 150 L 180 611 L 749 611 L 712 433 L 313 433 L 266 273 C 292 288 319 299 347 306 C 374 312 402 316 432 316 C 466 316 498 311 530 302 C 562 293 590 279 614 259 C 638 239 658 212 673 180 C 688 147 696 107 696 60 C 696 -2 682 -56 656 -103 C 629 -149 592 -188 544 -219 C 496 -250 440 -273 374 -289 C 308 -305 237 -313 159 -313 C 151 -313 140 -312 128 -312 C 115 -311 102 -310 88 -309 C 74 -308 59 -307 45 -305 C 31 -303 18 -302 6 -300 L 6 -118 Z" unicode="" />
<glyph horiz-adv-x="846" d="M 551 638 C 587 638 620 635 649 631 C 677 627 700 623 716 619 L 716 441 C 695 446 670 451 641 456 C 612 460 581 463 548 463 C 522 463 495 460 465 454 C 435 448 407 437 381 420 C 355 404 332 381 312 352 C 292 323 275 288 262 246 C 277 259 293 270 311 278 C 328 286 345 293 363 298 C 380 302 397 305 413 307 C 429 309 444 310 458 310 C 496 310 532 304 566 293 C 600 282 629 266 654 244 C 678 222 698 194 712 162 C 726 129 733 91 733 48 C 733 1 724 -43 708 -86 C 691 -128 666 -166 633 -198 C 600 -230 559 -256 511 -276 C 462 -295 406 -305 342 -305 C 294 -305 251 -298 211 -286 C 171 -273 136 -253 107 -225 C 77 -197 54 -162 38 -119 C 22 -76 14 -25 14 35 C 14 77 18 123 27 173 C 36 222 51 271 71 319 C 91 367 116 412 148 454 C 180 496 218 532 264 562 C 302 586 344 605 391 618 C 437 631 491 638 551 638 Z M 374 152 C 351 152 328 148 306 142 C 284 135 264 124 247 109 C 239 97 233 82 228 65 C 223 48 221 29 221 9 C 221 -33 232 -66 256 -92 C 279 -117 312 -130 356 -130 C 380 -130 402 -125 422 -117 C 442 -109 459 -98 473 -84 C 487 -70 497 -53 505 -35 C 512 -16 516 3 516 25 C 516 65 503 96 478 118 C 452 140 418 152 374 152 Z" unicode="" />
<glyph horiz-adv-x="778" d="M 773 610 L 744 464 C 698 426 654 384 611 339 C 567 293 526 241 486 182 C 446 123 407 55 371 -20 C 334 -96 299 -185 267 -287 L 31 -287 C 55 -209 83 -136 117 -70 C 150 -4 186 58 225 116 C 264 174 305 229 348 281 C 391 333 435 383 480 432 L 85 432 L 119 610 L 773 610 Z" unicode="" />
<glyph horiz-adv-x="895" d="M 200 218 C 173 231 152 252 137 280 C 121 308 114 340 114 377 C 114 417 122 452 140 484 C 158 515 182 541 212 563 C 242 584 278 600 319 612 C 360 623 404 629 452 629 C 490 629 530 625 570 617 C 610 609 647 596 680 578 C 713 560 740 536 761 507 C 781 478 792 443 792 402 C 792 378 788 355 781 332 C 773 308 763 287 749 267 C 735 247 719 229 699 214 C 679 198 657 187 632 181 L 628 169 C 642 162 656 153 669 143 C 682 133 693 120 703 105 C 713 90 720 73 726 53 C 732 33 735 11 735 -14 C 735 -59 726 -99 708 -135 C 690 -171 664 -201 632 -227 C 600 -252 561 -271 516 -285 C 470 -298 420 -305 366 -305 C 324 -305 281 -300 239 -292 C 196 -283 158 -269 124 -249 C 90 -229 62 -203 40 -171 C 18 -139 8 -99 8 -53 C 8 -24 12 4 21 32 C 29 60 42 85 58 109 C 74 132 95 152 119 170 C 143 187 170 199 200 207 L 200 218 Z M 458 474 C 418 474 385 464 359 444 C 333 424 321 397 321 361 C 321 343 324 327 331 315 C 338 302 347 292 359 284 C 370 276 383 270 398 266 C 412 262 428 261 444 261 C 486 261 519 272 543 294 C 567 316 579 344 579 377 C 579 408 568 432 546 449 C 524 465 495 474 458 474 Z M 227 -26 C 228 -65 241 -94 266 -112 C 291 -130 324 -139 364 -139 C 391 -139 415 -135 435 -128 C 455 -120 471 -111 485 -99 C 498 -87 508 -73 514 -57 C 520 -41 524 -24 524 -6 C 524 32 511 60 486 79 C 460 97 427 107 385 107 C 332 107 292 94 266 70 C 240 45 227 13 227 -26 Z" unicode="" />
<glyph horiz-adv-x="844" d="M 212 -309 C 174 -309 140 -306 112 -302 C 84 -298 62 -294 46 -290 L 46 -112 C 66 -117 91 -122 120 -126 C 149 -130 180 -133 214 -133 C 246 -133 275 -130 303 -124 C 330 -118 356 -107 380 -92 C 408 -74 431 -51 451 -23 C 470 5 486 41 500 83 C 484 69 467 57 450 49 C 432 41 415 34 398 30 C 381 25 365 22 349 21 C 333 19 320 19 308 19 C 266 19 229 24 195 35 C 161 46 131 62 107 84 C 82 106 63 133 49 165 C 35 197 29 235 29 279 C 29 326 37 371 54 414 C 70 456 95 494 128 526 C 161 558 202 583 251 602 C 299 621 356 631 420 631 C 467 631 510 624 550 612 C 590 599 624 579 653 552 C 682 524 705 489 721 446 C 737 402 746 350 746 289 C 746 246 741 201 733 153 C 724 105 710 57 690 10 C 670 -36 645 -81 614 -123 C 582 -165 544 -201 498 -231 C 460 -256 417 -275 371 -289 C 324 -302 271 -309 212 -309 Z M 388 177 C 409 177 431 180 453 186 C 475 192 495 203 513 218 C 521 231 527 246 532 264 C 536 282 539 300 539 320 C 539 363 527 397 503 422 C 479 446 446 459 404 459 C 379 459 357 454 338 446 C 318 438 302 427 288 413 C 274 399 264 382 257 363 C 249 344 246 324 246 304 C 246 264 258 232 284 210 C 309 188 344 177 388 177 Z" unicode="" />
<glyph horiz-adv-x="1276" d="M 131 967 L 297 967 C 321 1033 351 1097 388 1159 C 425 1220 470 1274 522 1321 C 574 1368 633 1405 701 1433 C 768 1461 844 1475 930 1475 C 1075 1475 1211 1440 1337 1372 L 1227 1130 C 1207 1140 1185 1151 1161 1162 C 1137 1172 1112 1182 1086 1191 C 1060 1199 1034 1206 1007 1211 C 980 1216 954 1219 928 1219 C 889 1219 854 1212 823 1199 C 791 1185 763 1167 738 1145 C 712 1122 690 1095 670 1065 C 650 1034 632 1001 618 967 L 1071 967 L 1040 801 L 569 801 C 563 775 559 750 555 725 C 551 700 549 676 547 653 L 1010 653 L 977 487 L 545 487 C 547 445 554 409 565 377 C 576 345 593 318 615 296 C 637 274 664 257 698 246 C 732 234 773 229 823 229 C 843 229 864 230 886 232 C 908 234 931 236 953 240 C 975 243 996 247 1017 251 C 1037 255 1056 259 1073 264 L 1073 8 C 1056 2 1036 -2 1013 -6 C 989 -10 965 -14 939 -17 C 913 -20 886 -22 859 -24 C 832 -26 806 -27 782 -27 C 606 -27 471 17 377 105 C 283 193 232 320 223 487 L 37 487 L 70 653 L 227 653 C 229 676 232 700 236 725 C 240 750 244 775 250 801 L 100 801 L 131 967 Z" unicode="" />
<glyph horiz-adv-x="1229" d="M 258 236 C 258 253 259 270 261 287 C 263 304 266 323 270 344 C 247 332 224 321 202 310 C 180 298 157 286 135 274 L 186 545 C 209 556 232 567 255 577 C 278 587 300 598 322 610 L 424 1133 C 436 1199 455 1255 479 1300 C 503 1344 531 1380 564 1407 C 596 1434 632 1453 672 1464 C 712 1475 754 1481 799 1481 C 843 1481 885 1475 925 1465 C 965 1454 1000 1437 1030 1413 C 1060 1389 1085 1357 1103 1317 C 1121 1277 1130 1229 1130 1171 C 1130 1103 1117 1041 1092 983 C 1067 925 1031 870 984 818 C 937 766 880 715 813 666 C 746 617 670 568 586 518 L 582 492 C 572 446 565 408 560 380 C 555 351 553 328 553 311 C 553 291 556 275 562 263 C 568 251 576 241 587 235 C 598 228 611 224 627 222 C 643 220 660 219 680 219 C 726 219 770 223 812 231 C 854 239 890 248 920 258 L 877 35 C 841 16 800 1 752 -10 C 704 -21 650 -27 592 -27 C 556 -27 518 -23 479 -17 C 440 -11 404 1 371 20 C 338 39 311 66 290 100 C 268 134 258 180 258 236 Z M 639 786 C 683 815 721 844 753 872 C 785 900 811 930 831 960 C 851 990 866 1021 876 1053 C 886 1085 891 1120 891 1157 C 891 1173 890 1187 888 1200 C 886 1213 882 1224 876 1234 C 870 1244 861 1251 851 1256 C 841 1261 827 1264 811 1264 C 799 1264 787 1262 777 1258 C 767 1254 757 1247 749 1237 C 740 1227 732 1214 725 1197 C 717 1180 711 1159 707 1133 L 639 786 Z" unicode="" />
<glyph horiz-adv-x="1378" d="M 686 1446 L 668 1346 L 512 1346 L 414 840 L 291 840 L 389 1346 L 238 1346 L 256 1446 L 686 1446 Z M 975 1446 L 1030 1053 L 1040 1053 L 1251 1446 L 1425 1446 L 1307 840 L 1192 840 L 1274 1268 L 1288 1325 L 1280 1325 L 1251 1268 L 1063 926 L 954 926 L 899 1268 L 895 1325 L 887 1325 L 877 1268 L 795 840 L 678 840 L 797 1446 L 975 1446 Z" unicode="" />
<glyph horiz-adv-x="1583" d="M 55 256 L 225 256 L 326 248 L 328 258 C 299 283 272 311 248 342 C 223 373 201 407 183 444 C 165 481 150 522 140 566 C 130 610 125 659 125 711 C 125 776 133 840 149 903 C 165 966 189 1026 220 1083 C 251 1139 289 1192 334 1240 C 379 1288 430 1329 487 1364 C 544 1398 607 1425 675 1445 C 743 1465 815 1475 893 1475 C 952 1475 1009 1469 1065 1457 C 1121 1445 1173 1427 1222 1403 C 1271 1379 1316 1349 1357 1314 C 1397 1278 1432 1237 1462 1190 C 1491 1143 1514 1091 1530 1033 C 1546 975 1554 911 1554 842 C 1554 779 1547 720 1534 666 C 1520 611 1500 560 1472 512 C 1444 464 1409 419 1366 377 C 1323 335 1272 295 1214 258 L 1210 248 L 1303 256 L 1470 256 L 1421 0 L 756 0 L 797 209 C 843 213 885 225 925 245 C 964 264 1000 288 1032 318 C 1064 348 1092 382 1116 420 C 1140 458 1161 499 1178 542 C 1194 585 1207 629 1216 675 C 1224 721 1229 766 1229 811 C 1229 861 1223 909 1211 957 C 1199 1004 1180 1046 1154 1083 C 1127 1120 1092 1150 1049 1172 C 1005 1194 952 1206 889 1206 C 835 1206 787 1197 743 1181 C 699 1165 660 1142 626 1114 C 592 1086 562 1053 537 1015 C 512 977 491 937 475 894 C 458 851 446 807 438 761 C 430 715 426 671 426 627 C 426 575 431 526 442 480 C 452 434 468 392 490 356 C 511 319 537 288 569 262 C 601 236 638 219 680 209 L 641 0 L 8 0 L 55 256 Z" unicode="" />
<glyph horiz-adv-x="1733" d="M 469 723 C 469 717 470 714 473 713 C 475 711 479 711 483 711 L 1298 711 C 1299 711 1302 711 1308 713 C 1314 714 1317 717 1317 723 L 1317 928 C 1317 934 1316 940 1314 947 C 1312 954 1309 962 1303 971 C 1259 1035 1203 1084 1133 1119 C 1063 1153 983 1171 895 1171 C 860 1171 822 1166 782 1156 C 741 1146 702 1132 664 1114 C 626 1096 591 1075 559 1051 C 527 1026 502 999 485 971 C 481 963 477 956 474 948 C 470 940 469 934 469 928 L 469 723 Z M 469 340 C 469 328 469 318 471 309 C 472 299 477 291 485 283 C 545 214 610 163 680 131 C 749 98 821 82 895 82 C 979 82 1059 98 1133 130 C 1207 162 1272 213 1329 285 L 1526 285 C 1484 231 1439 184 1390 144 C 1341 104 1289 72 1235 46 C 1181 20 1125 1 1068 -10 C 1010 -22 953 -29 895 -29 C 834 -29 774 -21 714 -7 C 654 6 598 27 544 55 C 490 82 439 115 393 154 C 347 192 307 236 273 285 C 239 333 213 386 194 444 C 174 501 165 562 166 627 C 166 693 175 756 195 814 C 214 872 241 926 275 975 C 309 1023 350 1067 396 1105 C 442 1143 493 1175 547 1201 C 601 1227 657 1247 716 1261 C 775 1275 835 1282 895 1282 C 991 1282 1083 1265 1171 1233 C 1259 1201 1336 1155 1402 1095 C 1468 1035 1521 963 1561 879 C 1600 795 1620 700 1620 596 L 483 596 C 479 596 475 594 473 591 C 470 587 469 584 469 580 L 469 340 Z" unicode="" />
<glyph horiz-adv-x="1864" d="M 426 1446 L 616 1446 L 588 1350 L 432 549 L 211 549 L 344 1225 L 354 1264 L 350 1264 L 199 1200 L 233 1382 L 426 1446 Z M 1434 1446 L 483 0 L 262 0 L 1212 1446 L 1434 1446 Z M 1133 786 C 1146 802 1163 818 1185 834 C 1207 850 1232 864 1261 877 C 1290 890 1322 901 1357 909 C 1392 917 1429 921 1469 921 C 1507 921 1545 916 1582 908 C 1619 899 1652 885 1681 867 C 1710 848 1733 824 1751 796 C 1769 768 1778 734 1778 696 C 1778 648 1764 606 1737 570 C 1710 533 1670 505 1616 487 L 1614 477 C 1650 465 1679 446 1703 418 C 1727 390 1739 351 1739 301 C 1739 261 1731 226 1717 195 C 1702 163 1682 135 1657 111 C 1631 87 1602 66 1568 49 C 1534 32 1499 18 1461 7 C 1423 -3 1385 -11 1345 -17 C 1305 -22 1267 -25 1231 -25 C 1203 -25 1174 -23 1145 -21 C 1116 -19 1090 -15 1068 -10 L 1068 172 C 1080 169 1093 167 1108 165 C 1123 163 1139 161 1155 159 C 1171 157 1187 156 1203 156 C 1219 155 1233 155 1246 155 C 1273 155 1303 157 1335 162 C 1367 167 1396 175 1423 187 C 1450 198 1473 213 1491 233 C 1509 252 1518 276 1518 305 C 1518 319 1515 332 1510 342 C 1504 352 1497 361 1489 367 C 1480 373 1470 378 1458 381 C 1446 383 1434 385 1422 385 C 1408 385 1389 384 1364 382 C 1339 380 1307 376 1268 371 L 1268 536 L 1393 545 C 1409 545 1427 548 1446 554 C 1465 560 1483 568 1499 578 C 1515 588 1529 601 1540 616 C 1551 631 1557 649 1557 670 C 1557 696 1546 716 1526 729 C 1505 742 1478 749 1444 749 C 1415 749 1386 743 1356 731 C 1326 719 1294 701 1258 676 L 1133 786 L 1133 786 Z" unicode="" />
<glyph horiz-adv-x="2195" d="M 479 954 C 509 975 538 996 566 1016 C 594 1036 620 1057 642 1077 C 664 1097 681 1116 695 1136 C 708 1156 715 1176 715 1198 C 715 1208 712 1219 708 1230 C 704 1240 697 1250 689 1259 C 680 1267 669 1274 656 1280 C 642 1285 626 1288 608 1288 C 580 1288 551 1279 523 1263 C 495 1246 464 1215 430 1171 L 266 1251 C 282 1277 302 1302 324 1328 C 346 1354 373 1377 404 1397 C 434 1417 469 1434 509 1447 C 549 1459 594 1466 645 1466 C 685 1466 723 1461 759 1452 C 795 1443 827 1429 855 1409 C 883 1389 905 1364 921 1333 C 937 1302 946 1265 946 1221 C 946 1191 942 1163 934 1137 C 926 1111 913 1087 896 1063 C 878 1039 856 1015 830 992 C 803 968 771 944 735 920 L 453 729 L 848 729 L 813 549 L 121 549 L 158 725 L 479 954 Z M 1766 1446 L 815 0 L 594 0 L 1544 1446 L 1766 1446 Z M 1465 785 C 1478 801 1495 817 1517 833 C 1539 849 1564 863 1593 876 C 1622 889 1654 900 1689 908 C 1724 916 1761 920 1801 920 C 1839 920 1877 915 1914 907 C 1951 898 1984 884 2013 866 C 2042 847 2065 823 2083 795 C 2101 767 2110 733 2110 695 C 2110 647 2096 605 2069 569 C 2042 532 2002 504 1948 486 L 1946 476 C 1982 464 2011 445 2035 417 C 2059 389 2071 350 2071 300 C 2071 260 2063 225 2049 194 C 2034 162 2014 134 1989 110 C 1963 86 1934 65 1900 48 C 1866 31 1831 17 1793 6 C 1755 -4 1717 -12 1677 -18 C 1637 -23 1599 -26 1563 -26 C 1535 -26 1506 -24 1477 -22 C 1448 -20 1422 -16 1400 -11 L 1400 171 C 1412 168 1425 166 1440 164 C 1455 162 1471 160 1487 158 C 1503 156 1519 155 1535 155 C 1551 154 1565 154 1578 154 C 1605 154 1635 156 1667 161 C 1699 166 1728 174 1755 186 C 1782 197 1805 212 1823 232 C 1841 251 1850 275 1850 304 C 1850 318 1847 331 1842 341 C 1836 351 1829 360 1821 366 C 1812 372 1802 377 1790 380 C 1778 382 1766 384 1754 384 C 1740 384 1721 383 1696 381 C 1671 379 1639 375 1600 370 L 1600 535 L 1725 544 C 1741 544 1759 547 1778 553 C 1797 559 1815 567 1831 577 C 1847 587 1861 600 1872 615 C 1883 630 1889 648 1889 669 C 1889 695 1878 715 1858 728 C 1837 741 1810 748 1776 748 C 1747 748 1718 742 1688 730 C 1658 718 1626 700 1590 675 L 1465 785 L 1465 785 Z" unicode="" />
<glyph horiz-adv-x="1917" d="M 426 1446 L 616 1446 L 588 1350 L 432 549 L 211 549 L 344 1225 L 354 1264 L 350 1264 L 199 1200 L 233 1382 L 426 1446 Z M 1434 1446 L 483 0 L 262 0 L 1212 1446 L 1434 1446 Z M 1258 505 C 1231 518 1210 539 1195 567 C 1179 595 1172 627 1172 664 C 1172 704 1180 739 1198 771 C 1216 802 1240 828 1270 850 C 1300 871 1336 887 1377 899 C 1418 910 1462 916 1510 916 C 1548 916 1588 912 1628 904 C 1668 896 1705 883 1738 865 C 1771 847 1798 823 1819 794 C 1839 765 1850 730 1850 689 C 1850 665 1846 642 1839 619 C 1831 595 1821 574 1807 554 C 1793 534 1777 516 1757 501 C 1737 485 1715 474 1690 468 L 1686 456 C 1700 449 1714 440 1727 430 C 1740 420 1751 407 1761 392 C 1771 377 1778 360 1784 340 C 1790 320 1793 298 1793 273 C 1793 227 1784 187 1766 151 C 1748 115 1722 85 1690 60 C 1658 34 1619 15 1574 2 C 1528 -11 1478 -18 1424 -18 C 1382 -18 1339 -13 1297 -5 C 1254 3 1216 18 1182 38 C 1148 58 1120 84 1098 116 C 1076 148 1066 187 1066 234 C 1066 262 1070 291 1079 319 C 1087 347 1100 372 1116 396 C 1132 419 1153 439 1177 457 C 1201 474 1228 486 1258 494 L 1258 505 Z M 1516 761 C 1476 761 1443 751 1417 731 C 1391 711 1379 684 1379 648 C 1379 630 1382 614 1389 602 C 1396 589 1405 579 1417 571 C 1428 563 1441 557 1456 553 C 1470 549 1486 548 1502 548 C 1544 548 1577 559 1601 581 C 1625 603 1637 631 1637 664 C 1637 695 1626 719 1604 736 C 1582 752 1553 761 1516 761 Z M 1285 261 C 1286 221 1299 193 1324 175 C 1349 157 1382 148 1422 148 C 1449 148 1473 151 1493 159 C 1513 166 1529 176 1543 188 C 1556 200 1566 214 1572 230 C 1578 246 1582 263 1582 281 C 1582 319 1569 347 1544 366 C 1518 384 1485 394 1443 394 C 1390 394 1350 381 1324 357 C 1298 332 1285 300 1285 261 Z" unicode="" />
<glyph horiz-adv-x="2169" d="M 219 1333 C 232 1349 249 1365 271 1381 C 293 1397 318 1411 347 1424 C 376 1437 408 1448 443 1456 C 478 1464 515 1468 555 1468 C 593 1468 631 1463 668 1455 C 705 1446 738 1432 767 1414 C 796 1395 819 1371 837 1343 C 855 1315 864 1281 864 1243 C 864 1195 850 1153 823 1117 C 796 1080 756 1052 702 1034 L 700 1024 C 736 1012 765 993 789 965 C 813 937 825 898 825 848 C 825 808 817 773 803 742 C 788 710 768 682 743 658 C 717 634 688 613 654 596 C 620 579 585 565 547 554 C 509 543 471 535 431 530 C 391 524 353 522 317 522 C 289 522 260 523 231 525 C 202 527 176 531 154 537 L 154 719 C 166 716 179 714 194 712 C 209 710 225 708 241 706 C 257 704 273 703 289 703 C 305 702 319 702 332 702 C 359 702 389 704 421 709 C 453 714 482 722 509 734 C 536 745 559 760 577 780 C 595 799 604 823 604 852 C 604 866 601 879 596 889 C 590 899 583 908 575 914 C 566 920 556 925 544 928 C 532 930 520 932 508 932 C 494 932 475 931 450 929 C 425 927 393 923 354 918 L 354 1083 L 479 1092 C 495 1092 513 1095 532 1101 C 551 1107 569 1115 585 1125 C 601 1135 615 1148 626 1163 C 637 1178 643 1196 643 1217 C 643 1243 632 1263 612 1276 C 591 1289 564 1296 530 1296 C 501 1296 472 1290 442 1278 C 412 1266 380 1248 344 1223 L 219 1333 L 219 1333 Z M 1686 1446 L 735 0 L 514 0 L 1464 1446 L 1686 1446 Z M 1510 505 C 1483 518 1462 539 1447 567 C 1431 595 1424 627 1424 664 C 1424 704 1432 739 1450 771 C 1468 802 1492 828 1522 850 C 1552 871 1588 887 1629 899 C 1670 910 1714 916 1762 916 C 1800 916 1840 912 1880 904 C 1920 896 1957 883 1990 865 C 2023 847 2050 823 2071 794 C 2091 765 2102 730 2102 689 C 2102 665 2098 642 2091 619 C 2083 595 2073 574 2059 554 C 2045 534 2029 516 2009 501 C 1989 485 1967 474 1942 468 L 1938 456 C 1952 449 1966 440 1979 430 C 1992 420 2003 407 2013 392 C 2023 377 2030 360 2036 340 C 2042 320 2045 298 2045 273 C 2045 227 2036 187 2018 151 C 2000 115 1974 85 1942 60 C 1910 34 1871 15 1826 2 C 1780 -11 1730 -18 1676 -18 C 1634 -18 1591 -13 1549 -5 C 1506 3 1468 18 1434 38 C 1400 58 1372 84 1350 116 C 1328 148 1318 187 1318 234 C 1318 262 1322 291 1331 319 C 1339 347 1352 372 1368 396 C 1384 419 1405 439 1429 457 C 1453 474 1480 486 1510 494 L 1510 505 Z M 1768 761 C 1728 761 1695 751 1669 731 C 1643 711 1631 684 1631 648 C 1631 630 1634 614 1641 602 C 1648 589 1657 579 1669 571 C 1680 563 1693 557 1708 553 C 1722 549 1738 548 1754 548 C 1796 548 1829 559 1853 581 C 1877 603 1889 631 1889 664 C 1889 695 1878 719 1856 736 C 1834 752 1805 761 1768 761 Z M 1537 261 C 1538 221 1551 193 1576 175 C 1601 157 1634 148 1674 148 C 1701 148 1725 151 1745 159 C 1765 166 1781 176 1795 188 C 1808 200 1818 214 1824 230 C 1830 246 1834 263 1834 281 C 1834 319 1821 347 1796 366 C 1770 384 1737 394 1695 394 C 1642 394 1602 381 1576 357 C 1550 332 1537 300 1537 261 Z" unicode="" />
<glyph horiz-adv-x="2169" d="M 160 717 C 188 713 218 709 249 705 C 279 701 309 700 338 700 C 373 700 409 703 445 709 C 481 715 513 725 542 739 C 571 753 595 772 613 796 C 631 819 641 848 641 883 C 641 903 637 921 630 935 C 623 949 613 960 601 968 C 589 976 574 982 558 986 C 542 989 524 991 506 991 C 468 991 435 985 407 974 C 379 962 351 946 322 926 L 207 985 L 334 1446 L 903 1446 L 866 1268 L 467 1268 L 420 1108 C 446 1123 473 1134 501 1141 C 528 1147 556 1151 586 1151 C 620 1151 652 1146 684 1137 C 716 1128 744 1114 768 1094 C 792 1074 812 1047 827 1015 C 842 982 850 942 850 895 C 850 833 836 778 810 732 C 783 685 746 646 698 615 C 650 584 594 561 528 545 C 462 529 391 522 313 522 C 305 522 294 522 282 523 C 269 523 256 524 242 525 C 228 526 213 527 199 529 C 185 531 172 533 160 535 L 160 717 Z M 1686 1446 L 735 0 L 514 0 L 1464 1446 L 1686 1446 Z M 1510 505 C 1483 518 1462 539 1447 567 C 1431 595 1424 627 1424 664 C 1424 704 1432 739 1450 771 C 1468 802 1492 828 1522 850 C 1552 871 1588 887 1629 899 C 1670 910 1714 916 1762 916 C 1800 916 1840 912 1880 904 C 1920 896 1957 883 1990 865 C 2023 847 2050 823 2071 794 C 2091 765 2102 730 2102 689 C 2102 665 2098 642 2091 619 C 2083 595 2073 574 2059 554 C 2045 534 2029 516 2009 501 C 1989 485 1967 474 1942 468 L 1938 456 C 1952 449 1966 440 1979 430 C 1992 420 2003 407 2013 392 C 2023 377 2030 360 2036 340 C 2042 320 2045 298 2045 273 C 2045 227 2036 187 2018 151 C 2000 115 1974 85 1942 60 C 1910 34 1871 15 1826 2 C 1780 -11 1730 -18 1676 -18 C 1634 -18 1591 -13 1549 -5 C 1506 3 1468 18 1434 38 C 1400 58 1372 84 1350 116 C 1328 148 1318 187 1318 234 C 1318 262 1322 291 1331 319 C 1339 347 1352 372 1368 396 C 1384 419 1405 439 1429 457 C 1453 474 1480 486 1510 494 L 1510 505 Z M 1768 761 C 1728 761 1695 751 1669 731 C 1643 711 1631 684 1631 648 C 1631 630 1634 614 1641 602 C 1648 589 1657 579 1669 571 C 1680 563 1693 557 1708 553 C 1722 549 1738 548 1754 548 C 1796 548 1829 559 1853 581 C 1877 603 1889 631 1889 664 C 1889 695 1878 719 1856 736 C 1834 752 1805 761 1768 761 Z M 1537 261 C 1538 221 1551 193 1576 175 C 1601 157 1634 148 1674 148 C 1701 148 1725 151 1745 159 C 1765 166 1781 176 1795 188 C 1808 200 1818 214 1824 230 C 1830 246 1834 263 1834 281 C 1834 319 1821 347 1796 366 C 1770 384 1737 394 1695 394 C 1642 394 1602 381 1576 357 C 1550 332 1537 300 1537 261 Z" unicode="" />
<glyph horiz-adv-x="2030" d="M 928 1446 L 899 1300 C 853 1262 809 1220 766 1175 C 722 1129 681 1077 641 1018 C 601 959 562 891 526 815 C 489 739 454 650 422 549 L 186 549 C 210 627 238 699 272 765 C 305 831 341 894 380 952 C 419 1010 460 1065 503 1117 C 546 1169 590 1219 635 1268 L 240 1268 L 274 1446 L 928 1446 Z M 1547 1446 L 596 0 L 375 0 L 1325 1446 L 1547 1446 Z M 1371 505 C 1344 518 1323 539 1308 567 C 1292 595 1285 627 1285 664 C 1285 704 1293 739 1311 771 C 1329 802 1353 828 1383 850 C 1413 871 1449 887 1490 899 C 1531 910 1575 916 1623 916 C 1661 916 1701 912 1741 904 C 1781 896 1818 883 1851 865 C 1884 847 1911 823 1932 794 C 1952 765 1963 730 1963 689 C 1963 665 1959 642 1952 619 C 1944 595 1934 574 1920 554 C 1906 534 1890 516 1870 501 C 1850 485 1828 474 1803 468 L 1799 456 C 1813 449 1827 440 1840 430 C 1853 420 1864 407 1874 392 C 1884 377 1891 360 1897 340 C 1903 320 1906 298 1906 273 C 1906 227 1897 187 1879 151 C 1861 115 1835 85 1803 60 C 1771 34 1732 15 1687 2 C 1641 -11 1591 -18 1537 -18 C 1495 -18 1452 -13 1410 -5 C 1367 3 1329 18 1295 38 C 1261 58 1233 84 1211 116 C 1189 148 1179 187 1179 234 C 1179 262 1183 291 1192 319 C 1200 347 1213 372 1229 396 C 1245 419 1266 439 1290 457 C 1314 474 1341 486 1371 494 L 1371 505 Z M 1629 761 C 1589 761 1556 751 1530 731 C 1504 711 1492 684 1492 648 C 1492 630 1495 614 1502 602 C 1509 589 1518 579 1530 571 C 1541 563 1554 557 1569 553 C 1583 549 1599 548 1615 548 C 1657 548 1690 559 1714 581 C 1738 603 1750 631 1750 664 C 1750 695 1739 719 1717 736 C 1695 752 1666 761 1629 761 Z M 1398 261 C 1399 221 1412 193 1437 175 C 1462 157 1495 148 1535 148 C 1562 148 1586 151 1606 159 C 1626 166 1642 176 1656 188 C 1669 200 1679 214 1685 230 C 1691 246 1695 263 1695 281 C 1695 319 1682 347 1657 366 C 1631 384 1598 394 1556 394 C 1503 394 1463 381 1437 357 C 1411 332 1398 300 1398 261 Z" unicode="" />
<glyph horiz-adv-x="1249" d="M 569 1462 C 681 1457 778 1441 858 1413 C 938 1385 1004 1346 1056 1294 C 1108 1242 1146 1179 1170 1104 C 1194 1029 1206 942 1206 844 C 1206 784 1203 722 1197 656 C 1191 590 1179 524 1163 459 C 1146 394 1123 332 1095 273 C 1066 214 1029 162 984 117 C 938 71 884 35 820 9 C 756 -17 680 -31 594 -31 C 526 -31 462 -22 404 -5 C 345 11 294 37 251 73 C 208 108 174 153 150 208 C 125 262 113 327 113 403 C 113 447 117 492 126 537 C 134 581 147 624 165 665 C 183 706 205 744 232 780 C 259 816 291 847 328 873 C 364 899 406 920 453 935 C 500 950 552 958 610 958 C 662 958 715 950 771 935 C 826 919 878 895 926 862 C 922 921 909 971 888 1013 C 867 1054 839 1088 804 1114 C 769 1140 727 1160 679 1173 C 631 1185 577 1193 518 1196 L 569 1462 Z M 604 221 C 649 221 688 230 720 248 C 752 266 779 290 799 319 C 819 348 834 380 844 416 C 853 451 858 486 858 520 C 858 550 853 577 843 601 C 833 624 820 643 802 659 C 784 675 762 687 737 695 C 711 703 683 707 653 707 C 607 707 569 698 539 681 C 508 663 483 641 465 614 C 446 586 433 555 425 521 C 417 486 414 452 414 418 C 414 389 417 363 425 339 C 433 315 444 294 460 276 C 475 258 495 245 519 235 C 543 225 571 221 604 221 Z" unicode="" />
<glyph horiz-adv-x="1604" d="M 1155 1446 L 1440 199 L 1401 0 L 23 0 L 59 195 L 829 1446 L 1155 1446 Z M 842 950 L 418 250 L 1118 250 L 973 950 L 948 1120 L 932 1120 L 842 950 Z" unicode="" />
<glyph horiz-adv-x="1683" d="M 1800 1446 L 1749 1186 L 1565 1186 L 1288 -236 L 983 -236 L 1260 1186 L 698 1186 L 422 -236 L 117 -236 L 393 1186 L 209 1186 L 260 1446 L 1800 1446 Z" unicode="" />
<glyph horiz-adv-x="1602" d="M 1647 1446 L 1593 1178 L 825 1178 L 684 1186 L 680 1165 L 805 1075 L 1268 668 L 1237 506 L 676 131 L 510 49 L 506 29 L 657 35 L 1372 35 L 1321 -236 L 10 -236 L 66 57 L 819 555 L 899 600 L 903 621 L 842 670 L 281 1157 L 336 1446 L 1647 1446 Z" unicode="" />
<glyph horiz-adv-x="1249" d="M 1241 743 L 1241 479 L 8 479 L 8 743 L 1241 743 Z" unicode="" />
<glyph horiz-adv-x="453" d="M 879 1446 L -72 0 L -293 0 L 657 1446 L 879 1446 Z" unicode="" />
<glyph horiz-adv-x="594" d="M 485 745 L 485 381 L 109 381 L 109 745 L 485 745 Z" unicode="" />
<glyph horiz-adv-x="1526" d="M 653 1153 L 764 500 L 1483 1880 L 1800 1880 L 762 0 L 551 0 L 379 897 L 125 897 L 174 1153 L 653 1153 Z" unicode="" />
<glyph horiz-adv-x="2111" d="M 614 1077 C 640 1077 665 1073 690 1067 C 714 1061 740 1051 766 1037 C 792 1023 820 1004 850 981 C 879 958 911 930 946 897 L 1057 795 L 1165 897 C 1199 930 1231 958 1261 981 C 1291 1004 1319 1023 1346 1037 C 1372 1051 1398 1061 1422 1067 C 1446 1073 1471 1077 1497 1077 L 1599 1077 C 1657 1077 1711 1066 1759 1045 C 1807 1023 1848 995 1882 959 C 1916 923 1943 881 1962 833 C 1981 785 1991 736 1991 684 L 1991 547 C 1991 495 1981 445 1962 398 C 1943 350 1916 309 1882 273 C 1848 237 1807 208 1759 187 C 1711 166 1657 156 1599 156 L 1497 156 C 1471 156 1446 159 1422 165 C 1398 171 1372 182 1346 196 C 1319 210 1291 228 1261 251 C 1231 273 1199 301 1165 334 L 1057 438 L 946 334 C 911 301 879 273 850 251 C 820 228 792 210 766 196 C 740 182 714 171 690 165 C 665 159 640 156 614 156 L 512 156 C 454 156 401 166 353 187 C 305 208 263 237 229 273 C 195 309 168 350 149 398 C 130 445 121 495 121 547 L 121 684 C 121 736 130 785 149 833 C 168 881 195 923 229 959 C 263 995 305 1023 353 1045 C 401 1066 454 1077 512 1077 L 614 1077 Z M 1247 618 L 1358 508 C 1388 474 1416 451 1441 439 C 1466 426 1490 420 1513 420 L 1571 420 C 1591 420 1609 423 1627 431 C 1645 439 1660 449 1673 463 C 1686 476 1696 491 1704 508 C 1712 525 1716 543 1716 563 L 1716 670 C 1716 688 1712 705 1704 722 C 1696 739 1686 754 1673 767 C 1660 780 1645 791 1627 799 C 1609 807 1591 811 1571 811 L 1513 811 C 1490 811 1466 804 1441 792 C 1416 779 1388 757 1358 725 L 1247 618 Z M 395 563 C 395 543 398 525 406 508 C 414 491 424 476 438 463 C 451 449 467 439 485 431 C 503 423 522 420 543 420 L 596 420 C 608 420 620 421 632 424 C 644 427 656 432 669 439 C 682 446 696 455 710 466 C 724 477 739 491 756 508 L 864 614 L 756 725 C 722 756 693 778 669 791 C 645 804 620 811 596 811 L 543 811 C 522 811 503 807 485 799 C 467 791 451 780 438 767 C 424 754 414 739 406 722 C 398 705 395 688 395 670 L 395 563 Z" unicode="" />
<glyph horiz-adv-x="938" d="M 1065 1597 L 1016 1354 L 901 1354 C 871 1354 845 1344 825 1325 C 804 1305 791 1282 786 1255 L 537 -29 C 527 -81 510 -129 488 -173 C 466 -217 437 -255 401 -287 C 365 -319 323 -344 273 -362 C 223 -380 166 -389 102 -389 L -74 -389 L -27 -147 L 88 -147 C 103 -147 117 -144 130 -139 C 143 -133 155 -126 165 -117 C 175 -108 183 -98 190 -86 C 196 -74 201 -61 205 -49 L 453 1235 C 463 1287 479 1335 501 1379 C 523 1423 551 1461 587 1493 C 623 1525 665 1551 715 1569 C 765 1587 822 1597 887 1597 L 1065 1597 Z" unicode="" />
<glyph horiz-adv-x="1249" d="M 61 944 C 84 965 109 984 136 1002 C 163 1019 191 1034 220 1046 C 248 1058 277 1068 305 1075 C 333 1081 361 1085 387 1085 C 427 1085 462 1081 491 1074 C 520 1067 546 1058 570 1048 C 593 1038 615 1026 635 1014 C 655 1002 676 990 700 980 C 723 970 749 961 778 954 C 807 947 842 944 883 944 C 935 944 987 956 1040 981 C 1093 1006 1142 1041 1188 1085 L 1188 813 C 1165 793 1140 775 1114 759 C 1087 743 1059 729 1031 717 C 1003 705 974 696 946 690 C 917 683 890 680 864 680 C 823 680 788 683 759 690 C 730 696 704 704 681 714 C 657 724 635 734 615 746 C 595 758 573 768 550 778 C 526 788 500 796 471 803 C 442 809 407 813 367 813 C 314 813 261 801 209 777 C 157 753 107 721 61 680 L 61 944 Z M 61 406 C 84 428 109 447 136 465 C 163 482 191 497 220 509 C 248 521 277 531 305 537 C 333 543 361 547 387 547 C 427 547 462 543 491 536 C 520 529 546 520 570 510 C 593 500 615 488 635 476 C 655 464 676 452 700 442 C 723 432 749 423 778 416 C 807 409 842 406 883 406 C 935 406 987 418 1040 444 C 1093 469 1142 503 1188 547 L 1188 276 C 1165 256 1140 237 1114 221 C 1087 204 1059 190 1031 179 C 1003 167 974 158 946 152 C 917 146 890 143 864 143 C 823 143 788 146 759 153 C 730 159 704 167 681 177 C 657 187 635 197 615 209 C 595 221 573 231 550 241 C 526 251 500 259 471 266 C 442 272 407 276 367 276 C 314 276 261 264 209 240 C 157 216 107 184 61 143 L 61 406 Z" unicode="" />
<glyph horiz-adv-x="1249" d="M 508 215 L 371 0 L 90 0 L 229 215 L 61 215 L 61 479 L 399 479 L 571 745 L 61 745 L 61 1008 L 741 1008 L 881 1223 L 1159 1223 L 1020 1008 L 1188 1008 L 1188 745 L 850 745 L 678 479 L 1188 479 L 1188 215 L 508 215 Z" unicode="" />
<glyph horiz-adv-x="1249" d="M 1188 1356 L 1188 1071 L 561 874 L 461 844 L 461 819 L 561 793 L 1188 604 L 1188 317 L 61 737 L 61 928 L 1188 1356 Z M 1188 262 L 1188 0 L 61 0 L 61 262 L 1188 262 Z" unicode="" />
<glyph horiz-adv-x="1249" d="M 1188 262 L 1188 0 L 61 0 L 61 262 L 1188 262 Z M 1188 928 L 1188 737 L 61 317 L 61 604 L 690 793 L 791 819 L 791 844 L 690 874 L 61 1071 L 61 1356 L 1188 928 Z" unicode="" />
<glyph horiz-adv-x="1296" d="M 899 1413 L 1262 795 L 1227 618 L 625 0 L 487 0 L 125 618 L 160 795 L 762 1413 L 899 1413 Z M 399 696 L 393 668 L 590 336 L 612 336 L 983 719 L 989 748 L 799 1079 L 774 1079 L 399 696 Z" unicode="" />
<glyph horiz-adv-x="1350" d="M 254 856 L 84 856 L 127 1077 L 295 1077 L 334 1272 C 350 1357 386 1423 442 1469 C 497 1515 569 1538 659 1538 C 678 1538 698 1537 720 1535 C 742 1533 763 1530 784 1526 C 804 1522 823 1517 841 1512 C 858 1506 872 1501 883 1495 L 821 1288 C 804 1294 786 1300 767 1306 C 747 1312 728 1315 709 1315 C 679 1315 656 1307 640 1291 C 624 1275 613 1249 606 1214 L 580 1077 L 956 1077 L 995 1272 C 1011 1357 1047 1423 1103 1469 C 1159 1515 1232 1538 1323 1538 C 1341 1538 1361 1537 1383 1535 C 1405 1533 1426 1530 1446 1526 C 1466 1522 1484 1517 1502 1512 C 1519 1506 1533 1501 1544 1495 L 1483 1288 C 1466 1294 1448 1300 1428 1306 C 1408 1312 1389 1315 1370 1315 C 1340 1315 1317 1307 1302 1291 C 1286 1275 1275 1249 1268 1214 L 1241 1077 L 1460 1077 L 1417 856 L 1210 856 L 1044 0 L 752 0 L 915 856 L 549 856 L 383 0 L 90 0 L 254 856 Z" unicode="" />
</font>
</defs>
</svg>
