<?xml version="1.0" encoding="utf-8" ?><svg version="1.1" xmlns = 'http://www.w3.org/2000/svg'><defs><font id='web' horiz-adv-x="1000">
<font-face font-family="web" descent="-467" cap-height="1446" units-per-em="2048" bbox="-295,-467,2697,2009" x-height="1053" ascent="1581" />
<missing-glyph horiz-adv-x="1024" d="M 1024 1446 L 1024 0 L 0 0 L 0 1446 L 1024 1446 Z M 229 219 L 793 219 L 793 1227 L 229 1227 L 229 219 Z" /><glyph horiz-adv-x="469" d="" unicode=" " />
<glyph horiz-adv-x="676" d="M 530 1446 L 530 1163 L 471 506 L 268 506 L 203 1163 L 203 1446 L 530 1446 Z M 535 330 L 535 0 L 205 0 L 205 330 L 535 330 Z" unicode="!" />
<glyph horiz-adv-x="887" d="M 115 1225 L 135 1446 L 422 1446 L 385 1210 L 303 836 L 106 836 L 115 1225 Z M 520 1225 L 541 1446 L 827 1446 L 791 1210 L 709 836 L 512 836 L 520 1225 Z" unicode="&#x22;" />
<glyph horiz-adv-x="1620" d="M 365 285 L 115 285 L 115 541 L 412 541 L 485 942 L 215 942 L 215 1198 L 532 1198 L 584 1479 L 776 1479 L 725 1198 L 1075 1198 L 1126 1479 L 1319 1479 L 1268 1198 L 1511 1198 L 1511 942 L 1223 942 L 1151 541 L 1415 541 L 1415 285 L 1104 285 L 1049 -33 L 850 -33 L 907 285 L 561 285 L 506 -33 L 307 -33 L 365 285 Z M 608 541 L 954 541 L 1028 942 L 680 942 L 608 541 Z" unicode="#" />
<glyph horiz-adv-x="1276" d="M 1034 1051 C 1006 1062 977 1072 947 1082 C 917 1091 886 1099 855 1105 C 823 1111 792 1116 761 1120 C 730 1124 700 1126 672 1126 C 643 1126 616 1123 590 1119 C 564 1115 541 1108 521 1098 C 501 1088 486 1075 474 1059 C 462 1043 457 1023 457 999 C 457 974 463 954 476 939 C 488 923 506 910 529 899 C 552 888 579 879 611 871 C 643 863 677 854 715 844 C 769 830 823 813 875 794 C 927 775 973 751 1013 721 C 1053 691 1086 655 1110 613 C 1134 571 1147 519 1147 459 C 1147 357 1113 273 1046 206 C 978 139 882 94 758 72 L 758 -203 L 522 -203 L 522 57 C 490 58 457 61 424 65 C 391 69 359 74 327 80 C 295 86 264 94 234 103 C 204 112 176 123 150 135 L 193 383 C 222 368 253 355 287 344 C 321 332 355 323 390 316 C 424 308 459 303 493 299 C 527 295 560 293 592 293 C 624 293 656 295 686 300 C 716 305 743 313 767 324 C 790 334 809 348 823 366 C 837 383 844 404 844 430 C 844 456 835 478 819 496 C 802 514 780 529 753 541 C 726 553 696 564 662 573 C 628 581 593 590 559 598 C 517 608 473 620 427 636 C 380 652 337 674 297 703 C 257 731 223 768 197 813 C 171 857 158 913 158 981 C 158 1034 166 1081 184 1123 C 201 1165 225 1201 257 1231 C 289 1261 327 1286 372 1306 C 416 1325 466 1339 522 1348 L 522 1565 L 758 1565 L 758 1356 C 818 1352 873 1344 925 1332 C 977 1320 1025 1306 1071 1292 L 1034 1051 Z" unicode="$" />
<glyph horiz-adv-x="1944" d="M 1497 1446 L 676 0 L 449 0 L 1270 1446 L 1497 1446 Z M 451 1477 C 515 1477 571 1466 618 1444 C 664 1422 703 1393 733 1355 C 763 1317 785 1273 799 1222 C 813 1170 821 1115 821 1055 C 821 996 814 940 801 888 C 787 836 766 790 736 750 C 706 710 668 679 621 656 C 574 632 517 621 451 621 C 383 621 326 632 280 656 C 233 679 195 710 166 750 C 137 790 116 836 103 888 C 90 940 84 995 84 1053 C 84 1114 90 1170 104 1222 C 118 1274 139 1318 169 1356 C 199 1394 237 1423 283 1445 C 329 1466 385 1477 451 1477 Z M 451 1296 C 415 1296 387 1289 365 1277 C 343 1264 325 1247 313 1225 C 301 1203 292 1178 288 1149 C 283 1119 281 1088 281 1055 C 281 1029 282 1001 286 971 C 289 941 297 914 309 889 C 321 863 338 842 360 826 C 382 809 413 801 451 801 C 487 801 516 808 539 823 C 561 837 579 857 591 881 C 603 905 612 932 616 962 C 620 992 623 1022 623 1053 C 623 1082 620 1111 616 1140 C 612 1169 603 1195 591 1218 C 579 1241 561 1260 539 1274 C 516 1288 487 1296 451 1296 Z M 1491 825 C 1555 825 1611 814 1658 792 C 1705 770 1744 741 1774 703 C 1804 665 1826 620 1840 569 C 1854 517 1862 462 1862 403 C 1862 345 1855 289 1841 237 C 1827 184 1806 138 1777 98 C 1747 58 1709 27 1662 4 C 1614 -19 1557 -31 1491 -31 C 1423 -31 1366 -19 1320 4 C 1274 27 1236 58 1207 98 C 1177 137 1156 183 1143 235 C 1130 287 1124 341 1124 399 C 1124 460 1131 517 1145 569 C 1159 621 1180 666 1210 704 C 1239 742 1277 771 1323 793 C 1369 814 1425 825 1491 825 Z M 1493 643 C 1457 643 1428 636 1406 624 C 1384 612 1366 595 1354 573 C 1341 551 1332 526 1328 497 C 1323 467 1321 436 1321 403 C 1321 377 1322 349 1326 319 C 1329 289 1337 261 1349 236 C 1361 210 1378 189 1401 172 C 1423 155 1454 147 1493 147 C 1529 147 1558 154 1580 169 C 1602 184 1619 204 1631 228 C 1643 252 1652 279 1656 309 C 1660 339 1663 370 1663 401 C 1663 430 1660 459 1656 488 C 1652 516 1643 542 1631 565 C 1619 588 1602 607 1580 621 C 1558 635 1529 643 1493 643 Z" unicode="%" />
<glyph horiz-adv-x="1542" d="M 1430 -27 C 1383 -25 1340 -18 1302 -8 C 1264 2 1228 16 1195 34 C 1161 51 1130 71 1100 93 C 1070 115 1041 138 1012 162 C 986 134 956 108 924 84 C 892 60 856 40 817 24 C 778 7 736 -5 690 -15 C 644 -24 594 -29 541 -29 C 461 -29 391 -18 330 2 C 268 22 217 51 175 88 C 133 125 101 170 79 222 C 57 274 47 331 47 395 C 47 448 54 496 70 540 C 86 584 108 623 136 658 C 164 693 198 724 238 750 C 277 776 321 799 369 817 C 347 833 327 852 308 874 C 289 896 273 919 259 945 C 245 970 233 997 225 1026 C 217 1055 213 1086 213 1118 C 213 1168 223 1215 243 1259 C 263 1303 292 1341 330 1374 C 368 1407 414 1433 470 1452 C 525 1471 588 1481 659 1481 C 727 1481 788 1472 842 1454 C 896 1436 943 1412 981 1380 C 1019 1348 1048 1311 1069 1268 C 1089 1225 1100 1178 1100 1128 C 1100 1082 1092 1042 1076 1007 C 1060 971 1039 940 1013 912 C 986 884 954 859 918 837 C 882 815 843 795 803 778 C 821 760 838 742 854 725 C 870 707 886 689 904 670 C 922 651 941 630 961 608 C 981 586 1005 560 1032 532 C 1063 574 1096 619 1130 668 C 1164 716 1195 763 1223 809 L 1468 711 C 1433 661 1393 605 1349 544 C 1304 483 1256 422 1206 360 C 1246 325 1286 297 1327 277 C 1368 257 1414 242 1464 233 L 1430 -27 Z M 582 221 C 608 221 632 224 656 230 C 680 236 702 245 723 256 C 744 267 764 280 782 295 C 800 309 816 325 831 342 L 532 659 C 475 639 431 609 401 569 C 371 529 356 482 356 428 C 356 394 362 364 375 338 C 387 312 404 290 425 273 C 446 255 470 242 497 234 C 524 225 552 221 582 221 Z M 823 1124 C 823 1144 819 1164 811 1183 C 803 1202 793 1219 779 1233 C 765 1247 747 1259 727 1267 C 707 1275 684 1280 659 1280 C 633 1280 611 1276 592 1268 C 572 1260 556 1249 543 1235 C 529 1221 519 1205 512 1187 C 505 1169 502 1150 502 1130 C 502 1092 514 1056 540 1021 C 565 986 597 951 637 915 C 661 925 685 937 708 951 C 730 965 750 980 767 998 C 784 1015 798 1034 808 1055 C 818 1075 823 1098 823 1124 Z" unicode="&#x26;" />
<glyph horiz-adv-x="477" d="M 115 1225 L 135 1446 L 422 1446 L 385 1210 L 303 836 L 106 836 L 115 1225 Z" unicode="'" />
<glyph horiz-adv-x="786" d="M 121 623 C 121 735 134 841 160 940 C 186 1038 220 1128 261 1208 C 302 1288 347 1357 396 1417 C 445 1476 493 1523 539 1559 L 774 1559 L 774 1507 C 722 1471 674 1422 629 1360 C 583 1298 544 1229 510 1151 C 476 1073 449 988 429 898 C 409 808 399 716 399 623 C 399 517 409 417 429 321 C 449 225 476 137 510 57 C 544 -23 583 -93 629 -154 C 674 -214 722 -263 774 -299 L 774 -350 L 539 -350 C 493 -316 445 -269 396 -211 C 347 -153 302 -83 261 -2 C 220 79 186 172 160 276 C 134 380 121 496 121 623 Z" unicode="(" />
<glyph horiz-adv-x="786" d="M 668 623 C 668 496 654 380 628 276 C 601 172 567 79 526 -2 C 485 -83 440 -153 390 -211 C 340 -269 293 -316 248 -350 L 12 -350 L 12 -299 C 64 -263 112 -214 158 -154 C 203 -93 243 -23 277 57 C 311 137 337 225 357 321 C 377 417 387 517 387 623 C 387 716 377 808 357 898 C 337 988 311 1073 277 1151 C 243 1229 203 1298 158 1360 C 112 1422 64 1471 12 1507 L 12 1559 L 248 1559 C 278 1535 309 1506 342 1472 C 374 1438 406 1398 437 1354 C 468 1310 498 1261 526 1208 C 554 1154 578 1097 599 1035 C 620 973 637 908 649 839 C 661 770 668 698 668 623 Z" unicode=")" />
<glyph horiz-adv-x="887" d="M 244 1243 L 365 1161 L 381 1180 L 338 1309 L 338 1446 L 551 1446 L 551 1309 L 512 1180 L 528 1161 L 641 1241 L 772 1282 L 840 1083 L 709 1038 L 565 1034 L 559 1010 L 670 930 L 756 819 L 580 692 L 500 805 L 455 940 L 430 940 L 383 805 L 305 692 L 131 819 L 213 932 L 328 1018 L 322 1042 L 176 1040 L 49 1085 L 117 1284 L 244 1243 Z" unicode="*" />
<glyph horiz-adv-x="1249" d="M 766 1223 L 766 741 L 1241 741 L 1241 479 L 766 479 L 766 0 L 487 0 L 487 479 L 8 479 L 8 741 L 487 741 L 487 1223 L 766 1223 Z" unicode="+" />
<glyph horiz-adv-x="508" d="M 467 330 L 229 -293 L 29 -293 L 137 330 L 467 330 Z" unicode="," />
<glyph horiz-adv-x="707" d="M 618 748 L 618 479 L 86 479 L 86 748 L 618 748 Z" unicode="-" />
<glyph horiz-adv-x="508" d="M 418 330 L 418 0 L 90 0 L 90 330 L 418 330 Z" unicode="." />
<glyph horiz-adv-x="952" d="M 965 1446 L 182 -236 L -45 -236 L 733 1446 L 965 1446 Z" unicode="/" />
<glyph horiz-adv-x="1300" d="M 649 1475 C 748 1475 833 1455 904 1417 C 974 1378 1032 1325 1077 1258 C 1121 1191 1154 1113 1175 1023 C 1195 933 1206 837 1206 735 C 1206 623 1195 521 1174 428 C 1153 335 1120 255 1075 188 C 1030 121 972 69 902 31 C 832 -6 747 -25 649 -25 C 581 -25 520 -15 466 3 C 412 21 364 48 323 82 C 282 116 247 156 218 203 C 189 249 165 301 147 357 C 128 413 114 473 106 537 C 98 600 94 665 94 733 C 94 845 104 946 126 1037 C 148 1128 181 1206 227 1271 C 272 1336 330 1386 400 1422 C 470 1457 553 1475 649 1475 Z M 651 1206 C 599 1206 556 1193 524 1167 C 492 1141 467 1107 449 1064 C 431 1021 418 971 412 915 C 406 858 403 799 403 737 C 403 703 404 668 406 631 C 408 593 412 556 418 520 C 424 484 432 449 444 415 C 455 381 470 352 488 327 C 506 301 528 281 554 266 C 580 251 612 244 649 244 C 685 244 716 250 742 264 C 768 277 790 295 808 318 C 826 341 841 368 853 400 C 864 431 873 465 879 501 C 885 537 889 575 891 615 C 893 655 895 695 895 735 C 895 771 893 807 891 844 C 889 881 885 917 879 952 C 873 987 864 1020 853 1051 C 841 1081 827 1108 809 1131 C 791 1154 769 1172 743 1186 C 717 1199 686 1206 651 1206 Z" unicode="0" />
<glyph horiz-adv-x="946" d="M 393 0 L 393 1126 L 399 1182 L 391 1182 L 74 1047 L 74 1307 L 451 1446 L 719 1446 L 702 1292 L 702 0 L 393 0 Z" unicode="1" />
<glyph horiz-adv-x="1305" d="M 1188 0 L 139 0 L 139 258 L 575 655 C 614 687 651 719 685 750 C 719 781 749 812 775 842 C 801 872 821 902 836 932 C 850 962 858 992 858 1022 C 858 1046 853 1070 844 1094 C 834 1117 821 1138 803 1156 C 785 1174 764 1189 738 1200 C 712 1211 683 1217 651 1217 C 597 1217 549 1200 505 1167 C 461 1134 420 1082 383 1012 L 129 1120 C 145 1160 168 1202 197 1244 C 226 1286 263 1324 307 1358 C 351 1392 403 1420 464 1442 C 525 1464 596 1475 678 1475 C 746 1475 811 1466 873 1448 C 934 1430 987 1403 1033 1367 C 1079 1331 1115 1286 1142 1233 C 1168 1180 1182 1119 1182 1049 C 1182 1011 1177 975 1168 939 C 1158 903 1143 866 1123 830 C 1102 794 1075 757 1042 720 C 1009 683 969 645 922 606 L 526 254 L 1188 254 L 1188 0 Z" unicode="2" />
<glyph horiz-adv-x="1251" d="M 68 1217 C 86 1247 112 1277 145 1308 C 177 1338 216 1366 261 1391 C 306 1415 357 1435 414 1451 C 470 1467 532 1475 600 1475 C 660 1475 719 1467 778 1453 C 836 1439 889 1417 935 1387 C 981 1357 1018 1318 1047 1272 C 1075 1226 1090 1171 1090 1108 C 1090 1067 1084 1031 1072 999 C 1060 967 1045 938 1025 914 C 1005 890 983 869 959 853 C 934 836 909 823 883 813 L 883 799 C 911 794 941 785 973 772 C 1004 758 1032 739 1058 714 C 1084 689 1105 657 1122 619 C 1138 581 1147 535 1147 481 C 1147 397 1126 323 1084 259 C 1042 195 983 141 906 97 C 829 53 736 20 627 -1 C 518 -23 396 -35 262 -35 C 246 -35 233 -34 222 -34 C 211 -34 201 -33 193 -33 C 185 -32 177 -31 170 -30 C 163 -28 156 -27 150 -25 L 131 240 C 151 240 174 239 200 239 C 226 238 257 238 293 238 C 378 238 454 244 521 256 C 587 268 644 285 690 307 C 736 329 771 356 795 388 C 819 419 831 454 831 494 C 831 520 826 542 816 561 C 806 579 794 594 778 606 C 762 618 743 626 722 632 C 701 638 679 641 657 641 C 647 641 634 640 620 638 C 605 636 587 634 566 631 C 545 627 520 623 492 618 C 464 613 431 607 395 600 L 342 838 L 539 866 C 568 870 597 878 626 888 C 654 898 680 912 702 928 C 724 944 743 964 757 988 C 771 1011 778 1038 778 1069 C 778 1116 761 1154 727 1182 C 693 1210 646 1225 586 1225 C 558 1225 532 1222 508 1216 C 484 1210 461 1200 437 1187 C 413 1174 389 1158 365 1138 C 340 1118 313 1095 285 1067 L 68 1217 L 68 1217 Z" unicode="3" />
<glyph horiz-adv-x="1286" d="M 1006 1446 L 1006 520 L 1223 520 L 1223 283 L 1006 283 L 1006 0 L 694 0 L 694 283 L 53 283 L 53 537 L 670 1446 L 1006 1446 Z M 295 520 L 694 520 L 694 928 L 709 1110 L 698 1112 L 295 520 Z" unicode="4" />
<glyph horiz-adv-x="1290" d="M 332 238 C 428 238 511 244 581 257 C 650 270 707 289 751 313 C 795 337 828 366 849 401 C 870 436 881 476 881 520 C 881 546 877 572 871 597 C 865 622 853 644 836 664 C 819 684 796 699 766 711 C 736 723 699 729 653 729 C 620 729 590 726 562 720 C 534 714 508 705 483 693 C 457 681 432 666 408 648 C 384 630 359 610 334 588 L 156 659 L 213 1446 L 1112 1446 L 1085 1192 L 446 1192 L 422 862 C 471 902 520 929 570 945 C 620 961 667 969 713 969 C 789 969 856 958 914 938 C 972 918 1021 889 1061 851 C 1100 813 1130 766 1150 712 C 1170 657 1180 596 1180 528 C 1180 426 1160 339 1120 268 C 1080 196 1024 138 950 93 C 876 48 786 15 682 -4 C 577 -24 460 -35 330 -35 C 294 -35 266 -34 244 -33 C 222 -31 203 -29 188 -25 L 170 240 C 189 240 212 239 238 239 C 264 238 296 238 332 238 Z" unicode="5" />
<glyph horiz-adv-x="1309" d="M 848 1489 C 866 1489 884 1488 904 1488 C 923 1487 942 1486 960 1484 C 978 1482 996 1479 1013 1476 C 1029 1472 1044 1468 1057 1464 L 1061 1217 C 1045 1219 1028 1221 1009 1223 C 989 1225 970 1226 950 1227 C 930 1228 910 1229 891 1230 C 872 1230 856 1231 842 1231 C 775 1231 716 1223 664 1208 C 612 1193 567 1169 530 1135 C 493 1099 464 1054 443 1000 C 421 945 407 879 401 801 C 425 831 451 855 480 875 C 508 895 538 910 569 922 C 600 934 631 942 662 947 C 692 951 722 954 750 954 C 816 954 878 944 935 924 C 992 904 1041 874 1082 835 C 1123 795 1155 747 1179 689 C 1202 631 1214 564 1214 489 C 1214 407 1200 333 1174 269 C 1148 205 1110 150 1062 106 C 1014 62 956 28 888 4 C 820 -19 746 -31 664 -31 C 581 -31 505 -19 436 4 C 367 27 309 60 262 104 C 236 128 214 155 194 187 C 174 218 158 254 145 296 C 131 337 121 384 114 437 C 107 489 104 549 104 616 C 104 686 108 754 116 820 C 124 886 136 948 154 1007 C 172 1065 194 1120 222 1170 C 249 1220 282 1265 322 1305 C 378 1363 450 1409 536 1441 C 622 1473 726 1489 848 1489 Z M 432 600 C 424 582 419 564 415 545 C 411 525 410 503 410 479 C 410 439 416 402 428 370 C 440 337 458 309 483 287 C 503 265 529 249 560 238 C 591 226 626 221 666 221 C 740 221 799 242 842 284 C 885 326 907 387 907 469 C 907 550 885 612 842 654 C 798 696 737 717 659 717 C 607 717 562 706 523 686 C 483 666 453 637 432 600 Z" unicode="6" />
<glyph horiz-adv-x="1165" d="M 1104 1446 L 1104 1235 C 1066 1195 1029 1154 993 1110 C 957 1066 922 1017 888 964 C 854 911 821 853 789 790 C 757 726 728 655 701 577 C 674 499 650 412 628 317 C 606 221 587 116 571 0 L 238 0 C 254 134 279 257 315 369 C 350 481 391 585 439 682 C 487 778 539 868 595 952 C 651 1036 708 1116 766 1192 L 84 1192 L 84 1446 L 1104 1446 Z" unicode="7" />
<glyph horiz-adv-x="1331" d="M 344 780 C 328 784 309 794 286 808 C 263 822 241 841 219 866 C 197 890 179 921 164 957 C 148 993 141 1037 141 1087 C 141 1139 152 1188 175 1235 C 197 1282 231 1323 276 1359 C 320 1395 375 1423 440 1444 C 505 1464 580 1475 666 1475 C 750 1475 825 1464 891 1444 C 957 1423 1012 1395 1056 1359 C 1100 1323 1134 1282 1157 1235 C 1180 1188 1192 1139 1192 1087 C 1192 1037 1184 993 1168 957 C 1152 921 1134 890 1112 866 C 1090 841 1068 822 1045 808 C 1021 794 1002 784 987 780 L 987 766 C 1005 761 1028 751 1056 736 C 1084 720 1110 699 1135 671 C 1160 643 1182 608 1200 566 C 1218 524 1227 474 1227 416 C 1227 345 1214 282 1188 228 C 1162 173 1124 127 1076 89 C 1027 51 968 23 899 4 C 830 -15 752 -25 666 -25 C 578 -25 499 -15 430 4 C 360 23 302 51 254 89 C 206 127 169 173 144 228 C 118 282 106 345 106 416 C 106 474 114 524 132 566 C 150 608 171 643 196 671 C 221 699 247 720 274 736 C 301 751 324 761 344 766 L 344 780 Z M 442 1057 C 442 1028 446 1002 456 978 C 466 954 480 934 499 917 C 518 900 542 887 570 878 C 598 868 630 864 668 864 C 704 864 736 868 764 878 C 792 887 815 900 834 917 C 852 934 866 954 876 978 C 886 1002 891 1028 891 1057 C 891 1084 886 1109 876 1133 C 866 1156 852 1176 833 1193 C 814 1210 791 1223 763 1233 C 735 1242 702 1247 666 1247 C 630 1247 598 1242 570 1233 C 542 1223 518 1210 499 1193 C 480 1176 466 1156 456 1133 C 446 1109 442 1084 442 1057 Z M 666 213 C 710 213 748 218 780 229 C 812 240 838 256 859 276 C 879 296 895 319 905 347 C 915 374 920 404 920 436 C 920 466 915 495 905 521 C 895 547 880 569 860 588 C 839 607 813 622 781 633 C 749 643 712 649 668 649 C 624 649 587 643 555 633 C 523 622 496 607 475 588 C 454 569 439 547 429 521 C 419 495 414 466 414 436 C 414 404 419 374 429 347 C 439 319 454 296 475 276 C 495 256 521 240 553 229 C 585 218 622 213 666 213 Z" unicode="8" />
<glyph horiz-adv-x="1309" d="M 461 -41 C 443 -41 424 -40 405 -40 C 385 -39 366 -38 348 -36 C 330 -34 312 -32 296 -29 C 279 -26 264 -22 252 -18 L 248 231 C 263 228 280 226 300 224 C 319 222 339 220 359 219 C 379 217 398 216 417 216 C 436 215 453 215 467 215 C 533 215 592 222 644 238 C 696 254 740 279 776 313 C 814 348 843 392 865 445 C 887 498 901 564 907 643 C 883 613 856 588 827 568 C 798 548 768 533 738 521 C 707 509 676 501 646 496 C 615 491 586 489 559 489 C 491 489 429 499 372 519 C 315 539 266 569 225 609 C 183 649 151 697 127 755 C 103 813 92 879 92 954 C 92 1036 105 1109 132 1174 C 158 1238 196 1293 244 1337 C 292 1381 351 1415 419 1439 C 487 1463 562 1475 645 1475 C 727 1475 803 1463 872 1439 C 940 1415 999 1382 1047 1339 C 1071 1315 1093 1288 1113 1257 C 1133 1225 1149 1189 1163 1148 C 1176 1106 1186 1059 1193 1006 C 1200 953 1204 893 1204 827 C 1204 757 1200 689 1192 624 C 1184 558 1171 496 1153 438 C 1135 380 1113 325 1085 275 C 1057 225 1024 180 985 141 C 928 81 857 36 772 5 C 686 -25 583 -41 461 -41 Z M 877 844 C 884 861 889 879 893 898 C 897 917 899 939 899 965 C 899 1005 892 1041 880 1074 C 868 1106 849 1134 825 1157 C 781 1201 720 1223 643 1223 C 568 1223 509 1202 465 1160 C 421 1118 399 1056 399 975 C 399 894 421 833 465 791 C 509 749 571 729 649 729 C 701 729 746 738 786 758 C 825 778 855 806 877 844 Z" unicode="9" />
<glyph horiz-adv-x="637" d="M 481 1077 L 481 748 L 154 748 L 154 1077 L 481 1077 Z M 481 330 L 481 0 L 154 0 L 154 330 L 481 330 Z" unicode=":" />
<glyph horiz-adv-x="637" d="M 528 330 L 291 -293 L 90 -293 L 199 330 L 528 330 Z M 481 1077 L 481 748 L 154 748 L 154 1077 L 481 1077 Z" unicode=";" />
<glyph horiz-adv-x="1249" d="M 1188 1219 L 1188 920 L 598 668 L 467 625 L 467 598 L 598 559 L 1188 305 L 1188 6 L 61 524 L 61 700 L 1188 1219 Z" unicode="&#x3C;" />
<glyph horiz-adv-x="1249" d="M 1188 1008 L 1188 745 L 61 745 L 61 1008 L 1188 1008 Z M 1188 479 L 1188 215 L 61 215 L 61 479 L 1188 479 Z" unicode="=" />
<glyph horiz-adv-x="1249" d="M 1188 700 L 1188 524 L 61 6 L 61 305 L 651 559 L 784 598 L 784 625 L 651 668 L 61 920 L 61 1219 L 1188 700 Z" unicode="&#x3E;" />
<glyph horiz-adv-x="944" d="M 68 1319 C 86 1339 110 1359 141 1379 C 172 1399 207 1416 246 1432 C 284 1447 326 1459 370 1469 C 414 1478 458 1483 504 1483 C 564 1483 618 1474 667 1457 C 715 1440 757 1416 791 1385 C 825 1354 852 1317 871 1273 C 889 1229 899 1181 899 1128 C 899 1083 893 1043 881 1009 C 869 975 854 943 834 913 C 814 883 790 853 763 825 C 735 796 706 765 674 733 C 650 708 630 687 614 669 C 598 651 585 633 575 617 C 565 600 557 583 553 566 C 549 548 547 528 547 506 L 279 506 C 279 548 281 583 286 613 C 290 642 300 670 315 698 C 330 726 352 756 381 788 C 410 820 449 859 498 907 C 515 923 531 939 546 955 C 561 970 574 985 586 1001 C 597 1016 606 1032 613 1049 C 619 1066 623 1084 623 1104 C 623 1126 619 1145 611 1161 C 603 1177 592 1190 578 1200 C 564 1210 549 1217 531 1222 C 513 1226 494 1229 475 1229 C 435 1229 393 1221 347 1205 C 301 1189 253 1164 201 1130 L 68 1319 Z M 258 330 L 586 330 L 586 0 L 258 0 L 258 330 Z" unicode="?" />
<glyph horiz-adv-x="2122" d="M 1589 1004 L 1411 451 C 1397 413 1391 383 1391 360 C 1391 302 1422 274 1485 274 C 1521 274 1558 285 1596 307 C 1633 329 1667 360 1697 400 C 1727 440 1752 488 1771 544 C 1790 600 1800 661 1800 729 C 1800 809 1784 882 1754 950 C 1724 1018 1681 1076 1626 1126 C 1571 1176 1505 1214 1428 1242 C 1350 1270 1265 1284 1171 1284 C 1097 1284 1026 1275 957 1258 C 888 1241 823 1217 762 1185 C 700 1153 644 1114 593 1068 C 541 1022 497 969 461 911 C 424 853 395 789 375 719 C 354 649 344 574 344 494 C 344 415 354 343 374 277 C 394 211 421 153 456 101 C 490 49 531 3 578 -35 C 624 -73 674 -106 728 -132 C 781 -158 836 -177 893 -190 C 950 -202 1007 -209 1063 -209 C 1113 -209 1164 -204 1217 -196 C 1270 -188 1322 -177 1372 -164 C 1422 -150 1469 -135 1514 -119 C 1558 -102 1597 -85 1630 -68 L 1692 -229 C 1660 -247 1620 -266 1573 -286 C 1526 -305 1475 -323 1419 -339 C 1363 -355 1303 -368 1241 -378 C 1179 -388 1117 -393 1055 -393 C 985 -393 913 -385 840 -369 C 766 -353 695 -328 626 -296 C 556 -263 491 -222 430 -173 C 369 -124 316 -67 270 -1 C 224 64 187 138 161 220 C 134 302 121 394 121 494 C 121 592 134 685 160 771 C 186 857 223 937 270 1009 C 317 1081 373 1145 438 1202 C 503 1259 575 1307 653 1347 C 731 1386 813 1416 901 1437 C 989 1457 1079 1468 1171 1468 C 1297 1468 1411 1449 1514 1412 C 1616 1374 1704 1323 1777 1257 C 1849 1191 1905 1114 1945 1026 C 1985 938 2005 843 2005 741 C 2005 673 1997 610 1981 552 C 1965 493 1943 439 1915 390 C 1887 341 1854 297 1816 259 C 1778 221 1738 188 1695 162 C 1652 135 1607 115 1561 101 C 1514 87 1468 80 1423 80 C 1395 80 1367 83 1339 89 C 1311 95 1286 105 1263 119 C 1240 133 1221 152 1205 176 C 1189 200 1180 229 1176 264 C 1129 204 1080 158 1028 128 C 976 97 922 82 866 82 C 830 82 795 89 761 103 C 727 117 696 139 669 169 C 642 198 620 235 604 281 C 588 327 580 381 580 444 C 580 500 587 553 601 604 C 615 655 633 702 657 746 C 681 790 708 829 740 864 C 771 899 804 929 840 954 C 875 979 911 998 949 1012 C 986 1025 1022 1032 1057 1032 C 1083 1032 1109 1027 1133 1017 C 1157 1007 1180 993 1201 976 C 1221 958 1240 938 1256 914 C 1272 890 1285 864 1296 836 L 1350 1004 L 1589 1004 Z M 950 307 C 981 307 1015 317 1052 337 C 1089 357 1127 388 1165 430 L 1237 647 C 1231 668 1223 688 1213 708 C 1203 727 1191 744 1177 758 C 1163 772 1148 784 1132 792 C 1115 800 1097 805 1079 805 C 1054 805 1027 797 999 781 C 970 765 943 743 918 715 C 893 686 872 651 856 611 C 839 570 831 525 831 475 C 831 416 842 373 864 347 C 886 320 915 307 950 307 Z" unicode="@" />
<glyph horiz-adv-x="1436" d="M 899 1446 L 1403 0 L 1049 0 L 965 287 L 444 287 L 358 0 L 31 0 L 547 1446 L 899 1446 Z M 659 971 L 524 543 L 887 543 L 754 971 L 719 1110 L 698 1110 L 659 971 Z" unicode="A" />
<glyph horiz-adv-x="1432" d="M 752 1446 C 793 1446 835 1443 877 1438 C 919 1433 959 1425 998 1414 C 1036 1402 1072 1387 1106 1369 C 1140 1351 1169 1329 1194 1303 C 1218 1277 1238 1248 1252 1214 C 1266 1180 1274 1141 1274 1098 C 1274 1056 1269 1018 1260 982 C 1250 946 1236 914 1216 886 C 1196 857 1170 832 1140 812 C 1109 791 1072 776 1030 766 L 1030 752 C 1067 747 1104 736 1141 720 C 1177 704 1210 682 1239 654 C 1267 626 1290 593 1308 554 C 1326 514 1335 469 1335 418 C 1335 334 1320 265 1292 211 C 1263 157 1223 114 1172 83 C 1120 51 1059 30 989 18 C 919 6 842 0 760 0 L 172 0 L 172 1446 L 752 1446 Z M 483 852 L 696 852 C 742 852 780 856 812 864 C 844 872 869 883 889 899 C 909 915 923 934 932 956 C 941 978 946 1004 946 1034 C 946 1056 941 1078 933 1098 C 925 1118 912 1136 895 1151 C 877 1166 855 1178 828 1187 C 800 1195 767 1200 729 1200 L 483 1200 L 483 852 Z M 483 246 L 780 246 C 858 246 914 262 949 294 C 983 326 1001 374 1001 438 C 1001 464 995 489 985 512 C 974 534 958 554 937 570 C 915 586 889 599 858 609 C 826 618 790 623 748 623 L 483 623 L 483 246 Z" unicode="B" />
<glyph horiz-adv-x="1350" d="M 805 -27 C 687 -27 583 -8 495 27 C 406 63 332 114 273 180 C 214 246 170 324 140 416 C 110 507 96 607 96 717 C 96 821 111 919 143 1011 C 175 1103 221 1183 283 1252 C 344 1320 419 1375 509 1415 C 598 1455 701 1475 817 1475 C 913 1475 996 1465 1068 1445 C 1139 1425 1199 1399 1247 1368 L 1180 1110 C 1156 1122 1132 1134 1107 1146 C 1081 1157 1054 1167 1024 1176 C 994 1184 962 1191 927 1196 C 892 1201 853 1204 811 1204 C 741 1204 681 1191 631 1166 C 581 1141 541 1107 509 1063 C 477 1019 454 969 440 911 C 425 853 418 791 418 725 C 418 667 424 610 437 553 C 450 495 472 444 502 398 C 532 352 573 315 623 287 C 673 258 736 244 811 244 C 852 244 890 246 925 251 C 959 255 992 262 1022 270 C 1052 278 1080 288 1106 300 C 1132 311 1158 323 1182 336 L 1247 80 C 1199 48 1138 23 1064 3 C 990 -17 903 -27 805 -27 Z" unicode="C" />
<glyph horiz-adv-x="1530" d="M 702 1446 C 803 1446 898 1431 988 1402 C 1077 1372 1155 1328 1222 1269 C 1288 1209 1341 1135 1380 1046 C 1418 957 1438 853 1438 733 C 1438 649 1429 572 1411 503 C 1393 434 1369 372 1337 318 C 1305 264 1266 217 1221 177 C 1176 137 1126 103 1072 77 C 1018 51 959 31 897 19 C 834 6 769 0 702 0 L 172 0 L 172 1446 L 702 1446 Z M 483 252 L 655 252 C 739 252 810 264 869 290 C 927 315 975 349 1011 393 C 1047 437 1074 488 1091 546 C 1107 604 1116 667 1116 733 C 1116 790 1108 846 1092 902 C 1076 957 1050 1006 1014 1050 C 978 1093 930 1128 872 1154 C 813 1180 741 1194 655 1194 L 483 1194 L 483 252 Z" unicode="D" />
<glyph horiz-adv-x="1315" d="M 1184 1446 L 1184 1194 L 483 1194 L 483 872 L 1087 872 L 1087 616 L 483 616 L 483 252 L 1204 252 L 1204 0 L 172 0 L 172 1446 L 1184 1446 Z" unicode="E" />
<glyph horiz-adv-x="1194" d="M 1133 1446 L 1133 1194 L 483 1194 L 483 866 L 1038 866 L 1038 610 L 483 610 L 483 0 L 172 0 L 172 1446 L 1133 1446 Z" unicode="F" />
<glyph horiz-adv-x="1503" d="M 879 1475 C 913 1475 950 1473 990 1470 C 1030 1466 1071 1461 1112 1454 C 1153 1446 1193 1437 1231 1425 C 1269 1413 1302 1398 1331 1382 L 1262 1124 C 1234 1136 1204 1148 1172 1158 C 1140 1168 1107 1176 1073 1183 C 1039 1190 1004 1195 970 1199 C 936 1202 903 1204 872 1204 C 792 1204 724 1192 667 1168 C 609 1144 562 1111 525 1069 C 487 1027 460 976 442 917 C 424 857 416 792 416 721 C 416 654 424 591 440 532 C 456 472 481 420 517 375 C 553 330 599 294 655 268 C 711 242 780 229 860 229 C 896 229 933 230 972 234 C 1010 237 1054 245 1102 258 L 1102 553 L 770 553 L 770 803 L 1368 803 L 1368 76 C 1342 60 1308 46 1266 34 C 1224 22 1178 11 1130 2 C 1081 -7 1031 -14 981 -19 C 930 -24 883 -27 840 -27 C 752 -27 672 -17 601 1 C 530 19 467 45 412 79 C 356 113 309 153 269 200 C 229 246 197 297 171 353 C 145 408 126 467 114 529 C 102 591 96 654 96 719 C 96 826 113 926 147 1018 C 181 1110 232 1190 299 1258 C 365 1326 447 1379 545 1417 C 642 1455 753 1475 879 1475 Z" unicode="G" />
<glyph horiz-adv-x="1550" d="M 483 1446 L 483 858 L 1065 858 L 1065 1446 L 1376 1446 L 1376 0 L 1065 0 L 1065 602 L 483 602 L 483 0 L 172 0 L 172 1446 L 483 1446 Z" unicode="H" />
<glyph horiz-adv-x="655" d="M 483 1446 L 483 0 L 172 0 L 172 1446 L 483 1446 Z" unicode="I" />
<glyph horiz-adv-x="1032" d="M 872 1446 L 872 399 C 872 337 862 281 843 229 C 824 177 795 132 755 94 C 715 56 666 26 606 5 C 546 -16 475 -27 393 -27 C 353 -27 317 -24 284 -19 C 251 -13 221 -6 193 3 C 165 12 139 23 115 36 C 91 48 68 62 47 78 L 106 334 C 146 308 189 287 235 269 C 281 251 329 242 379 242 C 415 242 445 249 469 264 C 493 279 511 299 525 325 C 538 350 547 379 553 412 C 558 445 561 480 561 516 L 561 1446 L 872 1446 Z" unicode="J" />
<glyph horiz-adv-x="1489" d="M 483 1446 L 483 831 L 1042 1446 L 1448 1446 L 879 872 L 1497 0 L 1098 0 L 664 657 L 483 479 L 483 0 L 172 0 L 172 1446 L 483 1446 Z" unicode="K" />
<glyph horiz-adv-x="1112" d="M 483 1446 L 483 252 L 1071 252 L 1071 0 L 172 0 L 172 1446 L 483 1446 Z" unicode="L" />
<glyph horiz-adv-x="1929" d="M 637 1446 L 965 489 L 977 489 L 1307 1446 L 1757 1446 L 1757 0 L 1452 0 L 1452 735 L 1462 1036 L 1442 1036 L 1081 0 L 848 0 L 487 1036 L 467 1036 L 477 735 L 477 0 L 172 0 L 172 1446 L 637 1446 Z" unicode="M" />
<glyph horiz-adv-x="1552" d="M 172 1446 L 553 1446 L 954 696 L 1077 428 L 1098 428 L 1075 784 L 1075 1446 L 1380 1446 L 1380 0 L 1008 0 L 596 750 L 473 1018 L 453 1018 L 477 662 L 477 0 L 172 0 L 172 1446 Z" unicode="N" />
<glyph horiz-adv-x="1608" d="M 805 1475 C 904 1475 997 1459 1083 1429 C 1169 1398 1243 1352 1307 1290 C 1371 1228 1421 1150 1458 1056 C 1494 962 1513 851 1513 725 C 1513 599 1493 490 1455 396 C 1417 302 1365 223 1300 161 C 1235 98 1160 51 1074 20 C 988 -11 899 -27 805 -27 C 703 -27 609 -12 523 18 C 437 48 362 94 299 156 C 235 218 186 296 150 391 C 114 485 96 597 96 727 C 96 852 114 961 151 1055 C 187 1149 237 1227 301 1289 C 365 1351 440 1397 526 1428 C 612 1459 705 1475 805 1475 Z M 805 1206 C 739 1206 681 1194 633 1170 C 584 1146 543 1112 511 1070 C 479 1027 455 976 439 917 C 423 857 416 793 416 723 C 416 657 423 595 438 537 C 453 479 476 428 508 384 C 539 340 579 306 628 280 C 676 254 735 242 803 242 C 869 242 927 253 977 277 C 1026 300 1067 333 1099 375 C 1131 417 1154 468 1170 527 C 1186 586 1194 651 1194 723 C 1194 789 1186 852 1171 911 C 1156 969 1133 1020 1101 1064 C 1069 1108 1029 1142 980 1168 C 931 1193 873 1206 805 1206 Z" unicode="O" />
<glyph horiz-adv-x="1350" d="M 748 1446 C 852 1446 941 1434 1013 1410 C 1085 1386 1142 1350 1186 1300 C 1251 1224 1284 1121 1284 989 C 1284 840 1242 726 1159 647 C 1117 607 1062 576 996 556 C 930 536 847 526 748 526 L 483 526 L 483 0 L 172 0 L 172 1446 L 748 1446 Z M 483 780 L 764 780 C 800 780 831 784 857 793 C 883 802 905 815 922 831 C 940 849 953 872 962 900 C 970 927 975 959 975 995 C 975 1022 971 1047 963 1071 C 955 1095 943 1116 926 1135 C 909 1152 887 1166 861 1177 C 834 1188 802 1194 764 1194 L 483 1194 L 483 780 Z" unicode="P" />
<glyph horiz-adv-x="1608" d="M 805 1475 C 904 1475 997 1459 1083 1429 C 1169 1398 1243 1352 1307 1290 C 1371 1228 1421 1150 1458 1056 C 1494 962 1513 851 1513 725 C 1513 605 1495 501 1461 411 C 1427 321 1380 244 1321 182 L 1507 -47 L 1231 -135 L 1098 29 C 1052 10 1005 -3 956 -13 C 906 -22 856 -27 805 -27 C 703 -27 609 -12 523 18 C 437 48 362 94 299 156 C 235 218 186 296 150 391 C 114 485 96 597 96 727 C 96 852 114 961 151 1055 C 187 1149 237 1227 301 1289 C 365 1351 440 1397 526 1428 C 612 1459 705 1475 805 1475 Z M 932 666 L 1128 422 C 1149 462 1165 507 1177 557 C 1188 607 1194 663 1194 723 C 1194 789 1186 852 1171 911 C 1156 969 1133 1020 1101 1064 C 1069 1108 1029 1142 980 1168 C 931 1193 873 1206 805 1206 C 739 1206 681 1194 633 1170 C 584 1146 543 1112 511 1070 C 479 1027 455 976 439 917 C 423 857 416 793 416 723 C 416 657 423 595 438 537 C 453 479 476 428 508 384 C 539 340 579 306 628 280 C 676 254 735 242 803 242 C 843 242 881 246 915 254 L 698 524 L 932 666 Z" unicode="Q" />
<glyph horiz-adv-x="1427" d="M 784 1446 C 877 1446 960 1433 1032 1409 C 1104 1385 1164 1348 1212 1298 C 1244 1263 1268 1223 1285 1177 C 1302 1131 1311 1080 1311 1024 C 1311 979 1305 936 1293 896 C 1281 855 1262 817 1238 783 C 1214 749 1183 719 1145 693 C 1107 667 1063 646 1012 631 L 1411 0 L 1034 0 L 707 561 L 483 561 L 483 0 L 172 0 L 172 1446 L 784 1446 Z M 483 809 L 752 809 C 794 809 831 813 861 823 C 891 832 915 845 934 863 C 952 881 966 902 974 928 C 982 954 987 983 987 1016 C 987 1044 982 1069 974 1092 C 966 1114 952 1134 934 1150 C 915 1166 891 1178 861 1187 C 831 1195 794 1200 752 1200 L 483 1200 L 483 809 Z" unicode="R" />
<glyph horiz-adv-x="1241" d="M 1030 1130 C 1002 1143 972 1156 941 1168 C 909 1180 877 1190 845 1199 C 813 1207 780 1214 748 1219 C 715 1224 683 1227 653 1227 C 621 1227 590 1224 561 1218 C 532 1212 507 1202 485 1189 C 463 1176 445 1159 433 1139 C 420 1118 414 1093 414 1063 C 414 1029 422 1001 439 979 C 456 957 478 938 505 923 C 531 908 561 895 595 885 C 628 875 661 865 694 856 C 764 836 826 813 882 787 C 938 761 985 731 1024 696 C 1063 661 1093 620 1114 574 C 1134 528 1145 474 1145 414 C 1145 344 1131 281 1105 225 C 1078 169 1039 122 988 83 C 937 44 875 14 802 -6 C 728 -26 645 -37 551 -37 C 512 -37 472 -35 432 -31 C 392 -27 352 -22 313 -14 C 273 -6 235 2 198 14 C 160 25 126 39 94 55 L 137 326 C 169 308 202 293 238 279 C 273 265 309 254 345 244 C 381 234 418 226 454 221 C 490 215 525 213 559 213 C 594 213 628 216 660 222 C 692 228 721 239 746 253 C 771 267 791 285 806 307 C 821 329 829 355 829 387 C 829 421 819 451 801 475 C 783 499 759 519 730 536 C 701 553 669 567 634 578 C 598 589 564 599 530 608 C 502 616 471 625 439 635 C 407 645 375 657 343 672 C 311 686 281 704 252 725 C 223 746 197 772 175 802 C 153 832 135 867 122 907 C 108 947 102 993 102 1047 C 102 1121 115 1184 142 1238 C 169 1292 207 1336 256 1371 C 304 1406 362 1432 429 1449 C 495 1466 569 1475 649 1475 C 692 1475 733 1472 771 1468 C 809 1464 845 1458 879 1450 C 913 1442 946 1434 977 1424 C 1008 1414 1039 1405 1069 1395 L 1030 1130 Z" unicode="S" />
<glyph horiz-adv-x="1159" d="M 1126 1446 L 1126 1194 L 735 1194 L 735 0 L 424 0 L 424 1194 L 33 1194 L 33 1446 L 1126 1446 Z" unicode="T" />
<glyph horiz-adv-x="1518" d="M 469 1446 L 469 547 C 469 501 471 460 477 423 C 483 385 496 353 517 327 C 537 300 567 279 606 264 C 645 249 698 242 766 242 C 832 242 885 249 924 264 C 963 279 992 300 1012 327 C 1031 353 1043 385 1049 423 C 1054 460 1057 501 1057 547 L 1057 1446 L 1360 1446 L 1360 537 C 1360 491 1357 446 1353 401 C 1348 355 1338 312 1324 270 C 1309 228 1288 189 1261 153 C 1234 117 1198 85 1154 59 C 1110 32 1055 11 991 -4 C 926 -19 849 -27 760 -27 C 670 -27 592 -19 528 -4 C 463 11 408 32 364 59 C 319 85 283 117 256 153 C 229 189 208 228 194 270 C 179 312 169 355 165 401 C 160 446 158 491 158 537 L 158 1446 L 469 1446 Z" unicode="U" />
<glyph horiz-adv-x="1311" d="M 352 1446 L 612 586 L 651 406 L 672 406 L 713 586 L 975 1446 L 1307 1446 L 801 0 L 504 0 L 12 1446 L 352 1446 Z" unicode="V" />
<glyph horiz-adv-x="2060" d="M 379 1446 L 563 608 L 598 422 L 618 422 L 659 608 L 860 1446 L 1198 1446 L 1399 608 L 1440 422 L 1460 422 L 1495 608 L 1681 1446 L 2009 1446 L 1626 0 L 1286 0 L 1073 860 L 1038 1047 L 1018 1047 L 981 860 L 774 0 L 434 0 L 53 1446 L 379 1446 Z" unicode="W" />
<glyph horiz-adv-x="1384" d="M 406 1446 L 694 961 L 997 1446 L 1354 1446 L 881 743 L 1364 0 L 983 0 L 688 535 L 379 0 L 20 0 L 502 745 L 33 1446 L 406 1446 Z" unicode="X" />
<glyph horiz-adv-x="1352" d="M 379 1446 L 686 795 L 993 1446 L 1346 1446 L 831 500 L 831 0 L 520 0 L 520 500 L 10 1446 L 379 1446 Z" unicode="Y" />
<glyph horiz-adv-x="1266" d="M 1174 1446 L 1174 1257 L 485 252 L 1184 252 L 1184 0 L 82 0 L 82 186 L 782 1194 L 158 1194 L 158 1446 L 1174 1446 Z" unicode="Z" />
<glyph horiz-adv-x="795" d="M 653 1559 L 653 1386 L 424 1386 L 424 -180 L 653 -180 L 653 -350 L 170 -350 L 170 1559 L 653 1559 Z" unicode="[" />
<glyph horiz-adv-x="952" d="M 219 1446 L 997 -236 L 770 -236 L -12 1446 L 219 1446 Z" unicode="\" />
<glyph horiz-adv-x="795" d="M 625 1559 L 625 -350 L 143 -350 L 143 -180 L 371 -180 L 371 1386 L 143 1386 L 143 1559 L 625 1559 Z" unicode="]" />
<glyph horiz-adv-x="1249" d="M 711 1446 L 1268 426 L 965 426 L 707 948 L 637 1100 L 610 1100 L 545 948 L 285 426 L -16 426 L 537 1446 L 711 1446 Z" unicode="^" />
<glyph horiz-adv-x="1249" d="M 1260 -248 L 1260 -451 L -10 -451 L -10 -248 L 1260 -248 Z" unicode="_" />
<glyph horiz-adv-x="895" d="M 596 1204 L 436 1204 L 123 1436 L 123 1530 L 342 1530 L 596 1272 L 596 1204 Z" unicode="`" />
<glyph horiz-adv-x="1174" d="M 127 991 C 143 1003 165 1015 193 1029 C 220 1043 252 1055 290 1067 C 327 1078 369 1087 417 1095 C 464 1102 516 1106 573 1106 C 647 1106 712 1098 770 1084 C 828 1070 876 1047 916 1016 C 955 984 985 944 1005 895 C 1025 846 1036 787 1036 719 L 1036 274 C 1036 203 1042 145 1055 101 C 1068 56 1081 22 1094 0 L 791 0 C 784 13 776 32 767 58 C 757 84 752 116 750 154 C 714 98 669 53 613 20 C 557 -12 490 -29 410 -29 C 360 -29 314 -22 272 -8 C 230 5 195 25 165 52 C 135 79 112 113 96 153 C 80 193 72 241 72 295 C 72 349 82 399 103 444 C 124 489 160 528 211 561 C 262 593 331 619 417 639 C 503 658 611 670 741 674 L 741 725 C 741 755 737 780 730 801 C 723 821 712 838 698 851 C 683 863 664 872 642 878 C 619 884 592 887 561 887 C 509 887 457 880 407 867 C 356 853 304 833 250 805 L 127 991 Z M 741 514 C 656 506 589 496 539 483 C 489 469 450 454 424 437 C 398 419 381 401 373 381 C 365 361 362 342 362 322 C 362 277 374 243 398 220 C 422 197 460 186 512 186 C 545 186 576 191 604 201 C 632 211 656 225 676 243 C 696 261 712 284 724 310 C 735 336 741 365 741 397 L 741 514 Z" unicode="a" />
<glyph horiz-adv-x="1247" d="M 436 1507 L 436 950 C 454 976 473 998 493 1018 C 513 1037 534 1053 556 1066 C 578 1079 603 1089 629 1096 C 655 1102 685 1106 719 1106 C 797 1106 864 1090 920 1059 C 976 1028 1023 987 1059 935 C 1095 883 1122 822 1140 754 C 1158 686 1167 615 1167 541 C 1167 497 1163 452 1157 407 C 1151 361 1140 317 1126 275 C 1112 233 1093 193 1071 156 C 1048 119 1020 87 988 60 C 955 32 917 11 873 -5 C 829 -21 780 -29 725 -29 C 689 -29 657 -26 629 -20 C 601 -14 574 -5 550 7 C 526 19 503 36 481 57 C 459 77 436 103 414 133 L 393 0 L 141 0 L 141 1507 L 436 1507 Z M 436 395 C 436 373 440 352 448 331 C 456 309 469 290 487 272 C 504 254 526 240 552 229 C 578 218 609 213 645 213 C 693 213 730 222 758 241 C 786 260 807 285 822 316 C 836 347 846 383 850 423 C 854 463 856 504 856 547 C 856 572 855 597 854 623 C 852 648 849 672 844 696 C 839 720 832 742 823 762 C 813 782 801 800 785 815 C 769 830 750 842 727 851 C 704 859 677 864 645 864 C 609 864 578 858 552 847 C 526 835 504 821 487 803 C 469 785 456 766 448 744 C 440 722 436 700 436 680 L 436 395 Z" unicode="b" />
<glyph horiz-adv-x="1036" d="M 641 213 C 687 213 730 220 770 234 C 810 248 847 265 881 287 L 977 66 C 929 36 876 12 818 -4 C 760 -20 694 -29 618 -29 C 526 -29 447 -15 380 12 C 312 40 257 79 213 129 C 169 179 136 238 114 307 C 92 376 82 452 82 535 C 82 617 93 694 116 764 C 139 834 173 894 219 945 C 264 995 320 1035 388 1063 C 455 1091 533 1106 623 1106 C 695 1106 760 1097 818 1081 C 876 1065 929 1042 977 1012 L 881 791 C 847 812 810 829 770 843 C 730 857 686 864 637 864 C 593 864 556 855 525 839 C 493 823 467 800 446 771 C 425 742 410 708 400 668 C 390 628 385 585 385 539 C 385 499 388 459 396 420 C 403 381 416 346 436 316 C 455 285 481 260 514 241 C 547 222 589 213 641 213 Z" unicode="c" />
<glyph horiz-adv-x="1247" d="M 1106 1507 L 1106 0 L 854 0 L 834 137 C 810 107 787 81 765 60 C 743 38 720 21 696 8 C 672 -4 645 -14 617 -20 C 589 -26 556 -29 520 -29 C 464 -29 414 -21 371 -5 C 327 11 289 32 257 60 C 225 87 197 119 175 156 C 152 193 134 233 120 275 C 106 317 95 361 89 407 C 83 452 80 497 80 541 C 80 615 88 686 106 754 C 124 822 151 883 187 935 C 223 987 270 1028 326 1059 C 382 1090 450 1106 528 1106 C 561 1106 591 1102 618 1096 C 644 1090 669 1080 691 1068 C 713 1056 734 1040 753 1021 C 772 1002 791 980 811 954 L 811 1507 L 1106 1507 Z M 811 680 C 811 700 806 722 798 744 C 790 766 777 785 760 803 C 742 821 721 835 695 847 C 669 858 638 864 602 864 C 554 864 515 854 487 835 C 459 816 437 792 423 762 C 409 732 399 698 395 660 C 391 622 389 585 389 547 C 389 504 391 463 395 423 C 399 383 409 347 424 316 C 438 285 460 260 488 241 C 516 222 554 213 602 213 C 638 213 669 218 695 229 C 721 240 742 254 760 272 C 777 290 790 309 798 331 C 806 352 811 373 811 395 L 811 680 Z" unicode="d" />
<glyph horiz-adv-x="1182" d="M 373 467 C 377 431 385 397 396 364 C 407 331 423 302 444 277 C 465 251 492 231 524 216 C 556 200 595 193 641 193 C 709 193 771 202 828 220 C 884 238 939 261 991 291 L 1065 94 C 1009 56 946 26 877 4 C 807 -17 728 -29 639 -29 C 542 -29 458 -15 388 12 C 317 39 259 77 213 125 C 167 173 133 231 111 297 C 89 363 78 434 78 512 C 78 596 90 675 115 748 C 139 820 175 883 221 936 C 267 989 322 1031 388 1061 C 454 1091 528 1106 610 1106 C 685 1106 752 1094 811 1070 C 870 1046 920 1012 961 969 C 1001 926 1032 875 1054 816 C 1075 757 1086 693 1087 625 C 1087 616 1086 597 1085 569 C 1083 541 1080 507 1075 467 L 373 467 Z M 610 897 C 545 897 492 874 452 830 C 412 785 386 722 375 641 L 811 641 C 811 720 794 782 760 828 C 726 874 676 897 610 897 Z" unicode="e" />
<glyph horiz-adv-x="686" d="M 178 1077 L 178 1247 C 178 1288 184 1326 197 1362 C 210 1398 230 1429 257 1455 C 283 1481 317 1501 358 1516 C 398 1530 446 1538 502 1538 C 522 1538 541 1537 561 1536 C 580 1534 598 1533 614 1531 C 630 1529 643 1526 655 1523 C 667 1520 675 1517 680 1513 L 659 1307 C 653 1307 647 1308 639 1310 C 631 1311 622 1312 613 1313 C 604 1314 595 1315 586 1316 C 576 1316 568 1317 561 1317 C 543 1317 527 1315 515 1313 C 502 1311 492 1306 484 1300 C 476 1293 470 1283 466 1271 C 462 1259 461 1243 461 1223 L 461 1077 L 680 1077 L 680 856 L 471 856 L 471 0 L 178 0 L 178 856 L 8 856 L 8 1077 L 178 1077 Z" unicode="f" />
<glyph horiz-adv-x="1247" d="M 1106 1077 L 1106 39 C 1106 -55 1091 -135 1061 -200 C 1031 -264 992 -316 942 -356 C 892 -395 834 -423 769 -441 C 703 -458 635 -467 563 -467 C 486 -467 418 -460 358 -447 C 298 -433 249 -417 209 -399 L 225 -178 C 270 -198 320 -214 375 -225 C 430 -236 486 -242 543 -242 C 593 -242 636 -236 670 -224 C 704 -212 731 -194 752 -171 C 773 -148 788 -120 797 -86 C 806 -52 811 -13 811 31 L 811 121 C 793 99 775 80 756 63 C 736 46 715 32 692 20 C 669 8 644 0 616 -6 C 588 -12 556 -16 522 -16 C 466 -16 417 -8 373 7 C 329 23 291 44 259 71 C 226 98 198 130 176 166 C 153 202 134 240 120 282 C 106 324 95 367 89 411 C 83 455 80 499 80 543 C 80 617 88 687 106 755 C 124 823 151 883 188 935 C 224 987 271 1028 328 1059 C 384 1090 452 1106 530 1106 C 564 1106 596 1102 624 1096 C 652 1089 678 1079 702 1066 C 726 1052 748 1035 770 1015 C 791 995 812 971 834 944 L 854 1077 L 1106 1077 Z M 811 680 C 811 701 806 723 798 745 C 790 767 777 786 760 804 C 742 822 720 836 694 847 C 667 858 636 864 600 864 C 552 864 515 854 487 835 C 459 815 437 790 423 760 C 408 730 399 696 395 658 C 391 620 389 583 389 547 C 389 504 391 463 396 423 C 400 383 410 347 425 316 C 439 285 461 260 489 241 C 517 222 554 213 602 213 C 638 213 669 218 695 229 C 721 240 742 254 760 272 C 777 290 790 309 798 331 C 806 352 811 373 811 395 L 811 680 Z" unicode="g" />
<glyph horiz-adv-x="1231" d="M 436 1507 L 436 948 C 459 980 482 1007 505 1028 C 527 1048 550 1064 574 1076 C 598 1087 622 1095 648 1099 C 674 1103 701 1106 731 1106 C 793 1106 847 1097 893 1080 C 938 1062 976 1038 1006 1008 C 1042 972 1068 926 1084 872 C 1100 817 1108 750 1108 670 L 1108 0 L 813 0 L 813 705 C 813 723 810 741 805 761 C 799 780 789 797 774 813 C 760 828 742 840 718 850 C 694 859 665 864 631 864 C 606 864 582 860 559 852 C 535 844 514 832 496 817 C 478 802 463 784 452 762 C 441 740 436 716 436 688 L 436 0 L 141 0 L 141 1507 L 436 1507 Z" unicode="h" />
<glyph horiz-adv-x="578" d="M 436 1077 L 436 0 L 141 0 L 141 1077 L 436 1077 Z M 444 1507 L 444 1264 L 133 1264 L 133 1507 L 444 1507 Z" unicode="i" />
<glyph horiz-adv-x="578" d="M 444 1507 L 444 1264 L 133 1264 L 133 1507 L 444 1507 Z M 141 1077 L 436 1077 L 436 -166 C 436 -209 429 -249 415 -285 C 401 -321 381 -351 354 -377 C 326 -403 292 -423 250 -437 C 208 -451 160 -459 104 -459 C 72 -459 45 -457 24 -454 C 2 -450 -14 -446 -27 -442 L -10 -231 C -2 -232 6 -233 17 -234 C 27 -235 37 -236 45 -236 C 82 -236 107 -228 121 -212 C 134 -196 141 -170 141 -135 L 141 1077 Z" unicode="j" />
<glyph horiz-adv-x="1171" d="M 436 1507 L 436 682 L 807 1077 L 1163 1077 L 731 659 L 1186 0 L 817 0 L 522 465 L 436 385 L 436 0 L 141 0 L 141 1507 L 436 1507 Z" unicode="k" />
<glyph horiz-adv-x="578" d="M 436 1507 L 436 0 L 141 0 L 141 1507 L 436 1507 Z" unicode="l" />
<glyph horiz-adv-x="1845" d="M 393 1077 L 414 924 C 439 960 465 990 491 1014 C 517 1038 543 1056 569 1070 C 595 1083 621 1092 647 1098 C 673 1103 700 1106 727 1106 C 759 1106 790 1103 820 1097 C 850 1091 879 1082 907 1068 C 935 1054 961 1036 985 1014 C 1009 992 1031 964 1051 930 C 1073 958 1095 983 1117 1005 C 1139 1027 1163 1045 1189 1060 C 1214 1075 1241 1086 1270 1094 C 1299 1102 1332 1106 1368 1106 C 1476 1106 1562 1070 1624 999 C 1639 982 1653 963 1665 943 C 1677 923 1688 899 1696 873 C 1704 847 1711 817 1715 784 C 1719 750 1722 712 1722 670 L 1722 0 L 1425 0 L 1425 705 C 1425 723 1422 741 1416 760 C 1410 778 1401 795 1389 811 C 1377 826 1360 839 1340 849 C 1319 859 1294 864 1264 864 C 1239 864 1215 860 1193 852 C 1171 844 1151 832 1134 817 C 1117 802 1104 784 1094 762 C 1084 740 1079 716 1079 688 L 1079 0 L 782 0 L 782 705 C 782 723 779 741 773 760 C 767 778 758 795 746 811 C 734 826 717 839 697 849 C 676 859 651 864 621 864 C 596 864 572 860 550 852 C 528 844 508 832 491 817 C 474 802 461 784 451 762 C 441 740 436 716 436 688 L 436 0 L 141 0 L 141 877 L 121 1077 L 393 1077 Z" unicode="m" />
<glyph horiz-adv-x="1231" d="M 393 1077 L 414 924 C 440 962 466 992 492 1016 C 518 1040 543 1058 569 1072 C 594 1085 620 1094 647 1099 C 673 1103 701 1106 731 1106 C 793 1106 847 1097 893 1080 C 938 1062 976 1038 1006 1008 C 1042 972 1068 926 1084 872 C 1100 817 1108 750 1108 670 L 1108 0 L 813 0 L 813 705 C 813 723 810 741 805 761 C 800 780 790 797 776 813 C 762 828 743 840 719 850 C 695 859 665 864 631 864 C 606 864 582 860 559 852 C 535 844 514 832 496 817 C 478 802 463 784 452 762 C 441 740 436 716 436 688 L 436 0 L 141 0 L 141 877 L 121 1077 L 393 1077 Z" unicode="n" />
<glyph horiz-adv-x="1212" d="M 604 864 C 558 864 521 855 493 839 C 465 822 443 799 427 771 C 411 743 400 709 394 671 C 388 632 385 591 385 547 C 385 506 387 466 392 426 C 396 386 406 351 422 319 C 437 287 459 262 488 242 C 517 222 556 213 606 213 C 652 213 689 222 718 240 C 746 258 768 282 784 312 C 799 342 809 378 815 418 C 820 458 823 501 823 547 C 823 586 820 625 816 663 C 811 701 801 734 786 764 C 770 794 748 818 719 836 C 690 854 652 864 604 864 Z M 606 1106 C 684 1106 756 1093 820 1068 C 884 1042 938 1006 984 958 C 1030 910 1065 852 1091 783 C 1117 713 1131 635 1133 547 C 1131 463 1119 385 1095 315 C 1071 244 1037 183 993 132 C 948 81 893 41 828 13 C 763 -14 689 -29 606 -29 C 526 -29 454 -15 390 10 C 326 36 271 74 225 124 C 179 174 143 234 117 305 C 91 376 78 457 78 547 C 78 629 90 705 115 774 C 139 842 174 901 220 951 C 266 1000 321 1038 386 1065 C 451 1092 524 1106 606 1106 Z" unicode="o" />
<glyph horiz-adv-x="1247" d="M 393 1077 L 414 940 C 434 967 455 991 477 1012 C 498 1032 521 1050 545 1064 C 569 1078 595 1088 623 1095 C 651 1102 683 1106 719 1106 C 797 1106 864 1090 920 1059 C 976 1028 1023 987 1059 935 C 1095 883 1122 823 1140 755 C 1158 687 1167 617 1167 543 C 1167 498 1163 453 1157 408 C 1151 362 1140 318 1126 276 C 1112 233 1093 193 1070 156 C 1047 119 1019 87 987 60 C 954 32 916 11 873 -5 C 829 -21 780 -29 725 -29 C 690 -29 659 -25 631 -19 C 603 -12 577 -2 554 9 C 531 21 510 37 491 55 C 471 73 453 93 436 117 L 436 -451 L 141 -451 L 141 877 L 121 1077 L 393 1077 Z M 436 395 C 436 373 440 351 449 329 C 458 307 471 288 488 271 C 505 253 526 239 552 229 C 577 218 606 213 639 213 C 687 213 726 222 755 240 C 783 258 805 283 820 313 C 835 343 845 378 849 418 C 853 458 856 499 856 543 C 856 581 854 620 850 658 C 846 696 836 731 822 761 C 808 791 787 816 759 835 C 731 854 693 864 645 864 C 609 864 578 858 552 847 C 526 836 504 822 487 804 C 469 786 456 767 448 745 C 440 723 436 701 436 680 L 436 395 Z" unicode="p" />
<glyph horiz-adv-x="1247" d="M 1106 1077 L 1106 -451 L 811 -451 L 811 121 C 793 97 775 76 756 58 C 736 40 715 24 692 11 C 669 -1 643 -11 615 -18 C 587 -25 555 -29 520 -29 C 464 -29 415 -21 372 -5 C 329 11 291 32 259 60 C 226 87 198 119 176 156 C 153 193 134 233 120 276 C 106 318 95 362 89 408 C 83 453 80 498 80 543 C 80 617 88 687 106 755 C 124 823 151 883 187 935 C 223 987 270 1028 326 1059 C 382 1090 450 1106 528 1106 C 562 1106 594 1102 622 1096 C 650 1089 677 1079 701 1066 C 725 1052 747 1035 769 1015 C 791 995 812 971 834 944 L 854 1077 L 1106 1077 Z M 811 680 C 811 701 806 723 798 745 C 790 767 777 786 760 804 C 742 822 721 836 695 847 C 669 858 638 864 602 864 C 554 864 515 854 487 835 C 459 816 437 791 423 761 C 409 731 399 696 395 658 C 391 620 389 581 389 543 C 389 499 391 458 396 418 C 400 378 410 343 426 313 C 441 283 463 258 492 240 C 520 222 559 213 608 213 C 640 213 669 218 695 229 C 720 239 741 253 758 271 C 775 288 788 307 797 329 C 806 351 811 373 811 395 L 811 680 Z" unicode="q" />
<glyph horiz-adv-x="782" d="M 383 1077 L 403 909 C 421 937 441 962 462 986 C 482 1010 504 1030 526 1047 C 548 1064 571 1077 595 1087 C 619 1097 644 1102 670 1102 C 686 1102 704 1099 724 1095 C 744 1090 760 1083 774 1075 L 743 793 C 733 795 723 797 712 799 C 701 800 690 801 678 802 C 666 803 655 804 644 804 C 633 804 624 805 616 805 C 590 805 567 801 545 795 C 523 788 504 778 488 764 C 472 750 459 733 450 713 C 440 693 436 669 436 641 L 436 0 L 141 0 L 141 879 L 121 1077 L 383 1077 Z" unicode="r" />
<glyph horiz-adv-x="1028" d="M 858 819 C 808 840 756 858 702 873 C 648 887 592 895 535 895 C 515 895 497 893 479 890 C 461 887 444 882 430 875 C 416 868 404 858 396 846 C 387 834 383 819 383 801 C 383 780 388 762 399 748 C 410 734 426 721 446 710 C 466 699 490 689 518 680 C 546 671 578 662 612 653 C 651 642 691 629 731 613 C 771 597 808 577 840 552 C 872 526 899 495 919 457 C 939 419 950 373 950 319 C 950 261 938 209 914 165 C 890 120 857 82 815 52 C 772 22 721 -1 662 -17 C 602 -33 537 -41 465 -41 C 430 -41 395 -39 359 -35 C 323 -31 289 -25 256 -19 C 223 -12 192 -4 163 5 C 133 14 108 24 86 35 L 121 270 C 170 245 224 224 284 208 C 343 192 404 184 467 184 C 489 184 511 185 533 188 C 555 191 574 197 592 205 C 609 213 623 225 634 239 C 645 253 651 271 651 293 C 651 313 645 331 635 345 C 625 359 609 372 589 384 C 569 395 544 405 514 415 C 484 425 449 435 410 446 C 375 455 339 467 301 483 C 263 498 229 518 197 544 C 165 569 139 601 119 639 C 98 677 88 724 88 780 C 88 837 99 887 121 929 C 143 971 174 1006 214 1034 C 254 1062 301 1082 356 1096 C 410 1109 470 1116 535 1116 C 605 1116 670 1109 730 1096 C 790 1083 843 1068 891 1051 L 858 819 Z" unicode="s" />
<glyph horiz-adv-x="764" d="M 475 1364 L 475 1077 L 711 1077 L 711 856 L 475 856 L 475 309 C 475 285 481 265 495 248 C 508 231 528 223 555 223 L 715 223 L 696 2 C 680 -6 654 -12 616 -16 C 578 -20 535 -23 485 -23 C 431 -23 385 -15 347 -1 C 309 12 277 32 253 57 C 228 81 210 110 199 144 C 187 178 182 214 182 254 L 182 856 L 12 856 L 12 1077 L 182 1077 L 215 1364 L 475 1364 Z" unicode="t" />
<glyph horiz-adv-x="1235" d="M 842 0 L 821 154 C 793 116 767 85 742 61 C 716 37 691 19 666 5 C 640 -8 614 -17 588 -22 C 561 -26 533 -29 504 -29 C 441 -29 387 -20 342 -3 C 296 14 259 38 229 70 C 193 106 167 152 151 206 C 135 260 127 327 127 408 L 127 1077 L 422 1077 L 422 373 C 422 354 424 335 429 316 C 434 296 444 279 459 264 C 473 248 491 236 515 227 C 538 217 568 213 604 213 C 628 213 652 217 676 225 C 699 233 720 245 738 260 C 756 275 771 293 782 315 C 793 337 799 361 799 389 L 799 1077 L 1094 1077 L 1094 201 L 1114 0 L 842 0 Z" unicode="u" />
<glyph horiz-adv-x="1059" d="M 322 1077 L 504 483 L 530 381 L 541 381 L 567 483 L 756 1077 L 1055 1077 L 655 0 L 399 0 L 4 1077 L 322 1077 Z" unicode="v" />
<glyph horiz-adv-x="1610" d="M 319 1077 L 457 514 L 475 406 L 485 406 L 512 514 L 684 1077 L 936 1077 L 1112 514 L 1139 406 L 1149 406 L 1167 514 L 1296 1077 L 1595 1077 L 1288 0 L 1022 0 L 836 606 L 811 715 L 801 715 L 776 606 L 592 0 L 326 0 L 18 1077 L 319 1077 Z" unicode="w" />
<glyph horiz-adv-x="1137" d="M 385 1077 L 571 743 L 768 1077 L 1090 1077 L 745 559 L 1114 0 L 768 0 L 565 360 L 352 0 L 16 0 L 393 553 L 41 1077 L 385 1077 Z" unicode="x" />
<glyph horiz-adv-x="1061" d="M 313 1077 L 508 459 L 537 348 L 547 348 L 575 459 L 766 1077 L 1059 1077 L 641 -111 C 625 -156 607 -199 586 -241 C 565 -283 540 -320 510 -352 C 480 -384 444 -410 402 -430 C 360 -449 312 -459 256 -459 C 228 -459 203 -457 182 -453 C 161 -449 145 -444 135 -438 L 117 -229 C 156 -229 189 -227 215 -225 C 241 -222 262 -217 280 -210 C 297 -202 311 -192 322 -179 C 332 -165 342 -148 350 -127 L 391 -16 L -2 1077 L 313 1077 Z" unicode="y" />
<glyph horiz-adv-x="963" d="M 897 1077 L 897 920 L 424 221 L 915 221 L 915 0 L 57 0 L 57 158 L 530 856 L 111 856 L 111 1077 L 897 1077 Z" unicode="z" />
<glyph horiz-adv-x="848" d="M 745 1559 L 745 1386 L 645 1386 C 597 1386 564 1376 544 1358 C 524 1339 514 1309 514 1268 C 514 1257 514 1246 515 1236 C 516 1225 518 1213 520 1200 L 569 836 C 570 823 568 812 564 803 C 560 793 554 784 547 776 L 395 621 L 395 610 L 547 455 C 554 447 560 439 564 429 C 568 419 570 408 569 395 L 520 10 C 518 -4 516 -16 515 -26 C 514 -36 514 -47 514 -59 C 514 -76 516 -92 521 -107 C 525 -121 533 -134 544 -145 C 554 -155 568 -164 585 -170 C 601 -176 621 -180 645 -180 L 745 -180 L 745 -350 L 606 -350 C 545 -350 491 -344 443 -334 C 395 -323 356 -303 326 -274 C 275 -230 250 -166 250 -80 C 250 -53 252 -23 256 10 L 301 328 C 303 345 304 358 305 368 C 306 378 307 387 307 395 C 307 433 298 462 280 483 C 262 503 235 514 201 514 L 70 514 L 70 717 L 201 717 C 235 717 262 727 280 748 C 298 768 307 798 307 836 C 307 844 306 852 305 862 C 304 872 303 885 301 903 L 256 1196 C 252 1224 250 1250 250 1272 C 250 1316 256 1355 270 1390 C 284 1425 302 1454 326 1477 C 356 1507 394 1528 441 1540 C 488 1552 543 1559 606 1559 L 745 1559 Z" unicode="{" />
<glyph horiz-adv-x="918" d="M 614 1720 L 614 -348 L 303 -348 L 303 1720 L 614 1720 Z" unicode="|" />
<glyph horiz-adv-x="848" d="M 242 1559 C 304 1559 359 1552 407 1540 C 455 1528 493 1507 522 1477 C 545 1454 563 1425 577 1390 C 591 1355 598 1316 598 1272 C 598 1250 596 1224 592 1196 L 549 903 C 545 885 543 872 542 862 C 541 852 541 844 541 836 C 541 798 550 768 568 748 C 586 727 613 717 647 717 L 778 717 L 778 514 L 647 514 C 613 514 586 503 568 483 C 550 462 541 433 541 395 C 541 387 541 378 542 368 C 543 358 545 345 549 328 L 592 10 C 594 -6 595 -22 597 -37 C 599 -52 600 -66 600 -80 C 600 -123 593 -161 580 -193 C 567 -225 548 -252 524 -274 C 493 -303 453 -323 405 -334 C 357 -344 302 -350 242 -350 L 102 -350 L 102 -180 L 203 -180 C 227 -180 247 -176 264 -170 C 280 -164 294 -155 304 -145 C 314 -134 322 -121 327 -107 C 331 -92 334 -76 334 -59 C 334 -47 333 -36 332 -26 C 331 -16 330 -4 328 10 L 279 395 C 277 408 279 419 284 429 C 289 439 295 447 301 455 L 453 610 L 453 621 L 301 776 C 295 784 289 793 284 803 C 279 812 277 823 279 836 L 328 1200 C 330 1213 331 1225 332 1236 C 333 1246 334 1257 334 1268 C 334 1309 324 1339 304 1358 C 284 1376 250 1386 203 1386 L 102 1386 L 102 1559 L 242 1559 Z" unicode="}" />
<glyph horiz-adv-x="1249" d="M 45 594 C 72 632 101 667 132 697 C 162 727 194 752 226 773 C 258 794 291 810 324 821 C 357 832 390 838 422 838 C 452 838 481 833 507 823 C 533 813 558 801 581 787 C 603 773 625 757 646 740 C 667 723 688 707 709 693 C 729 679 750 667 772 657 C 793 647 816 643 840 643 C 872 643 904 653 934 673 C 964 693 993 722 1020 760 L 1206 618 C 1180 584 1152 552 1122 523 C 1092 494 1060 469 1028 448 C 996 427 963 411 929 399 C 895 387 861 381 827 381 C 796 381 768 385 742 395 C 716 404 692 416 669 430 C 646 444 624 459 604 475 C 583 491 562 506 542 520 C 521 534 500 545 478 555 C 456 564 434 569 410 569 C 378 569 346 559 316 541 C 286 522 257 495 229 461 L 45 594 Z" unicode="~" />
<glyph horiz-adv-x="469" d="" unicode="" />
<glyph horiz-adv-x="676" d="M 145 0 L 145 281 L 205 940 L 408 940 L 473 281 L 473 0 L 145 0 Z M 143 1116 L 143 1446 L 471 1446 L 471 1116 L 143 1116 Z" unicode="" />
<glyph horiz-adv-x="1249" d="M 694 305 C 740 305 783 312 823 326 C 863 340 900 358 934 381 L 1028 160 C 980 130 928 106 871 90 C 814 74 748 66 672 66 L 637 66 L 582 -250 L 350 -250 L 416 113 C 368 134 326 161 290 195 C 254 229 225 268 202 312 C 178 356 161 404 150 458 C 138 511 133 568 133 629 C 133 706 143 778 163 844 C 183 910 214 967 254 1017 C 294 1067 343 1107 402 1138 C 461 1169 530 1188 608 1196 L 655 1464 L 887 1464 L 836 1184 C 872 1175 906 1164 938 1151 C 969 1138 999 1123 1028 1106 L 934 885 C 900 906 863 923 823 937 C 783 951 739 958 690 958 C 646 958 609 949 577 933 C 545 916 519 893 498 864 C 477 835 461 801 451 761 C 441 721 436 679 436 633 C 436 593 439 553 447 514 C 455 474 468 439 488 408 C 507 377 533 352 567 333 C 600 314 642 305 694 305 Z" unicode="" />
<glyph horiz-adv-x="1276" d="M 915 649 L 606 649 C 615 623 622 597 628 570 C 634 542 637 515 637 487 C 637 452 631 417 621 381 C 611 345 593 313 569 283 C 593 277 615 272 636 268 C 656 264 676 260 695 257 C 713 253 731 251 749 249 C 767 247 785 246 805 246 C 859 246 913 252 969 265 C 1024 278 1082 296 1143 319 L 1143 53 C 1127 45 1108 36 1085 27 C 1061 17 1035 9 1007 1 C 979 -6 948 -12 916 -17 C 884 -22 851 -25 817 -25 C 788 -25 759 -23 730 -19 C 701 -15 671 -8 639 0 C 607 8 572 20 536 34 C 499 48 459 64 416 84 C 382 54 344 31 301 16 C 257 1 211 -6 162 -6 C 149 -6 136 -5 122 -4 C 108 -3 94 -2 82 0 C 70 2 58 4 48 7 C 38 10 30 14 25 18 L 25 260 C 41 258 58 256 77 254 C 95 252 114 252 133 252 C 171 252 203 257 230 268 C 257 278 279 293 297 311 C 315 329 328 351 336 375 C 344 399 348 425 348 453 C 348 485 343 518 333 550 C 323 582 310 615 295 649 L 25 649 L 25 829 L 209 829 C 191 868 177 908 165 949 C 153 990 147 1033 147 1077 C 147 1137 159 1191 183 1240 C 207 1289 243 1331 289 1366 C 335 1400 392 1427 459 1446 C 525 1465 601 1475 686 1475 C 748 1475 803 1470 853 1460 C 903 1450 946 1439 983 1426 C 1020 1413 1051 1400 1075 1386 C 1099 1372 1116 1362 1128 1354 L 989 1145 C 926 1171 870 1190 821 1202 C 771 1213 725 1219 682 1219 C 536 1219 463 1162 463 1049 C 463 1013 469 976 481 940 C 493 903 508 866 526 829 L 915 829 L 915 649 Z" unicode="" />
<glyph horiz-adv-x="1249" d="M 272 248 C 232 290 202 339 182 397 C 162 454 152 517 152 586 L 152 813 C 152 881 162 945 183 1003 C 203 1061 234 1111 274 1153 L 133 1446 L 356 1446 L 440 1253 C 466 1262 493 1269 522 1273 C 551 1277 582 1280 614 1280 C 651 1280 686 1277 718 1271 C 750 1265 780 1257 807 1247 L 895 1446 L 1122 1446 C 1106 1412 1089 1378 1072 1343 C 1057 1313 1041 1279 1023 1243 C 1005 1206 989 1171 973 1137 C 1009 1097 1036 1049 1055 993 C 1073 937 1083 877 1083 813 L 1083 586 C 1083 523 1073 464 1055 410 C 1036 355 1009 307 973 266 L 1122 -45 L 895 -45 C 879 -8 864 24 852 54 C 846 66 841 78 836 90 C 830 102 825 112 821 122 C 817 131 813 139 811 145 C 808 151 807 154 807 154 C 751 130 686 119 614 119 C 582 119 551 121 522 125 C 493 129 466 135 440 145 L 356 -45 L 133 -45 L 272 248 Z M 614 348 C 656 348 691 355 719 370 C 747 385 769 405 785 430 C 801 454 813 482 819 514 C 825 546 829 578 829 612 L 829 786 C 829 826 825 863 819 896 C 813 929 801 957 785 980 C 769 1002 747 1020 719 1032 C 691 1044 656 1051 614 1051 C 572 1051 537 1044 510 1032 C 483 1020 462 1002 447 980 C 431 957 421 929 415 896 C 409 863 406 826 406 786 L 406 612 C 406 571 409 534 415 502 C 421 469 431 441 447 419 C 462 396 483 378 510 366 C 537 354 572 348 614 348 Z" unicode="" />
<glyph horiz-adv-x="1276" d="M 395 1446 L 645 854 L 897 1446 L 1233 1446 L 1004 967 L 1221 967 L 1221 801 L 913 801 L 854 653 L 1221 653 L 1221 487 L 795 487 L 795 0 L 481 0 L 481 487 L 53 487 L 53 653 L 424 653 L 365 801 L 53 801 L 53 967 L 274 967 L 49 1446 L 395 1446 Z" unicode="" />
<glyph horiz-adv-x="918" d="M 614 1567 L 614 840 L 303 840 L 303 1567 L 614 1567 Z M 614 530 L 614 -195 L 303 -195 L 303 530 L 614 530 Z" unicode="" />
<glyph horiz-adv-x="1526" d="M 393 -129 C 449 -150 507 -168 568 -182 C 628 -196 685 -203 739 -203 C 770 -203 799 -200 825 -196 C 851 -192 874 -185 894 -175 C 913 -165 928 -153 939 -137 C 950 -121 956 -102 956 -80 C 956 -50 947 -25 930 -7 C 913 11 889 27 859 40 C 828 53 791 65 749 75 C 707 85 660 97 610 111 C 553 125 496 142 440 163 C 383 184 332 211 286 244 C 240 277 203 318 175 366 C 147 414 133 473 133 543 C 133 621 153 688 195 746 C 237 803 295 849 371 885 C 341 913 318 947 301 985 C 284 1023 276 1068 276 1120 C 276 1177 288 1228 312 1272 C 336 1316 369 1354 413 1384 C 457 1414 509 1436 571 1452 C 632 1467 700 1475 774 1475 C 844 1475 912 1468 976 1455 C 1040 1441 1097 1425 1149 1407 L 1116 1188 C 1062 1209 1006 1227 948 1241 C 889 1255 834 1262 782 1262 C 752 1262 724 1259 698 1255 C 672 1251 650 1244 631 1234 C 612 1224 597 1212 587 1196 C 576 1180 571 1161 571 1139 C 571 1109 579 1084 597 1066 C 614 1047 638 1031 669 1018 C 700 1004 737 992 780 982 C 822 972 869 960 920 948 C 958 938 996 927 1034 915 C 1072 903 1108 888 1144 872 C 1179 855 1212 836 1242 814 C 1272 792 1299 767 1322 739 C 1344 710 1362 677 1375 641 C 1388 605 1395 564 1395 518 C 1395 438 1374 370 1333 312 C 1291 254 1233 208 1159 172 C 1188 144 1211 111 1228 74 C 1244 36 1253 -7 1253 -59 C 1253 -117 1240 -168 1216 -212 C 1192 -256 1158 -294 1114 -324 C 1070 -354 1017 -377 955 -393 C 893 -408 824 -416 748 -416 C 674 -416 604 -409 538 -396 C 472 -382 412 -366 358 -348 L 393 -129 Z M 602 758 C 577 751 554 742 534 732 C 514 721 496 708 481 693 C 466 677 454 660 446 640 C 438 620 434 597 434 571 C 434 537 442 508 458 486 C 474 464 498 444 530 427 C 562 410 601 394 649 380 C 696 366 751 350 813 332 L 926 299 C 950 306 973 315 994 326 C 1014 337 1032 350 1047 366 C 1062 381 1074 399 1083 419 C 1091 439 1096 461 1096 487 C 1096 521 1088 549 1072 572 C 1056 595 1032 615 1000 632 C 968 649 929 665 882 679 C 834 693 779 709 717 727 L 602 758 Z" unicode="" />
<glyph horiz-adv-x="895" d="M 784 1470 L 784 1231 L 535 1231 L 535 1470 L 784 1470 Z M 356 1470 L 356 1231 L 106 1231 L 106 1470 L 356 1470 Z" unicode="" />
<glyph horiz-adv-x="1962" d="M 979 -219 C 896 -219 816 -208 739 -187 C 662 -166 590 -136 523 -98 C 455 -60 394 -14 339 39 C 284 93 237 153 198 219 C 158 285 128 356 106 432 C 84 508 74 587 74 670 C 74 752 84 830 106 906 C 128 981 158 1051 198 1117 C 237 1182 284 1241 339 1295 C 394 1348 455 1394 523 1432 C 590 1470 662 1500 739 1521 C 815 1541 895 1552 979 1552 C 1061 1552 1140 1541 1216 1521 C 1292 1500 1363 1470 1429 1432 C 1495 1394 1556 1348 1611 1295 C 1666 1241 1713 1182 1752 1117 C 1791 1051 1821 981 1843 906 C 1865 830 1876 752 1876 670 C 1876 587 1865 508 1843 432 C 1821 356 1791 285 1752 219 C 1713 153 1666 93 1611 39 C 1556 -14 1495 -60 1429 -98 C 1363 -136 1292 -166 1216 -187 C 1140 -208 1061 -219 979 -219 Z M 979 -39 C 1077 -39 1168 -20 1254 16 C 1339 52 1413 103 1477 167 C 1541 231 1591 306 1628 392 C 1664 478 1683 570 1683 670 C 1683 766 1664 856 1628 942 C 1591 1027 1541 1102 1477 1166 C 1413 1230 1339 1281 1254 1319 C 1168 1357 1077 1376 979 1376 C 915 1376 852 1367 792 1350 C 732 1333 675 1309 623 1278 C 570 1247 522 1210 478 1167 C 434 1123 396 1075 365 1023 C 333 971 309 915 292 855 C 274 795 266 734 266 670 C 266 604 274 540 292 480 C 309 419 333 362 365 310 C 396 257 434 209 478 167 C 522 124 570 87 623 57 C 675 26 732 2 792 -14 C 852 -30 915 -39 979 -39 Z M 1262 864 C 1220 887 1179 904 1139 914 C 1099 924 1061 930 1026 930 C 988 930 953 923 922 910 C 891 896 865 878 843 854 C 821 830 804 803 792 771 C 780 739 774 706 774 670 C 774 634 781 601 795 572 C 809 543 827 519 851 499 C 874 479 901 463 933 452 C 964 441 997 436 1032 436 C 1080 436 1123 440 1161 450 C 1199 460 1236 471 1274 485 L 1366 313 C 1342 301 1318 289 1294 279 C 1269 268 1242 259 1214 251 C 1185 243 1154 237 1120 233 C 1086 229 1048 227 1006 227 C 937 227 872 237 812 258 C 751 279 698 309 653 348 C 608 386 573 433 547 488 C 521 542 508 603 508 670 C 508 735 519 796 543 853 C 566 910 599 960 642 1002 C 684 1044 736 1078 797 1102 C 857 1126 925 1139 999 1139 C 1030 1139 1061 1136 1093 1131 C 1125 1126 1156 1119 1187 1111 C 1217 1103 1247 1093 1276 1081 C 1304 1069 1331 1056 1356 1042 L 1262 864 Z" unicode="" />
<glyph horiz-adv-x="936" d="M 92 1386 C 106 1397 124 1409 146 1421 C 168 1433 194 1445 225 1455 C 255 1465 290 1474 330 1481 C 369 1487 413 1491 461 1491 C 518 1491 569 1485 614 1474 C 658 1463 696 1446 727 1422 C 757 1398 781 1367 797 1329 C 813 1291 821 1246 821 1194 L 821 848 C 821 793 826 748 836 714 C 846 680 856 654 866 637 L 621 637 C 615 647 609 662 602 682 C 594 702 590 726 588 756 C 561 712 526 678 484 652 C 441 626 388 614 326 614 C 287 614 252 619 220 630 C 188 640 161 656 138 677 C 115 698 97 724 85 756 C 72 788 66 825 66 868 C 66 910 73 948 89 982 C 104 1016 131 1046 170 1071 C 209 1096 262 1116 329 1131 C 395 1146 480 1155 582 1159 L 582 1196 C 582 1241 571 1272 549 1289 C 527 1306 495 1315 451 1315 C 406 1315 363 1308 322 1296 C 281 1283 238 1263 193 1237 L 92 1386 Z M 582 1036 C 522 1028 474 1019 437 1009 C 400 999 371 987 351 974 C 330 961 316 947 308 932 C 300 916 297 900 297 883 C 297 851 306 827 326 810 C 346 792 374 784 410 784 C 435 784 458 787 480 795 C 501 803 519 814 534 828 C 549 842 561 858 569 878 C 577 897 582 918 582 942 L 582 1036 Z" unicode="" />
<glyph horiz-adv-x="1194" d="M 612 924 L 301 578 L 612 231 L 338 231 L 74 510 L 74 647 L 338 924 L 612 924 Z M 1128 924 L 819 578 L 1128 231 L 854 231 L 590 510 L 590 647 L 854 924 L 1128 924 Z" unicode="" />
<glyph horiz-adv-x="1249" d="M 1188 1008 L 1188 215 L 911 215 L 911 745 L 61 745 L 61 1008 L 1188 1008 Z" unicode="" />
<glyph horiz-adv-x="707" d="M 618 748 L 618 479 L 86 479 L 86 748 L 618 748 Z" unicode="" />
<glyph horiz-adv-x="1083" d="M 535 500 C 464 500 398 512 337 538 C 275 563 222 597 177 641 C 131 685 96 736 70 796 C 44 855 31 919 31 987 C 31 1053 44 1116 70 1176 C 96 1236 131 1288 177 1333 C 222 1378 275 1414 337 1440 C 398 1466 464 1479 535 1479 C 605 1479 672 1466 734 1440 C 796 1414 850 1378 896 1333 C 942 1288 978 1236 1004 1176 C 1030 1116 1044 1053 1044 987 C 1044 919 1030 855 1004 796 C 978 736 942 685 896 641 C 850 597 796 563 734 538 C 672 512 605 500 535 500 Z M 328 760 L 328 1249 L 610 1249 C 636 1249 660 1245 682 1237 C 704 1229 724 1218 740 1204 C 756 1190 768 1173 777 1153 C 786 1133 791 1112 791 1090 C 791 1062 783 1035 767 1010 C 751 984 726 965 692 952 L 805 760 L 666 760 L 569 934 L 446 934 L 446 760 L 328 760 Z M 446 1153 L 446 1030 L 602 1030 C 612 1030 621 1031 629 1035 C 637 1039 645 1044 651 1050 C 657 1056 661 1062 665 1070 C 668 1077 670 1084 670 1092 C 670 1108 663 1122 651 1134 C 638 1146 622 1153 604 1153 L 446 1153 Z M 537 592 C 594 592 647 602 697 623 C 747 643 790 672 827 708 C 864 744 893 786 914 834 C 935 882 946 934 946 989 C 946 1043 935 1094 914 1142 C 893 1190 864 1233 827 1269 C 790 1305 747 1334 697 1356 C 647 1378 594 1389 537 1389 C 479 1389 425 1378 375 1357 C 325 1335 282 1306 246 1270 C 209 1234 180 1191 160 1143 C 139 1094 129 1043 129 989 C 129 933 139 881 160 833 C 180 785 209 743 246 707 C 282 671 325 643 375 623 C 425 602 479 592 537 592 Z" unicode="" />
<glyph horiz-adv-x="895" d="M 719 1430 L 719 1245 L 174 1245 L 174 1430 L 719 1430 Z" unicode="" />
<glyph horiz-adv-x="817" d="M 410 1483 C 468 1483 517 1473 559 1454 C 600 1434 634 1408 661 1375 C 687 1341 707 1302 720 1256 C 732 1210 739 1162 739 1110 C 739 1058 733 1008 721 962 C 709 915 689 874 663 839 C 637 803 603 775 561 754 C 519 733 469 723 410 723 C 350 723 299 733 258 754 C 216 775 183 803 157 839 C 131 874 112 915 101 961 C 89 1007 84 1056 84 1106 C 84 1160 90 1210 102 1256 C 114 1302 133 1341 159 1375 C 185 1409 218 1435 260 1454 C 301 1473 351 1483 410 1483 Z M 412 1315 C 382 1315 357 1309 339 1298 C 320 1287 305 1272 294 1254 C 283 1235 276 1213 272 1189 C 268 1164 266 1138 266 1110 C 266 1088 267 1065 270 1039 C 273 1013 280 989 290 967 C 300 945 315 926 335 911 C 354 896 380 889 412 889 C 442 889 466 895 484 908 C 502 921 517 938 527 959 C 537 980 544 1004 548 1030 C 551 1056 553 1082 553 1108 C 553 1132 551 1157 548 1182 C 544 1207 537 1229 527 1249 C 517 1268 502 1284 484 1296 C 466 1308 442 1315 412 1315 Z" unicode="" />
<glyph horiz-adv-x="1249" d="M 1188 262 L 1188 0 L 61 0 L 61 262 L 1188 262 Z M 766 1356 L 766 1006 L 1188 1006 L 1188 741 L 766 741 L 766 387 L 487 387 L 487 741 L 61 741 L 61 1006 L 487 1006 L 487 1356 L 766 1356 Z" unicode="" />
<glyph horiz-adv-x="854" d="M 84 1243 C 94 1267 108 1293 126 1319 C 144 1345 166 1369 194 1391 C 221 1413 254 1431 293 1445 C 332 1459 378 1466 432 1466 C 473 1466 513 1460 552 1450 C 590 1440 625 1424 655 1402 C 685 1380 709 1353 727 1319 C 745 1285 754 1244 754 1198 C 754 1176 751 1154 746 1132 C 741 1109 732 1086 720 1062 C 708 1038 691 1013 669 988 C 647 962 620 937 586 911 L 367 729 L 756 729 L 756 549 L 90 549 L 90 729 L 326 932 C 353 954 379 975 403 997 C 427 1018 448 1039 466 1060 C 484 1080 498 1101 508 1121 C 518 1141 524 1160 524 1180 C 524 1192 521 1205 517 1217 C 512 1229 505 1240 496 1250 C 486 1259 475 1267 461 1273 C 447 1279 432 1282 414 1282 C 384 1282 357 1272 332 1253 C 306 1234 283 1204 262 1163 L 84 1243 Z" unicode="" />
<glyph horiz-adv-x="848" d="M 66 1315 C 78 1333 94 1352 116 1370 C 138 1388 163 1405 193 1419 C 223 1433 256 1444 293 1453 C 329 1461 368 1466 410 1466 C 446 1466 482 1461 520 1453 C 557 1445 591 1431 621 1413 C 651 1395 676 1371 696 1342 C 715 1313 725 1278 725 1237 C 725 1211 721 1189 714 1170 C 707 1150 698 1133 686 1119 C 674 1105 661 1093 647 1083 C 632 1073 617 1066 602 1061 L 602 1051 C 618 1048 636 1042 655 1034 C 674 1026 691 1014 707 998 C 723 982 736 963 746 939 C 756 915 762 886 762 852 C 762 800 749 755 724 715 C 699 675 663 641 617 613 C 570 585 513 564 447 550 C 380 535 305 528 223 528 C 197 528 176 528 159 529 C 142 529 129 531 119 535 L 106 723 C 119 721 135 721 155 721 C 175 721 197 721 223 721 C 328 721 408 733 462 757 C 516 781 543 814 543 856 C 543 884 533 904 514 918 C 495 931 472 938 444 938 C 438 938 432 937 425 937 C 417 936 407 935 395 933 C 382 931 367 928 349 925 C 331 921 309 917 283 911 L 248 1073 L 375 1092 C 391 1094 407 1098 424 1104 C 440 1109 455 1116 469 1125 C 482 1134 493 1145 501 1158 C 509 1170 514 1185 514 1202 C 514 1228 503 1250 483 1266 C 462 1282 435 1290 401 1290 C 369 1290 339 1282 311 1268 C 282 1253 249 1230 211 1198 L 66 1315 Z" unicode="" />
<glyph horiz-adv-x="895" d="M 301 1272 L 553 1530 L 772 1530 L 772 1436 L 461 1204 L 301 1204 L 301 1272 Z" unicode="" />
<glyph horiz-adv-x="1249" d="M 436 1077 L 436 373 C 436 355 438 337 444 318 C 449 299 458 282 472 266 C 485 250 503 238 527 228 C 551 218 581 213 618 213 C 642 213 666 217 690 225 C 713 233 734 245 752 260 C 770 275 785 293 796 315 C 807 337 813 361 813 389 L 813 1077 L 1108 1077 L 1108 274 C 1108 203 1114 145 1127 101 C 1140 56 1153 22 1165 0 L 879 0 C 872 13 864 34 854 63 C 844 92 838 126 836 164 C 814 128 793 98 771 74 C 749 50 727 30 703 16 C 679 2 653 -8 627 -14 C 601 -20 573 -23 543 -23 C 513 -23 483 -16 454 -2 C 425 12 402 28 385 47 L 377 39 L 418 -139 L 418 -451 L 141 -451 L 141 1077 L 436 1077 Z" unicode="" />
<glyph horiz-adv-x="1616" d="M 1384 1446 L 1384 -451 L 1124 -451 L 1124 1237 L 895 1237 L 895 -451 L 635 -451 L 635 512 L 563 512 C 498 512 444 520 401 536 C 357 552 319 576 287 606 C 263 628 243 653 227 682 C 210 710 196 741 185 775 C 173 809 165 844 160 882 C 154 919 152 957 152 997 C 152 1067 160 1132 178 1190 C 195 1248 224 1299 264 1341 C 296 1374 336 1400 385 1418 C 433 1436 493 1446 563 1446 L 1384 1446 Z" unicode="" />
<glyph horiz-adv-x="594" d="M 485 745 L 485 381 L 109 381 L 109 745 L 485 745 Z" unicode="" />
<glyph horiz-adv-x="895" d="M 500 8 L 602 -104 C 618 -121 632 -141 644 -164 C 656 -187 662 -216 662 -250 C 662 -283 655 -312 642 -337 C 629 -362 611 -383 587 -400 C 563 -417 534 -430 500 -438 C 466 -446 427 -451 385 -451 C 347 -451 313 -447 281 -441 C 249 -434 224 -423 205 -408 L 225 -268 C 231 -272 241 -277 253 -281 C 265 -285 277 -288 291 -291 C 305 -293 319 -295 333 -297 C 347 -298 359 -299 369 -299 C 377 -299 385 -298 394 -297 C 403 -295 411 -293 419 -289 C 427 -285 433 -279 438 -271 C 443 -263 446 -254 446 -242 C 446 -226 441 -214 433 -205 C 425 -195 416 -185 406 -174 L 348 -117 C 344 -113 340 -107 336 -99 C 332 -91 330 -83 330 -74 L 330 8 L 500 8 Z" unicode="" />
<glyph horiz-adv-x="555" d="M 221 1446 L 412 1446 L 403 1350 L 403 549 L 182 549 L 182 1225 L 186 1264 L 182 1264 L 43 1200 L 43 1382 L 221 1446 Z" unicode="" />
<glyph horiz-adv-x="963" d="M 479 1298 C 445 1298 417 1291 397 1279 C 376 1266 360 1249 348 1227 C 336 1205 329 1180 325 1151 C 321 1122 319 1091 319 1059 C 319 1029 320 999 323 969 C 326 939 333 912 344 888 C 355 864 371 844 393 829 C 415 814 444 807 481 807 C 515 807 543 813 565 827 C 586 841 602 859 614 882 C 626 905 633 932 637 962 C 641 992 643 1025 643 1059 C 643 1089 641 1118 638 1146 C 634 1174 627 1200 616 1223 C 604 1245 588 1263 566 1277 C 544 1291 515 1298 479 1298 Z M 481 1491 C 541 1491 597 1481 647 1462 C 697 1443 740 1415 776 1378 C 812 1341 840 1296 860 1242 C 880 1188 891 1127 893 1059 C 892 993 882 933 864 879 C 845 824 818 777 783 738 C 748 698 705 668 654 646 C 603 624 545 614 481 614 C 419 614 363 624 313 644 C 263 664 220 694 184 732 C 148 770 121 816 101 871 C 81 926 72 989 72 1059 C 72 1123 81 1182 100 1236 C 119 1289 146 1334 182 1372 C 217 1410 260 1439 310 1460 C 360 1480 417 1491 481 1491 Z" unicode="" />
<glyph horiz-adv-x="1194" d="M 858 924 L 1122 647 L 1122 510 L 858 231 L 584 231 L 893 578 L 584 924 L 858 924 Z M 340 924 L 606 647 L 606 510 L 340 231 L 68 231 L 377 578 L 68 924 L 340 924 Z" unicode="" />
<glyph horiz-adv-x="1708" d="M 221 1446 L 412 1446 L 403 1350 L 403 549 L 182 549 L 182 1225 L 186 1264 L 182 1264 L 43 1200 L 43 1382 L 221 1446 Z M 1282 1446 L 477 0 L 260 0 L 1065 1446 L 1282 1446 Z M 1532 898 L 1532 337 L 1642 337 L 1642 169 L 1532 169 L 1532 1 L 1313 1 L 1313 169 L 930 169 L 930 339 L 1290 898 L 1532 898 Z M 1093 337 L 1313 337 L 1313 556 L 1321 669 L 1315 671 L 1093 337 Z" unicode="" />
<glyph horiz-adv-x="1837" d="M 221 1446 L 412 1446 L 403 1350 L 403 549 L 182 549 L 182 1225 L 186 1264 L 182 1264 L 43 1200 L 43 1382 L 221 1446 Z M 1282 1446 L 477 0 L 260 0 L 1065 1446 L 1282 1446 Z M 1069 695 C 1079 719 1093 745 1111 771 C 1129 797 1151 821 1179 843 C 1206 865 1239 883 1278 897 C 1317 911 1363 918 1417 918 C 1458 918 1498 912 1537 902 C 1575 892 1610 876 1640 854 C 1670 832 1694 805 1712 771 C 1730 737 1739 696 1739 650 C 1739 628 1736 606 1731 584 C 1726 561 1717 538 1705 514 C 1693 490 1676 465 1654 440 C 1632 414 1605 389 1571 363 L 1352 181 L 1741 181 L 1741 1 L 1075 1 L 1075 181 L 1311 384 C 1338 406 1364 427 1388 449 C 1412 470 1433 491 1451 512 C 1469 532 1483 553 1493 573 C 1503 593 1509 612 1509 632 C 1509 644 1506 657 1502 669 C 1497 681 1490 692 1481 702 C 1471 711 1460 719 1446 725 C 1432 731 1417 734 1399 734 C 1369 734 1342 724 1317 705 C 1291 686 1268 656 1247 615 L 1069 695 Z" unicode="" />
<glyph horiz-adv-x="1972" d="M 66 1315 C 78 1333 94 1352 116 1370 C 138 1388 163 1405 193 1419 C 223 1433 256 1444 293 1453 C 329 1461 368 1466 410 1466 C 446 1466 482 1461 520 1453 C 557 1445 591 1431 621 1413 C 651 1395 676 1371 696 1342 C 715 1313 725 1278 725 1237 C 725 1211 721 1189 714 1170 C 707 1150 698 1133 686 1119 C 674 1105 661 1093 647 1083 C 632 1073 617 1066 602 1061 L 602 1051 C 618 1048 636 1042 655 1034 C 674 1026 691 1014 707 998 C 723 982 736 963 746 939 C 756 915 762 886 762 852 C 762 800 749 755 724 715 C 699 675 663 641 617 613 C 570 585 513 564 447 550 C 380 535 305 528 223 528 C 197 528 176 528 159 529 C 142 529 129 531 119 535 L 106 723 C 119 721 135 721 155 721 C 175 721 197 721 223 721 C 328 721 408 733 462 757 C 516 781 543 814 543 856 C 543 884 533 904 514 918 C 495 931 472 938 444 938 C 438 938 432 937 425 937 C 417 936 407 935 395 933 C 382 931 367 928 349 925 C 331 921 309 917 283 911 L 248 1073 L 375 1092 C 391 1094 407 1098 424 1104 C 440 1109 455 1116 469 1125 C 482 1134 493 1145 501 1158 C 509 1170 514 1185 514 1202 C 514 1228 503 1250 483 1266 C 462 1282 435 1290 401 1290 C 369 1290 339 1282 311 1268 C 282 1253 249 1230 211 1198 L 66 1315 Z M 1546 1446 L 741 0 L 524 0 L 1329 1446 L 1546 1446 Z M 1795 898 L 1795 337 L 1905 337 L 1905 169 L 1795 169 L 1795 1 L 1576 1 L 1576 169 L 1193 169 L 1193 339 L 1553 898 L 1795 898 Z M 1356 337 L 1576 337 L 1576 556 L 1584 669 L 1578 671 L 1356 337 Z" unicode="" />
<glyph horiz-adv-x="944" d="M 887 127 C 868 106 843 86 813 66 C 782 46 747 29 709 14 C 670 -1 628 -13 584 -23 C 540 -32 495 -37 451 -37 C 391 -37 336 -28 288 -11 C 239 5 197 29 163 60 C 128 91 101 128 83 172 C 64 215 55 263 55 317 C 55 361 60 401 72 436 C 84 470 100 503 121 533 C 141 563 165 592 193 621 C 220 649 249 680 281 713 C 305 737 325 759 341 777 C 357 795 370 812 380 828 C 390 844 397 861 401 879 C 405 896 408 916 408 940 L 676 940 C 676 912 675 887 673 865 C 671 843 667 822 662 803 C 656 784 649 766 639 748 C 629 730 616 710 600 690 C 584 670 564 647 540 623 C 516 598 489 570 457 539 C 439 522 423 506 408 491 C 392 475 379 460 368 445 C 356 429 347 413 341 396 C 335 379 332 361 332 342 C 332 319 336 300 344 284 C 352 268 363 256 377 246 C 390 236 405 228 423 224 C 441 219 459 217 479 217 C 518 217 560 224 606 240 C 652 256 701 281 754 315 L 887 127 Z M 369 1116 L 369 1446 L 698 1446 L 698 1116 L 369 1116 Z" unicode="" />
<glyph horiz-adv-x="1436" d="M 899 1446 L 1403 0 L 1049 0 L 965 287 L 444 287 L 358 0 L 31 0 L 547 1446 L 899 1446 Z M 659 971 L 524 543 L 887 543 L 754 971 L 719 1110 L 698 1110 L 659 971 Z M 866 1575 L 706 1575 L 393 1807 L 393 1901 L 612 1901 L 866 1643 L 866 1575 Z" unicode="" />
<glyph horiz-adv-x="1436" d="M 899 1446 L 1403 0 L 1049 0 L 965 287 L 444 287 L 358 0 L 31 0 L 547 1446 L 899 1446 Z M 659 971 L 524 543 L 887 543 L 754 971 L 719 1110 L 698 1110 L 659 971 Z M 571 1643 L 823 1901 L 1042 1901 L 1042 1807 L 731 1575 L 571 1575 L 571 1643 Z" unicode="" />
<glyph horiz-adv-x="1436" d="M 899 1446 L 1403 0 L 1049 0 L 965 287 L 444 287 L 358 0 L 31 0 L 547 1446 L 899 1446 Z M 659 971 L 524 543 L 887 543 L 754 971 L 719 1110 L 698 1110 L 659 971 Z M 803 1901 L 1029 1639 L 1029 1575 L 926 1575 L 724 1731 L 711 1731 L 509 1575 L 408 1575 L 408 1639 L 633 1901 L 803 1901 Z" unicode="" />
<glyph horiz-adv-x="1436" d="M 899 1446 L 1403 0 L 1049 0 L 965 287 L 444 287 L 358 0 L 31 0 L 547 1446 L 899 1446 Z M 659 971 L 524 543 L 887 543 L 754 971 L 719 1110 L 698 1110 L 659 971 Z M 833 1561 C 817 1561 803 1562 791 1565 C 778 1567 766 1571 754 1577 C 742 1583 730 1590 718 1598 C 706 1606 694 1617 680 1629 L 632 1664 C 622 1673 612 1680 604 1685 C 596 1689 587 1692 579 1692 C 569 1692 561 1690 553 1686 C 545 1682 536 1675 526 1664 L 465 1604 L 338 1698 L 417 1786 C 448 1819 480 1843 513 1857 C 545 1871 574 1879 600 1879 C 615 1879 629 1877 642 1875 C 655 1872 668 1868 680 1862 C 692 1856 704 1849 716 1841 C 728 1833 741 1823 755 1811 L 800 1776 C 810 1766 820 1759 829 1754 C 838 1749 846 1747 854 1747 C 870 1747 889 1756 909 1776 L 970 1838 L 1095 1741 L 1015 1655 C 984 1621 953 1596 921 1582 C 889 1568 859 1561 833 1561 Z" unicode="" />
<glyph horiz-adv-x="1436" d="M 899 1446 L 1403 0 L 1049 0 L 965 287 L 444 287 L 358 0 L 31 0 L 547 1446 L 899 1446 Z M 659 971 L 524 543 L 887 543 L 754 971 L 719 1110 L 698 1110 L 659 971 Z M 1055 1828 L 1055 1589 L 806 1589 L 806 1828 L 1055 1828 Z M 627 1828 L 627 1589 L 377 1589 L 377 1828 L 627 1828 Z" unicode="" />
<glyph horiz-adv-x="1436" d="M 899 1446 L 1403 0 L 1049 0 L 965 287 L 444 287 L 358 0 L 31 0 L 547 1446 L 899 1446 Z M 659 971 L 524 543 L 887 543 L 754 971 L 719 1110 L 698 1110 L 659 971 Z M 469 1772 C 469 1804 475 1835 488 1864 C 500 1892 518 1917 541 1939 C 564 1961 591 1978 623 1990 C 654 2002 689 2009 727 2009 C 765 2009 799 2002 831 1990 C 862 1978 889 1961 912 1939 C 934 1917 952 1892 964 1864 C 976 1835 983 1804 983 1772 C 983 1739 976 1708 964 1679 C 952 1650 934 1625 912 1604 C 889 1582 862 1565 831 1553 C 799 1540 765 1534 727 1534 C 689 1534 654 1540 623 1553 C 591 1565 564 1582 541 1604 C 518 1625 500 1650 488 1679 C 475 1708 469 1739 469 1772 Z M 727 1891 C 711 1891 695 1887 681 1881 C 667 1875 654 1866 644 1856 C 633 1845 624 1832 618 1818 C 612 1803 609 1788 609 1772 C 609 1756 612 1740 618 1726 C 624 1712 633 1699 644 1689 C 654 1679 667 1670 681 1664 C 695 1658 711 1655 727 1655 C 743 1655 758 1658 772 1664 C 786 1670 799 1679 809 1689 C 819 1699 828 1712 834 1726 C 840 1740 844 1756 844 1772 C 844 1788 840 1803 834 1818 C 828 1832 819 1845 809 1856 C 799 1866 786 1875 772 1881 C 758 1887 743 1891 727 1891 Z" unicode="" />
<glyph horiz-adv-x="2073" d="M 1962 0 L 932 0 L 932 311 L 451 311 L 276 0 L -63 0 L 778 1446 L 1942 1446 L 1942 1194 L 1241 1194 L 1241 872 L 1847 872 L 1847 616 L 1241 616 L 1241 252 L 1962 252 L 1962 0 Z M 846 1020 L 590 563 L 932 563 L 932 1171 L 911 1171 L 846 1020 Z" unicode="" />
<glyph horiz-adv-x="1350" d="M 1247 80 C 1199 48 1138 23 1064 3 C 990 -17 903 -27 805 -27 L 877 -104 C 893 -121 906 -141 918 -164 C 930 -187 936 -216 936 -250 C 936 -283 929 -312 916 -337 C 903 -362 885 -383 861 -400 C 837 -417 808 -430 774 -438 C 740 -446 701 -451 659 -451 C 622 -451 588 -447 556 -441 C 524 -434 498 -423 479 -408 L 500 -268 C 506 -272 515 -277 527 -281 C 539 -285 551 -288 565 -291 C 579 -293 593 -295 607 -297 C 621 -298 633 -299 643 -299 C 651 -299 659 -298 669 -297 C 678 -295 686 -293 694 -289 C 702 -285 708 -279 713 -271 C 718 -263 721 -254 721 -242 C 721 -226 716 -214 708 -205 C 699 -195 690 -185 680 -174 L 623 -117 C 618 -113 614 -107 610 -99 C 606 -91 604 -83 604 -74 L 604 -4 C 518 14 444 45 381 88 C 317 130 264 183 222 245 C 180 307 148 378 127 458 C 106 538 96 624 96 717 C 96 821 111 919 143 1011 C 175 1103 221 1183 283 1252 C 344 1320 419 1375 509 1415 C 598 1455 701 1475 817 1475 C 913 1475 996 1465 1068 1445 C 1139 1425 1199 1399 1247 1368 L 1180 1110 C 1156 1122 1132 1134 1107 1146 C 1081 1157 1054 1167 1024 1176 C 994 1184 962 1191 927 1196 C 892 1201 853 1204 811 1204 C 741 1204 681 1191 631 1166 C 581 1141 541 1107 509 1063 C 477 1019 454 969 440 911 C 425 853 418 791 418 725 C 418 667 424 610 437 553 C 450 495 472 444 502 398 C 532 352 573 315 623 287 C 673 258 736 244 811 244 C 852 244 890 246 925 251 C 959 255 992 262 1022 270 C 1052 278 1080 288 1106 300 C 1132 311 1158 323 1182 336 L 1247 80 L 1247 80 Z" unicode="" />
<glyph horiz-adv-x="1315" d="M 1184 1446 L 1184 1194 L 483 1194 L 483 872 L 1087 872 L 1087 616 L 483 616 L 483 252 L 1204 252 L 1204 0 L 172 0 L 172 1446 L 1184 1446 Z M 828 1575 L 668 1575 L 355 1807 L 355 1901 L 574 1901 L 828 1643 L 828 1575 Z" unicode="" />
<glyph horiz-adv-x="1315" d="M 1184 1446 L 1184 1194 L 483 1194 L 483 872 L 1087 872 L 1087 616 L 483 616 L 483 252 L 1204 252 L 1204 0 L 172 0 L 172 1446 L 1184 1446 Z M 535 1643 L 787 1901 L 1006 1901 L 1006 1807 L 695 1575 L 535 1575 L 535 1643 Z" unicode="" />
<glyph horiz-adv-x="1315" d="M 1184 1446 L 1184 1194 L 483 1194 L 483 872 L 1087 872 L 1087 616 L 483 616 L 483 252 L 1204 252 L 1204 0 L 172 0 L 172 1446 L 1184 1446 Z M 766 1901 L 992 1639 L 992 1575 L 889 1575 L 687 1731 L 674 1731 L 472 1575 L 371 1575 L 371 1639 L 596 1901 L 766 1901 Z" unicode="" />
<glyph horiz-adv-x="1315" d="M 1184 1446 L 1184 1194 L 483 1194 L 483 872 L 1087 872 L 1087 616 L 483 616 L 483 252 L 1204 252 L 1204 0 L 172 0 L 172 1446 L 1184 1446 Z M 1018 1828 L 1018 1589 L 769 1589 L 769 1828 L 1018 1828 Z M 590 1828 L 590 1589 L 340 1589 L 340 1828 L 590 1828 Z" unicode="" />
<glyph horiz-adv-x="655" d="M 483 1446 L 483 0 L 172 0 L 172 1446 L 483 1446 Z M 484 1573 L 324 1573 L 11 1805 L 11 1899 L 230 1899 L 484 1641 L 484 1573 Z" unicode="" />
<glyph horiz-adv-x="655" d="M 483 1446 L 483 0 L 172 0 L 172 1446 L 483 1446 Z M 173 1641 L 425 1899 L 644 1899 L 644 1805 L 333 1573 L 173 1573 L 173 1641 Z" unicode="" />
<glyph horiz-adv-x="655" d="M 483 1446 L 483 0 L 172 0 L 172 1446 L 483 1446 Z M 412 1899 L 638 1637 L 638 1573 L 535 1573 L 333 1729 L 320 1729 L 118 1573 L 17 1573 L 17 1637 L 242 1899 L 412 1899 Z" unicode="" />
<glyph horiz-adv-x="655" d="M 483 1446 L 483 0 L 172 0 L 172 1446 L 483 1446 Z M 666 1827 L 666 1588 L 417 1588 L 417 1827 L 666 1827 Z M 238 1827 L 238 1588 L -12 1588 L -12 1827 L 238 1827 Z" unicode="" />
<glyph horiz-adv-x="1571" d="M 57 868 L 213 868 L 213 1446 L 743 1446 C 844 1446 939 1431 1029 1402 C 1118 1372 1196 1328 1263 1269 C 1329 1209 1382 1135 1421 1046 C 1459 957 1479 853 1479 733 C 1479 649 1470 572 1452 503 C 1434 434 1410 372 1378 318 C 1346 264 1307 217 1262 177 C 1217 137 1167 103 1113 77 C 1059 51 1000 31 938 19 C 875 6 810 0 743 0 L 213 0 L 213 627 L 57 627 L 57 868 Z M 524 868 L 838 868 L 838 627 L 524 627 L 524 252 L 696 252 C 780 252 851 264 910 290 C 968 315 1016 349 1052 393 C 1088 437 1115 488 1132 546 C 1148 604 1157 667 1157 733 C 1157 790 1149 846 1133 902 C 1117 957 1091 1006 1055 1050 C 1019 1093 971 1128 913 1154 C 854 1180 782 1194 696 1194 L 524 1194 L 524 868 Z" unicode="" />
<glyph horiz-adv-x="1552" d="M 172 1446 L 553 1446 L 954 696 L 1077 428 L 1098 428 L 1075 784 L 1075 1446 L 1380 1446 L 1380 0 L 1008 0 L 596 750 L 473 1018 L 453 1018 L 477 662 L 477 0 L 172 0 L 172 1446 Z M 903 1561 C 887 1561 873 1562 861 1565 C 848 1567 836 1571 824 1577 C 812 1583 800 1590 788 1598 C 776 1606 764 1617 750 1629 L 702 1664 C 692 1673 682 1680 674 1685 C 666 1689 657 1692 649 1692 C 639 1692 631 1690 623 1686 C 615 1682 606 1675 596 1664 L 535 1604 L 408 1698 L 487 1786 C 518 1819 550 1843 583 1857 C 615 1871 644 1879 670 1879 C 685 1879 699 1877 712 1875 C 725 1872 738 1868 750 1862 C 762 1856 774 1849 786 1841 C 798 1833 811 1823 825 1811 L 870 1776 C 880 1766 890 1759 899 1754 C 908 1749 916 1747 924 1747 C 940 1747 959 1756 979 1776 L 1040 1838 L 1165 1741 L 1085 1655 C 1054 1621 1023 1596 991 1582 C 959 1568 929 1561 903 1561 Z" unicode="" />
<glyph horiz-adv-x="1608" d="M 805 1475 C 904 1475 997 1459 1083 1429 C 1169 1398 1243 1352 1307 1290 C 1371 1228 1421 1150 1458 1056 C 1494 962 1513 851 1513 725 C 1513 599 1493 490 1455 396 C 1417 302 1365 223 1300 161 C 1235 98 1160 51 1074 20 C 988 -11 899 -27 805 -27 C 703 -27 609 -12 523 18 C 437 48 362 94 299 156 C 235 218 186 296 150 391 C 114 485 96 597 96 727 C 96 852 114 961 151 1055 C 187 1149 237 1227 301 1289 C 365 1351 440 1397 526 1428 C 612 1459 705 1475 805 1475 Z M 805 1206 C 739 1206 681 1194 633 1170 C 584 1146 543 1112 511 1070 C 479 1027 455 976 439 917 C 423 857 416 793 416 723 C 416 657 423 595 438 537 C 453 479 476 428 508 384 C 539 340 579 306 628 280 C 676 254 735 242 803 242 C 869 242 927 253 977 277 C 1026 300 1067 333 1099 375 C 1131 417 1154 468 1170 527 C 1186 586 1194 651 1194 723 C 1194 789 1186 852 1171 911 C 1156 969 1133 1020 1101 1064 C 1069 1108 1029 1142 980 1168 C 931 1193 873 1206 805 1206 Z M 952 1575 L 792 1575 L 479 1807 L 479 1901 L 698 1901 L 952 1643 L 952 1575 Z" unicode="" />
<glyph horiz-adv-x="1608" d="M 805 1475 C 904 1475 997 1459 1083 1429 C 1169 1398 1243 1352 1307 1290 C 1371 1228 1421 1150 1458 1056 C 1494 962 1513 851 1513 725 C 1513 599 1493 490 1455 396 C 1417 302 1365 223 1300 161 C 1235 98 1160 51 1074 20 C 988 -11 899 -27 805 -27 C 703 -27 609 -12 523 18 C 437 48 362 94 299 156 C 235 218 186 296 150 391 C 114 485 96 597 96 727 C 96 852 114 961 151 1055 C 187 1149 237 1227 301 1289 C 365 1351 440 1397 526 1428 C 612 1459 705 1475 805 1475 Z M 805 1206 C 739 1206 681 1194 633 1170 C 584 1146 543 1112 511 1070 C 479 1027 455 976 439 917 C 423 857 416 793 416 723 C 416 657 423 595 438 537 C 453 479 476 428 508 384 C 539 340 579 306 628 280 C 676 254 735 242 803 242 C 869 242 927 253 977 277 C 1026 300 1067 333 1099 375 C 1131 417 1154 468 1170 527 C 1186 586 1194 651 1194 723 C 1194 789 1186 852 1171 911 C 1156 969 1133 1020 1101 1064 C 1069 1108 1029 1142 980 1168 C 931 1193 873 1206 805 1206 Z M 657 1644 L 909 1902 L 1128 1902 L 1128 1808 L 817 1576 L 657 1576 L 657 1644 Z" unicode="" />
<glyph horiz-adv-x="1608" d="M 805 1475 C 904 1475 997 1459 1083 1429 C 1169 1398 1243 1352 1307 1290 C 1371 1228 1421 1150 1458 1056 C 1494 962 1513 851 1513 725 C 1513 599 1493 490 1455 396 C 1417 302 1365 223 1300 161 C 1235 98 1160 51 1074 20 C 988 -11 899 -27 805 -27 C 703 -27 609 -12 523 18 C 437 48 362 94 299 156 C 235 218 186 296 150 391 C 114 485 96 597 96 727 C 96 852 114 961 151 1055 C 187 1149 237 1227 301 1289 C 365 1351 440 1397 526 1428 C 612 1459 705 1475 805 1475 Z M 805 1206 C 739 1206 681 1194 633 1170 C 584 1146 543 1112 511 1070 C 479 1027 455 976 439 917 C 423 857 416 793 416 723 C 416 657 423 595 438 537 C 453 479 476 428 508 384 C 539 340 579 306 628 280 C 676 254 735 242 803 242 C 869 242 927 253 977 277 C 1026 300 1067 333 1099 375 C 1131 417 1154 468 1170 527 C 1186 586 1194 651 1194 723 C 1194 789 1186 852 1171 911 C 1156 969 1133 1020 1101 1064 C 1069 1108 1029 1142 980 1168 C 931 1193 873 1206 805 1206 Z M 889 1901 L 1115 1639 L 1115 1575 L 1012 1575 L 810 1731 L 797 1731 L 595 1575 L 494 1575 L 494 1639 L 719 1901 L 889 1901 Z" unicode="" />
<glyph horiz-adv-x="1608" d="M 805 1475 C 904 1475 997 1459 1083 1429 C 1169 1398 1243 1352 1307 1290 C 1371 1228 1421 1150 1458 1056 C 1494 962 1513 851 1513 725 C 1513 599 1493 490 1455 396 C 1417 302 1365 223 1300 161 C 1235 98 1160 51 1074 20 C 988 -11 899 -27 805 -27 C 703 -27 609 -12 523 18 C 437 48 362 94 299 156 C 235 218 186 296 150 391 C 114 485 96 597 96 727 C 96 852 114 961 151 1055 C 187 1149 237 1227 301 1289 C 365 1351 440 1397 526 1428 C 612 1459 705 1475 805 1475 Z M 805 1206 C 739 1206 681 1194 633 1170 C 584 1146 543 1112 511 1070 C 479 1027 455 976 439 917 C 423 857 416 793 416 723 C 416 657 423 595 438 537 C 453 479 476 428 508 384 C 539 340 579 306 628 280 C 676 254 735 242 803 242 C 869 242 927 253 977 277 C 1026 300 1067 333 1099 375 C 1131 417 1154 468 1170 527 C 1186 586 1194 651 1194 723 C 1194 789 1186 852 1171 911 C 1156 969 1133 1020 1101 1064 C 1069 1108 1029 1142 980 1168 C 931 1193 873 1206 805 1206 Z M 921 1561 C 905 1561 891 1562 879 1565 C 866 1567 854 1571 842 1577 C 830 1583 818 1590 806 1598 C 794 1606 782 1617 768 1629 L 720 1664 C 710 1673 700 1680 692 1685 C 684 1689 675 1692 667 1692 C 657 1692 649 1690 641 1686 C 633 1682 624 1675 614 1664 L 553 1604 L 426 1698 L 505 1786 C 536 1819 568 1843 601 1857 C 633 1871 662 1879 688 1879 C 703 1879 717 1877 730 1875 C 743 1872 756 1868 768 1862 C 780 1856 792 1849 804 1841 C 816 1833 829 1823 843 1811 L 888 1776 C 898 1766 908 1759 917 1754 C 926 1749 934 1747 942 1747 C 958 1747 977 1756 997 1776 L 1058 1838 L 1183 1741 L 1103 1655 C 1072 1621 1041 1596 1009 1582 C 977 1568 947 1561 921 1561 Z" unicode="" />
<glyph horiz-adv-x="1608" d="M 805 1475 C 904 1475 997 1459 1083 1429 C 1169 1398 1243 1352 1307 1290 C 1371 1228 1421 1150 1458 1056 C 1494 962 1513 851 1513 725 C 1513 599 1493 490 1455 396 C 1417 302 1365 223 1300 161 C 1235 98 1160 51 1074 20 C 988 -11 899 -27 805 -27 C 703 -27 609 -12 523 18 C 437 48 362 94 299 156 C 235 218 186 296 150 391 C 114 485 96 597 96 727 C 96 852 114 961 151 1055 C 187 1149 237 1227 301 1289 C 365 1351 440 1397 526 1428 C 612 1459 705 1475 805 1475 Z M 805 1206 C 739 1206 681 1194 633 1170 C 584 1146 543 1112 511 1070 C 479 1027 455 976 439 917 C 423 857 416 793 416 723 C 416 657 423 595 438 537 C 453 479 476 428 508 384 C 539 340 579 306 628 280 C 676 254 735 242 803 242 C 869 242 927 253 977 277 C 1026 300 1067 333 1099 375 C 1131 417 1154 468 1170 527 C 1186 586 1194 651 1194 723 C 1194 789 1186 852 1171 911 C 1156 969 1133 1020 1101 1064 C 1069 1108 1029 1142 980 1168 C 931 1193 873 1206 805 1206 Z M 1141 1829 L 1141 1590 L 892 1590 L 892 1829 L 1141 1829 Z M 713 1829 L 713 1590 L 463 1590 L 463 1829 L 713 1829 Z" unicode="" />
<glyph horiz-adv-x="1249" d="M 227 1202 L 629 801 L 1026 1200 L 1214 1012 L 813 614 L 1217 211 L 1024 18 L 625 420 L 227 20 L 37 209 L 436 610 L 35 1010 L 227 1202 Z" unicode="" />
<glyph horiz-adv-x="1608" d="M 805 -27 C 755 -27 706 -23 659 -15 C 612 -7 567 4 524 18 L 440 -137 L 227 -137 L 362 102 C 321 132 284 167 251 207 C 218 247 190 294 167 346 C 144 398 126 455 114 519 C 102 582 96 651 96 727 C 96 852 114 961 151 1055 C 187 1149 237 1227 301 1289 C 365 1351 440 1397 526 1428 C 612 1459 705 1475 805 1475 C 857 1475 907 1470 956 1462 C 1005 1453 1052 1440 1096 1423 L 1182 1581 L 1395 1581 L 1255 1335 C 1294 1304 1330 1268 1362 1228 C 1394 1187 1421 1141 1443 1091 C 1465 1040 1483 984 1495 923 C 1507 862 1513 796 1513 725 C 1513 599 1493 490 1455 396 C 1417 302 1365 223 1300 161 C 1235 98 1160 51 1074 20 C 988 -11 899 -27 805 -27 Z M 416 723 C 416 652 424 585 441 523 C 458 460 485 406 522 360 L 963 1182 C 940 1191 915 1198 889 1204 C 863 1209 835 1212 805 1212 C 739 1212 681 1199 633 1175 C 584 1150 543 1116 511 1073 C 479 1029 455 978 439 918 C 423 858 416 793 416 723 Z M 803 236 C 869 236 927 248 977 272 C 1026 296 1067 329 1099 372 C 1131 415 1154 466 1170 526 C 1186 586 1194 651 1194 723 C 1194 791 1186 855 1170 915 C 1154 975 1130 1027 1098 1073 L 662 260 C 702 244 749 236 803 236 Z" unicode="" />
<glyph horiz-adv-x="1518" d="M 469 1446 L 469 547 C 469 501 471 460 477 423 C 483 385 496 353 517 327 C 537 300 567 279 606 264 C 645 249 698 242 766 242 C 832 242 885 249 924 264 C 963 279 992 300 1012 327 C 1031 353 1043 385 1049 423 C 1054 460 1057 501 1057 547 L 1057 1446 L 1360 1446 L 1360 537 C 1360 491 1357 446 1353 401 C 1348 355 1338 312 1324 270 C 1309 228 1288 189 1261 153 C 1234 117 1198 85 1154 59 C 1110 32 1055 11 991 -4 C 926 -19 849 -27 760 -27 C 670 -27 592 -19 528 -4 C 463 11 408 32 364 59 C 319 85 283 117 256 153 C 229 189 208 228 194 270 C 179 312 169 355 165 401 C 160 446 158 491 158 537 L 158 1446 L 469 1446 Z M 914 1575 L 754 1575 L 441 1807 L 441 1901 L 660 1901 L 914 1643 L 914 1575 Z" unicode="" />
<glyph horiz-adv-x="1518" d="M 469 1446 L 469 547 C 469 501 471 460 477 423 C 483 385 496 353 517 327 C 537 300 567 279 606 264 C 645 249 698 242 766 242 C 832 242 885 249 924 264 C 963 279 992 300 1012 327 C 1031 353 1043 385 1049 423 C 1054 460 1057 501 1057 547 L 1057 1446 L 1360 1446 L 1360 537 C 1360 491 1357 446 1353 401 C 1348 355 1338 312 1324 270 C 1309 228 1288 189 1261 153 C 1234 117 1198 85 1154 59 C 1110 32 1055 11 991 -4 C 926 -19 849 -27 760 -27 C 670 -27 592 -19 528 -4 C 463 11 408 32 364 59 C 319 85 283 117 256 153 C 229 189 208 228 194 270 C 179 312 169 355 165 401 C 160 446 158 491 158 537 L 158 1446 L 469 1446 Z M 621 1643 L 873 1901 L 1092 1901 L 1092 1807 L 781 1575 L 621 1575 L 621 1643 Z" unicode="" />
<glyph horiz-adv-x="1518" d="M 469 1446 L 469 547 C 469 501 471 460 477 423 C 483 385 496 353 517 327 C 537 300 567 279 606 264 C 645 249 698 242 766 242 C 832 242 885 249 924 264 C 963 279 992 300 1012 327 C 1031 353 1043 385 1049 423 C 1054 460 1057 501 1057 547 L 1057 1446 L 1360 1446 L 1360 537 C 1360 491 1357 446 1353 401 C 1348 355 1338 312 1324 270 C 1309 228 1288 189 1261 153 C 1234 117 1198 85 1154 59 C 1110 32 1055 11 991 -4 C 926 -19 849 -27 760 -27 C 670 -27 592 -19 528 -4 C 463 11 408 32 364 59 C 319 85 283 117 256 153 C 229 189 208 228 194 270 C 179 312 169 355 165 401 C 160 446 158 491 158 537 L 158 1446 L 469 1446 Z M 852 1901 L 1078 1639 L 1078 1575 L 975 1575 L 773 1731 L 760 1731 L 558 1575 L 457 1575 L 457 1639 L 682 1901 L 852 1901 Z" unicode="" />
<glyph horiz-adv-x="1518" d="M 469 1446 L 469 547 C 469 501 471 460 477 423 C 483 385 496 353 517 327 C 537 300 567 279 606 264 C 645 249 698 242 766 242 C 832 242 885 249 924 264 C 963 279 992 300 1012 327 C 1031 353 1043 385 1049 423 C 1054 460 1057 501 1057 547 L 1057 1446 L 1360 1446 L 1360 537 C 1360 491 1357 446 1353 401 C 1348 355 1338 312 1324 270 C 1309 228 1288 189 1261 153 C 1234 117 1198 85 1154 59 C 1110 32 1055 11 991 -4 C 926 -19 849 -27 760 -27 C 670 -27 592 -19 528 -4 C 463 11 408 32 364 59 C 319 85 283 117 256 153 C 229 189 208 228 194 270 C 179 312 169 355 165 401 C 160 446 158 491 158 537 L 158 1446 L 469 1446 Z M 1105 1828 L 1105 1589 L 856 1589 L 856 1828 L 1105 1828 Z M 677 1828 L 677 1589 L 427 1589 L 427 1828 L 677 1828 Z" unicode="" />
<glyph horiz-adv-x="1352" d="M 379 1446 L 686 795 L 993 1446 L 1346 1446 L 831 500 L 831 0 L 520 0 L 520 500 L 10 1446 L 379 1446 Z M 537 1643 L 789 1901 L 1008 1901 L 1008 1807 L 697 1575 L 537 1575 L 537 1643 Z" unicode="" />
<glyph horiz-adv-x="1442" d="M 172 1446 L 483 1446 L 483 1200 L 801 1200 C 903 1200 989 1189 1059 1167 C 1129 1145 1185 1111 1229 1065 C 1301 987 1337 880 1337 743 C 1337 670 1327 605 1307 548 C 1287 490 1256 442 1214 403 C 1170 363 1115 333 1049 313 C 983 293 900 283 801 283 L 483 283 L 483 0 L 172 0 L 172 1446 Z M 817 537 C 893 537 948 555 980 592 C 1012 629 1028 682 1028 752 C 1028 778 1024 802 1016 826 C 1008 850 996 871 980 889 C 963 907 941 921 915 932 C 888 942 855 948 817 948 L 483 948 L 483 537 L 817 537 Z" unicode="" />
<glyph horiz-adv-x="1200" d="M 608 791 C 608 805 609 817 612 828 C 615 839 620 850 627 861 C 633 871 642 883 652 895 C 662 907 675 921 690 938 C 702 949 713 961 723 973 C 733 985 742 998 750 1012 C 758 1026 764 1042 768 1060 C 772 1077 774 1097 774 1120 C 774 1146 770 1170 764 1192 C 758 1214 748 1234 734 1250 C 720 1266 702 1279 680 1289 C 658 1298 632 1303 602 1303 C 568 1303 540 1297 518 1286 C 496 1274 478 1259 466 1240 C 453 1220 444 1198 439 1172 C 434 1146 432 1118 432 1090 L 432 0 L 137 0 L 137 1090 C 137 1159 148 1222 172 1278 C 195 1334 227 1381 268 1421 C 308 1460 356 1490 412 1512 C 468 1533 528 1544 594 1544 C 656 1544 716 1535 774 1517 C 831 1499 881 1473 925 1439 C 969 1405 1004 1364 1030 1316 C 1056 1267 1069 1212 1069 1151 C 1069 1118 1065 1088 1058 1061 C 1050 1033 1041 1009 1029 987 C 1017 965 1005 945 991 928 C 977 910 963 895 950 883 C 934 867 922 855 916 847 C 910 839 907 831 907 825 C 907 819 908 813 912 806 C 915 799 921 790 929 778 C 937 766 948 750 962 732 C 975 713 992 690 1012 662 C 1036 626 1057 595 1076 569 C 1094 543 1110 518 1123 494 C 1136 470 1146 446 1153 422 C 1159 398 1163 370 1163 340 C 1163 280 1152 228 1130 184 C 1108 140 1079 103 1043 74 C 1006 44 964 22 917 8 C 869 -6 820 -14 768 -14 C 750 -14 732 -13 715 -12 C 698 -11 682 -10 668 -8 C 654 -6 641 -3 631 -1 C 620 1 612 4 606 8 L 606 225 C 619 221 634 218 651 216 C 668 214 688 213 711 213 C 727 213 743 214 760 218 C 776 222 792 228 806 238 C 820 247 831 259 840 274 C 849 289 854 308 854 332 C 854 351 851 369 845 385 C 839 401 831 419 819 439 C 807 458 791 480 773 506 C 755 532 733 564 709 602 C 689 628 673 650 661 668 C 648 686 638 702 630 716 C 622 730 616 742 613 754 C 609 765 608 777 608 791 Z" unicode="" />
<glyph horiz-adv-x="1174" d="M 127 991 C 143 1003 165 1015 193 1029 C 220 1043 252 1055 290 1067 C 327 1078 369 1087 417 1095 C 464 1102 516 1106 573 1106 C 647 1106 712 1098 770 1084 C 828 1070 876 1047 916 1016 C 955 984 985 944 1005 895 C 1025 846 1036 787 1036 719 L 1036 274 C 1036 203 1042 145 1055 101 C 1068 56 1081 22 1094 0 L 791 0 C 784 13 776 32 767 58 C 757 84 752 116 750 154 C 714 98 669 53 613 20 C 557 -12 490 -29 410 -29 C 360 -29 314 -22 272 -8 C 230 5 195 25 165 52 C 135 79 112 113 96 153 C 80 193 72 241 72 295 C 72 349 82 399 103 444 C 124 489 160 528 211 561 C 262 593 331 619 417 639 C 503 658 611 670 741 674 L 741 725 C 741 755 737 780 730 801 C 723 821 712 838 698 851 C 683 863 664 872 642 878 C 619 884 592 887 561 887 C 509 887 457 880 407 867 C 356 853 304 833 250 805 L 127 991 Z M 741 514 C 656 506 589 496 539 483 C 489 469 450 454 424 437 C 398 419 381 401 373 381 C 365 361 362 342 362 322 C 362 277 374 243 398 220 C 422 197 460 186 512 186 C 545 186 576 191 604 201 C 632 211 656 225 676 243 C 696 261 712 284 724 310 C 735 336 741 365 741 397 L 741 514 Z M 741 1204 L 581 1204 L 268 1436 L 268 1530 L 487 1530 L 741 1272 L 741 1204 Z" unicode="" />
<glyph horiz-adv-x="1174" d="M 127 991 C 143 1003 165 1015 193 1029 C 220 1043 252 1055 290 1067 C 327 1078 369 1087 417 1095 C 464 1102 516 1106 573 1106 C 647 1106 712 1098 770 1084 C 828 1070 876 1047 916 1016 C 955 984 985 944 1005 895 C 1025 846 1036 787 1036 719 L 1036 274 C 1036 203 1042 145 1055 101 C 1068 56 1081 22 1094 0 L 791 0 C 784 13 776 32 767 58 C 757 84 752 116 750 154 C 714 98 669 53 613 20 C 557 -12 490 -29 410 -29 C 360 -29 314 -22 272 -8 C 230 5 195 25 165 52 C 135 79 112 113 96 153 C 80 193 72 241 72 295 C 72 349 82 399 103 444 C 124 489 160 528 211 561 C 262 593 331 619 417 639 C 503 658 611 670 741 674 L 741 725 C 741 755 737 780 730 801 C 723 821 712 838 698 851 C 683 863 664 872 642 878 C 619 884 592 887 561 887 C 509 887 457 880 407 867 C 356 853 304 833 250 805 L 127 991 Z M 741 514 C 656 506 589 496 539 483 C 489 469 450 454 424 437 C 398 419 381 401 373 381 C 365 361 362 342 362 322 C 362 277 374 243 398 220 C 422 197 460 186 512 186 C 545 186 576 191 604 201 C 632 211 656 225 676 243 C 696 261 712 284 724 310 C 735 336 741 365 741 397 L 741 514 Z M 446 1272 L 698 1530 L 917 1530 L 917 1436 L 606 1204 L 446 1204 L 446 1272 Z" unicode="" />
<glyph horiz-adv-x="1174" d="M 127 991 C 143 1003 165 1015 193 1029 C 220 1043 252 1055 290 1067 C 327 1078 369 1087 417 1095 C 464 1102 516 1106 573 1106 C 647 1106 712 1098 770 1084 C 828 1070 876 1047 916 1016 C 955 984 985 944 1005 895 C 1025 846 1036 787 1036 719 L 1036 274 C 1036 203 1042 145 1055 101 C 1068 56 1081 22 1094 0 L 791 0 C 784 13 776 32 767 58 C 757 84 752 116 750 154 C 714 98 669 53 613 20 C 557 -12 490 -29 410 -29 C 360 -29 314 -22 272 -8 C 230 5 195 25 165 52 C 135 79 112 113 96 153 C 80 193 72 241 72 295 C 72 349 82 399 103 444 C 124 489 160 528 211 561 C 262 593 331 619 417 639 C 503 658 611 670 741 674 L 741 725 C 741 755 737 780 730 801 C 723 821 712 838 698 851 C 683 863 664 872 642 878 C 619 884 592 887 561 887 C 509 887 457 880 407 867 C 356 853 304 833 250 805 L 127 991 Z M 741 514 C 656 506 589 496 539 483 C 489 469 450 454 424 437 C 398 419 381 401 373 381 C 365 361 362 342 362 322 C 362 277 374 243 398 220 C 422 197 460 186 512 186 C 545 186 576 191 604 201 C 632 211 656 225 676 243 C 696 261 712 284 724 310 C 735 336 741 365 741 397 L 741 514 Z M 679 1530 L 905 1268 L 905 1204 L 802 1204 L 600 1360 L 587 1360 L 385 1204 L 284 1204 L 284 1268 L 509 1530 L 679 1530 Z" unicode="" />
<glyph horiz-adv-x="1174" d="M 127 991 C 143 1003 165 1015 193 1029 C 220 1043 252 1055 290 1067 C 327 1078 369 1087 417 1095 C 464 1102 516 1106 573 1106 C 647 1106 712 1098 770 1084 C 828 1070 876 1047 916 1016 C 955 984 985 944 1005 895 C 1025 846 1036 787 1036 719 L 1036 274 C 1036 203 1042 145 1055 101 C 1068 56 1081 22 1094 0 L 791 0 C 784 13 776 32 767 58 C 757 84 752 116 750 154 C 714 98 669 53 613 20 C 557 -12 490 -29 410 -29 C 360 -29 314 -22 272 -8 C 230 5 195 25 165 52 C 135 79 112 113 96 153 C 80 193 72 241 72 295 C 72 349 82 399 103 444 C 124 489 160 528 211 561 C 262 593 331 619 417 639 C 503 658 611 670 741 674 L 741 725 C 741 755 737 780 730 801 C 723 821 712 838 698 851 C 683 863 664 872 642 878 C 619 884 592 887 561 887 C 509 887 457 880 407 867 C 356 853 304 833 250 805 L 127 991 Z M 741 514 C 656 506 589 496 539 483 C 489 469 450 454 424 437 C 398 419 381 401 373 381 C 365 361 362 342 362 322 C 362 277 374 243 398 220 C 422 197 460 186 512 186 C 545 186 576 191 604 201 C 632 211 656 225 676 243 C 696 261 712 284 724 310 C 735 336 741 365 741 397 L 741 514 Z M 708 1200 C 692 1200 678 1201 666 1204 C 653 1206 641 1210 629 1216 C 617 1222 605 1229 593 1237 C 581 1245 569 1256 555 1268 L 507 1303 C 497 1312 487 1319 479 1324 C 471 1328 462 1331 454 1331 C 444 1331 436 1329 428 1325 C 420 1321 411 1314 401 1303 L 340 1243 L 213 1337 L 292 1425 C 323 1458 355 1482 388 1496 C 420 1510 449 1518 475 1518 C 490 1518 504 1516 517 1514 C 530 1511 543 1507 555 1501 C 567 1495 579 1488 591 1480 C 603 1472 616 1462 630 1450 L 675 1415 C 685 1405 695 1398 704 1393 C 713 1388 721 1386 729 1386 C 745 1386 764 1395 784 1415 L 845 1477 L 970 1380 L 890 1294 C 859 1260 828 1235 796 1221 C 764 1207 734 1200 708 1200 Z" unicode="" />
<glyph horiz-adv-x="1174" d="M 127 991 C 143 1003 165 1015 193 1029 C 220 1043 252 1055 290 1067 C 327 1078 369 1087 417 1095 C 464 1102 516 1106 573 1106 C 647 1106 712 1098 770 1084 C 828 1070 876 1047 916 1016 C 955 984 985 944 1005 895 C 1025 846 1036 787 1036 719 L 1036 274 C 1036 203 1042 145 1055 101 C 1068 56 1081 22 1094 0 L 791 0 C 784 13 776 32 767 58 C 757 84 752 116 750 154 C 714 98 669 53 613 20 C 557 -12 490 -29 410 -29 C 360 -29 314 -22 272 -8 C 230 5 195 25 165 52 C 135 79 112 113 96 153 C 80 193 72 241 72 295 C 72 349 82 399 103 444 C 124 489 160 528 211 561 C 262 593 331 619 417 639 C 503 658 611 670 741 674 L 741 725 C 741 755 737 780 730 801 C 723 821 712 838 698 851 C 683 863 664 872 642 878 C 619 884 592 887 561 887 C 509 887 457 880 407 867 C 356 853 304 833 250 805 L 127 991 Z M 741 514 C 656 506 589 496 539 483 C 489 469 450 454 424 437 C 398 419 381 401 373 381 C 365 361 362 342 362 322 C 362 277 374 243 398 220 C 422 197 460 186 512 186 C 545 186 576 191 604 201 C 632 211 656 225 676 243 C 696 261 712 284 724 310 C 735 336 741 365 741 397 L 741 514 Z M 930 1470 L 930 1231 L 681 1231 L 681 1470 L 930 1470 Z M 502 1470 L 502 1231 L 252 1231 L 252 1470 L 502 1470 Z" unicode="" />
<glyph horiz-adv-x="1174" d="M 127 991 C 143 1003 165 1015 193 1029 C 220 1043 252 1055 290 1067 C 327 1078 369 1087 417 1095 C 464 1102 516 1106 573 1106 C 647 1106 712 1098 770 1084 C 828 1070 876 1047 916 1016 C 955 984 985 944 1005 895 C 1025 846 1036 787 1036 719 L 1036 274 C 1036 203 1042 145 1055 101 C 1068 56 1081 22 1094 0 L 791 0 C 784 13 776 32 767 58 C 757 84 752 116 750 154 C 714 98 669 53 613 20 C 557 -12 490 -29 410 -29 C 360 -29 314 -22 272 -8 C 230 5 195 25 165 52 C 135 79 112 113 96 153 C 80 193 72 241 72 295 C 72 349 82 399 103 444 C 124 489 160 528 211 561 C 262 593 331 619 417 639 C 503 658 611 670 741 674 L 741 725 C 741 755 737 780 730 801 C 723 821 712 838 698 851 C 683 863 664 872 642 878 C 619 884 592 887 561 887 C 509 887 457 880 407 867 C 356 853 304 833 250 805 L 127 991 Z M 741 514 C 656 506 589 496 539 483 C 489 469 450 454 424 437 C 398 419 381 401 373 381 C 365 361 362 342 362 322 C 362 277 374 243 398 220 C 422 197 460 186 512 186 C 545 186 576 191 604 201 C 632 211 656 225 676 243 C 696 261 712 284 724 310 C 735 336 741 365 741 397 L 741 514 Z M 332 1442 C 332 1474 338 1505 351 1534 C 363 1562 381 1587 404 1609 C 427 1631 454 1648 486 1660 C 517 1672 552 1679 590 1679 C 628 1679 662 1672 694 1660 C 725 1648 752 1631 775 1609 C 797 1587 815 1562 827 1534 C 839 1505 846 1474 846 1442 C 846 1409 839 1378 827 1349 C 815 1320 797 1295 775 1274 C 752 1252 725 1235 694 1223 C 662 1210 628 1204 590 1204 C 552 1204 517 1210 486 1223 C 454 1235 427 1252 404 1274 C 381 1295 363 1320 351 1349 C 338 1378 332 1409 332 1442 Z M 590 1561 C 574 1561 558 1557 544 1551 C 530 1545 517 1536 507 1526 C 496 1515 487 1502 481 1488 C 475 1473 472 1458 472 1442 C 472 1426 475 1410 481 1396 C 487 1382 496 1369 507 1359 C 517 1349 530 1340 544 1334 C 558 1328 574 1325 590 1325 C 606 1325 621 1328 635 1334 C 649 1340 662 1349 672 1359 C 682 1369 691 1382 697 1396 C 703 1410 707 1426 707 1442 C 707 1458 703 1473 697 1488 C 691 1502 682 1515 672 1526 C 662 1536 649 1545 635 1551 C 621 1557 606 1561 590 1561 Z" unicode="" />
<glyph horiz-adv-x="1833" d="M 741 514 C 656 506 589 496 539 483 C 489 469 450 454 424 437 C 398 419 381 401 373 381 C 365 361 362 342 362 322 C 362 277 374 243 398 220 C 422 197 460 186 512 186 C 545 186 576 191 604 201 C 632 211 656 225 676 243 C 696 261 712 284 724 310 C 735 336 741 365 741 397 L 741 514 Z M 825 174 C 801 138 773 108 742 82 C 710 56 677 35 641 19 C 605 3 567 -9 528 -17 C 489 -25 450 -29 410 -29 C 360 -29 314 -22 272 -8 C 230 5 195 25 165 52 C 135 79 112 113 96 153 C 80 193 72 241 72 295 C 72 349 82 399 103 444 C 124 489 160 528 211 561 C 262 593 331 619 417 639 C 503 658 611 670 741 674 L 741 725 C 741 755 737 780 730 801 C 723 821 712 838 698 851 C 683 863 664 872 642 878 C 619 884 592 887 561 887 C 509 887 457 880 407 867 C 356 853 304 833 250 805 L 127 991 C 143 1003 165 1015 193 1029 C 220 1043 252 1055 290 1067 C 327 1078 369 1087 417 1095 C 464 1102 516 1106 573 1106 C 654 1106 725 1094 786 1070 C 846 1046 896 1008 934 956 C 976 1002 1024 1039 1079 1066 C 1133 1092 1195 1106 1264 1106 C 1338 1106 1405 1094 1464 1070 C 1522 1046 1572 1012 1613 969 C 1653 926 1684 875 1706 816 C 1727 757 1738 693 1739 625 C 1739 616 1738 597 1736 569 C 1734 541 1731 507 1726 467 L 1022 467 C 1026 431 1034 397 1045 364 C 1056 331 1072 302 1093 277 C 1114 251 1141 231 1173 216 C 1205 200 1245 193 1292 193 C 1360 193 1422 202 1479 220 C 1535 238 1590 261 1642 291 L 1716 94 C 1660 56 1598 26 1529 4 C 1459 -17 1380 -29 1290 -29 C 1177 -29 1082 -10 1006 25 C 929 61 869 111 825 174 Z M 1262 897 C 1197 897 1144 874 1102 830 C 1060 785 1033 722 1022 641 L 1464 641 C 1464 720 1447 782 1413 828 C 1379 874 1328 897 1262 897 Z" unicode="" />
<glyph horiz-adv-x="1036" d="M 641 213 C 687 213 730 220 770 234 C 810 248 847 265 881 287 L 977 66 C 929 36 876 13 820 -3 C 763 -19 697 -27 623 -29 L 692 -104 C 708 -121 722 -141 734 -164 C 746 -187 752 -216 752 -250 C 752 -283 745 -312 732 -337 C 719 -362 701 -383 677 -400 C 653 -417 624 -430 590 -438 C 556 -446 517 -451 475 -451 C 437 -451 403 -447 371 -441 C 339 -434 314 -423 295 -408 L 315 -268 C 321 -272 331 -277 343 -281 C 355 -285 367 -288 381 -291 C 395 -293 409 -295 423 -297 C 437 -298 449 -299 459 -299 C 467 -299 475 -298 485 -297 C 494 -295 502 -293 510 -289 C 518 -285 524 -279 529 -271 C 534 -263 537 -254 537 -242 C 537 -226 532 -214 524 -205 C 515 -195 506 -185 496 -174 L 438 -117 C 434 -113 430 -107 426 -99 C 422 -91 420 -83 420 -74 L 420 0 C 362 17 312 42 270 75 C 228 108 193 148 165 194 C 137 240 116 291 102 349 C 88 407 82 469 82 535 C 82 617 93 694 116 764 C 139 834 173 894 219 945 C 264 995 320 1035 388 1063 C 455 1091 533 1106 623 1106 C 695 1106 760 1097 818 1081 C 876 1065 929 1042 977 1012 L 881 791 C 847 812 810 829 770 843 C 730 857 686 864 637 864 C 593 864 556 855 525 839 C 493 823 467 800 446 771 C 425 742 410 708 400 668 C 390 628 385 585 385 539 C 385 499 388 459 396 420 C 403 381 416 346 436 316 C 455 285 481 260 514 241 C 547 222 589 213 641 213 Z" unicode="" />
<glyph horiz-adv-x="1182" d="M 373 467 C 377 431 385 397 396 364 C 407 331 423 302 444 277 C 465 251 492 231 524 216 C 556 200 595 193 641 193 C 709 193 771 202 828 220 C 884 238 939 261 991 291 L 1065 94 C 1009 56 946 26 877 4 C 807 -17 728 -29 639 -29 C 542 -29 458 -15 388 12 C 317 39 259 77 213 125 C 167 173 133 231 111 297 C 89 363 78 434 78 512 C 78 596 90 675 115 748 C 139 820 175 883 221 936 C 267 989 322 1031 388 1061 C 454 1091 528 1106 610 1106 C 685 1106 752 1094 811 1070 C 870 1046 920 1012 961 969 C 1001 926 1032 875 1054 816 C 1075 757 1086 693 1087 625 C 1087 616 1086 597 1085 569 C 1083 541 1080 507 1075 467 L 373 467 Z M 610 897 C 545 897 492 874 452 830 C 412 785 386 722 375 641 L 811 641 C 811 720 794 782 760 828 C 726 874 676 897 610 897 Z M 754 1204 L 594 1204 L 281 1436 L 281 1530 L 500 1530 L 754 1272 L 754 1204 Z" unicode="" />
<glyph horiz-adv-x="1182" d="M 373 467 C 377 431 385 397 396 364 C 407 331 423 302 444 277 C 465 251 492 231 524 216 C 556 200 595 193 641 193 C 709 193 771 202 828 220 C 884 238 939 261 991 291 L 1065 94 C 1009 56 946 26 877 4 C 807 -17 728 -29 639 -29 C 542 -29 458 -15 388 12 C 317 39 259 77 213 125 C 167 173 133 231 111 297 C 89 363 78 434 78 512 C 78 596 90 675 115 748 C 139 820 175 883 221 936 C 267 989 322 1031 388 1061 C 454 1091 528 1106 610 1106 C 685 1106 752 1094 811 1070 C 870 1046 920 1012 961 969 C 1001 926 1032 875 1054 816 C 1075 757 1086 693 1087 625 C 1087 616 1086 597 1085 569 C 1083 541 1080 507 1075 467 L 373 467 Z M 610 897 C 545 897 492 874 452 830 C 412 785 386 722 375 641 L 811 641 C 811 720 794 782 760 828 C 726 874 676 897 610 897 Z M 459 1272 L 711 1530 L 930 1530 L 930 1436 L 619 1204 L 459 1204 L 459 1272 Z" unicode="" />
<glyph horiz-adv-x="1182" d="M 373 467 C 377 431 385 397 396 364 C 407 331 423 302 444 277 C 465 251 492 231 524 216 C 556 200 595 193 641 193 C 709 193 771 202 828 220 C 884 238 939 261 991 291 L 1065 94 C 1009 56 946 26 877 4 C 807 -17 728 -29 639 -29 C 542 -29 458 -15 388 12 C 317 39 259 77 213 125 C 167 173 133 231 111 297 C 89 363 78 434 78 512 C 78 596 90 675 115 748 C 139 820 175 883 221 936 C 267 989 322 1031 388 1061 C 454 1091 528 1106 610 1106 C 685 1106 752 1094 811 1070 C 870 1046 920 1012 961 969 C 1001 926 1032 875 1054 816 C 1075 757 1086 693 1087 625 C 1087 616 1086 597 1085 569 C 1083 541 1080 507 1075 467 L 373 467 Z M 610 897 C 545 897 492 874 452 830 C 412 785 386 722 375 641 L 811 641 C 811 720 794 782 760 828 C 726 874 676 897 610 897 Z M 690 1530 L 916 1268 L 916 1204 L 813 1204 L 611 1360 L 598 1360 L 396 1204 L 295 1204 L 295 1268 L 520 1530 L 690 1530 Z" unicode="" />
<glyph horiz-adv-x="1182" d="M 373 467 C 377 431 385 397 396 364 C 407 331 423 302 444 277 C 465 251 492 231 524 216 C 556 200 595 193 641 193 C 709 193 771 202 828 220 C 884 238 939 261 991 291 L 1065 94 C 1009 56 946 26 877 4 C 807 -17 728 -29 639 -29 C 542 -29 458 -15 388 12 C 317 39 259 77 213 125 C 167 173 133 231 111 297 C 89 363 78 434 78 512 C 78 596 90 675 115 748 C 139 820 175 883 221 936 C 267 989 322 1031 388 1061 C 454 1091 528 1106 610 1106 C 685 1106 752 1094 811 1070 C 870 1046 920 1012 961 969 C 1001 926 1032 875 1054 816 C 1075 757 1086 693 1087 625 C 1087 616 1086 597 1085 569 C 1083 541 1080 507 1075 467 L 373 467 Z M 610 897 C 545 897 492 874 452 830 C 412 785 386 722 375 641 L 811 641 C 811 720 794 782 760 828 C 726 874 676 897 610 897 Z M 942 1470 L 942 1231 L 693 1231 L 693 1470 L 942 1470 Z M 514 1470 L 514 1231 L 264 1231 L 264 1470 L 514 1470 Z" unicode="" />
<glyph horiz-adv-x="578" d="M 436 1077 L 436 0 L 141 0 L 141 1077 L 436 1077 Z M 437 1204 L 277 1204 L -36 1436 L -36 1530 L 183 1530 L 437 1272 L 437 1204 Z" unicode="" />
<glyph horiz-adv-x="578" d="M 436 1077 L 436 0 L 141 0 L 141 1077 L 436 1077 Z M 142 1272 L 394 1530 L 613 1530 L 613 1436 L 302 1204 L 142 1204 L 142 1272 Z" unicode="" />
<glyph horiz-adv-x="578" d="M 436 1077 L 436 0 L 141 0 L 141 1077 L 436 1077 Z M 376 1530 L 602 1268 L 602 1204 L 499 1204 L 297 1360 L 284 1360 L 82 1204 L -19 1204 L -19 1268 L 206 1530 L 376 1530 Z" unicode="" />
<glyph horiz-adv-x="578" d="M 436 1077 L 436 0 L 141 0 L 141 1077 L 436 1077 Z M 627 1470 L 627 1231 L 378 1231 L 378 1470 L 627 1470 Z M 199 1470 L 199 1231 L -51 1231 L -51 1470 L 199 1470 Z" unicode="" />
<glyph horiz-adv-x="1212" d="M 604 -29 C 525 -29 453 -15 389 10 C 325 36 270 74 224 124 C 178 173 143 233 117 304 C 91 374 78 454 78 543 C 78 625 89 698 111 764 C 133 829 165 885 207 931 C 249 977 300 1012 361 1037 C 421 1062 491 1075 569 1077 C 585 1077 599 1075 610 1073 C 620 1070 631 1067 643 1063 C 637 1076 628 1091 616 1107 C 604 1123 592 1140 579 1156 C 566 1172 553 1187 539 1201 C 525 1215 514 1227 504 1237 L 205 1147 L 205 1300 L 356 1346 C 345 1354 333 1364 319 1375 C 305 1386 291 1397 277 1408 C 263 1418 250 1428 238 1437 C 226 1446 216 1453 209 1458 L 475 1524 C 500 1507 525 1490 551 1473 C 576 1455 599 1437 621 1419 L 881 1499 L 881 1346 L 762 1309 C 830 1244 888 1180 936 1117 C 983 1054 1021 991 1051 928 C 1080 865 1101 802 1114 739 C 1126 676 1133 613 1133 549 C 1131 463 1119 385 1095 315 C 1071 244 1037 183 992 132 C 947 81 892 41 827 13 C 762 -14 688 -29 604 -29 Z M 606 213 C 652 213 689 222 718 240 C 746 258 769 282 785 313 C 801 343 811 379 817 419 C 822 459 825 501 825 545 C 825 585 822 625 817 663 C 812 701 802 735 787 765 C 771 795 749 819 720 837 C 690 855 652 864 604 864 C 558 864 521 855 493 839 C 465 822 443 799 427 771 C 411 742 400 708 394 670 C 388 631 385 590 385 547 C 385 506 387 466 392 426 C 396 386 406 351 422 319 C 437 287 459 262 488 242 C 517 222 556 213 606 213 Z" unicode="" />
<glyph horiz-adv-x="1231" d="M 393 1077 L 414 924 C 440 962 466 992 492 1016 C 518 1040 543 1058 569 1072 C 594 1085 620 1094 647 1099 C 673 1103 701 1106 731 1106 C 793 1106 847 1097 893 1080 C 938 1062 976 1038 1006 1008 C 1042 972 1068 926 1084 872 C 1100 817 1108 750 1108 670 L 1108 0 L 813 0 L 813 705 C 813 723 810 741 805 761 C 800 780 790 797 776 813 C 762 828 743 840 719 850 C 695 859 665 864 631 864 C 606 864 582 860 559 852 C 535 844 514 832 496 817 C 478 802 463 784 452 762 C 441 740 436 716 436 688 L 436 0 L 141 0 L 141 877 L 121 1077 L 393 1077 Z M 733 1200 C 717 1200 703 1201 691 1204 C 678 1206 666 1210 654 1216 C 642 1222 630 1229 618 1237 C 606 1245 594 1256 580 1268 L 532 1303 C 522 1312 512 1319 504 1324 C 496 1328 487 1331 479 1331 C 469 1331 461 1329 453 1325 C 445 1321 436 1314 426 1303 L 365 1243 L 238 1337 L 317 1425 C 348 1458 380 1482 413 1496 C 445 1510 474 1518 500 1518 C 515 1518 529 1516 542 1514 C 555 1511 568 1507 580 1501 C 592 1495 604 1488 616 1480 C 628 1472 641 1462 655 1450 L 700 1415 C 710 1405 720 1398 729 1393 C 738 1388 746 1386 754 1386 C 770 1386 789 1395 809 1415 L 870 1477 L 995 1380 L 915 1294 C 884 1260 853 1235 821 1221 C 789 1207 759 1200 733 1200 Z" unicode="" />
<glyph horiz-adv-x="1212" d="M 604 864 C 558 864 521 855 493 839 C 465 822 443 799 427 771 C 411 743 400 709 394 671 C 388 632 385 591 385 547 C 385 506 387 466 392 426 C 396 386 406 351 422 319 C 437 287 459 262 488 242 C 517 222 556 213 606 213 C 652 213 689 222 718 240 C 746 258 768 282 784 312 C 799 342 809 378 815 418 C 820 458 823 501 823 547 C 823 586 820 625 816 663 C 811 701 801 734 786 764 C 770 794 748 818 719 836 C 690 854 652 864 604 864 Z M 606 1106 C 684 1106 756 1093 820 1068 C 884 1042 938 1006 984 958 C 1030 910 1065 852 1091 783 C 1117 713 1131 635 1133 547 C 1131 463 1119 385 1095 315 C 1071 244 1037 183 993 132 C 948 81 893 41 828 13 C 763 -14 689 -29 606 -29 C 526 -29 454 -15 390 10 C 326 36 271 74 225 124 C 179 174 143 234 117 305 C 91 376 78 457 78 547 C 78 629 90 705 115 774 C 139 842 174 901 220 951 C 266 1000 321 1038 386 1065 C 451 1092 524 1106 606 1106 Z M 756 1204 L 596 1204 L 283 1436 L 283 1530 L 502 1530 L 756 1272 L 756 1204 Z" unicode="" />
<glyph horiz-adv-x="1212" d="M 604 864 C 558 864 521 855 493 839 C 465 822 443 799 427 771 C 411 743 400 709 394 671 C 388 632 385 591 385 547 C 385 506 387 466 392 426 C 396 386 406 351 422 319 C 437 287 459 262 488 242 C 517 222 556 213 606 213 C 652 213 689 222 718 240 C 746 258 768 282 784 312 C 799 342 809 378 815 418 C 820 458 823 501 823 547 C 823 586 820 625 816 663 C 811 701 801 734 786 764 C 770 794 748 818 719 836 C 690 854 652 864 604 864 Z M 606 1106 C 684 1106 756 1093 820 1068 C 884 1042 938 1006 984 958 C 1030 910 1065 852 1091 783 C 1117 713 1131 635 1133 547 C 1131 463 1119 385 1095 315 C 1071 244 1037 183 993 132 C 948 81 893 41 828 13 C 763 -14 689 -29 606 -29 C 526 -29 454 -15 390 10 C 326 36 271 74 225 124 C 179 174 143 234 117 305 C 91 376 78 457 78 547 C 78 629 90 705 115 774 C 139 842 174 901 220 951 C 266 1000 321 1038 386 1065 C 451 1092 524 1106 606 1106 Z M 461 1272 L 713 1530 L 932 1530 L 932 1436 L 621 1204 L 461 1204 L 461 1272 Z" unicode="" />
<glyph horiz-adv-x="1212" d="M 604 864 C 558 864 521 855 493 839 C 465 822 443 799 427 771 C 411 743 400 709 394 671 C 388 632 385 591 385 547 C 385 506 387 466 392 426 C 396 386 406 351 422 319 C 437 287 459 262 488 242 C 517 222 556 213 606 213 C 652 213 689 222 718 240 C 746 258 768 282 784 312 C 799 342 809 378 815 418 C 820 458 823 501 823 547 C 823 586 820 625 816 663 C 811 701 801 734 786 764 C 770 794 748 818 719 836 C 690 854 652 864 604 864 Z M 606 1106 C 684 1106 756 1093 820 1068 C 884 1042 938 1006 984 958 C 1030 910 1065 852 1091 783 C 1117 713 1131 635 1133 547 C 1131 463 1119 385 1095 315 C 1071 244 1037 183 993 132 C 948 81 893 41 828 13 C 763 -14 689 -29 606 -29 C 526 -29 454 -15 390 10 C 326 36 271 74 225 124 C 179 174 143 234 117 305 C 91 376 78 457 78 547 C 78 629 90 705 115 774 C 139 842 174 901 220 951 C 266 1000 321 1038 386 1065 C 451 1092 524 1106 606 1106 Z M 692 1530 L 918 1268 L 918 1204 L 815 1204 L 613 1360 L 600 1360 L 398 1204 L 297 1204 L 297 1268 L 522 1530 L 692 1530 Z" unicode="" />
<glyph horiz-adv-x="1212" d="M 604 864 C 558 864 521 855 493 839 C 465 822 443 799 427 771 C 411 743 400 709 394 671 C 388 632 385 591 385 547 C 385 506 387 466 392 426 C 396 386 406 351 422 319 C 437 287 459 262 488 242 C 517 222 556 213 606 213 C 652 213 689 222 718 240 C 746 258 768 282 784 312 C 799 342 809 378 815 418 C 820 458 823 501 823 547 C 823 586 820 625 816 663 C 811 701 801 734 786 764 C 770 794 748 818 719 836 C 690 854 652 864 604 864 Z M 606 1106 C 684 1106 756 1093 820 1068 C 884 1042 938 1006 984 958 C 1030 910 1065 852 1091 783 C 1117 713 1131 635 1133 547 C 1131 463 1119 385 1095 315 C 1071 244 1037 183 993 132 C 948 81 893 41 828 13 C 763 -14 689 -29 606 -29 C 526 -29 454 -15 390 10 C 326 36 271 74 225 124 C 179 174 143 234 117 305 C 91 376 78 457 78 547 C 78 629 90 705 115 774 C 139 842 174 901 220 951 C 266 1000 321 1038 386 1065 C 451 1092 524 1106 606 1106 Z M 722 1200 C 706 1200 692 1201 680 1204 C 667 1206 655 1210 643 1216 C 631 1222 619 1229 607 1237 C 595 1245 583 1256 569 1268 L 521 1303 C 511 1312 501 1319 493 1324 C 485 1328 476 1331 468 1331 C 458 1331 450 1329 442 1325 C 434 1321 425 1314 415 1303 L 354 1243 L 227 1337 L 306 1425 C 337 1458 369 1482 402 1496 C 434 1510 463 1518 489 1518 C 504 1518 518 1516 531 1514 C 544 1511 557 1507 569 1501 C 581 1495 593 1488 605 1480 C 617 1472 630 1462 644 1450 L 689 1415 C 699 1405 709 1398 718 1393 C 727 1388 735 1386 743 1386 C 759 1386 778 1395 798 1415 L 859 1477 L 984 1380 L 904 1294 C 873 1260 842 1235 810 1221 C 778 1207 748 1200 722 1200 Z" unicode="" />
<glyph horiz-adv-x="1212" d="M 604 864 C 558 864 521 855 493 839 C 465 822 443 799 427 771 C 411 743 400 709 394 671 C 388 632 385 591 385 547 C 385 506 387 466 392 426 C 396 386 406 351 422 319 C 437 287 459 262 488 242 C 517 222 556 213 606 213 C 652 213 689 222 718 240 C 746 258 768 282 784 312 C 799 342 809 378 815 418 C 820 458 823 501 823 547 C 823 586 820 625 816 663 C 811 701 801 734 786 764 C 770 794 748 818 719 836 C 690 854 652 864 604 864 Z M 606 1106 C 684 1106 756 1093 820 1068 C 884 1042 938 1006 984 958 C 1030 910 1065 852 1091 783 C 1117 713 1131 635 1133 547 C 1131 463 1119 385 1095 315 C 1071 244 1037 183 993 132 C 948 81 893 41 828 13 C 763 -14 689 -29 606 -29 C 526 -29 454 -15 390 10 C 326 36 271 74 225 124 C 179 174 143 234 117 305 C 91 376 78 457 78 547 C 78 629 90 705 115 774 C 139 842 174 901 220 951 C 266 1000 321 1038 386 1065 C 451 1092 524 1106 606 1106 Z M 944 1470 L 944 1231 L 695 1231 L 695 1470 L 944 1470 Z M 516 1470 L 516 1231 L 266 1231 L 266 1470 L 516 1470 Z" unicode="" />
<glyph horiz-adv-x="1249" d="M 788 1223 L 788 930 L 461 930 L 461 1223 L 788 1223 Z M 1206 743 L 1206 479 L 43 479 L 43 743 L 1206 743 Z M 788 293 L 788 0 L 461 0 L 461 293 L 788 293 Z" unicode="" />
<glyph horiz-adv-x="1212" d="M 606 -29 C 566 -29 527 -25 491 -18 C 455 -11 420 -1 387 12 L 322 -100 L 133 -100 L 252 96 C 197 146 155 208 125 284 C 95 359 79 447 78 547 C 78 629 90 705 115 774 C 139 842 174 901 220 951 C 266 1000 321 1038 386 1065 C 451 1092 524 1106 606 1106 C 647 1106 686 1102 724 1095 C 761 1088 796 1077 829 1063 L 895 1171 L 1083 1171 L 967 977 C 1018 929 1058 868 1086 796 C 1114 723 1130 640 1133 547 C 1131 463 1119 385 1095 315 C 1071 244 1037 183 993 132 C 948 81 893 41 828 13 C 763 -14 689 -29 606 -29 Z M 373 547 C 373 509 374 471 378 435 C 381 398 389 364 403 334 L 694 850 C 682 855 668 859 653 861 C 637 863 621 864 604 864 C 556 864 517 855 487 839 C 457 822 433 799 416 771 C 399 743 388 709 382 671 C 376 632 373 591 373 547 Z M 606 213 C 655 213 695 222 725 240 C 755 258 779 282 796 312 C 812 342 823 378 829 418 C 835 458 838 501 838 547 C 838 581 836 615 832 649 C 828 682 820 713 809 741 L 518 225 C 542 217 572 213 606 213 Z" unicode="" />
<glyph horiz-adv-x="1235" d="M 842 0 L 821 154 C 793 116 767 85 742 61 C 716 37 691 19 666 5 C 640 -8 614 -17 588 -22 C 561 -26 533 -29 504 -29 C 441 -29 387 -20 342 -3 C 296 14 259 38 229 70 C 193 106 167 152 151 206 C 135 260 127 327 127 408 L 127 1077 L 422 1077 L 422 373 C 422 354 424 335 429 316 C 434 296 444 279 459 264 C 473 248 491 236 515 227 C 538 217 568 213 604 213 C 628 213 652 217 676 225 C 699 233 720 245 738 260 C 756 275 771 293 782 315 C 793 337 799 361 799 389 L 799 1077 L 1094 1077 L 1094 201 L 1114 0 L 842 0 Z M 782 1204 L 622 1204 L 309 1436 L 309 1530 L 528 1530 L 782 1272 L 782 1204 Z" unicode="" />
<glyph horiz-adv-x="1235" d="M 842 0 L 821 154 C 793 116 767 85 742 61 C 716 37 691 19 666 5 C 640 -8 614 -17 588 -22 C 561 -26 533 -29 504 -29 C 441 -29 387 -20 342 -3 C 296 14 259 38 229 70 C 193 106 167 152 151 206 C 135 260 127 327 127 408 L 127 1077 L 422 1077 L 422 373 C 422 354 424 335 429 316 C 434 296 444 279 459 264 C 473 248 491 236 515 227 C 538 217 568 213 604 213 C 628 213 652 217 676 225 C 699 233 720 245 738 260 C 756 275 771 293 782 315 C 793 337 799 361 799 389 L 799 1077 L 1094 1077 L 1094 201 L 1114 0 L 842 0 Z M 487 1272 L 739 1530 L 958 1530 L 958 1436 L 647 1204 L 487 1204 L 487 1272 Z" unicode="" />
<glyph horiz-adv-x="1235" d="M 842 0 L 821 154 C 793 116 767 85 742 61 C 716 37 691 19 666 5 C 640 -8 614 -17 588 -22 C 561 -26 533 -29 504 -29 C 441 -29 387 -20 342 -3 C 296 14 259 38 229 70 C 193 106 167 152 151 206 C 135 260 127 327 127 408 L 127 1077 L 422 1077 L 422 373 C 422 354 424 335 429 316 C 434 296 444 279 459 264 C 473 248 491 236 515 227 C 538 217 568 213 604 213 C 628 213 652 217 676 225 C 699 233 720 245 738 260 C 756 275 771 293 782 315 C 793 337 799 361 799 389 L 799 1077 L 1094 1077 L 1094 201 L 1114 0 L 842 0 Z M 719 1530 L 945 1268 L 945 1204 L 842 1204 L 640 1360 L 627 1360 L 425 1204 L 324 1204 L 324 1268 L 549 1530 L 719 1530 Z" unicode="" />
<glyph horiz-adv-x="1235" d="M 842 0 L 821 154 C 793 116 767 85 742 61 C 716 37 691 19 666 5 C 640 -8 614 -17 588 -22 C 561 -26 533 -29 504 -29 C 441 -29 387 -20 342 -3 C 296 14 259 38 229 70 C 193 106 167 152 151 206 C 135 260 127 327 127 408 L 127 1077 L 422 1077 L 422 373 C 422 354 424 335 429 316 C 434 296 444 279 459 264 C 473 248 491 236 515 227 C 538 217 568 213 604 213 C 628 213 652 217 676 225 C 699 233 720 245 738 260 C 756 275 771 293 782 315 C 793 337 799 361 799 389 L 799 1077 L 1094 1077 L 1094 201 L 1114 0 L 842 0 Z M 971 1470 L 971 1231 L 722 1231 L 722 1470 L 971 1470 Z M 543 1470 L 543 1231 L 293 1231 L 293 1470 L 543 1470 Z" unicode="" />
<glyph horiz-adv-x="1061" d="M 313 1077 L 508 459 L 537 348 L 547 348 L 575 459 L 766 1077 L 1059 1077 L 641 -111 C 625 -156 607 -199 586 -241 C 565 -283 540 -320 510 -352 C 480 -384 444 -410 402 -430 C 360 -449 312 -459 256 -459 C 228 -459 203 -457 182 -453 C 161 -449 145 -444 135 -438 L 117 -229 C 156 -229 189 -227 215 -225 C 241 -222 262 -217 280 -210 C 297 -202 311 -192 322 -179 C 332 -165 342 -148 350 -127 L 391 -16 L -2 1077 L 313 1077 Z M 397 1272 L 649 1530 L 868 1530 L 868 1436 L 557 1204 L 397 1204 L 397 1272 Z" unicode="" />
<glyph horiz-adv-x="1247" d="M 436 395 C 436 373 440 351 449 329 C 458 307 471 288 488 271 C 505 253 526 239 552 229 C 577 218 606 213 639 213 C 687 213 726 222 755 240 C 784 258 806 283 822 313 C 838 343 848 378 853 418 C 857 458 860 499 860 543 C 860 581 857 620 853 658 C 849 696 839 731 825 761 C 810 791 788 816 760 835 C 731 854 693 864 645 864 C 609 864 578 858 552 847 C 526 836 504 822 487 804 C 469 786 456 767 448 745 C 440 723 436 701 436 680 L 436 395 Z M 436 969 C 454 991 474 1011 494 1028 C 514 1045 535 1059 557 1071 C 579 1082 604 1091 631 1097 C 657 1103 687 1106 719 1106 C 797 1106 864 1090 920 1059 C 976 1028 1023 987 1059 935 C 1095 883 1122 823 1140 755 C 1158 687 1167 617 1167 543 C 1167 498 1163 453 1157 408 C 1151 362 1140 318 1126 276 C 1112 233 1093 193 1070 156 C 1047 119 1019 87 987 60 C 954 32 916 11 873 -5 C 829 -21 780 -29 725 -29 C 690 -29 659 -25 631 -19 C 603 -12 577 -2 554 9 C 531 21 510 37 491 55 C 471 73 453 93 436 117 L 436 -451 L 141 -451 L 141 1507 L 436 1507 L 436 969 Z" unicode="" />
<glyph horiz-adv-x="1061" d="M 313 1077 L 508 459 L 537 348 L 547 348 L 575 459 L 766 1077 L 1059 1077 L 641 -111 C 625 -156 607 -199 586 -241 C 565 -283 540 -320 510 -352 C 480 -384 444 -410 402 -430 C 360 -449 312 -459 256 -459 C 228 -459 203 -457 182 -453 C 161 -449 145 -444 135 -438 L 117 -229 C 156 -229 189 -227 215 -225 C 241 -222 262 -217 280 -210 C 297 -202 311 -192 322 -179 C 332 -165 342 -148 350 -127 L 391 -16 L -2 1077 L 313 1077 Z M 881 1470 L 881 1231 L 632 1231 L 632 1470 L 881 1470 Z M 453 1470 L 453 1231 L 203 1231 L 203 1470 L 453 1470 Z" unicode="" />
<glyph horiz-adv-x="578" d="M 436 1077 L 436 0 L 141 0 L 141 1077 L 436 1077 Z" unicode="" />
<glyph horiz-adv-x="1153" d="M 524 1446 L 524 971 L 799 1178 L 799 881 L 524 674 L 524 252 L 1112 252 L 1112 0 L 213 0 L 213 440 L 57 324 L 57 621 L 213 737 L 213 1446 L 524 1446 Z" unicode="" />
<glyph horiz-adv-x="647" d="M 45 676 L 176 772 L 176 1507 L 471 1507 L 471 991 L 604 1092 L 604 821 L 471 721 L 471 0 L 176 0 L 176 502 L 45 406 L 45 676 Z" unicode="" />
<glyph horiz-adv-x="2327" d="M 2195 1446 L 2195 1194 L 1495 1194 L 1495 872 L 2099 872 L 2099 616 L 1495 616 L 1495 252 L 2216 252 L 2216 0 L 1196 0 L 1196 141 C 1166 111 1136 85 1106 64 C 1075 42 1043 25 1010 11 C 977 -2 943 -12 907 -18 C 871 -24 833 -27 793 -27 C 698 -27 608 -11 524 20 C 440 51 366 98 302 160 C 238 222 188 300 151 394 C 114 488 96 597 96 723 C 96 849 114 960 152 1054 C 189 1148 239 1226 302 1288 C 365 1350 438 1397 520 1428 C 602 1459 689 1475 780 1475 C 825 1475 867 1471 907 1463 C 947 1455 984 1443 1018 1428 C 1052 1413 1084 1395 1114 1374 C 1143 1353 1170 1330 1196 1305 L 1196 1446 L 2195 1446 Z M 805 1206 C 739 1206 681 1194 633 1170 C 584 1146 543 1112 511 1070 C 479 1027 455 976 439 917 C 423 857 416 793 416 723 C 416 657 423 595 438 537 C 452 479 475 428 506 384 C 537 340 577 306 626 280 C 675 254 734 242 803 242 C 869 242 926 253 976 277 C 1025 300 1066 333 1098 375 C 1130 417 1155 468 1171 527 C 1187 586 1196 651 1196 723 C 1196 789 1188 852 1173 911 C 1157 969 1134 1020 1102 1064 C 1070 1108 1030 1142 981 1168 C 931 1193 873 1206 805 1206 Z" unicode="" />
<glyph horiz-adv-x="1909" d="M 606 1106 C 684 1106 755 1090 817 1058 C 879 1026 933 981 977 922 C 1020 979 1072 1024 1133 1057 C 1194 1089 1263 1106 1339 1106 C 1413 1106 1480 1094 1539 1070 C 1597 1046 1647 1012 1688 969 C 1728 926 1759 875 1781 816 C 1803 757 1814 693 1815 625 C 1815 616 1814 597 1812 569 C 1810 541 1808 507 1804 467 L 1100 467 C 1104 431 1111 397 1122 364 C 1133 331 1149 302 1170 277 C 1191 251 1218 231 1250 216 C 1282 200 1322 193 1368 193 C 1436 193 1498 202 1556 220 C 1613 238 1668 261 1720 291 L 1794 94 C 1737 56 1674 26 1605 4 C 1536 -17 1457 -29 1368 -29 C 1276 -29 1197 -13 1131 17 C 1064 48 1009 91 965 145 C 921 91 870 49 810 18 C 750 -13 682 -29 606 -29 C 526 -29 454 -15 390 10 C 326 36 271 74 225 124 C 179 174 143 234 117 305 C 91 376 78 457 78 547 C 78 629 90 705 115 774 C 139 842 174 901 220 951 C 266 1000 321 1038 386 1065 C 451 1092 524 1106 606 1106 Z M 1339 897 C 1273 897 1219 874 1177 830 C 1135 785 1109 722 1098 641 L 1540 641 C 1540 720 1523 782 1489 828 C 1455 874 1405 897 1339 897 Z M 604 864 C 558 864 521 855 493 839 C 465 822 443 799 427 771 C 411 743 400 709 394 671 C 388 632 385 591 385 547 C 385 506 387 466 392 426 C 396 386 406 351 422 319 C 437 287 459 262 488 242 C 517 222 556 213 606 213 C 652 213 689 222 718 240 C 746 258 768 282 784 312 C 799 342 809 378 815 418 C 820 458 823 501 823 547 C 823 586 820 625 816 663 C 811 701 801 734 786 764 C 770 794 748 818 719 836 C 690 854 652 864 604 864 Z" unicode="" />
<glyph horiz-adv-x="1241" d="M 1030 1130 C 1002 1143 972 1156 941 1168 C 909 1180 877 1190 845 1199 C 813 1207 780 1214 748 1219 C 715 1224 683 1227 653 1227 C 621 1227 590 1224 561 1218 C 532 1212 507 1202 485 1189 C 463 1176 445 1159 433 1139 C 420 1118 414 1093 414 1063 C 414 1029 422 1001 439 979 C 456 957 478 938 505 923 C 531 908 561 895 595 885 C 628 875 661 865 694 856 C 764 836 826 813 882 787 C 938 761 985 731 1024 696 C 1063 661 1093 620 1114 574 C 1134 528 1145 474 1145 414 C 1145 344 1131 281 1105 225 C 1078 169 1039 122 988 83 C 937 44 875 14 802 -6 C 728 -26 645 -37 551 -37 C 512 -37 472 -35 432 -31 C 392 -27 352 -22 313 -14 C 273 -6 235 2 198 14 C 160 25 126 39 94 55 L 137 326 C 169 308 202 293 238 279 C 273 265 309 254 345 244 C 381 234 418 226 454 221 C 490 215 525 213 559 213 C 594 213 628 216 660 222 C 692 228 721 239 746 253 C 771 267 791 285 806 307 C 821 329 829 355 829 387 C 829 421 819 451 801 475 C 783 499 759 519 730 536 C 701 553 669 567 634 578 C 598 589 564 599 530 608 C 502 616 471 625 439 635 C 407 645 375 657 343 672 C 311 686 281 704 252 725 C 223 746 197 772 175 802 C 153 832 135 867 122 907 C 108 947 102 993 102 1047 C 102 1121 115 1184 142 1238 C 169 1292 207 1336 256 1371 C 304 1406 362 1432 429 1449 C 495 1466 569 1475 649 1475 C 692 1475 733 1472 771 1468 C 809 1464 845 1458 879 1450 C 913 1442 946 1434 977 1424 C 1008 1414 1039 1405 1069 1395 L 1030 1130 Z M 555 1575 L 330 1835 L 330 1901 L 431 1901 L 633 1743 L 646 1743 L 848 1901 L 951 1901 L 951 1835 L 725 1575 L 555 1575 Z" unicode="" />
<glyph horiz-adv-x="1028" d="M 858 819 C 808 840 756 858 702 873 C 648 887 592 895 535 895 C 515 895 497 893 479 890 C 461 887 444 882 430 875 C 416 868 404 858 396 846 C 387 834 383 819 383 801 C 383 780 388 762 399 748 C 410 734 426 721 446 710 C 466 699 490 689 518 680 C 546 671 578 662 612 653 C 651 642 691 629 731 613 C 771 597 808 577 840 552 C 872 526 899 495 919 457 C 939 419 950 373 950 319 C 950 261 938 209 914 165 C 890 120 857 82 815 52 C 772 22 721 -1 662 -17 C 602 -33 537 -41 465 -41 C 430 -41 395 -39 359 -35 C 323 -31 289 -25 256 -19 C 223 -12 192 -4 163 5 C 133 14 108 24 86 35 L 121 270 C 170 245 224 224 284 208 C 343 192 404 184 467 184 C 489 184 511 185 533 188 C 555 191 574 197 592 205 C 609 213 623 225 634 239 C 645 253 651 271 651 293 C 651 313 645 331 635 345 C 625 359 609 372 589 384 C 569 395 544 405 514 415 C 484 425 449 435 410 446 C 375 455 339 467 301 483 C 263 498 229 518 197 544 C 165 569 139 601 119 639 C 98 677 88 724 88 780 C 88 837 99 887 121 929 C 143 971 174 1006 214 1034 C 254 1062 301 1082 356 1096 C 410 1109 470 1116 535 1116 C 605 1116 670 1109 730 1096 C 790 1083 843 1068 891 1051 L 858 819 Z M 420 1204 L 195 1464 L 195 1530 L 296 1530 L 498 1372 L 511 1372 L 713 1530 L 816 1530 L 816 1464 L 590 1204 L 420 1204 Z" unicode="" />
<glyph horiz-adv-x="1352" d="M 379 1446 L 686 795 L 993 1446 L 1346 1446 L 831 500 L 831 0 L 520 0 L 520 500 L 10 1446 L 379 1446 Z M 1020 1828 L 1020 1589 L 771 1589 L 771 1828 L 1020 1828 Z M 592 1828 L 592 1589 L 342 1589 L 342 1828 L 592 1828 Z" unicode="" />
<glyph horiz-adv-x="1266" d="M 1174 1446 L 1174 1257 L 485 252 L 1184 252 L 1184 0 L 82 0 L 82 186 L 782 1194 L 158 1194 L 158 1446 L 1174 1446 Z M 573 1575 L 348 1835 L 348 1901 L 449 1901 L 651 1743 L 664 1743 L 866 1901 L 969 1901 L 969 1835 L 743 1575 L 573 1575 Z" unicode="" />
<glyph horiz-adv-x="963" d="M 897 1077 L 897 920 L 424 221 L 915 221 L 915 0 L 57 0 L 57 158 L 530 856 L 111 856 L 111 1077 L 897 1077 Z M 422 1204 L 197 1464 L 197 1530 L 298 1530 L 500 1372 L 513 1372 L 715 1530 L 818 1530 L 818 1464 L 592 1204 L 422 1204 Z" unicode="" />
<glyph horiz-adv-x="1276" d="M 561 809 L 625 1151 C 631 1193 644 1233 664 1269 C 684 1305 709 1337 741 1364 C 773 1390 811 1411 855 1427 C 899 1442 949 1450 1006 1450 C 1026 1450 1045 1449 1064 1448 C 1083 1446 1100 1444 1116 1442 C 1132 1439 1145 1436 1157 1433 C 1169 1430 1177 1427 1182 1423 L 1124 1217 C 1118 1217 1112 1218 1104 1220 C 1096 1221 1087 1222 1078 1223 C 1069 1224 1060 1225 1051 1226 C 1041 1226 1033 1227 1026 1227 C 1006 1227 990 1225 976 1222 C 962 1219 951 1214 941 1207 C 931 1199 924 1189 918 1176 C 912 1163 907 1146 903 1126 L 844 809 L 1106 809 L 1106 588 L 815 588 L 682 -162 C 674 -204 659 -244 638 -280 C 617 -316 590 -348 557 -375 C 524 -401 485 -422 440 -438 C 395 -453 345 -461 289 -461 C 269 -461 249 -460 230 -459 C 211 -457 194 -455 178 -453 C 162 -451 148 -448 137 -445 C 125 -442 117 -439 113 -436 L 170 -227 C 174 -228 181 -229 189 -231 C 197 -233 205 -234 215 -236 C 224 -237 233 -238 243 -239 C 252 -239 260 -240 268 -240 C 286 -240 302 -238 316 -236 C 330 -233 342 -228 352 -220 C 362 -212 370 -202 376 -189 C 382 -176 387 -159 391 -139 L 522 588 L 301 588 L 301 809 L 561 809 Z" unicode="" />
<glyph horiz-adv-x="526" d="M 479 1446 L 375 836 L 47 836 L 274 1446 L 479 1446 Z" unicode="" />
<glyph horiz-adv-x="895" d="M 532 1530 L 758 1268 L 758 1204 L 655 1204 L 453 1360 L 440 1360 L 238 1204 L 137 1204 L 137 1268 L 362 1530 L 532 1530 Z" unicode="" />
<glyph horiz-adv-x="895" d="M 362 1204 L 137 1464 L 137 1530 L 238 1530 L 440 1372 L 453 1372 L 655 1530 L 758 1530 L 758 1464 L 532 1204 L 362 1204 Z" unicode="" />
<glyph horiz-adv-x="895" d="M 719 1430 L 719 1245 L 174 1245 L 174 1430 L 719 1430 Z" unicode="" />
<glyph horiz-adv-x="895" d="M 289 1530 L 289 1479 C 289 1460 291 1443 296 1427 C 300 1411 309 1398 321 1386 C 333 1374 349 1365 369 1359 C 389 1353 414 1350 446 1350 C 476 1350 502 1353 522 1361 C 542 1369 559 1379 571 1391 C 583 1403 591 1417 596 1433 C 601 1448 604 1463 604 1479 L 604 1530 L 750 1530 L 750 1456 C 750 1422 743 1389 731 1359 C 718 1329 699 1302 674 1279 C 648 1256 617 1238 579 1224 C 541 1210 496 1204 446 1204 C 396 1204 352 1210 314 1224 C 276 1237 245 1255 220 1278 C 195 1300 176 1327 164 1358 C 151 1388 145 1421 145 1456 L 145 1530 L 289 1530 Z" unicode="" />
<glyph horiz-adv-x="895" d="M 602 1470 L 602 1227 L 293 1227 L 293 1470 L 602 1470 Z" unicode="" />
<glyph horiz-adv-x="895" d="M 186 1442 C 186 1474 192 1505 205 1534 C 217 1562 235 1587 258 1609 C 281 1631 308 1648 340 1660 C 371 1672 406 1679 444 1679 C 482 1679 516 1672 548 1660 C 579 1648 606 1631 629 1609 C 651 1587 669 1562 681 1534 C 693 1505 700 1474 700 1442 C 700 1409 693 1378 681 1349 C 669 1320 651 1295 629 1274 C 606 1252 579 1235 548 1223 C 516 1210 482 1204 444 1204 C 406 1204 371 1210 340 1223 C 308 1235 281 1252 258 1274 C 235 1295 217 1320 205 1349 C 192 1378 186 1409 186 1442 Z M 444 1561 C 428 1561 412 1557 398 1551 C 384 1545 371 1536 361 1526 C 350 1515 341 1502 335 1488 C 329 1473 326 1458 326 1442 C 326 1426 329 1410 335 1396 C 341 1382 350 1369 361 1359 C 371 1349 384 1340 398 1334 C 412 1328 428 1325 444 1325 C 460 1325 475 1328 489 1334 C 503 1340 516 1349 526 1359 C 536 1369 545 1382 551 1396 C 557 1410 561 1426 561 1442 C 561 1458 557 1473 551 1488 C 545 1502 536 1515 526 1526 C 516 1536 503 1545 489 1551 C 475 1557 460 1561 444 1561 Z" unicode="" />
<glyph horiz-adv-x="895" d="M 506 -172 C 495 -182 485 -193 477 -203 C 469 -213 465 -226 465 -242 C 465 -254 467 -263 472 -271 C 477 -279 483 -285 491 -289 C 499 -293 507 -295 517 -297 C 526 -298 535 -299 543 -299 C 553 -299 564 -298 578 -297 C 592 -295 605 -293 619 -291 C 633 -288 646 -285 658 -281 C 670 -277 679 -272 686 -268 L 707 -408 C 687 -423 662 -434 630 -441 C 598 -447 563 -451 526 -451 C 439 -451 371 -434 323 -400 C 274 -366 250 -318 250 -254 C 250 -186 278 -129 336 -82 L 449 8 L 682 8 L 682 0 L 506 -172 Z" unicode="" />
<glyph horiz-adv-x="895" d="M 563 1200 C 547 1200 533 1201 521 1204 C 508 1206 496 1210 484 1216 C 472 1222 460 1229 448 1237 C 436 1245 424 1256 410 1268 L 362 1303 C 352 1312 342 1319 334 1324 C 326 1328 317 1331 309 1331 C 299 1331 291 1329 283 1325 C 275 1321 266 1314 256 1303 L 195 1243 L 68 1337 L 147 1425 C 178 1458 210 1482 243 1496 C 275 1510 304 1518 330 1518 C 345 1518 359 1516 372 1514 C 385 1511 398 1507 410 1501 C 422 1495 434 1488 446 1480 C 458 1472 471 1462 485 1450 L 530 1415 C 540 1405 550 1398 559 1393 C 568 1388 576 1386 584 1386 C 600 1386 619 1395 639 1415 L 700 1477 L 825 1380 L 745 1294 C 714 1260 683 1235 651 1221 C 619 1207 589 1200 563 1200 Z" unicode="" />
<glyph horiz-adv-x="895" d="M 199 1272 L 307 1530 L 502 1530 L 502 1458 L 346 1204 L 199 1204 L 199 1272 Z M 557 1272 L 664 1530 L 858 1530 L 858 1458 L 705 1204 L 557 1204 L 557 1272 Z" unicode="" />
<glyph horiz-adv-x="1604" d="M 963 1446 L 1491 199 L 1491 0 L 111 0 L 111 195 L 639 1446 L 963 1446 Z M 737 950 L 449 250 L 1149 250 L 868 950 L 811 1120 L 795 1120 L 737 950 Z" unicode="" />
<glyph horiz-adv-x="1628" d="M 1260 242 L 1409 256 L 1534 256 L 1534 0 L 872 0 L 872 209 C 928 217 977 238 1019 270 C 1061 302 1095 342 1123 389 C 1151 436 1171 488 1185 545 C 1199 602 1206 660 1206 719 C 1206 791 1198 856 1182 916 C 1166 976 1141 1027 1109 1070 C 1077 1113 1036 1146 987 1170 C 938 1194 881 1206 815 1206 C 748 1206 690 1194 641 1170 C 591 1146 550 1113 518 1070 C 486 1027 462 976 446 916 C 430 856 422 791 422 719 C 422 660 428 602 442 545 C 456 488 476 436 504 389 C 532 342 566 302 608 270 C 650 238 699 217 756 209 L 756 0 L 94 0 L 94 256 L 219 256 L 369 242 L 369 252 C 332 278 298 308 266 340 C 234 372 206 408 182 450 C 158 491 140 538 126 592 C 112 645 106 707 106 778 C 106 888 124 986 161 1073 C 197 1159 247 1232 311 1292 C 375 1351 450 1396 536 1428 C 622 1459 714 1475 813 1475 C 913 1475 1006 1459 1092 1428 C 1178 1396 1253 1351 1317 1292 C 1381 1232 1431 1159 1467 1073 C 1503 986 1522 888 1522 778 C 1522 707 1515 645 1501 592 C 1487 538 1469 491 1445 450 C 1421 408 1394 372 1362 340 C 1330 308 1296 278 1260 252 L 1260 242 Z" unicode="" />
<glyph horiz-adv-x="1249" d="M 436 1077 L 436 373 C 436 355 438 337 444 318 C 449 299 458 282 472 266 C 485 250 503 238 527 228 C 551 218 581 213 618 213 C 642 213 666 217 690 225 C 713 233 734 245 752 260 C 770 275 785 293 796 315 C 807 337 813 361 813 389 L 813 1077 L 1108 1077 L 1108 274 C 1108 203 1114 145 1127 101 C 1140 56 1153 22 1165 0 L 879 0 C 872 13 864 34 854 63 C 844 92 838 126 836 164 C 814 128 793 98 771 74 C 749 50 727 30 703 16 C 679 2 653 -8 627 -14 C 601 -20 573 -23 543 -23 C 513 -23 483 -16 454 -2 C 425 12 402 28 385 47 L 377 39 L 418 -139 L 418 -451 L 141 -451 L 141 1077 L 436 1077 Z" unicode="" />
<glyph horiz-adv-x="1339" d="M 846 0 C 834 20 823 51 811 93 C 799 134 793 188 793 254 L 793 813 L 535 813 L 535 0 L 246 0 L 246 813 L 102 813 L 102 1077 L 1229 1077 L 1229 813 L 1081 813 L 1081 274 C 1081 203 1087 145 1100 101 C 1113 56 1126 22 1139 0 L 846 0 L 846 0 Z" unicode="" />
<glyph horiz-adv-x="78" d="" unicode="" />
<glyph horiz-adv-x="707" d="M 618 748 L 618 479 L 86 479 L 86 748 L 618 748 Z" unicode="" />
<glyph horiz-adv-x="707" d="M 618 748 L 618 479 L 86 479 L 86 748 L 618 748 Z" unicode="" />
<glyph horiz-adv-x="1249" d="M 1167 739 L 1167 483 L 82 483 L 82 739 L 1167 739 Z" unicode="" />
<glyph horiz-adv-x="2048" d="M 1966 739 L 1966 483 L 82 483 L 82 739 L 1966 739 Z" unicode="" />
<glyph horiz-adv-x="526" d="M 479 1446 L 375 836 L 47 836 L 274 1446 L 479 1446 Z" unicode="" />
<glyph horiz-adv-x="526" d="M 479 1446 L 252 836 L 47 836 L 154 1446 L 479 1446 Z" unicode="" />
<glyph horiz-adv-x="526" d="M 479 303 L 252 -307 L 47 -307 L 154 303 L 479 303 Z" unicode="" />
<glyph horiz-adv-x="997" d="M 479 1446 L 375 836 L 47 836 L 274 1446 L 479 1446 Z M 950 1446 L 844 836 L 518 836 L 745 1446 L 950 1446 Z" unicode="" />
<glyph horiz-adv-x="997" d="M 479 1446 L 252 836 L 47 836 L 154 1446 L 479 1446 Z M 950 1446 L 723 836 L 518 836 L 623 1446 L 950 1446 Z" unicode="" />
<glyph horiz-adv-x="997" d="M 479 303 L 252 -307 L 47 -307 L 154 303 L 479 303 Z M 950 303 L 723 -307 L 518 -307 L 623 303 L 950 303 Z" unicode="" />
<glyph horiz-adv-x="938" d="M 578 1446 L 578 1288 L 537 1151 L 551 1135 L 680 1174 L 838 1174 L 838 958 L 680 958 L 551 997 L 535 979 L 578 383 L 578 221 L 365 221 L 365 383 L 406 981 L 387 997 L 258 958 L 100 958 L 100 1174 L 258 1174 L 387 1135 L 403 1151 L 365 1288 L 365 1446 L 578 1446 Z" unicode="" />
<glyph horiz-adv-x="938" d="M 578 1446 L 578 1288 L 535 1151 L 553 1133 L 680 1174 L 838 1174 L 838 958 L 680 958 L 553 999 L 535 979 L 578 899 L 578 776 L 532 696 L 553 676 L 680 715 L 838 715 L 838 502 L 680 502 L 553 543 L 535 524 L 578 387 L 578 221 L 365 221 L 365 387 L 403 524 L 387 543 L 258 502 L 100 502 L 100 715 L 258 715 L 387 676 L 408 698 L 365 776 L 365 899 L 408 979 L 387 999 L 258 958 L 100 958 L 100 1174 L 258 1174 L 387 1133 L 406 1151 L 365 1288 L 365 1446 L 578 1446 Z" unicode="" />
<glyph horiz-adv-x="997" d="M 500 942 C 555 942 605 933 650 916 C 694 898 732 874 764 842 C 796 810 820 772 838 728 C 855 683 864 633 864 578 C 864 522 855 472 838 427 C 820 382 796 344 764 312 C 732 280 694 256 650 239 C 605 221 555 213 500 213 C 444 213 393 221 348 239 C 303 256 265 280 233 312 C 201 344 177 382 160 427 C 143 472 135 522 135 578 C 135 633 143 683 160 728 C 177 772 201 810 233 842 C 265 874 303 898 348 916 C 393 933 444 942 500 942 Z" unicode="" />
<glyph horiz-adv-x="2048" d="M 1825 330 L 1825 0 L 1497 0 L 1497 330 L 1825 330 Z M 1188 330 L 1188 0 L 860 0 L 860 330 L 1188 330 Z M 551 330 L 551 0 L 223 0 L 223 330 L 551 330 Z" unicode="" />
<glyph horiz-adv-x="2779" d="M 1497 1446 L 676 0 L 449 0 L 1270 1446 L 1497 1446 Z M 451 1477 C 515 1477 571 1466 618 1444 C 664 1422 703 1393 733 1355 C 763 1317 785 1273 799 1222 C 813 1170 821 1115 821 1055 C 821 996 814 940 801 888 C 787 836 766 790 736 750 C 706 710 668 679 621 656 C 574 632 517 621 451 621 C 383 621 326 632 280 656 C 233 679 195 710 166 750 C 137 790 116 836 103 888 C 90 940 84 995 84 1053 C 84 1114 90 1170 104 1222 C 118 1274 139 1318 169 1356 C 199 1394 237 1423 283 1445 C 329 1466 385 1477 451 1477 Z M 451 1296 C 415 1296 387 1289 365 1277 C 343 1264 325 1247 313 1225 C 301 1203 292 1178 288 1149 C 283 1119 281 1088 281 1055 C 281 1029 282 1001 286 971 C 289 941 297 914 309 889 C 321 863 338 842 360 826 C 382 809 413 801 451 801 C 487 801 516 808 539 823 C 561 837 579 857 591 881 C 603 905 612 932 616 962 C 620 992 623 1022 623 1053 C 623 1082 620 1111 616 1140 C 612 1169 603 1195 591 1218 C 579 1241 561 1260 539 1274 C 516 1288 487 1296 451 1296 Z M 1491 825 C 1555 825 1611 814 1658 792 C 1705 770 1744 741 1774 703 C 1804 665 1826 620 1840 569 C 1854 517 1862 462 1862 403 C 1862 345 1855 289 1841 237 C 1827 184 1806 138 1777 98 C 1747 58 1709 27 1662 4 C 1614 -19 1557 -31 1491 -31 C 1423 -31 1366 -19 1320 4 C 1274 27 1236 58 1207 98 C 1177 137 1156 183 1143 235 C 1130 287 1124 341 1124 399 C 1124 460 1131 517 1145 569 C 1159 621 1180 666 1210 704 C 1239 742 1277 771 1323 793 C 1369 814 1425 825 1491 825 Z M 1493 643 C 1457 643 1428 636 1406 624 C 1384 612 1366 595 1354 573 C 1341 551 1332 526 1328 497 C 1323 467 1321 436 1321 403 C 1321 377 1322 349 1326 319 C 1329 289 1337 261 1349 236 C 1361 210 1378 189 1401 172 C 1423 155 1454 147 1493 147 C 1529 147 1558 154 1580 169 C 1602 184 1619 204 1631 228 C 1643 252 1652 279 1656 309 C 1660 339 1663 370 1663 401 C 1663 430 1660 459 1656 488 C 1652 516 1643 542 1631 565 C 1619 588 1602 607 1580 621 C 1558 635 1529 643 1493 643 Z M 2327 825 C 2391 825 2447 814 2494 792 C 2540 770 2579 741 2609 703 C 2639 665 2661 620 2675 569 C 2689 517 2697 462 2697 403 C 2697 345 2690 289 2677 237 C 2663 184 2642 138 2612 98 C 2582 58 2544 27 2497 4 C 2450 -19 2393 -31 2327 -31 C 2259 -31 2202 -19 2156 4 C 2109 28 2071 59 2042 99 C 2013 138 1992 184 1979 236 C 1966 288 1960 342 1960 399 C 1960 460 1966 517 1980 569 C 1994 621 2015 666 2045 704 C 2075 742 2113 771 2159 793 C 2205 814 2261 825 2327 825 Z M 2329 645 C 2293 645 2264 638 2242 626 C 2220 613 2202 596 2190 574 C 2177 552 2168 526 2164 497 C 2159 467 2157 436 2157 403 C 2157 377 2158 350 2162 320 C 2165 290 2173 262 2185 236 C 2197 210 2214 189 2237 172 C 2259 155 2290 147 2329 147 C 2365 147 2394 154 2416 169 C 2438 184 2455 204 2467 228 C 2479 252 2488 279 2492 309 C 2496 339 2499 370 2499 401 C 2499 431 2497 460 2493 489 C 2489 518 2480 544 2468 567 C 2456 590 2438 609 2416 623 C 2394 637 2365 645 2329 645 Z" unicode="" />
<glyph horiz-adv-x="676" d="M 612 924 L 301 578 L 612 231 L 338 231 L 74 510 L 74 647 L 338 924 L 612 924 Z" unicode="" />
<glyph horiz-adv-x="676" d="M 340 924 L 604 647 L 604 510 L 340 231 L 66 231 L 375 578 L 66 924 L 340 924 Z" unicode="" />
<glyph horiz-adv-x="430" d="M 727 1446 L -78 0 L -295 0 L 510 1446 L 727 1446 Z" unicode="" />
<glyph horiz-adv-x="907" d="M 451 1466 C 515 1466 571 1454 617 1430 C 663 1406 700 1373 730 1331 C 760 1289 782 1241 796 1185 C 810 1129 817 1068 817 1004 C 817 940 810 879 797 822 C 784 764 763 714 734 671 C 705 627 667 593 621 568 C 574 542 517 530 451 530 C 385 530 328 542 282 568 C 236 594 198 628 170 671 C 141 714 120 764 107 821 C 94 878 88 938 88 1001 C 88 1067 94 1128 108 1185 C 122 1242 143 1291 173 1333 C 202 1374 239 1406 285 1430 C 331 1454 386 1466 451 1466 Z M 453 1274 C 422 1274 397 1266 378 1252 C 358 1238 343 1218 333 1194 C 322 1169 315 1140 311 1108 C 307 1075 305 1040 305 1004 C 305 975 306 944 309 911 C 312 878 319 847 329 819 C 339 791 353 767 373 749 C 393 730 419 721 453 721 C 485 721 510 729 529 746 C 548 762 563 784 574 810 C 584 836 591 866 595 900 C 598 933 600 967 600 1001 C 600 1033 598 1066 595 1099 C 591 1131 584 1161 574 1187 C 563 1213 548 1234 529 1250 C 510 1266 485 1274 453 1274 Z" unicode="" />
<glyph horiz-adv-x="844" d="M 668 1446 L 668 885 L 778 885 L 778 717 L 668 717 L 668 549 L 449 549 L 449 717 L 66 717 L 66 887 L 426 1446 L 668 1446 Z M 229 885 L 449 885 L 449 1104 L 457 1217 L 451 1219 L 229 885 Z" unicode="" />
<glyph horiz-adv-x="840" d="M 713 1446 L 690 1268 L 307 1268 L 295 1092 C 323 1115 352 1131 382 1141 C 412 1150 440 1155 465 1155 C 557 1155 629 1131 680 1085 C 730 1038 756 971 756 885 C 756 822 744 768 720 724 C 696 679 662 642 617 614 C 571 585 516 564 450 550 C 384 536 310 530 227 530 C 203 530 184 530 170 531 C 156 531 144 533 135 537 L 123 725 C 135 723 149 723 166 723 C 183 723 203 723 227 723 C 285 723 334 726 375 734 C 415 742 448 752 474 766 C 499 780 517 796 529 815 C 541 834 547 855 547 877 C 547 891 545 905 541 919 C 537 932 531 944 522 954 C 512 964 500 972 484 978 C 468 984 449 987 426 987 C 404 987 384 984 367 980 C 349 976 333 970 318 963 C 303 955 289 946 276 936 C 263 925 250 913 236 901 L 111 952 L 145 1446 L 713 1446 Z" unicode="" />
<glyph horiz-adv-x="860" d="M 295 842 C 295 798 307 764 331 739 C 355 714 390 702 436 702 C 478 702 511 713 535 737 C 559 760 571 794 571 838 C 571 882 558 915 534 939 C 509 963 475 975 432 975 C 388 975 355 963 331 939 C 307 915 295 883 295 842 Z M 688 1276 C 677 1278 665 1279 651 1281 C 637 1282 623 1283 609 1284 C 595 1284 581 1285 569 1285 C 556 1285 545 1286 537 1286 C 459 1286 400 1268 358 1232 C 316 1196 293 1137 289 1053 C 303 1071 320 1085 338 1096 C 356 1107 374 1116 393 1122 C 411 1128 430 1133 448 1135 C 466 1137 482 1139 498 1139 C 540 1139 578 1132 614 1120 C 649 1108 679 1089 705 1065 C 730 1041 750 1011 764 975 C 778 939 786 898 786 852 C 786 801 777 755 761 715 C 745 674 721 639 691 611 C 661 583 624 561 581 546 C 538 531 490 524 436 524 C 384 524 336 529 292 541 C 248 553 211 574 180 604 C 149 634 125 676 108 729 C 90 781 82 848 82 930 C 82 1012 90 1087 106 1153 C 122 1219 148 1276 184 1322 C 220 1368 268 1404 327 1429 C 385 1453 457 1466 543 1466 C 554 1466 566 1465 579 1465 C 592 1465 605 1464 618 1463 C 631 1462 643 1460 655 1458 C 667 1456 677 1453 686 1450 L 688 1276 Z" unicode="" />
<glyph horiz-adv-x="764" d="M 709 1446 L 709 1300 C 669 1257 632 1213 600 1168 C 567 1123 538 1072 512 1014 C 486 956 463 890 443 815 C 423 739 407 651 393 549 L 160 549 C 169 626 183 697 202 761 C 221 825 244 885 271 942 C 297 999 327 1054 361 1107 C 395 1159 431 1213 471 1268 L 68 1268 L 68 1446 L 709 1446 Z" unicode="" />
<glyph horiz-adv-x="874" d="M 221 1034 C 213 1036 202 1041 189 1049 C 176 1056 163 1067 151 1082 C 138 1096 127 1115 118 1138 C 108 1160 104 1188 104 1221 C 104 1253 111 1284 125 1314 C 139 1343 161 1369 189 1391 C 217 1413 251 1431 293 1444 C 335 1457 383 1464 438 1464 C 492 1464 539 1457 581 1444 C 622 1431 657 1413 685 1391 C 713 1369 734 1343 748 1314 C 762 1284 770 1253 770 1221 C 770 1188 765 1160 756 1138 C 746 1115 735 1096 723 1082 C 711 1067 698 1056 685 1049 C 672 1041 662 1036 655 1034 L 655 1022 C 663 1020 674 1014 690 1006 C 706 998 721 985 736 969 C 751 953 764 931 776 905 C 787 879 793 847 793 809 C 793 766 785 727 769 693 C 753 659 730 629 700 605 C 670 581 633 562 589 549 C 545 536 494 530 438 530 C 380 530 329 536 285 549 C 241 562 204 581 174 605 C 144 629 122 659 107 693 C 91 727 84 766 84 809 C 84 847 89 879 100 905 C 111 931 124 953 139 969 C 154 985 169 998 185 1006 C 200 1014 212 1020 221 1022 L 221 1034 Z M 315 1196 C 315 1162 325 1137 346 1119 C 367 1101 398 1092 438 1092 C 478 1092 508 1101 528 1119 C 548 1137 559 1162 559 1196 C 559 1229 548 1255 528 1274 C 508 1293 478 1303 438 1303 C 398 1303 367 1293 346 1274 C 325 1255 315 1229 315 1196 Z M 299 825 C 299 789 310 759 333 736 C 355 713 390 702 436 702 C 483 702 518 713 542 736 C 566 759 578 789 578 825 C 578 859 566 886 542 908 C 518 929 484 940 438 940 C 392 940 358 929 334 908 C 310 886 299 859 299 825 Z" unicode="" />
<glyph horiz-adv-x="860" d="M 424 1288 C 382 1288 349 1276 325 1253 C 301 1230 289 1197 289 1153 C 289 1109 301 1075 325 1051 C 349 1027 382 1016 426 1016 C 469 1016 503 1027 527 1051 C 551 1075 563 1107 563 1149 C 563 1192 551 1226 527 1251 C 503 1275 469 1288 424 1288 Z M 322 705 C 360 705 394 709 424 718 C 454 726 479 740 500 759 C 521 777 538 801 550 831 C 562 861 569 897 571 940 C 555 920 539 905 521 893 C 503 881 484 872 466 866 C 447 860 429 855 411 853 C 393 851 376 850 362 850 C 320 850 281 856 246 869 C 211 881 181 900 155 924 C 129 948 109 979 95 1015 C 81 1051 74 1092 74 1139 C 74 1189 82 1235 98 1275 C 114 1315 138 1350 168 1378 C 198 1406 234 1428 277 1443 C 320 1458 368 1466 422 1466 C 474 1466 522 1460 566 1448 C 610 1436 647 1414 679 1384 C 710 1354 734 1312 752 1260 C 769 1208 778 1141 778 1061 C 778 977 770 902 754 836 C 738 770 711 714 675 668 C 639 622 591 586 533 562 C 474 538 402 526 317 526 C 294 526 269 527 241 529 C 213 531 190 535 172 543 L 172 717 C 182 714 195 712 209 711 C 223 709 237 708 251 707 C 265 706 278 705 291 705 C 303 705 314 705 322 705 Z" unicode="" />
<glyph horiz-adv-x="496" d="M 74 942 C 74 1013 82 1079 99 1141 C 115 1203 136 1258 162 1308 C 188 1358 216 1401 247 1438 C 278 1475 308 1504 336 1526 L 496 1526 L 496 1489 C 464 1467 435 1438 407 1400 C 379 1362 355 1319 335 1271 C 314 1222 298 1170 286 1114 C 274 1058 268 1000 268 942 C 268 874 274 809 286 749 C 298 689 314 634 335 584 C 355 534 379 491 407 454 C 435 416 464 387 496 365 L 496 328 L 336 328 C 308 350 278 379 247 415 C 216 451 188 494 162 545 C 136 595 115 654 99 720 C 82 786 74 860 74 942 Z" unicode="" />
<glyph horiz-adv-x="496" d="M 422 942 C 422 860 413 786 397 720 C 380 654 359 595 333 545 C 307 494 279 451 249 415 C 218 379 188 350 160 328 L -2 328 L -2 365 C 30 387 59 416 87 454 C 115 491 139 534 160 584 C 180 634 197 689 209 749 C 221 809 227 874 227 942 C 227 1000 221 1058 209 1114 C 197 1170 180 1222 160 1271 C 139 1319 115 1362 87 1400 C 59 1438 30 1467 -2 1489 L -2 1526 L 160 1526 C 188 1504 218 1475 249 1438 C 279 1401 307 1358 333 1308 C 359 1258 380 1203 397 1141 C 413 1079 422 1013 422 942 Z" unicode="" />
<glyph horiz-adv-x="979" d="M 322 1468 L 336 1354 C 358 1382 379 1406 399 1424 C 419 1442 439 1456 459 1466 C 479 1476 499 1482 519 1486 C 539 1489 560 1491 582 1491 C 632 1491 674 1484 709 1470 C 743 1456 772 1438 795 1415 C 823 1387 844 1351 856 1309 C 868 1266 874 1213 874 1151 L 874 637 L 637 637 L 637 1180 C 637 1192 635 1206 631 1220 C 627 1234 619 1246 609 1258 C 599 1269 585 1278 567 1286 C 549 1294 527 1298 500 1298 C 482 1298 465 1295 448 1289 C 430 1283 415 1274 401 1263 C 387 1252 375 1239 367 1223 C 358 1207 354 1189 354 1169 L 354 637 L 119 637 L 119 1313 L 102 1468 L 322 1468 Z" unicode="" />
<glyph horiz-adv-x="907" d="M 451 631 C 515 631 571 619 617 595 C 663 571 700 538 730 496 C 760 454 782 406 796 350 C 810 294 817 233 817 169 C 817 105 810 44 797 -13 C 784 -70 763 -120 734 -164 C 705 -207 667 -241 621 -267 C 574 -292 517 -305 451 -305 C 385 -305 328 -292 282 -266 C 236 -240 198 -206 170 -163 C 141 -120 120 -70 107 -13 C 94 43 88 103 88 166 C 88 232 94 293 108 350 C 122 407 143 456 173 498 C 202 539 239 571 285 595 C 331 619 386 631 451 631 Z M 453 439 C 422 439 397 431 378 417 C 358 403 343 383 333 359 C 322 334 315 305 311 273 C 307 240 305 205 305 169 C 305 140 306 109 309 76 C 312 43 319 12 329 -15 C 339 -43 353 -67 373 -86 C 393 -104 419 -114 453 -114 C 485 -114 510 -105 529 -89 C 548 -72 563 -50 574 -24 C 584 1 591 31 595 65 C 598 98 600 132 600 166 C 600 198 598 231 595 264 C 591 296 584 326 574 352 C 563 378 548 399 529 415 C 510 431 485 439 453 439 Z" unicode="" />
<glyph horiz-adv-x="555" d="M 221 610 L 412 610 L 403 514 L 403 -287 L 182 -287 L 182 389 L 186 428 L 182 428 L 43 364 L 43 546 L 221 610 Z" unicode="" />
<glyph horiz-adv-x="854" d="M 84 408 C 94 432 108 458 126 484 C 144 510 166 534 194 556 C 221 578 254 596 293 610 C 332 624 378 631 432 631 C 473 631 513 625 552 615 C 590 605 625 589 655 567 C 685 545 709 518 727 484 C 745 450 754 409 754 363 C 754 341 751 319 746 297 C 741 274 732 251 720 227 C 708 203 691 178 669 153 C 647 127 620 102 586 76 L 367 -106 L 756 -106 L 756 -286 L 90 -286 L 90 -106 L 326 97 C 353 119 379 140 403 162 C 427 183 448 204 466 225 C 484 245 498 266 508 286 C 518 306 524 325 524 345 C 524 357 521 370 517 382 C 512 394 505 405 496 415 C 486 424 475 432 461 438 C 447 444 432 447 414 447 C 384 447 357 437 332 418 C 306 399 283 369 262 328 L 84 408 Z" unicode="" />
<glyph horiz-adv-x="848" d="M 66 482 C 78 500 94 519 116 537 C 138 555 163 572 193 586 C 223 600 256 611 293 620 C 329 628 368 633 410 633 C 446 633 482 628 520 620 C 557 612 591 598 621 580 C 651 562 676 538 696 509 C 715 480 725 445 725 404 C 725 378 721 356 714 337 C 707 317 698 300 686 286 C 674 272 661 260 647 250 C 632 240 617 233 602 228 L 602 218 C 618 215 636 209 655 201 C 674 193 691 181 707 165 C 723 149 736 130 746 106 C 756 82 762 53 762 19 C 762 -32 749 -78 724 -118 C 699 -158 663 -191 617 -219 C 570 -247 513 -268 447 -283 C 380 -297 305 -305 223 -305 C 197 -305 176 -304 159 -304 C 142 -303 129 -301 119 -298 L 106 -110 C 119 -111 135 -112 155 -112 C 175 -112 197 -112 223 -112 C 328 -112 408 -100 462 -76 C 516 -52 543 -19 543 23 C 543 51 533 71 514 85 C 495 98 472 105 444 105 C 438 105 432 104 425 104 C 417 103 407 102 395 100 C 382 98 367 95 349 92 C 331 88 309 84 283 78 L 248 240 L 375 259 C 391 261 407 265 424 271 C 440 276 455 283 469 292 C 482 301 493 312 501 325 C 509 337 514 352 514 369 C 514 395 503 417 483 433 C 462 449 435 457 401 457 C 369 457 339 449 311 435 C 282 420 249 397 211 365 L 66 482 Z" unicode="" />
<glyph horiz-adv-x="844" d="M 668 609 L 668 48 L 778 48 L 778 -120 L 668 -120 L 668 -288 L 449 -288 L 449 -120 L 66 -120 L 66 50 L 426 609 L 668 609 Z M 229 48 L 449 48 L 449 267 L 457 380 L 451 382 L 229 48 Z" unicode="" />
<glyph horiz-adv-x="840" d="M 713 610 L 690 432 L 307 432 L 295 256 C 323 279 352 295 382 305 C 412 314 440 319 465 319 C 557 319 629 295 680 249 C 730 202 756 135 756 49 C 756 -13 744 -67 720 -112 C 696 -156 662 -193 617 -222 C 571 -250 516 -271 450 -285 C 384 -299 310 -306 227 -306 C 203 -306 184 -305 170 -305 C 156 -304 144 -302 135 -299 L 123 -111 C 135 -112 149 -113 166 -113 C 183 -113 203 -113 227 -113 C 285 -113 334 -109 375 -101 C 415 -93 448 -83 474 -69 C 499 -55 517 -39 529 -20 C 541 -1 547 19 547 41 C 547 55 545 69 541 83 C 537 96 531 108 522 118 C 512 128 500 136 484 142 C 468 148 449 151 426 151 C 404 151 384 148 367 144 C 349 140 333 134 318 127 C 303 119 289 110 276 100 C 263 89 250 77 236 65 L 111 116 L 145 610 L 713 610 Z" unicode="" />
<glyph horiz-adv-x="860" d="M 295 14 C 295 -29 307 -63 331 -88 C 355 -113 390 -126 436 -126 C 478 -126 511 -114 535 -91 C 559 -67 571 -34 571 10 C 571 54 558 87 534 111 C 509 135 475 147 432 147 C 388 147 355 135 331 111 C 307 87 295 55 295 14 Z M 688 448 C 677 450 665 451 651 453 C 637 454 623 455 609 456 C 595 456 581 457 569 457 C 556 457 545 458 537 458 C 459 458 400 440 358 404 C 316 368 293 309 289 225 C 303 243 320 257 338 268 C 356 279 374 288 393 294 C 411 300 430 305 448 307 C 466 309 482 311 498 311 C 540 311 578 304 614 292 C 649 280 679 261 705 237 C 730 213 750 183 764 147 C 778 111 786 70 786 24 C 786 -26 777 -72 761 -113 C 745 -153 721 -188 691 -216 C 661 -244 624 -266 581 -281 C 538 -296 490 -304 436 -304 C 384 -304 336 -298 292 -286 C 248 -274 211 -253 180 -223 C 149 -193 125 -151 108 -99 C 90 -46 82 20 82 102 C 82 184 90 259 106 325 C 122 391 148 448 184 494 C 220 540 268 576 327 601 C 385 625 457 638 543 638 C 554 638 566 637 579 637 C 592 637 605 636 618 635 C 631 634 643 632 655 630 C 667 628 677 625 686 622 L 688 448 Z" unicode="" />
<glyph horiz-adv-x="764" d="M 709 611 L 709 465 C 669 422 632 378 600 333 C 567 288 538 237 512 179 C 486 121 463 55 443 -20 C 423 -95 407 -184 393 -286 L 160 -286 C 169 -208 183 -138 202 -74 C 221 -10 244 50 271 107 C 297 164 327 219 361 272 C 395 324 431 378 471 433 L 68 433 L 68 611 L 709 611 Z" unicode="" />
<glyph horiz-adv-x="874" d="M 221 198 C 213 200 202 205 189 213 C 176 220 163 231 151 246 C 138 260 127 279 118 302 C 108 324 104 352 104 385 C 104 417 111 448 125 478 C 139 507 161 533 189 555 C 217 577 251 595 293 608 C 335 621 383 628 438 628 C 492 628 539 621 581 608 C 622 595 657 577 685 555 C 713 533 734 507 748 478 C 762 448 770 417 770 385 C 770 352 765 324 756 302 C 746 279 735 260 723 246 C 711 231 698 220 685 213 C 672 205 662 200 655 198 L 655 186 C 663 184 674 178 690 170 C 706 162 721 149 736 133 C 751 117 764 95 776 69 C 787 43 793 11 793 -27 C 793 -69 785 -108 769 -142 C 753 -176 730 -206 700 -230 C 670 -254 633 -273 589 -286 C 545 -299 494 -306 438 -306 C 380 -306 329 -299 285 -286 C 241 -273 204 -254 174 -230 C 144 -206 122 -176 107 -142 C 91 -108 84 -69 84 -27 C 84 11 89 43 100 69 C 111 95 124 117 139 133 C 154 149 169 162 185 170 C 200 178 212 184 221 186 L 221 198 Z M 315 360 C 315 326 325 301 346 283 C 367 265 398 256 438 256 C 478 256 508 265 528 283 C 548 301 559 326 559 360 C 559 393 548 419 528 438 C 508 457 478 467 438 467 C 398 467 367 457 346 438 C 325 419 315 393 315 360 Z M 299 -11 C 299 -47 310 -76 333 -99 C 355 -122 390 -134 436 -134 C 483 -134 518 -122 542 -99 C 566 -76 578 -47 578 -11 C 578 23 566 50 542 72 C 518 93 484 104 438 104 C 392 104 358 93 334 72 C 310 50 299 23 299 -11 Z" unicode="" />
<glyph horiz-adv-x="860" d="M 424 458 C 382 458 349 446 325 423 C 301 400 289 367 289 323 C 289 279 301 245 325 221 C 349 197 382 186 426 186 C 469 186 503 197 527 221 C 551 245 563 277 563 319 C 563 362 551 396 527 421 C 503 445 469 458 424 458 Z M 322 -125 C 360 -125 394 -120 424 -112 C 454 -103 479 -89 500 -71 C 521 -52 538 -28 550 1 C 562 31 569 67 571 110 C 555 90 539 75 521 63 C 503 51 484 42 466 36 C 447 30 429 25 411 23 C 393 21 376 20 362 20 C 320 20 281 26 246 39 C 211 51 181 70 155 94 C 129 118 109 149 95 185 C 81 221 74 262 74 309 C 74 359 82 405 98 445 C 114 485 138 520 168 548 C 198 576 234 598 277 613 C 320 628 368 636 422 636 C 474 636 522 630 566 618 C 610 606 647 584 679 554 C 710 524 734 482 752 430 C 769 378 778 311 778 231 C 778 147 770 72 754 6 C 738 -59 711 -116 675 -162 C 639 -208 591 -243 533 -267 C 474 -291 402 -304 317 -304 C 294 -304 269 -303 241 -301 C 213 -299 190 -294 172 -287 L 172 -113 C 182 -115 195 -117 209 -119 C 223 -120 237 -121 251 -122 C 265 -123 278 -124 291 -124 C 303 -124 314 -125 322 -125 Z" unicode="" />
<glyph horiz-adv-x="1276" d="M 37 967 L 217 967 C 233 1041 257 1109 289 1171 C 320 1233 359 1287 406 1332 C 453 1377 508 1412 571 1437 C 634 1462 706 1475 786 1475 C 819 1475 853 1473 888 1470 C 923 1466 957 1462 991 1456 C 1024 1450 1055 1442 1085 1434 C 1114 1426 1140 1417 1163 1407 L 1096 1159 C 1076 1167 1054 1174 1030 1182 C 1005 1189 979 1195 953 1201 C 926 1207 899 1211 873 1214 C 846 1217 821 1219 797 1219 C 759 1219 726 1212 698 1200 C 669 1188 644 1170 623 1148 C 601 1126 583 1099 569 1068 C 555 1037 543 1003 535 967 L 973 967 L 973 801 L 510 801 L 510 737 C 510 723 510 708 510 694 C 510 680 510 666 512 653 L 973 653 L 973 487 L 535 487 C 543 450 554 416 568 384 C 581 352 597 325 617 302 C 636 279 658 261 684 248 C 709 235 738 229 770 229 C 842 229 905 234 957 246 C 1009 258 1056 271 1098 287 L 1163 39 C 1141 29 1114 21 1084 13 C 1054 5 1021 -2 986 -8 C 951 -14 915 -18 878 -22 C 840 -25 804 -27 768 -27 C 688 -27 616 -14 554 10 C 491 34 436 69 390 114 C 344 159 306 213 276 276 C 246 339 225 409 211 487 L 37 487 L 37 653 L 193 653 L 193 709 C 193 724 193 739 193 755 C 193 770 193 785 195 801 L 37 801 L 37 967 Z" unicode="" />
<glyph horiz-adv-x="1249" d="M 584 776 C 620 802 650 827 674 853 C 698 878 717 904 731 930 C 745 956 754 984 760 1012 C 765 1040 768 1070 768 1102 C 768 1161 760 1203 744 1228 C 728 1253 704 1266 674 1266 C 660 1266 648 1263 637 1259 C 626 1254 617 1246 609 1236 C 601 1225 594 1211 590 1193 C 586 1175 584 1152 584 1126 L 584 776 Z M 303 594 L 303 1102 C 303 1172 311 1232 329 1281 C 346 1329 370 1368 402 1398 C 433 1427 470 1448 514 1461 C 557 1474 605 1481 657 1481 C 705 1481 751 1475 793 1463 C 835 1451 872 1432 904 1404 C 936 1376 961 1339 979 1293 C 997 1247 1006 1189 1006 1120 C 1006 1059 998 1003 982 952 C 966 901 942 852 908 806 C 874 759 831 713 778 667 C 724 621 660 574 584 524 L 584 326 C 584 286 593 258 613 244 C 633 230 662 223 700 223 C 724 223 750 225 776 229 C 802 233 826 239 850 245 C 874 251 896 257 916 264 C 936 271 953 277 967 283 L 967 59 C 951 47 932 36 912 26 C 892 15 869 6 843 -2 C 817 -10 787 -16 755 -21 C 722 -26 685 -29 645 -29 C 529 -29 443 -6 387 39 C 331 85 303 158 303 258 L 303 324 L 180 229 L 180 500 L 303 594 Z" unicode="" />
<glyph horiz-adv-x="1376" d="M 604 1446 L 780 1446 L 913 1053 L 924 1053 L 1057 1446 L 1233 1446 L 1233 840 L 1116 840 L 1116 1268 L 1118 1325 L 1110 1325 L 1094 1268 L 971 926 L 864 926 L 741 1268 L 725 1325 L 717 1325 L 719 1268 L 719 840 L 604 840 L 604 1446 Z M 217 1346 L 63 1346 L 63 1446 L 494 1446 L 494 1346 L 338 1346 L 338 840 L 217 840 L 217 1346 Z" unicode="" />
<glyph horiz-adv-x="1628" d="M 1260 242 L 1409 256 L 1534 256 L 1534 0 L 872 0 L 872 209 C 928 217 977 238 1019 270 C 1061 302 1095 342 1123 389 C 1151 436 1171 488 1185 545 C 1199 602 1206 660 1206 719 C 1206 791 1198 856 1182 916 C 1166 976 1141 1027 1109 1070 C 1077 1113 1036 1146 987 1170 C 938 1194 881 1206 815 1206 C 748 1206 690 1194 641 1170 C 591 1146 550 1113 518 1070 C 486 1027 462 976 446 916 C 430 856 422 791 422 719 C 422 660 428 602 442 545 C 456 488 476 436 504 389 C 532 342 566 302 608 270 C 650 238 699 217 756 209 L 756 0 L 94 0 L 94 256 L 219 256 L 369 242 L 369 252 C 332 278 298 308 266 340 C 234 372 206 408 182 450 C 158 491 140 538 126 592 C 112 645 106 707 106 778 C 106 888 124 986 161 1073 C 197 1159 247 1232 311 1292 C 375 1351 450 1396 536 1428 C 622 1459 714 1475 813 1475 C 913 1475 1006 1459 1092 1428 C 1178 1396 1253 1351 1317 1292 C 1381 1232 1431 1159 1467 1073 C 1503 986 1522 888 1522 778 C 1522 707 1515 645 1501 592 C 1487 538 1469 491 1445 450 C 1421 408 1394 372 1362 340 C 1330 308 1296 278 1260 252 L 1260 242 Z" unicode="" />
<glyph horiz-adv-x="1735" d="M 444 723 C 444 717 445 714 448 713 C 451 711 455 711 459 711 L 1274 711 C 1275 711 1278 711 1284 713 C 1289 714 1292 717 1292 723 L 1292 928 C 1292 934 1291 940 1289 947 C 1287 954 1284 962 1278 971 C 1234 1035 1178 1084 1108 1119 C 1038 1153 959 1171 870 1171 C 835 1171 797 1166 757 1156 C 716 1146 677 1132 639 1114 C 601 1096 566 1075 534 1051 C 502 1026 478 999 461 971 C 457 963 453 956 449 948 C 445 940 444 934 444 928 L 444 723 Z M 444 340 C 444 328 444 318 446 309 C 447 299 452 291 461 283 C 521 214 586 163 655 131 C 724 98 796 82 870 82 C 954 82 1034 98 1108 130 C 1182 162 1248 213 1305 285 L 1501 285 C 1459 231 1414 184 1365 144 C 1316 104 1265 72 1211 46 C 1157 20 1101 1 1043 -10 C 985 -22 928 -29 870 -29 C 809 -29 749 -21 690 -7 C 630 6 573 27 519 55 C 465 82 415 115 369 154 C 323 192 283 236 249 285 C 215 333 188 386 169 444 C 149 501 140 562 141 627 C 141 693 150 756 170 814 C 189 872 216 926 250 975 C 284 1023 325 1067 371 1105 C 417 1143 468 1175 522 1201 C 576 1227 632 1247 691 1261 C 750 1275 810 1282 870 1282 C 966 1282 1058 1265 1146 1233 C 1234 1201 1311 1155 1377 1095 C 1443 1035 1496 963 1536 879 C 1575 795 1595 700 1595 596 L 459 596 C 455 596 451 594 448 591 C 445 587 444 584 444 580 L 444 340 Z" unicode="" />
<glyph horiz-adv-x="1833" d="M 221 1446 L 412 1446 L 403 1350 L 403 549 L 182 549 L 182 1225 L 186 1264 L 182 1264 L 43 1200 L 43 1382 L 221 1446 Z M 1282 1446 L 477 0 L 260 0 L 1065 1446 L 1282 1446 Z M 1051 769 C 1063 787 1079 806 1101 824 C 1123 842 1148 859 1178 873 C 1208 887 1241 898 1278 907 C 1314 915 1353 920 1395 920 C 1431 920 1467 915 1505 907 C 1542 899 1576 885 1606 867 C 1636 849 1661 825 1681 796 C 1700 767 1710 732 1710 691 C 1710 665 1706 643 1699 624 C 1692 604 1683 587 1671 573 C 1659 559 1646 547 1632 537 C 1617 527 1602 520 1587 515 L 1587 505 C 1603 502 1621 496 1640 488 C 1659 480 1676 468 1692 452 C 1708 436 1721 417 1731 393 C 1741 369 1747 340 1747 306 C 1747 254 1734 209 1709 169 C 1684 129 1648 95 1602 67 C 1555 39 1498 18 1432 4 C 1365 -10 1290 -18 1208 -18 C 1182 -18 1161 -17 1144 -17 C 1127 -16 1114 -14 1104 -11 L 1091 177 C 1104 175 1120 175 1140 175 C 1160 175 1182 175 1208 175 C 1313 175 1393 187 1447 211 C 1501 235 1528 268 1528 310 C 1528 338 1518 358 1499 372 C 1480 385 1457 392 1429 392 C 1423 392 1417 391 1410 391 C 1402 390 1392 389 1380 387 C 1367 385 1352 382 1334 379 C 1316 375 1294 371 1268 365 L 1233 527 L 1360 546 C 1376 548 1392 552 1409 558 C 1425 563 1440 570 1454 579 C 1467 588 1478 599 1486 612 C 1494 624 1499 639 1499 656 C 1499 682 1488 704 1468 720 C 1447 736 1420 744 1386 744 C 1354 744 1324 736 1296 722 C 1267 707 1234 684 1196 652 L 1051 769 Z" unicode="" />
<glyph horiz-adv-x="2132" d="M 84 1243 C 94 1267 108 1293 126 1319 C 144 1345 166 1369 194 1391 C 221 1413 254 1431 293 1445 C 332 1459 378 1466 432 1466 C 473 1466 513 1460 552 1450 C 590 1440 625 1424 655 1402 C 685 1380 709 1353 727 1319 C 745 1285 754 1244 754 1198 C 754 1176 751 1154 746 1132 C 741 1109 732 1086 720 1062 C 708 1038 691 1013 669 988 C 647 962 620 937 586 911 L 367 729 L 756 729 L 756 549 L 90 549 L 90 729 L 326 932 C 353 954 379 975 403 997 C 427 1018 448 1039 466 1060 C 484 1080 498 1101 508 1121 C 518 1141 524 1160 524 1180 C 524 1192 521 1205 517 1217 C 512 1229 505 1240 496 1250 C 486 1259 475 1267 461 1273 C 447 1279 432 1282 414 1282 C 384 1282 357 1272 332 1253 C 306 1234 283 1204 262 1163 L 84 1243 Z M 1580 1446 L 775 0 L 558 0 L 1363 1446 L 1580 1446 Z M 1350 769 C 1362 787 1378 806 1400 824 C 1422 842 1447 859 1477 873 C 1507 887 1540 898 1577 907 C 1613 915 1652 920 1694 920 C 1730 920 1766 915 1804 907 C 1841 899 1875 885 1905 867 C 1935 849 1960 825 1980 796 C 1999 767 2009 732 2009 691 C 2009 665 2005 643 1998 624 C 1991 604 1982 587 1970 573 C 1958 559 1945 547 1931 537 C 1916 527 1901 520 1886 515 L 1886 505 C 1902 502 1920 496 1939 488 C 1958 480 1975 468 1991 452 C 2007 436 2020 417 2030 393 C 2040 369 2046 340 2046 306 C 2046 254 2033 209 2008 169 C 1983 129 1947 95 1901 67 C 1854 39 1797 18 1731 4 C 1664 -10 1589 -18 1507 -18 C 1481 -18 1460 -17 1443 -17 C 1426 -16 1413 -14 1403 -11 L 1390 177 C 1403 175 1419 175 1439 175 C 1459 175 1481 175 1507 175 C 1612 175 1692 187 1746 211 C 1800 235 1827 268 1827 310 C 1827 338 1817 358 1798 372 C 1779 385 1756 392 1728 392 C 1722 392 1716 391 1709 391 C 1701 390 1691 389 1679 387 C 1666 385 1651 382 1633 379 C 1615 375 1593 371 1567 365 L 1532 527 L 1659 546 C 1675 548 1691 552 1708 558 C 1724 563 1739 570 1753 579 C 1766 588 1777 599 1785 612 C 1793 624 1798 639 1798 656 C 1798 682 1787 704 1767 720 C 1746 736 1719 744 1685 744 C 1653 744 1623 736 1595 722 C 1566 707 1533 684 1495 652 L 1350 769 Z" unicode="" />
<glyph horiz-adv-x="1878" d="M 221 1446 L 412 1446 L 403 1350 L 403 549 L 182 549 L 182 1225 L 186 1264 L 182 1264 L 43 1200 L 43 1382 L 221 1446 Z M 1282 1446 L 477 0 L 260 0 L 1065 1446 L 1282 1446 Z M 1225 486 C 1217 488 1206 493 1193 501 C 1180 508 1167 519 1155 534 C 1142 548 1131 567 1122 590 C 1112 612 1108 640 1108 673 C 1108 705 1115 736 1129 766 C 1143 795 1165 821 1193 843 C 1221 865 1255 883 1297 896 C 1339 909 1387 916 1442 916 C 1496 916 1543 909 1585 896 C 1626 883 1661 865 1689 843 C 1717 821 1738 795 1752 766 C 1766 736 1774 705 1774 673 C 1774 640 1769 612 1760 590 C 1750 567 1739 548 1727 534 C 1715 519 1702 508 1689 501 C 1676 493 1666 488 1659 486 L 1659 474 C 1667 472 1678 466 1694 458 C 1710 450 1725 437 1740 421 C 1755 405 1768 383 1780 357 C 1791 331 1797 299 1797 261 C 1797 218 1789 179 1773 145 C 1757 111 1734 81 1704 57 C 1674 33 1637 14 1593 1 C 1549 -11 1498 -18 1442 -18 C 1384 -18 1333 -11 1289 1 C 1245 14 1208 33 1178 57 C 1148 81 1126 111 1111 145 C 1095 179 1088 218 1088 261 C 1088 299 1093 331 1104 357 C 1115 383 1128 405 1143 421 C 1158 437 1173 450 1189 458 C 1204 466 1216 472 1225 474 L 1225 486 Z M 1319 648 C 1319 614 1329 589 1350 571 C 1371 553 1402 544 1442 544 C 1482 544 1512 553 1532 571 C 1552 589 1563 614 1563 648 C 1563 681 1552 707 1532 726 C 1512 745 1482 755 1442 755 C 1402 755 1371 745 1350 726 C 1329 707 1319 681 1319 648 Z M 1303 277 C 1303 241 1314 211 1337 188 C 1359 165 1394 154 1440 154 C 1487 154 1522 165 1546 188 C 1570 211 1582 241 1582 277 C 1582 311 1570 338 1546 360 C 1522 381 1488 392 1442 392 C 1396 392 1362 381 1338 360 C 1314 338 1303 311 1303 277 Z" unicode="" />
<glyph horiz-adv-x="2142" d="M 66 1315 C 78 1333 94 1352 116 1370 C 138 1388 163 1405 193 1419 C 223 1433 256 1444 293 1453 C 329 1461 368 1466 410 1466 C 446 1466 482 1461 520 1453 C 557 1445 591 1431 621 1413 C 651 1395 676 1371 696 1342 C 715 1313 725 1278 725 1237 C 725 1211 721 1189 714 1170 C 707 1150 698 1133 686 1119 C 674 1105 661 1093 647 1083 C 632 1073 617 1066 602 1061 L 602 1051 C 618 1048 636 1042 655 1034 C 674 1026 691 1014 707 998 C 723 982 736 963 746 939 C 756 915 762 886 762 852 C 762 800 749 755 724 715 C 699 675 663 641 617 613 C 570 585 513 564 447 550 C 380 535 305 528 223 528 C 197 528 176 528 159 529 C 142 529 129 531 119 535 L 106 723 C 119 721 135 721 155 721 C 175 721 197 721 223 721 C 328 721 408 733 462 757 C 516 781 543 814 543 856 C 543 884 533 904 514 918 C 495 931 472 938 444 938 C 438 938 432 937 425 937 C 417 936 407 935 395 933 C 382 931 367 928 349 925 C 331 921 309 917 283 911 L 248 1073 L 375 1092 C 391 1094 407 1098 424 1104 C 440 1109 455 1116 469 1125 C 482 1134 493 1145 501 1158 C 509 1170 514 1185 514 1202 C 514 1228 503 1250 483 1266 C 462 1282 435 1290 401 1290 C 369 1290 339 1282 311 1268 C 282 1253 249 1230 211 1198 L 66 1315 Z M 1546 1446 L 741 0 L 524 0 L 1329 1446 L 1546 1446 Z M 1489 486 C 1481 488 1470 493 1457 501 C 1444 508 1431 519 1419 534 C 1406 548 1395 567 1386 590 C 1376 612 1372 640 1372 673 C 1372 705 1379 736 1393 766 C 1407 795 1429 821 1457 843 C 1485 865 1519 883 1561 896 C 1603 909 1651 916 1706 916 C 1760 916 1807 909 1849 896 C 1890 883 1925 865 1953 843 C 1981 821 2002 795 2016 766 C 2030 736 2038 705 2038 673 C 2038 640 2033 612 2024 590 C 2014 567 2003 548 1991 534 C 1979 519 1966 508 1953 501 C 1940 493 1930 488 1923 486 L 1923 474 C 1931 472 1942 466 1958 458 C 1974 450 1989 437 2004 421 C 2019 405 2032 383 2044 357 C 2055 331 2061 299 2061 261 C 2061 218 2053 179 2037 145 C 2021 111 1998 81 1968 57 C 1938 33 1901 14 1857 1 C 1813 -11 1762 -18 1706 -18 C 1648 -18 1597 -11 1553 1 C 1509 14 1472 33 1442 57 C 1412 81 1390 111 1375 145 C 1359 179 1352 218 1352 261 C 1352 299 1357 331 1368 357 C 1379 383 1392 405 1407 421 C 1422 437 1437 450 1453 458 C 1468 466 1480 472 1489 474 L 1489 486 Z M 1583 648 C 1583 614 1593 589 1614 571 C 1635 553 1666 544 1706 544 C 1746 544 1776 553 1796 571 C 1816 589 1827 614 1827 648 C 1827 681 1816 707 1796 726 C 1776 745 1746 755 1706 755 C 1666 755 1635 745 1614 726 C 1593 707 1583 681 1583 648 Z M 1567 277 C 1567 241 1578 211 1601 188 C 1623 165 1658 154 1704 154 C 1751 154 1786 165 1810 188 C 1834 211 1846 241 1846 277 C 1846 311 1834 338 1810 360 C 1786 381 1752 392 1706 392 C 1660 392 1626 381 1602 360 C 1578 338 1567 311 1567 277 Z" unicode="" />
<glyph horiz-adv-x="2142" d="M 713 1446 L 690 1268 L 307 1268 L 295 1092 C 323 1115 352 1131 382 1141 C 412 1150 440 1155 465 1155 C 557 1155 629 1131 680 1085 C 730 1038 756 971 756 885 C 756 822 744 768 720 724 C 696 679 662 642 617 614 C 571 585 516 564 450 550 C 384 536 310 530 227 530 C 203 530 184 530 170 531 C 156 531 144 533 135 537 L 123 725 C 135 723 149 723 166 723 C 183 723 203 723 227 723 C 285 723 334 726 375 734 C 415 742 448 752 474 766 C 499 780 517 796 529 815 C 541 834 547 855 547 877 C 547 891 545 905 541 919 C 537 932 531 944 522 954 C 512 964 500 972 484 978 C 468 984 449 987 426 987 C 404 987 384 984 367 980 C 349 976 333 970 318 963 C 303 955 289 946 276 936 C 263 925 250 913 236 901 L 111 952 L 145 1446 L 713 1446 Z M 1546 1446 L 741 0 L 524 0 L 1329 1446 L 1546 1446 Z M 1489 486 C 1481 488 1470 493 1457 501 C 1444 508 1431 519 1419 534 C 1406 548 1395 567 1386 590 C 1376 612 1372 640 1372 673 C 1372 705 1379 736 1393 766 C 1407 795 1429 821 1457 843 C 1485 865 1519 883 1561 896 C 1603 909 1651 916 1706 916 C 1760 916 1807 909 1849 896 C 1890 883 1925 865 1953 843 C 1981 821 2002 795 2016 766 C 2030 736 2038 705 2038 673 C 2038 640 2033 612 2024 590 C 2014 567 2003 548 1991 534 C 1979 519 1966 508 1953 501 C 1940 493 1930 488 1923 486 L 1923 474 C 1931 472 1942 466 1958 458 C 1974 450 1989 437 2004 421 C 2019 405 2032 383 2044 357 C 2055 331 2061 299 2061 261 C 2061 218 2053 179 2037 145 C 2021 111 1998 81 1968 57 C 1938 33 1901 14 1857 1 C 1813 -11 1762 -18 1706 -18 C 1648 -18 1597 -11 1553 1 C 1509 14 1472 33 1442 57 C 1412 81 1390 111 1375 145 C 1359 179 1352 218 1352 261 C 1352 299 1357 331 1368 357 C 1379 383 1392 405 1407 421 C 1422 437 1437 450 1453 458 C 1468 466 1480 472 1489 474 L 1489 486 Z M 1583 648 C 1583 614 1593 589 1614 571 C 1635 553 1666 544 1706 544 C 1746 544 1776 553 1796 571 C 1816 589 1827 614 1827 648 C 1827 681 1816 707 1796 726 C 1776 745 1746 755 1706 755 C 1666 755 1635 745 1614 726 C 1593 707 1583 681 1583 648 Z M 1567 277 C 1567 241 1578 211 1601 188 C 1623 165 1658 154 1704 154 C 1751 154 1786 165 1810 188 C 1834 211 1846 241 1846 277 C 1846 311 1834 338 1810 360 C 1786 381 1752 392 1706 392 C 1660 392 1626 381 1602 360 C 1578 338 1567 311 1567 277 Z" unicode="" />
<glyph horiz-adv-x="1974" d="M 709 1446 L 709 1300 C 669 1257 632 1213 600 1168 C 567 1123 538 1072 512 1014 C 486 956 463 890 443 815 C 423 739 407 651 393 549 L 160 549 C 169 626 183 697 202 761 C 221 825 244 885 271 942 C 297 999 327 1054 361 1107 C 395 1159 431 1213 471 1268 L 68 1268 L 68 1446 L 709 1446 Z M 1378 1446 L 573 0 L 356 0 L 1161 1446 L 1378 1446 Z M 1321 486 C 1313 488 1302 493 1289 501 C 1276 508 1263 519 1251 534 C 1238 548 1227 567 1218 590 C 1208 612 1204 640 1204 673 C 1204 705 1211 736 1225 766 C 1239 795 1261 821 1289 843 C 1317 865 1351 883 1393 896 C 1435 909 1483 916 1538 916 C 1592 916 1639 909 1681 896 C 1722 883 1757 865 1785 843 C 1813 821 1834 795 1848 766 C 1862 736 1870 705 1870 673 C 1870 640 1865 612 1856 590 C 1846 567 1835 548 1823 534 C 1811 519 1798 508 1785 501 C 1772 493 1762 488 1755 486 L 1755 474 C 1763 472 1774 466 1790 458 C 1806 450 1821 437 1836 421 C 1851 405 1864 383 1876 357 C 1887 331 1893 299 1893 261 C 1893 218 1885 179 1869 145 C 1853 111 1830 81 1800 57 C 1770 33 1733 14 1689 1 C 1645 -11 1594 -18 1538 -18 C 1480 -18 1429 -11 1385 1 C 1341 14 1304 33 1274 57 C 1244 81 1222 111 1207 145 C 1191 179 1184 218 1184 261 C 1184 299 1189 331 1200 357 C 1211 383 1224 405 1239 421 C 1254 437 1269 450 1285 458 C 1300 466 1312 472 1321 474 L 1321 486 Z M 1415 648 C 1415 614 1425 589 1446 571 C 1467 553 1498 544 1538 544 C 1578 544 1608 553 1628 571 C 1648 589 1659 614 1659 648 C 1659 681 1648 707 1628 726 C 1608 745 1578 755 1538 755 C 1498 755 1467 745 1446 726 C 1425 707 1415 681 1415 648 Z M 1399 277 C 1399 241 1410 211 1433 188 C 1455 165 1490 154 1536 154 C 1583 154 1618 165 1642 188 C 1666 211 1678 241 1678 277 C 1678 311 1666 338 1642 360 C 1618 381 1584 392 1538 392 C 1492 392 1458 381 1434 360 C 1410 338 1399 311 1399 277 Z" unicode="" />
<glyph horiz-adv-x="1249" d="M 512 1444 C 605 1444 689 1429 765 1399 C 841 1369 904 1327 954 1272 C 1078 1137 1141 911 1141 594 C 1141 480 1128 383 1104 304 C 1079 224 1044 160 998 110 C 952 60 898 24 834 2 C 770 -19 699 -31 621 -31 C 541 -31 470 -20 406 2 C 342 24 288 56 244 100 C 199 144 164 198 140 264 C 116 330 104 406 104 494 C 104 554 113 611 132 667 C 150 722 178 771 215 813 C 252 855 298 889 353 914 C 408 939 472 952 545 952 C 589 952 631 948 671 942 C 711 935 750 924 786 909 L 831 887 C 825 936 816 977 804 1010 C 792 1043 774 1071 752 1094 C 722 1124 685 1146 640 1160 C 595 1174 546 1182 492 1184 C 488 1184 483 1184 478 1184 C 473 1184 466 1183 457 1183 C 448 1183 436 1182 422 1181 C 408 1180 389 1178 367 1176 L 367 1421 C 378 1428 388 1433 396 1437 C 404 1440 415 1442 428 1444 L 512 1444 Z M 623 709 C 551 709 498 688 462 648 C 426 607 408 548 408 471 C 408 304 479 221 623 221 C 693 221 746 244 782 290 C 818 336 836 399 836 481 C 836 554 818 610 782 650 C 746 689 693 709 623 709 Z" unicode="" />
<glyph horiz-adv-x="1604" d="M 963 1446 L 1491 199 L 1491 0 L 111 0 L 111 195 L 639 1446 L 963 1446 Z M 737 950 L 449 250 L 1149 250 L 868 950 L 811 1120 L 795 1120 L 737 950 Z" unicode="" />
<glyph horiz-adv-x="1683" d="M 1610 1446 L 1610 1178 L 1425 1178 L 1425 -236 L 1120 -236 L 1120 1178 L 559 1178 L 559 -236 L 254 -236 L 254 1178 L 70 1178 L 70 1446 L 1610 1446 Z" unicode="" />
<glyph horiz-adv-x="1602" d="M 1456 1446 L 1456 1178 L 719 1178 L 575 1188 L 575 1163 L 719 1081 L 1233 688 L 1233 524 L 713 131 L 569 49 L 569 25 L 713 35 L 1456 35 L 1456 -236 L 145 -236 L 145 57 L 801 555 L 872 600 L 872 621 L 801 670 L 145 1157 L 145 1446 L 1456 1446 Z" unicode="" />
<glyph horiz-adv-x="1249" d="M 1241 743 L 1241 479 L 8 479 L 8 743 L 1241 743 Z" unicode="" />
<glyph horiz-adv-x="430" d="M 727 1446 L -78 0 L -295 0 L 510 1446 L 727 1446 Z" unicode="" />
<glyph horiz-adv-x="594" d="M 485 745 L 485 381 L 109 381 L 109 745 L 485 745 Z" unicode="" />
<glyph horiz-adv-x="1524" d="M 535 1153 L 770 500 L 1223 1880 L 1528 1880 L 858 0 L 647 0 L 299 897 L 45 897 L 45 1153 L 535 1153 Z" unicode="" />
<glyph horiz-adv-x="2111" d="M 614 1077 C 640 1077 665 1073 690 1067 C 714 1061 740 1051 766 1037 C 792 1023 820 1004 850 981 C 879 958 911 930 946 897 L 1057 795 L 1165 897 C 1199 930 1231 958 1261 981 C 1291 1004 1319 1023 1346 1037 C 1372 1051 1398 1061 1422 1067 C 1446 1073 1471 1077 1497 1077 L 1599 1077 C 1657 1077 1711 1066 1759 1045 C 1807 1023 1848 995 1882 959 C 1916 923 1943 881 1962 833 C 1981 785 1991 736 1991 684 L 1991 547 C 1991 495 1981 445 1962 398 C 1943 350 1916 309 1882 273 C 1848 237 1807 208 1759 187 C 1711 166 1657 156 1599 156 L 1497 156 C 1471 156 1446 159 1422 165 C 1398 171 1372 182 1346 196 C 1319 210 1291 228 1261 251 C 1231 273 1199 301 1165 334 L 1057 438 L 946 334 C 911 301 879 273 850 251 C 820 228 792 210 766 196 C 740 182 714 171 690 165 C 665 159 640 156 614 156 L 512 156 C 454 156 401 166 353 187 C 305 208 263 237 229 273 C 195 309 168 350 149 398 C 130 445 121 495 121 547 L 121 684 C 121 736 130 785 149 833 C 168 881 195 923 229 959 C 263 995 305 1023 353 1045 C 401 1066 454 1077 512 1077 L 614 1077 Z M 1247 618 L 1358 508 C 1388 474 1416 451 1441 439 C 1466 426 1490 420 1513 420 L 1571 420 C 1591 420 1609 423 1627 431 C 1645 439 1660 449 1673 463 C 1686 476 1696 491 1704 508 C 1712 525 1716 543 1716 563 L 1716 670 C 1716 688 1712 705 1704 722 C 1696 739 1686 754 1673 767 C 1660 780 1645 791 1627 799 C 1609 807 1591 811 1571 811 L 1513 811 C 1490 811 1466 804 1441 792 C 1416 779 1388 757 1358 725 L 1247 618 Z M 395 563 C 395 543 398 525 406 508 C 414 491 424 476 438 463 C 451 449 467 439 485 431 C 503 423 522 420 543 420 L 596 420 C 608 420 620 421 632 424 C 644 427 656 432 669 439 C 682 446 696 455 710 466 C 724 477 739 491 756 508 L 864 614 L 756 725 C 722 756 693 778 669 791 C 645 804 620 811 596 811 L 543 811 C 522 811 503 807 485 799 C 467 791 451 780 438 767 C 424 754 414 739 406 722 C 398 705 395 688 395 670 L 395 563 Z" unicode="" />
<glyph horiz-adv-x="930" d="M 778 1597 C 790 1597 801 1595 810 1591 C 818 1587 828 1581 840 1573 L 840 1354 L 713 1354 C 701 1354 689 1351 679 1345 C 669 1339 660 1332 652 1323 C 644 1313 638 1303 634 1291 C 629 1279 627 1267 627 1255 L 627 -29 C 627 -78 617 -124 598 -168 C 578 -211 552 -249 518 -283 C 484 -315 445 -341 401 -360 C 357 -379 311 -389 264 -389 L 150 -389 C 136 -389 125 -387 116 -383 C 107 -379 97 -373 86 -365 L 86 -147 L 215 -147 C 227 -147 238 -144 248 -138 C 258 -132 266 -125 274 -116 C 282 -106 288 -96 292 -84 C 296 -72 299 -61 299 -49 L 299 1235 C 299 1282 308 1327 327 1369 C 345 1411 371 1449 403 1483 C 437 1519 476 1547 520 1567 C 564 1587 612 1597 662 1597 L 778 1597 Z" unicode="" />
<glyph horiz-adv-x="1249" d="M 61 944 C 84 965 109 984 136 1002 C 163 1019 191 1034 220 1046 C 248 1058 277 1068 305 1075 C 333 1081 361 1085 387 1085 C 427 1085 462 1081 491 1074 C 520 1067 546 1058 570 1048 C 593 1038 615 1026 635 1014 C 655 1002 676 990 700 980 C 723 970 749 961 778 954 C 807 947 842 944 883 944 C 935 944 987 956 1040 981 C 1093 1006 1142 1041 1188 1085 L 1188 813 C 1165 793 1140 775 1114 759 C 1087 743 1059 729 1031 717 C 1003 705 974 696 946 690 C 917 683 890 680 864 680 C 823 680 788 683 759 690 C 730 696 704 704 681 714 C 657 724 635 734 615 746 C 595 758 573 768 550 778 C 526 788 500 796 471 803 C 442 809 407 813 367 813 C 314 813 261 801 209 777 C 157 753 107 721 61 680 L 61 944 Z M 61 406 C 84 428 109 447 136 465 C 163 482 191 497 220 509 C 248 521 277 531 305 537 C 333 543 361 547 387 547 C 427 547 462 543 491 536 C 520 529 546 520 570 510 C 593 500 615 488 635 476 C 655 464 676 452 700 442 C 723 432 749 423 778 416 C 807 409 842 406 883 406 C 935 406 987 418 1040 444 C 1093 469 1142 503 1188 547 L 1188 276 C 1165 256 1140 237 1114 221 C 1087 204 1059 190 1031 179 C 1003 167 974 158 946 152 C 917 146 890 143 864 143 C 823 143 788 146 759 153 C 730 159 704 167 681 177 C 657 187 635 197 615 209 C 595 221 573 231 550 241 C 526 251 500 259 471 266 C 442 272 407 276 367 276 C 314 276 261 264 209 240 C 157 216 107 184 61 143 L 61 406 Z" unicode="" />
<glyph horiz-adv-x="1249" d="M 61 1008 L 741 1008 L 881 1223 L 1159 1223 L 1020 1008 L 1188 1008 L 1188 745 L 850 745 L 678 479 L 1188 479 L 1188 215 L 508 215 L 371 0 L 90 0 L 229 215 L 61 215 L 61 479 L 399 479 L 571 745 L 61 745 L 61 1008 Z" unicode="" />
<glyph horiz-adv-x="1249" d="M 1188 1356 L 1188 1071 L 561 874 L 461 844 L 461 819 L 561 793 L 1188 604 L 1188 317 L 61 737 L 61 928 L 1188 1356 Z M 1188 262 L 1188 0 L 61 0 L 61 262 L 1188 262 Z" unicode="" />
<glyph horiz-adv-x="1249" d="M 1188 928 L 1188 737 L 61 317 L 61 604 L 690 793 L 791 819 L 791 844 L 690 874 L 61 1071 L 61 1356 L 1188 928 Z M 1188 262 L 1188 0 L 61 0 L 61 262 L 1188 262 Z" unicode="" />
<glyph horiz-adv-x="1296" d="M 715 1413 L 1198 795 L 1198 618 L 715 0 L 580 0 L 96 618 L 96 795 L 580 1413 L 715 1413 Z M 369 723 L 369 694 L 635 352 L 657 352 L 922 694 L 922 723 L 657 1063 L 635 1063 L 369 723 Z" unicode="" />
<glyph horiz-adv-x="1348" d="M 178 1077 L 178 1247 C 178 1288 184 1326 197 1362 C 210 1398 230 1429 257 1455 C 283 1481 317 1501 358 1516 C 398 1530 446 1538 502 1538 C 522 1538 541 1537 561 1536 C 580 1534 598 1533 614 1531 C 630 1529 643 1526 655 1523 C 667 1520 675 1517 680 1513 L 659 1307 C 653 1307 647 1308 639 1310 C 631 1311 622 1312 613 1313 C 604 1314 595 1315 586 1316 C 576 1316 568 1317 561 1317 C 543 1317 527 1315 515 1313 C 502 1311 492 1306 484 1300 C 476 1293 470 1283 466 1271 C 462 1259 461 1243 461 1223 L 461 1077 L 840 1077 L 840 1247 C 840 1288 846 1326 859 1362 C 872 1398 892 1429 918 1455 C 944 1481 978 1501 1019 1516 C 1059 1530 1107 1538 1163 1538 C 1183 1538 1202 1537 1222 1536 C 1241 1534 1259 1533 1275 1531 C 1291 1529 1304 1526 1316 1523 C 1328 1520 1336 1517 1341 1513 L 1321 1307 C 1316 1307 1310 1308 1302 1310 C 1294 1311 1285 1312 1276 1313 C 1266 1314 1257 1315 1247 1316 C 1237 1316 1229 1317 1223 1317 C 1205 1317 1189 1315 1177 1313 C 1164 1311 1153 1306 1145 1300 C 1137 1293 1131 1283 1127 1271 C 1123 1259 1122 1243 1122 1223 L 1122 1077 L 1341 1077 L 1341 856 L 1133 856 L 1133 0 L 840 0 L 840 856 L 471 856 L 471 0 L 178 0 L 178 856 L 8 856 L 8 1077 L 178 1077 Z" unicode="" />
<glyph horiz-adv-x="1264" d="M 178 1077 L 178 1247 C 178 1288 184 1326 197 1362 C 210 1398 230 1429 257 1455 C 283 1481 317 1501 358 1516 C 398 1530 446 1538 502 1538 C 522 1538 541 1537 561 1536 C 580 1534 598 1533 614 1531 C 630 1529 643 1526 655 1523 C 667 1520 675 1517 680 1513 L 659 1307 C 653 1307 647 1308 639 1310 C 631 1311 622 1312 613 1313 C 604 1314 595 1315 586 1316 C 576 1316 568 1317 561 1317 C 543 1317 527 1315 515 1313 C 502 1311 492 1306 484 1300 C 476 1293 470 1283 466 1271 C 462 1259 461 1243 461 1223 L 461 1077 L 680 1077 L 680 856 L 471 856 L 471 0 L 178 0 L 178 856 L 8 856 L 8 1077 L 178 1077 Z M 1122 1077 L 1122 0 L 827 0 L 827 1077 L 1122 1077 Z M 1130 1507 L 1130 1264 L 819 1264 L 819 1507 L 1130 1507 Z" unicode="" />
<glyph horiz-adv-x="1264" d="M 178 1077 L 178 1247 C 178 1288 184 1326 197 1362 C 210 1398 230 1429 257 1455 C 283 1481 317 1501 358 1516 C 398 1530 446 1538 502 1538 C 522 1538 541 1537 561 1536 C 580 1534 598 1533 614 1531 C 630 1529 643 1526 655 1523 C 667 1520 675 1517 680 1513 L 659 1307 C 653 1307 647 1308 639 1310 C 631 1311 622 1312 613 1313 C 604 1314 595 1315 586 1316 C 576 1316 568 1317 561 1317 C 543 1317 527 1315 515 1313 C 502 1311 492 1306 484 1300 C 476 1293 470 1283 466 1271 C 462 1259 461 1243 461 1223 L 461 1077 L 680 1077 L 680 856 L 471 856 L 471 0 L 178 0 L 178 856 L 8 856 L 8 1077 L 178 1077 Z M 1122 1507 L 1122 0 L 827 0 L 827 1507 L 1122 1507 Z" unicode="" />
<glyph horiz-adv-x="1925" d="M 178 856 L 8 856 L 8 1077 L 178 1077 L 178 1247 C 178 1288 184 1326 197 1362 C 210 1398 230 1429 257 1455 C 283 1481 317 1501 358 1516 C 398 1530 446 1538 502 1538 C 522 1538 541 1537 561 1536 C 580 1534 598 1533 614 1531 C 630 1529 643 1526 655 1523 C 667 1520 675 1517 680 1513 L 659 1307 C 653 1307 647 1308 639 1310 C 631 1311 622 1312 613 1313 C 604 1314 595 1315 586 1316 C 576 1316 568 1317 561 1317 C 543 1317 527 1315 515 1313 C 502 1311 492 1306 484 1300 C 476 1293 470 1283 466 1271 C 462 1259 461 1243 461 1223 L 461 1077 L 840 1077 L 840 1247 C 840 1288 846 1326 859 1362 C 872 1398 892 1429 918 1455 C 944 1481 978 1501 1019 1516 C 1059 1530 1107 1538 1163 1538 C 1183 1538 1202 1537 1222 1536 C 1241 1534 1259 1533 1275 1531 C 1291 1529 1304 1526 1316 1523 C 1328 1520 1336 1517 1341 1513 L 1321 1307 C 1316 1307 1310 1308 1302 1310 C 1294 1311 1285 1312 1276 1313 C 1266 1314 1257 1315 1247 1316 C 1237 1316 1229 1317 1223 1317 C 1205 1317 1189 1315 1177 1313 C 1164 1311 1153 1306 1145 1300 C 1137 1293 1131 1283 1127 1271 C 1123 1259 1122 1243 1122 1223 L 1122 1077 L 1341 1077 L 1341 856 L 1133 856 L 1133 0 L 840 0 L 840 856 L 471 856 L 471 0 L 178 0 L 178 856 Z M 1491 1077 L 1784 1077 L 1784 0 L 1491 0 L 1491 1077 Z M 1483 1507 L 1792 1507 L 1792 1264 L 1483 1264 L 1483 1507 Z" unicode="" />
<glyph horiz-adv-x="1925" d="M 178 1077 L 178 1247 C 178 1288 184 1326 197 1362 C 210 1398 230 1429 257 1455 C 283 1481 317 1501 358 1516 C 398 1530 446 1538 502 1538 C 522 1538 541 1537 561 1536 C 580 1534 598 1533 614 1531 C 630 1529 643 1526 655 1523 C 667 1520 675 1517 680 1513 L 659 1307 C 653 1307 647 1308 639 1310 C 631 1311 622 1312 613 1313 C 604 1314 595 1315 586 1316 C 576 1316 568 1317 561 1317 C 543 1317 527 1315 515 1313 C 502 1311 492 1306 484 1300 C 476 1293 470 1283 466 1271 C 462 1259 461 1243 461 1223 L 461 1077 L 840 1077 L 840 1247 C 840 1288 846 1326 859 1362 C 872 1398 892 1429 918 1455 C 944 1481 978 1501 1019 1516 C 1059 1530 1107 1538 1163 1538 C 1183 1538 1202 1537 1222 1536 C 1241 1534 1259 1533 1275 1531 C 1291 1529 1304 1526 1316 1523 C 1328 1520 1336 1517 1341 1513 L 1321 1307 C 1316 1307 1310 1308 1302 1310 C 1294 1311 1285 1312 1276 1313 C 1266 1314 1257 1315 1247 1316 C 1237 1316 1229 1317 1223 1317 C 1205 1317 1189 1315 1177 1313 C 1164 1311 1153 1306 1145 1300 C 1137 1293 1131 1283 1127 1271 C 1123 1259 1122 1243 1122 1223 L 1122 1077 L 1341 1077 L 1341 856 L 1133 856 L 1133 0 L 840 0 L 840 856 L 471 856 L 471 0 L 178 0 L 178 856 L 8 856 L 8 1077 L 178 1077 Z M 1784 1507 L 1784 0 L 1491 0 L 1491 1507 L 1784 1507 Z" unicode="" />
</font>
</defs>
</svg>
