<?xml version="1.0" encoding="utf-8" ?><svg version="1.1" xmlns = 'http://www.w3.org/2000/svg'><defs><font id='web' horiz-adv-x="1000">
<font-face font-family="web" descent="-467" cap-height="1446" units-per-em="2048" bbox="-281,-479,2574,1960" x-height="1024" ascent="1581" />
<missing-glyph horiz-adv-x="1024" d="M 1024 1446 L 1024 0 L 0 0 L 0 1446 L 1024 1446 Z M 109 102 L 913 102 L 913 1343 L 109 1343 L 109 102 Z" /><glyph horiz-adv-x="469" d="" unicode=" " />
<glyph horiz-adv-x="580" d="M 580 1446 L 539 1237 L 358 475 L 270 475 L 383 1237 L 424 1446 L 580 1446 Z M 352 219 L 309 0 L 137 0 L 180 219 L 352 219 Z" unicode="!" />
<glyph horiz-adv-x="766" d="M 537 1446 L 469 1280 L 334 954 L 246 954 L 328 1280 L 371 1446 L 537 1446 Z M 842 1446 L 774 1280 L 641 954 L 551 954 L 633 1280 L 676 1446 L 842 1446 Z" unicode="&#x22;" />
<glyph horiz-adv-x="1720" d="M 324 1141 L 672 1141 L 780 1532 L 887 1532 L 778 1141 L 1245 1141 L 1354 1532 L 1462 1532 L 1356 1141 L 1673 1141 L 1653 1028 L 1325 1028 L 1169 455 L 1499 455 L 1479 342 L 1139 342 L 1022 -86 L 909 -86 L 1026 342 L 561 342 L 444 -86 L 334 -86 L 451 342 L 127 342 L 147 455 L 481 455 L 641 1028 L 303 1028 L 324 1141 Z M 592 455 L 1057 455 L 1214 1028 L 748 1028 L 592 455 Z" unicode="#" />
<glyph horiz-adv-x="1237" d="M 1100 1153 C 1070 1170 1040 1186 1008 1202 C 976 1217 944 1230 911 1242 C 878 1253 845 1262 812 1268 C 779 1274 747 1278 715 1278 C 679 1278 644 1274 610 1266 C 576 1258 545 1246 518 1229 C 491 1211 469 1189 453 1161 C 436 1133 428 1100 428 1061 C 428 1027 434 997 448 973 C 462 948 480 926 504 908 C 528 890 556 873 588 858 C 620 843 654 828 692 813 C 746 791 795 770 841 748 C 886 726 925 702 958 675 C 990 647 1016 616 1034 580 C 1052 544 1061 501 1061 451 C 1061 393 1048 341 1024 297 C 1000 252 967 214 925 184 C 883 154 833 130 776 114 C 719 97 658 88 594 86 L 537 -211 L 428 -211 L 485 90 C 421 96 356 109 290 130 C 224 151 162 183 106 225 L 166 342 C 195 318 227 298 262 280 C 296 262 332 248 369 236 C 405 224 442 214 479 208 C 516 202 552 199 586 199 C 619 199 655 202 693 209 C 731 215 767 227 800 245 C 833 262 860 285 882 315 C 904 345 915 382 915 428 C 915 466 907 499 891 526 C 875 553 853 577 826 597 C 799 617 768 634 732 650 C 696 666 658 682 618 698 C 580 712 541 728 502 746 C 462 764 427 786 395 812 C 363 838 337 869 317 907 C 297 944 287 990 287 1044 C 287 1098 297 1147 319 1191 C 341 1234 371 1270 409 1300 C 447 1329 492 1351 544 1367 C 596 1383 653 1391 715 1391 L 737 1391 L 784 1620 L 891 1620 L 842 1378 C 895 1368 947 1353 999 1334 C 1050 1315 1101 1293 1153 1268 L 1100 1153 Z" unicode="$" />
<glyph horiz-adv-x="1890" d="M 598 1458 C 646 1458 688 1450 725 1436 C 762 1422 793 1401 818 1375 C 842 1348 861 1315 874 1277 C 886 1239 893 1195 893 1147 C 893 1113 890 1076 885 1038 C 880 1000 872 962 860 924 C 848 886 833 850 813 816 C 793 782 769 751 740 725 C 711 699 677 678 637 662 C 597 646 550 639 498 639 C 400 639 326 666 277 720 C 227 774 203 851 203 950 C 203 984 205 1020 210 1058 C 215 1096 223 1134 235 1172 C 247 1210 262 1246 282 1280 C 302 1314 326 1345 355 1371 C 384 1397 419 1418 459 1434 C 499 1450 545 1458 598 1458 Z M 1602 1446 L 498 0 L 383 0 L 1487 1446 L 1602 1446 Z M 594 1366 C 553 1366 518 1358 488 1344 C 458 1330 432 1311 411 1288 C 390 1264 373 1238 360 1208 C 346 1178 336 1148 328 1117 C 320 1085 315 1055 313 1025 C 310 995 309 968 309 944 C 309 913 312 884 319 858 C 325 832 336 809 352 790 C 367 771 387 756 411 745 C 435 734 464 729 500 729 C 541 729 577 736 607 750 C 637 764 662 783 683 807 C 704 830 721 856 735 886 C 748 916 758 946 765 978 C 772 1009 777 1040 780 1070 C 782 1100 784 1127 784 1151 C 784 1181 780 1210 774 1236 C 767 1262 756 1285 741 1304 C 726 1323 706 1338 682 1349 C 658 1360 628 1366 594 1366 Z M 1483 807 C 1579 807 1653 779 1703 724 C 1753 669 1778 593 1778 496 C 1778 462 1775 425 1770 387 C 1765 349 1757 311 1745 273 C 1733 235 1718 199 1698 165 C 1678 131 1654 100 1625 74 C 1595 48 1561 27 1521 11 C 1481 -4 1434 -12 1382 -12 C 1284 -12 1211 15 1161 69 C 1111 123 1087 199 1087 299 C 1087 333 1089 369 1094 407 C 1099 445 1107 483 1119 521 C 1131 559 1146 595 1166 629 C 1186 663 1210 694 1240 720 C 1269 746 1304 767 1344 783 C 1384 799 1430 807 1483 807 Z M 1479 715 C 1438 715 1403 707 1373 693 C 1343 679 1317 660 1296 637 C 1275 613 1258 587 1245 557 C 1231 527 1221 497 1213 466 C 1205 434 1200 404 1198 374 C 1195 344 1194 317 1194 293 C 1194 262 1197 233 1204 207 C 1210 181 1221 158 1236 139 C 1251 120 1271 105 1295 94 C 1319 83 1349 78 1384 78 C 1425 78 1461 85 1491 99 C 1521 113 1546 132 1568 155 C 1589 178 1606 205 1619 235 C 1632 265 1642 295 1650 326 C 1657 357 1662 388 1665 418 C 1667 448 1669 476 1669 500 C 1669 530 1665 559 1659 585 C 1652 611 1641 634 1626 653 C 1611 672 1591 687 1567 698 C 1543 709 1513 715 1479 715 Z" unicode="%" />
<glyph horiz-adv-x="1356" d="M 1090 1186 C 1090 1130 1077 1081 1053 1040 C 1028 998 996 962 956 931 C 916 899 870 871 820 847 C 769 823 718 800 666 780 C 709 711 754 640 801 567 C 847 494 894 420 942 346 C 966 372 991 400 1018 432 C 1045 464 1072 496 1099 529 C 1126 562 1152 595 1177 628 C 1202 660 1225 691 1245 719 L 1368 680 C 1344 648 1318 614 1290 578 C 1261 542 1231 505 1199 467 C 1167 429 1135 392 1102 356 C 1068 320 1036 286 1004 254 C 1024 224 1044 200 1064 182 C 1084 164 1103 149 1122 138 C 1141 126 1160 117 1180 110 C 1199 102 1219 95 1239 88 L 1198 -18 C 1170 -13 1143 -6 1118 2 C 1092 10 1068 22 1044 36 C 1020 50 997 67 975 88 C 952 108 929 134 907 164 C 840 104 770 57 696 25 C 622 -6 544 -23 461 -23 C 409 -23 358 -16 309 -3 C 260 10 216 31 178 61 C 140 90 109 128 86 174 C 62 220 51 276 51 342 C 51 405 62 462 85 512 C 108 562 139 606 179 645 C 219 684 265 718 319 747 C 373 776 430 801 492 823 C 464 867 442 914 424 964 C 406 1014 397 1066 397 1120 C 397 1168 405 1213 423 1255 C 440 1297 465 1334 497 1366 C 529 1398 567 1423 612 1441 C 657 1459 708 1468 764 1468 C 807 1468 848 1462 888 1450 C 927 1438 962 1420 992 1396 C 1022 1372 1045 1343 1063 1308 C 1081 1273 1090 1232 1090 1186 Z M 479 84 C 604 84 728 140 850 252 C 800 329 749 410 696 494 C 643 578 592 660 543 739 C 497 724 454 705 412 683 C 370 660 333 633 301 601 C 269 569 243 533 224 492 C 204 451 195 405 195 354 C 195 310 202 271 216 237 C 230 203 250 175 275 153 C 300 130 330 113 365 101 C 399 89 437 84 479 84 Z M 522 1133 C 522 1095 529 1053 545 1008 C 561 963 583 916 612 866 C 636 875 662 885 689 895 C 716 905 743 917 769 930 C 795 942 819 956 843 972 C 866 987 887 1004 905 1024 C 923 1044 937 1066 947 1090 C 957 1114 963 1141 963 1171 C 963 1201 958 1228 948 1252 C 938 1276 924 1297 907 1314 C 889 1331 868 1344 844 1354 C 820 1363 794 1368 766 1368 C 734 1368 704 1362 675 1351 C 645 1340 619 1324 597 1304 C 574 1283 556 1258 542 1230 C 528 1201 522 1169 522 1133 Z" unicode="&#x26;" />
<glyph horiz-adv-x="459" d="M 537 1446 L 469 1280 L 334 954 L 246 954 L 328 1280 L 371 1446 L 537 1446 Z" unicode="'" />
<glyph horiz-adv-x="680" d="M 387 -326 C 345 -286 307 -237 274 -181 C 240 -125 212 -63 189 2 C 165 68 147 138 135 212 C 123 286 117 360 117 434 C 117 540 131 645 159 751 C 187 856 227 957 280 1053 C 332 1149 396 1238 472 1321 C 548 1403 633 1475 729 1536 L 846 1536 L 842 1513 C 751 1457 669 1388 595 1306 C 521 1224 459 1134 407 1038 C 355 942 314 841 286 735 C 258 629 244 525 244 422 C 244 347 250 274 262 202 C 274 130 291 62 313 -1 C 335 -64 360 -121 390 -173 C 419 -224 451 -267 485 -301 L 479 -326 L 387 -326 Z" unicode="(" />
<glyph horiz-adv-x="684" d="M -115 -326 L -109 -303 C -19 -247 62 -178 136 -96 C 209 -14 272 74 324 171 C 376 267 416 368 444 474 C 472 580 487 684 487 788 C 487 862 480 936 468 1008 C 456 1080 439 1147 418 1211 C 396 1274 371 1331 341 1383 C 311 1434 280 1477 246 1511 L 252 1536 L 346 1536 C 387 1496 424 1447 458 1391 C 491 1334 519 1272 542 1206 C 565 1139 583 1069 595 995 C 607 921 614 848 614 774 C 614 668 600 563 572 458 C 544 352 503 252 451 156 C 398 60 334 -29 259 -112 C 183 -194 98 -266 4 -326 L -115 -326 Z" unicode=")" />
<glyph horiz-adv-x="811" d="M 479 1151 L 496 1163 L 496 1358 L 512 1440 L 639 1415 L 621 1333 L 547 1153 L 559 1137 L 743 1200 L 827 1208 L 844 1081 L 758 1071 L 563 1087 L 555 1067 L 670 913 L 709 834 L 590 780 L 555 858 L 508 1051 L 492 1053 L 375 893 L 311 834 L 223 930 L 287 987 L 457 1090 L 455 1110 L 266 1167 L 193 1210 L 256 1321 L 330 1282 L 479 1151 Z" unicode="*" />
<glyph horiz-adv-x="1167" d="M 649 1141 L 649 633 L 1153 633 L 1153 510 L 649 510 L 649 0 L 518 0 L 518 510 L 14 510 L 14 633 L 518 633 L 518 1141 L 649 1141 Z" unicode="+" />
<glyph horiz-adv-x="395" d="M 307 219 L -14 -274 L -123 -274 L 135 219 L 307 219 Z" unicode="," />
<glyph horiz-adv-x="629" d="M 571 635 L 547 510 L 106 510 L 131 635 L 571 635 Z" unicode="-" />
<glyph horiz-adv-x="395" d="M 238 219 L 195 0 L 25 0 L 68 219 L 238 219 Z" unicode="." />
<glyph horiz-adv-x="1024" d="M 1135 1446 L 59 -236 L -66 -236 L 1008 1446 L 1135 1446 Z" unicode="/" />
<glyph horiz-adv-x="1245" d="M 760 1468 C 836 1468 900 1454 954 1427 C 1008 1400 1052 1363 1086 1316 C 1120 1269 1144 1213 1160 1149 C 1176 1085 1184 1016 1184 942 C 1184 907 1182 867 1178 821 C 1174 775 1167 726 1157 675 C 1147 623 1135 571 1119 517 C 1103 463 1083 410 1059 359 C 1035 307 1007 259 975 214 C 942 168 904 129 862 95 C 820 61 772 34 718 14 C 664 -6 605 -16 539 -16 C 463 -16 399 -2 345 24 C 291 51 248 88 214 135 C 180 182 155 237 139 301 C 123 365 115 434 115 508 C 115 542 117 583 121 629 C 125 675 131 723 141 775 C 151 827 163 880 179 934 C 195 988 215 1040 239 1092 C 263 1143 291 1191 323 1237 C 355 1283 393 1323 436 1357 C 478 1391 526 1418 580 1438 C 634 1458 694 1468 760 1468 Z M 1051 954 C 1051 1003 1046 1051 1037 1099 C 1028 1147 1012 1189 990 1227 C 967 1265 936 1295 898 1319 C 859 1342 810 1354 752 1354 C 687 1354 630 1340 580 1312 C 530 1284 486 1248 449 1202 C 411 1156 380 1103 354 1044 C 328 984 308 923 292 860 C 276 797 265 735 258 673 C 251 611 248 555 248 504 C 248 449 252 397 262 348 C 271 298 287 255 309 218 C 331 181 362 152 400 130 C 438 108 487 98 545 98 C 601 98 652 108 697 129 C 742 149 782 177 816 212 C 850 246 880 286 905 332 C 930 377 951 424 969 474 C 986 523 1000 572 1011 622 C 1021 672 1030 718 1036 762 C 1042 805 1046 843 1048 877 C 1050 911 1051 936 1051 954 Z" unicode="0" />
<glyph horiz-adv-x="823" d="M 274 0 L 518 1255 L 537 1315 L 530 1315 L 156 1169 L 182 1298 L 592 1446 L 705 1446 L 666 1307 L 410 0 L 274 0 Z" unicode="1" />
<glyph horiz-adv-x="1249" d="M 813 727 C 838 747 865 771 893 797 C 921 823 947 851 971 883 C 995 915 1014 949 1030 985 C 1045 1021 1053 1059 1053 1100 C 1053 1135 1046 1168 1033 1199 C 1019 1229 1000 1256 976 1279 C 952 1302 922 1320 887 1334 C 851 1347 812 1354 768 1354 C 698 1354 633 1336 574 1302 C 514 1268 457 1213 403 1137 L 297 1186 C 321 1224 350 1260 382 1294 C 414 1328 450 1357 491 1383 C 531 1409 576 1429 626 1445 C 676 1460 731 1468 791 1468 C 848 1468 901 1460 950 1445 C 998 1429 1040 1407 1076 1377 C 1112 1347 1140 1311 1160 1268 C 1180 1225 1190 1176 1190 1120 C 1190 1068 1183 1021 1169 979 C 1155 937 1136 897 1111 859 C 1086 821 1056 785 1021 751 C 985 717 946 682 903 647 L 248 117 L 1024 117 L 1001 0 L 53 0 L 78 125 L 813 727 Z" unicode="2" />
<glyph horiz-adv-x="1149" d="M 205 1260 C 229 1284 256 1308 287 1333 C 317 1357 351 1380 389 1400 C 427 1420 468 1436 514 1449 C 559 1461 608 1468 662 1468 C 713 1468 763 1461 811 1448 C 859 1434 901 1414 938 1387 C 975 1360 1005 1326 1027 1286 C 1049 1246 1061 1199 1061 1145 C 1061 1100 1053 1058 1037 1020 C 1021 982 1000 947 972 917 C 944 886 912 860 874 838 C 836 816 796 799 752 788 L 750 776 C 785 767 817 754 846 738 C 874 721 899 700 919 675 C 939 650 955 621 966 588 C 977 554 983 517 983 475 C 983 412 972 355 952 305 C 931 255 903 210 867 172 C 831 133 789 99 741 71 C 693 43 641 20 586 2 C 530 -16 472 -29 412 -38 C 352 -46 292 -51 233 -51 C 198 -51 160 -49 120 -46 C 80 -42 44 -37 12 -29 L 12 92 C 50 86 88 80 126 76 C 164 72 202 70 238 70 C 284 70 332 73 381 79 C 429 85 476 94 521 107 C 566 120 608 137 648 157 C 688 177 722 202 752 231 C 782 260 805 294 822 332 C 839 370 848 413 848 461 C 848 502 840 538 825 569 C 810 600 790 626 766 646 C 742 666 714 682 682 692 C 650 702 618 707 584 707 C 576 707 566 706 554 706 C 542 705 527 704 510 702 C 493 700 473 698 450 696 C 427 694 400 691 369 688 L 369 801 L 532 813 C 558 814 585 818 615 824 C 645 830 674 839 703 851 C 731 862 759 876 785 893 C 811 909 834 929 854 952 C 874 974 890 1000 902 1028 C 914 1056 920 1088 920 1124 C 920 1160 913 1193 899 1221 C 885 1249 866 1273 842 1293 C 818 1313 789 1328 755 1338 C 721 1348 685 1354 645 1354 C 612 1354 580 1350 550 1342 C 520 1334 490 1323 462 1309 C 433 1295 405 1278 377 1259 C 349 1239 321 1218 293 1196 L 205 1260 L 205 1260 Z" unicode="3" />
<glyph horiz-adv-x="1288" d="M 1087 1446 L 893 444 L 1182 444 L 1159 334 L 870 334 L 805 0 L 670 0 L 735 334 L 51 334 L 80 481 L 954 1446 L 1087 1446 Z M 186 444 L 756 444 L 887 1108 L 928 1255 L 920 1255 L 186 444 Z" unicode="4" />
<glyph horiz-adv-x="1217" d="M 68 92 C 102 86 139 80 179 76 C 218 72 259 70 301 70 C 385 70 465 79 539 99 C 613 119 677 149 732 190 C 787 230 831 281 863 343 C 895 405 911 477 911 561 C 911 611 904 653 892 688 C 879 723 861 752 837 775 C 813 797 783 814 748 824 C 712 834 672 840 627 840 C 601 840 575 838 549 834 C 522 830 494 824 465 815 C 435 805 404 793 372 777 C 339 761 304 741 268 717 L 197 756 L 379 1446 L 1176 1446 L 1153 1329 L 469 1329 L 340 846 C 400 884 458 911 513 929 C 567 947 624 956 682 956 C 734 956 782 949 827 935 C 871 921 910 898 943 868 C 976 837 1002 797 1021 749 C 1039 700 1049 641 1049 573 C 1049 475 1030 388 993 311 C 955 234 903 169 836 115 C 768 61 688 20 594 -8 C 500 -36 396 -51 283 -51 C 267 -51 249 -50 230 -50 C 211 -49 192 -48 173 -47 C 153 -45 134 -43 116 -41 C 98 -38 82 -35 68 -31 L 68 92 Z" unicode="5" />
<glyph horiz-adv-x="1176" d="M 934 1493 C 964 1493 994 1491 1026 1488 C 1057 1485 1083 1480 1104 1473 L 1104 1350 C 1080 1354 1053 1358 1022 1362 C 990 1366 956 1368 920 1368 C 848 1368 785 1358 729 1339 C 673 1319 621 1290 573 1251 C 535 1219 500 1184 470 1145 C 439 1105 412 1063 388 1018 C 364 972 344 925 326 875 C 308 825 292 775 279 723 C 300 754 325 782 355 807 C 384 831 416 852 450 870 C 484 887 521 900 559 910 C 597 919 636 924 676 924 C 734 924 789 914 840 896 C 890 877 934 850 971 815 C 1008 780 1037 737 1058 686 C 1079 634 1090 576 1090 512 C 1090 444 1078 379 1055 316 C 1031 253 997 197 952 148 C 906 99 850 60 783 30 C 716 0 639 -14 553 -14 C 483 -14 421 -3 366 17 C 311 37 265 68 227 109 C 189 150 159 201 139 261 C 119 321 109 391 109 471 C 109 513 112 559 118 609 C 124 659 133 710 147 764 C 160 817 177 871 198 926 C 218 980 243 1033 272 1085 C 300 1136 334 1185 372 1231 C 410 1277 452 1318 500 1354 C 564 1402 632 1437 704 1459 C 776 1481 852 1493 934 1493 Z M 639 807 C 586 807 535 798 487 781 C 439 763 396 738 360 706 C 323 674 294 635 272 589 C 250 543 240 492 240 436 C 240 386 247 341 262 300 C 277 258 299 223 327 193 C 355 163 389 139 430 123 C 470 106 517 98 569 98 C 629 98 683 109 731 131 C 778 153 818 183 851 221 C 883 258 908 301 926 349 C 943 397 952 448 952 500 C 952 548 944 592 929 630 C 914 668 893 701 866 727 C 838 753 805 772 767 786 C 728 800 685 807 639 807 Z" unicode="6" />
<glyph horiz-adv-x="1071" d="M 1167 1446 L 1147 1335 C 1126 1317 1095 1290 1055 1254 C 1014 1218 968 1172 916 1118 C 864 1063 808 999 748 926 C 688 852 629 769 570 676 C 511 583 454 480 399 368 C 344 255 296 132 254 0 L 102 0 C 136 110 177 217 226 319 C 274 421 326 517 382 607 C 437 697 494 780 552 857 C 610 934 666 1003 720 1065 C 774 1127 823 1180 869 1224 C 914 1268 951 1303 981 1329 L 178 1329 L 201 1446 L 1167 1446 Z" unicode="7" />
<glyph horiz-adv-x="1270" d="M 485 782 C 463 788 441 799 418 815 C 394 831 373 851 353 876 C 333 901 317 930 304 964 C 291 998 285 1035 285 1077 C 285 1135 297 1187 323 1235 C 348 1283 382 1324 426 1358 C 469 1392 519 1419 577 1438 C 635 1456 696 1466 762 1466 C 818 1466 872 1458 925 1443 C 977 1427 1024 1405 1065 1375 C 1106 1345 1139 1309 1164 1265 C 1189 1221 1202 1170 1202 1112 C 1202 1062 1193 1017 1175 976 C 1157 934 1134 898 1105 867 C 1075 835 1041 810 1002 790 C 962 770 921 756 879 750 L 877 741 C 909 732 939 719 968 701 C 996 683 1021 661 1043 634 C 1065 606 1082 574 1095 538 C 1107 502 1114 461 1114 416 C 1114 351 1101 292 1075 239 C 1049 186 1012 141 966 103 C 919 65 863 35 799 15 C 734 -5 663 -16 586 -16 C 522 -16 462 -8 404 6 C 346 20 295 43 251 74 C 207 104 171 143 145 191 C 119 239 106 296 106 362 C 106 417 115 469 134 517 C 152 565 178 607 212 643 C 245 679 285 708 331 731 C 377 754 427 768 483 774 L 485 782 Z M 760 1352 C 715 1352 672 1345 631 1333 C 590 1321 554 1302 522 1278 C 490 1254 465 1224 446 1189 C 427 1153 418 1113 418 1067 C 418 1021 427 982 446 950 C 464 918 488 891 518 871 C 548 850 581 835 619 825 C 656 815 693 811 731 811 C 773 811 815 817 855 830 C 895 842 931 861 962 885 C 993 909 1018 939 1037 975 C 1055 1010 1065 1050 1065 1096 C 1065 1138 1056 1176 1040 1208 C 1024 1240 1002 1266 974 1288 C 946 1309 913 1325 876 1336 C 839 1346 800 1352 760 1352 Z M 252 395 C 249 343 256 298 273 260 C 289 222 313 192 344 168 C 374 144 411 126 453 115 C 495 103 541 98 590 98 C 649 98 702 105 750 121 C 797 137 837 159 871 187 C 904 215 930 250 948 290 C 966 330 975 376 975 426 C 975 478 965 521 946 557 C 927 593 902 622 870 644 C 838 666 801 681 759 691 C 717 700 674 705 629 705 C 567 705 513 697 467 683 C 421 668 382 647 351 620 C 319 593 295 560 279 522 C 262 484 253 441 252 395 Z" unicode="8" />
<glyph horiz-adv-x="1174" d="M 291 -41 C 261 -41 230 -39 199 -36 C 167 -33 141 -29 121 -23 L 121 102 C 144 98 171 94 203 90 C 234 86 269 84 307 84 C 377 84 440 93 496 113 C 552 132 605 161 653 201 C 691 233 726 268 756 308 C 786 347 814 389 838 435 C 862 480 883 527 901 577 C 919 626 934 677 948 729 C 926 697 900 669 870 645 C 840 620 808 599 774 582 C 740 565 703 552 665 543 C 627 534 588 530 549 530 C 489 530 434 539 384 557 C 334 575 290 602 253 637 C 216 672 187 715 166 766 C 145 816 135 874 135 940 C 135 1006 146 1071 170 1135 C 193 1198 227 1254 273 1304 C 319 1353 375 1393 442 1423 C 508 1453 585 1468 672 1468 C 741 1468 803 1457 858 1436 C 913 1415 960 1384 998 1343 C 1036 1302 1065 1251 1085 1191 C 1105 1130 1116 1060 1116 981 C 1116 939 1113 893 1107 843 C 1101 793 1091 741 1078 688 C 1065 634 1048 580 1028 526 C 1008 471 983 418 954 366 C 925 314 892 266 854 220 C 816 174 774 134 727 98 C 662 48 593 13 521 -8 C 449 -30 372 -41 291 -41 Z M 588 645 C 640 645 690 653 738 671 C 786 689 829 714 866 746 C 902 778 932 817 954 863 C 976 909 987 960 987 1016 C 987 1064 979 1109 964 1151 C 948 1192 926 1228 898 1258 C 870 1288 835 1311 794 1328 C 753 1345 707 1354 655 1354 C 595 1354 541 1342 494 1320 C 446 1298 406 1268 374 1230 C 341 1192 316 1149 299 1101 C 282 1052 274 1002 274 950 C 274 901 281 858 296 820 C 311 782 332 751 360 725 C 387 699 420 679 459 665 C 497 651 540 645 588 645 Z" unicode="9" />
<glyph horiz-adv-x="520" d="M 297 219 L 256 0 L 84 0 L 127 219 L 297 219 Z M 459 1053 L 418 834 L 246 834 L 289 1053 L 459 1053 Z" unicode=":" />
<glyph horiz-adv-x="532" d="M 383 219 L 61 -274 L -47 -274 L 211 219 L 383 219 Z M 475 1053 L 432 834 L 262 834 L 305 1053 L 475 1053 Z" unicode=";" />
<glyph horiz-adv-x="1167" d="M 1110 1122 L 1110 977 L 373 643 L 219 580 L 219 559 L 373 502 L 1110 166 L 1110 23 L 57 526 L 57 614 L 1110 1122 Z" unicode="&#x3C;" />
<glyph horiz-adv-x="1167" d="M 1110 887 L 1110 766 L 57 766 L 57 887 L 1110 887 Z M 1110 373 L 1110 254 L 57 254 L 57 373 L 1110 373 Z" unicode="=" />
<glyph horiz-adv-x="1167" d="M 1110 614 L 1110 526 L 57 23 L 57 166 L 795 502 L 946 559 L 946 580 L 795 643 L 57 977 L 57 1122 L 1110 614 Z" unicode="&#x3E;" />
<glyph horiz-adv-x="887" d="M 240 1317 C 260 1337 284 1356 311 1374 C 338 1392 367 1407 399 1420 C 430 1433 463 1443 498 1451 C 532 1458 568 1462 604 1462 C 646 1462 688 1456 728 1444 C 768 1432 804 1415 835 1391 C 866 1367 891 1338 910 1302 C 928 1266 938 1225 938 1178 C 938 1132 930 1090 915 1053 C 899 1016 879 982 853 951 C 827 919 797 890 763 862 C 729 834 693 806 657 778 C 629 756 602 736 578 718 C 553 700 531 679 511 657 C 491 635 473 609 459 580 C 445 551 434 516 426 475 L 303 475 C 311 519 321 557 334 590 C 346 622 363 653 384 681 C 404 709 430 736 460 762 C 490 788 527 818 571 850 C 600 870 629 891 658 913 C 687 935 713 958 737 983 C 760 1007 779 1034 793 1063 C 807 1091 815 1123 815 1159 C 815 1189 809 1217 797 1241 C 785 1265 769 1285 749 1301 C 728 1317 703 1330 675 1339 C 647 1347 616 1352 584 1352 C 538 1352 490 1343 441 1325 C 391 1307 345 1279 301 1241 L 240 1317 Z M 410 219 L 367 0 L 197 0 L 240 219 L 410 219 Z" unicode="?" />
<glyph horiz-adv-x="2114" d="M 1606 1004 L 1346 389 C 1335 364 1327 343 1323 327 C 1319 310 1317 292 1317 274 C 1317 245 1328 221 1350 201 C 1372 181 1404 172 1446 172 C 1478 172 1511 179 1547 193 C 1583 207 1618 226 1652 252 C 1686 278 1719 309 1751 345 C 1783 381 1810 422 1834 468 C 1858 514 1877 563 1891 617 C 1905 670 1913 726 1913 786 C 1913 870 1897 948 1867 1019 C 1837 1090 1793 1151 1737 1203 C 1681 1255 1612 1295 1532 1324 C 1452 1353 1362 1368 1262 1368 C 1177 1368 1094 1357 1012 1337 C 930 1316 852 1286 778 1247 C 704 1208 635 1161 573 1105 C 510 1049 456 986 410 916 C 364 846 329 769 303 686 C 277 602 264 514 264 420 C 264 300 284 195 326 106 C 368 16 423 -57 493 -117 C 563 -176 643 -220 733 -250 C 823 -280 918 -295 1016 -295 C 1068 -295 1123 -291 1179 -283 C 1235 -275 1289 -265 1341 -253 C 1393 -240 1441 -225 1486 -209 C 1530 -193 1568 -176 1599 -160 L 1628 -248 C 1596 -265 1556 -282 1509 -300 C 1461 -317 1410 -333 1354 -347 C 1298 -361 1239 -372 1178 -381 C 1116 -390 1056 -395 997 -395 C 925 -395 855 -387 786 -373 C 716 -358 650 -336 588 -306 C 525 -276 467 -238 414 -194 C 360 -149 314 -97 276 -37 C 237 22 207 89 185 164 C 163 239 152 322 152 412 C 152 516 166 615 195 708 C 224 801 264 887 316 965 C 368 1043 429 1114 500 1176 C 570 1238 647 1290 730 1334 C 813 1377 901 1410 993 1433 C 1085 1456 1179 1468 1274 1468 C 1389 1468 1493 1451 1585 1417 C 1677 1383 1755 1337 1819 1278 C 1883 1218 1933 1148 1967 1066 C 2001 984 2019 895 2019 799 C 2019 727 2010 659 1993 595 C 1975 531 1952 473 1922 419 C 1892 365 1858 316 1818 274 C 1778 232 1736 196 1692 166 C 1648 136 1602 113 1556 97 C 1509 81 1464 74 1421 74 C 1389 74 1359 78 1332 86 C 1305 94 1282 106 1263 122 C 1244 138 1230 159 1221 183 C 1211 207 1208 236 1212 268 C 1153 204 1092 156 1028 124 C 964 92 902 76 842 76 C 806 76 771 82 739 94 C 707 106 678 125 654 151 C 630 176 610 208 596 247 C 582 285 575 331 575 385 C 575 447 584 506 602 562 C 620 618 645 671 675 719 C 705 767 741 811 781 851 C 821 891 863 924 907 952 C 951 980 995 1001 1040 1017 C 1084 1032 1127 1040 1167 1040 C 1203 1040 1236 1034 1265 1022 C 1294 1010 1319 993 1340 973 C 1360 953 1377 929 1389 903 C 1401 877 1408 849 1411 821 L 1489 1004 L 1606 1004 Z M 883 184 C 931 184 983 199 1041 229 C 1099 259 1158 304 1219 365 L 1358 700 C 1356 730 1351 758 1341 786 C 1331 813 1318 837 1301 858 C 1283 879 1262 896 1238 909 C 1213 921 1185 928 1153 928 C 1124 928 1093 922 1059 910 C 1025 898 992 882 959 861 C 926 839 894 813 864 783 C 833 752 806 717 782 679 C 758 640 740 598 726 553 C 712 508 705 460 705 410 C 705 370 709 336 718 308 C 727 279 739 255 755 237 C 771 219 789 205 811 197 C 833 188 857 184 883 184 Z" unicode="@" />
<glyph horiz-adv-x="1270" d="M 125 0 L -14 0 L 752 1446 L 907 1446 L 1104 0 L 967 0 L 922 356 L 309 356 L 125 0 Z M 369 471 L 907 471 L 815 1196 L 807 1300 L 795 1300 L 748 1196 L 369 471 Z" unicode="A" />
<glyph horiz-adv-x="1335" d="M 844 1446 C 904 1446 960 1439 1014 1426 C 1067 1412 1114 1392 1154 1365 C 1194 1338 1225 1304 1249 1262 C 1272 1220 1284 1172 1284 1116 C 1284 1072 1276 1030 1260 992 C 1244 953 1223 918 1195 888 C 1167 858 1133 832 1094 812 C 1054 792 1011 778 965 770 L 965 758 C 1001 748 1034 734 1066 718 C 1097 701 1124 679 1148 653 C 1171 626 1189 594 1203 556 C 1216 518 1223 474 1223 422 C 1223 352 1210 291 1186 239 C 1161 186 1126 142 1082 107 C 1038 71 985 45 924 27 C 862 9 795 0 723 0 L 115 0 L 393 1446 L 844 1446 Z M 389 705 L 274 115 L 733 115 C 778 115 821 121 863 134 C 905 147 941 166 973 192 C 1005 218 1030 250 1049 288 C 1067 326 1077 370 1077 420 C 1077 464 1068 504 1052 539 C 1036 574 1012 604 981 629 C 950 653 912 672 867 685 C 822 698 771 705 713 705 L 389 705 Z M 410 817 L 774 817 C 821 817 866 822 909 834 C 951 846 989 863 1022 886 C 1054 909 1080 938 1099 972 C 1118 1006 1128 1046 1128 1092 C 1128 1132 1120 1166 1105 1196 C 1090 1226 1069 1251 1042 1271 C 1014 1291 981 1306 943 1316 C 904 1326 861 1331 813 1331 L 510 1331 L 410 817 Z" unicode="B" />
<glyph horiz-adv-x="1348" d="M 1145 55 C 1099 30 1046 11 986 -1 C 926 -13 858 -20 784 -20 C 686 -20 598 -6 521 20 C 444 47 379 86 325 138 C 271 190 230 253 202 329 C 174 404 160 490 160 588 C 160 659 167 730 181 802 C 195 873 217 941 246 1007 C 274 1072 310 1133 353 1189 C 395 1245 445 1293 502 1335 C 558 1376 622 1408 692 1432 C 762 1456 840 1468 924 1468 C 964 1468 1004 1465 1046 1459 C 1088 1453 1129 1443 1170 1431 C 1210 1419 1249 1403 1287 1385 C 1325 1366 1359 1344 1391 1319 L 1333 1198 C 1305 1222 1274 1243 1241 1263 C 1208 1282 1174 1298 1138 1312 C 1102 1325 1064 1335 1026 1343 C 988 1350 949 1354 911 1354 C 844 1354 783 1344 727 1324 C 671 1304 620 1276 575 1241 C 530 1206 491 1165 457 1117 C 423 1069 394 1018 371 962 C 348 906 331 848 320 787 C 308 726 303 665 303 604 C 303 528 313 458 333 396 C 353 334 383 280 424 235 C 465 190 516 155 578 131 C 639 106 711 94 795 94 C 865 94 928 102 985 118 C 1042 134 1095 155 1145 180 L 1145 55 Z" unicode="C" />
<glyph horiz-adv-x="1470" d="M 788 1446 C 884 1446 972 1433 1050 1407 C 1128 1381 1194 1342 1250 1290 C 1305 1238 1348 1172 1378 1094 C 1408 1015 1423 923 1423 817 C 1423 752 1416 687 1403 621 C 1390 555 1370 492 1343 432 C 1315 372 1280 315 1238 263 C 1196 210 1145 164 1086 125 C 1027 86 959 55 883 33 C 807 11 721 0 627 0 L 115 0 L 391 1446 L 788 1446 Z M 510 1331 L 272 115 L 635 115 C 707 115 774 124 834 143 C 894 161 948 187 996 220 C 1044 253 1085 292 1121 337 C 1156 381 1185 430 1209 482 C 1232 534 1249 588 1261 645 C 1272 702 1278 759 1278 817 C 1278 891 1268 959 1248 1022 C 1228 1084 1199 1138 1159 1184 C 1119 1230 1068 1266 1007 1292 C 946 1318 875 1331 793 1331 L 510 1331 Z" unicode="D" />
<glyph horiz-adv-x="1309" d="M 410 811 L 1122 811 L 1100 696 L 387 696 L 274 115 L 1100 115 L 1077 0 L 115 0 L 395 1446 L 1337 1446 L 1315 1331 L 510 1331 L 410 811 Z" unicode="E" />
<glyph horiz-adv-x="1178" d="M 410 811 L 1075 811 L 1053 696 L 387 696 L 252 0 L 115 0 L 395 1446 L 1288 1446 L 1266 1331 L 510 1331 L 410 811 Z" unicode="F" />
<glyph horiz-adv-x="1450" d="M 1374 1221 C 1312 1263 1243 1295 1168 1319 C 1093 1342 1016 1354 938 1354 C 868 1354 803 1344 744 1324 C 685 1304 632 1277 585 1243 C 538 1209 497 1168 462 1121 C 426 1074 397 1023 373 969 C 349 914 332 857 320 797 C 308 737 303 678 303 618 C 303 533 315 458 339 392 C 363 326 398 271 444 227 C 490 182 546 148 614 125 C 681 101 758 90 846 90 C 890 90 934 93 978 99 C 1022 105 1064 116 1104 131 L 1194 608 L 817 608 L 840 721 L 1341 721 L 1212 51 C 1188 39 1161 28 1130 20 C 1098 11 1065 4 1030 -2 C 994 -8 958 -12 922 -15 C 885 -18 850 -20 817 -20 C 716 -20 625 -5 544 23 C 463 52 394 94 338 148 C 281 202 237 269 207 348 C 177 426 162 516 162 616 C 162 688 169 759 185 829 C 201 899 224 965 254 1028 C 284 1091 322 1149 367 1203 C 412 1257 464 1303 523 1343 C 582 1382 648 1413 720 1435 C 792 1457 870 1468 956 1468 C 994 1468 1034 1465 1076 1461 C 1118 1456 1159 1448 1201 1438 C 1243 1428 1283 1415 1323 1399 C 1362 1383 1398 1363 1432 1341 L 1374 1221 Z" unicode="G" />
<glyph horiz-adv-x="1448" d="M 403 788 L 1167 788 L 1296 1446 L 1434 1446 L 1153 0 L 1016 0 L 1147 676 L 383 676 L 252 0 L 117 0 L 397 1446 L 532 1446 L 403 788 Z" unicode="H" />
<glyph horiz-adv-x="549" d="M 532 1446 L 252 0 L 117 0 L 397 1446 L 532 1446 Z" unicode="I" />
<glyph horiz-adv-x="946" d="M 33 227 C 50 209 70 191 92 175 C 114 159 138 145 164 133 C 190 121 217 111 246 104 C 274 97 304 94 334 94 C 375 94 411 100 441 112 C 471 124 498 143 520 170 C 542 196 560 231 575 274 C 590 316 604 368 616 430 L 813 1446 L 948 1446 L 743 395 C 729 320 710 256 687 204 C 663 151 635 108 601 75 C 567 42 527 18 483 3 C 438 -12 387 -20 330 -20 C 261 -20 197 -8 139 16 C 80 40 27 73 -20 117 L 33 227 Z" unicode="J" />
<glyph horiz-adv-x="1350" d="M 379 653 L 1253 1446 L 1434 1446 L 782 872 L 1233 0 L 1077 0 L 682 782 L 346 487 L 252 0 L 115 0 L 395 1446 L 532 1446 L 379 653 Z" unicode="K" />
<glyph horiz-adv-x="1063" d="M 532 1446 L 274 115 L 977 115 L 954 0 L 115 0 L 395 1446 L 532 1446 Z" unicode="L" />
<glyph horiz-adv-x="1798" d="M 625 1446 L 838 193 L 848 193 L 1548 1446 L 1784 1446 L 1503 0 L 1368 0 L 1581 1094 L 1630 1329 L 1618 1329 L 870 0 L 741 0 L 512 1329 L 498 1329 L 459 1094 L 246 0 L 117 0 L 397 1446 L 625 1446 Z" unicode="M" />
<glyph horiz-adv-x="1473" d="M 397 1446 L 582 1446 L 995 352 L 1071 125 L 1087 125 L 1120 379 L 1327 1446 L 1458 1446 L 1178 0 L 995 0 L 578 1094 L 502 1319 L 485 1319 L 453 1065 L 246 0 L 117 0 L 397 1446 Z" unicode="N" />
<glyph horiz-adv-x="1532" d="M 907 1468 C 999 1468 1080 1453 1152 1425 C 1224 1396 1284 1355 1334 1302 C 1384 1249 1422 1185 1448 1110 C 1474 1035 1487 952 1487 860 C 1487 793 1480 725 1467 656 C 1453 586 1433 519 1406 454 C 1379 389 1345 328 1303 270 C 1261 212 1212 162 1156 119 C 1100 76 1036 42 965 17 C 893 -7 814 -20 727 -20 C 635 -20 554 -5 483 23 C 411 51 351 92 302 145 C 252 197 215 261 189 336 C 163 410 150 494 150 586 C 150 652 156 720 170 790 C 183 860 203 927 230 993 C 257 1058 291 1119 333 1177 C 375 1235 424 1285 480 1328 C 536 1371 599 1405 670 1430 C 741 1455 820 1468 907 1468 Z M 1343 846 C 1343 920 1333 988 1315 1050 C 1297 1112 1269 1166 1232 1211 C 1195 1256 1149 1291 1093 1316 C 1037 1341 971 1354 895 1354 C 825 1354 761 1343 704 1322 C 647 1300 596 1271 552 1234 C 507 1197 468 1154 436 1105 C 404 1055 377 1003 356 947 C 334 891 318 834 308 775 C 298 715 293 658 293 602 C 293 528 302 460 320 398 C 338 336 365 282 402 237 C 439 192 485 157 541 132 C 597 106 663 94 739 94 C 809 94 872 104 930 126 C 987 147 1038 176 1083 213 C 1127 250 1166 293 1199 342 C 1231 391 1258 443 1280 499 C 1301 555 1317 612 1327 672 C 1337 731 1343 789 1343 846 Z" unicode="O" />
<glyph horiz-adv-x="1255" d="M 367 598 L 252 0 L 115 0 L 395 1446 L 809 1446 C 892 1446 964 1438 1025 1424 C 1085 1410 1138 1384 1184 1348 C 1219 1318 1248 1280 1270 1235 C 1292 1189 1303 1134 1303 1069 C 1303 1033 1299 998 1292 964 C 1285 930 1275 898 1262 868 C 1248 837 1232 808 1213 782 C 1194 755 1173 731 1149 711 C 1103 671 1050 643 989 625 C 927 607 854 598 770 598 L 367 598 Z M 389 713 L 786 713 C 852 713 908 722 956 740 C 1003 758 1042 783 1073 814 C 1103 845 1126 881 1141 922 C 1155 962 1163 1005 1163 1051 C 1163 1093 1156 1131 1144 1165 C 1131 1199 1111 1229 1085 1254 C 1058 1278 1024 1297 984 1311 C 944 1324 896 1331 840 1331 L 508 1331 L 389 713 Z" unicode="P" />
<glyph horiz-adv-x="1534" d="M 907 1468 C 999 1468 1080 1453 1152 1425 C 1224 1396 1284 1355 1334 1302 C 1384 1249 1422 1185 1448 1110 C 1474 1035 1487 952 1487 860 C 1487 790 1479 719 1465 647 C 1450 574 1428 504 1398 436 C 1368 368 1331 304 1285 246 C 1239 187 1186 137 1124 96 L 1251 -104 L 1128 -131 L 1020 39 C 935 0 837 -20 727 -20 C 635 -20 554 -5 483 23 C 411 51 351 92 302 145 C 252 197 215 261 189 336 C 163 410 150 494 150 586 C 150 652 156 720 170 790 C 183 860 203 927 230 993 C 257 1058 291 1119 333 1177 C 375 1235 424 1285 480 1328 C 536 1371 599 1405 670 1430 C 741 1455 820 1468 907 1468 Z M 1343 846 C 1343 920 1333 988 1315 1050 C 1297 1112 1269 1166 1232 1211 C 1195 1256 1149 1291 1093 1316 C 1037 1341 971 1354 895 1354 C 825 1354 761 1343 704 1322 C 647 1300 596 1271 552 1234 C 507 1197 468 1154 436 1105 C 404 1055 377 1003 356 947 C 334 891 318 834 308 775 C 298 715 293 658 293 602 C 293 528 302 460 320 398 C 338 336 365 282 402 237 C 439 192 485 157 541 132 C 597 106 663 94 739 94 C 780 94 819 97 855 105 C 891 112 925 123 958 137 L 729 500 L 825 567 L 1061 197 C 1109 233 1151 275 1187 325 C 1222 375 1251 428 1274 486 C 1297 544 1314 603 1326 665 C 1337 726 1343 786 1343 846 Z" unicode="Q" />
<glyph horiz-adv-x="1335" d="M 1309 1087 C 1309 1030 1299 976 1281 925 C 1263 873 1236 827 1202 787 C 1168 746 1126 712 1076 684 C 1026 656 969 638 907 629 L 1186 0 L 1040 0 L 770 621 L 371 621 L 252 0 L 117 0 L 397 1446 L 793 1446 C 839 1446 882 1444 921 1442 C 960 1439 996 1434 1029 1427 C 1061 1420 1091 1410 1118 1398 C 1145 1386 1170 1370 1194 1352 C 1229 1322 1257 1286 1278 1244 C 1298 1201 1309 1149 1309 1087 Z M 393 733 L 811 733 C 869 733 921 741 966 759 C 1010 777 1048 801 1078 831 C 1108 861 1130 896 1146 936 C 1161 976 1169 1018 1169 1063 C 1169 1102 1163 1138 1151 1171 C 1139 1204 1120 1232 1095 1256 C 1069 1280 1037 1298 998 1311 C 958 1324 912 1331 858 1331 L 510 1331 L 393 733 Z" unicode="R" />
<glyph horiz-adv-x="1202" d="M 1133 1233 C 1107 1250 1078 1266 1048 1281 C 1018 1296 986 1309 952 1320 C 918 1331 884 1340 848 1346 C 812 1352 777 1356 741 1356 C 701 1356 662 1351 624 1342 C 586 1333 551 1318 521 1298 C 491 1278 466 1251 448 1218 C 429 1185 420 1144 420 1096 C 420 1053 427 1017 442 987 C 457 957 477 932 503 910 C 528 888 558 868 592 851 C 626 834 663 817 702 799 C 754 775 802 750 847 725 C 892 700 931 672 965 640 C 998 608 1024 570 1044 528 C 1063 486 1073 435 1073 377 C 1073 313 1061 256 1038 206 C 1015 156 982 113 939 78 C 895 43 842 16 780 -2 C 718 -21 647 -31 569 -31 C 529 -31 488 -28 446 -23 C 404 -18 362 -10 320 1 C 278 13 236 28 195 46 C 154 64 116 87 80 113 L 129 221 C 159 196 193 175 230 158 C 266 140 304 126 343 115 C 381 103 420 95 459 90 C 498 84 535 82 571 82 C 617 82 661 87 705 97 C 748 107 786 122 820 144 C 854 166 881 194 901 228 C 921 262 932 304 932 354 C 932 401 922 442 904 477 C 886 511 862 541 833 567 C 804 592 772 614 736 633 C 700 651 665 668 631 684 C 587 702 545 722 503 743 C 461 763 423 788 390 818 C 357 848 330 884 310 926 C 289 968 279 1019 279 1079 C 279 1141 290 1197 312 1245 C 334 1293 366 1334 406 1367 C 446 1400 494 1425 550 1442 C 606 1459 667 1468 735 1468 C 885 1468 1034 1425 1182 1339 L 1133 1233 Z" unicode="S" />
<glyph horiz-adv-x="1143" d="M 809 1331 L 549 0 L 414 0 L 670 1331 L 217 1331 L 240 1446 L 1286 1446 L 1264 1331 L 809 1331 Z" unicode="T" />
<glyph horiz-adv-x="1407" d="M 506 1446 L 360 692 C 352 648 345 609 339 577 C 333 544 328 516 324 492 C 320 468 318 447 316 430 C 314 413 313 398 313 385 C 313 330 322 284 341 247 C 359 209 385 179 418 157 C 451 134 490 118 535 108 C 579 98 628 94 680 94 C 756 94 817 103 865 121 C 913 139 951 164 980 198 C 1009 231 1031 271 1047 319 C 1062 366 1075 419 1087 477 L 1274 1446 L 1411 1446 L 1219 449 C 1206 384 1189 323 1167 266 C 1145 209 1114 159 1074 117 C 1033 75 980 41 915 17 C 850 -7 768 -20 670 -20 C 607 -20 546 -13 487 0 C 427 13 375 35 329 66 C 283 97 246 138 218 190 C 190 241 176 305 176 381 C 176 399 177 417 179 437 C 181 457 184 479 188 503 C 192 527 197 554 203 584 C 209 614 215 648 223 688 L 371 1446 L 506 1446 Z" unicode="U" />
<glyph horiz-adv-x="1217" d="M 387 1446 L 530 258 L 541 154 L 551 154 L 598 258 L 1202 1446 L 1360 1446 L 594 0 L 440 0 L 242 1446 L 387 1446 Z" unicode="V" />
<glyph horiz-adv-x="1919" d="M 422 1446 L 461 252 L 461 131 L 475 131 L 520 252 L 1051 1446 L 1233 1446 L 1300 252 L 1300 131 L 1315 131 L 1360 252 L 1866 1446 L 2021 1446 L 1378 0 L 1194 0 L 1126 1194 L 1124 1315 L 1110 1315 L 1067 1194 L 541 0 L 356 0 L 281 1446 L 422 1446 Z" unicode="W" />
<glyph horiz-adv-x="1260" d="M 702 854 L 1206 1446 L 1372 1446 L 762 748 L 1102 0 L 934 0 L 664 653 L 143 0 L -23 0 L 606 760 L 268 1446 L 432 1446 L 702 854 Z" unicode="X" />
<glyph horiz-adv-x="1210" d="M 373 1446 L 643 651 L 1227 1446 L 1386 1446 L 688 526 L 586 0 L 449 0 L 551 526 L 215 1446 L 373 1446 Z" unicode="Y" />
<glyph horiz-adv-x="1284" d="M 1337 1446 L 1317 1348 L 203 115 L 1090 115 L 1067 0 L 0 0 L 18 98 L 1130 1331 L 332 1331 L 354 1446 L 1337 1446 Z" unicode="Z" />
<glyph horiz-adv-x="700" d="M 788 1536 L 768 1438 L 459 1438 L 135 -229 L 444 -229 L 426 -326 L -2 -326 L 358 1536 L 788 1536 Z" unicode="[" />
<glyph horiz-adv-x="709" d="M 231 1446 L 651 -236 L 543 -236 L 121 1446 L 231 1446 Z" unicode="\" />
<glyph horiz-adv-x="702" d="M 760 1536 L 397 -326 L -31 -326 L -12 -229 L 297 -229 L 621 1438 L 311 1438 L 330 1536 L 760 1536 Z" unicode="]" />
<glyph horiz-adv-x="1167" d="M 625 1446 L 1135 496 L 981 496 L 666 1139 L 592 1292 L 571 1292 L 500 1139 L 184 496 L 31 496 L 537 1446 L 625 1446 Z" unicode="^" />
<glyph horiz-adv-x="1167" d="M 1034 -338 L 1016 -438 L -172 -438 L -152 -338 L 1034 -338 Z" unicode="_" />
<glyph horiz-adv-x="840" d="M 397 1530 L 641 1274 L 633 1231 L 575 1231 L 262 1481 L 262 1530 L 397 1530 Z" unicode="`" />
<glyph horiz-adv-x="1139" d="M 1085 1053 L 958 440 C 942 364 928 290 917 218 C 906 146 897 74 889 0 L 768 0 C 774 58 782 116 791 173 C 799 229 809 290 819 356 C 787 303 755 254 721 208 C 687 162 651 123 613 90 C 575 56 533 30 489 11 C 445 -8 396 -18 344 -18 C 297 -18 256 -10 222 5 C 188 20 159 41 137 69 C 114 97 97 130 86 170 C 75 209 70 253 70 301 C 70 353 76 408 89 466 C 101 524 120 582 144 639 C 168 696 198 750 233 802 C 268 854 308 899 352 939 C 396 979 445 1010 498 1034 C 551 1057 608 1069 668 1069 C 730 1069 782 1055 824 1027 C 866 999 902 953 930 891 L 977 1053 L 1085 1053 Z M 375 94 C 411 94 447 102 484 120 C 520 137 556 161 590 191 C 624 221 657 256 689 296 C 720 336 748 378 773 423 C 798 468 820 514 838 562 C 856 610 870 656 879 702 L 893 784 C 864 844 831 889 793 918 C 755 946 712 961 662 961 C 617 961 575 950 535 930 C 495 910 458 883 424 849 C 390 815 359 776 331 732 C 303 688 280 642 261 594 C 241 546 226 499 216 451 C 206 403 201 359 201 319 C 201 244 216 188 248 150 C 280 112 322 94 375 94 Z" unicode="a" />
<glyph horiz-adv-x="1159" d="M 96 0 L 389 1507 L 518 1507 L 383 813 C 406 851 432 886 461 918 C 490 949 521 976 555 998 C 588 1020 623 1038 660 1050 C 696 1062 734 1069 774 1069 C 832 1069 881 1059 922 1039 C 962 1019 995 991 1021 956 C 1046 921 1064 880 1076 833 C 1088 786 1094 736 1094 682 C 1094 633 1089 582 1080 528 C 1071 474 1057 422 1038 370 C 1019 318 995 269 967 223 C 938 176 904 135 864 100 C 824 64 779 36 729 15 C 678 -5 621 -16 559 -16 C 521 -16 486 -11 455 -2 C 423 7 395 20 369 37 C 343 53 321 73 301 96 C 281 118 263 143 248 170 L 203 0 L 96 0 Z M 735 956 C 686 956 639 942 593 916 C 547 889 506 852 468 804 C 430 756 396 698 368 632 C 340 565 319 492 305 412 L 279 279 C 293 253 308 228 326 206 C 344 183 364 163 386 146 C 408 129 433 116 461 106 C 488 96 518 92 551 92 C 599 92 643 101 683 119 C 722 137 757 162 787 193 C 817 223 844 259 866 299 C 888 339 906 381 920 425 C 934 469 944 513 951 557 C 957 601 961 644 961 684 C 961 720 956 755 948 788 C 940 821 927 850 909 875 C 891 899 867 919 839 934 C 810 948 775 956 735 956 Z" unicode="b" />
<glyph horiz-adv-x="979" d="M 799 43 C 761 22 721 7 681 -2 C 640 -11 595 -16 545 -16 C 475 -16 413 -6 359 12 C 304 31 258 59 220 96 C 182 133 152 179 132 234 C 112 288 102 352 102 424 C 102 470 106 518 115 568 C 124 618 138 666 157 714 C 176 762 200 807 230 850 C 259 893 294 931 334 963 C 374 995 419 1021 471 1040 C 523 1059 581 1069 645 1069 C 703 1069 761 1060 818 1043 C 875 1026 929 999 979 961 L 920 852 C 884 885 841 911 792 930 C 742 948 691 958 637 958 C 589 958 545 950 507 934 C 468 918 434 897 404 871 C 374 845 349 814 328 780 C 306 745 289 708 275 670 C 261 631 251 591 245 551 C 239 511 236 472 236 436 C 236 384 242 338 254 296 C 266 254 284 218 310 188 C 336 158 369 134 409 118 C 449 102 497 94 553 94 C 600 94 644 100 686 113 C 727 126 765 143 799 164 L 799 43 Z" unicode="c" />
<glyph horiz-adv-x="1163" d="M 1186 1507 L 979 440 C 971 402 963 365 957 331 C 951 297 945 262 941 227 C 936 192 932 156 929 119 C 925 82 923 42 922 0 L 803 0 C 805 38 808 78 812 122 C 816 166 821 212 829 260 C 802 216 773 177 743 143 C 712 109 679 80 645 56 C 611 32 575 13 537 1 C 499 -11 460 -18 420 -18 C 362 -18 312 -7 272 12 C 231 32 198 60 173 96 C 147 131 129 172 117 219 C 105 266 100 317 100 371 C 100 420 104 471 113 525 C 121 579 135 631 153 683 C 171 735 195 784 223 831 C 251 877 284 918 322 954 C 360 989 404 1017 453 1038 C 502 1058 557 1069 618 1069 C 686 1069 748 1055 804 1027 C 859 999 904 954 938 891 L 1057 1507 L 1186 1507 Z M 457 94 C 503 94 548 107 594 135 C 640 163 682 201 721 250 C 760 298 794 356 824 423 C 853 490 875 563 889 641 L 913 774 C 899 798 884 822 867 845 C 849 867 829 887 807 905 C 785 922 760 936 733 946 C 705 956 675 961 643 961 C 594 961 550 951 511 933 C 471 915 436 890 406 860 C 376 829 350 793 328 753 C 306 713 288 671 274 627 C 260 583 249 538 243 494 C 236 449 233 407 233 367 C 233 330 237 295 245 262 C 253 229 267 200 285 175 C 303 150 326 130 354 116 C 382 101 417 94 457 94 Z" unicode="d" />
<glyph horiz-adv-x="1094" d="M 242 508 C 240 494 238 481 238 469 C 238 457 238 444 238 432 C 238 380 244 334 258 292 C 271 250 291 215 319 185 C 346 155 380 132 422 116 C 464 100 513 92 571 92 C 599 92 625 94 649 98 C 673 102 697 107 721 115 C 744 123 767 132 790 143 C 813 153 837 166 862 180 L 893 74 C 843 42 793 19 741 3 C 689 -12 631 -20 567 -20 C 499 -20 436 -10 379 7 C 322 25 273 53 232 90 C 191 126 159 172 136 227 C 113 281 102 345 102 418 C 102 466 107 515 117 566 C 127 616 143 666 163 714 C 183 762 209 808 239 851 C 269 894 305 932 345 964 C 385 996 431 1021 481 1040 C 531 1059 587 1069 647 1069 C 703 1069 754 1060 801 1043 C 847 1025 887 1000 921 967 C 955 934 981 894 1000 846 C 1018 798 1028 743 1028 682 C 1028 651 1025 622 1021 594 C 1017 566 1011 538 1004 508 L 242 508 Z M 639 961 C 587 961 541 951 500 932 C 458 912 422 886 391 854 C 359 821 333 783 311 741 C 289 698 272 654 260 608 L 891 608 C 894 620 896 633 897 645 C 898 657 899 673 899 692 C 899 731 893 767 881 800 C 869 833 852 861 830 885 C 808 909 780 927 748 941 C 716 954 679 961 639 961 Z" unicode="e" />
<glyph horiz-adv-x="573" d="M 418 952 L 231 0 L 104 0 L 287 952 L 115 952 L 133 1053 L 307 1053 L 348 1266 C 365 1356 397 1422 444 1464 C 491 1506 551 1528 623 1528 C 635 1528 647 1527 661 1526 C 674 1525 687 1523 701 1521 C 714 1518 727 1515 739 1511 C 751 1507 761 1503 770 1497 L 733 1397 C 717 1402 700 1407 680 1411 C 660 1415 641 1417 623 1417 C 579 1417 547 1404 525 1378 C 503 1352 487 1314 477 1262 L 438 1053 L 682 1053 L 664 952 L 418 952 Z" unicode="f" />
<glyph horiz-adv-x="1155" d="M 813 240 C 789 201 762 166 733 134 C 704 102 673 75 640 53 C 606 30 571 12 534 0 C 497 -11 459 -18 420 -18 C 362 -18 313 -7 273 12 C 233 32 200 60 175 96 C 149 131 131 172 119 219 C 107 266 102 317 102 371 C 102 420 106 471 115 525 C 123 579 137 631 155 683 C 173 735 197 784 225 831 C 253 877 287 918 327 954 C 366 989 411 1017 461 1038 C 511 1058 568 1069 631 1069 C 705 1069 767 1052 819 1020 C 870 988 912 941 944 881 L 991 1053 L 1100 1053 L 883 -68 C 871 -128 853 -182 830 -232 C 806 -281 776 -323 740 -358 C 704 -392 661 -419 611 -438 C 561 -457 504 -467 440 -467 C 376 -467 312 -459 249 -443 C 186 -427 126 -403 70 -371 L 125 -264 C 170 -292 221 -314 277 -331 C 333 -347 392 -356 453 -356 C 490 -356 525 -350 557 -340 C 589 -329 618 -311 644 -287 C 670 -262 692 -230 711 -190 C 730 -150 746 -101 758 -43 L 813 240 Z M 915 774 C 901 798 886 822 869 845 C 851 867 831 887 809 905 C 787 922 762 936 735 946 C 707 956 677 961 645 961 C 596 961 552 951 513 933 C 473 915 438 890 408 860 C 377 829 351 793 329 753 C 307 713 288 671 274 627 C 260 583 249 538 243 494 C 236 449 233 407 233 367 C 233 330 237 295 246 262 C 254 229 268 200 286 175 C 304 150 327 130 356 116 C 384 101 419 94 459 94 C 507 94 554 107 600 134 C 646 160 688 198 726 246 C 764 294 798 352 827 419 C 855 486 877 560 891 641 L 915 774 Z" unicode="g" />
<glyph horiz-adv-x="1143" d="M 774 0 L 883 563 C 885 575 888 590 891 607 C 894 624 897 642 900 661 C 903 679 906 698 908 718 C 910 737 911 756 911 774 C 911 800 907 825 901 847 C 894 869 884 889 870 905 C 856 921 838 933 816 942 C 794 951 769 956 739 956 C 686 956 637 942 591 915 C 545 887 503 849 465 800 C 427 750 395 691 367 622 C 339 553 317 477 301 395 L 223 0 L 96 0 L 389 1507 L 518 1507 L 381 811 C 405 849 432 885 461 917 C 489 949 520 976 553 998 C 586 1020 621 1038 659 1050 C 696 1062 736 1069 778 1069 C 822 1069 861 1062 894 1048 C 926 1034 953 1014 975 990 C 997 965 1013 935 1024 901 C 1034 866 1040 828 1040 788 C 1040 747 1036 706 1029 664 C 1022 622 1015 581 1008 541 L 903 0 L 774 0 Z" unicode="h" />
<glyph horiz-adv-x="498" d="M 528 1507 L 492 1321 L 342 1321 L 379 1507 L 528 1507 Z M 428 1053 L 225 0 L 96 0 L 299 1053 L 428 1053 Z" unicode="i" />
<glyph horiz-adv-x="485" d="M 520 1507 L 483 1321 L 336 1321 L 373 1507 L 520 1507 Z M 293 1053 L 422 1053 L 193 -141 C 171 -250 136 -330 87 -380 C 37 -430 -24 -455 -100 -455 C -130 -455 -160 -451 -190 -444 L -168 -338 C -157 -340 -146 -341 -135 -343 C -123 -345 -112 -346 -102 -346 C -80 -346 -60 -342 -43 -336 C -26 -330 -11 -319 2 -303 C 15 -287 27 -265 37 -239 C 47 -212 55 -178 63 -137 L 293 1053 Z" unicode="j" />
<glyph horiz-adv-x="1042" d="M 330 537 L 940 1053 L 1122 1053 L 612 641 L 938 0 L 791 0 L 516 563 L 301 389 L 225 0 L 96 0 L 389 1507 L 518 1507 L 330 537 Z" unicode="k" />
<glyph horiz-adv-x="498" d="M 518 1507 L 225 0 L 96 0 L 389 1507 L 518 1507 Z" unicode="l" />
<glyph horiz-adv-x="1739" d="M 731 0 L 848 594 C 849 604 851 617 853 632 C 855 647 858 663 860 680 C 862 696 863 713 865 731 C 867 748 868 764 868 780 C 868 806 865 829 859 851 C 853 872 843 890 830 906 C 817 922 800 934 780 943 C 760 951 735 956 707 956 C 657 956 611 942 569 914 C 527 886 489 847 455 797 C 421 747 391 688 366 620 C 340 552 319 477 303 397 L 223 0 L 96 0 L 217 618 C 224 656 231 691 237 724 C 243 757 248 790 253 824 C 258 857 263 892 267 929 C 271 965 275 1007 279 1053 L 399 1053 C 393 1009 387 966 383 922 C 378 878 372 832 365 786 C 384 822 407 858 433 892 C 459 926 489 957 521 983 C 553 1009 588 1029 626 1045 C 663 1061 703 1069 745 1069 C 792 1069 831 1060 862 1044 C 893 1027 918 1005 937 978 C 956 950 970 919 978 885 C 986 851 991 816 993 782 C 1013 822 1038 859 1066 894 C 1094 929 1125 959 1159 985 C 1193 1011 1228 1031 1266 1046 C 1304 1061 1342 1069 1380 1069 C 1422 1069 1460 1062 1492 1048 C 1524 1034 1550 1015 1571 991 C 1592 967 1608 938 1618 905 C 1628 871 1634 835 1634 795 C 1634 753 1630 710 1623 666 C 1616 622 1609 581 1602 541 L 1497 0 L 1368 0 L 1477 563 C 1479 576 1482 591 1485 609 C 1488 626 1491 644 1494 664 C 1497 683 1500 703 1502 723 C 1504 743 1505 762 1505 780 C 1505 806 1501 829 1495 851 C 1489 872 1479 890 1466 906 C 1453 922 1436 934 1416 943 C 1395 951 1371 956 1343 956 C 1310 956 1279 949 1249 936 C 1219 922 1191 904 1165 882 C 1139 860 1114 834 1092 805 C 1070 775 1050 744 1033 712 C 1015 680 1000 647 988 613 C 976 579 967 548 961 518 L 860 0 L 731 0 Z" unicode="m" />
<glyph horiz-adv-x="1143" d="M 211 586 C 219 626 226 664 232 700 C 238 736 244 772 250 808 C 255 844 260 881 265 921 C 270 960 275 1004 279 1053 L 399 1053 L 362 786 C 388 828 416 867 446 902 C 476 937 508 967 543 992 C 577 1016 614 1035 654 1049 C 693 1062 734 1069 778 1069 C 822 1069 861 1062 894 1048 C 926 1034 953 1014 975 990 C 997 965 1013 935 1024 901 C 1034 866 1040 828 1040 788 C 1040 747 1036 706 1029 664 C 1022 622 1015 581 1008 541 L 903 0 L 774 0 L 883 563 C 885 575 888 590 891 607 C 894 624 897 642 900 661 C 903 679 906 698 908 718 C 910 737 911 756 911 774 C 911 800 907 825 901 847 C 894 869 884 889 870 905 C 856 921 838 933 816 942 C 794 951 769 956 739 956 C 686 956 637 942 591 915 C 545 887 503 849 465 800 C 427 750 395 691 367 622 C 339 553 317 477 301 395 L 223 0 L 96 0 L 211 586 Z" unicode="n" />
<glyph horiz-adv-x="1128" d="M 645 1069 C 713 1069 772 1057 823 1035 C 874 1013 916 982 950 942 C 984 902 1009 855 1026 801 C 1042 747 1051 688 1051 625 C 1051 577 1046 529 1037 479 C 1027 429 1013 380 994 333 C 974 285 950 240 921 198 C 891 156 857 119 817 87 C 777 55 731 30 681 12 C 630 -6 574 -16 512 -16 C 444 -16 384 -4 334 18 C 283 40 241 71 207 111 C 173 151 147 197 131 251 C 114 305 106 363 106 426 C 106 473 110 522 120 572 C 129 622 143 670 163 718 C 182 766 206 811 236 853 C 265 895 299 933 339 965 C 379 997 424 1022 475 1041 C 526 1059 583 1069 645 1069 Z M 915 616 C 915 662 909 705 899 747 C 889 788 872 824 850 856 C 828 887 799 912 763 930 C 727 948 683 958 631 958 C 584 958 542 950 504 934 C 466 918 433 897 404 871 C 375 844 350 813 330 778 C 309 743 292 706 279 668 C 265 629 255 590 249 550 C 243 510 240 472 240 436 C 240 390 245 346 255 305 C 265 263 282 227 305 196 C 327 164 357 139 393 121 C 429 103 472 94 524 94 C 570 94 612 101 650 117 C 687 133 720 154 749 180 C 778 206 803 237 824 272 C 844 307 861 344 875 383 C 889 421 899 461 905 501 C 911 541 915 579 915 616 Z" unicode="o" />
<glyph horiz-adv-x="1161" d="M 8 -451 L 217 610 C 224 648 231 685 237 720 C 243 754 249 789 255 824 C 260 859 265 895 269 932 C 273 969 277 1009 281 1053 L 399 1053 C 395 1015 390 974 385 930 C 379 886 373 840 365 791 C 390 833 418 872 449 906 C 479 940 512 970 547 994 C 581 1018 618 1036 657 1049 C 695 1062 736 1069 778 1069 C 834 1069 882 1058 922 1038 C 962 1018 994 990 1019 955 C 1044 920 1062 879 1074 831 C 1086 783 1092 732 1092 678 C 1092 630 1087 579 1079 526 C 1070 473 1056 421 1038 370 C 1020 318 996 269 968 223 C 940 176 906 135 867 100 C 827 64 782 36 732 15 C 681 -5 624 -16 561 -16 C 489 -16 428 -1 378 29 C 328 59 288 103 256 162 L 137 -451 L 8 -451 Z M 737 956 C 686 956 637 942 591 914 C 545 886 503 848 465 800 C 427 752 394 694 366 628 C 338 562 318 490 305 412 L 279 279 C 293 253 308 228 326 206 C 343 183 363 163 386 146 C 408 129 433 116 461 106 C 488 96 519 92 553 92 C 601 92 644 101 683 120 C 722 138 757 163 787 194 C 817 225 843 261 865 301 C 887 341 905 382 919 426 C 933 469 944 512 951 556 C 957 599 961 639 961 676 C 961 715 956 752 948 786 C 939 820 926 850 908 875 C 890 900 866 920 838 934 C 810 948 776 956 737 956 Z" unicode="p" />
<glyph horiz-adv-x="1165" d="M 1100 1053 L 807 -451 L 678 -451 L 813 240 C 789 201 762 166 733 134 C 704 102 673 75 640 53 C 606 30 571 12 534 0 C 497 -11 459 -18 420 -18 C 362 -18 313 -7 273 12 C 233 32 200 60 175 96 C 149 131 131 172 119 219 C 107 266 102 317 102 371 C 102 420 106 471 115 525 C 123 579 137 631 155 683 C 173 735 197 784 225 831 C 253 877 287 918 327 954 C 366 989 411 1017 461 1038 C 511 1058 568 1069 631 1069 C 705 1069 767 1052 819 1020 C 870 988 912 941 944 881 L 991 1053 L 1100 1053 Z M 915 774 C 901 798 886 822 869 845 C 851 867 831 887 809 905 C 787 922 762 936 735 946 C 707 956 677 961 645 961 C 596 961 552 951 513 933 C 473 915 438 890 408 860 C 377 829 351 793 329 753 C 307 713 288 671 274 627 C 260 583 249 538 243 494 C 236 449 233 407 233 367 C 233 330 237 295 246 262 C 254 229 268 200 286 175 C 304 150 327 130 356 116 C 384 101 419 94 459 94 C 507 94 554 107 600 134 C 646 160 688 198 726 246 C 764 294 798 352 827 419 C 855 486 877 560 891 641 L 915 774 Z" unicode="q" />
<glyph horiz-adv-x="696" d="M 668 1061 C 688 1061 708 1059 727 1055 C 745 1051 764 1045 784 1038 L 743 907 C 727 913 710 918 691 922 C 671 926 652 928 633 928 C 597 928 564 917 532 897 C 500 877 471 849 445 814 C 419 778 396 737 376 689 C 356 641 342 591 332 537 L 227 0 L 98 0 L 211 586 C 219 626 226 664 232 700 C 238 736 244 772 250 808 C 255 844 260 881 265 921 C 270 960 275 1004 279 1053 L 399 1053 C 395 1027 392 1004 390 983 C 388 962 385 942 383 923 C 380 904 377 885 374 866 C 371 847 368 827 365 807 C 384 845 405 879 427 910 C 449 941 473 968 498 990 C 523 1012 550 1030 578 1042 C 606 1054 636 1061 668 1061 Z" unicode="r" />
<glyph horiz-adv-x="895" d="M 66 190 C 110 157 160 129 216 106 C 272 83 331 72 393 72 C 425 72 456 75 487 82 C 517 89 544 100 568 116 C 592 131 611 151 625 175 C 639 199 647 228 647 262 C 647 294 640 321 626 344 C 612 366 594 386 571 404 C 547 422 520 438 490 453 C 459 467 427 483 393 500 C 362 514 333 530 307 547 C 280 564 257 583 237 605 C 217 627 202 652 191 680 C 179 708 174 742 174 780 C 174 826 182 868 199 904 C 216 940 240 970 270 994 C 300 1018 336 1037 378 1050 C 420 1062 465 1069 514 1069 C 542 1069 572 1066 603 1062 C 633 1058 664 1051 695 1042 C 725 1032 755 1020 784 1006 C 813 992 840 975 866 956 L 819 850 C 779 884 733 911 681 933 C 629 954 576 965 520 965 C 494 965 468 962 442 956 C 416 950 392 941 371 928 C 350 915 333 898 320 877 C 307 856 301 830 301 799 C 301 769 307 744 319 723 C 331 702 348 683 369 666 C 389 649 413 633 441 619 C 468 605 497 590 528 575 C 560 559 590 543 620 527 C 650 510 676 491 699 469 C 721 447 739 421 753 391 C 767 361 774 325 774 283 C 774 233 764 188 745 149 C 725 110 699 77 665 51 C 631 24 592 4 546 -10 C 500 -24 450 -31 397 -31 C 367 -31 335 -28 302 -24 C 268 -20 235 -13 202 -3 C 169 6 137 18 106 32 C 74 46 45 64 18 84 L 66 190 Z" unicode="s" />
<glyph horiz-adv-x="639" d="M 428 952 L 313 362 C 308 337 304 316 302 298 C 299 280 297 265 296 253 C 294 240 293 230 293 222 C 293 214 293 207 293 203 C 293 180 296 161 303 147 C 309 132 321 120 338 112 C 354 103 376 97 404 94 C 432 90 466 89 508 90 L 487 -8 C 477 -10 466 -11 456 -13 C 445 -15 430 -16 412 -16 C 374 -16 339 -12 308 -6 C 277 0 251 12 229 28 C 207 44 190 65 178 91 C 166 117 160 149 160 188 C 160 194 160 201 161 209 C 161 217 162 227 164 240 C 166 252 168 268 171 286 C 174 304 178 326 184 354 L 297 952 L 127 952 L 147 1053 L 317 1053 L 387 1333 L 502 1333 L 446 1053 L 692 1053 L 674 952 L 428 952 Z" unicode="t" />
<glyph horiz-adv-x="1143" d="M 817 293 C 791 251 764 212 734 175 C 704 138 671 105 635 77 C 599 48 560 25 518 9 C 476 -7 432 -16 385 -16 C 343 -16 306 -9 274 4 C 242 18 216 37 195 62 C 174 86 158 116 148 151 C 138 185 133 224 133 266 C 133 305 136 346 144 388 C 151 430 158 470 166 510 L 270 1053 L 399 1053 L 291 487 C 288 475 285 460 282 443 C 278 426 275 408 272 390 C 269 372 267 353 265 334 C 263 315 262 297 262 281 C 262 253 265 227 271 205 C 277 182 287 163 301 147 C 314 131 331 118 352 109 C 373 100 398 96 428 96 C 484 96 536 112 584 144 C 632 176 675 219 714 273 C 752 327 786 390 814 462 C 842 533 863 608 879 686 L 950 1053 L 1077 1053 L 963 467 C 955 429 948 392 942 355 C 935 318 929 280 923 242 C 917 204 912 165 907 125 C 902 85 898 43 895 0 L 774 0 C 781 49 788 97 794 144 C 800 191 807 241 817 293 Z" unicode="u" />
<glyph horiz-adv-x="930" d="M 268 1053 L 391 231 L 397 152 L 406 152 L 442 231 L 885 1053 L 1030 1053 L 442 0 L 309 0 L 127 1053 L 268 1053 Z" unicode="v" />
<glyph horiz-adv-x="1452" d="M 291 1053 L 344 279 L 346 188 L 354 188 L 395 279 L 766 1053 L 905 1053 L 981 279 L 983 188 L 993 188 L 1030 279 L 1386 1053 L 1530 1053 L 1026 0 L 895 0 L 815 799 L 813 889 L 803 889 L 766 799 L 377 0 L 248 0 L 154 1053 L 291 1053 Z" unicode="w" />
<glyph horiz-adv-x="930" d="M 496 635 L 838 1053 L 985 1053 L 553 541 L 801 0 L 649 0 L 461 449 L 100 0 L -55 0 L 408 547 L 166 1053 L 315 1053 L 496 635 Z" unicode="x" />
<glyph horiz-adv-x="963" d="M 260 1053 L 397 240 L 406 129 L 416 129 L 451 205 L 909 1053 L 1065 1053 L 401 -106 C 366 -167 333 -219 303 -263 C 273 -307 242 -343 212 -372 C 182 -400 150 -421 117 -435 C 84 -448 48 -455 8 -455 C -2 -455 -11 -454 -20 -454 C -29 -453 -39 -452 -49 -451 L -27 -344 L -14 -344 C 20 -344 51 -338 78 -326 C 105 -314 129 -298 151 -278 C 173 -258 193 -234 211 -206 C 229 -178 248 -149 266 -117 L 315 -29 L 125 1053 L 260 1053 Z" unicode="y" />
<glyph horiz-adv-x="907" d="M 938 1053 L 924 971 L 164 100 L 770 100 L 752 0 L -12 0 L 2 82 L 762 952 L 219 952 L 240 1053 L 938 1053 Z" unicode="z" />
<glyph horiz-adv-x="809" d="M 467 -326 C 427 -326 390 -320 356 -308 C 321 -296 290 -278 264 -256 C 237 -233 216 -206 201 -174 C 185 -142 178 -107 178 -68 C 178 -44 181 -19 188 5 C 194 29 203 57 215 88 L 283 268 C 292 296 301 322 309 346 C 317 370 322 392 322 412 C 322 427 320 443 316 460 C 312 477 305 493 297 507 C 288 521 277 533 264 543 C 251 553 235 558 217 559 L 96 559 L 121 678 L 246 678 C 268 678 290 682 312 691 C 333 700 352 712 369 728 C 386 743 400 761 410 782 C 420 802 426 824 426 848 L 426 1255 C 426 1299 434 1338 452 1373 C 470 1407 494 1437 524 1461 C 554 1485 588 1503 627 1516 C 665 1529 706 1536 748 1536 L 915 1536 L 897 1438 L 766 1438 C 738 1438 711 1433 685 1424 C 659 1415 636 1402 616 1385 C 596 1367 579 1346 567 1321 C 555 1295 549 1266 549 1233 L 549 829 C 549 803 542 780 528 759 C 514 737 497 718 475 700 C 453 682 429 666 403 652 C 377 638 351 626 326 616 L 322 604 C 342 590 359 574 374 558 C 389 541 402 523 412 505 C 422 487 429 468 434 450 C 439 431 442 413 442 397 C 442 389 440 379 437 367 C 434 355 431 342 427 329 C 423 315 418 302 414 290 C 410 277 406 266 403 258 L 350 119 C 344 105 339 90 334 75 C 328 59 323 44 319 28 C 314 12 310 -2 307 -17 C 304 -31 303 -45 303 -57 C 303 -81 307 -104 317 -125 C 327 -146 340 -164 357 -180 C 373 -195 393 -207 415 -216 C 437 -224 460 -229 485 -229 L 578 -229 L 557 -326 L 467 -326 Z" unicode="{" />
<glyph horiz-adv-x="774" d="M 457 1720 L 457 -348 L 317 -348 L 317 1720 L 457 1720 Z" unicode="|" />
<glyph horiz-adv-x="811" d="M 305 1536 L 397 1536 C 435 1536 472 1530 507 1518 C 542 1506 573 1488 599 1466 C 625 1444 645 1417 661 1385 C 676 1353 684 1317 684 1278 C 684 1254 681 1230 675 1206 C 669 1181 660 1153 649 1122 L 590 963 C 580 935 571 909 563 887 C 555 865 551 844 551 825 C 551 809 552 793 556 776 C 559 759 564 743 572 729 C 580 715 590 703 602 693 C 614 683 630 678 649 678 L 770 678 L 745 559 L 621 559 C 598 559 576 554 554 545 C 532 536 512 524 494 509 C 476 493 462 475 452 454 C 441 433 436 411 436 387 L 436 -45 C 436 -88 427 -127 410 -162 C 392 -196 369 -226 339 -250 C 309 -274 275 -293 237 -306 C 199 -319 159 -326 117 -326 L -53 -326 L -33 -229 L 98 -229 C 126 -229 153 -224 179 -216 C 205 -207 228 -194 248 -177 C 268 -159 284 -138 296 -112 C 308 -86 315 -57 315 -23 L 315 408 C 315 432 322 455 336 477 C 350 499 367 519 389 537 C 411 555 435 571 462 585 C 488 599 515 611 541 621 L 545 633 C 503 661 474 693 456 731 C 438 769 430 804 430 838 C 430 845 431 855 434 867 C 437 879 441 891 445 904 C 449 917 453 930 457 943 C 461 955 465 966 469 975 L 514 1092 C 519 1106 524 1120 530 1136 C 536 1151 541 1166 545 1182 C 549 1197 553 1212 556 1227 C 559 1242 561 1256 561 1268 C 561 1292 556 1315 546 1336 C 536 1356 523 1374 507 1389 C 490 1404 471 1416 449 1425 C 427 1433 403 1438 379 1438 L 287 1438 L 305 1536 Z" unicode="}" />
<glyph horiz-adv-x="1167" d="M 82 535 C 104 565 129 592 156 616 C 182 640 209 660 237 677 C 264 694 292 707 320 717 C 348 726 375 731 401 731 C 429 731 454 725 477 715 C 500 705 522 692 542 677 C 562 661 581 645 599 627 C 617 609 636 593 655 578 C 674 562 694 549 714 539 C 734 529 757 524 782 524 C 816 524 850 535 885 559 C 919 583 953 615 985 657 L 1081 590 C 1033 531 982 485 926 451 C 870 417 817 401 766 401 C 736 401 710 406 687 416 C 663 426 641 438 621 453 C 601 468 582 484 564 502 C 546 520 527 536 509 551 C 490 566 471 579 451 589 C 431 599 409 604 385 604 C 351 604 316 592 280 568 C 244 544 210 513 178 473 L 82 535 Z" unicode="~" />
<glyph horiz-adv-x="1024" d="" unicode="" />
<glyph horiz-adv-x="580" d="M 127 0 L 168 207 L 350 971 L 438 971 L 324 207 L 283 0 L 127 0 Z M 356 1227 L 399 1446 L 569 1446 L 526 1227 L 356 1227 Z" unicode="" />
<glyph horiz-adv-x="1167" d="M 852 43 C 814 22 774 7 734 -2 C 693 -11 647 -16 596 -16 C 550 -16 507 -12 469 -4 L 352 -330 L 244 -330 L 375 27 C 303 59 249 108 212 174 C 174 240 156 324 156 424 C 156 470 160 518 169 568 C 178 618 192 666 211 714 C 230 762 254 807 283 850 C 312 893 347 931 387 963 C 427 995 472 1021 524 1040 C 576 1059 634 1069 698 1069 C 706 1069 714 1069 721 1069 C 727 1069 737 1068 750 1067 L 854 1364 L 963 1364 L 852 1049 C 882 1039 913 1027 943 1013 C 973 998 1002 981 1030 961 L 973 852 C 937 885 894 911 845 930 C 795 948 744 958 690 958 C 641 958 597 950 559 934 C 520 918 486 897 456 871 C 426 845 401 814 380 780 C 359 745 342 708 328 670 C 314 631 304 591 298 551 C 292 511 289 472 289 436 C 289 384 295 338 307 296 C 319 254 337 218 363 188 C 389 158 421 134 461 118 C 501 102 548 94 604 94 C 652 94 696 100 737 113 C 778 126 816 143 852 164 L 852 43 Z" unicode="" />
<glyph horiz-adv-x="1237" d="M 885 694 L 537 694 C 545 660 552 626 558 593 C 564 560 567 526 567 492 C 567 445 561 398 549 352 C 537 305 519 260 496 217 C 532 181 575 153 625 134 C 674 115 726 106 782 106 C 832 106 880 112 926 126 C 971 140 1015 163 1057 195 L 1032 59 C 1018 49 1002 39 983 31 C 964 22 943 14 920 8 C 896 1 871 -4 844 -8 C 817 -12 789 -14 760 -14 C 694 -14 633 -2 578 21 C 522 45 472 79 426 123 C 388 83 345 52 295 28 C 245 4 187 -8 123 -8 C 102 -8 80 -6 56 -2 C 32 2 6 10 -20 23 L 0 133 C 18 123 39 116 61 112 C 83 108 106 106 129 106 C 179 106 223 116 261 137 C 299 158 332 186 358 221 C 384 256 403 296 417 342 C 431 387 438 434 438 483 C 438 519 434 554 428 589 C 422 624 413 659 403 694 L 109 694 L 129 795 L 375 795 C 362 836 351 878 342 920 C 332 962 328 1005 328 1051 C 328 1119 340 1179 365 1231 C 389 1283 423 1326 466 1361 C 509 1396 559 1423 617 1441 C 675 1459 737 1468 803 1468 C 837 1468 873 1465 911 1460 C 949 1455 986 1447 1023 1435 C 1060 1423 1096 1408 1131 1390 C 1165 1371 1197 1348 1227 1321 L 1161 1225 C 1135 1243 1108 1260 1080 1276 C 1051 1292 1021 1305 990 1317 C 958 1328 926 1337 893 1344 C 860 1350 827 1354 793 1354 C 753 1354 713 1348 674 1338 C 634 1328 599 1311 568 1287 C 536 1263 511 1231 492 1192 C 472 1153 463 1105 463 1049 C 463 1007 467 965 477 923 C 486 881 497 838 510 795 L 905 795 L 885 694 Z" unicode="" />
<glyph horiz-adv-x="1167" d="M 1040 461 C 1026 391 1004 332 974 284 C 943 236 907 198 866 168 L 956 -115 L 838 -115 C 836 -109 832 -97 826 -78 C 820 -59 814 -38 808 -14 C 802 9 795 33 788 57 C 781 81 775 101 770 117 C 739 104 707 95 675 90 C 643 84 610 82 578 82 C 526 82 477 88 431 100 C 385 112 344 130 307 156 L 121 -115 L -10 -115 L 233 223 C 204 261 184 305 172 357 C 160 408 160 468 174 537 L 236 870 C 248 934 269 991 300 1041 C 330 1090 368 1131 412 1163 L 322 1446 L 438 1446 L 508 1214 C 566 1237 629 1249 698 1249 C 748 1249 795 1243 840 1231 C 884 1219 925 1201 961 1178 L 1153 1446 L 1284 1446 L 1036 1112 C 1067 1074 1089 1029 1101 977 C 1113 924 1114 863 1102 795 L 1040 461 Z M 969 776 C 972 793 974 810 976 826 C 978 842 979 858 979 874 C 979 918 972 956 958 989 C 944 1022 925 1050 900 1072 C 875 1094 845 1110 810 1122 C 774 1133 735 1139 692 1139 C 643 1139 600 1132 562 1118 C 524 1104 492 1083 465 1057 C 437 1031 415 998 397 960 C 379 922 365 879 356 831 L 305 553 C 301 535 299 519 297 504 C 295 488 295 474 295 461 C 295 416 302 377 316 344 C 330 310 349 282 375 260 C 400 238 430 221 466 210 C 501 198 540 193 584 193 C 672 193 745 218 803 268 C 861 318 899 395 918 500 L 969 776 Z" unicode="" />
<glyph horiz-adv-x="1237" d="M 195 948 L 477 948 L 330 1446 L 481 1446 L 684 676 L 1182 1446 L 1339 1446 L 997 948 L 1276 948 L 1257 848 L 930 848 L 768 612 L 1210 612 L 1192 510 L 721 510 L 625 0 L 487 0 L 584 510 L 111 510 L 129 612 L 578 612 L 506 848 L 176 848 L 195 948 Z" unicode="" />
<glyph horiz-adv-x="774" d="M 457 1567 L 457 840 L 317 840 L 317 1567 L 457 1567 Z M 457 530 L 457 -195 L 317 -195 L 317 530 L 457 530 Z" unicode="" />
<glyph horiz-adv-x="1360" d="M 227 -135 C 253 -147 280 -158 308 -169 C 336 -180 364 -190 394 -198 C 424 -206 454 -213 485 -219 C 516 -224 548 -227 580 -227 C 610 -227 640 -224 670 -218 C 700 -212 728 -201 752 -187 C 776 -173 795 -153 811 -129 C 826 -104 834 -73 834 -35 C 834 0 825 29 808 53 C 790 77 766 98 736 116 C 706 134 670 150 629 165 C 588 179 544 195 498 213 C 456 228 413 246 370 268 C 327 289 288 315 253 345 C 218 375 190 411 168 452 C 146 493 135 541 135 596 C 135 646 144 692 162 734 C 180 776 206 813 239 845 C 271 877 310 903 354 924 C 398 945 446 960 498 969 C 474 991 455 1020 441 1054 C 427 1088 420 1123 420 1159 C 420 1211 430 1256 451 1295 C 472 1333 501 1365 537 1391 C 573 1417 616 1436 665 1449 C 714 1461 767 1468 823 1468 C 883 1468 947 1460 1013 1445 C 1079 1430 1143 1407 1204 1376 L 1157 1272 C 1105 1296 1050 1318 990 1336 C 930 1354 867 1364 803 1364 C 773 1364 742 1361 712 1355 C 682 1349 654 1338 630 1324 C 606 1310 586 1290 571 1265 C 556 1240 549 1209 549 1171 C 549 1135 557 1106 575 1082 C 592 1058 616 1038 646 1020 C 676 1002 711 986 752 972 C 793 958 837 942 885 926 C 927 910 969 892 1012 870 C 1055 848 1094 822 1129 792 C 1164 762 1193 726 1215 685 C 1237 644 1249 597 1249 543 C 1249 491 1239 444 1221 402 C 1202 360 1176 323 1143 291 C 1110 259 1071 232 1027 211 C 983 189 935 174 883 166 C 906 143 925 115 940 81 C 955 47 963 13 963 -23 C 963 -74 952 -119 931 -157 C 910 -195 881 -227 845 -253 C 809 -278 766 -297 717 -310 C 667 -323 615 -330 559 -330 C 499 -330 436 -322 370 -307 C 304 -292 240 -270 180 -240 L 227 -135 Z M 610 889 C 564 889 521 882 479 870 C 437 857 401 838 369 814 C 337 789 311 759 292 724 C 273 688 264 648 264 604 C 264 565 271 531 287 503 C 303 474 326 448 356 426 C 386 403 422 382 466 363 C 510 343 560 323 616 303 L 766 248 L 774 248 C 819 248 862 254 904 267 C 946 280 983 299 1015 323 C 1047 347 1072 377 1091 413 C 1110 449 1120 489 1120 535 C 1120 573 1112 606 1096 634 C 1080 662 1058 688 1028 710 C 998 732 961 753 917 773 C 873 792 824 812 768 834 L 621 889 L 610 889 Z" unicode="" />
<glyph horiz-adv-x="840" d="M 451 1446 L 416 1272 L 276 1272 L 311 1446 L 451 1446 Z M 879 1446 L 844 1272 L 707 1272 L 741 1446 L 879 1446 Z" unicode="" />
<glyph horiz-adv-x="1907" d="M 989 -143 C 912 -143 838 -133 767 -114 C 696 -94 630 -67 568 -31 C 506 4 449 47 398 97 C 347 147 303 203 267 265 C 230 326 202 392 182 463 C 162 533 152 607 152 684 C 152 760 162 834 182 904 C 202 974 230 1040 267 1101 C 303 1162 347 1217 398 1267 C 449 1317 506 1359 568 1395 C 630 1431 696 1458 767 1478 C 838 1497 912 1507 989 1507 C 1065 1507 1139 1497 1211 1478 C 1282 1458 1349 1431 1411 1395 C 1473 1359 1530 1317 1582 1267 C 1633 1217 1677 1162 1714 1101 C 1750 1040 1779 974 1799 904 C 1819 834 1829 760 1829 684 C 1829 607 1819 533 1799 463 C 1779 392 1750 326 1714 265 C 1677 203 1633 147 1582 97 C 1530 47 1473 4 1411 -31 C 1349 -67 1282 -94 1211 -114 C 1139 -133 1065 -143 989 -143 Z M 1272 952 C 1232 971 1191 985 1147 995 C 1103 1005 1058 1010 1012 1010 C 962 1010 918 1001 878 984 C 838 967 804 944 776 915 C 748 886 726 852 711 812 C 695 772 688 730 688 686 C 688 640 696 598 714 561 C 731 524 755 492 785 466 C 815 440 850 420 890 406 C 930 392 972 385 1018 385 C 1048 385 1075 386 1099 389 C 1123 391 1146 395 1167 400 C 1188 404 1208 410 1226 416 C 1244 422 1261 428 1278 436 L 1323 336 C 1303 327 1283 319 1263 312 C 1242 304 1219 298 1195 293 C 1170 287 1143 283 1114 280 C 1085 277 1053 276 1018 276 C 955 276 896 285 841 305 C 785 324 737 351 695 387 C 653 423 621 466 597 516 C 573 566 561 623 561 686 C 561 746 571 803 593 856 C 614 909 644 955 683 994 C 722 1033 769 1064 825 1086 C 881 1108 943 1120 1012 1120 C 1065 1120 1118 1113 1171 1101 C 1224 1088 1273 1071 1317 1051 L 1272 952 Z M 989 -45 C 1055 -45 1120 -36 1182 -19 C 1244 -1 1302 22 1356 54 C 1410 86 1459 124 1503 168 C 1547 212 1585 262 1617 316 C 1648 370 1672 428 1690 490 C 1707 552 1716 616 1716 684 C 1716 750 1707 813 1690 875 C 1672 937 1648 995 1617 1049 C 1585 1103 1547 1152 1503 1196 C 1459 1240 1410 1278 1356 1310 C 1302 1342 1244 1366 1182 1384 C 1120 1402 1055 1411 989 1411 C 923 1411 859 1402 798 1384 C 736 1366 679 1342 625 1310 C 571 1278 522 1240 478 1196 C 434 1152 396 1103 364 1049 C 332 995 308 937 290 875 C 272 813 264 750 264 684 C 264 616 272 552 290 490 C 308 428 332 370 364 316 C 396 262 434 212 478 168 C 522 124 571 86 625 54 C 679 22 736 -1 798 -19 C 859 -36 923 -45 989 -45 Z" unicode="" />
<glyph horiz-adv-x="885" d="M 958 1458 L 860 997 C 846 935 836 875 828 819 C 820 763 813 705 807 645 L 700 645 C 702 668 704 690 706 710 C 708 730 711 749 714 769 C 716 789 719 809 722 830 C 725 850 729 873 733 899 C 708 859 683 823 657 791 C 631 758 604 730 575 706 C 545 682 514 664 480 651 C 446 637 409 631 369 631 C 332 631 300 636 274 647 C 247 658 225 674 207 695 C 189 715 176 740 168 770 C 160 799 156 832 156 868 C 156 908 161 952 171 998 C 181 1044 196 1089 216 1133 C 235 1177 259 1220 287 1261 C 315 1301 346 1337 382 1368 C 417 1399 455 1424 497 1442 C 539 1460 583 1470 631 1470 C 675 1470 713 1460 745 1441 C 777 1422 804 1389 825 1343 L 864 1458 L 958 1458 Z M 397 731 C 423 731 450 737 478 750 C 505 762 532 780 558 802 C 584 824 608 849 632 879 C 656 909 677 941 697 975 C 717 1009 734 1044 749 1081 C 763 1117 774 1154 782 1190 L 795 1249 C 772 1294 746 1326 718 1344 C 690 1362 659 1372 627 1372 C 593 1372 561 1364 531 1349 C 501 1333 473 1313 447 1287 C 421 1261 397 1232 376 1199 C 354 1165 336 1131 321 1095 C 306 1059 294 1023 286 987 C 278 951 274 917 274 887 C 274 833 285 794 309 769 C 332 743 361 731 397 731 Z" unicode="" />
<glyph horiz-adv-x="995" d="M 551 887 L 205 567 L 412 268 L 283 268 L 94 526 L 115 631 L 403 887 L 551 887 Z M 944 887 L 598 567 L 805 268 L 676 268 L 487 526 L 508 631 L 797 887 L 944 887 Z" unicode="" />
<glyph horiz-adv-x="1167" d="M 1094 903 L 1094 236 L 965 236 L 965 784 L 57 784 L 57 903 L 1094 903 Z" unicode="" />
<glyph horiz-adv-x="629" d="M 571 635 L 547 510 L 106 510 L 131 635 L 571 635 Z" unicode="" />
<glyph horiz-adv-x="1106" d="M 655 530 C 587 530 525 542 467 566 C 409 590 358 623 316 665 C 273 707 239 757 215 814 C 190 871 178 933 178 999 C 178 1062 190 1122 215 1179 C 239 1236 273 1286 316 1329 C 358 1371 409 1405 467 1430 C 525 1455 587 1468 655 1468 C 723 1468 786 1455 845 1430 C 903 1405 954 1371 998 1329 C 1042 1286 1076 1236 1101 1179 C 1126 1122 1139 1062 1139 999 C 1139 933 1126 871 1101 814 C 1076 757 1042 707 998 665 C 954 623 903 590 845 566 C 786 542 723 530 655 530 Z M 465 776 L 465 1249 L 725 1249 C 748 1249 770 1245 790 1238 C 810 1231 827 1221 842 1209 C 856 1196 868 1181 876 1164 C 884 1147 889 1128 889 1108 C 889 1078 879 1051 859 1027 C 839 1003 813 986 780 977 L 897 776 L 811 776 L 700 971 L 541 971 L 541 776 L 465 776 Z M 541 1186 L 541 1034 L 725 1034 C 750 1034 771 1041 789 1056 C 806 1071 815 1088 815 1108 C 815 1120 812 1130 807 1140 C 802 1149 795 1157 787 1164 C 779 1171 769 1176 759 1180 C 748 1184 737 1186 725 1186 L 541 1186 Z M 655 590 C 713 590 768 600 820 622 C 871 643 916 672 954 709 C 992 746 1022 789 1044 839 C 1066 889 1077 942 1077 999 C 1077 1055 1066 1107 1044 1157 C 1022 1207 992 1250 954 1288 C 916 1325 871 1354 820 1376 C 768 1398 713 1409 655 1409 C 597 1409 542 1398 492 1376 C 442 1354 398 1325 361 1288 C 324 1250 295 1207 274 1157 C 252 1107 242 1055 242 999 C 242 942 252 889 274 839 C 295 789 324 746 361 709 C 398 672 442 643 492 622 C 542 600 597 590 655 590 Z" unicode="" />
<glyph horiz-adv-x="840" d="M 846 1393 L 825 1286 L 313 1286 L 334 1393 L 846 1393 Z" unicode="" />
<glyph horiz-adv-x="778" d="M 541 1473 C 626 1473 691 1448 737 1398 C 782 1348 805 1277 805 1186 C 805 1158 802 1129 798 1099 C 794 1069 786 1038 776 1008 C 766 978 752 949 735 921 C 718 893 697 869 671 848 C 645 826 615 809 580 797 C 545 784 505 778 459 778 C 374 778 309 802 264 852 C 219 902 197 972 197 1063 C 197 1089 199 1118 203 1149 C 207 1180 214 1211 224 1241 C 234 1271 248 1301 265 1329 C 281 1357 302 1381 328 1403 C 354 1424 384 1441 419 1454 C 454 1466 495 1473 541 1473 Z M 537 1382 C 488 1382 448 1370 418 1348 C 387 1326 363 1298 346 1266 C 329 1234 318 1199 312 1163 C 306 1126 303 1093 303 1065 C 303 1037 306 1010 312 986 C 318 962 327 941 340 924 C 352 906 369 893 389 883 C 409 873 434 868 463 868 C 511 868 550 879 580 901 C 610 923 634 950 651 982 C 668 1014 680 1049 686 1086 C 692 1122 696 1155 696 1184 C 696 1212 693 1239 687 1263 C 681 1287 671 1307 659 1325 C 646 1343 630 1357 610 1367 C 590 1377 565 1382 537 1382 Z" unicode="" />
<glyph horiz-adv-x="1167" d="M 518 811 L 518 1233 L 649 1233 L 649 811 L 1110 811 L 1110 690 L 649 690 L 649 266 L 518 266 L 518 690 L 57 690 L 57 811 L 518 811 Z M 1110 119 L 1110 0 L 57 0 L 57 119 L 1110 119 Z" unicode="" />
<glyph horiz-adv-x="795" d="M 590 1036 C 603 1046 617 1058 633 1072 C 649 1086 663 1102 677 1119 C 691 1136 702 1155 711 1175 C 720 1195 725 1215 725 1237 C 725 1254 721 1271 715 1287 C 708 1303 698 1317 685 1329 C 671 1341 655 1351 635 1359 C 615 1366 593 1370 567 1370 C 551 1370 534 1368 518 1364 C 502 1360 485 1354 469 1345 C 452 1335 435 1323 419 1307 C 402 1291 385 1272 367 1249 L 285 1288 C 300 1310 317 1332 337 1353 C 356 1373 378 1391 403 1407 C 428 1423 456 1435 487 1444 C 517 1453 552 1458 590 1458 C 625 1458 657 1453 687 1444 C 716 1434 741 1421 763 1404 C 784 1386 801 1365 813 1339 C 825 1313 831 1285 831 1253 C 831 1223 827 1196 819 1171 C 811 1146 800 1123 786 1101 C 771 1079 753 1058 732 1038 C 710 1018 686 997 659 977 L 283 688 L 729 688 L 711 598 L 131 598 L 150 692 L 590 1036 Z" unicode="" />
<glyph horiz-adv-x="743" d="M 246 1329 C 259 1343 275 1357 293 1373 C 311 1388 331 1402 354 1415 C 377 1427 403 1438 431 1446 C 459 1454 490 1458 524 1458 C 556 1458 586 1453 616 1445 C 646 1437 672 1424 694 1408 C 716 1392 734 1372 748 1348 C 761 1324 768 1296 768 1264 C 768 1240 764 1217 756 1195 C 748 1173 736 1153 721 1135 C 706 1117 688 1102 668 1089 C 647 1075 624 1065 600 1059 L 600 1049 C 638 1037 668 1018 690 990 C 712 962 723 926 723 881 C 723 826 709 779 681 739 C 653 699 617 667 573 642 C 529 616 481 597 428 585 C 374 573 322 567 272 567 C 249 567 226 568 202 570 C 178 572 157 576 139 582 L 139 674 C 162 670 185 667 209 665 C 233 663 257 662 281 662 C 319 662 357 665 397 673 C 437 681 473 693 505 710 C 537 727 564 749 585 775 C 605 801 616 834 616 872 C 616 892 612 910 604 926 C 596 941 586 954 574 964 C 561 974 546 982 530 987 C 514 992 497 995 481 995 C 476 995 470 994 464 994 C 458 993 449 992 439 991 C 429 990 416 989 402 987 C 388 985 370 983 350 981 L 350 1069 L 451 1079 C 473 1079 496 1084 520 1092 C 544 1100 567 1111 588 1125 C 608 1139 625 1157 639 1178 C 652 1199 659 1223 659 1251 C 659 1287 645 1315 617 1337 C 589 1359 554 1370 510 1370 C 474 1370 441 1361 410 1345 C 379 1328 348 1307 317 1282 L 246 1329 L 246 1329 Z" unicode="" />
<glyph horiz-adv-x="840" d="M 854 1530 L 854 1481 L 539 1231 L 471 1231 L 479 1274 L 719 1530 L 854 1530 Z" unicode="" />
<glyph horiz-adv-x="1210" d="M 301 1053 L 428 1053 L 315 444 C 311 429 308 414 306 398 C 303 382 300 366 298 351 C 296 336 294 322 293 309 C 291 296 291 285 291 276 C 291 251 294 228 300 206 C 306 184 315 165 329 149 C 342 133 360 120 382 110 C 404 100 432 96 465 96 C 517 96 567 112 614 144 C 661 176 704 218 742 272 C 780 325 814 386 842 455 C 870 524 891 596 905 670 L 979 1053 L 1108 1053 L 987 422 C 971 343 959 267 949 194 C 939 120 932 56 926 0 L 805 0 C 808 27 811 53 815 78 C 818 102 821 126 825 150 C 829 173 832 196 836 220 C 840 243 844 267 848 293 C 821 247 791 206 759 168 C 727 130 693 97 657 70 C 621 42 584 21 546 6 C 507 -8 468 -16 430 -16 C 408 -16 388 -13 368 -7 C 348 -1 329 6 312 16 C 295 26 280 39 268 55 C 256 71 247 89 242 109 L 233 102 L 215 -55 L 139 -451 L 8 -451 L 301 1053 Z" unicode="" />
<glyph horiz-adv-x="1397" d="M 1014 -451 L 877 -451 L 1221 1333 L 903 1333 L 561 -451 L 422 -451 L 629 629 L 561 629 C 511 629 466 638 427 658 C 388 678 355 704 328 738 C 301 772 281 811 267 855 C 253 899 246 945 246 995 C 246 1049 255 1104 273 1158 C 291 1212 317 1260 352 1303 C 387 1345 430 1380 481 1406 C 532 1432 591 1446 657 1446 L 1378 1446 L 1014 -451 Z" unicode="" />
<glyph horiz-adv-x="473" d="M 338 702 L 338 440 L 135 440 L 135 702 L 338 702 Z" unicode="" />
<glyph horiz-adv-x="840" d="M 367 6 L 358 -29 C 356 -36 356 -42 359 -46 C 362 -50 365 -55 369 -59 L 408 -106 C 421 -121 433 -140 445 -164 C 457 -187 463 -214 463 -246 C 463 -276 457 -304 445 -330 C 433 -355 417 -377 395 -395 C 373 -413 346 -426 315 -436 C 284 -446 249 -451 211 -451 C 179 -451 149 -447 122 -440 C 95 -433 72 -423 53 -410 L 88 -317 C 106 -328 126 -337 148 -344 C 170 -350 192 -354 215 -354 C 231 -354 248 -352 264 -348 C 280 -344 295 -339 308 -331 C 320 -323 330 -312 338 -300 C 346 -288 350 -273 350 -256 C 350 -237 345 -222 336 -211 C 327 -199 318 -188 309 -178 L 262 -123 C 256 -117 252 -110 250 -102 C 248 -94 248 -85 250 -76 L 266 6 L 367 6 Z" unicode="" />
<glyph horiz-adv-x="500" d="M 424 1446 L 514 1446 L 489 1360 L 340 598 L 231 598 L 373 1323 L 381 1348 L 377 1348 L 227 1288 L 246 1384 L 424 1446 Z" unicode="" />
<glyph horiz-adv-x="924" d="M 618 1470 C 672 1470 719 1461 759 1443 C 799 1425 832 1401 859 1371 C 885 1340 905 1304 918 1262 C 931 1220 938 1176 938 1128 C 938 1091 934 1053 927 1015 C 919 976 908 938 893 902 C 877 865 858 830 835 798 C 811 765 784 736 752 712 C 720 688 685 668 645 654 C 605 640 560 633 512 633 C 458 633 411 641 371 659 C 331 677 297 701 271 731 C 245 761 225 797 212 839 C 199 880 193 925 193 973 C 193 1009 196 1047 204 1086 C 211 1124 222 1162 237 1199 C 252 1235 271 1270 294 1303 C 317 1336 344 1365 376 1390 C 407 1414 443 1434 483 1448 C 523 1462 568 1470 618 1470 Z M 817 1120 C 817 1153 813 1185 805 1215 C 797 1245 785 1272 769 1296 C 752 1319 730 1337 704 1351 C 677 1365 644 1372 606 1372 C 570 1372 537 1366 509 1354 C 480 1342 455 1326 433 1306 C 411 1286 392 1262 377 1236 C 361 1209 349 1181 339 1153 C 329 1124 322 1095 318 1066 C 313 1036 311 1009 311 983 C 311 949 314 916 322 886 C 330 856 342 829 359 806 C 375 783 397 765 424 751 C 451 737 484 731 522 731 C 576 731 621 743 659 769 C 696 795 726 827 750 866 C 773 905 790 947 801 993 C 811 1038 817 1080 817 1120 Z" unicode="" />
<glyph horiz-adv-x="997" d="M 494 268 L 840 588 L 633 887 L 760 887 L 948 629 L 928 524 L 641 268 L 494 268 Z M 100 268 L 446 588 L 240 887 L 367 887 L 555 629 L 535 524 L 248 268 L 100 268 Z" unicode="" />
<glyph horiz-adv-x="1540" d="M 424 1446 L 514 1446 L 489 1360 L 340 598 L 231 598 L 373 1323 L 381 1348 L 377 1348 L 227 1288 L 246 1384 L 424 1446 Z M 1243 1446 L 328 0 L 219 0 L 1137 1446 L 1243 1446 Z M 1411 849 L 1294 277 L 1452 277 L 1438 189 L 1280 189 L 1241 1 L 1135 1 L 1173 189 L 768 189 L 790 304 L 1307 849 L 1411 849 Z M 870 277 L 1188 277 L 1255 593 L 1288 706 L 1282 706 L 870 277 Z" unicode="" />
<glyph horiz-adv-x="1638" d="M 424 1446 L 514 1446 L 489 1360 L 340 598 L 231 598 L 373 1323 L 381 1348 L 377 1348 L 227 1288 L 246 1384 L 424 1446 Z M 1243 1446 L 328 0 L 219 0 L 1137 1446 L 1243 1446 Z M 1321 439 C 1334 449 1348 461 1364 475 C 1380 489 1394 505 1408 522 C 1422 539 1433 558 1442 578 C 1451 598 1456 618 1456 640 C 1456 657 1452 674 1446 690 C 1439 706 1429 720 1416 732 C 1402 744 1386 754 1366 762 C 1346 769 1324 773 1298 773 C 1282 773 1265 771 1249 767 C 1233 763 1216 757 1200 748 C 1183 738 1166 726 1150 710 C 1133 694 1116 675 1098 652 L 1016 691 C 1031 713 1048 735 1068 756 C 1087 776 1109 794 1134 810 C 1159 826 1187 838 1218 847 C 1248 856 1283 861 1321 861 C 1356 861 1388 856 1418 847 C 1447 837 1472 824 1494 807 C 1515 789 1532 768 1544 742 C 1556 716 1562 688 1562 656 C 1562 626 1558 599 1550 574 C 1542 549 1531 526 1517 504 C 1502 482 1484 461 1463 441 C 1441 421 1417 400 1390 380 L 1014 91 L 1460 91 L 1442 1 L 862 1 L 881 95 L 1321 439 Z" unicode="" />
<glyph horiz-adv-x="1784" d="M 246 1329 C 259 1343 275 1357 293 1373 C 311 1388 331 1402 354 1415 C 377 1427 403 1438 431 1446 C 459 1454 490 1458 524 1458 C 556 1458 586 1453 616 1445 C 646 1437 672 1424 694 1408 C 716 1392 734 1372 748 1348 C 761 1324 768 1296 768 1264 C 768 1240 764 1217 756 1195 C 748 1173 736 1153 721 1135 C 706 1117 688 1102 668 1089 C 647 1075 624 1065 600 1059 L 600 1049 C 638 1037 668 1018 690 990 C 712 962 723 926 723 881 C 723 826 709 779 681 739 C 653 699 617 667 573 642 C 529 616 481 597 428 585 C 374 573 322 567 272 567 C 249 567 226 568 202 570 C 178 572 157 576 139 582 L 139 674 C 162 670 185 667 209 665 C 233 663 257 662 281 662 C 319 662 357 665 397 673 C 437 681 473 693 505 710 C 537 727 564 749 585 775 C 605 801 616 834 616 872 C 616 892 612 910 604 926 C 596 941 586 954 574 964 C 561 974 546 982 530 987 C 514 992 497 995 481 995 C 476 995 470 994 464 994 C 458 993 449 992 439 991 C 429 990 416 989 402 987 C 388 985 370 983 350 981 L 350 1069 L 451 1079 C 473 1079 496 1084 520 1092 C 544 1100 567 1111 588 1125 C 608 1139 625 1157 639 1178 C 652 1199 659 1223 659 1251 C 659 1287 645 1315 617 1337 C 589 1359 554 1370 510 1370 C 474 1370 441 1361 410 1345 C 379 1328 348 1307 317 1282 L 246 1329 L 246 1329 Z M 1486 1446 L 571 0 L 462 0 L 1380 1446 L 1486 1446 Z M 1654 849 L 1537 277 L 1695 277 L 1681 189 L 1523 189 L 1484 1 L 1378 1 L 1416 189 L 1011 189 L 1033 304 L 1550 849 L 1654 849 Z M 1113 277 L 1431 277 L 1498 593 L 1531 706 L 1525 706 L 1113 277 Z" unicode="" />
<glyph horiz-adv-x="887" d="M 803 129 C 783 108 759 89 732 71 C 705 53 676 38 645 25 C 613 12 580 2 545 -5 C 510 -12 474 -16 438 -16 C 394 -16 353 -10 313 1 C 273 13 237 30 206 54 C 175 77 150 106 132 142 C 113 178 104 220 104 268 C 104 314 111 355 127 392 C 143 429 164 463 190 495 C 216 526 247 555 281 583 C 315 610 350 638 387 666 C 415 687 441 707 465 726 C 489 745 512 766 532 788 C 552 810 569 836 583 865 C 597 894 608 929 616 971 L 739 971 C 731 926 720 887 708 854 C 695 821 678 791 658 763 C 637 735 611 707 581 681 C 551 655 514 626 471 594 C 441 573 412 552 384 531 C 355 509 329 486 306 462 C 283 438 264 411 250 383 C 236 354 229 322 229 287 C 229 255 235 228 247 204 C 259 180 275 159 296 143 C 316 127 341 114 369 106 C 397 98 427 94 459 94 C 506 94 554 103 602 121 C 650 139 697 167 741 205 L 803 129 Z M 633 1227 L 676 1446 L 848 1446 L 805 1227 L 633 1227 Z" unicode="" />
<glyph horiz-adv-x="1270" d="M 662 1903 L 942 1647 L 932 1604 L 874 1604 L 528 1853 L 528 1903 L 662 1903 Z M 125 0 L -14 0 L 752 1446 L 907 1446 L 1104 0 L 967 0 L 922 356 L 309 356 L 125 0 Z M 369 471 L 907 471 L 815 1196 L 807 1300 L 795 1300 L 748 1196 L 369 471 Z" unicode="" />
<glyph horiz-adv-x="1270" d="M 1178 1903 L 1178 1853 L 827 1604 L 760 1604 L 768 1649 L 1042 1903 L 1178 1903 Z M 125 0 L -14 0 L 752 1446 L 907 1446 L 1104 0 L 967 0 L 922 356 L 309 356 L 125 0 Z M 369 471 L 907 471 L 815 1196 L 807 1300 L 795 1300 L 748 1196 L 369 471 Z" unicode="" />
<glyph horiz-adv-x="1270" d="M 125 0 L -14 0 L 752 1446 L 907 1446 L 1104 0 L 967 0 L 922 356 L 309 356 L 125 0 Z M 369 471 L 907 471 L 815 1196 L 807 1300 L 795 1300 L 748 1196 L 369 471 Z M 969 1903 L 1122 1641 L 1114 1604 L 1063 1604 L 907 1800 L 899 1800 L 664 1604 L 596 1604 L 604 1641 L 862 1903 L 969 1903 Z" unicode="" />
<glyph horiz-adv-x="1270" d="M 125 0 L -14 0 L 752 1446 L 907 1446 L 1104 0 L 967 0 L 922 356 L 309 356 L 125 0 Z M 369 471 L 907 471 L 815 1196 L 807 1300 L 795 1300 L 748 1196 L 369 471 Z M 612 1760 C 644 1792 672 1814 695 1824 C 718 1834 740 1840 762 1840 C 774 1840 785 1838 796 1836 C 807 1834 818 1830 829 1824 C 840 1818 852 1810 864 1800 C 876 1790 890 1778 905 1764 L 946 1727 C 958 1714 970 1704 982 1698 C 993 1691 1004 1688 1016 1688 C 1028 1688 1041 1691 1053 1697 C 1065 1703 1080 1715 1098 1733 L 1153 1786 L 1223 1737 L 1151 1665 C 1135 1649 1120 1635 1106 1625 C 1092 1615 1080 1607 1068 1601 C 1056 1595 1044 1591 1034 1589 C 1023 1587 1012 1586 1002 1586 C 989 1586 977 1587 966 1589 C 955 1591 944 1595 933 1601 C 922 1607 910 1614 898 1624 C 886 1634 872 1646 858 1661 L 817 1700 C 805 1711 793 1720 782 1728 C 770 1735 759 1739 748 1739 C 735 1739 722 1735 710 1728 C 698 1721 683 1709 666 1692 L 610 1639 L 541 1690 L 612 1760 Z" unicode="" />
<glyph horiz-adv-x="1270" d="M 125 0 L -14 0 L 752 1446 L 907 1446 L 1104 0 L 967 0 L 922 356 L 309 356 L 125 0 Z M 369 471 L 907 471 L 815 1196 L 807 1300 L 795 1300 L 748 1196 L 369 471 Z M 748 1819 L 713 1645 L 573 1645 L 608 1819 L 748 1819 Z M 1176 1819 L 1141 1645 L 1004 1645 L 1038 1819 L 1176 1819 Z" unicode="" />
<glyph horiz-adv-x="1270" d="M 125 0 L -14 0 L 752 1446 L 907 1446 L 1104 0 L 967 0 L 922 356 L 309 356 L 125 0 Z M 369 471 L 907 471 L 815 1196 L 807 1300 L 795 1300 L 748 1196 L 369 471 Z M 655 1743 C 655 1772 661 1800 673 1826 C 685 1852 701 1875 721 1895 C 741 1915 765 1930 793 1942 C 821 1954 851 1960 883 1960 C 914 1960 943 1954 971 1942 C 998 1930 1022 1915 1042 1895 C 1062 1875 1078 1852 1090 1826 C 1102 1800 1108 1772 1108 1743 C 1108 1713 1102 1684 1090 1658 C 1078 1631 1062 1608 1042 1589 C 1022 1569 998 1554 971 1543 C 943 1531 914 1526 883 1526 C 851 1526 821 1531 793 1543 C 765 1554 741 1569 721 1589 C 701 1608 685 1631 673 1658 C 661 1684 655 1713 655 1743 Z M 733 1743 C 733 1722 736 1703 744 1685 C 752 1667 762 1651 776 1638 C 790 1624 806 1614 824 1606 C 842 1598 861 1595 883 1595 C 903 1595 922 1598 940 1606 C 958 1614 973 1624 987 1638 C 1000 1651 1010 1667 1018 1685 C 1026 1703 1030 1722 1030 1743 C 1030 1763 1026 1782 1018 1800 C 1010 1818 1000 1833 987 1847 C 973 1861 958 1872 940 1880 C 922 1888 903 1892 883 1892 C 861 1892 842 1888 824 1880 C 806 1872 790 1861 776 1847 C 762 1833 752 1818 744 1800 C 736 1782 733 1763 733 1743 Z" unicode="" />
<glyph horiz-adv-x="2007" d="M 31 0 L -123 0 L 1020 1446 L 2036 1446 L 2013 1331 L 1208 1331 L 1108 811 L 1821 811 L 1798 696 L 1085 696 L 973 115 L 1798 115 L 1776 0 L 813 0 L 881 354 L 307 354 L 31 0 Z M 395 469 L 903 469 L 1073 1339 L 1057 1339 L 965 1198 L 395 469 Z" unicode="" />
<glyph horiz-adv-x="1348" d="M 1145 55 C 1099 30 1046 11 986 -1 C 926 -13 858 -20 784 -20 C 764 -20 746 -19 728 -18 C 710 -17 692 -16 674 -14 L 670 -29 C 668 -36 668 -42 671 -46 C 673 -50 676 -55 680 -59 L 719 -106 C 732 -121 744 -140 756 -164 C 768 -187 774 -214 774 -246 C 774 -276 768 -304 756 -330 C 744 -355 728 -377 706 -395 C 684 -413 657 -426 626 -436 C 595 -446 560 -451 522 -451 C 490 -451 460 -447 434 -440 C 407 -433 384 -423 365 -410 L 399 -317 C 417 -328 437 -337 459 -344 C 481 -350 503 -354 526 -354 C 542 -354 559 -352 575 -348 C 591 -344 606 -339 619 -331 C 632 -323 642 -312 650 -300 C 658 -288 662 -273 662 -256 C 662 -237 657 -222 648 -211 C 639 -199 630 -188 621 -178 L 573 -123 C 567 -117 563 -110 561 -102 C 559 -94 559 -85 561 -76 L 575 2 C 443 36 340 102 268 202 C 196 301 160 430 160 588 C 160 659 167 730 181 802 C 195 873 217 941 246 1007 C 274 1072 310 1133 353 1189 C 395 1245 445 1293 502 1335 C 558 1376 622 1408 692 1432 C 762 1456 840 1468 924 1468 C 964 1468 1004 1465 1046 1459 C 1088 1453 1129 1443 1170 1431 C 1210 1419 1249 1403 1287 1385 C 1325 1366 1359 1344 1391 1319 L 1333 1198 C 1305 1222 1274 1243 1241 1263 C 1208 1282 1174 1298 1138 1312 C 1102 1325 1064 1335 1026 1343 C 988 1350 949 1354 911 1354 C 844 1354 783 1344 727 1324 C 671 1304 620 1276 575 1241 C 530 1206 491 1165 457 1117 C 423 1069 394 1018 371 962 C 348 906 331 848 320 787 C 308 726 303 665 303 604 C 303 528 313 458 333 396 C 353 334 383 280 424 235 C 465 190 516 155 578 131 C 639 106 711 94 795 94 C 865 94 928 102 985 118 C 1042 134 1095 155 1145 180 L 1145 55 Z" unicode="" />
<glyph horiz-adv-x="1309" d="M 700 1903 L 979 1647 L 971 1604 L 913 1604 L 565 1853 L 565 1903 L 700 1903 Z M 410 811 L 1122 811 L 1100 696 L 387 696 L 274 115 L 1100 115 L 1077 0 L 115 0 L 395 1446 L 1337 1446 L 1315 1331 L 510 1331 L 410 811 Z" unicode="" />
<glyph horiz-adv-x="1309" d="M 1212 1903 L 1212 1853 L 862 1604 L 795 1604 L 803 1649 L 1077 1903 L 1212 1903 Z M 410 811 L 1122 811 L 1100 696 L 387 696 L 274 115 L 1100 115 L 1077 0 L 115 0 L 395 1446 L 1337 1446 L 1315 1331 L 510 1331 L 410 811 Z" unicode="" />
<glyph horiz-adv-x="1309" d="M 410 811 L 1122 811 L 1100 696 L 387 696 L 274 115 L 1100 115 L 1077 0 L 115 0 L 395 1446 L 1337 1446 L 1315 1331 L 510 1331 L 410 811 Z M 996 1903 L 1149 1641 L 1141 1604 L 1090 1604 L 934 1800 L 926 1800 L 691 1604 L 623 1604 L 631 1641 L 889 1903 L 996 1903 Z" unicode="" />
<glyph horiz-adv-x="1309" d="M 410 811 L 1122 811 L 1100 696 L 387 696 L 274 115 L 1100 115 L 1077 0 L 115 0 L 395 1446 L 1337 1446 L 1315 1331 L 510 1331 L 410 811 Z M 775 1819 L 740 1645 L 600 1645 L 635 1819 L 775 1819 Z M 1203 1819 L 1168 1645 L 1031 1645 L 1065 1819 L 1203 1819 Z" unicode="" />
<glyph horiz-adv-x="549" d="M 319 1903 L 598 1647 L 590 1604 L 532 1604 L 184 1853 L 184 1903 L 319 1903 Z M 532 1446 L 252 0 L 117 0 L 397 1446 L 532 1446 Z" unicode="" />
<glyph horiz-adv-x="549" d="M 799 1903 L 799 1853 L 449 1604 L 381 1604 L 389 1649 L 664 1903 L 799 1903 Z M 532 1446 L 252 0 L 117 0 L 397 1446 L 532 1446 Z" unicode="" />
<glyph horiz-adv-x="549" d="M 532 1446 L 252 0 L 117 0 L 397 1446 L 532 1446 Z M 612 1903 L 765 1641 L 757 1604 L 706 1604 L 550 1800 L 542 1800 L 307 1604 L 239 1604 L 247 1641 L 505 1903 L 612 1903 Z" unicode="" />
<glyph horiz-adv-x="549" d="M 532 1446 L 252 0 L 117 0 L 397 1446 L 532 1446 Z M 390 1820 L 355 1646 L 215 1646 L 250 1820 L 390 1820 Z M 818 1820 L 783 1646 L 646 1646 L 680 1820 L 818 1820 Z" unicode="" />
<glyph horiz-adv-x="1503" d="M 117 811 L 303 811 L 426 1446 L 821 1446 C 917 1446 1004 1433 1082 1407 C 1160 1381 1227 1342 1283 1290 C 1338 1238 1381 1172 1411 1094 C 1441 1015 1456 923 1456 817 C 1456 752 1449 687 1436 621 C 1423 555 1403 492 1376 432 C 1349 372 1314 315 1272 263 C 1230 210 1179 164 1121 125 C 1062 86 994 55 918 33 C 842 11 756 0 662 0 L 147 0 L 283 707 L 98 707 L 117 811 Z M 543 1331 L 440 811 L 825 811 L 807 707 L 420 707 L 305 115 L 668 115 C 741 115 808 124 868 143 C 928 161 981 187 1029 220 C 1077 253 1118 292 1154 337 C 1189 381 1218 430 1242 482 C 1265 534 1282 588 1294 645 C 1305 702 1311 759 1311 817 C 1311 891 1301 959 1281 1022 C 1261 1084 1232 1138 1192 1184 C 1152 1230 1101 1266 1040 1292 C 979 1318 907 1331 825 1331 L 543 1331 Z" unicode="" />
<glyph horiz-adv-x="1473" d="M 397 1446 L 582 1446 L 995 352 L 1071 125 L 1087 125 L 1120 379 L 1327 1446 L 1458 1446 L 1178 0 L 995 0 L 578 1094 L 502 1319 L 485 1319 L 453 1065 L 246 0 L 117 0 L 397 1446 Z M 688 1760 C 720 1792 748 1814 771 1824 C 794 1834 816 1840 838 1840 C 850 1840 861 1838 872 1836 C 883 1834 894 1830 905 1824 C 916 1818 928 1810 940 1800 C 952 1790 966 1778 981 1764 L 1022 1727 C 1034 1714 1046 1704 1058 1698 C 1069 1691 1080 1688 1092 1688 C 1104 1688 1117 1691 1129 1697 C 1141 1703 1156 1715 1174 1733 L 1229 1786 L 1299 1737 L 1227 1665 C 1211 1649 1196 1635 1182 1625 C 1168 1615 1156 1607 1144 1601 C 1132 1595 1120 1591 1110 1589 C 1099 1587 1088 1586 1078 1586 C 1065 1586 1053 1587 1042 1589 C 1031 1591 1020 1595 1009 1601 C 998 1607 986 1614 974 1624 C 962 1634 948 1646 934 1661 L 893 1700 C 881 1711 869 1720 858 1728 C 846 1735 835 1739 824 1739 C 811 1739 798 1735 786 1728 C 774 1721 759 1709 742 1692 L 686 1639 L 617 1690 L 688 1760 Z" unicode="" />
<glyph horiz-adv-x="1532" d="M 817 1903 L 1096 1647 L 1087 1604 L 1030 1604 L 682 1853 L 682 1903 L 817 1903 Z M 907 1468 C 999 1468 1080 1453 1152 1425 C 1224 1396 1284 1355 1334 1302 C 1384 1249 1422 1185 1448 1110 C 1474 1035 1487 952 1487 860 C 1487 793 1480 725 1467 656 C 1453 586 1433 519 1406 454 C 1379 389 1345 328 1303 270 C 1261 212 1212 162 1156 119 C 1100 76 1036 42 965 17 C 893 -7 814 -20 727 -20 C 635 -20 554 -5 483 23 C 411 51 351 92 302 145 C 252 197 215 261 189 336 C 163 410 150 494 150 586 C 150 652 156 720 170 790 C 183 860 203 927 230 993 C 257 1058 291 1119 333 1177 C 375 1235 424 1285 480 1328 C 536 1371 599 1405 670 1430 C 741 1455 820 1468 907 1468 Z M 1343 846 C 1343 920 1333 988 1315 1050 C 1297 1112 1269 1166 1232 1211 C 1195 1256 1149 1291 1093 1316 C 1037 1341 971 1354 895 1354 C 825 1354 761 1343 704 1322 C 647 1300 596 1271 552 1234 C 507 1197 468 1154 436 1105 C 404 1055 377 1003 356 947 C 334 891 318 834 308 775 C 298 715 293 658 293 602 C 293 528 302 460 320 398 C 338 336 365 282 402 237 C 439 192 485 157 541 132 C 597 106 663 94 739 94 C 809 94 872 104 930 126 C 987 147 1038 176 1083 213 C 1127 250 1166 293 1199 342 C 1231 391 1258 443 1280 499 C 1301 555 1317 612 1327 672 C 1337 731 1343 789 1343 846 Z" unicode="" />
<glyph horiz-adv-x="1532" d="M 1323 1903 L 1323 1853 L 973 1604 L 905 1604 L 913 1649 L 1188 1903 L 1323 1903 Z M 907 1468 C 999 1468 1080 1453 1152 1425 C 1224 1396 1284 1355 1334 1302 C 1384 1249 1422 1185 1448 1110 C 1474 1035 1487 952 1487 860 C 1487 793 1480 725 1467 656 C 1453 586 1433 519 1406 454 C 1379 389 1345 328 1303 270 C 1261 212 1212 162 1156 119 C 1100 76 1036 42 965 17 C 893 -7 814 -20 727 -20 C 635 -20 554 -5 483 23 C 411 51 351 92 302 145 C 252 197 215 261 189 336 C 163 410 150 494 150 586 C 150 652 156 720 170 790 C 183 860 203 927 230 993 C 257 1058 291 1119 333 1177 C 375 1235 424 1285 480 1328 C 536 1371 599 1405 670 1430 C 741 1455 820 1468 907 1468 Z M 1343 846 C 1343 920 1333 988 1315 1050 C 1297 1112 1269 1166 1232 1211 C 1195 1256 1149 1291 1093 1316 C 1037 1341 971 1354 895 1354 C 825 1354 761 1343 704 1322 C 647 1300 596 1271 552 1234 C 507 1197 468 1154 436 1105 C 404 1055 377 1003 356 947 C 334 891 318 834 308 775 C 298 715 293 658 293 602 C 293 528 302 460 320 398 C 338 336 365 282 402 237 C 439 192 485 157 541 132 C 597 106 663 94 739 94 C 809 94 872 104 930 126 C 987 147 1038 176 1083 213 C 1127 250 1166 293 1199 342 C 1231 391 1258 443 1280 499 C 1301 555 1317 612 1327 672 C 1337 731 1343 789 1343 846 Z" unicode="" />
<glyph horiz-adv-x="1532" d="M 907 1468 C 999 1468 1080 1453 1152 1425 C 1224 1396 1284 1355 1334 1302 C 1384 1249 1422 1185 1448 1110 C 1474 1035 1487 952 1487 860 C 1487 793 1480 725 1467 656 C 1453 586 1433 519 1406 454 C 1379 389 1345 328 1303 270 C 1261 212 1212 162 1156 119 C 1100 76 1036 42 965 17 C 893 -7 814 -20 727 -20 C 635 -20 554 -5 483 23 C 411 51 351 92 302 145 C 252 197 215 261 189 336 C 163 410 150 494 150 586 C 150 652 156 720 170 790 C 183 860 203 927 230 993 C 257 1058 291 1119 333 1177 C 375 1235 424 1285 480 1328 C 536 1371 599 1405 670 1430 C 741 1455 820 1468 907 1468 Z M 1343 846 C 1343 920 1333 988 1315 1050 C 1297 1112 1269 1166 1232 1211 C 1195 1256 1149 1291 1093 1316 C 1037 1341 971 1354 895 1354 C 825 1354 761 1343 704 1322 C 647 1300 596 1271 552 1234 C 507 1197 468 1154 436 1105 C 404 1055 377 1003 356 947 C 334 891 318 834 308 775 C 298 715 293 658 293 602 C 293 528 302 460 320 398 C 338 336 365 282 402 237 C 439 192 485 157 541 132 C 597 106 663 94 739 94 C 809 94 872 104 930 126 C 987 147 1038 176 1083 213 C 1127 250 1166 293 1199 342 C 1231 391 1258 443 1280 499 C 1301 555 1317 612 1327 672 C 1337 731 1343 789 1343 846 Z M 1108 1903 L 1261 1641 L 1253 1604 L 1202 1604 L 1046 1800 L 1038 1800 L 803 1604 L 735 1604 L 743 1641 L 1001 1903 L 1108 1903 Z" unicode="" />
<glyph horiz-adv-x="1532" d="M 907 1468 C 999 1468 1080 1453 1152 1425 C 1224 1396 1284 1355 1334 1302 C 1384 1249 1422 1185 1448 1110 C 1474 1035 1487 952 1487 860 C 1487 793 1480 725 1467 656 C 1453 586 1433 519 1406 454 C 1379 389 1345 328 1303 270 C 1261 212 1212 162 1156 119 C 1100 76 1036 42 965 17 C 893 -7 814 -20 727 -20 C 635 -20 554 -5 483 23 C 411 51 351 92 302 145 C 252 197 215 261 189 336 C 163 410 150 494 150 586 C 150 652 156 720 170 790 C 183 860 203 927 230 993 C 257 1058 291 1119 333 1177 C 375 1235 424 1285 480 1328 C 536 1371 599 1405 670 1430 C 741 1455 820 1468 907 1468 Z M 1343 846 C 1343 920 1333 988 1315 1050 C 1297 1112 1269 1166 1232 1211 C 1195 1256 1149 1291 1093 1316 C 1037 1341 971 1354 895 1354 C 825 1354 761 1343 704 1322 C 647 1300 596 1271 552 1234 C 507 1197 468 1154 436 1105 C 404 1055 377 1003 356 947 C 334 891 318 834 308 775 C 298 715 293 658 293 602 C 293 528 302 460 320 398 C 338 336 365 282 402 237 C 439 192 485 157 541 132 C 597 106 663 94 739 94 C 809 94 872 104 930 126 C 987 147 1038 176 1083 213 C 1127 250 1166 293 1199 342 C 1231 391 1258 443 1280 499 C 1301 555 1317 612 1327 672 C 1337 731 1343 789 1343 846 Z M 755 1760 C 787 1792 815 1814 838 1824 C 861 1834 883 1840 905 1840 C 917 1840 928 1838 939 1836 C 950 1834 961 1830 972 1824 C 983 1818 995 1810 1007 1800 C 1019 1790 1033 1778 1048 1764 L 1089 1727 C 1101 1714 1113 1704 1125 1698 C 1136 1691 1147 1688 1159 1688 C 1171 1688 1184 1691 1196 1697 C 1208 1703 1223 1715 1241 1733 L 1296 1786 L 1366 1737 L 1294 1665 C 1278 1649 1263 1635 1249 1625 C 1235 1615 1223 1607 1211 1601 C 1199 1595 1187 1591 1177 1589 C 1166 1587 1155 1586 1145 1586 C 1132 1586 1120 1587 1109 1589 C 1098 1591 1087 1595 1076 1601 C 1065 1607 1053 1614 1041 1624 C 1029 1634 1015 1646 1001 1661 L 960 1700 C 948 1711 936 1720 925 1728 C 913 1735 902 1739 891 1739 C 878 1739 865 1735 853 1728 C 841 1721 826 1709 809 1692 L 753 1639 L 684 1690 L 755 1760 Z" unicode="" />
<glyph horiz-adv-x="1532" d="M 907 1468 C 999 1468 1080 1453 1152 1425 C 1224 1396 1284 1355 1334 1302 C 1384 1249 1422 1185 1448 1110 C 1474 1035 1487 952 1487 860 C 1487 793 1480 725 1467 656 C 1453 586 1433 519 1406 454 C 1379 389 1345 328 1303 270 C 1261 212 1212 162 1156 119 C 1100 76 1036 42 965 17 C 893 -7 814 -20 727 -20 C 635 -20 554 -5 483 23 C 411 51 351 92 302 145 C 252 197 215 261 189 336 C 163 410 150 494 150 586 C 150 652 156 720 170 790 C 183 860 203 927 230 993 C 257 1058 291 1119 333 1177 C 375 1235 424 1285 480 1328 C 536 1371 599 1405 670 1430 C 741 1455 820 1468 907 1468 Z M 1343 846 C 1343 920 1333 988 1315 1050 C 1297 1112 1269 1166 1232 1211 C 1195 1256 1149 1291 1093 1316 C 1037 1341 971 1354 895 1354 C 825 1354 761 1343 704 1322 C 647 1300 596 1271 552 1234 C 507 1197 468 1154 436 1105 C 404 1055 377 1003 356 947 C 334 891 318 834 308 775 C 298 715 293 658 293 602 C 293 528 302 460 320 398 C 338 336 365 282 402 237 C 439 192 485 157 541 132 C 597 106 663 94 739 94 C 809 94 872 104 930 126 C 987 147 1038 176 1083 213 C 1127 250 1166 293 1199 342 C 1231 391 1258 443 1280 499 C 1301 555 1317 612 1327 672 C 1337 731 1343 789 1343 846 Z M 887 1819 L 852 1645 L 712 1645 L 747 1819 L 887 1819 Z M 1315 1819 L 1280 1645 L 1143 1645 L 1177 1819 L 1315 1819 Z" unicode="" />
<glyph horiz-adv-x="1167" d="M 586 659 L 1020 1096 L 1108 1010 L 672 573 L 1112 135 L 1020 43 L 580 483 L 145 45 L 57 133 L 494 567 L 57 1008 L 147 1098 L 586 659 Z" unicode="" />
<glyph horiz-adv-x="1532" d="M 907 1468 C 1039 1468 1149 1438 1239 1380 L 1378 1581 L 1483 1581 L 1309 1327 C 1366 1273 1410 1207 1441 1128 C 1471 1049 1487 960 1487 860 C 1487 793 1480 725 1467 656 C 1453 586 1433 519 1406 454 C 1379 389 1345 328 1303 270 C 1261 212 1212 162 1156 119 C 1100 76 1036 42 965 17 C 893 -7 814 -20 727 -20 C 668 -20 614 -14 564 -2 C 514 9 468 26 426 49 L 297 -137 L 193 -137 L 354 96 C 287 148 236 216 202 299 C 167 382 150 478 150 586 C 150 652 156 720 170 790 C 183 860 203 927 230 993 C 257 1058 291 1119 333 1177 C 375 1235 424 1285 480 1328 C 536 1371 599 1405 670 1430 C 741 1455 820 1468 907 1468 Z M 895 1354 C 825 1354 761 1343 704 1322 C 647 1300 596 1271 552 1234 C 507 1197 468 1154 436 1105 C 404 1055 377 1003 356 947 C 334 891 318 834 308 775 C 298 715 293 658 293 602 C 293 518 304 443 327 376 C 349 309 384 253 430 207 L 1165 1274 C 1130 1299 1090 1319 1046 1333 C 1001 1347 951 1354 895 1354 Z M 1343 846 C 1343 920 1333 989 1315 1052 C 1297 1114 1268 1168 1229 1214 L 498 156 C 530 136 566 121 606 110 C 646 99 691 94 739 94 C 809 94 872 104 930 126 C 987 147 1038 176 1083 213 C 1127 250 1166 293 1199 342 C 1231 391 1258 443 1280 499 C 1301 555 1317 612 1327 672 C 1337 731 1343 789 1343 846 Z" unicode="" />
<glyph horiz-adv-x="1407" d="M 729 1903 L 1008 1647 L 999 1604 L 942 1604 L 594 1853 L 594 1903 L 729 1903 Z M 506 1446 L 360 692 C 352 648 345 609 339 577 C 333 544 328 516 324 492 C 320 468 318 447 316 430 C 314 413 313 398 313 385 C 313 330 322 284 341 247 C 359 209 385 179 418 157 C 451 134 490 118 535 108 C 579 98 628 94 680 94 C 756 94 817 103 865 121 C 913 139 951 164 980 198 C 1009 231 1031 271 1047 319 C 1062 366 1075 419 1087 477 L 1274 1446 L 1411 1446 L 1219 449 C 1206 384 1189 323 1167 266 C 1145 209 1114 159 1074 117 C 1033 75 980 41 915 17 C 850 -7 768 -20 670 -20 C 607 -20 546 -13 487 0 C 427 13 375 35 329 66 C 283 97 246 138 218 190 C 190 241 176 305 176 381 C 176 399 177 417 179 437 C 181 457 184 479 188 503 C 192 527 197 554 203 584 C 209 614 215 648 223 688 L 371 1446 L 506 1446 Z" unicode="" />
<glyph horiz-adv-x="1407" d="M 1247 1903 L 1247 1853 L 897 1604 L 829 1604 L 838 1649 L 1112 1903 L 1247 1903 Z M 506 1446 L 360 692 C 352 648 345 609 339 577 C 333 544 328 516 324 492 C 320 468 318 447 316 430 C 314 413 313 398 313 385 C 313 330 322 284 341 247 C 359 209 385 179 418 157 C 451 134 490 118 535 108 C 579 98 628 94 680 94 C 756 94 817 103 865 121 C 913 139 951 164 980 198 C 1009 231 1031 271 1047 319 C 1062 366 1075 419 1087 477 L 1274 1446 L 1411 1446 L 1219 449 C 1206 384 1189 323 1167 266 C 1145 209 1114 159 1074 117 C 1033 75 980 41 915 17 C 850 -7 768 -20 670 -20 C 607 -20 546 -13 487 0 C 427 13 375 35 329 66 C 283 97 246 138 218 190 C 190 241 176 305 176 381 C 176 399 177 417 179 437 C 181 457 184 479 188 503 C 192 527 197 554 203 584 C 209 614 215 648 223 688 L 371 1446 L 506 1446 Z" unicode="" />
<glyph horiz-adv-x="1407" d="M 506 1446 L 360 692 C 352 648 345 609 339 577 C 333 544 328 516 324 492 C 320 468 318 447 316 430 C 314 413 313 398 313 385 C 313 330 322 284 341 247 C 359 209 385 179 418 157 C 451 134 490 118 535 108 C 579 98 628 94 680 94 C 756 94 817 103 865 121 C 913 139 951 164 980 198 C 1009 231 1031 271 1047 319 C 1062 366 1075 419 1087 477 L 1274 1446 L 1411 1446 L 1219 449 C 1206 384 1189 323 1167 266 C 1145 209 1114 159 1074 117 C 1033 75 980 41 915 17 C 850 -7 768 -20 670 -20 C 607 -20 546 -13 487 0 C 427 13 375 35 329 66 C 283 97 246 138 218 190 C 190 241 176 305 176 381 C 176 399 177 417 179 437 C 181 457 184 479 188 503 C 192 527 197 554 203 584 C 209 614 215 648 223 688 L 371 1446 L 506 1446 Z M 1030 1903 L 1183 1641 L 1175 1604 L 1124 1604 L 968 1800 L 960 1800 L 725 1604 L 657 1604 L 665 1641 L 923 1903 L 1030 1903 Z" unicode="" />
<glyph horiz-adv-x="1407" d="M 506 1446 L 360 692 C 352 648 345 609 339 577 C 333 544 328 516 324 492 C 320 468 318 447 316 430 C 314 413 313 398 313 385 C 313 330 322 284 341 247 C 359 209 385 179 418 157 C 451 134 490 118 535 108 C 579 98 628 94 680 94 C 756 94 817 103 865 121 C 913 139 951 164 980 198 C 1009 231 1031 271 1047 319 C 1062 366 1075 419 1087 477 L 1274 1446 L 1411 1446 L 1219 449 C 1206 384 1189 323 1167 266 C 1145 209 1114 159 1074 117 C 1033 75 980 41 915 17 C 850 -7 768 -20 670 -20 C 607 -20 546 -13 487 0 C 427 13 375 35 329 66 C 283 97 246 138 218 190 C 190 241 176 305 176 381 C 176 399 177 417 179 437 C 181 457 184 479 188 503 C 192 527 197 554 203 584 C 209 614 215 648 223 688 L 371 1446 L 506 1446 Z M 809 1819 L 774 1645 L 634 1645 L 669 1819 L 809 1819 Z M 1237 1819 L 1202 1645 L 1065 1645 L 1099 1819 L 1237 1819 Z" unicode="" />
<glyph horiz-adv-x="1210" d="M 1157 1903 L 1157 1853 L 807 1604 L 739 1604 L 748 1649 L 1022 1903 L 1157 1903 Z M 373 1446 L 643 651 L 1227 1446 L 1386 1446 L 688 526 L 586 0 L 449 0 L 551 526 L 215 1446 L 373 1446 Z" unicode="" />
<glyph horiz-adv-x="1317" d="M 532 1446 L 475 1151 L 801 1151 C 883 1151 956 1143 1019 1129 C 1082 1115 1136 1089 1182 1053 C 1218 1023 1246 985 1267 940 C 1287 895 1298 840 1298 776 C 1298 700 1284 631 1257 570 C 1229 509 1192 458 1145 416 C 1101 376 1048 348 986 330 C 924 312 850 303 766 303 L 309 303 L 252 0 L 115 0 L 395 1446 L 532 1446 Z M 453 1036 L 332 418 L 784 418 C 848 418 904 427 952 445 C 999 463 1038 487 1069 519 C 1099 550 1122 586 1137 628 C 1151 670 1159 714 1159 762 C 1159 802 1152 838 1140 872 C 1127 906 1107 935 1081 959 C 1055 983 1021 1001 981 1015 C 940 1029 892 1036 836 1036 L 453 1036 Z" unicode="" />
<glyph horiz-adv-x="1108" d="M 305 1141 C 329 1269 377 1365 447 1429 C 517 1492 606 1524 715 1524 C 765 1524 811 1517 855 1503 C 899 1489 937 1469 970 1443 C 1002 1416 1028 1383 1047 1343 C 1065 1303 1075 1258 1075 1206 C 1075 1167 1069 1131 1059 1098 C 1049 1064 1035 1033 1017 1005 C 999 976 979 949 955 924 C 931 899 905 876 879 854 C 861 839 846 827 833 817 C 819 807 813 796 813 786 C 813 778 815 770 821 760 C 827 750 834 739 843 727 C 851 715 861 702 871 690 C 881 677 891 665 901 653 C 919 629 937 605 954 583 C 970 560 985 536 998 512 C 1010 488 1020 462 1027 434 C 1034 406 1038 374 1038 340 C 1038 288 1029 240 1013 196 C 996 152 972 115 940 83 C 908 51 868 27 822 9 C 776 -9 723 -18 664 -18 C 632 -18 599 -15 565 -11 C 531 -7 499 -2 471 4 L 492 109 C 522 103 551 98 580 93 C 609 88 638 86 668 86 C 708 86 743 92 773 104 C 803 116 828 132 848 154 C 868 176 883 201 893 231 C 903 260 909 292 909 328 C 909 360 905 388 898 412 C 890 436 881 457 870 477 C 859 497 847 515 833 531 C 819 547 807 564 795 580 C 761 621 735 658 717 691 C 699 723 690 753 690 780 C 690 792 692 803 696 814 C 700 824 707 835 715 846 C 723 856 734 868 748 880 C 761 892 777 906 795 922 C 815 939 834 956 852 974 C 870 991 885 1010 899 1030 C 912 1050 922 1073 930 1098 C 938 1123 942 1152 942 1184 C 942 1224 936 1258 924 1287 C 912 1315 896 1339 876 1358 C 855 1376 830 1390 802 1399 C 774 1408 743 1413 709 1413 C 665 1413 628 1405 597 1391 C 565 1377 539 1356 517 1330 C 495 1303 477 1270 463 1231 C 449 1192 437 1148 428 1100 L 217 0 L 86 0 L 305 1141 Z" unicode="" />
<glyph horiz-adv-x="1139" d="M 1085 1053 L 958 440 C 942 364 928 290 917 218 C 906 146 897 74 889 0 L 768 0 C 774 58 782 116 791 173 C 799 229 809 290 819 356 C 787 303 755 254 721 208 C 687 162 651 123 613 90 C 575 56 533 30 489 11 C 445 -8 396 -18 344 -18 C 297 -18 256 -10 222 5 C 188 20 159 41 137 69 C 114 97 97 130 86 170 C 75 209 70 253 70 301 C 70 353 76 408 89 466 C 101 524 120 582 144 639 C 168 696 198 750 233 802 C 268 854 308 899 352 939 C 396 979 445 1010 498 1034 C 551 1057 608 1069 668 1069 C 730 1069 782 1055 824 1027 C 866 999 902 953 930 891 L 977 1053 L 1085 1053 Z M 375 94 C 411 94 447 102 484 120 C 520 137 556 161 590 191 C 624 221 657 256 689 296 C 720 336 748 378 773 423 C 798 468 820 514 838 562 C 856 610 870 656 879 702 L 893 784 C 864 844 831 889 793 918 C 755 946 712 961 662 961 C 617 961 575 950 535 930 C 495 910 458 883 424 849 C 390 815 359 776 331 732 C 303 688 280 642 261 594 C 241 546 226 499 216 451 C 206 403 201 359 201 319 C 201 244 216 188 248 150 C 280 112 322 94 375 94 Z M 577 1530 L 821 1274 L 813 1231 L 755 1231 L 442 1481 L 442 1530 L 577 1530 Z" unicode="" />
<glyph horiz-adv-x="1139" d="M 1085 1053 L 958 440 C 942 364 928 290 917 218 C 906 146 897 74 889 0 L 768 0 C 774 58 782 116 791 173 C 799 229 809 290 819 356 C 787 303 755 254 721 208 C 687 162 651 123 613 90 C 575 56 533 30 489 11 C 445 -8 396 -18 344 -18 C 297 -18 256 -10 222 5 C 188 20 159 41 137 69 C 114 97 97 130 86 170 C 75 209 70 253 70 301 C 70 353 76 408 89 466 C 101 524 120 582 144 639 C 168 696 198 750 233 802 C 268 854 308 899 352 939 C 396 979 445 1010 498 1034 C 551 1057 608 1069 668 1069 C 730 1069 782 1055 824 1027 C 866 999 902 953 930 891 L 977 1053 L 1085 1053 Z M 375 94 C 411 94 447 102 484 120 C 520 137 556 161 590 191 C 624 221 657 256 689 296 C 720 336 748 378 773 423 C 798 468 820 514 838 562 C 856 610 870 656 879 702 L 893 784 C 864 844 831 889 793 918 C 755 946 712 961 662 961 C 617 961 575 950 535 930 C 495 910 458 883 424 849 C 390 815 359 776 331 732 C 303 688 280 642 261 594 C 241 546 226 499 216 451 C 206 403 201 359 201 319 C 201 244 216 188 248 150 C 280 112 322 94 375 94 Z M 1034 1530 L 1034 1481 L 719 1231 L 651 1231 L 659 1274 L 899 1530 L 1034 1530 Z" unicode="" />
<glyph horiz-adv-x="1139" d="M 1085 1053 L 958 440 C 942 364 928 290 917 218 C 906 146 897 74 889 0 L 768 0 C 774 58 782 116 791 173 C 799 229 809 290 819 356 C 787 303 755 254 721 208 C 687 162 651 123 613 90 C 575 56 533 30 489 11 C 445 -8 396 -18 344 -18 C 297 -18 256 -10 222 5 C 188 20 159 41 137 69 C 114 97 97 130 86 170 C 75 209 70 253 70 301 C 70 353 76 408 89 466 C 101 524 120 582 144 639 C 168 696 198 750 233 802 C 268 854 308 899 352 939 C 396 979 445 1010 498 1034 C 551 1057 608 1069 668 1069 C 730 1069 782 1055 824 1027 C 866 999 902 953 930 891 L 977 1053 L 1085 1053 Z M 375 94 C 411 94 447 102 484 120 C 520 137 556 161 590 191 C 624 221 657 256 689 296 C 720 336 748 378 773 423 C 798 468 820 514 838 562 C 856 610 870 656 879 702 L 893 784 C 864 844 831 889 793 918 C 755 946 712 961 662 961 C 617 961 575 950 535 930 C 495 910 458 883 424 849 C 390 815 359 776 331 732 C 303 688 280 642 261 594 C 241 546 226 499 216 451 C 206 403 201 359 201 319 C 201 244 216 188 248 150 C 280 112 322 94 375 94 Z M 852 1530 L 1005 1268 L 997 1231 L 946 1231 L 790 1427 L 782 1427 L 547 1231 L 479 1231 L 487 1268 L 745 1530 L 852 1530 Z" unicode="" />
<glyph horiz-adv-x="1139" d="M 1085 1053 L 958 440 C 942 364 928 290 917 218 C 906 146 897 74 889 0 L 768 0 C 774 58 782 116 791 173 C 799 229 809 290 819 356 C 787 303 755 254 721 208 C 687 162 651 123 613 90 C 575 56 533 30 489 11 C 445 -8 396 -18 344 -18 C 297 -18 256 -10 222 5 C 188 20 159 41 137 69 C 114 97 97 130 86 170 C 75 209 70 253 70 301 C 70 353 76 408 89 466 C 101 524 120 582 144 639 C 168 696 198 750 233 802 C 268 854 308 899 352 939 C 396 979 445 1010 498 1034 C 551 1057 608 1069 668 1069 C 730 1069 782 1055 824 1027 C 866 999 902 953 930 891 L 977 1053 L 1085 1053 Z M 375 94 C 411 94 447 102 484 120 C 520 137 556 161 590 191 C 624 221 657 256 689 296 C 720 336 748 378 773 423 C 798 468 820 514 838 562 C 856 610 870 656 879 702 L 893 784 C 864 844 831 889 793 918 C 755 946 712 961 662 961 C 617 961 575 950 535 930 C 495 910 458 883 424 849 C 390 815 359 776 331 732 C 303 688 280 642 261 594 C 241 546 226 499 216 451 C 206 403 201 359 201 319 C 201 244 216 188 248 150 C 280 112 322 94 375 94 Z M 499 1393 C 531 1425 559 1447 582 1457 C 605 1467 627 1473 649 1473 C 661 1473 672 1471 683 1469 C 694 1467 705 1463 716 1457 C 727 1451 739 1443 751 1433 C 763 1423 777 1411 792 1397 L 833 1360 C 845 1347 857 1337 869 1331 C 880 1324 891 1321 903 1321 C 915 1321 928 1324 940 1330 C 952 1336 967 1348 985 1366 L 1040 1419 L 1110 1370 L 1038 1298 C 1022 1282 1007 1268 993 1258 C 979 1248 967 1240 955 1234 C 943 1228 931 1224 921 1222 C 910 1220 899 1219 889 1219 C 876 1219 864 1220 853 1222 C 842 1224 831 1228 820 1234 C 809 1240 797 1247 785 1257 C 773 1267 759 1279 745 1294 L 704 1333 C 692 1344 680 1353 669 1361 C 657 1368 646 1372 635 1372 C 622 1372 609 1368 597 1361 C 585 1354 570 1342 553 1325 L 497 1272 L 428 1323 L 499 1393 Z" unicode="" />
<glyph horiz-adv-x="1139" d="M 1085 1053 L 958 440 C 942 364 928 290 917 218 C 906 146 897 74 889 0 L 768 0 C 774 58 782 116 791 173 C 799 229 809 290 819 356 C 787 303 755 254 721 208 C 687 162 651 123 613 90 C 575 56 533 30 489 11 C 445 -8 396 -18 344 -18 C 297 -18 256 -10 222 5 C 188 20 159 41 137 69 C 114 97 97 130 86 170 C 75 209 70 253 70 301 C 70 353 76 408 89 466 C 101 524 120 582 144 639 C 168 696 198 750 233 802 C 268 854 308 899 352 939 C 396 979 445 1010 498 1034 C 551 1057 608 1069 668 1069 C 730 1069 782 1055 824 1027 C 866 999 902 953 930 891 L 977 1053 L 1085 1053 Z M 375 94 C 411 94 447 102 484 120 C 520 137 556 161 590 191 C 624 221 657 256 689 296 C 720 336 748 378 773 423 C 798 468 820 514 838 562 C 856 610 870 656 879 702 L 893 784 C 864 844 831 889 793 918 C 755 946 712 961 662 961 C 617 961 575 950 535 930 C 495 910 458 883 424 849 C 390 815 359 776 331 732 C 303 688 280 642 261 594 C 241 546 226 499 216 451 C 206 403 201 359 201 319 C 201 244 216 188 248 150 C 280 112 322 94 375 94 Z M 631 1446 L 596 1272 L 456 1272 L 491 1446 L 631 1446 Z M 1059 1446 L 1024 1272 L 887 1272 L 921 1446 L 1059 1446 Z" unicode="" />
<glyph horiz-adv-x="1139" d="M 1085 1053 L 958 440 C 942 364 928 290 917 218 C 906 146 897 74 889 0 L 768 0 C 774 58 782 116 791 173 C 799 229 809 290 819 356 C 787 303 755 254 721 208 C 687 162 651 123 613 90 C 575 56 533 30 489 11 C 445 -8 396 -18 344 -18 C 297 -18 256 -10 222 5 C 188 20 159 41 137 69 C 114 97 97 130 86 170 C 75 209 70 253 70 301 C 70 353 76 408 89 466 C 101 524 120 582 144 639 C 168 696 198 750 233 802 C 268 854 308 899 352 939 C 396 979 445 1010 498 1034 C 551 1057 608 1069 668 1069 C 730 1069 782 1055 824 1027 C 866 999 902 953 930 891 L 977 1053 L 1085 1053 Z M 375 94 C 411 94 447 102 484 120 C 520 137 556 161 590 191 C 624 221 657 256 689 296 C 720 336 748 378 773 423 C 798 468 820 514 838 562 C 856 610 870 656 879 702 L 893 784 C 864 844 831 889 793 918 C 755 946 712 961 662 961 C 617 961 575 950 535 930 C 495 910 458 883 424 849 C 390 815 359 776 331 732 C 303 688 280 642 261 594 C 241 546 226 499 216 451 C 206 403 201 359 201 319 C 201 244 216 188 248 150 C 280 112 322 94 375 94 Z M 538 1436 C 538 1465 544 1493 556 1519 C 568 1545 584 1568 604 1588 C 624 1608 648 1623 676 1635 C 704 1647 734 1653 766 1653 C 797 1653 826 1647 854 1635 C 881 1623 905 1608 925 1588 C 945 1568 961 1545 973 1519 C 985 1493 991 1465 991 1436 C 991 1406 985 1377 973 1351 C 961 1324 945 1301 925 1282 C 905 1262 881 1247 854 1236 C 826 1224 797 1219 766 1219 C 734 1219 704 1224 676 1236 C 648 1247 624 1262 604 1282 C 584 1301 568 1324 556 1351 C 544 1377 538 1406 538 1436 Z M 616 1436 C 616 1415 619 1396 627 1378 C 635 1360 645 1344 659 1331 C 673 1317 689 1307 707 1299 C 725 1291 744 1288 766 1288 C 786 1288 805 1291 823 1299 C 841 1307 856 1317 870 1331 C 883 1344 893 1360 901 1378 C 909 1396 913 1415 913 1436 C 913 1456 909 1475 901 1493 C 893 1511 883 1526 870 1540 C 856 1554 841 1565 823 1573 C 805 1581 786 1585 766 1585 C 744 1585 725 1581 707 1573 C 689 1565 673 1554 659 1540 C 645 1526 635 1511 627 1493 C 619 1475 616 1456 616 1436 Z" unicode="" />
<glyph horiz-adv-x="1823" d="M 668 1069 C 696 1069 725 1066 753 1060 C 781 1054 809 1043 835 1027 C 861 1011 886 990 910 963 C 934 936 955 902 975 860 C 997 890 1023 917 1051 943 C 1079 969 1110 991 1144 1010 C 1177 1028 1213 1043 1252 1053 C 1290 1063 1332 1069 1376 1069 C 1432 1069 1483 1060 1530 1043 C 1576 1025 1616 1000 1650 967 C 1684 934 1710 894 1729 846 C 1747 798 1757 743 1757 682 C 1757 651 1754 622 1750 594 C 1746 566 1740 538 1733 508 L 971 508 C 969 494 967 481 967 469 C 967 457 967 444 967 432 C 967 380 973 334 987 292 C 1000 250 1020 215 1048 185 C 1075 155 1109 132 1151 116 C 1193 100 1242 92 1300 92 C 1328 92 1354 94 1378 98 C 1402 102 1426 107 1450 115 C 1473 123 1496 132 1519 143 C 1542 153 1566 166 1591 180 L 1622 74 C 1572 42 1522 19 1470 3 C 1418 -12 1360 -20 1296 -20 C 1232 -20 1174 -12 1120 3 C 1066 19 1018 42 978 74 C 938 105 905 144 880 191 C 855 238 840 293 834 356 C 802 301 767 251 731 205 C 694 159 655 119 614 86 C 573 53 530 27 485 9 C 440 -8 393 -18 344 -18 C 297 -18 256 -10 222 5 C 188 20 159 41 137 69 C 114 97 97 130 86 170 C 75 209 70 253 70 301 C 70 353 76 408 89 466 C 101 524 120 582 144 639 C 168 696 198 750 233 802 C 268 854 308 899 352 939 C 396 979 445 1010 498 1034 C 551 1057 608 1069 668 1069 Z M 375 94 C 411 94 446 102 482 119 C 518 136 552 159 585 189 C 618 218 649 252 679 291 C 709 330 736 372 762 416 C 787 460 809 505 829 551 C 848 597 864 643 877 688 L 899 770 C 871 836 837 885 797 915 C 757 945 712 961 662 961 C 617 961 575 950 535 930 C 495 910 458 883 424 849 C 390 815 359 776 331 732 C 303 688 280 642 261 594 C 241 546 226 499 216 451 C 206 403 201 359 201 319 C 201 244 216 188 248 150 C 280 112 322 94 375 94 Z M 1368 961 C 1316 961 1270 951 1229 932 C 1187 912 1151 886 1120 854 C 1088 821 1062 783 1040 741 C 1018 698 1001 654 989 608 L 1620 608 C 1623 620 1625 633 1626 645 C 1627 657 1628 673 1628 692 C 1628 731 1622 767 1610 800 C 1598 833 1581 861 1559 885 C 1537 909 1509 927 1477 941 C 1445 954 1408 961 1368 961 Z" unicode="" />
<glyph horiz-adv-x="979" d="M 799 43 C 761 22 721 7 681 -2 C 640 -11 595 -16 545 -16 C 541 -16 538 -16 534 -16 C 530 -16 523 -15 512 -14 L 508 -29 C 506 -36 506 -42 509 -46 C 511 -50 514 -55 518 -59 L 557 -106 C 570 -121 582 -140 594 -164 C 606 -187 612 -214 612 -246 C 612 -276 606 -304 594 -330 C 582 -355 566 -377 544 -395 C 522 -413 495 -426 464 -436 C 433 -446 398 -451 360 -451 C 328 -451 298 -447 272 -440 C 245 -433 222 -423 203 -410 L 238 -317 C 256 -328 275 -337 297 -344 C 319 -350 341 -354 365 -354 C 381 -354 398 -352 414 -348 C 430 -344 445 -339 458 -331 C 470 -323 480 -312 488 -300 C 496 -288 500 -273 500 -256 C 500 -237 495 -222 486 -211 C 477 -199 468 -188 459 -178 L 412 -123 C 406 -117 402 -110 400 -102 C 397 -94 397 -85 399 -76 L 414 -2 C 314 18 237 64 183 136 C 129 207 102 303 102 424 C 102 470 106 518 115 568 C 124 618 138 666 157 714 C 176 762 200 807 230 850 C 259 893 294 931 334 963 C 374 995 419 1021 471 1040 C 523 1059 581 1069 645 1069 C 703 1069 761 1060 818 1043 C 875 1026 929 999 979 961 L 920 852 C 884 885 841 911 792 930 C 742 948 691 958 637 958 C 589 958 545 950 507 934 C 468 918 434 897 404 871 C 374 845 349 814 328 780 C 306 745 289 708 275 670 C 261 631 251 591 245 551 C 239 511 236 472 236 436 C 236 384 242 338 254 296 C 266 254 284 218 310 188 C 336 158 369 134 409 118 C 449 102 497 94 553 94 C 600 94 644 100 686 113 C 727 126 765 143 799 164 L 799 43 Z" unicode="" />
<glyph horiz-adv-x="1094" d="M 242 508 C 240 494 238 481 238 469 C 238 457 238 444 238 432 C 238 380 244 334 258 292 C 271 250 291 215 319 185 C 346 155 380 132 422 116 C 464 100 513 92 571 92 C 599 92 625 94 649 98 C 673 102 697 107 721 115 C 744 123 767 132 790 143 C 813 153 837 166 862 180 L 893 74 C 843 42 793 19 741 3 C 689 -12 631 -20 567 -20 C 499 -20 436 -10 379 7 C 322 25 273 53 232 90 C 191 126 159 172 136 227 C 113 281 102 345 102 418 C 102 466 107 515 117 566 C 127 616 143 666 163 714 C 183 762 209 808 239 851 C 269 894 305 932 345 964 C 385 996 431 1021 481 1040 C 531 1059 587 1069 647 1069 C 703 1069 754 1060 801 1043 C 847 1025 887 1000 921 967 C 955 934 981 894 1000 846 C 1018 798 1028 743 1028 682 C 1028 651 1025 622 1021 594 C 1017 566 1011 538 1004 508 L 242 508 Z M 639 961 C 587 961 541 951 500 932 C 458 912 422 886 391 854 C 359 821 333 783 311 741 C 289 698 272 654 260 608 L 891 608 C 894 620 896 633 897 645 C 898 657 899 673 899 692 C 899 731 893 767 881 800 C 869 833 852 861 830 885 C 808 909 780 927 748 941 C 716 954 679 961 639 961 Z M 551 1530 L 795 1274 L 787 1231 L 729 1231 L 416 1481 L 416 1530 L 551 1530 Z" unicode="" />
<glyph horiz-adv-x="1094" d="M 242 508 C 240 494 238 481 238 469 C 238 457 238 444 238 432 C 238 380 244 334 258 292 C 271 250 291 215 319 185 C 346 155 380 132 422 116 C 464 100 513 92 571 92 C 599 92 625 94 649 98 C 673 102 697 107 721 115 C 744 123 767 132 790 143 C 813 153 837 166 862 180 L 893 74 C 843 42 793 19 741 3 C 689 -12 631 -20 567 -20 C 499 -20 436 -10 379 7 C 322 25 273 53 232 90 C 191 126 159 172 136 227 C 113 281 102 345 102 418 C 102 466 107 515 117 566 C 127 616 143 666 163 714 C 183 762 209 808 239 851 C 269 894 305 932 345 964 C 385 996 431 1021 481 1040 C 531 1059 587 1069 647 1069 C 703 1069 754 1060 801 1043 C 847 1025 887 1000 921 967 C 955 934 981 894 1000 846 C 1018 798 1028 743 1028 682 C 1028 651 1025 622 1021 594 C 1017 566 1011 538 1004 508 L 242 508 Z M 639 961 C 587 961 541 951 500 932 C 458 912 422 886 391 854 C 359 821 333 783 311 741 C 289 698 272 654 260 608 L 891 608 C 894 620 896 633 897 645 C 898 657 899 673 899 692 C 899 731 893 767 881 800 C 869 833 852 861 830 885 C 808 909 780 927 748 941 C 716 954 679 961 639 961 Z M 1008 1530 L 1008 1481 L 693 1231 L 625 1231 L 633 1274 L 873 1530 L 1008 1530 Z" unicode="" />
<glyph horiz-adv-x="1094" d="M 242 508 C 240 494 238 481 238 469 C 238 457 238 444 238 432 C 238 380 244 334 258 292 C 271 250 291 215 319 185 C 346 155 380 132 422 116 C 464 100 513 92 571 92 C 599 92 625 94 649 98 C 673 102 697 107 721 115 C 744 123 767 132 790 143 C 813 153 837 166 862 180 L 893 74 C 843 42 793 19 741 3 C 689 -12 631 -20 567 -20 C 499 -20 436 -10 379 7 C 322 25 273 53 232 90 C 191 126 159 172 136 227 C 113 281 102 345 102 418 C 102 466 107 515 117 566 C 127 616 143 666 163 714 C 183 762 209 808 239 851 C 269 894 305 932 345 964 C 385 996 431 1021 481 1040 C 531 1059 587 1069 647 1069 C 703 1069 754 1060 801 1043 C 847 1025 887 1000 921 967 C 955 934 981 894 1000 846 C 1018 798 1028 743 1028 682 C 1028 651 1025 622 1021 594 C 1017 566 1011 538 1004 508 L 242 508 Z M 639 961 C 587 961 541 951 500 932 C 458 912 422 886 391 854 C 359 821 333 783 311 741 C 289 698 272 654 260 608 L 891 608 C 894 620 896 633 897 645 C 898 657 899 673 899 692 C 899 731 893 767 881 800 C 869 833 852 861 830 885 C 808 909 780 927 748 941 C 716 954 679 961 639 961 Z M 826 1530 L 979 1268 L 971 1231 L 920 1231 L 764 1427 L 756 1427 L 521 1231 L 453 1231 L 461 1268 L 719 1530 L 826 1530 Z" unicode="" />
<glyph horiz-adv-x="1094" d="M 242 508 C 240 494 238 481 238 469 C 238 457 238 444 238 432 C 238 380 244 334 258 292 C 271 250 291 215 319 185 C 346 155 380 132 422 116 C 464 100 513 92 571 92 C 599 92 625 94 649 98 C 673 102 697 107 721 115 C 744 123 767 132 790 143 C 813 153 837 166 862 180 L 893 74 C 843 42 793 19 741 3 C 689 -12 631 -20 567 -20 C 499 -20 436 -10 379 7 C 322 25 273 53 232 90 C 191 126 159 172 136 227 C 113 281 102 345 102 418 C 102 466 107 515 117 566 C 127 616 143 666 163 714 C 183 762 209 808 239 851 C 269 894 305 932 345 964 C 385 996 431 1021 481 1040 C 531 1059 587 1069 647 1069 C 703 1069 754 1060 801 1043 C 847 1025 887 1000 921 967 C 955 934 981 894 1000 846 C 1018 798 1028 743 1028 682 C 1028 651 1025 622 1021 594 C 1017 566 1011 538 1004 508 L 242 508 Z M 639 961 C 587 961 541 951 500 932 C 458 912 422 886 391 854 C 359 821 333 783 311 741 C 289 698 272 654 260 608 L 891 608 C 894 620 896 633 897 645 C 898 657 899 673 899 692 C 899 731 893 767 881 800 C 869 833 852 861 830 885 C 808 909 780 927 748 941 C 716 954 679 961 639 961 Z M 605 1446 L 570 1272 L 430 1272 L 465 1446 L 605 1446 Z M 1033 1446 L 998 1272 L 861 1272 L 895 1446 L 1033 1446 Z" unicode="" />
<glyph horiz-adv-x="498" d="M 428 1053 L 225 0 L 96 0 L 299 1053 L 428 1053 Z M 244 1530 L 488 1274 L 480 1231 L 422 1231 L 109 1481 L 109 1530 L 244 1530 Z" unicode="" />
<glyph horiz-adv-x="498" d="M 428 1053 L 225 0 L 96 0 L 299 1053 L 428 1053 Z M 681 1530 L 681 1481 L 366 1231 L 298 1231 L 306 1274 L 546 1530 L 681 1530 Z" unicode="" />
<glyph horiz-adv-x="498" d="M 428 1053 L 225 0 L 96 0 L 299 1053 L 428 1053 Z M 519 1530 L 672 1268 L 664 1231 L 613 1231 L 457 1427 L 449 1427 L 214 1231 L 146 1231 L 154 1268 L 412 1530 L 519 1530 Z" unicode="" />
<glyph horiz-adv-x="498" d="M 428 1053 L 225 0 L 96 0 L 299 1053 L 428 1053 Z M 298 1446 L 263 1272 L 123 1272 L 158 1446 L 298 1446 Z M 726 1446 L 691 1272 L 554 1272 L 588 1446 L 726 1446 Z" unicode="" />
<glyph horiz-adv-x="1128" d="M 602 1368 C 582 1389 562 1410 542 1430 C 522 1450 501 1469 481 1489 L 602 1536 C 623 1515 645 1494 667 1472 C 689 1450 709 1428 729 1405 L 977 1477 L 961 1386 L 786 1337 C 825 1287 861 1234 894 1180 C 926 1125 954 1069 978 1011 C 1002 953 1020 893 1033 833 C 1046 772 1053 711 1053 649 C 1053 599 1048 549 1039 497 C 1029 445 1015 394 996 345 C 976 296 952 250 923 206 C 893 162 859 123 819 91 C 779 58 733 32 682 13 C 631 -6 574 -16 512 -16 C 444 -16 385 -4 335 18 C 284 40 242 72 208 112 C 174 152 148 199 131 255 C 114 310 106 370 106 436 C 106 484 111 533 121 583 C 131 633 145 681 165 728 C 185 775 209 819 239 861 C 269 902 303 938 342 969 C 380 999 424 1024 472 1042 C 520 1060 573 1069 631 1069 C 682 1069 726 1060 764 1043 C 802 1025 835 997 864 958 C 842 1022 814 1082 779 1138 C 744 1194 705 1248 662 1300 L 387 1223 L 403 1313 L 602 1368 Z M 920 614 C 920 662 914 707 903 749 C 891 791 874 827 850 858 C 826 889 797 913 761 931 C 725 949 682 958 633 958 C 585 958 543 950 505 935 C 467 919 434 899 405 873 C 376 847 351 816 330 782 C 309 747 292 710 279 672 C 265 634 255 594 249 554 C 243 514 240 475 240 438 C 240 392 245 349 255 308 C 265 266 281 230 303 198 C 325 166 354 141 390 122 C 426 103 469 94 520 94 C 567 94 610 101 648 117 C 686 133 719 154 749 180 C 779 206 804 237 826 272 C 847 307 865 344 879 383 C 893 421 903 460 910 500 C 916 540 920 578 920 614 Z" unicode="" />
<glyph horiz-adv-x="1143" d="M 211 586 C 219 626 226 664 232 700 C 238 736 244 772 250 808 C 255 844 260 881 265 921 C 270 960 275 1004 279 1053 L 399 1053 L 362 786 C 388 828 416 867 446 902 C 476 937 508 967 543 992 C 577 1016 614 1035 654 1049 C 693 1062 734 1069 778 1069 C 822 1069 861 1062 894 1048 C 926 1034 953 1014 975 990 C 997 965 1013 935 1024 901 C 1034 866 1040 828 1040 788 C 1040 747 1036 706 1029 664 C 1022 622 1015 581 1008 541 L 903 0 L 774 0 L 883 563 C 885 575 888 590 891 607 C 894 624 897 642 900 661 C 903 679 906 698 908 718 C 910 737 911 756 911 774 C 911 800 907 825 901 847 C 894 869 884 889 870 905 C 856 921 838 933 816 942 C 794 951 769 956 739 956 C 686 956 637 942 591 915 C 545 887 503 849 465 800 C 427 750 395 691 367 622 C 339 553 317 477 301 395 L 223 0 L 96 0 L 211 586 Z M 477 1393 C 509 1425 537 1447 560 1457 C 583 1467 605 1473 627 1473 C 639 1473 650 1471 661 1469 C 672 1467 683 1463 694 1457 C 705 1451 717 1443 729 1433 C 741 1423 755 1411 770 1397 L 811 1360 C 823 1347 835 1337 847 1331 C 858 1324 869 1321 881 1321 C 893 1321 906 1324 918 1330 C 930 1336 945 1348 963 1366 L 1018 1419 L 1088 1370 L 1016 1298 C 1000 1282 985 1268 971 1258 C 957 1248 945 1240 933 1234 C 921 1228 909 1224 899 1222 C 888 1220 877 1219 867 1219 C 854 1219 842 1220 831 1222 C 820 1224 809 1228 798 1234 C 787 1240 775 1247 763 1257 C 751 1267 737 1279 723 1294 L 682 1333 C 670 1344 658 1353 647 1361 C 635 1368 624 1372 613 1372 C 600 1372 587 1368 575 1361 C 563 1354 548 1342 531 1325 L 475 1272 L 406 1323 L 477 1393 Z" unicode="" />
<glyph horiz-adv-x="1128" d="M 645 1069 C 713 1069 772 1057 823 1035 C 874 1013 916 982 950 942 C 984 902 1009 855 1026 801 C 1042 747 1051 688 1051 625 C 1051 577 1046 529 1037 479 C 1027 429 1013 380 994 333 C 974 285 950 240 921 198 C 891 156 857 119 817 87 C 777 55 731 30 681 12 C 630 -6 574 -16 512 -16 C 444 -16 384 -4 334 18 C 283 40 241 71 207 111 C 173 151 147 197 131 251 C 114 305 106 363 106 426 C 106 473 110 522 120 572 C 129 622 143 670 163 718 C 182 766 206 811 236 853 C 265 895 299 933 339 965 C 379 997 424 1022 475 1041 C 526 1059 583 1069 645 1069 Z M 915 616 C 915 662 909 705 899 747 C 889 788 872 824 850 856 C 828 887 799 912 763 930 C 727 948 683 958 631 958 C 584 958 542 950 504 934 C 466 918 433 897 404 871 C 375 844 350 813 330 778 C 309 743 292 706 279 668 C 265 629 255 590 249 550 C 243 510 240 472 240 436 C 240 390 245 346 255 305 C 265 263 282 227 305 196 C 327 164 357 139 393 121 C 429 103 472 94 524 94 C 570 94 612 101 650 117 C 687 133 720 154 749 180 C 778 206 803 237 824 272 C 844 307 861 344 875 383 C 889 421 899 461 905 501 C 911 541 915 579 915 616 Z M 565 1530 L 809 1274 L 801 1231 L 743 1231 L 430 1481 L 430 1530 L 565 1530 Z" unicode="" />
<glyph horiz-adv-x="1128" d="M 645 1069 C 713 1069 772 1057 823 1035 C 874 1013 916 982 950 942 C 984 902 1009 855 1026 801 C 1042 747 1051 688 1051 625 C 1051 577 1046 529 1037 479 C 1027 429 1013 380 994 333 C 974 285 950 240 921 198 C 891 156 857 119 817 87 C 777 55 731 30 681 12 C 630 -6 574 -16 512 -16 C 444 -16 384 -4 334 18 C 283 40 241 71 207 111 C 173 151 147 197 131 251 C 114 305 106 363 106 426 C 106 473 110 522 120 572 C 129 622 143 670 163 718 C 182 766 206 811 236 853 C 265 895 299 933 339 965 C 379 997 424 1022 475 1041 C 526 1059 583 1069 645 1069 Z M 915 616 C 915 662 909 705 899 747 C 889 788 872 824 850 856 C 828 887 799 912 763 930 C 727 948 683 958 631 958 C 584 958 542 950 504 934 C 466 918 433 897 404 871 C 375 844 350 813 330 778 C 309 743 292 706 279 668 C 265 629 255 590 249 550 C 243 510 240 472 240 436 C 240 390 245 346 255 305 C 265 263 282 227 305 196 C 327 164 357 139 393 121 C 429 103 472 94 524 94 C 570 94 612 101 650 117 C 687 133 720 154 749 180 C 778 206 803 237 824 272 C 844 307 861 344 875 383 C 889 421 899 461 905 501 C 911 541 915 579 915 616 Z M 1022 1530 L 1022 1481 L 707 1231 L 639 1231 L 647 1274 L 887 1530 L 1022 1530 Z" unicode="" />
<glyph horiz-adv-x="1128" d="M 645 1069 C 713 1069 772 1057 823 1035 C 874 1013 916 982 950 942 C 984 902 1009 855 1026 801 C 1042 747 1051 688 1051 625 C 1051 577 1046 529 1037 479 C 1027 429 1013 380 994 333 C 974 285 950 240 921 198 C 891 156 857 119 817 87 C 777 55 731 30 681 12 C 630 -6 574 -16 512 -16 C 444 -16 384 -4 334 18 C 283 40 241 71 207 111 C 173 151 147 197 131 251 C 114 305 106 363 106 426 C 106 473 110 522 120 572 C 129 622 143 670 163 718 C 182 766 206 811 236 853 C 265 895 299 933 339 965 C 379 997 424 1022 475 1041 C 526 1059 583 1069 645 1069 Z M 915 616 C 915 662 909 705 899 747 C 889 788 872 824 850 856 C 828 887 799 912 763 930 C 727 948 683 958 631 958 C 584 958 542 950 504 934 C 466 918 433 897 404 871 C 375 844 350 813 330 778 C 309 743 292 706 279 668 C 265 629 255 590 249 550 C 243 510 240 472 240 436 C 240 390 245 346 255 305 C 265 263 282 227 305 196 C 327 164 357 139 393 121 C 429 103 472 94 524 94 C 570 94 612 101 650 117 C 687 133 720 154 749 180 C 778 206 803 237 824 272 C 844 307 861 344 875 383 C 889 421 899 461 905 501 C 911 541 915 579 915 616 Z M 840 1530 L 993 1268 L 985 1231 L 934 1231 L 778 1427 L 770 1427 L 535 1231 L 467 1231 L 475 1268 L 733 1530 L 840 1530 Z" unicode="" />
<glyph horiz-adv-x="1128" d="M 645 1069 C 713 1069 772 1057 823 1035 C 874 1013 916 982 950 942 C 984 902 1009 855 1026 801 C 1042 747 1051 688 1051 625 C 1051 577 1046 529 1037 479 C 1027 429 1013 380 994 333 C 974 285 950 240 921 198 C 891 156 857 119 817 87 C 777 55 731 30 681 12 C 630 -6 574 -16 512 -16 C 444 -16 384 -4 334 18 C 283 40 241 71 207 111 C 173 151 147 197 131 251 C 114 305 106 363 106 426 C 106 473 110 522 120 572 C 129 622 143 670 163 718 C 182 766 206 811 236 853 C 265 895 299 933 339 965 C 379 997 424 1022 475 1041 C 526 1059 583 1069 645 1069 Z M 915 616 C 915 662 909 705 899 747 C 889 788 872 824 850 856 C 828 887 799 912 763 930 C 727 948 683 958 631 958 C 584 958 542 950 504 934 C 466 918 433 897 404 871 C 375 844 350 813 330 778 C 309 743 292 706 279 668 C 265 629 255 590 249 550 C 243 510 240 472 240 436 C 240 390 245 346 255 305 C 265 263 282 227 305 196 C 327 164 357 139 393 121 C 429 103 472 94 524 94 C 570 94 612 101 650 117 C 687 133 720 154 749 180 C 778 206 803 237 824 272 C 844 307 861 344 875 383 C 889 421 899 461 905 501 C 911 541 915 579 915 616 Z M 487 1393 C 519 1425 547 1447 570 1457 C 593 1467 615 1473 637 1473 C 649 1473 660 1471 671 1469 C 682 1467 693 1463 704 1457 C 715 1451 727 1443 739 1433 C 751 1423 765 1411 780 1397 L 821 1360 C 833 1347 845 1337 857 1331 C 868 1324 879 1321 891 1321 C 903 1321 916 1324 928 1330 C 940 1336 955 1348 973 1366 L 1028 1419 L 1098 1370 L 1026 1298 C 1010 1282 995 1268 981 1258 C 967 1248 955 1240 943 1234 C 931 1228 919 1224 909 1222 C 898 1220 887 1219 877 1219 C 864 1219 852 1220 841 1222 C 830 1224 819 1228 808 1234 C 797 1240 785 1247 773 1257 C 761 1267 747 1279 733 1294 L 692 1333 C 680 1344 668 1353 657 1361 C 645 1368 634 1372 623 1372 C 610 1372 597 1368 585 1361 C 573 1354 558 1342 541 1325 L 485 1272 L 416 1323 L 487 1393 Z" unicode="" />
<glyph horiz-adv-x="1128" d="M 645 1069 C 713 1069 772 1057 823 1035 C 874 1013 916 982 950 942 C 984 902 1009 855 1026 801 C 1042 747 1051 688 1051 625 C 1051 577 1046 529 1037 479 C 1027 429 1013 380 994 333 C 974 285 950 240 921 198 C 891 156 857 119 817 87 C 777 55 731 30 681 12 C 630 -6 574 -16 512 -16 C 444 -16 384 -4 334 18 C 283 40 241 71 207 111 C 173 151 147 197 131 251 C 114 305 106 363 106 426 C 106 473 110 522 120 572 C 129 622 143 670 163 718 C 182 766 206 811 236 853 C 265 895 299 933 339 965 C 379 997 424 1022 475 1041 C 526 1059 583 1069 645 1069 Z M 915 616 C 915 662 909 705 899 747 C 889 788 872 824 850 856 C 828 887 799 912 763 930 C 727 948 683 958 631 958 C 584 958 542 950 504 934 C 466 918 433 897 404 871 C 375 844 350 813 330 778 C 309 743 292 706 279 668 C 265 629 255 590 249 550 C 243 510 240 472 240 436 C 240 390 245 346 255 305 C 265 263 282 227 305 196 C 327 164 357 139 393 121 C 429 103 472 94 524 94 C 570 94 612 101 650 117 C 687 133 720 154 749 180 C 778 206 803 237 824 272 C 844 307 861 344 875 383 C 889 421 899 461 905 501 C 911 541 915 579 915 616 Z M 619 1446 L 584 1272 L 444 1272 L 479 1446 L 619 1446 Z M 1047 1446 L 1012 1272 L 875 1272 L 909 1446 L 1047 1446 Z" unicode="" />
<glyph horiz-adv-x="1167" d="M 1061 631 L 1061 510 L 106 510 L 106 631 L 1061 631 Z M 668 213 L 668 0 L 500 0 L 500 213 L 668 213 Z M 668 1141 L 668 926 L 500 926 L 500 1141 L 668 1141 Z" unicode="" />
<glyph horiz-adv-x="1128" d="M 1083 1171 L 936 956 C 974 916 1002 867 1022 811 C 1041 755 1051 693 1051 625 C 1051 577 1046 529 1037 479 C 1027 429 1013 380 994 333 C 974 285 950 240 921 198 C 891 156 857 119 817 87 C 777 55 731 30 681 12 C 630 -6 574 -16 512 -16 C 425 -16 352 1 293 37 L 172 -137 L 66 -137 L 225 90 C 185 130 155 178 135 236 C 115 294 106 357 106 426 C 106 473 110 522 120 572 C 129 622 143 670 163 718 C 182 766 206 811 236 853 C 265 895 299 933 339 965 C 379 997 424 1022 475 1041 C 526 1059 583 1069 645 1069 C 689 1069 729 1064 766 1054 C 802 1044 836 1030 866 1012 L 979 1171 L 1083 1171 Z M 631 958 C 584 958 542 950 504 934 C 466 918 433 897 404 871 C 375 844 350 813 330 778 C 309 743 292 706 279 668 C 265 629 255 590 249 550 C 243 510 240 472 240 436 C 240 390 244 347 254 307 C 264 267 279 231 301 201 L 795 909 C 774 924 750 936 723 945 C 695 953 665 958 631 958 Z M 915 616 C 915 659 910 701 901 741 C 891 781 876 816 856 848 L 362 137 C 384 123 408 112 435 105 C 461 97 491 94 524 94 C 570 94 612 101 650 117 C 687 133 720 154 749 180 C 778 206 803 237 824 272 C 844 307 861 344 875 383 C 889 421 899 461 905 501 C 911 541 915 579 915 616 Z" unicode="" />
<glyph horiz-adv-x="1143" d="M 817 293 C 791 251 764 212 734 175 C 704 138 671 105 635 77 C 599 48 560 25 518 9 C 476 -7 432 -16 385 -16 C 343 -16 306 -9 274 4 C 242 18 216 37 195 62 C 174 86 158 116 148 151 C 138 185 133 224 133 266 C 133 305 136 346 144 388 C 151 430 158 470 166 510 L 270 1053 L 399 1053 L 291 487 C 288 475 285 460 282 443 C 278 426 275 408 272 390 C 269 372 267 353 265 334 C 263 315 262 297 262 281 C 262 253 265 227 271 205 C 277 182 287 163 301 147 C 314 131 331 118 352 109 C 373 100 398 96 428 96 C 484 96 536 112 584 144 C 632 176 675 219 714 273 C 752 327 786 390 814 462 C 842 533 863 608 879 686 L 950 1053 L 1077 1053 L 963 467 C 955 429 948 392 942 355 C 935 318 929 280 923 242 C 917 204 912 165 907 125 C 902 85 898 43 895 0 L 774 0 C 781 49 788 97 794 144 C 800 191 807 241 817 293 Z M 551 1530 L 795 1274 L 787 1231 L 729 1231 L 416 1481 L 416 1530 L 551 1530 Z" unicode="" />
<glyph horiz-adv-x="1143" d="M 817 293 C 791 251 764 212 734 175 C 704 138 671 105 635 77 C 599 48 560 25 518 9 C 476 -7 432 -16 385 -16 C 343 -16 306 -9 274 4 C 242 18 216 37 195 62 C 174 86 158 116 148 151 C 138 185 133 224 133 266 C 133 305 136 346 144 388 C 151 430 158 470 166 510 L 270 1053 L 399 1053 L 291 487 C 288 475 285 460 282 443 C 278 426 275 408 272 390 C 269 372 267 353 265 334 C 263 315 262 297 262 281 C 262 253 265 227 271 205 C 277 182 287 163 301 147 C 314 131 331 118 352 109 C 373 100 398 96 428 96 C 484 96 536 112 584 144 C 632 176 675 219 714 273 C 752 327 786 390 814 462 C 842 533 863 608 879 686 L 950 1053 L 1077 1053 L 963 467 C 955 429 948 392 942 355 C 935 318 929 280 923 242 C 917 204 912 165 907 125 C 902 85 898 43 895 0 L 774 0 C 781 49 788 97 794 144 C 800 191 807 241 817 293 Z M 1008 1530 L 1008 1481 L 693 1231 L 625 1231 L 633 1274 L 873 1530 L 1008 1530 Z" unicode="" />
<glyph horiz-adv-x="1143" d="M 817 293 C 791 251 764 212 734 175 C 704 138 671 105 635 77 C 599 48 560 25 518 9 C 476 -7 432 -16 385 -16 C 343 -16 306 -9 274 4 C 242 18 216 37 195 62 C 174 86 158 116 148 151 C 138 185 133 224 133 266 C 133 305 136 346 144 388 C 151 430 158 470 166 510 L 270 1053 L 399 1053 L 291 487 C 288 475 285 460 282 443 C 278 426 275 408 272 390 C 269 372 267 353 265 334 C 263 315 262 297 262 281 C 262 253 265 227 271 205 C 277 182 287 163 301 147 C 314 131 331 118 352 109 C 373 100 398 96 428 96 C 484 96 536 112 584 144 C 632 176 675 219 714 273 C 752 327 786 390 814 462 C 842 533 863 608 879 686 L 950 1053 L 1077 1053 L 963 467 C 955 429 948 392 942 355 C 935 318 929 280 923 242 C 917 204 912 165 907 125 C 902 85 898 43 895 0 L 774 0 C 781 49 788 97 794 144 C 800 191 807 241 817 293 Z M 826 1530 L 979 1268 L 971 1231 L 920 1231 L 764 1427 L 756 1427 L 521 1231 L 453 1231 L 461 1268 L 719 1530 L 826 1530 Z" unicode="" />
<glyph horiz-adv-x="1143" d="M 817 293 C 791 251 764 212 734 175 C 704 138 671 105 635 77 C 599 48 560 25 518 9 C 476 -7 432 -16 385 -16 C 343 -16 306 -9 274 4 C 242 18 216 37 195 62 C 174 86 158 116 148 151 C 138 185 133 224 133 266 C 133 305 136 346 144 388 C 151 430 158 470 166 510 L 270 1053 L 399 1053 L 291 487 C 288 475 285 460 282 443 C 278 426 275 408 272 390 C 269 372 267 353 265 334 C 263 315 262 297 262 281 C 262 253 265 227 271 205 C 277 182 287 163 301 147 C 314 131 331 118 352 109 C 373 100 398 96 428 96 C 484 96 536 112 584 144 C 632 176 675 219 714 273 C 752 327 786 390 814 462 C 842 533 863 608 879 686 L 950 1053 L 1077 1053 L 963 467 C 955 429 948 392 942 355 C 935 318 929 280 923 242 C 917 204 912 165 907 125 C 902 85 898 43 895 0 L 774 0 C 781 49 788 97 794 144 C 800 191 807 241 817 293 Z M 605 1446 L 570 1272 L 430 1272 L 465 1446 L 605 1446 Z M 1033 1446 L 998 1272 L 861 1272 L 895 1446 L 1033 1446 Z" unicode="" />
<glyph horiz-adv-x="963" d="M 260 1053 L 397 240 L 406 129 L 416 129 L 451 205 L 909 1053 L 1065 1053 L 401 -106 C 366 -167 333 -219 303 -263 C 273 -307 242 -343 212 -372 C 182 -400 150 -421 117 -435 C 84 -448 48 -455 8 -455 C -2 -455 -11 -454 -20 -454 C -29 -453 -39 -452 -49 -451 L -27 -344 L -14 -344 C 20 -344 51 -338 78 -326 C 105 -314 129 -298 151 -278 C 173 -258 193 -234 211 -206 C 229 -178 248 -149 266 -117 L 315 -29 L 125 1053 L 260 1053 Z M 905 1530 L 905 1481 L 590 1231 L 522 1231 L 530 1274 L 770 1530 L 905 1530 Z" unicode="" />
<glyph horiz-adv-x="1151" d="M -2 -451 L 379 1507 L 508 1507 L 373 813 C 397 851 424 886 452 918 C 480 949 511 976 544 998 C 577 1020 612 1038 650 1050 C 687 1062 727 1069 770 1069 C 826 1069 873 1058 913 1038 C 952 1018 984 990 1010 955 C 1035 920 1053 879 1065 831 C 1077 783 1083 732 1083 678 C 1083 630 1078 579 1070 526 C 1061 473 1047 421 1029 370 C 1011 318 987 269 959 223 C 931 176 897 135 858 100 C 818 64 773 36 722 15 C 671 -5 614 -16 551 -16 C 480 -16 419 -1 369 29 C 319 59 278 103 246 162 L 127 -451 L -2 -451 Z M 727 956 C 676 956 627 942 581 914 C 535 886 493 848 455 800 C 417 752 385 694 357 628 C 329 562 309 490 295 412 L 270 279 C 284 253 299 228 317 206 C 335 183 355 163 377 146 C 399 129 424 116 452 106 C 480 96 511 92 545 92 C 593 92 636 101 675 120 C 713 138 748 163 778 194 C 808 225 833 261 855 301 C 877 341 895 382 909 426 C 923 469 933 512 940 556 C 946 599 950 639 950 676 C 950 715 945 752 937 786 C 929 820 916 850 898 875 C 880 900 857 920 829 934 C 801 948 767 956 727 956 Z" unicode="" />
<glyph horiz-adv-x="963" d="M 260 1053 L 397 240 L 406 129 L 416 129 L 451 205 L 909 1053 L 1065 1053 L 401 -106 C 366 -167 333 -219 303 -263 C 273 -307 242 -343 212 -372 C 182 -400 150 -421 117 -435 C 84 -448 48 -455 8 -455 C -2 -455 -11 -454 -20 -454 C -29 -453 -39 -452 -49 -451 L -27 -344 L -14 -344 C 20 -344 51 -338 78 -326 C 105 -314 129 -298 151 -278 C 173 -258 193 -234 211 -206 C 229 -178 248 -149 266 -117 L 315 -29 L 125 1053 L 260 1053 Z M 502 1446 L 467 1272 L 327 1272 L 362 1446 L 502 1446 Z M 930 1446 L 895 1272 L 758 1272 L 792 1446 L 930 1446 Z" unicode="" />
<glyph horiz-adv-x="498" d="M 428 1053 L 225 0 L 96 0 L 299 1053 L 428 1053 Z" unicode="" />
<glyph horiz-adv-x="1106" d="M 80 586 L 299 727 L 438 1446 L 573 1446 L 455 829 L 852 1090 L 825 954 L 428 694 L 315 115 L 1020 115 L 997 0 L 158 0 L 272 592 L 55 451 L 80 586 Z" unicode="" />
<glyph horiz-adv-x="559" d="M 106 653 L 285 770 L 428 1507 L 557 1507 L 432 866 L 610 983 L 582 842 L 406 725 L 264 0 L 135 0 L 256 627 L 84 512 L 106 653 Z" unicode="" />
<glyph horiz-adv-x="2390" d="M 1491 811 L 2204 811 L 2183 696 L 1468 696 L 1356 115 L 2181 115 L 2159 0 L 1196 0 L 1243 248 C 1186 160 1114 94 1027 48 C 940 2 840 -20 727 -20 C 635 -20 554 -5 483 23 C 411 51 351 92 302 145 C 252 197 215 261 189 336 C 163 410 150 494 150 586 C 150 652 156 720 170 790 C 183 860 203 927 230 993 C 257 1058 291 1119 333 1177 C 375 1235 424 1285 480 1328 C 536 1371 599 1405 670 1430 C 741 1455 820 1468 907 1468 C 1037 1468 1144 1436 1230 1373 C 1315 1310 1375 1216 1409 1090 L 1477 1446 L 2419 1446 L 2396 1331 L 1591 1331 L 1491 811 Z M 1343 846 C 1343 920 1333 988 1315 1050 C 1297 1112 1269 1166 1232 1211 C 1195 1256 1149 1291 1093 1316 C 1037 1341 971 1354 895 1354 C 825 1354 761 1343 704 1322 C 647 1300 596 1271 552 1234 C 507 1197 468 1154 436 1105 C 404 1055 377 1003 356 947 C 334 891 318 834 308 775 C 298 715 293 658 293 602 C 293 528 302 460 320 398 C 338 336 365 282 402 237 C 439 192 485 157 541 132 C 597 106 663 94 739 94 C 809 94 872 104 930 126 C 987 147 1038 176 1083 213 C 1127 250 1166 293 1199 342 C 1231 391 1258 443 1280 499 C 1301 555 1317 612 1327 672 C 1337 731 1343 789 1343 846 Z" unicode="" />
<glyph horiz-adv-x="1894" d="M 1042 508 C 1040 494 1038 481 1038 469 C 1038 457 1038 444 1038 432 C 1038 380 1044 334 1058 292 C 1071 250 1091 215 1119 185 C 1146 155 1180 132 1222 116 C 1264 100 1313 92 1370 92 C 1398 92 1424 94 1449 98 C 1474 102 1498 107 1522 115 C 1545 123 1568 132 1591 143 C 1614 153 1638 166 1663 180 L 1694 74 C 1643 42 1592 19 1540 3 C 1488 -12 1431 -20 1368 -20 C 1316 -20 1267 -14 1221 -3 C 1175 7 1133 24 1097 46 C 1060 68 1028 95 1001 128 C 974 160 954 198 940 242 C 918 205 894 171 866 140 C 838 108 806 81 770 58 C 734 35 695 17 652 4 C 609 -9 562 -16 512 -16 C 444 -16 384 -4 334 18 C 283 40 241 71 207 111 C 173 151 147 197 131 251 C 114 305 106 363 106 426 C 106 473 110 522 120 572 C 129 622 143 670 163 718 C 182 766 206 811 236 853 C 265 895 299 933 339 965 C 379 997 424 1022 475 1041 C 526 1059 583 1069 645 1069 C 695 1069 740 1062 781 1050 C 821 1037 857 1019 888 996 C 919 972 945 944 967 912 C 988 879 1004 843 1016 803 C 1037 840 1062 875 1091 907 C 1119 939 1152 968 1188 992 C 1224 1016 1263 1034 1307 1048 C 1350 1062 1397 1069 1448 1069 C 1504 1069 1555 1060 1602 1043 C 1648 1025 1688 1000 1722 967 C 1756 934 1782 894 1801 846 C 1819 798 1829 743 1829 682 C 1829 651 1826 622 1822 594 C 1817 566 1811 538 1804 508 L 1042 508 Z M 915 616 C 915 662 909 705 899 747 C 889 788 872 824 850 856 C 828 887 799 912 763 930 C 727 948 683 958 631 958 C 584 958 542 950 504 934 C 466 918 433 897 404 871 C 375 844 350 813 330 778 C 309 743 292 706 279 668 C 265 629 255 590 249 550 C 243 510 240 472 240 436 C 240 390 245 346 255 305 C 265 263 282 227 305 196 C 327 164 357 139 393 121 C 429 103 472 94 524 94 C 570 94 612 101 650 117 C 687 133 720 154 749 180 C 778 206 803 237 824 272 C 844 307 861 344 875 383 C 889 421 899 461 905 501 C 911 541 915 579 915 616 Z M 1440 961 C 1388 961 1342 951 1301 932 C 1259 912 1223 886 1191 854 C 1159 821 1133 783 1111 741 C 1089 698 1073 654 1061 608 L 1692 608 C 1694 620 1695 633 1697 645 C 1699 657 1700 673 1700 692 C 1700 731 1694 767 1682 800 C 1670 833 1653 861 1631 885 C 1609 909 1581 927 1549 941 C 1517 954 1480 961 1440 961 Z" unicode="" />
<glyph horiz-adv-x="1202" d="M 1133 1233 C 1107 1250 1078 1266 1048 1281 C 1018 1296 986 1309 952 1320 C 918 1331 884 1340 848 1346 C 812 1352 777 1356 741 1356 C 701 1356 662 1351 624 1342 C 586 1333 551 1318 521 1298 C 491 1278 466 1251 448 1218 C 429 1185 420 1144 420 1096 C 420 1053 427 1017 442 987 C 457 957 477 932 503 910 C 528 888 558 868 592 851 C 626 834 663 817 702 799 C 754 775 802 750 847 725 C 892 700 931 672 965 640 C 998 608 1024 570 1044 528 C 1063 486 1073 435 1073 377 C 1073 313 1061 256 1038 206 C 1015 156 982 113 939 78 C 895 43 842 16 780 -2 C 718 -21 647 -31 569 -31 C 529 -31 488 -28 446 -23 C 404 -18 362 -10 320 1 C 278 13 236 28 195 46 C 154 64 116 87 80 113 L 129 221 C 159 196 193 175 230 158 C 266 140 304 126 343 115 C 381 103 420 95 459 90 C 498 84 535 82 571 82 C 617 82 661 87 705 97 C 748 107 786 122 820 144 C 854 166 881 194 901 228 C 921 262 932 304 932 354 C 932 401 922 442 904 477 C 886 511 862 541 833 567 C 804 592 772 614 736 633 C 700 651 665 668 631 684 C 587 702 545 722 503 743 C 461 763 423 788 390 818 C 357 848 330 884 310 926 C 289 968 279 1019 279 1079 C 279 1141 290 1197 312 1245 C 334 1293 366 1334 406 1367 C 446 1400 494 1425 550 1442 C 606 1459 667 1468 735 1468 C 885 1468 1034 1425 1182 1339 L 1133 1233 Z M 756 1604 L 600 1864 L 608 1903 L 660 1903 L 815 1704 L 825 1704 L 1059 1903 L 1126 1903 L 1118 1864 L 862 1604 L 756 1604 Z" unicode="" />
<glyph horiz-adv-x="895" d="M 66 190 C 110 157 160 129 216 106 C 272 83 331 72 393 72 C 425 72 456 75 487 82 C 517 89 544 100 568 116 C 592 131 611 151 625 175 C 639 199 647 228 647 262 C 647 294 640 321 626 344 C 612 366 594 386 571 404 C 547 422 520 438 490 453 C 459 467 427 483 393 500 C 362 514 333 530 307 547 C 280 564 257 583 237 605 C 217 627 202 652 191 680 C 179 708 174 742 174 780 C 174 826 182 868 199 904 C 216 940 240 970 270 994 C 300 1018 336 1037 378 1050 C 420 1062 465 1069 514 1069 C 542 1069 572 1066 603 1062 C 633 1058 664 1051 695 1042 C 725 1032 755 1020 784 1006 C 813 992 840 975 866 956 L 819 850 C 779 884 733 911 681 933 C 629 954 576 965 520 965 C 494 965 468 962 442 956 C 416 950 392 941 371 928 C 350 915 333 898 320 877 C 307 856 301 830 301 799 C 301 769 307 744 319 723 C 331 702 348 683 369 666 C 389 649 413 633 441 619 C 468 605 497 590 528 575 C 560 559 590 543 620 527 C 650 510 676 491 699 469 C 721 447 739 421 753 391 C 767 361 774 325 774 283 C 774 233 764 188 745 149 C 725 110 699 77 665 51 C 631 24 592 4 546 -10 C 500 -24 450 -31 397 -31 C 367 -31 335 -28 302 -24 C 268 -20 235 -13 202 -3 C 169 6 137 18 106 32 C 74 46 45 64 18 84 L 66 190 Z M 549 1231 L 393 1491 L 401 1530 L 453 1530 L 608 1331 L 618 1331 L 852 1530 L 919 1530 L 911 1491 L 655 1231 L 549 1231 Z" unicode="" />
<glyph horiz-adv-x="1210" d="M 373 1446 L 643 651 L 1227 1446 L 1386 1446 L 688 526 L 586 0 L 449 0 L 551 526 L 215 1446 L 373 1446 Z M 723 1819 L 688 1645 L 548 1645 L 583 1819 L 723 1819 Z M 1151 1819 L 1116 1645 L 979 1645 L 1013 1819 L 1151 1819 Z" unicode="" />
<glyph horiz-adv-x="1284" d="M 1337 1446 L 1317 1348 L 203 115 L 1090 115 L 1067 0 L 0 0 L 18 98 L 1130 1331 L 332 1331 L 354 1446 L 1337 1446 Z M 762 1604 L 606 1864 L 614 1903 L 666 1903 L 821 1704 L 831 1704 L 1065 1903 L 1132 1903 L 1124 1864 L 868 1604 L 762 1604 Z" unicode="" />
<glyph horiz-adv-x="907" d="M 938 1053 L 924 971 L 164 100 L 770 100 L 752 0 L -12 0 L 2 82 L 762 952 L 219 952 L 240 1053 L 938 1053 Z M 561 1231 L 405 1491 L 413 1530 L 465 1530 L 620 1331 L 630 1331 L 864 1530 L 931 1530 L 923 1491 L 667 1231 L 561 1231 Z" unicode="" />
<glyph horiz-adv-x="1237" d="M 739 688 L 508 -150 C 492 -208 473 -257 453 -299 C 432 -341 407 -375 379 -402 C 351 -428 318 -448 281 -460 C 243 -472 200 -479 152 -479 C 131 -479 112 -477 94 -474 C 76 -471 62 -469 53 -467 L 76 -360 C 86 -362 98 -364 114 -366 C 129 -368 145 -369 162 -369 C 193 -369 220 -364 243 -355 C 265 -346 285 -333 302 -315 C 318 -297 332 -275 344 -249 C 356 -222 367 -191 377 -156 L 612 688 L 354 688 L 375 791 L 641 791 L 735 1126 C 751 1184 770 1234 791 1276 C 812 1318 837 1352 865 1378 C 893 1404 926 1424 963 1436 C 1000 1448 1043 1454 1092 1454 C 1122 1454 1148 1452 1170 1449 C 1192 1445 1206 1441 1214 1436 L 1169 1333 C 1157 1336 1143 1338 1127 1340 C 1111 1342 1096 1343 1081 1343 C 1053 1343 1028 1339 1006 1332 C 984 1324 964 1312 946 1296 C 928 1279 913 1257 900 1231 C 886 1204 874 1171 864 1133 L 768 791 L 1087 791 L 1067 688 L 739 688 Z" unicode="" />
<glyph horiz-adv-x="543" d="M 211 954 L 514 1446 L 631 1446 L 377 954 L 211 954 Z" unicode="" />
<glyph horiz-adv-x="840" d="M 672 1530 L 825 1268 L 817 1231 L 766 1231 L 610 1427 L 602 1427 L 367 1231 L 299 1231 L 307 1268 L 565 1530 L 672 1530 Z" unicode="" />
<glyph horiz-adv-x="840" d="M 504 1231 L 348 1491 L 356 1530 L 408 1530 L 563 1331 L 573 1331 L 807 1530 L 874 1530 L 866 1491 L 610 1231 L 504 1231 Z" unicode="" />
<glyph horiz-adv-x="840" d="M 846 1393 L 825 1286 L 313 1286 L 334 1393 L 846 1393 Z" unicode="" />
<glyph horiz-adv-x="840" d="M 418 1530 C 416 1515 414 1502 413 1490 C 412 1478 412 1467 412 1456 C 412 1432 414 1412 420 1394 C 425 1376 434 1360 446 1348 C 458 1335 475 1325 495 1319 C 515 1312 539 1309 569 1309 C 606 1309 638 1314 666 1326 C 693 1337 716 1352 735 1372 C 753 1392 768 1415 779 1442 C 790 1469 798 1498 803 1530 L 891 1530 C 885 1481 872 1437 853 1398 C 834 1359 810 1326 781 1299 C 752 1271 718 1250 680 1236 C 641 1221 599 1214 553 1214 C 477 1214 420 1232 381 1270 C 341 1308 322 1361 322 1430 C 322 1459 326 1492 334 1530 L 418 1530 Z" unicode="" />
<glyph horiz-adv-x="840" d="M 672 1446 L 637 1260 L 489 1260 L 524 1446 L 672 1446 Z" unicode="" />
<glyph horiz-adv-x="840" d="M 358 1436 C 358 1465 364 1493 376 1519 C 388 1545 404 1568 424 1588 C 444 1608 468 1623 496 1635 C 524 1647 554 1653 586 1653 C 617 1653 646 1647 674 1635 C 701 1623 725 1608 745 1588 C 765 1568 781 1545 793 1519 C 805 1493 811 1465 811 1436 C 811 1406 805 1377 793 1351 C 781 1324 765 1301 745 1282 C 725 1262 701 1247 674 1236 C 646 1224 617 1219 586 1219 C 554 1219 524 1224 496 1236 C 468 1247 444 1262 424 1282 C 404 1301 388 1324 376 1351 C 364 1377 358 1406 358 1436 Z M 436 1436 C 436 1415 439 1396 447 1378 C 455 1360 465 1344 479 1331 C 493 1317 509 1307 527 1299 C 545 1291 564 1288 586 1288 C 606 1288 625 1291 643 1299 C 661 1307 676 1317 690 1331 C 703 1344 713 1360 721 1378 C 729 1396 733 1415 733 1436 C 733 1456 729 1475 721 1493 C 713 1511 703 1526 690 1540 C 676 1554 661 1565 643 1573 C 625 1581 606 1585 586 1585 C 564 1585 545 1581 527 1573 C 509 1565 493 1554 479 1540 C 465 1526 455 1511 447 1493 C 439 1475 436 1456 436 1436 Z" unicode="" />
<glyph horiz-adv-x="840" d="M 569 6 L 569 0 L 383 -145 C 365 -157 350 -169 338 -179 C 326 -189 316 -200 308 -210 C 300 -220 295 -230 292 -240 C 288 -250 287 -260 287 -272 C 287 -303 296 -324 315 -336 C 334 -348 357 -354 385 -354 C 401 -354 420 -351 441 -347 C 462 -342 483 -336 504 -328 L 504 -422 C 485 -431 462 -438 436 -443 C 410 -448 383 -451 356 -451 C 298 -451 253 -437 221 -410 C 188 -382 172 -344 172 -295 C 172 -272 175 -251 181 -231 C 187 -211 197 -193 210 -175 C 223 -157 240 -139 261 -121 C 281 -103 306 -86 334 -68 L 438 6 L 569 6 Z" unicode="" />
<glyph horiz-adv-x="840" d="M 319 1393 C 351 1425 379 1447 402 1457 C 425 1467 447 1473 469 1473 C 481 1473 492 1471 503 1469 C 514 1467 525 1463 536 1457 C 547 1451 559 1443 571 1433 C 583 1423 597 1411 612 1397 L 653 1360 C 665 1347 677 1337 689 1331 C 700 1324 711 1321 723 1321 C 735 1321 748 1324 760 1330 C 772 1336 787 1348 805 1366 L 860 1419 L 930 1370 L 858 1298 C 842 1282 827 1268 813 1258 C 799 1248 787 1240 775 1234 C 763 1228 751 1224 741 1222 C 730 1220 719 1219 709 1219 C 696 1219 684 1220 673 1222 C 662 1224 651 1228 640 1234 C 629 1240 617 1247 605 1257 C 593 1267 579 1279 565 1294 L 524 1333 C 512 1344 500 1353 489 1361 C 477 1368 466 1372 455 1372 C 442 1372 429 1368 417 1361 C 405 1354 390 1342 373 1325 L 317 1272 L 248 1323 L 319 1393 Z" unicode="" />
<glyph horiz-adv-x="840" d="M 414 1231 L 350 1231 L 360 1274 L 514 1530 L 629 1530 L 618 1481 L 414 1231 Z M 723 1231 L 659 1231 L 670 1274 L 842 1530 L 954 1530 L 946 1481 L 723 1231 Z" unicode="" />
<glyph horiz-adv-x="1446" d="M 1010 1446 L 1257 113 L 1235 0 L 31 0 L 53 109 L 819 1446 L 1010 1446 Z M 819 1184 L 209 119 L 1118 119 L 926 1184 L 905 1323 L 893 1323 L 819 1184 Z" unicode="" />
<glyph horiz-adv-x="1565" d="M 98 119 L 326 119 L 395 115 L 395 125 C 359 159 326 194 297 231 C 267 268 242 308 221 350 C 199 392 183 438 171 487 C 159 536 154 590 154 649 C 154 711 161 775 175 840 C 189 905 210 968 238 1029 C 266 1089 300 1146 342 1200 C 384 1253 432 1299 487 1339 C 541 1379 602 1410 670 1433 C 738 1456 812 1468 893 1468 C 981 1468 1062 1453 1134 1425 C 1206 1396 1267 1354 1318 1300 C 1369 1246 1408 1179 1436 1101 C 1463 1023 1477 934 1477 836 C 1477 756 1468 682 1450 614 C 1432 545 1405 481 1371 423 C 1336 365 1293 311 1243 261 C 1193 211 1135 166 1071 125 L 1071 115 L 1141 119 L 1354 119 L 1331 0 L 788 -2 L 805 94 C 862 106 915 126 964 152 C 1012 178 1056 210 1096 247 C 1135 283 1170 324 1200 370 C 1230 416 1255 464 1275 515 C 1295 566 1311 619 1321 673 C 1331 727 1337 782 1337 838 C 1337 912 1327 980 1309 1043 C 1290 1106 1262 1161 1225 1207 C 1187 1253 1141 1289 1085 1315 C 1029 1341 965 1354 891 1354 C 825 1354 764 1344 709 1324 C 654 1304 604 1276 560 1241 C 515 1206 476 1165 443 1118 C 409 1071 381 1021 359 967 C 336 913 319 858 308 800 C 296 742 291 685 291 629 C 291 563 298 502 313 446 C 328 390 350 339 378 295 C 406 250 440 211 480 177 C 520 143 565 116 616 96 L 598 0 L 76 0 L 98 119 Z" unicode="" />
<glyph horiz-adv-x="1210" d="M 301 1053 L 428 1053 L 315 444 C 311 429 308 414 306 398 C 303 382 300 366 298 351 C 296 336 294 322 293 309 C 291 296 291 285 291 276 C 291 251 294 228 300 206 C 306 184 315 165 329 149 C 342 133 360 120 382 110 C 404 100 432 96 465 96 C 517 96 567 112 614 144 C 661 176 704 218 742 272 C 780 325 814 386 842 455 C 870 524 891 596 905 670 L 979 1053 L 1108 1053 L 987 422 C 971 343 959 267 949 194 C 939 120 932 56 926 0 L 805 0 C 808 27 811 53 815 78 C 818 102 821 126 825 150 C 829 173 832 196 836 220 C 840 243 844 267 848 293 C 821 247 791 206 759 168 C 727 130 693 97 657 70 C 621 42 584 21 546 6 C 507 -8 468 -16 430 -16 C 408 -16 388 -13 368 -7 C 348 -1 329 6 312 16 C 295 26 280 39 268 55 C 256 71 247 89 242 109 L 233 102 L 215 -55 L 139 -451 L 8 -451 L 301 1053 Z" unicode="" />
<glyph horiz-adv-x="1276" d="M 940 926 L 504 926 L 324 0 L 195 0 L 375 926 L 211 926 L 236 1053 L 1245 1053 L 1221 926 L 1069 926 L 942 274 C 928 203 923 145 927 101 C 930 56 936 22 944 0 L 805 0 C 803 10 800 22 798 38 C 796 54 794 72 794 93 C 793 114 794 138 796 165 C 798 191 802 221 809 254 L 940 926 Z" unicode="" />
<glyph horiz-adv-x="78" d="" unicode="" />
<glyph horiz-adv-x="629" d="M 571 635 L 547 510 L 106 510 L 131 635 L 571 635 Z" unicode="" />
<glyph horiz-adv-x="629" d="M 571 635 L 547 510 L 106 510 L 131 635 L 571 635 Z" unicode="" />
<glyph horiz-adv-x="1167" d="M 1118 621 L 1098 520 L 94 520 L 115 621 L 1118 621 Z" unicode="" />
<glyph horiz-adv-x="2048" d="M 1999 621 L 1978 520 L 94 520 L 115 621 L 1999 621 Z" unicode="" />
<glyph horiz-adv-x="543" d="M 211 954 L 514 1446 L 631 1446 L 377 954 L 211 954 Z" unicode="" />
<glyph horiz-adv-x="541" d="M 618 1446 L 313 954 L 197 954 L 451 1446 L 618 1446 Z" unicode="" />
<glyph horiz-adv-x="545" d="M 383 219 L 80 -272 L -39 -272 L 217 219 L 383 219 Z" unicode="" />
<glyph horiz-adv-x="897" d="M 565 954 L 868 1446 L 987 1446 L 731 954 L 565 954 Z M 211 954 L 514 1446 L 631 1446 L 377 954 L 211 954 Z" unicode="" />
<glyph horiz-adv-x="895" d="M 618 1446 L 313 954 L 197 954 L 451 1446 L 618 1446 Z M 973 1446 L 670 954 L 551 954 L 807 1446 L 973 1446 Z" unicode="" />
<glyph horiz-adv-x="899" d="M 383 219 L 80 -272 L -39 -272 L 217 219 L 383 219 Z M 737 219 L 434 -272 L 317 -272 L 571 219 L 737 219 Z" unicode="" />
<glyph horiz-adv-x="895" d="M 610 1145 L 621 1135 L 805 1167 L 891 1167 L 866 1038 L 782 1038 L 606 1075 L 594 1061 L 496 381 L 479 295 L 350 295 L 367 381 L 532 1061 L 524 1075 L 334 1038 L 250 1038 L 274 1167 L 358 1167 L 539 1135 L 551 1145 L 555 1350 L 571 1434 L 700 1434 L 684 1350 L 610 1145 Z" unicode="" />
<glyph horiz-adv-x="895" d="M 610 1145 L 621 1135 L 805 1167 L 891 1167 L 866 1038 L 782 1038 L 606 1075 L 592 1057 L 604 932 L 580 803 L 516 668 L 526 657 L 713 692 L 799 692 L 774 563 L 690 563 L 512 598 L 498 580 L 496 381 L 479 295 L 350 295 L 367 381 L 442 582 L 430 598 L 242 563 L 158 563 L 182 692 L 266 692 L 442 657 L 457 668 L 451 801 L 475 930 L 537 1059 L 524 1075 L 334 1038 L 250 1038 L 274 1167 L 358 1167 L 537 1135 L 551 1145 L 555 1350 L 571 1434 L 700 1434 L 684 1350 L 610 1145 Z" unicode="" />
<glyph horiz-adv-x="831" d="M 418 842 C 458 842 495 835 528 823 C 560 811 588 793 611 770 C 634 747 652 719 665 687 C 677 654 684 618 684 578 C 684 537 677 500 665 468 C 652 435 634 407 611 384 C 588 360 560 342 528 330 C 495 317 458 311 418 311 C 378 311 341 317 309 330 C 276 342 248 360 225 384 C 202 407 184 435 172 468 C 160 500 154 537 154 578 C 154 618 160 654 172 687 C 184 719 202 747 225 770 C 248 793 276 811 309 823 C 341 835 378 842 418 842 Z" unicode="" />
<glyph horiz-adv-x="2048" d="M 461 219 L 418 0 L 248 0 L 291 219 L 461 219 Z M 1069 219 L 1026 0 L 854 0 L 897 219 L 1069 219 Z M 1675 219 L 1632 0 L 1462 0 L 1505 219 L 1675 219 Z" unicode="" />
<glyph horiz-adv-x="2689" d="M 598 1458 C 646 1458 688 1450 725 1436 C 762 1422 793 1401 818 1375 C 842 1348 861 1315 874 1277 C 886 1239 893 1195 893 1147 C 893 1113 890 1076 885 1038 C 880 1000 872 962 860 924 C 848 886 833 850 813 816 C 793 782 769 751 740 725 C 711 699 677 678 637 662 C 597 646 550 639 498 639 C 400 639 326 666 277 720 C 227 774 203 851 203 950 C 203 984 205 1020 210 1058 C 215 1096 223 1134 235 1172 C 247 1210 262 1246 282 1280 C 302 1314 326 1345 355 1371 C 384 1397 419 1418 459 1434 C 499 1450 545 1458 598 1458 Z M 1602 1446 L 498 0 L 383 0 L 1487 1446 L 1602 1446 Z M 594 1366 C 553 1366 518 1358 488 1344 C 458 1330 432 1311 411 1288 C 390 1264 373 1238 360 1208 C 346 1178 336 1148 328 1117 C 320 1085 315 1055 313 1025 C 310 995 309 968 309 944 C 309 913 312 884 319 858 C 325 832 336 809 352 790 C 367 771 387 756 411 745 C 435 734 464 729 500 729 C 541 729 577 736 607 750 C 637 764 662 783 683 807 C 704 830 721 856 735 886 C 748 916 758 946 765 978 C 772 1009 777 1040 780 1070 C 782 1100 784 1127 784 1151 C 784 1181 780 1210 774 1236 C 767 1262 756 1285 741 1304 C 726 1323 706 1338 682 1349 C 658 1360 628 1366 594 1366 Z M 1483 807 C 1579 807 1653 779 1703 724 C 1753 669 1778 593 1778 496 C 1778 462 1775 425 1770 387 C 1765 349 1757 311 1745 273 C 1733 235 1718 199 1698 165 C 1678 131 1654 100 1625 74 C 1595 48 1561 27 1521 11 C 1481 -4 1434 -12 1382 -12 C 1284 -12 1211 15 1161 69 C 1111 123 1087 199 1087 299 C 1087 333 1089 369 1094 407 C 1099 445 1107 483 1119 521 C 1131 559 1146 595 1166 629 C 1186 663 1210 694 1240 720 C 1269 746 1304 767 1344 783 C 1384 799 1430 807 1483 807 Z M 1479 715 C 1438 715 1403 707 1373 693 C 1343 679 1317 660 1296 637 C 1275 613 1258 587 1245 557 C 1231 527 1221 497 1213 466 C 1205 434 1200 404 1198 374 C 1195 344 1194 317 1194 293 C 1194 262 1197 233 1204 207 C 1210 181 1221 158 1236 139 C 1251 120 1271 105 1295 94 C 1319 83 1349 78 1384 78 C 1425 78 1461 85 1491 99 C 1521 113 1546 132 1568 155 C 1589 178 1606 205 1619 235 C 1632 265 1642 295 1650 326 C 1657 357 1662 388 1665 418 C 1667 448 1669 476 1669 500 C 1669 530 1665 559 1659 585 C 1652 611 1641 634 1626 653 C 1611 672 1591 687 1567 698 C 1543 709 1513 715 1479 715 Z M 2279 807 C 2327 807 2369 799 2406 785 C 2443 771 2474 750 2499 724 C 2523 697 2542 664 2555 626 C 2567 588 2574 544 2574 496 C 2574 462 2571 425 2566 387 C 2561 349 2553 311 2541 273 C 2529 235 2514 199 2494 165 C 2474 131 2450 100 2421 74 C 2392 48 2358 27 2318 11 C 2278 -4 2231 -12 2179 -12 C 2080 -12 2006 15 1957 69 C 1908 123 1884 200 1884 299 C 1884 333 1886 369 1891 407 C 1896 445 1904 483 1916 521 C 1928 559 1943 595 1963 629 C 1983 663 2007 694 2036 720 C 2065 746 2100 767 2140 783 C 2180 799 2226 807 2279 807 Z M 2275 715 C 2234 715 2199 707 2169 693 C 2139 679 2113 660 2092 637 C 2071 613 2054 587 2041 557 C 2027 527 2017 497 2010 466 C 2002 434 1997 404 1995 374 C 1992 344 1991 317 1991 293 C 1991 262 1994 233 2001 207 C 2008 181 2019 158 2035 139 C 2050 120 2070 105 2094 94 C 2118 83 2148 78 2183 78 C 2223 78 2259 85 2289 99 C 2319 113 2345 132 2366 155 C 2387 178 2404 205 2418 235 C 2431 265 2441 295 2449 326 C 2456 357 2461 388 2464 418 C 2466 448 2468 476 2468 500 C 2468 530 2464 559 2457 585 C 2450 611 2439 634 2424 653 C 2408 672 2388 687 2364 698 C 2339 709 2309 715 2275 715 Z" unicode="" />
<glyph horiz-adv-x="602" d="M 551 887 L 205 567 L 412 268 L 283 268 L 94 526 L 115 631 L 403 887 L 551 887 Z" unicode="" />
<glyph horiz-adv-x="604" d="M 100 268 L 446 588 L 240 887 L 367 887 L 555 629 L 535 524 L 248 268 L 100 268 Z" unicode="" />
<glyph horiz-adv-x="344" d="M 743 1446 L -172 0 L -281 0 L 637 1446 L 743 1446 Z" unicode="" />
<glyph horiz-adv-x="803" d="M 578 1458 C 622 1458 661 1450 693 1434 C 725 1418 751 1397 771 1369 C 791 1341 805 1309 815 1273 C 824 1236 829 1197 829 1155 C 829 1128 826 1095 822 1057 C 817 1019 809 979 798 937 C 787 895 772 853 753 811 C 733 769 709 732 680 699 C 651 666 616 639 576 619 C 535 598 488 588 434 588 C 388 588 350 595 318 611 C 286 627 260 648 240 676 C 220 703 205 735 196 772 C 186 808 182 847 182 889 C 182 915 184 948 189 987 C 193 1025 201 1066 213 1108 C 224 1150 239 1192 258 1234 C 277 1276 301 1313 331 1346 C 360 1379 395 1406 436 1427 C 476 1447 524 1458 578 1458 Z M 727 1165 C 727 1189 724 1214 719 1238 C 714 1262 706 1284 694 1304 C 682 1324 666 1340 646 1352 C 626 1364 601 1370 571 1370 C 536 1370 505 1362 478 1347 C 450 1332 426 1312 405 1287 C 384 1261 366 1232 351 1199 C 335 1166 323 1132 313 1096 C 303 1060 296 1024 292 988 C 287 952 285 918 285 887 C 285 857 287 829 292 803 C 296 777 304 755 316 736 C 328 717 344 702 364 692 C 384 681 409 676 440 676 C 484 676 521 686 553 708 C 584 730 610 757 632 791 C 653 824 670 860 683 900 C 695 940 705 978 711 1014 C 717 1050 722 1082 724 1110 C 726 1138 727 1156 727 1165 Z" unicode="" />
<glyph horiz-adv-x="784" d="M 768 1446 L 651 874 L 809 874 L 795 786 L 637 786 L 598 598 L 492 598 L 530 786 L 125 786 L 147 901 L 664 1446 L 768 1446 Z M 227 874 L 545 874 L 612 1190 L 645 1303 L 639 1303 L 227 874 Z" unicode="" />
<glyph horiz-adv-x="743" d="M 152 676 C 173 672 196 668 222 664 C 247 660 272 659 297 659 C 341 659 384 664 425 675 C 465 685 501 702 532 724 C 563 746 588 773 606 806 C 624 839 633 878 633 922 C 633 976 619 1014 591 1036 C 563 1058 524 1069 475 1069 C 447 1069 417 1065 386 1058 C 355 1050 319 1035 279 1012 L 227 1038 L 338 1446 L 819 1446 L 801 1354 L 410 1354 L 340 1108 C 370 1124 400 1137 428 1145 C 456 1153 485 1157 516 1157 C 548 1157 577 1153 605 1145 C 632 1137 656 1124 676 1106 C 696 1088 711 1064 723 1036 C 735 1007 741 972 741 932 C 741 874 729 823 705 778 C 681 732 649 694 608 663 C 566 631 518 607 462 591 C 406 575 345 567 281 567 C 271 567 261 567 249 567 C 237 567 226 568 214 569 C 202 570 191 572 180 574 C 169 576 160 578 152 582 L 152 676 Z" unicode="" />
<glyph horiz-adv-x="756" d="M 655 1475 C 678 1475 700 1473 720 1471 C 740 1468 757 1465 770 1462 L 770 1368 C 754 1370 736 1372 715 1375 C 694 1378 672 1380 649 1380 C 609 1380 575 1374 545 1364 C 515 1354 487 1338 459 1317 C 423 1288 391 1251 365 1205 C 338 1159 315 1108 297 1053 C 325 1083 357 1105 394 1120 C 431 1135 470 1143 510 1143 C 546 1143 579 1137 609 1125 C 639 1113 666 1097 688 1075 C 710 1053 727 1028 739 998 C 751 968 758 935 758 899 C 758 859 750 820 735 783 C 720 745 698 712 670 683 C 642 654 607 631 567 614 C 526 596 480 588 428 588 C 343 588 278 613 233 663 C 188 713 166 782 166 872 C 166 910 170 952 179 1000 C 187 1048 201 1096 220 1144 C 239 1192 264 1239 294 1283 C 324 1327 360 1365 403 1397 C 442 1425 483 1445 526 1457 C 568 1469 611 1475 655 1475 Z M 481 1055 C 441 1055 403 1046 367 1030 C 331 1013 304 991 285 965 C 279 953 275 938 271 919 C 267 900 266 881 266 862 C 266 804 282 759 314 726 C 346 692 388 676 442 676 C 474 676 502 682 528 694 C 554 706 576 722 594 742 C 612 762 625 784 635 810 C 644 836 649 863 649 891 C 649 939 634 978 605 1009 C 576 1039 535 1055 481 1055 Z" unicode="" />
<glyph horiz-adv-x="702" d="M 850 1446 L 831 1360 C 818 1349 800 1333 777 1313 C 754 1293 728 1267 698 1236 C 668 1205 637 1169 603 1128 C 569 1086 535 1039 501 986 C 467 933 434 874 402 810 C 370 745 342 674 317 598 L 199 598 C 217 658 240 716 268 773 C 295 829 324 883 356 934 C 387 985 419 1033 453 1078 C 487 1122 519 1163 551 1199 C 582 1235 611 1266 638 1292 C 664 1318 687 1339 705 1354 L 252 1354 L 270 1446 L 850 1446 Z" unicode="" />
<glyph horiz-adv-x="799" d="M 375 1057 C 363 1059 351 1065 339 1075 C 327 1085 315 1097 305 1112 C 295 1126 286 1143 280 1162 C 273 1181 270 1202 270 1225 C 270 1257 277 1288 292 1316 C 307 1344 328 1368 354 1388 C 380 1408 411 1424 446 1436 C 481 1448 519 1454 559 1454 C 594 1454 628 1449 660 1440 C 692 1430 720 1417 745 1399 C 769 1381 789 1360 803 1334 C 817 1308 825 1279 825 1247 C 825 1219 820 1194 810 1170 C 800 1146 786 1125 770 1107 C 753 1089 734 1073 712 1061 C 690 1048 668 1040 645 1036 L 643 1030 C 659 1025 675 1017 691 1007 C 707 997 720 984 732 968 C 743 952 752 933 759 912 C 766 891 770 868 770 844 C 770 806 762 772 747 741 C 731 709 710 682 682 660 C 654 637 621 619 582 607 C 542 594 499 588 451 588 C 411 588 374 592 339 601 C 304 610 274 624 248 642 C 222 660 201 683 186 711 C 171 739 164 771 164 809 C 164 840 169 869 179 897 C 189 925 204 949 223 971 C 241 993 264 1011 290 1025 C 316 1039 344 1049 375 1053 L 375 1057 Z M 557 1366 C 532 1366 509 1362 487 1356 C 465 1349 445 1339 428 1327 C 411 1314 398 1298 388 1280 C 378 1261 373 1240 373 1217 C 373 1193 377 1172 387 1155 C 397 1138 410 1124 426 1113 C 442 1102 459 1094 479 1089 C 499 1083 519 1081 539 1081 C 563 1081 586 1084 608 1092 C 630 1099 649 1109 665 1123 C 681 1137 694 1153 704 1172 C 714 1190 719 1211 719 1235 C 719 1256 715 1275 707 1291 C 699 1307 687 1321 673 1332 C 659 1343 642 1351 622 1357 C 602 1363 580 1366 557 1366 Z M 276 827 C 275 799 279 776 288 757 C 296 738 309 723 325 711 C 341 699 360 690 382 684 C 404 678 429 676 457 676 C 491 676 521 680 547 689 C 573 698 594 710 612 726 C 629 742 642 760 651 782 C 659 803 664 826 664 852 C 664 880 659 903 650 922 C 640 940 627 955 611 967 C 594 978 575 986 553 991 C 531 996 507 999 481 999 C 445 999 414 994 388 986 C 362 977 341 965 325 949 C 309 933 297 915 289 894 C 281 873 276 851 276 827 Z" unicode="" />
<glyph horiz-adv-x="754" d="M 307 571 C 286 571 265 572 245 574 C 225 576 209 579 197 584 L 197 678 C 211 676 228 673 249 670 C 269 667 292 666 317 666 C 355 666 389 670 419 680 C 449 690 479 706 508 729 C 544 757 574 793 600 837 C 625 880 648 932 670 993 C 642 963 609 940 571 925 C 533 910 494 903 453 903 C 417 903 384 908 354 920 C 324 932 298 948 276 969 C 254 990 237 1015 225 1045 C 213 1075 207 1108 207 1145 C 207 1185 214 1224 229 1262 C 244 1300 266 1333 295 1362 C 323 1391 358 1414 399 1432 C 439 1449 485 1458 537 1458 C 622 1458 687 1433 733 1383 C 778 1333 801 1262 801 1171 C 801 1133 796 1090 788 1043 C 779 996 765 949 746 901 C 727 853 702 807 672 763 C 641 719 604 681 561 649 C 521 620 480 600 438 588 C 396 576 352 571 307 571 Z M 489 991 C 507 991 525 993 543 997 C 561 1001 579 1008 596 1016 C 613 1024 629 1033 643 1044 C 657 1054 670 1066 680 1079 C 685 1091 689 1107 693 1126 C 696 1145 698 1164 698 1184 C 698 1241 682 1286 650 1320 C 618 1353 576 1370 522 1370 C 490 1370 461 1364 435 1352 C 409 1340 388 1324 370 1304 C 352 1284 338 1261 329 1235 C 319 1209 315 1183 315 1155 C 315 1105 329 1066 359 1036 C 389 1006 432 991 489 991 Z" unicode="" />
<glyph horiz-adv-x="446" d="M 317 395 C 289 421 264 453 243 489 C 221 525 203 563 189 604 C 174 645 163 688 156 733 C 148 777 145 822 145 866 C 145 931 153 996 171 1061 C 189 1125 214 1187 248 1246 C 282 1304 323 1359 372 1409 C 420 1459 475 1504 537 1542 L 627 1542 L 625 1526 C 567 1492 515 1450 469 1400 C 423 1350 383 1295 350 1236 C 316 1176 291 1114 273 1049 C 255 984 246 920 246 856 C 246 811 249 767 257 724 C 264 680 274 639 287 600 C 300 561 316 526 334 494 C 352 462 373 435 395 414 L 391 395 L 317 395 Z" unicode="" />
<glyph horiz-adv-x="449" d="M 6 395 L 10 414 C 66 447 118 488 165 538 C 211 588 251 642 284 701 C 316 760 342 822 360 888 C 378 953 387 1018 387 1083 C 387 1127 383 1170 376 1214 C 369 1258 359 1299 346 1338 C 333 1377 317 1413 299 1445 C 281 1477 260 1504 238 1526 L 242 1542 L 315 1542 C 343 1515 367 1484 389 1448 C 411 1412 429 1374 443 1333 C 457 1291 468 1248 476 1204 C 483 1160 487 1116 487 1073 C 487 1007 478 942 461 878 C 443 814 418 752 385 693 C 351 634 310 579 262 529 C 214 478 159 433 98 395 L 6 395 Z" unicode="" />
<glyph horiz-adv-x="920" d="M 266 1098 C 272 1129 277 1158 283 1186 C 288 1213 293 1241 297 1269 C 301 1297 304 1326 308 1356 C 311 1386 314 1420 317 1458 L 426 1458 C 424 1425 420 1394 416 1365 C 411 1335 406 1304 401 1270 C 441 1332 487 1380 539 1416 C 591 1452 651 1470 717 1470 C 752 1470 783 1464 809 1454 C 835 1443 856 1428 874 1409 C 891 1389 904 1366 913 1339 C 921 1312 926 1283 926 1251 C 926 1220 922 1188 916 1156 C 910 1124 904 1093 899 1065 L 815 645 L 702 645 L 788 1083 C 790 1091 792 1102 794 1115 C 796 1127 799 1141 801 1155 C 803 1169 804 1184 806 1199 C 808 1213 809 1227 809 1241 C 809 1259 806 1276 802 1292 C 797 1308 789 1321 779 1333 C 769 1344 756 1353 740 1360 C 724 1366 704 1370 682 1370 C 641 1370 603 1359 569 1338 C 534 1317 502 1288 474 1250 C 446 1212 421 1166 400 1114 C 379 1061 362 1003 350 940 L 289 645 L 176 645 L 266 1098 Z" unicode="" />
<glyph horiz-adv-x="803" d="M 424 605 C 468 605 507 597 539 581 C 571 565 597 544 617 516 C 637 488 651 456 661 420 C 670 383 675 344 675 302 C 675 275 672 242 668 204 C 663 166 655 126 644 84 C 633 42 618 0 599 -41 C 579 -83 555 -120 526 -153 C 497 -186 462 -213 422 -234 C 381 -254 334 -265 280 -265 C 234 -265 196 -257 164 -241 C 132 -225 106 -204 86 -177 C 66 -149 51 -117 42 -81 C 32 -44 28 -5 28 36 C 28 62 30 95 35 134 C 39 172 47 213 59 255 C 70 297 85 339 104 381 C 123 423 147 460 177 493 C 206 526 241 553 282 574 C 322 594 370 605 424 605 Z M 573 312 C 573 336 570 361 565 385 C 560 409 552 431 540 451 C 528 471 512 487 492 499 C 472 511 447 517 417 517 C 382 517 351 509 324 494 C 296 479 272 459 251 434 C 230 408 212 379 197 346 C 181 313 169 279 159 243 C 149 207 142 171 138 135 C 133 99 131 65 131 34 C 131 4 133 -23 138 -49 C 142 -75 150 -97 162 -116 C 174 -135 190 -150 210 -161 C 230 -171 255 -177 286 -177 C 330 -177 367 -166 399 -144 C 430 -122 456 -95 478 -62 C 499 -28 516 7 529 47 C 541 87 551 125 557 161 C 563 197 568 229 570 257 C 572 285 573 303 573 312 Z" unicode="" />
<glyph horiz-adv-x="500" d="M 270 593 L 360 593 L 335 507 L 186 -255 L 77 -255 L 219 470 L 227 495 L 223 495 L 73 435 L 92 531 L 270 593 Z" unicode="" />
<glyph horiz-adv-x="795" d="M 435 182 C 448 192 462 204 478 218 C 494 232 508 248 522 265 C 536 282 547 301 556 321 C 565 341 570 361 570 383 C 570 400 566 417 560 433 C 553 449 543 463 530 475 C 516 487 500 497 480 505 C 460 512 438 516 412 516 C 396 516 379 514 363 510 C 347 506 330 500 314 491 C 297 481 280 469 264 453 C 247 437 230 418 212 395 L 130 434 C 145 456 162 478 182 499 C 201 519 223 537 248 553 C 273 569 301 581 332 590 C 362 599 397 604 435 604 C 470 604 502 599 532 590 C 561 580 586 567 608 550 C 629 532 646 511 658 485 C 670 459 676 431 676 399 C 676 369 672 342 664 317 C 656 292 645 269 631 247 C 616 225 598 204 577 184 C 555 164 531 143 504 123 L 128 -166 L 574 -166 L 556 -256 L -24 -256 L -5 -162 L 435 182 Z" unicode="" />
<glyph horiz-adv-x="743" d="M 92 476 C 105 490 121 504 139 520 C 157 535 177 549 200 562 C 223 574 249 585 277 593 C 305 601 336 605 370 605 C 402 605 432 600 462 592 C 492 584 518 571 540 555 C 562 539 580 519 594 495 C 607 471 614 443 614 411 C 614 387 610 364 602 342 C 594 320 582 300 567 282 C 552 264 534 249 514 236 C 493 222 470 212 446 206 L 446 196 C 484 184 514 165 536 137 C 558 109 569 73 569 28 C 569 -26 555 -73 527 -113 C 499 -153 463 -185 419 -211 C 375 -236 327 -255 274 -267 C 220 -279 168 -286 118 -286 C 95 -286 72 -284 48 -282 C 24 -280 3 -276 -15 -271 L -15 -179 C 8 -182 31 -185 55 -187 C 79 -189 103 -191 127 -191 C 165 -191 203 -187 243 -179 C 283 -171 319 -159 351 -142 C 383 -125 410 -103 431 -77 C 451 -51 462 -19 462 19 C 462 39 458 57 450 73 C 442 88 432 101 420 111 C 407 121 392 129 376 134 C 360 139 343 142 327 142 C 322 142 316 141 310 141 C 304 140 295 139 285 138 C 275 137 262 136 248 134 C 234 132 216 130 196 128 L 196 216 L 297 226 C 319 226 342 231 366 239 C 390 247 413 258 434 272 C 454 286 471 304 485 325 C 498 346 505 370 505 398 C 505 434 491 462 463 484 C 435 506 400 517 356 517 C 320 517 287 508 256 492 C 225 475 194 454 163 429 L 92 476 L 92 476 Z" unicode="" />
<glyph horiz-adv-x="784" d="M 613 593 L 496 21 L 654 21 L 640 -67 L 482 -67 L 443 -255 L 337 -255 L 375 -67 L -30 -67 L -8 48 L 509 593 L 613 593 Z M 72 21 L 390 21 L 457 337 L 490 450 L 484 450 L 72 21 Z" unicode="" />
<glyph horiz-adv-x="743" d="M -3 -177 C 18 -181 41 -184 67 -188 C 92 -192 117 -194 142 -194 C 186 -194 229 -188 270 -178 C 310 -167 346 -151 377 -129 C 408 -107 433 -79 451 -46 C 469 -13 478 25 478 69 C 478 123 464 161 436 183 C 408 205 369 216 320 216 C 292 216 262 212 231 205 C 200 197 164 182 124 159 L 72 185 L 183 593 L 664 593 L 646 501 L 255 501 L 185 255 C 215 271 245 284 273 292 C 301 300 330 304 361 304 C 393 304 422 300 450 292 C 477 284 501 271 521 253 C 541 235 556 211 568 183 C 580 154 586 119 586 79 C 586 21 574 -29 550 -75 C 526 -120 494 -158 453 -190 C 411 -221 363 -245 307 -261 C 251 -277 190 -286 126 -286 C 116 -286 106 -285 94 -285 C 82 -285 71 -284 59 -283 C 47 -282 36 -281 25 -279 C 14 -277 5 -274 -3 -271 L -3 -177 Z" unicode="" />
<glyph horiz-adv-x="756" d="M 500 622 C 523 622 545 620 565 618 C 585 615 602 612 615 609 L 615 515 C 599 517 581 519 560 522 C 539 525 517 527 494 527 C 454 527 420 521 390 511 C 360 501 332 485 304 464 C 268 435 236 398 210 352 C 183 306 160 255 142 200 C 170 230 202 252 239 267 C 276 282 315 290 355 290 C 391 290 424 284 454 272 C 484 260 511 244 533 222 C 555 200 572 175 584 145 C 596 115 603 82 603 46 C 603 6 595 -32 580 -70 C 565 -107 543 -140 515 -169 C 487 -198 452 -221 412 -239 C 371 -256 325 -265 273 -265 C 188 -265 123 -240 78 -190 C 33 -140 11 -70 11 19 C 11 57 15 99 24 147 C 32 195 46 243 65 291 C 84 339 109 386 139 430 C 169 474 205 512 248 544 C 287 572 328 592 371 604 C 413 616 456 622 500 622 Z M 326 202 C 286 202 248 193 212 177 C 176 160 149 138 130 112 C 124 100 120 85 116 66 C 112 47 111 28 111 9 C 111 -48 127 -93 159 -127 C 191 -160 233 -177 287 -177 C 319 -177 347 -171 373 -159 C 399 -147 421 -131 439 -111 C 457 -91 470 -68 480 -42 C 489 -16 494 10 494 38 C 494 86 479 125 450 156 C 421 186 380 202 326 202 Z" unicode="" />
<glyph horiz-adv-x="702" d="M 695 593 L 676 507 C 663 496 645 480 622 460 C 599 440 573 414 543 383 C 513 352 482 316 448 275 C 414 233 380 186 346 133 C 312 80 279 21 247 -43 C 215 -107 187 -178 162 -255 L 44 -255 C 62 -195 85 -136 113 -80 C 140 -23 169 30 201 81 C 232 132 264 180 298 225 C 332 269 364 310 396 346 C 427 382 456 413 483 439 C 509 465 532 486 550 501 L 97 501 L 115 593 L 695 593 Z" unicode="" />
<glyph horiz-adv-x="799" d="M 220 204 C 208 206 196 212 184 222 C 172 232 160 244 150 259 C 140 273 131 290 125 309 C 118 328 115 349 115 372 C 115 404 122 435 137 463 C 152 491 173 515 199 535 C 225 555 256 571 291 583 C 326 595 364 601 404 601 C 439 601 473 596 505 587 C 537 577 565 564 590 546 C 614 528 634 507 648 481 C 662 455 670 426 670 394 C 670 366 665 341 655 317 C 645 293 631 272 615 254 C 598 236 579 220 557 208 C 535 195 513 187 490 183 L 488 177 C 504 172 520 164 536 154 C 552 144 565 131 577 115 C 588 99 597 80 604 59 C 611 38 615 15 615 -9 C 615 -46 607 -80 592 -112 C 576 -143 555 -170 527 -193 C 499 -215 466 -233 427 -246 C 387 -258 344 -265 296 -265 C 256 -265 219 -260 184 -251 C 149 -242 119 -228 93 -210 C 67 -192 46 -169 31 -141 C 16 -113 9 -81 9 -44 C 9 -12 14 16 24 44 C 34 72 49 96 68 118 C 86 140 109 158 135 172 C 161 186 189 196 220 200 L 220 204 Z M 402 513 C 377 513 354 509 332 503 C 310 496 290 486 273 474 C 256 461 243 445 233 427 C 223 408 218 387 218 364 C 218 340 222 319 232 302 C 242 285 255 271 271 260 C 287 249 304 241 324 236 C 344 230 364 228 384 228 C 408 228 431 231 453 239 C 475 246 494 256 510 270 C 526 284 539 300 549 319 C 559 337 564 358 564 382 C 564 403 560 422 552 438 C 544 454 532 468 518 479 C 504 490 487 498 467 504 C 447 510 425 513 402 513 Z M 121 -26 C 120 -53 124 -76 133 -95 C 141 -114 154 -130 170 -142 C 186 -154 205 -162 227 -168 C 249 -174 274 -177 302 -177 C 336 -177 366 -172 392 -163 C 418 -154 439 -142 457 -126 C 474 -110 487 -92 496 -71 C 504 -49 509 -26 509 -1 C 509 27 504 50 495 69 C 485 87 472 102 456 114 C 439 125 420 133 398 138 C 376 143 352 146 326 146 C 290 146 259 141 233 133 C 207 124 186 112 170 96 C 154 80 142 62 134 41 C 126 20 121 -2 121 -26 Z" unicode="" />
<glyph horiz-adv-x="754" d="M 152 -282 C 131 -282 110 -281 90 -279 C 70 -277 54 -273 42 -269 L 42 -175 C 56 -177 73 -179 94 -182 C 114 -185 137 -187 162 -187 C 200 -187 234 -182 264 -172 C 294 -162 324 -146 353 -124 C 389 -95 419 -59 445 -16 C 470 27 493 79 515 140 C 487 110 454 87 416 72 C 378 57 339 50 298 50 C 262 50 229 55 199 67 C 169 79 143 95 121 116 C 99 137 82 162 70 192 C 58 222 52 255 52 292 C 52 332 59 371 74 409 C 89 447 111 480 140 509 C 168 538 203 561 244 579 C 284 596 330 605 382 605 C 467 605 532 580 578 530 C 623 480 646 409 646 318 C 646 280 641 237 633 190 C 624 143 610 96 591 48 C 572 0 547 -46 517 -90 C 486 -134 449 -172 406 -204 C 366 -232 325 -252 283 -264 C 241 -276 197 -282 152 -282 Z M 334 138 C 352 138 370 140 388 144 C 406 148 424 155 441 163 C 458 171 474 180 488 191 C 502 201 515 213 525 226 C 530 238 534 254 538 273 C 541 292 543 311 543 331 C 543 388 527 433 495 467 C 463 500 421 517 367 517 C 335 517 306 511 280 499 C 254 487 233 471 215 451 C 197 431 183 408 174 382 C 164 356 160 330 160 302 C 160 252 174 213 204 183 C 234 153 277 138 334 138 Z" unicode="" />
<glyph horiz-adv-x="1237" d="M 160 948 L 348 948 C 370 1015 397 1080 431 1143 C 465 1205 505 1261 553 1310 C 601 1358 656 1397 719 1426 C 781 1455 852 1470 932 1470 C 992 1470 1053 1461 1115 1444 C 1176 1426 1234 1401 1288 1368 L 1237 1266 C 1217 1278 1195 1289 1171 1300 C 1146 1310 1120 1320 1094 1328 C 1067 1336 1040 1343 1012 1348 C 984 1353 958 1356 932 1356 C 872 1356 818 1344 771 1322 C 724 1299 683 1269 647 1231 C 611 1193 580 1149 554 1100 C 528 1051 506 1000 489 948 L 1008 948 L 987 848 L 463 848 C 452 806 444 765 438 725 C 432 685 428 647 426 612 L 940 612 L 920 510 L 422 510 C 422 445 428 387 441 335 C 453 283 473 240 501 204 C 529 168 565 140 609 121 C 653 101 706 92 770 92 C 790 92 812 93 836 95 C 859 97 882 100 906 104 C 929 107 951 111 973 116 C 995 120 1014 125 1030 131 L 1030 16 C 1012 10 991 5 969 0 C 946 -4 922 -8 898 -12 C 873 -15 848 -18 823 -20 C 797 -22 773 -23 750 -23 C 664 -23 592 -9 532 16 C 472 42 424 79 387 126 C 349 173 322 229 305 295 C 287 360 279 432 279 510 L 74 510 L 92 612 L 283 612 C 286 649 290 687 296 727 C 302 766 309 806 319 848 L 141 848 L 160 948 Z" unicode="" />
<glyph horiz-adv-x="1135" d="M 299 385 C 270 369 241 354 213 340 C 184 326 155 311 127 297 L 154 428 L 324 518 L 442 1122 C 454 1186 472 1241 494 1285 C 516 1329 542 1365 571 1392 C 599 1419 630 1438 664 1450 C 697 1462 731 1468 766 1468 C 845 1468 906 1443 948 1395 C 990 1346 1012 1277 1012 1188 C 1012 1112 997 1040 969 974 C 940 907 900 844 849 785 C 798 726 738 670 669 618 C 599 565 524 515 444 467 L 422 352 C 416 324 412 298 410 275 C 407 251 406 233 406 221 C 406 195 410 173 418 157 C 426 140 437 127 451 117 C 465 107 483 101 503 97 C 523 93 546 92 571 92 C 618 92 658 97 692 107 C 725 117 757 129 788 145 L 768 41 C 737 22 701 8 659 -1 C 617 -11 573 -16 528 -16 C 494 -16 461 -12 431 -5 C 400 1 373 13 350 30 C 326 47 308 70 294 99 C 280 127 274 163 274 207 C 274 227 275 250 279 274 C 283 298 287 325 293 356 L 299 385 Z M 471 604 C 533 644 590 685 641 727 C 692 769 735 813 771 860 C 807 907 834 958 854 1012 C 873 1066 883 1124 883 1188 C 883 1213 881 1236 877 1257 C 873 1278 866 1296 857 1311 C 847 1326 834 1338 818 1346 C 801 1354 780 1358 756 1358 C 737 1358 719 1354 701 1348 C 683 1342 665 1330 649 1313 C 633 1296 618 1272 605 1242 C 591 1211 580 1172 571 1124 L 471 604 Z" unicode="" />
<glyph horiz-adv-x="1346" d="M 694 1446 L 680 1380 L 504 1380 L 401 860 L 324 860 L 424 1380 L 250 1380 L 264 1446 L 694 1446 Z M 940 1446 L 1024 1055 L 1034 1055 L 1272 1446 L 1397 1446 L 1282 860 L 1208 860 L 1300 1333 L 1311 1382 L 1305 1382 L 1280 1333 L 1057 971 L 971 971 L 889 1333 L 885 1382 L 877 1382 L 870 1333 L 778 860 L 705 860 L 819 1446 L 940 1446 Z" unicode="" />
<glyph horiz-adv-x="1565" d="M 98 119 L 326 119 L 395 115 L 395 125 C 359 159 326 194 297 231 C 267 268 242 308 221 350 C 199 392 183 438 171 487 C 159 536 154 590 154 649 C 154 711 161 775 175 840 C 189 905 210 968 238 1029 C 266 1089 300 1146 342 1200 C 384 1253 432 1299 487 1339 C 541 1379 602 1410 670 1433 C 738 1456 812 1468 893 1468 C 981 1468 1062 1453 1134 1425 C 1206 1396 1267 1354 1318 1300 C 1369 1246 1408 1179 1436 1101 C 1463 1023 1477 934 1477 836 C 1477 756 1468 682 1450 614 C 1432 545 1405 481 1371 423 C 1336 365 1293 311 1243 261 C 1193 211 1135 166 1071 125 L 1071 115 L 1141 119 L 1354 119 L 1331 0 L 788 -2 L 805 94 C 862 106 915 126 964 152 C 1012 178 1056 210 1096 247 C 1135 283 1170 324 1200 370 C 1230 416 1255 464 1275 515 C 1295 566 1311 619 1321 673 C 1331 727 1337 782 1337 838 C 1337 912 1327 980 1309 1043 C 1290 1106 1262 1161 1225 1207 C 1187 1253 1141 1289 1085 1315 C 1029 1341 965 1354 891 1354 C 825 1354 764 1344 709 1324 C 654 1304 604 1276 560 1241 C 515 1206 476 1165 443 1118 C 409 1071 381 1021 359 967 C 336 913 319 858 308 800 C 296 742 291 685 291 629 C 291 563 298 502 313 446 C 328 390 350 339 378 295 C 406 250 440 211 480 177 C 520 143 565 116 616 96 L 598 0 L 76 0 L 98 119 Z" unicode="" />
<glyph horiz-adv-x="1626" d="M 391 641 C 391 635 392 632 396 631 C 399 629 402 629 406 629 L 1266 629 C 1269 629 1272 629 1276 631 C 1280 632 1282 635 1282 641 L 1282 926 C 1282 932 1281 938 1280 945 C 1278 951 1275 958 1270 965 C 1248 995 1221 1021 1190 1045 C 1159 1069 1125 1089 1088 1105 C 1051 1121 1012 1133 970 1142 C 928 1150 884 1155 840 1155 C 804 1155 765 1150 722 1141 C 679 1131 637 1118 597 1101 C 556 1084 519 1064 485 1041 C 451 1017 426 992 408 965 C 403 958 399 951 396 945 C 392 938 391 932 391 926 L 391 641 Z M 391 283 C 391 272 391 262 393 253 C 394 244 399 235 408 227 C 469 164 537 117 612 87 C 687 56 763 41 840 41 C 926 41 1009 56 1088 88 C 1166 120 1235 169 1294 236 L 1393 236 C 1357 192 1318 154 1275 122 C 1231 90 1186 64 1139 44 C 1091 24 1042 9 992 -1 C 941 -11 890 -16 840 -16 C 783 -16 727 -9 671 4 C 615 18 562 37 512 63 C 461 88 414 119 371 155 C 327 191 290 232 258 278 C 226 323 202 372 184 426 C 166 480 157 537 158 598 C 158 660 167 719 185 774 C 203 828 228 878 260 924 C 292 969 329 1009 373 1045 C 416 1081 463 1111 514 1136 C 564 1160 617 1179 673 1192 C 728 1205 784 1212 840 1212 C 900 1212 959 1205 1017 1191 C 1074 1177 1128 1158 1178 1132 C 1228 1106 1274 1075 1316 1037 C 1358 999 1394 957 1424 909 C 1454 861 1478 809 1495 752 C 1511 695 1520 634 1520 569 L 406 569 C 402 569 399 567 396 564 C 392 560 391 557 391 553 L 391 283 Z" unicode="" />
<glyph horiz-adv-x="1587" d="M 424 1446 L 514 1446 L 489 1360 L 340 598 L 231 598 L 373 1323 L 381 1348 L 377 1348 L 227 1288 L 246 1384 L 424 1446 Z M 1243 1446 L 328 0 L 219 0 L 1137 1446 L 1243 1446 Z M 978 732 C 991 746 1007 760 1025 776 C 1043 791 1063 805 1086 818 C 1109 830 1135 841 1163 849 C 1191 857 1222 861 1256 861 C 1288 861 1318 856 1348 848 C 1378 840 1404 827 1426 811 C 1448 795 1466 775 1480 751 C 1493 727 1500 699 1500 667 C 1500 643 1496 620 1488 598 C 1480 576 1468 556 1453 538 C 1438 520 1420 505 1400 492 C 1379 478 1356 468 1332 462 L 1332 452 C 1370 440 1400 421 1422 393 C 1444 365 1455 329 1455 284 C 1455 229 1441 182 1413 142 C 1385 102 1349 70 1305 45 C 1261 19 1213 0 1160 -11 C 1106 -23 1054 -30 1004 -30 C 981 -30 958 -28 934 -26 C 910 -24 889 -20 871 -15 L 871 77 C 894 73 917 70 941 68 C 965 66 989 65 1013 65 C 1051 65 1089 68 1129 76 C 1169 84 1205 96 1237 113 C 1269 130 1296 152 1317 178 C 1337 204 1348 237 1348 275 C 1348 295 1344 313 1336 329 C 1328 344 1318 357 1306 367 C 1293 377 1278 385 1262 390 C 1246 395 1229 398 1213 398 C 1208 398 1202 397 1196 397 C 1190 396 1181 395 1171 394 C 1161 393 1148 392 1134 390 C 1120 388 1102 386 1082 384 L 1082 472 L 1183 482 C 1205 482 1228 487 1252 495 C 1276 503 1299 514 1320 528 C 1340 542 1357 560 1371 581 C 1384 602 1391 626 1391 654 C 1391 690 1377 718 1349 740 C 1321 762 1286 773 1242 773 C 1206 773 1173 764 1142 748 C 1111 731 1080 710 1049 685 L 978 732 L 978 732 Z" unicode="" />
<glyph horiz-adv-x="1882" d="M 590 1036 C 603 1046 617 1058 633 1072 C 649 1086 663 1102 677 1119 C 691 1136 702 1155 711 1175 C 720 1195 725 1215 725 1237 C 725 1254 721 1271 715 1287 C 708 1303 698 1317 685 1329 C 671 1341 655 1351 635 1359 C 615 1366 593 1370 567 1370 C 551 1370 534 1368 518 1364 C 502 1360 485 1354 469 1345 C 452 1335 435 1323 419 1307 C 402 1291 385 1272 367 1249 L 285 1288 C 300 1310 317 1332 337 1353 C 356 1373 378 1391 403 1407 C 428 1423 456 1435 487 1444 C 517 1453 552 1458 590 1458 C 625 1458 657 1453 687 1444 C 716 1434 741 1421 763 1404 C 784 1386 801 1365 813 1339 C 825 1313 831 1285 831 1253 C 831 1223 827 1196 819 1171 C 811 1146 800 1123 786 1101 C 771 1079 753 1058 732 1038 C 710 1018 686 997 659 977 L 283 688 L 729 688 L 711 598 L 131 598 L 150 692 L 590 1036 Z M 1538 1446 L 623 0 L 514 0 L 1432 1446 L 1538 1446 Z M 1273 732 C 1286 746 1302 760 1320 776 C 1338 791 1358 805 1381 818 C 1404 830 1430 841 1458 849 C 1486 857 1517 861 1551 861 C 1583 861 1613 856 1643 848 C 1673 840 1699 827 1721 811 C 1743 795 1761 775 1775 751 C 1788 727 1795 699 1795 667 C 1795 643 1791 620 1783 598 C 1775 576 1763 556 1748 538 C 1733 520 1715 505 1695 492 C 1674 478 1651 468 1627 462 L 1627 452 C 1665 440 1695 421 1717 393 C 1739 365 1750 329 1750 284 C 1750 229 1736 182 1708 142 C 1680 102 1644 70 1600 45 C 1556 19 1508 0 1455 -11 C 1401 -23 1349 -30 1299 -30 C 1276 -30 1253 -28 1229 -26 C 1205 -24 1184 -20 1166 -15 L 1166 77 C 1189 73 1212 70 1236 68 C 1260 66 1284 65 1308 65 C 1346 65 1384 68 1424 76 C 1464 84 1500 96 1532 113 C 1564 130 1591 152 1612 178 C 1632 204 1643 237 1643 275 C 1643 295 1639 313 1631 329 C 1623 344 1613 357 1601 367 C 1588 377 1573 385 1557 390 C 1541 395 1524 398 1508 398 C 1503 398 1497 397 1491 397 C 1485 396 1476 395 1466 394 C 1456 393 1443 392 1429 390 C 1415 388 1397 386 1377 384 L 1377 472 L 1478 482 C 1500 482 1523 487 1547 495 C 1571 503 1594 514 1615 528 C 1635 542 1652 560 1666 581 C 1679 602 1686 626 1686 654 C 1686 690 1672 718 1644 740 C 1616 762 1581 773 1537 773 C 1501 773 1468 764 1437 748 C 1406 731 1375 710 1344 685 L 1273 732 L 1273 732 Z" unicode="" />
<glyph horiz-adv-x="1642" d="M 424 1446 L 514 1446 L 489 1360 L 340 598 L 231 598 L 373 1323 L 381 1348 L 377 1348 L 227 1288 L 246 1384 L 424 1446 Z M 1243 1446 L 328 0 L 219 0 L 1137 1446 L 1243 1446 Z M 1106 460 C 1094 462 1082 468 1070 478 C 1058 488 1046 500 1036 515 C 1026 529 1017 546 1011 565 C 1004 584 1001 605 1001 628 C 1001 660 1008 691 1023 719 C 1038 747 1059 771 1085 791 C 1111 811 1142 827 1177 839 C 1212 851 1250 857 1290 857 C 1325 857 1359 852 1391 843 C 1423 833 1451 820 1476 802 C 1500 784 1520 763 1534 737 C 1548 711 1556 682 1556 650 C 1556 622 1551 597 1541 573 C 1531 549 1517 528 1501 510 C 1484 492 1465 476 1443 464 C 1421 451 1399 443 1376 439 L 1374 433 C 1390 428 1406 420 1422 410 C 1438 400 1451 387 1463 371 C 1474 355 1483 336 1490 315 C 1497 294 1501 271 1501 247 C 1501 209 1493 175 1478 144 C 1462 112 1441 85 1413 63 C 1385 40 1352 22 1313 10 C 1273 -2 1230 -9 1182 -9 C 1142 -9 1105 -4 1070 4 C 1035 13 1005 27 979 45 C 953 63 932 86 917 114 C 902 142 895 174 895 212 C 895 243 900 272 910 300 C 920 328 935 352 954 374 C 972 396 995 414 1021 428 C 1047 442 1075 452 1106 456 L 1106 460 Z M 1288 769 C 1263 769 1240 765 1218 759 C 1196 752 1176 742 1159 730 C 1142 717 1129 701 1119 683 C 1109 664 1104 643 1104 620 C 1104 596 1108 575 1118 558 C 1128 541 1141 527 1157 516 C 1173 505 1190 497 1210 492 C 1230 486 1250 484 1270 484 C 1294 484 1317 487 1339 495 C 1361 502 1380 512 1396 526 C 1412 540 1425 556 1435 575 C 1445 593 1450 614 1450 638 C 1450 659 1446 678 1438 694 C 1430 710 1418 724 1404 735 C 1390 746 1373 754 1353 760 C 1333 766 1311 769 1288 769 Z M 1007 230 C 1006 202 1010 179 1019 160 C 1027 141 1040 126 1056 114 C 1072 102 1091 93 1113 87 C 1135 81 1160 79 1188 79 C 1222 79 1252 83 1278 92 C 1304 101 1325 113 1343 129 C 1360 145 1373 163 1382 185 C 1390 206 1395 229 1395 255 C 1395 283 1390 306 1381 325 C 1371 343 1358 358 1342 370 C 1325 381 1306 389 1284 394 C 1262 399 1238 402 1212 402 C 1176 402 1145 397 1119 389 C 1093 380 1072 368 1056 352 C 1040 336 1028 318 1020 297 C 1012 276 1007 254 1007 230 Z" unicode="" />
<glyph horiz-adv-x="1886" d="M 246 1329 C 259 1343 275 1357 293 1373 C 311 1388 331 1402 354 1415 C 377 1427 403 1438 431 1446 C 459 1454 490 1458 524 1458 C 556 1458 586 1453 616 1445 C 646 1437 672 1424 694 1408 C 716 1392 734 1372 748 1348 C 761 1324 768 1296 768 1264 C 768 1240 764 1217 756 1195 C 748 1173 736 1153 721 1135 C 706 1117 688 1102 668 1089 C 647 1075 624 1065 600 1059 L 600 1049 C 638 1037 668 1018 690 990 C 712 962 723 926 723 881 C 723 826 709 779 681 739 C 653 699 617 667 573 642 C 529 616 481 597 428 585 C 374 573 322 567 272 567 C 249 567 226 568 202 570 C 178 572 157 576 139 582 L 139 674 C 162 670 185 667 209 665 C 233 663 257 662 281 662 C 319 662 357 665 397 673 C 437 681 473 693 505 710 C 537 727 564 749 585 775 C 605 801 616 834 616 872 C 616 892 612 910 604 926 C 596 941 586 954 574 964 C 561 974 546 982 530 987 C 514 992 497 995 481 995 C 476 995 470 994 464 994 C 458 993 449 992 439 991 C 429 990 416 989 402 987 C 388 985 370 983 350 981 L 350 1069 L 451 1079 C 473 1079 496 1084 520 1092 C 544 1100 567 1111 588 1125 C 608 1139 625 1157 639 1178 C 652 1199 659 1223 659 1251 C 659 1287 645 1315 617 1337 C 589 1359 554 1370 510 1370 C 474 1370 441 1361 410 1345 C 379 1328 348 1307 317 1282 L 246 1329 L 246 1329 Z M 1486 1446 L 571 0 L 462 0 L 1380 1446 L 1486 1446 Z M 1349 460 C 1337 462 1325 468 1313 478 C 1301 488 1289 500 1279 515 C 1269 529 1260 546 1254 565 C 1247 584 1244 605 1244 628 C 1244 660 1251 691 1266 719 C 1281 747 1302 771 1328 791 C 1354 811 1385 827 1420 839 C 1455 851 1493 857 1533 857 C 1568 857 1602 852 1634 843 C 1666 833 1694 820 1719 802 C 1743 784 1763 763 1777 737 C 1791 711 1799 682 1799 650 C 1799 622 1794 597 1784 573 C 1774 549 1760 528 1744 510 C 1727 492 1708 476 1686 464 C 1664 451 1642 443 1619 439 L 1617 433 C 1633 428 1649 420 1665 410 C 1681 400 1694 387 1706 371 C 1717 355 1726 336 1733 315 C 1740 294 1744 271 1744 247 C 1744 209 1736 175 1721 144 C 1705 112 1684 85 1656 63 C 1628 40 1595 22 1556 10 C 1516 -2 1473 -9 1425 -9 C 1385 -9 1348 -4 1313 4 C 1278 13 1248 27 1222 45 C 1196 63 1175 86 1160 114 C 1145 142 1138 174 1138 212 C 1138 243 1143 272 1153 300 C 1163 328 1178 352 1197 374 C 1215 396 1238 414 1264 428 C 1290 442 1318 452 1349 456 L 1349 460 Z M 1531 769 C 1506 769 1483 765 1461 759 C 1439 752 1419 742 1402 730 C 1385 717 1372 701 1362 683 C 1352 664 1347 643 1347 620 C 1347 596 1351 575 1361 558 C 1371 541 1384 527 1400 516 C 1416 505 1433 497 1453 492 C 1473 486 1493 484 1513 484 C 1537 484 1560 487 1582 495 C 1604 502 1623 512 1639 526 C 1655 540 1668 556 1678 575 C 1688 593 1693 614 1693 638 C 1693 659 1689 678 1681 694 C 1673 710 1661 724 1647 735 C 1633 746 1616 754 1596 760 C 1576 766 1554 769 1531 769 Z M 1250 230 C 1249 202 1253 179 1262 160 C 1270 141 1283 126 1299 114 C 1315 102 1334 93 1356 87 C 1378 81 1403 79 1431 79 C 1465 79 1495 83 1521 92 C 1547 101 1568 113 1586 129 C 1603 145 1616 163 1625 185 C 1633 206 1638 229 1638 255 C 1638 283 1633 306 1624 325 C 1614 343 1601 358 1585 370 C 1568 381 1549 389 1527 394 C 1505 399 1481 402 1455 402 C 1419 402 1388 397 1362 389 C 1336 380 1315 368 1299 352 C 1283 336 1271 318 1263 297 C 1255 276 1250 254 1250 230 Z" unicode="" />
<glyph horiz-adv-x="1886" d="M 152 676 C 173 672 196 668 222 664 C 247 660 272 659 297 659 C 341 659 384 664 425 675 C 465 685 501 702 532 724 C 563 746 588 773 606 806 C 624 839 633 878 633 922 C 633 976 619 1014 591 1036 C 563 1058 524 1069 475 1069 C 447 1069 417 1065 386 1058 C 355 1050 319 1035 279 1012 L 227 1038 L 338 1446 L 819 1446 L 801 1354 L 410 1354 L 340 1108 C 370 1124 400 1137 428 1145 C 456 1153 485 1157 516 1157 C 548 1157 577 1153 605 1145 C 632 1137 656 1124 676 1106 C 696 1088 711 1064 723 1036 C 735 1007 741 972 741 932 C 741 874 729 823 705 778 C 681 732 649 694 608 663 C 566 631 518 607 462 591 C 406 575 345 567 281 567 C 271 567 261 567 249 567 C 237 567 226 568 214 569 C 202 570 191 572 180 574 C 169 576 160 578 152 582 L 152 676 Z M 1486 1446 L 571 0 L 462 0 L 1380 1446 L 1486 1446 Z M 1349 460 C 1337 462 1325 468 1313 478 C 1301 488 1289 500 1279 515 C 1269 529 1260 546 1254 565 C 1247 584 1244 605 1244 628 C 1244 660 1251 691 1266 719 C 1281 747 1302 771 1328 791 C 1354 811 1385 827 1420 839 C 1455 851 1493 857 1533 857 C 1568 857 1602 852 1634 843 C 1666 833 1694 820 1719 802 C 1743 784 1763 763 1777 737 C 1791 711 1799 682 1799 650 C 1799 622 1794 597 1784 573 C 1774 549 1760 528 1744 510 C 1727 492 1708 476 1686 464 C 1664 451 1642 443 1619 439 L 1617 433 C 1633 428 1649 420 1665 410 C 1681 400 1694 387 1706 371 C 1717 355 1726 336 1733 315 C 1740 294 1744 271 1744 247 C 1744 209 1736 175 1721 144 C 1705 112 1684 85 1656 63 C 1628 40 1595 22 1556 10 C 1516 -2 1473 -9 1425 -9 C 1385 -9 1348 -4 1313 4 C 1278 13 1248 27 1222 45 C 1196 63 1175 86 1160 114 C 1145 142 1138 174 1138 212 C 1138 243 1143 272 1153 300 C 1163 328 1178 352 1197 374 C 1215 396 1238 414 1264 428 C 1290 442 1318 452 1349 456 L 1349 460 Z M 1531 769 C 1506 769 1483 765 1461 759 C 1439 752 1419 742 1402 730 C 1385 717 1372 701 1362 683 C 1352 664 1347 643 1347 620 C 1347 596 1351 575 1361 558 C 1371 541 1384 527 1400 516 C 1416 505 1433 497 1453 492 C 1473 486 1493 484 1513 484 C 1537 484 1560 487 1582 495 C 1604 502 1623 512 1639 526 C 1655 540 1668 556 1678 575 C 1688 593 1693 614 1693 638 C 1693 659 1689 678 1681 694 C 1673 710 1661 724 1647 735 C 1633 746 1616 754 1596 760 C 1576 766 1554 769 1531 769 Z M 1250 230 C 1249 202 1253 179 1262 160 C 1270 141 1283 126 1299 114 C 1315 102 1334 93 1356 87 C 1378 81 1403 79 1431 79 C 1465 79 1495 83 1521 92 C 1547 101 1568 113 1586 129 C 1603 145 1616 163 1625 185 C 1633 206 1638 229 1638 255 C 1638 283 1633 306 1624 325 C 1614 343 1601 358 1585 370 C 1568 381 1549 389 1527 394 C 1505 399 1481 402 1455 402 C 1419 402 1388 397 1362 389 C 1336 380 1315 368 1299 352 C 1283 336 1271 318 1263 297 C 1255 276 1250 254 1250 230 Z" unicode="" />
<glyph horiz-adv-x="1757" d="M 850 1446 L 831 1360 C 818 1349 800 1333 777 1313 C 754 1293 728 1267 698 1236 C 668 1205 637 1169 603 1128 C 569 1086 535 1039 501 986 C 467 933 434 874 402 810 C 370 745 342 674 317 598 L 199 598 C 217 658 240 716 268 773 C 295 829 324 883 356 934 C 387 985 419 1033 453 1078 C 487 1122 519 1163 551 1199 C 582 1235 611 1266 638 1292 C 664 1318 687 1339 705 1354 L 252 1354 L 270 1446 L 850 1446 Z M 1357 1446 L 442 0 L 333 0 L 1251 1446 L 1357 1446 Z M 1220 460 C 1208 462 1196 468 1184 478 C 1172 488 1160 500 1150 515 C 1140 529 1131 546 1125 565 C 1118 584 1115 605 1115 628 C 1115 660 1122 691 1137 719 C 1152 747 1173 771 1199 791 C 1225 811 1256 827 1291 839 C 1326 851 1364 857 1404 857 C 1439 857 1473 852 1505 843 C 1537 833 1565 820 1590 802 C 1614 784 1634 763 1648 737 C 1662 711 1670 682 1670 650 C 1670 622 1665 597 1655 573 C 1645 549 1631 528 1615 510 C 1598 492 1579 476 1557 464 C 1535 451 1513 443 1490 439 L 1488 433 C 1504 428 1520 420 1536 410 C 1552 400 1565 387 1577 371 C 1588 355 1597 336 1604 315 C 1611 294 1615 271 1615 247 C 1615 209 1607 175 1592 144 C 1576 112 1555 85 1527 63 C 1499 40 1466 22 1427 10 C 1387 -2 1344 -9 1296 -9 C 1256 -9 1219 -4 1184 4 C 1149 13 1119 27 1093 45 C 1067 63 1046 86 1031 114 C 1016 142 1009 174 1009 212 C 1009 243 1014 272 1024 300 C 1034 328 1049 352 1068 374 C 1086 396 1109 414 1135 428 C 1161 442 1189 452 1220 456 L 1220 460 Z M 1402 769 C 1377 769 1354 765 1332 759 C 1310 752 1290 742 1273 730 C 1256 717 1243 701 1233 683 C 1223 664 1218 643 1218 620 C 1218 596 1222 575 1232 558 C 1242 541 1255 527 1271 516 C 1287 505 1304 497 1324 492 C 1344 486 1364 484 1384 484 C 1408 484 1431 487 1453 495 C 1475 502 1494 512 1510 526 C 1526 540 1539 556 1549 575 C 1559 593 1564 614 1564 638 C 1564 659 1560 678 1552 694 C 1544 710 1532 724 1518 735 C 1504 746 1487 754 1467 760 C 1447 766 1425 769 1402 769 Z M 1121 230 C 1120 202 1124 179 1133 160 C 1141 141 1154 126 1170 114 C 1186 102 1205 93 1227 87 C 1249 81 1274 79 1302 79 C 1336 79 1366 83 1392 92 C 1418 101 1439 113 1457 129 C 1474 145 1487 163 1496 185 C 1504 206 1509 229 1509 255 C 1509 283 1504 306 1495 325 C 1485 343 1472 358 1456 370 C 1439 381 1420 389 1398 394 C 1376 399 1352 402 1326 402 C 1290 402 1259 397 1233 389 C 1207 380 1186 368 1170 352 C 1154 336 1142 318 1134 297 C 1126 276 1121 254 1121 230 Z" unicode="" />
<glyph horiz-adv-x="1167" d="M 600 1384 C 691 1374 767 1355 829 1325 C 890 1295 939 1255 976 1206 C 1013 1156 1039 1097 1055 1029 C 1071 961 1079 883 1079 797 C 1079 734 1075 670 1068 606 C 1060 541 1048 478 1031 418 C 1014 358 992 301 964 249 C 936 196 902 150 862 111 C 822 71 775 40 721 18 C 667 -4 605 -16 535 -16 C 481 -16 431 -8 385 6 C 338 20 297 43 262 74 C 227 104 200 143 180 190 C 160 237 150 293 150 358 C 150 398 154 439 162 480 C 170 521 182 561 199 599 C 215 637 236 672 262 705 C 287 738 317 767 351 791 C 385 815 424 835 468 849 C 511 863 559 870 612 870 C 684 870 749 854 807 822 C 865 790 910 742 942 678 C 944 696 945 718 946 744 C 947 769 948 793 948 817 C 946 881 940 938 930 989 C 919 1039 900 1083 873 1121 C 845 1158 808 1189 760 1213 C 712 1237 651 1254 575 1264 L 600 1384 Z M 545 98 C 587 98 625 104 659 116 C 693 128 724 144 750 164 C 776 184 799 207 818 234 C 837 260 853 288 865 318 C 877 347 886 376 892 406 C 898 436 901 464 901 492 C 901 534 893 572 878 604 C 862 636 842 663 816 685 C 790 707 759 723 725 734 C 691 744 655 750 618 750 C 566 750 520 740 480 721 C 439 702 404 676 376 642 C 348 608 326 569 311 523 C 296 477 289 428 289 375 C 289 329 295 289 307 255 C 319 221 336 192 358 169 C 380 145 407 128 439 116 C 470 104 505 98 545 98 Z" unicode="" />
<glyph horiz-adv-x="1446" d="M 1010 1446 L 1257 113 L 1235 0 L 31 0 L 53 109 L 819 1446 L 1010 1446 Z M 819 1184 L 209 119 L 1118 119 L 926 1184 L 905 1323 L 893 1323 L 819 1184 Z" unicode="" />
<glyph horiz-adv-x="1597" d="M 1694 1446 L 1671 1321 L 1487 1321 L 1184 -236 L 1047 -236 L 1350 1321 L 582 1321 L 279 -236 L 143 -236 L 446 1321 L 262 1321 L 285 1446 L 1694 1446 Z" unicode="" />
<glyph horiz-adv-x="1518" d="M 1548 1446 L 1524 1317 L 584 1317 L 461 1321 L 457 1311 L 563 1229 L 1137 651 L 1112 539 L 332 -31 L 186 -100 L 182 -111 L 319 -109 L 1247 -109 L 1223 -236 L 43 -236 L 80 -53 L 920 563 L 985 602 L 987 618 L 938 659 L 334 1266 L 369 1446 L 1548 1446 Z" unicode="" />
<glyph horiz-adv-x="1167" d="M 1159 631 L 1159 510 L 8 510 L 8 631 L 1159 631 Z" unicode="" />
<glyph horiz-adv-x="344" d="M 743 1446 L -172 0 L -281 0 L 637 1446 L 743 1446 Z" unicode="" />
<glyph horiz-adv-x="473" d="M 338 702 L 338 440 L 135 440 L 135 702 L 338 702 Z" unicode="" />
<glyph horiz-adv-x="1507" d="M 557 1053 L 690 227 L 1597 1878 L 1753 1878 L 696 0 L 586 0 L 424 930 L 147 930 L 170 1053 L 557 1053 Z" unicode="" />
</font>
</defs>
</svg>
